<?xml version="1.0" standalone="no"?>
<!DOCTYPE svg PUBLIC "-//W3C//DTD SVG 20010904//EN"
 "http://www.w3.org/TR/2001/REC-SVG-20010904/DTD/svg10.dtd">
<svg version="1.0" xmlns="http://www.w3.org/2000/svg"
 width="590.000000pt" height="384.000000pt" viewBox="0 0 590.000000 384.000000"
 preserveAspectRatio="xMidYMid meet">
<metadata>
Created by potrace 1.15, written by Peter Selinger 2001-2017
</metadata>
<g transform="translate(0.000000,384.000000) scale(0.100000,-0.100000)"
fill="#000000" stroke="none">
<path d="M423 3759 c-120 -11 -247 -36 -340 -65 -73 -23 -83 -29 -83 -50 l0
-23 72 25 c90 31 376 80 521 90 80 5 107 10 107 20 0 16 -133 17 -277 3z"/>
<path d="M1200 3746 c0 -10 19 -16 63 -21 181 -20 396 -76 461 -120 20 -13 36
-20 36 -14 0 65 -152 123 -410 155 -141 17 -150 17 -150 0z"/>
<path d="M273 3599 c-62 -10 -157 -45 -172 -63 -8 -9 -12 -279 -13 -897 l-3
-884 -42 -3 -43 -3 0 -212 0 -212 45 3 45 4 0 -125 c0 -119 1 -127 22 -142 28
-19 157 -60 165 -51 3 3 8 375 10 828 2 452 6 824 8 827 3 2 5 -369 5 -826 0
-910 -5 -843 57 -843 24 0 25 1 17 48 -7 45 -7 533 1 540 2 2 12 -1 22 -6 10
-5 39 -13 66 -16 l47 -7 0 35 c0 35 10 43 43 37 5 -1 6 3 3 8 -3 5 -22 12 -41
15 -21 4 -41 17 -51 31 -15 23 -15 27 0 50 9 14 22 25 29 25 6 1 26 7 42 15
21 11 23 13 7 9 -13 -3 -55 -3 -93 1 l-69 7 0 105 0 105 35 -26 35 -27 0 95
c0 88 -1 94 -19 89 -34 -9 -61 14 -61 52 0 34 1 35 40 35 39 0 40 -1 40 -35 0
-19 2 -35 5 -35 3 0 18 15 34 33 26 28 27 33 13 39 -9 4 30 8 88 9 91 3 96 3
33 6 -40 2 -73 5 -73 7 0 2 7 17 15 32 21 41 19 49 -20 93 -40 44 -85 59 -92
31 -3 -12 -11 -16 -25 -12 -14 3 -16 8 -9 15 14 14 15 347 1 347 -5 0 -10 7
-10 15 0 8 5 15 11 15 7 0 9 97 7 315 l-3 314 -22 6 c-22 5 -23 10 -23 100 l0
95 -27 -1 c-16 -1 -51 -5 -80 -10z"/>
<path d="M1418 3517 l-3 -82 -37 -9 c-27 -7 -38 -15 -42 -35 -3 -14 -9 -262
-13 -551 -3 -289 -8 -519 -10 -512 -10 29 -23 8 -23 -38 l0 -50 -122 -2 -123
-1 115 -7 c63 -4 118 -8 123 -9 4 0 7 -17 7 -36 0 -26 -6 -39 -26 -51 -18 -12
-22 -19 -13 -25 7 -4 18 -5 25 -2 8 3 14 -12 19 -49 l7 -54 121 23 c67 14 132
26 145 29 22 4 22 5 22 202 l0 197 25 12 c14 6 27 7 30 2 3 -4 8 -82 12 -173
7 -181 4 -176 74 -176 15 0 32 -7 39 -15 11 -13 8 -15 -13 -15 -36 0 -97 -31
-97 -48 0 -21 49 -63 105 -91 25 -12 45 -29 45 -37 0 -10 14 -14 59 -14 51 0
61 3 75 25 20 31 21 115 1 141 -13 17 -14 17 -15 2 0 -21 -35 -25 -47 -5 -13
21 -12 37 2 37 8 0 16 4 20 10 8 12 -16 50 -32 50 -7 0 -20 12 -30 28 -10 15
-24 31 -31 36 -32 20 -52 48 -52 74 0 64 61 97 122 67 30 -16 32 -16 17 -1 -8
9 -32 19 -52 23 -31 5 -40 1 -67 -25 -45 -46 -41 -78 20 -148 39 -44 50 -65
50 -91 0 -26 -4 -33 -20 -33 -13 0 -20 7 -20 20 0 10 -11 36 -25 56 -21 31
-25 34 -25 15 0 -17 -5 -22 -22 -19 -23 3 -23 6 -29 183 -7 207 -7 200 -16
192 -11 -11 -33 14 -33 39 0 14 8 25 21 29 21 7 21 9 14 225 -5 153 -4 219 4
224 6 4 73 4 149 0 l139 -7 6 -244 c6 -236 12 -289 28 -247 7 17 8 17 8 -3 1
-17 14 -29 54 -49 91 -46 105 -69 66 -110 l-21 -23 31 1 c20 1 36 8 41 19 16
30 11 75 -10 94 -16 14 -20 31 -20 77 l0 58 210 0 210 0 0 25 0 25 -210 0
-210 0 0 75 0 75 228 0 c159 1 222 4 210 11 -10 5 -18 19 -18 29 0 16 -7 20
-30 20 -16 0 -30 5 -30 10 0 6 -16 10 -35 10 -33 0 -35 2 -35 35 0 28 4 35 20
35 16 0 20 7 21 33 0 17 3 26 6 19 2 -6 9 -10 14 -6 14 8 11 24 -6 24 -9 0
-15 10 -16 23 -1 20 -2 20 -6 2 -3 -11 -10 -23 -17 -27 -8 -6 -7 -8 2 -8 6 0
12 -11 12 -25 0 -41 -28 -31 -33 13 l-4 37 -1 -37 c-2 -41 -16 -51 -25 -18 -6
23 -35 27 -43 5 -4 -8 -12 -15 -20 -15 -10 0 -14 -15 -14 -55 l0 -55 -35 0
c-32 0 -35 2 -30 23 3 12 0 30 -8 41 -12 16 -13 14 -9 -18 4 -31 1 -36 -17
-36 -16 0 -21 6 -21 24 0 14 5 28 10 31 6 3 10 16 10 28 0 22 -1 22 -20 -3
-11 -14 -20 -40 -20 -57 0 -26 -4 -33 -20 -33 -17 0 -20 7 -20 44 0 23 -3 70
-6 103 l-7 60 -49 12 c-29 6 -139 11 -264 11 l-214 0 5 -152 c3 -84 8 -197 10
-250 4 -84 3 -97 -10 -92 -19 8 -19 8 10 -70 28 -74 28 -76 17 -76 -4 0 -19
32 -32 71 -14 39 -28 73 -32 76 -5 2 -8 213 -8 469 l0 464 -22 10 c-13 6 -51
16 -85 24 l-62 14 -3 -81z"/>
<path d="M5805 3193 c-67 -4 -654 -51 -733 -59 l-62 -6 2 -341 3 -342 60 -2
c109 -5 319 -24 425 -39 104 -15 339 -60 366 -71 12 -4 14 60 14 431 0 343 -3
436 -12 434 -7 -1 -35 -3 -63 -5z m-75 -73 c0 -26 4 -30 28 -31 23 -2 24 -2 4
-6 -12 -2 -20 -9 -17 -14 4 -5 0 -16 -8 -23 -18 -18 -80 -18 -73 0 2 6 -4 14
-15 17 -10 3 -19 1 -19 -4 0 -5 5 -9 10 -9 6 0 10 -10 9 -22 0 -22 -1 -22 -9
-3 -7 16 -9 17 -9 3 -1 -9 -7 -19 -13 -21 -13 -6 26 -11 51 -7 9 1 12 -4 8
-14 -5 -12 1 -16 26 -17 18 -1 35 -1 40 0 4 0 7 -3 7 -9 0 -5 -4 -10 -10 -10
-5 0 -10 -4 -10 -8 0 -5 7 -9 15 -9 10 0 15 10 15 29 0 15 5 28 11 28 6 0 9
-7 5 -15 -3 -8 1 -21 9 -29 8 -8 15 -19 15 -25 0 -6 3 -11 8 -11 4 0 7 26 6
58 0 38 -4 56 -12 55 -7 -2 -12 2 -12 7 0 6 6 10 14 10 10 0 12 13 9 49 -2 27
1 52 7 56 6 4 10 -8 10 -30 0 -22 4 -34 10 -30 6 3 10 1 10 -4 0 -6 -4 -11
-10 -11 -15 0 -13 -127 3 -133 9 -4 8 -8 -3 -16 -13 -10 -13 -11 0 -11 11 0
12 -2 3 -8 -8 -5 -14 -34 -15 -70 -2 -49 -6 -61 -18 -59 -8 1 -14 -4 -12 -10
1 -7 -1 -12 -5 -12 -5 1 -22 1 -39 0 -24 -1 -31 -5 -30 -18 0 -10 8 -21 16
-25 12 -5 11 -7 -3 -7 -11 -1 -15 -6 -11 -12 3 -6 0 -15 -7 -20 -10 -6 -5 -9
17 -9 30 0 31 1 28 40 -1 22 2 40 7 40 5 0 9 -18 9 -40 0 -37 2 -40 28 -41 16
-1 20 -3 10 -6 -10 -2 -18 -13 -18 -24 0 -14 7 -19 28 -20 24 0 24 -1 7 -8
-11 -5 -23 -7 -27 -4 -5 2 -8 -1 -8 -7 0 -6 11 -8 25 -6 14 3 25 0 25 -5 0 -5
-11 -9 -25 -9 -18 0 -25 -5 -25 -20 0 -11 7 -20 16 -20 8 0 12 -4 9 -10 -3 -5
-1 -10 6 -10 10 0 10 -3 1 -12 -10 -10 -15 -10 -21 1 -5 8 -16 11 -29 7 -15
-5 -22 -2 -25 11 -3 10 -6 2 -7 -17 -1 -19 -4 -29 -7 -22 -8 20 -22 14 -16 -8
3 -11 9 -17 14 -14 5 3 9 0 9 -5 0 -6 -4 -11 -10 -11 -5 0 -10 -9 -10 -20 0
-11 -5 -20 -11 -20 -6 0 -8 7 -5 16 4 12 2 15 -9 10 -8 -3 -15 -1 -15 3 0 5 6
11 13 14 9 3 11 19 8 48 -2 24 -6 38 -9 30 -4 -11 -6 -11 -13 0 -7 11 -9 11
-9 -3 0 -9 -6 -19 -12 -22 -7 -4 -3 -4 10 -2 12 2 22 1 22 -3 0 -5 -10 -13
-22 -20 l-23 -12 23 5 c12 2 22 0 22 -5 0 -5 -4 -9 -9 -9 -5 0 -16 -7 -25 -15
-21 -21 -46 -8 -46 24 0 18 -5 28 -15 28 -8 0 -15 -7 -15 -14 0 -8 5 -11 10
-8 6 3 10 2 10 -4 0 -12 -66 -34 -80 -26 -5 3 -10 17 -10 30 0 18 -4 23 -15
19 -8 -4 -15 -10 -15 -16 0 -5 5 -6 10 -3 6 3 10 2 10 -4 0 -18 -43 -25 -55
-8 -8 11 -16 13 -26 6 -21 -13 -27 -11 -31 13 -3 21 -4 21 -21 4 -13 -13 -18
-14 -21 -4 -13 39 -14 42 -15 20 -1 -13 -5 -20 -11 -17 -5 3 -10 1 -10 -4 0
-6 -4 -11 -10 -11 -5 0 -10 15 -11 33 0 17 -3 25 -6 17 -4 -8 -13 -21 -21 -29
-11 -11 -15 -12 -22 -2 -9 16 -21 16 -31 -1 -7 -11 -11 -10 -19 2 -6 9 -10 10
-10 3 0 -13 -50 -8 -60 6 -3 4 -13 10 -22 14 -13 4 -18 1 -19 -11 0 -14 -2
-14 -9 3 -5 11 -9 14 -9 8 -1 -7 -5 -13 -10 -13 -5 0 -9 38 -10 85 -1 70 1 85
14 85 9 0 15 10 16 28 l1 27 8 -25 c7 -21 8 -22 10 -5 7 72 4 115 -7 115 -7 0
-10 -7 -6 -17 4 -11 3 -14 -5 -9 -7 4 -12 1 -12 -8 0 -9 -4 -16 -9 -16 -5 0
-8 22 -8 50 2 47 4 50 29 50 22 0 25 3 20 23 -3 12 -10 26 -16 30 -8 6 -7 10
2 14 13 5 17 24 5 22 -21 -3 -33 2 -33 16 0 8 5 15 10 15 6 0 10 5 10 11 0 5
-4 7 -10 4 -6 -4 -10 7 -10 27 0 25 3 29 10 18 9 -13 10 -13 10 0 0 13 1 13
10 0 8 -13 10 -13 10 2 0 9 -5 18 -12 20 -8 3 -5 12 10 28 l22 24 0 -37 c0
-20 5 -37 10 -37 6 0 12 0 15 0 3 0 4 3 3 8 -2 4 -6 6 -10 4 -5 -1 -8 10 -8
24 0 14 4 23 10 19 6 -3 10 -1 10 6 0 7 3 10 6 6 3 -3 17 -2 30 3 15 6 24 6
24 0 0 -6 -7 -10 -16 -10 -8 0 -22 -6 -29 -14 -12 -12 -12 -15 0 -19 8 -4 16
1 18 11 3 9 5 2 6 -15 1 -26 5 -33 22 -33 11 0 17 5 14 10 -4 6 -11 8 -16 5
-5 -4 -9 -1 -9 4 0 6 6 11 13 12 10 0 10 2 0 6 -22 8 -14 23 12 23 14 0 25 4
25 10 0 5 -7 7 -15 4 -8 -4 -15 -1 -15 5 0 6 13 10 30 9 17 -1 30 -7 30 -13 0
-5 5 -3 11 5 8 11 12 12 16 3 2 -7 12 -13 21 -12 11 0 12 2 5 6 -21 8 -15 20
10 18 36 -4 37 -4 37 -20 0 -9 9 -15 23 -14 16 1 18 2 5 6 -10 2 -18 9 -18 14
0 6 4 8 9 4 5 -3 13 -1 16 5 4 7 14 3 26 -11 10 -12 19 -16 19 -9 0 7 7 10 15
6 8 -3 15 -1 15 4 0 6 -12 10 -27 10 -22 0 -25 2 -13 10 20 13 67 13 76 -1 4
-8 9 -7 15 2 6 10 9 5 9 -14 0 -17 4 -26 10 -22 6 4 8 11 5 16 -4 5 -1 9 5 9
7 0 10 -12 8 -27 -2 -18 2 -27 10 -25 16 3 16 -15 0 -21 -7 -3 -3 -6 8 -6 18
-1 20 3 16 25 -4 22 -1 26 19 24 37 -3 46 1 24 10 -15 7 -10 9 25 10 35 1 40
3 25 10 -17 7 -17 9 -3 9 11 1 15 6 12 16 -4 8 -1 15 5 15 6 0 11 -13 11 -30z"/>
<path d="M4185 3051 l-60 -6 -5 -105 c-3 -58 -9 -111 -13 -118 -5 -7 -33 -12
-75 -12 -37 0 -111 -3 -164 -7 l-98 -6 0 -109 0 -108 28 -1 c15 0 90 -6 167
-12 l139 -12 -3 -172 -3 -171 76 -13 c42 -6 75 -14 72 -16 -2 -2 -26 -8 -53
-13 l-48 -8 63 -1 c34 0 62 -5 62 -11 0 -5 -1 -10 -2 -10 -2 0 -60 -7 -129
-14 -115 -13 -132 -13 -202 4 -45 10 -80 14 -83 8 -3 -5 -2 -74 2 -153 l7
-144 66 -22 c36 -12 71 -24 78 -26 7 -3 27 11 45 30 31 33 36 35 73 27 22 -4
34 -8 26 -9 -8 0 -12 -3 -9 -6 3 -4 18 -3 34 1 25 6 26 8 9 14 -15 5 -6 10 34
20 53 12 53 12 83 -18 30 -29 31 -59 2 -48 -8 3 -14 0 -14 -5 0 -6 -9 -9 -20
-6 -13 3 -18 1 -13 -6 4 -6 -2 -8 -15 -5 -14 4 -20 2 -16 -4 5 -7 -2 -9 -20
-4 -15 4 -26 2 -26 -3 0 -6 -7 -8 -16 -4 -9 3 -19 1 -23 -6 -8 -12 -36 -5
-103 24 -15 6 -18 2 -18 -22 l0 -29 -177 -18 c-98 -9 -191 -20 -208 -23 -29
-6 -29 -6 18 -20 26 -8 50 -20 53 -27 3 -7 -11 -71 -29 -143 -19 -72 -33 -142
-30 -157 4 -18 1 -26 -8 -26 -10 0 -11 -2 -2 -8 9 -6 7 -26 -8 -86 -11 -43
-18 -80 -16 -83 3 -2 10 18 16 44 30 122 30 121 52 116 17 -5 20 -12 17 -47
-2 -23 -8 -48 -13 -56 -6 -8 -12 -73 -14 -144 -2 -100 0 -130 10 -137 11 -6
23 17 51 103 l38 111 -21 34 c-16 25 -19 43 -15 67 7 37 -6 32 165 57 l83 12
-5 34 c-5 29 -3 35 19 43 29 11 165 13 214 4 25 -6 31 -11 27 -26 -5 -18 -2
-19 36 -13 118 18 107 10 107 75 0 50 3 60 20 65 11 3 29 3 40 0 17 -5 20 -15
20 -61 0 -48 2 -55 18 -50 9 2 59 10 110 17 91 13 93 13 90 38 -3 24 0 26 45
29 42 3 47 1 47 -17 0 -15 6 -21 23 -20 75 2 60 15 -152 133 -116 66 -210 121
-208 123 4 4 338 -68 347 -74 2 -2 -2 -8 -10 -13 -11 -7 -8 -11 13 -19 16 -6
40 -11 55 -11 63 0 72 -8 72 -64 0 -56 -11 -70 -88 -110 -30 -15 -33 -21 -30
-54 3 -40 23 -42 23 -3 1 25 38 50 77 51 28 0 78 -58 78 -91 0 -19 5 -29 15
-29 19 0 20 46 1 83 -11 19 -12 27 -3 27 22 -1 51 -30 52 -52 0 -12 6 -23 13
-25 6 -3 12 2 12 11 0 22 5 21 84 -19 37 -19 77 -35 87 -35 11 0 19 -2 19 -4
0 -5 -59 -74 -87 -101 -31 -30 -54 -155 -33 -180 30 -36 175 -90 373 -140
l107 -27 68 37 c37 20 82 48 100 62 36 27 37 31 11 125 -8 33 -18 42 -69 68
l-60 30 0 -22 c0 -39 -35 -84 -70 -92 -55 -11 -71 -7 -101 23 -35 36 -38 80
-8 122 11 16 16 29 10 29 -11 0 -71 49 -71 58 0 4 28 5 61 4 42 -3 59 0 55 7
-4 6 -2 20 5 33 11 21 12 21 25 3 18 -25 18 -39 -1 -31 -9 3 -15 0 -15 -8 0
-8 -6 -17 -12 -19 -10 -4 -10 -8 -2 -14 7 -4 14 -17 17 -28 5 -19 5 -19 6 1 2
42 37 48 190 34 l140 -13 4 -86 c2 -58 4 -38 5 61 l2 146 -75 70 -75 70 0 215
0 215 75 59 c73 57 74 59 75 104 l0 46 -224 77 -224 77 -172 -91 c-95 -49
-174 -90 -176 -90 -2 0 -4 53 -4 118 l0 118 -242 32 c-216 29 -349 40 -337 28
8 -9 515 -77 541 -74 l28 5 0 -118 0 -117 -95 -48 c-52 -26 -95 -51 -95 -55 0
-5 8 -13 18 -19 14 -9 10 -10 -18 -6 -112 18 -340 70 -340 78 0 5 30 6 68 4
65 -5 63 -4 -53 24 -66 16 -136 33 -155 37 -47 11 -46 35 3 47 l37 10 0 155
c0 86 3 287 7 447 l6 291 -24 6 c-41 10 -201 15 -264 8z m1365 -867 c5 -12 13
-25 19 -28 5 -4 22 -32 38 -64 15 -31 32 -60 36 -63 13 -10 -3 -37 -26 -43
-12 -3 -24 0 -28 5 -4 8 -14 6 -30 -4 -13 -9 -48 -19 -77 -23 -37 -5 -58 -13
-69 -28 l-15 -21 5 22 c3 15 1 20 -9 16 -8 -3 -14 -10 -14 -17 0 -20 -41 -50
-50 -36 -5 8 -9 7 -13 -5 -4 -9 -3 -13 3 -10 6 3 10 2 10 -4 0 -7 8 -7 25 -1
14 5 25 7 25 4 0 -2 9 0 20 6 12 6 20 7 20 1 0 -5 -31 -19 -70 -30 -38 -12
-77 -24 -85 -28 -11 -4 -16 -1 -15 8 6 39 1 42 -51 35 -36 -5 -49 -4 -44 4 4
6 2 17 -4 24 -7 8 -13 36 -14 63 -2 50 11 74 43 81 7 2 18 9 24 16 16 19 88
61 106 61 8 0 18 -4 22 -10 4 -5 8 0 8 12 0 27 40 56 65 47 13 -5 16 -15 12
-40 -5 -27 -3 -32 10 -27 11 4 13 14 9 35 -5 26 -2 31 34 47 52 23 70 22 80
-5z m90 -484 c0 -87 4 -140 10 -140 6 0 10 -9 10 -19 0 -20 -49 -39 -70 -26
-6 4 -10 -25 -10 -84 0 -74 -3 -91 -15 -91 -12 0 -15 17 -15 90 l0 90 -42 -5
c-24 -3 -55 -8 -70 -10 -15 -2 -30 0 -33 5 -3 6 4 10 17 10 15 0 27 9 34 24 9
20 9 23 -2 19 -11 -4 -14 11 -16 68 l-2 74 -3 -72 c-3 -64 -6 -73 -23 -73 -26
0 -31 11 -31 77 -1 77 -13 105 -42 101 l-22 -3 -1 -275 c0 -255 -2 -279 -21
-328 l-21 -53 23 -15 c18 -12 28 -13 44 -5 29 16 30 14 18 -20 -11 -27 -15
-30 -41 -25 -40 8 -78 34 -70 48 4 6 0 16 -9 23 -15 11 -14 19 13 90 30 77 30
78 28 264 l-3 186 -32 -3 c-33 -3 -33 -3 -33 44 0 50 -5 48 60 28 37 -12 22
24 -15 36 -32 11 -35 15 -35 51 0 21 4 39 8 39 5 0 45 -16 89 -35 45 -19 88
-35 97 -35 21 0 106 42 106 52 0 4 10 8 23 8 12 1 36 7 52 15 17 7 33 14 38
14 4 1 7 -62 7 -139z m-380 -154 c0 -25 -6 -51 -14 -58 -13 -14 -282 -56 -292
-46 -2 3 -7 28 -11 55 l-5 50 38 6 c65 11 78 9 64 -8 -10 -12 -10 -15 1 -16 8
-1 19 0 24 2 6 1 24 3 40 4 49 3 105 17 105 26 0 8 26 23 48 28 1 1 2 -19 2
-43z"/>
<path d="M740 2752 c1 -4 15 -16 32 -27 17 -11 41 -33 52 -48 20 -28 21 -40
24 -478 1 -247 -1 -449 -5 -449 -17 0 -30 16 -39 45 l-8 30 -4 -36 c-2 -23
-12 -45 -29 -60 l-25 -24 4 58 c1 31 0 57 -4 57 -9 0 -15 -143 -6 -155 5 -5 8
-2 8 8 0 20 9 21 31 4 12 -9 14 -18 7 -36 l-9 -24 -28 27 -29 28 -25 -43 c-14
-23 -23 -47 -21 -53 3 -6 70 -62 150 -125 79 -63 142 -116 140 -118 -2 -3 2
-16 10 -31 12 -24 12 -28 -4 -34 -9 -4 -51 -7 -93 -7 -64 -1 -81 3 -104 21
l-28 22 7 -65 c11 -92 23 -113 69 -117 35 -3 37 -5 37 -36 0 -34 -7 -44 -84
-115 -43 -41 -47 -78 -6 -73 28 3 70 39 70 59 0 8 7 16 15 19 8 4 15 11 15 16
0 28 76 98 107 98 1 0 3 -16 3 -35 0 -31 -3 -35 -25 -35 -19 0 -25 -5 -25 -21
0 -12 -8 -23 -18 -26 -10 -2 -30 -30 -45 -61 -14 -31 -50 -97 -78 -147 -80
-141 -289 -560 -289 -579 0 -34 39 4 97 95 85 133 80 128 97 106 8 -10 44 -50
81 -89 l68 -71 116 17 c133 20 344 53 382 61 22 5 28 1 43 -33 21 -47 53 -71
63 -46 3 10 2 34 -4 55 -11 43 -12 42 85 55 58 7 75 25 48 52 -9 9 -59 30
-112 47 l-97 31 -57 130 c-31 71 -71 158 -87 194 -17 36 -38 82 -46 103 -9 20
-21 37 -26 37 -15 0 -14 56 2 81 10 17 9 22 -6 30 -9 6 -15 15 -11 20 3 5 0
17 -8 27 -8 10 0 7 20 -7 18 -13 37 -34 42 -47 11 -29 21 -30 45 -4 19 21 13
55 -9 47 -7 -3 -31 6 -52 21 l-39 26 40 7 c39 7 43 4 158 -87 64 -52 123 -97
130 -100 31 -12 147 122 147 171 0 15 -34 49 -117 116 -64 52 -135 110 -157
129 -23 20 -52 43 -66 52 -14 8 -53 40 -87 69 -34 30 -76 64 -93 77 -30 23
-40 52 -19 52 6 0 29 -14 50 -31 32 -25 42 -29 54 -19 16 13 20 40 7 40 -5 0
-28 19 -53 43 -92 87 -138 120 -153 108 -11 -9 -15 -7 -19 9 -7 29 -53 27 -64
-2 -4 -13 -10 178 -13 432 -5 486 -5 485 -56 532 -22 19 -74 41 -74 30z m665
-1589 c80 -64 145 -123 145 -131 0 -7 -4 -11 -9 -8 -5 4 -11 2 -13 -4 -2 -7
-255 186 -307 236 -10 9 11 35 24 30 9 -3 81 -58 160 -123z m-440 -477 c-7
-103 -16 -190 -18 -192 -6 -6 -221 -24 -226 -19 -1 2 39 70 89 152 138 220
161 255 166 251 2 -2 -3 -89 -11 -192z m200 8 c114 -237 110 -225 82 -220 -12
3 -74 8 -137 11 l-116 7 35 194 c19 107 37 194 41 194 3 0 46 -84 95 -186z"/>
<path d="M2217 2604 c-2 -2 0 -36 4 -76 4 -40 8 -86 8 -102 l1 -29 100 5 c55
3 102 7 104 9 2 2 -2 42 -8 89 -9 73 -14 85 -31 88 -64 8 -176 18 -178 16z"/>
<path d="M3546 2425 c-5 -14 27 -35 55 -35 5 0 9 -9 9 -21 0 -17 -4 -19 -22
-13 -13 3 -24 10 -26 15 -2 4 -10 5 -18 2 -17 -6 -20 -98 -3 -108 21 -14 125
-17 167 -6 41 12 42 13 42 55 0 57 -22 78 -49 48 -19 -23 -31 -20 -31 10 0 10
7 19 15 19 8 1 21 2 28 3 12 1 24 46 12 46 -4 0 -13 -7 -22 -16 -9 -8 -23 -12
-31 -9 -8 3 -19 0 -24 -7 -8 -10 -11 -10 -15 -1 -3 8 -14 11 -30 7 -18 -5 -30
-2 -38 10 -11 15 -13 15 -19 1z"/>
<path d="M3180 2360 c0 -14 -11 -22 -42 -30 -24 -6 -59 -16 -80 -21 -20 -5
-81 -7 -135 -5 -94 5 -96 2 -5 -10 27 -3 42 -10 42 -20 0 -19 63 -18 145 2 51
13 65 21 68 38 2 11 5 -50 6 -136 1 -155 1 -158 24 -163 66 -14 207 -35 242
-35 44 0 59 7 68 30 3 8 6 -11 6 -43 l1 -57 -46 -30 c-26 -16 -50 -31 -55 -32
-4 -2 -10 -20 -14 -40 -6 -32 -4 -38 10 -38 13 0 16 6 12 26 -4 22 0 28 29 40
18 8 42 14 52 14 27 0 76 -56 77 -87 0 -14 6 -28 13 -30 18 -7 15 63 -4 92
-19 29 -16 30 29 9 27 -13 33 -21 29 -40 -3 -17 0 -24 12 -24 9 0 16 6 15 13
-3 38 -19 60 -64 90 -47 30 -50 35 -53 80 -3 42 0 49 17 54 12 3 21 9 21 14 0
5 15 9 33 9 18 0 38 5 45 12 18 18 -5 38 -44 38 l-34 0 0 56 0 56 40 -4 c22
-2 40 0 40 5 0 5 34 7 78 4 66 -5 71 -5 37 4 -22 6 -109 23 -194 38 -157 26
-192 42 -129 59 25 6 34 14 36 34 3 26 2 27 -60 27 -35 0 -106 5 -158 10 -52
6 -98 11 -102 11 -5 0 -8 -9 -8 -20z"/>
<path d="M4514 2325 c-9 -14 -15 -27 -13 -29 4 -3 173 -31 252 -42 32 -4 47
-3 47 5 0 14 50 14 85 1 14 -5 23 -14 20 -20 -9 -14 8 -13 23 2 10 10 17 48 9
48 -2 0 -91 13 -198 30 -106 16 -197 30 -201 30 -4 0 -15 -11 -24 -25z"/>
<path d="M2059 2273 c-21 -3 -26 -9 -22 -23 4 -14 -1 -22 -16 -28 -21 -7 -20
-9 19 -62 23 -30 44 -55 48 -55 4 1 26 4 50 9 l42 8 0 79 0 79 -47 -1 c-27 -1
-60 -4 -74 -6z"/>
<path d="M4486 2234 c-8 -22 -7 -97 2 -111 7 -11 319 -78 397 -85 30 -3 30 -3
33 56 4 72 -1 86 -26 79 -16 -4 -19 -12 -17 -46 1 -23 5 -50 9 -59 6 -13 4
-18 -8 -18 -9 0 -16 4 -16 9 0 5 -9 7 -20 4 -22 -6 -26 8 -10 36 6 13 5 31 -7
60 -17 44 -14 42 -117 47 -27 1 -43 -2 -36 -6 9 -5 9 -13 2 -25 -7 -13 -6 -28
3 -49 12 -29 12 -32 -6 -32 -10 0 -19 4 -19 9 0 4 -4 5 -10 2 -19 -12 -31 5
-19 27 8 16 8 30 -1 59 -12 35 -17 39 -62 48 -63 14 -65 14 -72 -5z"/>
<path d="M2540 2233 c-8 -2 -21 -7 -29 -9 -27 -9 7 -27 65 -35 59 -8 76 -20
72 -54 -3 -17 -12 -20 -53 -23 -74 -4 -77 -4 -122 4 -45 7 -50 24 -7 24 31 0
30 18 -3 58 l-28 33 -49 -50 -50 -51 21 -22 c11 -13 26 -33 32 -46 16 -30 35
-17 27 19 -4 20 -1 29 7 29 14 0 137 -86 137 -96 0 -4 -16 -3 -36 1 -24 4 -39
2 -44 -5 -4 -6 -36 -14 -71 -18 l-64 -7 65 -24 c96 -34 179 -83 230 -136 l45
-46 4 -84 c2 -71 6 -85 20 -85 40 0 361 35 361 40 0 3 -74 56 -164 119 l-164
113 -6 49 c-4 26 -11 51 -16 54 -24 15 -7 24 23 12 26 -11 31 -18 29 -40 -3
-19 1 -27 12 -27 12 0 16 10 16 35 0 29 -5 37 -32 52 l-33 17 120 13 c285 30
282 27 48 43 -190 12 -213 16 -219 32 -12 38 5 57 55 64 59 8 76 17 68 38 -5
14 -25 16 -129 15 -68 0 -130 -3 -138 -6z"/>
<path d="M2020 1931 c0 -11 7 -27 16 -35 14 -15 12 -16 -18 -16 -19 0 -45 -10
-62 -23 -26 -21 -27 -24 -12 -39 11 -12 16 -35 16 -77 l0 -61 133 0 133 0 16
28 c17 29 27 140 14 160 -5 8 -38 12 -92 12 -63 0 -84 3 -84 13 0 7 -13 23
-30 35 -29 22 -30 22 -30 3z"/>
<path d="M1274 1905 c-4 -9 -4 -44 -2 -79 l4 -64 -36 4 c-32 4 -33 3 -13 -7
13 -7 25 -20 28 -29 7 -21 42 -16 47 6 2 9 31 -2 99 -41 l97 -54 148 30 c176
36 184 42 184 130 0 32 -4 61 -10 64 -6 4 -10 -20 -10 -65 0 -64 -2 -71 -22
-80 -33 -14 -280 -60 -290 -54 -4 3 -8 36 -8 75 0 38 -4 69 -10 69 -5 0 -50
25 -100 55 -50 30 -93 55 -96 55 -2 0 -7 -7 -10 -15z"/>
<path d="M1647 1884 c-6 -6 -19 -9 -79 -18 -31 -4 -48 -28 -48 -67 0 -21 4
-40 8 -43 7 -4 38 1 120 19 19 5 22 12 22 60 0 51 -7 65 -23 49z"/>
<path d="M1297 1683 c-4 -3 -7 -36 -7 -73 l0 -67 111 -63 111 -63 141 28 c185
35 187 36 187 125 0 40 -4 70 -10 70 -6 0 -10 -30 -10 -69 0 -39 -4 -73 -10
-76 -13 -8 -248 -54 -277 -55 -22 0 -23 4 -23 70 0 41 -4 70 -10 70 -6 0 -52
25 -102 55 -102 62 -93 57 -101 48z"/>
<path d="M3292 1660 c-89 -10 -166 -20 -171 -22 -5 -2 68 -57 161 -122 157
-110 171 -117 182 -100 12 20 75 231 76 252 0 16 -43 14 -248 -8z"/>
<path d="M2636 1622 c-18 -29 -133 -94 -237 -134 l-109 -42 0 -69 c0 -78 -11
-76 115 -30 91 33 183 84 218 121 26 27 28 34 25 98 -2 44 -6 64 -12 56z"/>
<path d="M2350 1183 c0 -32 -7 -71 -15 -87 -9 -16 -14 -31 -12 -33 5 -4 188
24 193 30 4 4 -131 127 -153 141 -10 5 -13 -7 -13 -51z"/>
<path d="M3980 1121 c0 -66 3 -122 8 -124 4 -3 22 -8 40 -12 l32 -7 0 125 0
125 -31 6 c-17 3 -35 6 -40 6 -5 0 -9 -54 -9 -119z"/>
<path d="M2912 1136 c-188 -27 -341 -54 -340 -58 2 -4 63 -58 137 -121 l134
-115 61 50 c77 62 230 137 368 180 77 23 106 37 103 46 -3 8 0 12 7 10 20 -7
21 -35 4 -68 -12 -26 -13 -32 0 -44 13 -14 54 -11 54 3 0 4 7 16 15 27 14 18
14 17 5 -10 -7 -20 -7 -32 0 -42 14 -16 50 -14 43 2 -2 7 3 25 12 41 9 15 14
20 11 11 -6 -21 9 -24 17 -4 5 13 -11 33 -40 50 -19 11 -49 -10 -63 -44 -7
-17 -15 -28 -18 -26 -2 3 7 25 21 49 l26 44 -40 22 c-40 23 -41 23 -62 4 -38
-34 -53 -38 -23 -5 26 28 27 31 10 40 -31 16 -85 11 -442 -42z"/>
<path d="M4198 945 c3 -93 7 -173 11 -177 3 -4 25 -10 49 -14 l42 -7 0 127 c0
118 -1 126 -19 126 -24 0 -36 16 -19 24 7 4 -4 4 -24 2 l-37 -5 -4 47 c-2 26
-1 -29 1 -123z"/>
<path d="M4400 1019 c11 -8 12 -12 3 -16 -10 -3 -13 -38 -13 -124 l0 -120 28
3 27 3 3 128 c2 81 -1 126 -7 123 -5 -4 -12 -2 -16 4 -3 5 -14 10 -23 10 -15
0 -15 -2 -2 -11z"/>
<path d="M0 850 l0 -132 28 6 c15 3 81 13 147 21 66 9 126 18 133 21 9 3 0 19
-27 51 -23 25 -40 48 -38 49 2 2 52 -3 113 -10 60 -8 162 -17 227 -21 103 -6
117 -5 117 9 0 9 -8 16 -17 16 -51 0 -312 32 -411 51 -96 17 -201 44 -258 66
-12 4 -14 -19 -14 -127z"/>
<path d="M3320 849 c-40 -15 -49 -36 -44 -93 9 -88 13 -96 49 -112 19 -8 48
-14 65 -14 l30 0 0 59 c0 51 3 59 20 64 20 5 21 2 18 -61 l-3 -67 -101 -36
c-56 -20 -130 -52 -165 -70 -60 -32 -64 -37 -76 -84 -21 -84 -21 -85 70 -141
45 -28 90 -54 101 -58 33 -11 357 79 449 126 21 10 43 29 48 42 15 31 -5 124
-34 163 -34 47 -98 115 -103 111 -2 -3 7 -33 21 -68 29 -74 30 -86 11 -93 -9
-3 -12 -14 -9 -25 4 -15 -4 -23 -36 -36 -55 -21 -57 -21 -70 14 -9 28 -9 29 9
20 20 -11 70 5 70 22 0 17 -45 138 -51 138 -4 0 -10 -12 -13 -26 -11 -44 -37
-76 -51 -64 -20 16 -25 61 -8 67 7 3 13 13 12 22 -3 35 1 61 11 61 6 0 11 -28
11 -62 1 -35 4 -49 6 -33 3 17 10 37 18 45 7 8 15 22 18 30 4 12 6 12 6 -2 1
-11 6 -15 16 -12 8 4 13 10 10 14 -3 4 6 39 19 78 l24 70 -29 4 c-33 5 -44 -4
-54 -45 -11 -43 -28 -32 -20 13 8 48 -8 54 -24 9 l-11 -31 -29 31 c-40 43 -56
40 -70 -13 -10 -41 -26 -64 -37 -54 -2 3 2 23 10 46 13 36 13 41 -1 46 -8 3
-19 4 -24 0 -5 -3 -9 0 -9 5 0 13 -16 13 -50 0z"/>
<path d="M517 785 c-81 -12 -150 -25 -153 -28 -3 -3 11 -23 33 -45 l38 -39
135 69 c74 37 125 68 115 67 -11 -1 -87 -11 -168 -24z"/>
<path d="M2675 514 c-33 -7 -77 -15 -98 -18 l-38 -7 94 -98 c51 -54 122 -137
156 -185 l63 -86 94 0 c52 0 94 2 94 5 0 3 -59 81 -132 173 -73 92 -141 181
-152 197 l-21 30 -60 -11z"/>
</g>
</svg>
