<svg xmlns="http://www.w3.org/2000/svg" xmlns:xlink="http://www.w3.org/1999/xlink" viewBox="0 0 176.05 295.4"><defs><style>.cls-1{fill:none;}.cls-2{fill:url(#New_Gradient_Swatch_2);}.cls-3{fill:url(#New_Gradient_Swatch_3);}.cls-4{fill:url(#New_Gradient_Swatch_2-2);}.cls-5{fill:url(#New_Gradient_Swatch_2-3);}.cls-6{fill:url(#New_Gradient_Swatch_3-2);}.cls-7{fill:url(#New_Gradient_Swatch_2-4);}.cls-138,.cls-8{opacity:0.75;}.cls-8{fill:url(#New_Gradient_Swatch_1);}.cls-9{fill:url(#New_Gradient_Swatch_2-5);}.cls-10{fill:url(#New_Gradient_Swatch_3-3);}.cls-11{clip-path:url(#clip-path);}.cls-12{fill:#727272;}.cls-13{fill:#717171;}.cls-14{fill:#707070;}.cls-15{fill:#6f6f6f;}.cls-16{fill:#6e6e6e;}.cls-17{fill:#6d6d6d;}.cls-18{fill:#6c6c6c;}.cls-19{fill:#6b6b6b;}.cls-20{fill:#6a6a6a;}.cls-21{fill:#696969;}.cls-22{fill:#686868;}.cls-23{fill:#676767;}.cls-24{fill:#666;}.cls-25{fill:#656565;}.cls-26{fill:#646464;}.cls-27{fill:#636363;}.cls-28{fill:#626262;}.cls-29{fill:#616161;}.cls-30{fill:#606060;}.cls-31{fill:#5e5e5e;}.cls-32{fill:#5d5d5d;}.cls-33{fill:#5c5c5c;}.cls-34{fill:#5b5b5b;}.cls-35{fill:#5a5a5a;}.cls-36{fill:#595959;}.cls-37{fill:#585858;}.cls-38{fill:#575757;}.cls-39{fill:#565656;}.cls-40{fill:#555;}.cls-41{fill:#545454;}.cls-42{fill:#535353;}.cls-43{fill:#525252;}.cls-44{fill:#515151;}.cls-45{fill:#505050;}.cls-46{fill:#4f4f4f;}.cls-47{fill:#4e4e4e;}.cls-48{fill:#4d4d4d;}.cls-49{fill:#5f5f5f;}.cls-50{fill:#737373;}.cls-51{fill:#747474;}.cls-52{fill:#757575;}.cls-53{fill:#777;}.cls-54{fill:#787878;}.cls-55{fill:#797979;}.cls-56{fill:#7a7a7a;}.cls-57{fill:#7b7b7b;}.cls-58{fill:#7c7c7c;}.cls-59{fill:#7d7d7d;}.cls-60{fill:#7e7e7e;}.cls-61{fill:#7f7f7f;}.cls-62{fill:gray;}.cls-63{fill:#818181;}.cls-64{fill:#828282;}.cls-65{fill:#838383;}.cls-66{fill:#848484;}.cls-67{fill:#858585;}.cls-68{fill:#868686;}.cls-69{fill:#878787;}.cls-70{fill:#888;}.cls-71{fill:#898989;}.cls-72{fill:#8a8a8a;}.cls-73{fill:#8b8b8b;}.cls-74{fill:#8c8c8c;}.cls-75{fill:#8d8d8d;}.cls-76{fill:#8e8e8e;}.cls-77{fill:#8f8f8f;}.cls-78{fill:#909090;}.cls-79{fill:#919191;}.cls-80{fill:#929292;}.cls-81{fill:#939393;}.cls-82{fill:#949494;}.cls-83{fill:#959595;}.cls-84{fill:#969696;}.cls-85{fill:#979797;}.cls-86{fill:#989898;}.cls-87{fill:#999;}.cls-88{fill:#9a9a9a;}.cls-89{fill:#9b9b9b;}.cls-90{fill:#9c9c9c;}.cls-91{fill:#9d9d9d;}.cls-92{fill:#9e9e9e;}.cls-93{fill:#9f9f9f;}.cls-94{fill:#767676;}.cls-95{fill:#4c4c4c;}.cls-96{fill:#4b4b4b;}.cls-97{fill:#4a4a4a;}.cls-98{fill:#494949;}.cls-99{fill:#484848;}.cls-100{fill:#474747;}.cls-101{fill:#464646;}.cls-102{fill:#454545;}.cls-103{fill:#444;}.cls-104{fill:#434343;}.cls-105{fill:#424242;}.cls-106{fill:#414141;}.cls-107{fill:#404040;}.cls-108{fill:#3f3f3f;}.cls-109{fill:#3e3e3e;}.cls-110{fill:#3d3d3d;}.cls-111{fill:#3c3c3c;}.cls-112{fill:#3b3b3b;}.cls-113{fill:#3a3a3a;}.cls-114{fill:#393939;}.cls-115{fill:#383838;}.cls-116{fill:#373737;}.cls-117{fill:url(#New_Gradient_Swatch_3-4);}.cls-118{fill:url(#linear-gradient);}.cls-119{fill:url(#New_Gradient_Swatch_5);}.cls-120{fill:url(#New_Gradient_Swatch_5-2);}.cls-121{fill:url(#New_Gradient_Swatch_5-3);}.cls-122{fill:url(#linear-gradient-2);}.cls-123{fill:url(#New_Gradient_Swatch_5-4);}.cls-124{fill:url(#New_Gradient_Swatch_5-5);}.cls-125{fill:url(#New_Gradient_Swatch_5-6);}.cls-126{fill:url(#linear-gradient-3);}.cls-127{fill:url(#New_Gradient_Swatch_5-7);}.cls-128{fill:url(#New_Gradient_Swatch_5-8);}.cls-129{fill:url(#New_Gradient_Swatch_5-9);}.cls-130{fill:url(#linear-gradient-4);}.cls-131{fill:url(#New_Gradient_Swatch_5-10);}.cls-132{fill:url(#New_Gradient_Swatch_5-11);}.cls-133{fill:url(#New_Gradient_Swatch_5-12);}.cls-134{fill:url(#linear-gradient-5);}.cls-135{fill:url(#New_Gradient_Swatch_5-13);}.cls-136{fill:url(#New_Gradient_Swatch_5-14);}.cls-137{fill:url(#New_Gradient_Swatch_5-15);}.cls-138{fill:url(#New_Gradient_Swatch_1-2);}.cls-139{fill:url(#New_Gradient_Swatch_1-3);}.cls-140{fill:url(#New_Gradient_Swatch_1-4);}</style><linearGradient id="New_Gradient_Swatch_2" y1="279.74" x2="176.05" y2="279.74" gradientUnits="userSpaceOnUse"><stop offset="0.02" stop-color="#8c8c8c"/><stop offset="0.13" stop-color="#848484"/><stop offset="0.5" stop-color="#ebebeb"/><stop offset="0.96" stop-color="#999"/><stop offset="0.99" stop-color="#bfbfbf"/></linearGradient><linearGradient id="New_Gradient_Swatch_3" y1="285.39" x2="176.05" y2="285.39" gradientUnits="userSpaceOnUse"><stop offset="0.02" stop-color="#3f3f3f"/><stop offset="0.13" stop-color="#373737"/><stop offset="0.5" stop-color="#9f9f9f"/><stop offset="0.96" stop-color="#4d4d4d"/><stop offset="0.99" stop-color="#727272"/></linearGradient><linearGradient id="New_Gradient_Swatch_2-2" x1="5.55" y1="268.4" x2="163.55" y2="268.4" xlink:href="#New_Gradient_Swatch_2"/><linearGradient id="New_Gradient_Swatch_2-3" y1="15.67" x2="176.05" y2="15.67" xlink:href="#New_Gradient_Swatch_2"/><linearGradient id="New_Gradient_Swatch_3-2" y1="10.02" x2="176.05" y2="10.02" xlink:href="#New_Gradient_Swatch_3"/><linearGradient id="New_Gradient_Swatch_2-4" x1="5.55" y1="27" x2="163.55" y2="27" xlink:href="#New_Gradient_Swatch_2"/><linearGradient id="New_Gradient_Swatch_1" x1="8.6" y1="-106.85" x2="161.55" y2="-106.85" gradientTransform="matrix(1, 0, 0, -1, 0, 40.31)" gradientUnits="userSpaceOnUse"><stop offset="0.02" stop-color="#616f8c"/><stop offset="0.13" stop-color="#656d84"/><stop offset="0.5" stop-color="#99b9eb"/><stop offset="0.96" stop-color="#406399"/><stop offset="0.99" stop-color="#708fbf"/></linearGradient><linearGradient id="New_Gradient_Swatch_2-5" x1="131.05" y1="237.4" x2="36.05" y2="237.4" xlink:href="#New_Gradient_Swatch_2"/><linearGradient id="New_Gradient_Swatch_3-3" x1="134.05" y1="211.47" x2="33.05" y2="211.47" xlink:href="#New_Gradient_Swatch_3"/><clipPath id="clip-path"><ellipse class="cls-1" cx="83.55" cy="206.82" rx="50.5" ry="8.58"/></clipPath><linearGradient id="New_Gradient_Swatch_3-4" x1="32.55" y1="206.82" x2="134.55" y2="206.82" xlink:href="#New_Gradient_Swatch_3"/><linearGradient id="linear-gradient" x1="80.55" y1="114.49" x2="88.02" y2="114.49" xlink:href="#New_Gradient_Swatch_3"/><linearGradient id="New_Gradient_Swatch_5" x1="83.84" y1="127.57" x2="84.36" y2="127.57" gradientUnits="userSpaceOnUse"><stop offset="0" stop-color="#3e3f3e"/><stop offset="0.5" stop-color="#70726f"/><stop offset="1" stop-color="#212121"/></linearGradient><linearGradient id="New_Gradient_Swatch_5-2" x1="56.59" y1="141.32" x2="111.61" y2="141.32" xlink:href="#New_Gradient_Swatch_5"/><linearGradient id="New_Gradient_Swatch_5-3" x1="18.15" y1="169.14" x2="37.28" y2="169.14" xlink:href="#New_Gradient_Swatch_5"/><linearGradient id="linear-gradient-2" x1="24.63" y1="153.63" x2="57.44" y2="153.63" gradientTransform="translate(131.23 22.67) rotate(49.51)" gradientUnits="userSpaceOnUse"><stop offset="0" stop-color="#c44c18"/><stop offset="0.07" stop-color="#c85320"/><stop offset="0.18" stop-color="#d46535"/><stop offset="0.31" stop-color="#e78458"/><stop offset="0.4" stop-color="#f79c74"/><stop offset="0.47" stop-color="#e18861"/><stop offset="0.63" stop-color="#b8633e"/><stop offset="0.78" stop-color="#9b4825"/><stop offset="0.91" stop-color="#883816"/><stop offset="1" stop-color="#823210"/></linearGradient><linearGradient id="New_Gradient_Swatch_5-4" x1="27.48" y1="159.65" x2="44.49" y2="159.65" xlink:href="#New_Gradient_Swatch_5"/><linearGradient id="New_Gradient_Swatch_5-5" x1="37.75" y1="147.41" x2="54.76" y2="147.41" xlink:href="#New_Gradient_Swatch_5"/><linearGradient id="New_Gradient_Swatch_5-6" x1="128.68" y1="169.14" x2="147.82" y2="169.14" xlink:href="#New_Gradient_Swatch_5"/><linearGradient id="linear-gradient-3" x1="108.52" y1="153.63" x2="141.33" y2="153.63" gradientTransform="translate(129.67 -44.33) rotate(40.49)" xlink:href="#linear-gradient-2"/><linearGradient id="New_Gradient_Swatch_5-7" x1="121.48" y1="159.65" x2="138.48" y2="159.65" xlink:href="#New_Gradient_Swatch_5"/><linearGradient id="New_Gradient_Swatch_5-8" x1="111.2" y1="147.41" x2="128.21" y2="147.41" xlink:href="#New_Gradient_Swatch_5"/><linearGradient id="New_Gradient_Swatch_5-9" x1="98.49" y1="170.69" x2="117.49" y2="170.69" xlink:href="#New_Gradient_Swatch_5"/><linearGradient id="linear-gradient-4" x1="86.53" y1="151.79" x2="113.77" y2="151.79" gradientTransform="translate(62.76 -26.18) rotate(21.55)" xlink:href="#linear-gradient-2"/><linearGradient id="New_Gradient_Swatch_5-10" x1="93.41" y1="159.49" x2="112.4" y2="159.49" xlink:href="#New_Gradient_Swatch_5"/><linearGradient id="New_Gradient_Swatch_5-11" x1="87.81" y1="143.85" x2="106.8" y2="143.85" xlink:href="#New_Gradient_Swatch_5"/><linearGradient id="New_Gradient_Swatch_5-12" x1="51.28" y1="170.69" x2="70.29" y2="170.69" xlink:href="#New_Gradient_Swatch_5"/><linearGradient id="linear-gradient-5" x1="55.01" y1="151.79" x2="82.24" y2="151.79" gradientTransform="translate(184.6 32.21) rotate(68.45)" xlink:href="#linear-gradient-2"/><linearGradient id="New_Gradient_Swatch_5-13" x1="56.38" y1="159.49" x2="75.37" y2="159.49" xlink:href="#New_Gradient_Swatch_5"/><linearGradient id="New_Gradient_Swatch_5-14" x1="61.98" y1="143.85" x2="80.96" y2="143.85" xlink:href="#New_Gradient_Swatch_5"/><linearGradient id="New_Gradient_Swatch_5-15" x1="84.5" y1="155.79" x2="84.5" y2="153.91" xlink:href="#New_Gradient_Swatch_5"/><linearGradient id="New_Gradient_Swatch_1-2" x1="8.6" y1="147.4" x2="161.55" y2="147.4" gradientTransform="matrix(1, 0, 0, 1, 0, 0)" xlink:href="#New_Gradient_Swatch_1"/><linearGradient id="New_Gradient_Swatch_1-3" x1="86.08" y1="190.43" x2="28.22" y2="190.43" gradientTransform="matrix(1, 0, 0, 1, 0, 0)" xlink:href="#New_Gradient_Swatch_1"/><linearGradient id="New_Gradient_Swatch_1-4" x1="80.22" y1="206.57" x2="71.89" y2="206.57" gradientTransform="matrix(1, 0, 0, 1, 0, 0)" xlink:href="#New_Gradient_Swatch_1"/></defs><title>lab_01</title><g id="Layer_2" data-name="Layer 2"><g id="камера_испытаний_климатическая" data-name="камера испытаний+климатическая"><g id="lab_01"><path class="cls-2" d="M176.05,276.4S166,264.07,160.77,264.07H8.05c-1.61,0-4.94,2.64-8,5.47v14.14c13.75,6.88,46.42,11.72,84.55,11.72C135.09,295.4,176.05,286.9,176.05,276.4Z"/><path class="cls-3" d="M176.05,276.4s-.32-.39-.87-1c-6.17,9.25-44.39,16.37-90.63,16.37C46.4,291.74,13.73,286.89,0,280v3.68c13.75,6.88,46.42,11.72,84.55,11.72C135.09,295.4,176.05,286.9,176.05,276.4Z"/><ellipse class="cls-4" cx="84.55" cy="268.4" rx="79" ry="16.4"/><path class="cls-5" d="M160.77,31.33C166,31.33,176.05,19,176.05,19c0-10.49-41-19-91.5-19C46.42,0,13.75,4.84,0,11.73V25.86c3.11,2.84,6.44,5.47,8.05,5.47Z"/><path class="cls-6" d="M175.18,20c.55-.64.87-1,.87-1,0-10.49-41-19-91.5-19C46.42,0,13.75,4.84,0,11.73v3.68C13.73,8.52,46.4,3.67,84.55,3.67,130.79,3.67,169,10.79,175.18,20Z"/><ellipse class="cls-7" cx="84.55" cy="27" rx="79" ry="16.4"/><path class="cls-8" d="M161.55,267.9c0-6.9-34.23-12.5-76.47-12.5S8.6,261,8.6,267.9V26.4c0,6.91,34.24,12.5,76.48,12.5s76.47-5.59,76.47-12.5Z"/><path class="cls-9" d="M83.55,200.9c-26.23,0-47.5,2.91-47.5,6.5v60c0,3.59,21.27,6.5,47.5,6.5s47.5-2.91,47.5-6.5v-60C131.05,203.81,109.79,200.9,83.55,200.9Z"/><path class="cls-10" d="M83.55,198.24c-27.89,0-50.5,4.55-50.5,10.16v6.13c0,5.61,22.61,10.17,50.5,10.17s50.5-4.56,50.5-10.17V208.4C134.05,202.79,111.45,198.24,83.55,198.24Z"/><g class="cls-11"><rect class="cls-12" x="33.05" y="198.24" width="101" height="17.17"/><ellipse class="cls-12" cx="83.55" cy="206.82" rx="54.68" ry="10.94"/><ellipse class="cls-13" cx="83.55" cy="206.82" rx="54.64" ry="10.93"/><ellipse class="cls-14" cx="83.55" cy="206.82" rx="54.6" ry="10.92"/><ellipse class="cls-15" cx="83.55" cy="206.82" rx="54.56" ry="10.91"/><ellipse class="cls-16" cx="83.55" cy="206.82" rx="54.52" ry="10.9"/><ellipse class="cls-17" cx="83.55" cy="206.82" rx="54.48" ry="10.9"/><ellipse class="cls-18" cx="83.55" cy="206.82" rx="54.44" ry="10.89"/><ellipse class="cls-19" cx="83.55" cy="206.82" rx="54.4" ry="10.88"/><ellipse class="cls-20" cx="83.55" cy="206.82" rx="54.36" ry="10.87"/><ellipse class="cls-21" cx="83.55" cy="206.82" rx="54.31" ry="10.86"/><ellipse class="cls-22" cx="83.55" cy="206.82" rx="54.27" ry="10.85"/><ellipse class="cls-23" cx="83.55" cy="206.82" rx="54.23" ry="10.85"/><ellipse class="cls-24" cx="83.55" cy="206.82" rx="54.19" ry="10.84"/><ellipse class="cls-25" cx="83.55" cy="206.82" rx="54.15" ry="10.83"/><ellipse class="cls-26" cx="83.55" cy="206.82" rx="54.11" ry="10.82"/><ellipse class="cls-27" cx="83.55" cy="206.82" rx="54.07" ry="10.81"/><ellipse class="cls-28" cx="83.55" cy="206.82" rx="54.03" ry="10.81"/><ellipse class="cls-29" cx="83.55" cy="206.82" rx="53.99" ry="10.8"/><ellipse class="cls-30" cx="83.55" cy="206.82" rx="53.94" ry="10.79"/><ellipse class="cls-31" cx="83.55" cy="206.82" rx="53.9" ry="10.78"/><ellipse class="cls-32" cx="83.55" cy="206.82" rx="53.86" ry="10.77"/><ellipse class="cls-33" cx="83.55" cy="206.82" rx="53.82" ry="10.76"/><ellipse class="cls-34" cx="83.55" cy="206.82" rx="53.78" ry="10.76"/><ellipse class="cls-35" cx="83.55" cy="206.82" rx="53.74" ry="10.75"/><ellipse class="cls-36" cx="83.55" cy="206.82" rx="53.7" ry="10.74"/><ellipse class="cls-37" cx="83.55" cy="206.82" rx="53.66" ry="10.73"/><ellipse class="cls-38" cx="83.55" cy="206.82" rx="53.62" ry="10.72"/><ellipse class="cls-39" cx="83.55" cy="206.82" rx="53.58" ry="10.72"/><ellipse class="cls-40" cx="83.55" cy="206.82" rx="53.53" ry="10.71"/><ellipse class="cls-41" cx="83.55" cy="206.82" rx="53.49" ry="10.7"/><ellipse class="cls-42" cx="83.55" cy="206.82" rx="53.45" ry="10.69"/><ellipse class="cls-43" cx="83.55" cy="206.82" rx="53.41" ry="10.68"/><ellipse class="cls-44" cx="83.55" cy="206.82" rx="53.37" ry="10.67"/><ellipse class="cls-45" cx="83.55" cy="206.82" rx="53.33" ry="10.67"/><ellipse class="cls-46" cx="83.55" cy="206.82" rx="53.29" ry="10.66"/><ellipse class="cls-47" cx="83.55" cy="206.82" rx="53.25" ry="10.65"/><ellipse class="cls-48" cx="83.55" cy="206.82" rx="53.21" ry="10.64"/><ellipse class="cls-48" cx="83.55" cy="206.82" rx="53.16" ry="10.63"/><ellipse class="cls-47" cx="83.55" cy="206.82" rx="52.86" ry="10.57"/><ellipse class="cls-46" cx="83.55" cy="206.82" rx="52.55" ry="10.51"/><ellipse class="cls-45" cx="83.55" cy="206.82" rx="52.24" ry="10.45"/><ellipse class="cls-44" cx="83.55" cy="206.82" rx="51.93" ry="10.39"/><ellipse class="cls-43" cx="83.55" cy="206.82" rx="51.62" ry="10.32"/><ellipse class="cls-42" cx="83.55" cy="206.82" rx="51.31" ry="10.26"/><ellipse class="cls-41" cx="83.55" cy="206.82" rx="51" ry="10.2"/><ellipse class="cls-40" cx="83.55" cy="206.82" rx="50.69" ry="10.14"/><ellipse class="cls-39" cx="83.55" cy="206.82" rx="50.38" ry="10.08"/><ellipse class="cls-38" cx="83.55" cy="206.82" rx="50.07" ry="10.01"/><ellipse class="cls-37" cx="83.55" cy="206.82" rx="49.76" ry="9.95"/><ellipse class="cls-36" cx="83.55" cy="206.82" rx="49.45" ry="9.89"/><ellipse class="cls-35" cx="83.55" cy="206.82" rx="49.14" ry="9.83"/><ellipse class="cls-34" cx="83.55" cy="206.82" rx="48.83" ry="9.77"/><ellipse class="cls-33" cx="83.55" cy="206.82" rx="48.52" ry="9.7"/><ellipse class="cls-32" cx="83.55" cy="206.82" rx="48.21" ry="9.64"/><ellipse class="cls-31" cx="83.55" cy="206.82" rx="47.9" ry="9.58"/><ellipse class="cls-49" cx="83.55" cy="206.82" rx="47.59" ry="9.52"/><ellipse class="cls-30" cx="83.55" cy="206.82" rx="47.28" ry="9.46"/><ellipse class="cls-29" cx="83.55" cy="206.82" rx="46.97" ry="9.39"/><ellipse class="cls-28" cx="83.55" cy="206.82" rx="46.66" ry="9.33"/><ellipse class="cls-27" cx="83.55" cy="206.82" rx="46.35" ry="9.27"/><ellipse class="cls-26" cx="83.55" cy="206.82" rx="46.04" ry="9.21"/><ellipse class="cls-25" cx="83.55" cy="206.82" rx="45.73" ry="9.15"/><ellipse class="cls-24" cx="83.55" cy="206.82" rx="45.42" ry="9.08"/><ellipse class="cls-23" cx="83.55" cy="206.82" rx="45.11" ry="9.02"/><ellipse class="cls-22" cx="83.55" cy="206.82" rx="44.81" ry="8.96"/><ellipse class="cls-21" cx="83.55" cy="206.82" rx="44.5" ry="8.9"/><ellipse class="cls-20" cx="83.55" cy="206.82" rx="44.19" ry="8.84"/><ellipse class="cls-19" cx="83.55" cy="206.82" rx="43.88" ry="8.78"/><ellipse class="cls-18" cx="83.55" cy="206.82" rx="43.57" ry="8.71"/><ellipse class="cls-17" cx="83.55" cy="206.82" rx="43.26" ry="8.65"/><ellipse class="cls-16" cx="83.55" cy="206.82" rx="42.95" ry="8.59"/><ellipse class="cls-15" cx="83.55" cy="206.82" rx="42.64" ry="8.53"/><ellipse class="cls-14" cx="83.55" cy="206.82" rx="42.33" ry="8.47"/><ellipse class="cls-13" cx="83.55" cy="206.82" rx="42.02" ry="8.4"/><ellipse class="cls-12" cx="83.55" cy="206.82" rx="41.71" ry="8.34"/><ellipse class="cls-50" cx="83.55" cy="206.82" rx="41.4" ry="8.28"/><ellipse class="cls-51" cx="83.55" cy="206.82" rx="41.09" ry="8.22"/><ellipse class="cls-52" cx="83.55" cy="206.82" rx="40.78" ry="8.16"/><ellipse class="cls-53" cx="83.55" cy="206.82" rx="40.47" ry="8.09"/><ellipse class="cls-54" cx="83.55" cy="206.82" rx="40.16" ry="8.03"/><ellipse class="cls-55" cx="83.55" cy="206.82" rx="39.85" ry="7.97"/><ellipse class="cls-56" cx="83.55" cy="206.82" rx="39.54" ry="7.91"/><ellipse class="cls-57" cx="83.55" cy="206.82" rx="39.23" ry="7.85"/><ellipse class="cls-58" cx="83.55" cy="206.82" rx="38.92" ry="7.78"/><ellipse class="cls-59" cx="83.55" cy="206.82" rx="38.61" ry="7.72"/><ellipse class="cls-60" cx="83.55" cy="206.82" rx="38.3" ry="7.66"/><ellipse class="cls-61" cx="83.55" cy="206.82" rx="37.99" ry="7.6"/><ellipse class="cls-62" cx="83.55" cy="206.82" rx="37.68" ry="7.54"/><ellipse class="cls-63" cx="83.55" cy="206.82" rx="37.37" ry="7.47"/><ellipse class="cls-64" cx="83.55" cy="206.82" rx="37.06" ry="7.41"/><ellipse class="cls-65" cx="83.55" cy="206.82" rx="36.75" ry="7.35"/><ellipse class="cls-66" cx="83.55" cy="206.82" rx="36.45" ry="7.29"/><ellipse class="cls-67" cx="83.55" cy="206.82" rx="36.14" ry="7.23"/><ellipse class="cls-68" cx="83.55" cy="206.82" rx="35.83" ry="7.17"/><ellipse class="cls-69" cx="83.55" cy="206.82" rx="35.52" ry="7.1"/><ellipse class="cls-70" cx="83.55" cy="206.82" rx="35.21" ry="7.04"/><ellipse class="cls-71" cx="83.55" cy="206.82" rx="34.9" ry="6.98"/><ellipse class="cls-72" cx="83.55" cy="206.82" rx="34.59" ry="6.92"/><ellipse class="cls-73" cx="83.55" cy="206.82" rx="34.28" ry="6.86"/><ellipse class="cls-74" cx="83.55" cy="206.82" rx="33.97" ry="6.79"/><ellipse class="cls-75" cx="83.55" cy="206.82" rx="33.66" ry="6.73"/><ellipse class="cls-76" cx="83.55" cy="206.82" rx="33.35" ry="6.67"/><ellipse class="cls-77" cx="83.55" cy="206.82" rx="33.04" ry="6.61"/><ellipse class="cls-78" cx="83.55" cy="206.82" rx="32.73" ry="6.55"/><ellipse class="cls-79" cx="83.55" cy="206.82" rx="32.42" ry="6.48"/><ellipse class="cls-80" cx="83.55" cy="206.82" rx="32.11" ry="6.42"/><ellipse class="cls-81" cx="83.55" cy="206.82" rx="31.8" ry="6.36"/><ellipse class="cls-82" cx="83.55" cy="206.82" rx="31.49" ry="6.3"/><ellipse class="cls-83" cx="83.55" cy="206.82" rx="31.18" ry="6.24"/><ellipse class="cls-84" cx="83.55" cy="206.82" rx="30.87" ry="6.17"/><ellipse class="cls-85" cx="83.55" cy="206.82" rx="30.56" ry="6.11"/><ellipse class="cls-86" cx="83.55" cy="206.82" rx="30.25" ry="6.05"/><ellipse class="cls-87" cx="83.55" cy="206.82" rx="29.94" ry="5.99"/><ellipse class="cls-88" cx="83.55" cy="206.82" rx="29.63" ry="5.93"/><ellipse class="cls-89" cx="83.55" cy="206.82" rx="29.32" ry="5.86"/><ellipse class="cls-90" cx="83.55" cy="206.82" rx="29.01" ry="5.8"/><ellipse class="cls-91" cx="83.55" cy="206.82" rx="28.7" ry="5.74"/><ellipse class="cls-92" cx="83.55" cy="206.82" rx="28.4" ry="5.68"/><ellipse class="cls-93" cx="83.55" cy="206.82" rx="28.09" ry="5.62"/><ellipse class="cls-93" cx="83.55" cy="206.82" rx="27.78" ry="5.56"/><ellipse class="cls-92" cx="83.55" cy="206.82" rx="27.58" ry="5.52"/><ellipse class="cls-91" cx="83.55" cy="206.82" rx="27.38" ry="5.48"/><ellipse class="cls-90" cx="83.55" cy="206.82" rx="27.19" ry="5.44"/><ellipse class="cls-89" cx="83.55" cy="206.82" rx="26.99" ry="5.4"/><ellipse class="cls-88" cx="83.55" cy="206.82" rx="26.8" ry="5.36"/><ellipse class="cls-87" cx="83.55" cy="206.82" rx="26.6" ry="5.32"/><ellipse class="cls-86" cx="83.55" cy="206.82" rx="26.4" ry="5.28"/><ellipse class="cls-85" cx="83.55" cy="206.82" rx="26.21" ry="5.24"/><ellipse class="cls-84" cx="83.55" cy="206.82" rx="26.01" ry="5.2"/><ellipse class="cls-83" cx="83.55" cy="206.82" rx="25.81" ry="5.16"/><ellipse class="cls-82" cx="83.55" cy="206.82" rx="25.62" ry="5.12"/><ellipse class="cls-81" cx="83.55" cy="206.82" rx="25.42" ry="5.08"/><ellipse class="cls-80" cx="83.55" cy="206.82" rx="25.23" ry="5.05"/><ellipse class="cls-79" cx="83.55" cy="206.82" rx="25.03" ry="5.01"/><ellipse class="cls-78" cx="83.55" cy="206.82" rx="24.83" ry="4.97"/><ellipse class="cls-77" cx="83.55" cy="206.82" rx="24.64" ry="4.93"/><ellipse class="cls-76" cx="83.55" cy="206.82" rx="24.44" ry="4.89"/><ellipse class="cls-75" cx="83.55" cy="206.82" rx="24.25" ry="4.85"/><ellipse class="cls-74" cx="83.55" cy="206.82" rx="24.05" ry="4.81"/><ellipse class="cls-73" cx="83.55" cy="206.82" rx="23.85" ry="4.77"/><ellipse class="cls-72" cx="83.55" cy="206.82" rx="23.66" ry="4.73"/><ellipse class="cls-71" cx="83.55" cy="206.82" rx="23.46" ry="4.69"/><ellipse class="cls-70" cx="83.55" cy="206.82" rx="23.26" ry="4.65"/><ellipse class="cls-69" cx="83.55" cy="206.82" rx="23.07" ry="4.61"/><ellipse class="cls-68" cx="83.55" cy="206.82" rx="22.87" ry="4.57"/><ellipse class="cls-67" cx="83.55" cy="206.82" rx="22.68" ry="4.54"/><ellipse class="cls-66" cx="83.55" cy="206.82" rx="22.48" ry="4.5"/><ellipse class="cls-65" cx="83.55" cy="206.82" rx="22.28" ry="4.46"/><ellipse class="cls-64" cx="83.55" cy="206.82" rx="22.09" ry="4.42"/><ellipse class="cls-63" cx="83.55" cy="206.82" rx="21.89" ry="4.38"/><ellipse class="cls-62" cx="83.55" cy="206.82" rx="21.7" ry="4.34"/><ellipse class="cls-61" cx="83.55" cy="206.82" rx="21.5" ry="4.3"/><ellipse class="cls-60" cx="83.55" cy="206.82" rx="21.3" ry="4.26"/><ellipse class="cls-59" cx="83.55" cy="206.82" rx="21.11" ry="4.22"/><ellipse class="cls-58" cx="83.55" cy="206.82" rx="20.91" ry="4.18"/><ellipse class="cls-57" cx="83.55" cy="206.82" rx="20.72" ry="4.14"/><ellipse class="cls-56" cx="83.55" cy="206.82" rx="20.52" ry="4.1"/><ellipse class="cls-55" cx="83.55" cy="206.82" rx="20.32" ry="4.06"/><ellipse class="cls-54" cx="83.55" cy="206.82" rx="20.13" ry="4.03"/><path class="cls-53" d="M83.55,202.84c-11,0-19.93,1.78-19.93,4s8.93,4,19.93,4,19.94-1.79,19.94-4S94.56,202.84,83.55,202.84Z"/><ellipse class="cls-94" cx="83.55" cy="206.82" rx="19.73" ry="3.95"/><ellipse class="cls-52" cx="83.55" cy="206.82" rx="19.54" ry="3.91"/><path class="cls-51" d="M83.55,203c-10.68,0-19.34,1.73-19.34,3.87s8.66,3.87,19.34,3.87,19.35-1.73,19.35-3.87S94.24,203,83.55,203Z"/><ellipse class="cls-50" cx="83.55" cy="206.82" rx="19.15" ry="3.83"/><ellipse class="cls-12" cx="83.55" cy="206.82" rx="18.95" ry="3.79"/><path class="cls-13" d="M83.55,203.07c-10.35,0-18.75,1.68-18.75,3.75s8.4,3.75,18.75,3.75,18.76-1.68,18.76-3.75S93.91,203.07,83.55,203.07Z"/><path class="cls-14" d="M83.55,203.11c-10.24,0-18.55,1.66-18.55,3.71s8.31,3.71,18.55,3.71,18.56-1.66,18.56-3.71S93.8,203.11,83.55,203.11Z"/><ellipse class="cls-15" cx="83.55" cy="206.82" rx="18.36" ry="3.67"/><path class="cls-16" d="M83.55,203.19c-10,0-18.16,1.62-18.16,3.63s8.13,3.63,18.16,3.63,18.17-1.62,18.17-3.63S93.59,203.19,83.55,203.19Z"/><path class="cls-17" d="M83.55,203.23c-9.92,0-18,1.61-18,3.59s8,3.6,18,3.6,18-1.61,18-3.6S93.48,203.23,83.55,203.23Z"/><ellipse class="cls-18" cx="83.55" cy="206.82" rx="17.77" ry="3.55"/><ellipse class="cls-20" cx="83.55" cy="206.82" rx="17.58" ry="3.52"/><path class="cls-21" d="M83.55,203.35c-9.59,0-17.38,1.55-17.38,3.47S74,210.3,83.55,210.3s17.39-1.56,17.39-3.48S93.15,203.35,83.55,203.35Z"/><ellipse class="cls-22" cx="83.55" cy="206.82" rx="17.18" ry="3.44"/><ellipse class="cls-23" cx="83.55" cy="206.82" rx="16.99" ry="3.4"/><path class="cls-24" d="M83.55,203.46c-9.27,0-16.79,1.51-16.79,3.36s7.52,3.36,16.79,3.36,16.8-1.5,16.8-3.36S92.83,203.46,83.55,203.46Z"/><path class="cls-25" d="M83.55,203.5C74.39,203.5,67,205,67,206.82s7.43,3.32,16.59,3.32,16.6-1.49,16.6-3.32S92.72,203.5,83.55,203.5Z"/><ellipse class="cls-26" cx="83.55" cy="206.82" rx="16.4" ry="3.28"/><path class="cls-27" d="M83.55,203.58c-8.94,0-16.2,1.45-16.2,3.24s7.26,3.24,16.2,3.24,16.21-1.45,16.21-3.24S92.5,203.58,83.55,203.58Z"/><path class="cls-28" d="M83.55,203.62c-8.84,0-16,1.43-16,3.2s7.16,3.2,16,3.2,16-1.43,16-3.2S92.4,203.62,83.55,203.62Z"/><ellipse class="cls-29" cx="83.55" cy="206.82" rx="15.81" ry="3.16"/><path class="cls-30" d="M83.55,203.7c-8.62,0-15.61,1.4-15.61,3.12s7,3.12,15.61,3.12,15.62-1.39,15.62-3.12S92.18,203.7,83.55,203.7Z"/><path class="cls-49" d="M83.55,203.74c-8.51,0-15.41,1.38-15.41,3.08s6.9,3.09,15.41,3.09S99,208.52,99,206.82,92.07,203.74,83.55,203.74Z"/><ellipse class="cls-31" cx="83.55" cy="206.82" rx="15.22" ry="3.04"/><ellipse class="cls-32" cx="83.55" cy="206.82" rx="15.03" ry="3.01"/><path class="cls-33" d="M83.55,203.86c-8.19,0-14.83,1.32-14.83,3s6.64,3,14.83,3,14.84-1.33,14.84-3S91.75,203.86,83.55,203.86Z"/><ellipse class="cls-34" cx="83.55" cy="206.82" rx="14.63" ry="2.93"/><ellipse class="cls-35" cx="83.55" cy="206.82" rx="14.44" ry="2.89"/><path class="cls-36" d="M83.55,204c-7.86,0-14.24,1.28-14.24,2.85s6.38,2.85,14.24,2.85,14.25-1.28,14.25-2.85S91.42,204,83.55,204Z"/><path class="cls-37" d="M83.55,204c-7.75,0-14,1.26-14,2.81s6.29,2.81,14,2.81,14-1.26,14-2.81S91.31,204,83.55,204Z"/><ellipse class="cls-38" cx="83.55" cy="206.82" rx="13.85" ry="2.77"/><path class="cls-39" d="M83.55,204.09c-7.54,0-13.65,1.22-13.65,2.73s6.11,2.73,13.65,2.73,13.66-1.22,13.66-2.73S91.1,204.09,83.55,204.09Z"/><path class="cls-40" d="M83.55,204.13c-7.43,0-13.45,1.2-13.45,2.69s6,2.69,13.45,2.69S97,208.31,97,206.82,91,204.13,83.55,204.13Z"/><ellipse class="cls-41" cx="83.55" cy="206.82" rx="13.26" ry="2.65"/><path class="cls-42" d="M83.55,204.21c-7.21,0-13.06,1.17-13.06,2.61s5.85,2.61,13.06,2.61,13.07-1.17,13.07-2.61S90.77,204.21,83.55,204.21Z"/><path class="cls-43" d="M83.55,204.25c-7.1,0-12.86,1.15-12.86,2.57s5.76,2.58,12.86,2.58,12.87-1.16,12.87-2.58S90.66,204.25,83.55,204.25Z"/><ellipse class="cls-44" cx="83.55" cy="206.82" rx="12.67" ry="2.53"/><ellipse class="cls-45" cx="83.55" cy="206.82" rx="12.48" ry="2.5"/><path class="cls-46" d="M83.55,204.37c-6.78,0-12.28,1.09-12.28,2.45s5.5,2.46,12.28,2.46,12.29-1.1,12.29-2.46S90.34,204.37,83.55,204.37Z"/><ellipse class="cls-47" cx="83.55" cy="206.82" rx="12.09" ry="2.42"/><ellipse class="cls-48" cx="83.55" cy="206.82" rx="11.89" ry="2.38"/><path class="cls-95" d="M83.55,204.48c-6.45,0-11.69,1.05-11.69,2.34s5.24,2.34,11.69,2.34,11.7-1,11.7-2.34S90,204.48,83.55,204.48Z"/><path class="cls-96" d="M83.55,204.52c-6.34,0-11.49,1-11.49,2.3s5.15,2.3,11.49,2.3,11.5-1,11.5-2.3S89.9,204.52,83.55,204.52Z"/><ellipse class="cls-97" cx="83.55" cy="206.82" rx="11.3" ry="2.26"/><path class="cls-98" d="M83.55,204.6c-6.13,0-11.1,1-11.1,2.22s5,2.22,11.1,2.22,11.11-1,11.11-2.22S89.69,204.6,83.55,204.6Z"/><path class="cls-99" d="M83.55,204.64c-6,0-10.9,1-10.9,2.18S77.53,209,83.55,209s10.91-1,10.91-2.18S89.58,204.64,83.55,204.64Z"/><ellipse class="cls-100" cx="83.55" cy="206.82" rx="10.71" ry="2.14"/><path class="cls-101" d="M83.55,204.72c-5.8,0-10.51.94-10.51,2.1s4.71,2.1,10.51,2.1,10.52-.94,10.52-2.1S89.36,204.72,83.55,204.72Z"/><path class="cls-102" d="M83.55,204.76c-5.69,0-10.32.92-10.32,2.06s4.63,2.07,10.32,2.07,10.33-.93,10.33-2.07S89.25,204.76,83.55,204.76Z"/><ellipse class="cls-103" cx="83.55" cy="206.82" rx="10.12" ry="2.02"/><ellipse class="cls-104" cx="83.55" cy="206.82" rx="9.93" ry="1.99"/><path class="cls-105" d="M83.55,204.88c-5.37,0-9.73.87-9.73,1.94s4.36,2,9.73,2,9.74-.87,9.74-2S88.93,204.88,83.55,204.88Z"/><ellipse class="cls-106" cx="83.55" cy="206.82" rx="9.54" ry="1.91"/><ellipse class="cls-107" cx="83.55" cy="206.82" rx="9.34" ry="1.87"/><path class="cls-108" d="M83.55,205c-5,0-9.14.82-9.14,1.83s4.1,1.83,9.14,1.83,9.15-.82,9.15-1.83S88.6,205,83.55,205Z"/><path class="cls-109" d="M83.55,205c-4.94,0-8.94.8-8.94,1.79s4,1.79,8.94,1.79,9-.8,9-1.79S88.5,205,83.55,205Z"/><ellipse class="cls-110" cx="83.55" cy="206.82" rx="8.75" ry="1.75"/><path class="cls-111" d="M83.55,205.11c-4.72,0-8.55.77-8.55,1.71s3.83,1.71,8.55,1.71,8.56-.76,8.56-1.71S88.28,205.11,83.55,205.11Z"/><path class="cls-112" d="M83.55,205.15c-4.61,0-8.35.75-8.35,1.67s3.74,1.67,8.35,1.67,8.36-.75,8.36-1.67S88.17,205.15,83.55,205.15Z"/><ellipse class="cls-113" cx="83.55" cy="206.82" rx="8.16" ry="1.63"/><path class="cls-114" d="M83.55,205.23c-4.39,0-8,.71-8,1.59s3.57,1.59,8,1.59,8-.71,8-1.59S88,205.23,83.55,205.23Z"/><path class="cls-115" d="M83.55,205.27c-4.29,0-7.77.69-7.77,1.55s3.48,1.56,7.77,1.56,7.78-.7,7.78-1.56S87.85,205.27,83.55,205.27Z"/><ellipse class="cls-116" cx="83.55" cy="206.82" rx="7.57" ry="1.51"/><ellipse class="cls-116" cx="83.55" cy="206.82" rx="7.38" ry="1.48"/><path class="cls-115" d="M83.55,205.5c-3.64,0-6.59.59-6.59,1.32s3,1.32,6.59,1.32,6.6-.59,6.6-1.32S87.2,205.5,83.55,205.5Z"/><ellipse class="cls-114" cx="83.55" cy="206.82" rx="5.8" ry="1.16"/><path class="cls-113" d="M83.55,205.82c-2.77,0-5,.45-5,1s2.24,1,5,1,5-.45,5-1S86.33,205.82,83.55,205.82Z"/><ellipse class="cls-111" cx="83.55" cy="206.82" rx="4.23" ry="0.85"/><ellipse class="cls-110" cx="83.55" cy="206.82" rx="3.44" ry="0.69"/><path class="cls-109" d="M83.55,206.29c-1.46,0-2.65.24-2.65.53s1.19.53,2.65.53,2.66-.23,2.66-.53S85,206.29,83.55,206.29Z"/><ellipse class="cls-108" cx="83.55" cy="206.82" rx="1.87" ry="0.37"/></g><path class="cls-117" d="M83.55,197.74c-24.72,0-51,3.18-51,9.08s26.28,9.08,51,9.08,51-3.18,51-9.08S108.28,197.74,83.55,197.74Zm0,17.16c-29.46,0-50-4.26-50-8.08s20.54-8.08,50-8.08,50,4.26,50,8.08S113,214.9,83.55,214.9Z"/><path class="cls-118" d="M84.29,22.4a3.75,3.75,0,0,0-3.74,3.74v176.7a3.74,3.74,0,0,0,7.47,0V26.14A3.75,3.75,0,0,0,84.29,22.4Z"/><g id="engeni_main"><path class="cls-119" d="M83.84,127.57h0Z"/><path class="cls-120" d="M84.1,127.58c-2.54.12-22.87,1.12-27.28,3.11-1,6.07.79,7.39,10.79,7.14a2.79,2.79,0,0,0,2.06,3.49c3.88-.13,2.38,3,2.94,3.5,1.69,1.56,8.25,0,8.12.62s.13,2.5,2.63,2.38c-.08,1.23-.11,3.22-.13,4.57A4.68,4.68,0,0,0,84,155l0,.07h.06l.05-.07a4.59,4.59,0,0,0,.78-2.61c0-1.35,0-3.34-.12-4.57,2.5.12,2.75-1.75,2.62-2.38s6.44.94,8.13-.62c.55-.52-.94-3.63,2.93-3.5a2.8,2.8,0,0,0,2.07-3.49c10,.25,11.75-1.07,10.79-7.14C107,128.7,86.64,127.7,84.1,127.58Z"/><path class="cls-121" d="M19.12,165.29a2.66,2.66,0,0,0-.28,3.84A47.16,47.16,0,0,0,23.55,174a49.69,49.69,0,0,0,5.66,4A2.64,2.64,0,0,0,33,177.1l4.33-7.39-11.53-9.85Z"/><rect class="cls-122" x="22.62" y="144.04" width="36.83" height="19.17" rx="6.92" ry="6.92" transform="translate(-102.45 85.08) rotate(-49.51)"/><path class="cls-123" d="M36.71,162.8l-4.05-3.46c-2.9-2.47-4.92-4.9-2.75-7.44l-1.52,1.78c-2.17,2.54-.15,5,2.75,7.44l4,3.46c2.89,2.47,5.61,4.09,7.78,1.55l1.52-1.79C42.32,166.88,39.61,165.27,36.71,162.8Z"/><path class="cls-124" d="M51.11,145.94l-4.06-3.46c-2.89-2.47-5.61-4.09-7.78-1.55l-1.52,1.79c2.17-2.55,4.89-.93,7.78,1.54l4,3.46c2.9,2.47,4.92,4.9,2.75,7.44l1.52-1.78C56,150.84,54,148.41,51.11,145.94Z"/><path class="cls-125" d="M140.22,159.86l-11.54,9.85L133,177.1a2.65,2.65,0,0,0,3.75.87,49.61,49.61,0,0,0,5.65-4,47.16,47.16,0,0,0,4.71-4.85,2.65,2.65,0,0,0-.27-3.84Z"/><rect class="cls-126" x="115.34" y="135.21" width="19.17" height="36.83" rx="6.92" ry="6.92" transform="translate(-69.84 117.91) rotate(-40.49)"/><path class="cls-127" d="M136.05,151.9c2.17,2.54.15,5-2.74,7.44l-4.06,3.46c-2.89,2.47-5.6,4.08-7.77,1.54l1.52,1.79c2.17,2.54,4.88.92,7.77-1.55l4.06-3.46c2.89-2.47,4.91-4.9,2.74-7.44Z"/><path class="cls-128" d="M118.92,142.48l-4.06,3.46c-2.89,2.47-4.91,4.9-2.75,7.44l1.53,1.78c-2.17-2.54-.15-5,2.74-7.44l4.06-3.46c2.89-2.47,5.6-4.09,7.77-1.54l-1.52-1.79C124.52,138.39,121.81,140,118.92,142.48Z"/><path class="cls-129" d="M112.59,162.65l-14.1,5.57,1.69,8.39a2.66,2.66,0,0,0,3.26,2,51.59,51.59,0,0,0,6.65-1.94,49.08,49.08,0,0,0,6-3.07,2.65,2.65,0,0,0,1-3.71Z"/><rect class="cls-130" x="90.57" y="133.37" width="19.17" height="36.83" rx="6.92" ry="6.92" transform="translate(-48.75 47.4) rotate(-21.55)"/><path class="cls-131" d="M111.24,153.76c1.22,3.11-1.48,4.75-5,6.15l-5,2c-3.54,1.4-6.63,2-7.86-1.07l.86,2.18c1.23,3.11,4.32,2.46,7.86,1.07l5-2c3.53-1.4,6.23-3,5-6.15Z"/><path class="cls-132" d="M98.08,139.29l-5,2c-3.54,1.4-6.23,3-5,6.15l.86,2.17c-1.22-3.1,1.48-4.74,5-6.14l5-2c3.54-1.4,6.63-2,7.86,1.06l-.86-2.17C104.71,137.25,101.62,137.89,98.08,139.29Z"/><path class="cls-133" d="M51.68,169.94a2.64,2.64,0,0,0,1,3.71,48.37,48.37,0,0,0,6,3.07,51.14,51.14,0,0,0,6.65,1.94,2.66,2.66,0,0,0,3.26-2l1.69-8.39-14.11-5.57Z"/><rect class="cls-134" x="50.21" y="142.21" width="36.83" height="19.17" rx="6.92" ry="6.92" transform="translate(-97.76 159.86) rotate(-68.45)"/><path class="cls-135" d="M67.51,161.87l-5-2c-3.54-1.4-6.24-3-5-6.15l-.86,2.18c-1.23,3.11,1.47,4.75,5,6.15l5,2c3.54,1.39,6.63,2,7.86-1.07l.86-2.18C74.14,163.91,71.05,163.27,67.51,161.87Z"/><path class="cls-136" d="M75.65,141.25l-5-2c-3.54-1.4-6.63-2-7.85,1.07L62,142.53c1.22-3.1,4.31-2.46,7.85-1.06l5,2c3.54,1.4,6.24,3,5,6.14l.86-2.17C81.89,144.29,79.19,142.65,75.65,141.25Z"/><path class="cls-137" d="M135.69,153.91H33.31a.94.94,0,0,0,0,1.88H135.69a.94.94,0,0,0,0-1.88Z"/></g><path class="cls-138" d="M8.6,268.4c0,6.91,34.24,12.5,76.48,12.5s76.47-5.59,76.47-12.5V26.4c0-6.9-34.23-12.5-76.47-12.5S8.6,19.5,8.6,26.4"/><path class="cls-139" d="M71.16,101.57l-26.52-1.26A15.67,15.67,0,0,0,28.22,116V276.9h2V116A13.67,13.67,0,0,1,44.54,102.3l26.52,1.27a13.66,13.66,0,0,1,13,13.65V280.57h2V117.22A15.65,15.65,0,0,0,71.16,101.57Z"/><path class="cls-140" d="M76.05,194.57a4.17,4.17,0,0,0-4.16,4.17V214.4a4.17,4.17,0,1,0,8.33,0V198.74A4.17,4.17,0,0,0,76.05,194.57Zm2.17,19.83a2.17,2.17,0,1,1-4.33,0V198.74a2.17,2.17,0,1,1,4.33,0Z"/></g></g></g></svg>