<svg xmlns="http://www.w3.org/2000/svg" xmlns:xlink="http://www.w3.org/1999/xlink" viewBox="0 0 7.6 14.17"><defs><style>.cls-1{fill:url(#radial-gradient);}.cls-2{fill:url(#New_Gradient_Swatch_4);}.cls-3{fill:url(#New_Gradient_Swatch_2);}.cls-4{fill:url(#New_Gradient_Swatch_3);}</style><radialGradient id="radial-gradient" cx="3.8" cy="9.63" r="4.19" gradientTransform="translate(0 -9.63) scale(1 2)" gradientUnits="userSpaceOnUse"><stop offset="0.02" stop-color="#95c7a5"/><stop offset="0.5" stop-color="#3e9669"/><stop offset="0.99" stop-color="#193d20"/></radialGradient><linearGradient id="New_Gradient_Swatch_4" x1="0.74" y1="13.57" x2="6.77" y2="13.57" gradientUnits="userSpaceOnUse"><stop offset="0.02" stop-color="#244157"/><stop offset="0.5" stop-color="#284961"/><stop offset="0.99" stop-color="#192e3d"/></linearGradient><linearGradient id="New_Gradient_Swatch_2" x1="3.14" y1="1.75" x2="4.2" y2="1.75" gradientUnits="userSpaceOnUse"><stop offset="0.02" stop-color="#8c8c8c"/><stop offset="0.13" stop-color="#848484"/><stop offset="0.5" stop-color="#ebebeb"/><stop offset="0.96" stop-color="#999"/><stop offset="0.99" stop-color="#bfbfbf"/></linearGradient><linearGradient id="New_Gradient_Swatch_3" x1="2.47" y1="4.38" x2="4.87" y2="4.38" gradientUnits="userSpaceOnUse"><stop offset="0.02" stop-color="#3f3f3f"/><stop offset="0.13" stop-color="#373737"/><stop offset="0.5" stop-color="#9f9f9f"/><stop offset="0.96" stop-color="#4d4d4d"/><stop offset="0.99" stop-color="#727272"/></linearGradient></defs><title>lab_18</title><g id="Layer_2" data-name="Layer 2"><g id="аспиратор"><g id="lab_18"><path class="cls-1" d="M1.68,14.17H5.92A5.51,5.51,0,0,0,7.6,10.05c0-2.74-1.7-5-3.8-5S0,7.31,0,10.05A5.51,5.51,0,0,0,1.68,14.17Z"/><path class="cls-2" d="M1.68,14.17H5.92a4.75,4.75,0,0,0,.85-1,20.66,20.66,0,0,1-6-.17A4.67,4.67,0,0,0,1.68,14.17Z"/><path class="cls-3" d="M3.67,0h0A.53.53,0,0,1,4.2.53v3a0,0,0,0,1,0,0H3.14a0,0,0,0,1,0,0v-3A.53.53,0,0,1,3.67,0Z"/><path class="cls-4" d="M3.3,3.13H4A.83.83,0,0,1,4.87,4V5.63a0,0,0,0,1,0,0H2.47a0,0,0,0,1,0,0V4A.83.83,0,0,1,3.3,3.13Z"/></g></g></g></svg>