<svg xmlns="http://www.w3.org/2000/svg" xmlns:xlink="http://www.w3.org/1999/xlink" viewBox="0 0 42.04 65.59"><defs><style>.cls-1{fill:none;}.cls-2{fill:url(#New_Gradient_Swatch_11);}.cls-3{fill:url(#New_Gradient_Swatch_3);}.cls-4{fill:#707070;}.cls-5{fill:#a5a891;}.cls-6{fill:url(#New_Gradient_Swatch_1);}.cls-7{fill:#d6d6d6;}.cls-8{fill:url(#New_Gradient_Swatch_2);}.cls-9{fill:url(#New_Gradient_Swatch_3-2);}.cls-10{fill:url(#New_Gradient_Swatch_8);}.cls-11{fill:url(#linear-gradient);}.cls-12{fill:url(#New_Gradient_Swatch_8-2);}.cls-13{fill:#999c86;}.cls-14{fill:url(#New_Gradient_Swatch_11-2);}.cls-15{fill:url(#New_Gradient_Swatch_3-3);}.cls-16{fill:url(#New_Gradient_Swatch_3-4);}.cls-17{fill:url(#New_Gradient_Swatch_3-5);}.cls-18{fill:#bf1000;}.cls-19{fill:#00bf29;}.cls-20{clip-path:url(#clip-path);}.cls-21{fill:#969984;}.cls-22{fill:#959783;}.cls-23{fill:#949682;}.cls-24{fill:#939581;}.cls-25{fill:#929480;}.cls-26{fill:#91937f;}.cls-27{fill:#90927e;}.cls-28{fill:#8f917e;}.cls-29{fill:#8e907d;}.cls-30{fill:#8d8f7c;}.cls-31{fill:#8c8e7b;}.cls-32{fill:#8b8d7a;}.cls-33{fill:#8a8c79;}.cls-34{fill:#898b78;}.cls-35{fill:#888a77;}.cls-36{fill:#868977;}.cls-37{fill:#858876;}.cls-38{fill:#848775;}.cls-39{fill:#838674;}.cls-40{fill:#828573;}.cls-41{fill:#818472;}.cls-42{fill:#808371;}.cls-43{fill:#7f8270;}.cls-44{fill:#7e8170;}.cls-45{fill:#7d806f;}.cls-46{fill:#7c7f6e;}.cls-47{fill:#7b7e6d;}.cls-48{fill:#7a7d6c;}.cls-49{clip-path:url(#clip-path-2);}.cls-50{clip-path:url(#clip-path-3);}.cls-51{clip-path:url(#clip-path-4);}.cls-52{fill:url(#New_Gradient_Swatch_1-2);}.cls-53{fill:#004d7a;}.cls-54{fill:url(#New_Gradient_Swatch_1-3);}</style><linearGradient id="New_Gradient_Swatch_11" x1="36.4" y1="9.1" x2="39.18" y2="9.1" gradientUnits="userSpaceOnUse"><stop offset="0.02" stop-color="#969984"/><stop offset="0.5" stop-color="#949682"/><stop offset="0.99" stop-color="#7a7d6c"/></linearGradient><linearGradient id="New_Gradient_Swatch_3" x1="26.5" y1="44.93" x2="42.04" y2="44.93" gradientUnits="userSpaceOnUse"><stop offset="0.02" stop-color="#3f3f3f"/><stop offset="0.13" stop-color="#373737"/><stop offset="0.5" stop-color="#9f9f9f"/><stop offset="0.96" stop-color="#4d4d4d"/><stop offset="0.99" stop-color="#727272"/></linearGradient><linearGradient id="New_Gradient_Swatch_1" x1="18.92" y1="8.76" x2="45.12" y2="8.89" gradientUnits="userSpaceOnUse"><stop offset="0.02" stop-color="#616f8c"/><stop offset="0.13" stop-color="#656d84"/><stop offset="0.5" stop-color="#99b9eb"/><stop offset="0.96" stop-color="#406399"/><stop offset="0.99" stop-color="#708fbf"/></linearGradient><linearGradient id="New_Gradient_Swatch_2" x1="29.02" y1="20.46" x2="32.37" y2="20.46" gradientUnits="userSpaceOnUse"><stop offset="0.02" stop-color="#8c8c8c"/><stop offset="0.13" stop-color="#848484"/><stop offset="0.5" stop-color="#ebebeb"/><stop offset="0.96" stop-color="#999"/><stop offset="0.99" stop-color="#bfbfbf"/></linearGradient><linearGradient id="New_Gradient_Swatch_3-2" x1="33.37" y1="20.66" x2="32.15" y2="20.66" xlink:href="#New_Gradient_Swatch_3"/><linearGradient id="New_Gradient_Swatch_8" x1="20.25" y1="16.72" x2="24.15" y2="16.72" gradientUnits="userSpaceOnUse"><stop offset="0" stop-color="#860000"/><stop offset="0.06" stop-color="#b30000"/><stop offset="0.12" stop-color="#d60000"/><stop offset="0.17" stop-color="#dd1412"/><stop offset="0.33" stop-color="#ef4e44"/><stop offset="0.44" stop-color="#fb7164"/><stop offset="0.51" stop-color="#ff7f70"/><stop offset="0.6" stop-color="#fe7c6d"/><stop offset="0.68" stop-color="#fb7264"/><stop offset="0.75" stop-color="#f66156"/><stop offset="0.81" stop-color="#ef4a41"/><stop offset="0.88" stop-color="#e62b26"/><stop offset="0.93" stop-color="#db0606"/><stop offset="0.94" stop-color="#d90000"/><stop offset="0.95" stop-color="#d30000"/><stop offset="0.97" stop-color="#c20000"/><stop offset="0.99" stop-color="#a60000"/><stop offset="1" stop-color="#860000"/></linearGradient><linearGradient id="linear-gradient" x1="15.38" y1="16.63" x2="19.28" y2="16.63" gradientUnits="userSpaceOnUse"><stop offset="0" stop-color="#807100"/><stop offset="0.05" stop-color="#a18e00"/><stop offset="0.12" stop-color="#c4ad00"/><stop offset="0.15" stop-color="#c5b00d"/><stop offset="0.32" stop-color="#cabb47"/><stop offset="0.44" stop-color="#cec26a"/><stop offset="0.51" stop-color="#cfc578"/><stop offset="0.6" stop-color="#cfc475"/><stop offset="0.68" stop-color="#cec26b"/><stop offset="0.75" stop-color="#ccbf5a"/><stop offset="0.82" stop-color="#caba43"/><stop offset="0.88" stop-color="#c7b424"/><stop offset="0.94" stop-color="#c4ad00"/><stop offset="0.98" stop-color="#cab200"/><stop offset="1" stop-color="#cfb600"/></linearGradient><linearGradient id="New_Gradient_Swatch_8-2" x1="10.5" y1="16.34" x2="14.4" y2="16.34" xlink:href="#New_Gradient_Swatch_8"/><linearGradient id="New_Gradient_Swatch_11-2" x1="13.55" y1="21.06" x2="19.73" y2="21.06" xlink:href="#New_Gradient_Swatch_11"/><linearGradient id="New_Gradient_Swatch_3-3" x1="8.17" y1="15.55" x2="14" y2="9.73" xlink:href="#New_Gradient_Swatch_3"/><linearGradient id="New_Gradient_Swatch_3-4" x1="10.71" y1="15.65" x2="17.22" y2="9.14" xlink:href="#New_Gradient_Swatch_3"/><linearGradient id="New_Gradient_Swatch_3-5" x1="13.15" y1="15.9" x2="21.41" y2="7.64" xlink:href="#New_Gradient_Swatch_3"/><clipPath id="clip-path"><path class="cls-1" d="M14.57,23.08a.25.25,0,0,1-.25-.25V19.54a.25.25,0,0,1,.25-.25.25.25,0,0,1,.25.25v3.29A.25.25,0,0,1,14.57,23.08Z"/></clipPath><clipPath id="clip-path-2"><path class="cls-1" d="M16.09,22.77a.25.25,0,0,1-.25-.25V19.23a.25.25,0,0,1,.25-.25.25.25,0,0,1,.25.25v3.29A.25.25,0,0,1,16.09,22.77Z"/></clipPath><clipPath id="clip-path-3"><path class="cls-1" d="M17.5,22.55a.25.25,0,0,1-.25-.25V19a.25.25,0,0,1,.5,0V22.3A.25.25,0,0,1,17.5,22.55Z"/></clipPath><clipPath id="clip-path-4"><path class="cls-1" d="M18.84,22.36a.25.25,0,0,1-.25-.25V18.82a.25.25,0,0,1,.5,0v3.29A.25.25,0,0,1,18.84,22.36Z"/></clipPath><linearGradient id="New_Gradient_Swatch_1-2" x1="2.55" y1="43.86" x2="10.64" y2="43.86" xlink:href="#New_Gradient_Swatch_1"/><linearGradient id="New_Gradient_Swatch_1-3" x1="15.05" y1="46.05" x2="23.13" y2="46.05" xlink:href="#New_Gradient_Swatch_1"/></defs><title>lab_03</title><g id="Layer_2" data-name="Layer 2"><g id="газоанализатор"><g id="lab_03"><path class="cls-2" d="M36.4,17.67l1.21-.12a1.11,1.11,0,0,0,1-1.06l.56-14.14C39.2,1.82,39,1,38.54.74L36.68.53Z"/><polygon class="cls-3" points="26.99 26.94 26.5 65.59 41.77 62.04 42.04 24.27 26.99 26.94"/><polygon class="cls-4" points="0 61.25 26.5 65.59 26.99 26.94 0.26 24.36 0 61.25"/><path class="cls-5" d="M24.24,1.68,24.08,15.1a1.69,1.69,0,0,0,1.56,1.72l10.76.85A1.7,1.7,0,0,0,38.23,16l.31-13.73A1.7,1.7,0,0,0,36.93.54L26,0A1.69,1.69,0,0,0,24.24,1.68Z"/><path class="cls-6" d="M28.09,1.9l6.24.21A1.83,1.83,0,0,1,36.09,4l-.31,10a1.82,1.82,0,0,1-1.92,1.77l-6.18-.33A1.82,1.82,0,0,1,26,13.54l.26-9.86A1.82,1.82,0,0,1,28.09,1.9Z"/><polygon class="cls-7" points="42.04 24.27 16.42 21.89 0.26 24.36 26.99 26.94 42.04 24.27"/><polygon class="cls-8" points="29.02 17.04 29.02 23.42 32.37 23.88 32.37 17.3 29.02 17.04"/><polygon class="cls-9" points="32.15 23.95 33.37 23.72 33.37 17.47 32.15 17.38 32.15 23.95"/><rect class="cls-10" x="20.25" y="10.07" width="3.9" height="13.29" rx="1.3" ry="1.3"/><rect class="cls-11" x="15.38" y="9.99" width="3.9" height="13.29" rx="1.3" ry="1.3"/><rect class="cls-12" x="10.5" y="9.7" width="3.9" height="13.29" rx="1.3" ry="1.3"/><polygon class="cls-13" points="4.64 17.04 12.62 16.39 19.73 17.12 13.55 17.77 4.64 17.04"/><polygon class="cls-5" points="4.6 17.04 13.52 17.72 13.52 24.99 4.75 24.2 4.6 17.04"/><polygon class="cls-14" points="13.55 17.74 13.56 24.99 19.56 24.2 19.73 17.12 13.55 17.74"/><path class="cls-15" d="M9.72,17.05a.13.13,0,0,1-.13-.13V11.87A1.36,1.36,0,0,1,10,11l2.41-2.67a.13.13,0,0,1,.14,0,.13.13,0,0,1,.08.12V9.7a.12.12,0,0,1-.13.12.12.12,0,0,1-.12-.12v-1l-2.2,2.43a1.15,1.15,0,0,0-.29.75v5.05A.12.12,0,0,1,9.72,17.05Z"/><path class="cls-16" d="M12.18,17.08a.13.13,0,0,1-.12-.13v-5a1.39,1.39,0,0,1,.58-1.12l2.7-1.92a1.35,1.35,0,0,1,1.42-.1A1.36,1.36,0,0,1,17.5,10a.13.13,0,0,1-.12.13.13.13,0,0,1-.13-.13,1.12,1.12,0,0,0-1.77-.91L12.78,11a1.13,1.13,0,0,0-.47.91v5A.13.13,0,0,1,12.18,17.08Z"/><path class="cls-17" d="M14.75,17.45a.12.12,0,0,1-.12-.12V11.46a1.36,1.36,0,0,1,1-1.33l6.51-1.64a.13.13,0,0,1,.16.12V10.2a.13.13,0,0,1-.13.13.13.13,0,0,1-.12-.13V8.77l-6.36,1.6a1.11,1.11,0,0,0-.84,1.09v5.87A.12.12,0,0,1,14.75,17.45Z"/><circle class="cls-18" cx="6.78" cy="22.99" r="0.38"/><circle class="cls-18" cx="6.78" cy="21.83" r="0.38"/><circle class="cls-18" cx="6.78" cy="20.68" r="0.38"/><circle class="cls-18" cx="6.78" cy="19.56" r="0.38"/><circle class="cls-18" cx="9.02" cy="23.17" r="0.38"/><circle class="cls-18" cx="9.02" cy="22.02" r="0.38"/><circle class="cls-19" cx="9.02" cy="20.86" r="0.38"/><circle class="cls-19" cx="9.02" cy="19.75" r="0.38"/><circle class="cls-18" cx="11.03" cy="23.26" r="0.38"/><circle class="cls-19" cx="11.03" cy="22.11" r="0.38"/><circle class="cls-19" cx="11.03" cy="20.96" r="0.38"/><circle class="cls-19" cx="11.03" cy="19.84" r="0.38"/><g class="cls-20"><rect class="cls-21" x="14.81" y="19.29" width="0.01" height="3.79"/><rect class="cls-21" x="14.73" y="19.29" width="0.08" height="3.79"/><rect class="cls-22" x="14.65" y="19.29" width="0.08" height="3.79"/><rect class="cls-23" x="14.57" y="19.29" width="0.08" height="3.79"/><rect class="cls-23" x="14.56" y="19.29" width="0.01" height="3.79"/><rect class="cls-24" x="14.55" y="19.29" width="0.01" height="3.79"/><rect class="cls-25" x="14.54" y="19.29" width="0.01" height="3.79"/><rect class="cls-26" x="14.54" y="19.29" width="0.01" height="3.79"/><rect class="cls-27" x="14.53" y="19.29" width="0.01" height="3.79"/><rect class="cls-28" x="14.52" y="19.29" width="0.01" height="3.79"/><rect class="cls-29" x="14.51" y="19.29" width="0.01" height="3.79"/><rect class="cls-30" x="14.5" y="19.29" width="0.01" height="3.79"/><rect class="cls-31" x="14.49" y="19.29" width="0.01" height="3.79"/><rect class="cls-32" x="14.48" y="19.29" width="0.01" height="3.79"/><rect class="cls-33" x="14.47" y="19.29" width="0.01" height="3.79"/><rect class="cls-34" x="14.46" y="19.29" width="0.01" height="3.79"/><rect class="cls-35" x="14.45" y="19.29" width="0.01" height="3.79"/><rect class="cls-36" x="14.44" y="19.29" width="0.01" height="3.79"/><rect class="cls-37" x="14.43" y="19.29" width="0.01" height="3.79"/><rect class="cls-38" x="14.42" y="19.29" width="0.01" height="3.79"/><rect class="cls-39" x="14.41" y="19.29" width="0.01" height="3.79"/><rect class="cls-40" x="14.4" y="19.29" width="0.01" height="3.79"/><rect class="cls-41" x="14.39" y="19.29" width="0.01" height="3.79"/><rect class="cls-42" x="14.39" y="19.29" width="0.01" height="3.79"/><rect class="cls-43" x="14.38" y="19.29" width="0.01" height="3.79"/><rect class="cls-44" x="14.37" y="19.29" width="0.01" height="3.79"/><rect class="cls-45" x="14.36" y="19.29" width="0.01" height="3.79"/><rect class="cls-46" x="14.35" y="19.29" width="0.01" height="3.79"/><rect class="cls-47" x="14.34" y="19.29" width="0.01" height="3.79"/><rect class="cls-48" x="14.33" y="19.29" width="0.01" height="3.79"/><rect class="cls-48" x="14.32" y="19.29" width="0.01" height="3.79"/></g><path class="cls-5" d="M14.57,23.2a.37.37,0,0,1-.37-.37V19.54a.38.38,0,1,1,.75,0v3.29A.37.37,0,0,1,14.57,23.2Zm0-3.79a.12.12,0,0,0-.12.13v3.29a.12.12,0,0,0,.12.12.12.12,0,0,0,.13-.12V19.54A.13.13,0,0,0,14.57,19.41Z"/><g class="cls-49"><rect class="cls-21" x="16.33" y="18.98" width="0.01" height="3.79"/><rect class="cls-21" x="16.25" y="18.98" width="0.08" height="3.79"/><rect class="cls-22" x="16.17" y="18.98" width="0.08" height="3.79"/><rect class="cls-23" x="16.09" y="18.98" width="0.08" height="3.79"/><rect class="cls-23" x="16.08" y="18.98" width="0.01" height="3.79"/><rect class="cls-24" x="16.07" y="18.98" width="0.01" height="3.79"/><rect class="cls-25" x="16.06" y="18.98" width="0.01" height="3.79"/><rect class="cls-26" x="16.05" y="18.98" width="0.01" height="3.79"/><rect class="cls-27" x="16.04" y="18.98" width="0.01" height="3.79"/><rect class="cls-28" x="16.03" y="18.98" width="0.01" height="3.79"/><rect class="cls-29" x="16.02" y="18.98" width="0.01" height="3.79"/><rect class="cls-30" x="16.01" y="18.98" width="0.01" height="3.79"/><rect class="cls-31" x="16" y="18.98" width="0.01" height="3.79"/><rect class="cls-32" x="15.99" y="18.98" width="0.01" height="3.79"/><rect class="cls-33" x="15.98" y="18.98" width="0.01" height="3.79"/><rect class="cls-34" x="15.97" y="18.98" width="0.01" height="3.79"/><rect class="cls-35" x="15.96" y="18.98" width="0.01" height="3.79"/><rect class="cls-36" x="15.96" y="18.98" width="0.01" height="3.79"/><rect class="cls-37" x="15.95" y="18.98" width="0.01" height="3.79"/><rect class="cls-38" x="15.94" y="18.98" width="0.01" height="3.79"/><rect class="cls-39" x="15.93" y="18.98" width="0.01" height="3.79"/><rect class="cls-40" x="15.92" y="18.98" width="0.01" height="3.79"/><rect class="cls-41" x="15.91" y="18.98" width="0.01" height="3.79"/><rect class="cls-42" x="15.9" y="18.98" width="0.01" height="3.79"/><rect class="cls-43" x="15.89" y="18.98" width="0.01" height="3.79"/><rect class="cls-44" x="15.88" y="18.98" width="0.01" height="3.79"/><rect class="cls-45" x="15.87" y="18.98" width="0.01" height="3.79"/><rect class="cls-46" x="15.86" y="18.98" width="0.01" height="3.79"/><rect class="cls-47" x="15.85" y="18.98" width="0.01" height="3.79"/><rect class="cls-48" x="15.84" y="18.98" width="0.01" height="3.79"/><rect class="cls-48" x="15.84" y="18.98" width="0.01" height="3.79"/></g><path class="cls-5" d="M16.09,22.9a.38.38,0,0,1-.38-.38V19.23a.38.38,0,0,1,.75,0v3.29A.38.38,0,0,1,16.09,22.9Zm0-3.79a.12.12,0,0,0-.13.12v3.29a.13.13,0,0,0,.13.13.12.12,0,0,0,.12-.13V19.23A.12.12,0,0,0,16.09,19.11Z"/><g class="cls-50"><rect class="cls-21" x="17.74" y="18.76" width="0.01" height="3.79"/><rect class="cls-21" x="17.66" y="18.76" width="0.08" height="3.79"/><rect class="cls-22" x="17.58" y="18.76" width="0.08" height="3.79"/><rect class="cls-23" x="17.5" y="18.76" width="0.08" height="3.79"/><rect class="cls-23" x="17.49" y="18.76" width="0.01" height="3.79"/><rect class="cls-24" x="17.48" y="18.76" width="0.01" height="3.79"/><rect class="cls-25" x="17.47" y="18.76" width="0.01" height="3.79"/><rect class="cls-26" x="17.46" y="18.76" width="0.01" height="3.79"/><rect class="cls-27" x="17.45" y="18.76" width="0.01" height="3.79"/><rect class="cls-28" x="17.44" y="18.76" width="0.01" height="3.79"/><rect class="cls-29" x="17.43" y="18.76" width="0.01" height="3.79"/><rect class="cls-30" x="17.42" y="18.76" width="0.01" height="3.79"/><rect class="cls-31" x="17.41" y="18.76" width="0.01" height="3.79"/><rect class="cls-32" x="17.4" y="18.76" width="0.01" height="3.79"/><rect class="cls-33" x="17.4" y="18.76" width="0.01" height="3.79"/><rect class="cls-34" x="17.39" y="18.76" width="0.01" height="3.79"/><rect class="cls-35" x="17.38" y="18.76" width="0.01" height="3.79"/><rect class="cls-36" x="17.37" y="18.76" width="0.01" height="3.79"/><rect class="cls-37" x="17.36" y="18.76" width="0.01" height="3.79"/><rect class="cls-38" x="17.35" y="18.76" width="0.01" height="3.79"/><rect class="cls-39" x="17.34" y="18.76" width="0.01" height="3.79"/><rect class="cls-40" x="17.33" y="18.76" width="0.01" height="3.79"/><rect class="cls-41" x="17.32" y="18.76" width="0.01" height="3.79"/><rect class="cls-42" x="17.31" y="18.76" width="0.01" height="3.79"/><rect class="cls-43" x="17.3" y="18.76" width="0.01" height="3.79"/><rect class="cls-44" x="17.29" y="18.76" width="0.01" height="3.79"/><rect class="cls-45" x="17.28" y="18.76" width="0.01" height="3.79"/><rect class="cls-46" x="17.27" y="18.76" width="0.01" height="3.79"/><rect class="cls-47" x="17.26" y="18.76" width="0.01" height="3.79"/><rect class="cls-48" x="17.25" y="18.76" width="0.01" height="3.79"/><rect class="cls-48" x="17.25" y="18.76" width="0.01" height="3.79"/></g><path class="cls-5" d="M17.5,22.68a.38.38,0,0,1-.38-.38V19a.38.38,0,0,1,.38-.37.37.37,0,0,1,.37.37V22.3A.37.37,0,0,1,17.5,22.68Zm0-3.79a.12.12,0,0,0-.13.12V22.3a.13.13,0,0,0,.13.13.12.12,0,0,0,.12-.13V19A.12.12,0,0,0,17.5,18.89Z"/><g class="cls-51"><rect class="cls-21" x="19.08" y="18.57" width="0.01" height="3.79"/><rect class="cls-21" x="19" y="18.57" width="0.08" height="3.79"/><rect class="cls-22" x="18.92" y="18.57" width="0.08" height="3.79"/><rect class="cls-23" x="18.84" y="18.57" width="0.08" height="3.79"/><rect class="cls-23" x="18.83" y="18.57" width="0.01" height="3.79"/><rect class="cls-24" x="18.82" y="18.57" width="0.01" height="3.79"/><rect class="cls-25" x="18.81" y="18.57" width="0.01" height="3.79"/><rect class="cls-26" x="18.8" y="18.57" width="0.01" height="3.79"/><rect class="cls-27" x="18.79" y="18.57" width="0.01" height="3.79"/><rect class="cls-28" x="18.78" y="18.57" width="0.01" height="3.79"/><rect class="cls-29" x="18.77" y="18.57" width="0.01" height="3.79"/><rect class="cls-30" x="18.76" y="18.57" width="0.01" height="3.79"/><rect class="cls-31" x="18.76" y="18.57" width="0.01" height="3.79"/><rect class="cls-32" x="18.75" y="18.57" width="0.01" height="3.79"/><rect class="cls-33" x="18.74" y="18.57" width="0.01" height="3.79"/><rect class="cls-34" x="18.73" y="18.57" width="0.01" height="3.79"/><rect class="cls-35" x="18.72" y="18.57" width="0.01" height="3.79"/><rect class="cls-36" x="18.71" y="18.57" width="0.01" height="3.79"/><rect class="cls-37" x="18.7" y="18.57" width="0.01" height="3.79"/><rect class="cls-38" x="18.69" y="18.57" width="0.01" height="3.79"/><rect class="cls-39" x="18.68" y="18.57" width="0.01" height="3.79"/><rect class="cls-40" x="18.67" y="18.57" width="0.01" height="3.79"/><rect class="cls-41" x="18.66" y="18.57" width="0.01" height="3.79"/><rect class="cls-42" x="18.65" y="18.57" width="0.01" height="3.79"/><rect class="cls-43" x="18.64" y="18.57" width="0.01" height="3.79"/><rect class="cls-44" x="18.63" y="18.57" width="0.01" height="3.79"/><rect class="cls-45" x="18.62" y="18.57" width="0.01" height="3.79"/><rect class="cls-46" x="18.61" y="18.57" width="0.01" height="3.79"/><rect class="cls-47" x="18.61" y="18.57" width="0.01" height="3.79"/><rect class="cls-48" x="18.6" y="18.57" width="0.01" height="3.79"/><rect class="cls-48" x="18.59" y="18.57" width="0.01" height="3.79"/></g><path class="cls-5" d="M18.84,22.49a.37.37,0,0,1-.37-.38V18.82a.37.37,0,0,1,.37-.38.38.38,0,0,1,.38.38v3.29A.38.38,0,0,1,18.84,22.49Zm0-3.8a.12.12,0,0,0-.12.13v3.29a.12.12,0,0,0,.12.13.13.13,0,0,0,.13-.13V18.82A.13.13,0,0,0,18.84,18.69Z"/><path class="cls-52" d="M9.46,60l-.18,0-5.73-.89a1.17,1.17,0,0,1-1-1.16v-29a1.17,1.17,0,0,1,1.17-1.17h.19l5.73.89a1.17,1.17,0,0,1,1,1.16v29A1.18,1.18,0,0,1,9.46,60Z"/><path class="cls-53" d="M3.72,28h.15l5.73.89a.92.92,0,0,1,.79.91v29a.93.93,0,0,1-.92.93H9.32l-5.74-.9a.92.92,0,0,1-.78-.91v-29A.92.92,0,0,1,3.72,28m0-.5A1.42,1.42,0,0,0,2.3,28.91v29a1.43,1.43,0,0,0,1.21,1.41l5.73.89.23,0a1.43,1.43,0,0,0,1.42-1.43v-29a1.44,1.44,0,0,0-1.21-1.41L3.94,27.5Z"/><path class="cls-54" d="M22,62.18h-.18L16,61.27a1.15,1.15,0,0,1-1-1.15v-29a1.17,1.17,0,0,1,1.17-1.17h.18l5.74.89a1.17,1.17,0,0,1,1,1.16V61A1.17,1.17,0,0,1,22,62.18Z"/><path class="cls-53" d="M16.22,30.18h.14l5.74.89a.92.92,0,0,1,.78.91V61a.92.92,0,0,1-.92.92h-.14L16.08,61a.92.92,0,0,1-.78-.91v-29a.92.92,0,0,1,.92-.92m0-.5A1.43,1.43,0,0,0,14.8,31.1v29a1.42,1.42,0,0,0,1.2,1.4l5.74.89.22,0A1.43,1.43,0,0,0,23.38,61V32a1.42,1.42,0,0,0-1.2-1.4l-5.74-.89a.82.82,0,0,0-.22,0Z"/></g></g></g></svg>