<svg xmlns="http://www.w3.org/2000/svg" xmlns:xlink="http://www.w3.org/1999/xlink" viewBox="0 0 68.93 146.92"><defs><style>.cls-1{fill:#484f4f;}.cls-2{fill:#6b7575;}.cls-3{fill:url(#linear-gradient);}.cls-4{fill:url(#linear-gradient-2);}.cls-5{fill:url(#linear-gradient-3);}.cls-6{fill:#444a4a;}.cls-7{fill:url(#linear-gradient-4);}.cls-8{fill:url(#linear-gradient-5);}.cls-9{fill:url(#linear-gradient-6);}.cls-10{fill:url(#linear-gradient-7);}.cls-11{fill:url(#linear-gradient-8);}.cls-12{fill:#807a7d;}.cls-13{fill:url(#linear-gradient-9);}.cls-14{fill:url(#linear-gradient-10);}.cls-15{fill:#b87615;}.cls-16{fill:url(#linear-gradient-11);}.cls-17{fill:#c2b9bd;}.cls-18{fill:#aba3a7;}.cls-19{fill:url(#Silver);}.cls-20{fill:url(#New_Gradient_Swatch_6);}.cls-21{fill:url(#linear-gradient-12);}.cls-22{fill:url(#New_Gradient_Swatch_25);}.cls-23{fill:url(#New_Gradient_Swatch_25-2);}.cls-24{fill:url(#linear-gradient-13);}.cls-25{fill:url(#linear-gradient-14);}.cls-26{fill:url(#Neutral_1);}.cls-27{fill:url(#New_Gradient_Swatch_25-3);}.cls-28{fill:#595557;}.cls-29{fill:url(#linear-gradient-15);}.cls-30{fill:url(#linear-gradient-16);}.cls-31{fill:url(#linear-gradient-17);}.cls-32{fill:url(#New_Gradient_Swatch_25-4);}.cls-33{fill:url(#linear-gradient-18);}.cls-34{fill:url(#linear-gradient-19);}.cls-35{fill:url(#linear-gradient-20);}.cls-36{fill:url(#linear-gradient-21);}.cls-37{fill:url(#New_Gradient_Swatch_25-5);}.cls-38{fill:none;}.cls-39{fill:url(#radial-gradient);}.cls-40{fill:url(#linear-gradient-22);}.cls-41{fill:url(#New_Gradient_Swatch_25-6);}.cls-42{fill:url(#linear-gradient-23);}.cls-43{fill:url(#linear-gradient-24);}.cls-44{fill:url(#linear-gradient-25);}.cls-45{fill:url(#linear-gradient-26);}.cls-46{fill:url(#linear-gradient-27);}.cls-47{fill:url(#linear-gradient-28);}.cls-48{fill:url(#linear-gradient-29);}.cls-49{fill:url(#New_Gradient_Swatch_25-7);}.cls-50{fill:url(#New_Gradient_Swatch_25-8);}.cls-51{fill:url(#linear-gradient-30);}.cls-52{fill:url(#linear-gradient-31);}.cls-53{fill:url(#linear-gradient-32);}.cls-54{fill:url(#linear-gradient-33);}.cls-55{fill:url(#linear-gradient-34);}.cls-56{fill:#191c1c;}</style><linearGradient id="linear-gradient" x1="16.69" y1="126.42" x2="63.97" y2="106.68" gradientUnits="userSpaceOnUse"><stop offset="0" stop-color="#0f0f0f"/><stop offset="0.73" stop-color="#a3a3a3"/><stop offset="0.75" stop-color="#8b8d8d"/><stop offset="0.78" stop-color="#737776"/><stop offset="0.81" stop-color="#626767"/><stop offset="0.84" stop-color="#585e5d"/><stop offset="0.88" stop-color="#555b5a"/><stop offset="1" stop-color="#151f1e"/></linearGradient><linearGradient id="linear-gradient-2" x1="18.88" y1="97.71" x2="40.96" y2="97.71" gradientUnits="userSpaceOnUse"><stop offset="0.15" stop-color="#0f0f0f"/><stop offset="0.73" stop-color="#a3a3a3"/><stop offset="0.75" stop-color="#8b8d8d"/><stop offset="0.78" stop-color="#737776"/><stop offset="0.81" stop-color="#626767"/><stop offset="0.84" stop-color="#585e5d"/><stop offset="0.88" stop-color="#555b5a"/><stop offset="1" stop-color="#151f1e"/></linearGradient><linearGradient id="linear-gradient-3" x1="50.21" y1="109.65" x2="37.23" y2="104.15" gradientUnits="userSpaceOnUse"><stop offset="0" stop-color="#0f0f0f"/><stop offset="0.34" stop-color="#9e9e9e"/><stop offset="0.47" stop-color="#a3a3a3"/><stop offset="0.53" stop-color="#8b8d8d"/><stop offset="0.6" stop-color="#737776"/><stop offset="0.68" stop-color="#626767"/><stop offset="0.77" stop-color="#585e5d"/><stop offset="0.88" stop-color="#555b5a"/><stop offset="1" stop-color="#151f1e"/></linearGradient><linearGradient id="linear-gradient-4" x1="38.1" y1="107.54" x2="48.97" y2="107.54" xlink:href="#linear-gradient-3"/><linearGradient id="linear-gradient-5" x1="42.81" y1="91.7" x2="50.42" y2="93.74" xlink:href="#linear-gradient-3"/><linearGradient id="linear-gradient-6" x1="39.17" y1="100.3" x2="49.31" y2="100.3" xlink:href="#linear-gradient-3"/><linearGradient id="linear-gradient-7" x1="48.63" y1="65.41" x2="62.44" y2="65.41" xlink:href="#linear-gradient-3"/><linearGradient id="linear-gradient-8" x1="56.2" y1="76.25" x2="67.34" y2="80.06" xlink:href="#linear-gradient-3"/><linearGradient id="linear-gradient-9" x1="20.2" y1="46.59" x2="48.78" y2="62.94" gradientUnits="userSpaceOnUse"><stop offset="0" stop-color="#c3922e"/><stop offset="0.11" stop-color="#e6cf89"/><stop offset="0.19" stop-color="#fffbcc"/><stop offset="0.3" stop-color="#eed688"/><stop offset="0.38" stop-color="#f9cb34"/><stop offset="0.68" stop-color="#fbf2bb"/><stop offset="0.82" stop-color="#fbc926"/><stop offset="1" stop-color="#c3922e"/></linearGradient><linearGradient id="linear-gradient-10" x1="17.99" y1="57.39" x2="47.08" y2="57.39" xlink:href="#linear-gradient-9"/><linearGradient id="linear-gradient-11" x1="30.35" y1="79.63" x2="34.55" y2="80.84" gradientUnits="userSpaceOnUse"><stop offset="0.24" stop-color="#b0a7ab"/><stop offset="0.55" stop-color="#fff"/><stop offset="0.71" stop-color="#e4e0e2"/><stop offset="0.9" stop-color="#cbc4c7"/><stop offset="1" stop-color="#c2b9bd"/></linearGradient><linearGradient id="Silver" x1="5.39" y1="74.47" x2="63.53" y2="74.47" gradientUnits="userSpaceOnUse"><stop offset="0" stop-color="#e5e1df"/><stop offset="0" stop-color="#dddad6"/><stop offset="0.06" stop-color="#cecbc9"/><stop offset="0.18" stop-color="#a8a4a7"/><stop offset="0.26" stop-color="#8b878d"/><stop offset="0.52" stop-color="#f3f4f4"/><stop offset="0.58" stop-color="#e5e5e6"/><stop offset="0.7" stop-color="#bfbec0"/><stop offset="0.87" stop-color="#848084"/><stop offset="0.88" stop-color="#807c80"/><stop offset="1" stop-color="#d1d3d4"/><stop offset="1" stop-color="#a7a9ac"/></linearGradient><linearGradient id="New_Gradient_Swatch_6" x1="8.15" y1="74.15" x2="60.13" y2="74.15" gradientUnits="userSpaceOnUse"><stop offset="0" stop-color="#fdfff3"/><stop offset="0.12" stop-color="#dadcd2"/><stop offset="0.41" stop-color="#dadcd2"/><stop offset="0.55" stop-color="#c8c8c4"/><stop offset="0.98" stop-color="#d9dbd1"/><stop offset="0.98" stop-color="#d2d3cc"/><stop offset="0.98" stop-color="#c7c8c4"/><stop offset="0.99" stop-color="#c1c1bf"/><stop offset="1" stop-color="#bfbfbe"/></linearGradient><linearGradient id="linear-gradient-12" x1="19.63" y1="68.67" x2="41.79" y2="68.67" gradientUnits="userSpaceOnUse"><stop offset="0.18" stop-color="#fff"/><stop offset="0.35" stop-color="#e2e0e1"/><stop offset="0.65" stop-color="#b6b2b4"/><stop offset="0.87" stop-color="#9b9598"/><stop offset="1" stop-color="#918a8e"/></linearGradient><radialGradient id="New_Gradient_Swatch_25" cx="30.69" cy="69.98" r="8.15" xlink:href="#linear-gradient-12"/><radialGradient id="New_Gradient_Swatch_25-2" cx="80.86" cy="258.05" r="2.33" gradientTransform="matrix(0.97, 0.24, -0.24, 0.97, 19.12, -201.13)" xlink:href="#linear-gradient-12"/><linearGradient id="linear-gradient-13" x1="36.47" y1="75.56" x2="58.64" y2="75.56" xlink:href="#linear-gradient-12"/><linearGradient id="linear-gradient-14" x1="858.36" y1="688.33" x2="862.92" y2="690.19" gradientTransform="translate(681.65 -834.71) rotate(86.84)" gradientUnits="userSpaceOnUse"><stop offset="0.15" stop-color="#0f0f0f"/><stop offset="0.78" stop-color="#a3a3a3"/><stop offset="0.79" stop-color="#8b8d8d"/><stop offset="0.81" stop-color="#737776"/><stop offset="0.83" stop-color="#626767"/><stop offset="0.85" stop-color="#585e5d"/><stop offset="0.88" stop-color="#555b5a"/><stop offset="1" stop-color="#151f1e"/></linearGradient><linearGradient id="Neutral_1" x1="24.99" y1="44.78" x2="49.54" y2="58.32" gradientUnits="userSpaceOnUse"><stop offset="0.01" stop-color="#ccbdad"/><stop offset="0.1" stop-color="#caceca"/><stop offset="0.2" stop-color="#b0a496"/><stop offset="0.29" stop-color="#caceca"/><stop offset="0.4" stop-color="#fff"/><stop offset="0.6" stop-color="#caceca"/><stop offset="0.8" stop-color="#b0a496"/><stop offset="0.89" stop-color="#caceca"/><stop offset="1" stop-color="#ccbdad"/></linearGradient><radialGradient id="New_Gradient_Swatch_25-3" cx="36.82" cy="50.13" r="9.28" xlink:href="#linear-gradient-12"/><linearGradient id="linear-gradient-15" x1="147.77" y1="275.75" x2="156.37" y2="275.75" gradientTransform="matrix(0.91, 0.39, -0.47, 1.08, 31.99, -293.54)" gradientUnits="userSpaceOnUse"><stop offset="0" stop-color="#0f0f0f"/><stop offset="0.36" stop-color="#a3a3a3"/><stop offset="0.44" stop-color="#8b8d8d"/><stop offset="0.53" stop-color="#737776"/><stop offset="0.63" stop-color="#626767"/><stop offset="0.74" stop-color="#585e5d"/><stop offset="0.88" stop-color="#555b5a"/><stop offset="1" stop-color="#151f1e"/></linearGradient><linearGradient id="linear-gradient-16" x1="51.82" y1="47.65" x2="60.45" y2="47.65" xlink:href="#linear-gradient-12"/><linearGradient id="linear-gradient-17" x1="33.11" y1="40.45" x2="49.5" y2="45.97" gradientUnits="userSpaceOnUse"><stop offset="0" stop-color="#c7c2c4"/><stop offset="0.43" stop-color="#fff"/><stop offset="0.55" stop-color="#e2e0e1"/><stop offset="0.75" stop-color="#b6b2b4"/><stop offset="0.91" stop-color="#9b9598"/><stop offset="1" stop-color="#918a8e"/></linearGradient><radialGradient id="New_Gradient_Swatch_25-4" cx="45.01" cy="33.13" r="7.9" xlink:href="#linear-gradient-12"/><linearGradient id="linear-gradient-18" x1="36.01" y1="31.52" x2="55.18" y2="31.52" gradientUnits="userSpaceOnUse"><stop offset="0" stop-color="#e3e0e0"/><stop offset="1" stop-color="#918a8e"/></linearGradient><linearGradient id="linear-gradient-19" x1="40.56" y1="31.45" x2="50.62" y2="31.45" xlink:href="#linear-gradient-12"/><linearGradient id="linear-gradient-20" x1="40.68" y1="15.43" x2="57.25" y2="19.5" xlink:href="#linear-gradient-9"/><linearGradient id="linear-gradient-21" x1="-15.11" y1="175.71" x2="-9.19" y2="178.14" gradientTransform="matrix(0.97, 0.07, 0.1, 0.78, 32.8, -69.79)" xlink:href="#linear-gradient-14"/><radialGradient id="New_Gradient_Swatch_25-5" cx="153.34" cy="195.22" r="6.63" gradientTransform="matrix(0.97, 0.25, -0.25, 0.97, -45.99, -224.09)" xlink:href="#linear-gradient-12"/><radialGradient id="radial-gradient" cx="-235.67" cy="102.51" r="1.51" gradientTransform="matrix(0.7, 0.05, -0.14, 0.99, 236.55, -42.26)" gradientUnits="userSpaceOnUse"><stop offset="0.18" stop-color="#fff"/><stop offset="0.49" stop-color="#e1dedf"/><stop offset="0.81" stop-color="#c7c2c3"/><stop offset="1" stop-color="#bdb7b8"/></radialGradient><linearGradient id="linear-gradient-22" x1="57.56" y1="46.57" x2="57.48" y2="48.87" gradientUnits="userSpaceOnUse"><stop offset="0" stop-color="#e2dfe0"/><stop offset="0.48" stop-color="#fff"/><stop offset="0.59" stop-color="#e2e0e1"/><stop offset="0.77" stop-color="#b6b2b4"/><stop offset="0.92" stop-color="#9b9598"/><stop offset="1" stop-color="#918a8e"/></linearGradient><radialGradient id="New_Gradient_Swatch_25-6" cx="58.58" cy="47.89" r="0.85" xlink:href="#linear-gradient-12"/><linearGradient id="linear-gradient-23" x1="22.32" y1="49.84" x2="28.26" y2="55.97" xlink:href="#linear-gradient-2"/><linearGradient id="linear-gradient-24" x1="20.02" y1="53.15" x2="24.03" y2="58.11" gradientTransform="matrix(1, 0, 0, 1, 0, 0)" xlink:href="#linear-gradient-14"/><linearGradient id="linear-gradient-25" x1="20.7" y1="51.55" x2="25.42" y2="57.59" gradientTransform="matrix(1, 0, 0, 1, 0, 0)" xlink:href="#linear-gradient-14"/><linearGradient id="linear-gradient-26" x1="30.87" y1="56.19" x2="38.34" y2="61.32" gradientUnits="userSpaceOnUse"><stop offset="0" stop-color="#0f0f0f"/><stop offset="0.78" stop-color="#a3a3a3"/><stop offset="0.79" stop-color="#8b8d8d"/><stop offset="0.81" stop-color="#737776"/><stop offset="0.83" stop-color="#626767"/><stop offset="0.85" stop-color="#585e5d"/><stop offset="0.88" stop-color="#555b5a"/><stop offset="1" stop-color="#151f1e"/></linearGradient><linearGradient id="linear-gradient-27" x1="221.83" y1="430.4" x2="227.87" y2="434.55" gradientTransform="matrix(0.84, 0.54, -0.54, 0.84, 77.28, -425.32)" xlink:href="#linear-gradient-26"/><linearGradient id="linear-gradient-28" x1="29.89" y1="62.26" x2="34.29" y2="64.66" gradientTransform="matrix(1, 0, 0, 1, 0, 0)" xlink:href="#linear-gradient-14"/><linearGradient id="linear-gradient-29" x1="15.87" y1="374.89" x2="21.92" y2="379.04" gradientTransform="matrix(0.61, 0.39, -0.62, 0.97, 251.69, -304.27)" xlink:href="#linear-gradient-26"/><radialGradient id="New_Gradient_Swatch_25-7" cx="47.46" cy="77.01" r="8.18" xlink:href="#linear-gradient-12"/><radialGradient id="New_Gradient_Swatch_25-8" cx="98.85" cy="260.78" r="2.33" gradientTransform="matrix(0.97, 0.24, -0.24, 0.97, 19.12, -201.13)" xlink:href="#linear-gradient-12"/><linearGradient id="linear-gradient-30" x1="22.4" y1="86.75" x2="38.64" y2="92" gradientUnits="userSpaceOnUse"><stop offset="0" stop-color="#555b5a"/><stop offset="0.34" stop-color="#9e9e9e"/><stop offset="0.47" stop-color="#a3a3a3"/><stop offset="0.53" stop-color="#8b8d8d"/><stop offset="0.6" stop-color="#737776"/><stop offset="0.68" stop-color="#626767"/><stop offset="0.77" stop-color="#585e5d"/><stop offset="0.88" stop-color="#555b5a"/></linearGradient><linearGradient id="linear-gradient-31" x1="23.49" y1="88.01" x2="36.53" y2="92.22" gradientUnits="userSpaceOnUse"><stop offset="0"/><stop offset="0.21" stop-color="#020202"/><stop offset="0.29" stop-color="#090909"/><stop offset="0.34" stop-color="#141414"/><stop offset="0.38" stop-color="#252525"/><stop offset="0.42" stop-color="#3b3b3b"/><stop offset="0.46" stop-color="#575757"/><stop offset="0.49" stop-color="#777"/><stop offset="0.51" stop-color="#9d9d9d"/><stop offset="0.54" stop-color="#c8c8c8"/><stop offset="0.56" stop-color="#f6f6f6"/><stop offset="0.57" stop-color="#fff"/><stop offset="0.58" stop-color="#dcdcdc"/><stop offset="0.61" stop-color="#aeaeae"/><stop offset="0.63" stop-color="#858585"/><stop offset="0.66" stop-color="#616161"/><stop offset="0.69" stop-color="#434343"/><stop offset="0.73" stop-color="#2a2a2a"/><stop offset="0.76" stop-color="#171717"/><stop offset="0.81" stop-color="#0a0a0a"/><stop offset="0.87" stop-color="#020202"/><stop offset="0.98"/></linearGradient><linearGradient id="linear-gradient-32" x1="42.02" y1="100.48" x2="43.83" y2="100.48" xlink:href="#linear-gradient-3"/><linearGradient id="linear-gradient-33" x1="40.75" y1="108.34" x2="44.96" y2="108.34" xlink:href="#linear-gradient-12"/><linearGradient id="linear-gradient-34" x1="61.01" y1="107.77" x2="44.3" y2="113.89" xlink:href="#linear-gradient-3"/></defs><title>lab_22</title><g id="Layer_2" data-name="Layer 2"><g id="микроскоп"><g id="lab_22"><path class="cls-1" d="M2.85,121.51S0,129,0,134.83c0,0,16.16,11.41,20.38,11.68l3.12-14.13S5.71,120.43,2.85,121.51Z"/><path class="cls-2" d="M66.06,113.77s4,10.46,2.54,15.21c0,0,2.85,5.71-48.77,17.94L23,132.52S56.06,124,66.06,113.77Z"/><path class="cls-3" d="M36,107.07S6.66,116.49,2.67,121.92c0,0,15.94,11,20.11,11,0,0,42-9.6,43.28-19.2C66.06,113.77,47.41,100.55,36,107.07Z"/><path class="cls-4" d="M40.82,89.32S30.53,93.6,17.54,89l1.07,12.7h.11c.38,2.66,5.09,4.75,10.86,4.75,6,0,10.89-2.28,10.89-5.09a2.33,2.33,0,0,0-.08-.59A23,23,0,0,0,40.82,89.32Z"/><path class="cls-5" d="M48.7,120.77l-18-8.49a14.91,14.91,0,0,0,5.84-7.2s2.85-.21,4.14-6.32c0,0,7.2-2.65,10.87-.2,0,0,4.21,1.29,3.53,4.48C55.08,103,51.28,118,48.7,120.77Z"/><path class="cls-6" d="M38.31,106.77l-1.57,6.32,7.41,3.67S46,114,45.37,111.87l-6-2.31.88-2.79Z"/><path class="cls-7" d="M49,101s-3.6,2.17-3.26,8.63c0,0-.27,4-1.15,5l-6.46-3.13s2.86-9.85,5-10.8A14.34,14.34,0,0,1,49,101Z"/><path class="cls-2" d="M55.47,84.52c-.18.36-4.8,14.49-4.8,14.49l-4.62-.54,5.61-14.58Z"/><polygon class="cls-8" points="52.91 84.09 47.14 102.7 39.8 101.2 45.71 83.41 52.91 84.09"/><path class="cls-1" d="M42.79,97.2l-3.71.32.54-7.66s6.25,2,8.42,5.26C48,95.12,48.86,97.92,42.79,97.2Z"/><path class="cls-2" d="M48.29,98.42c.28-.09.41,2.17-.88,3.46l-3.13-.27.55-3.39A4.85,4.85,0,0,0,48.29,98.42Z"/><polygon class="cls-6" points="39.12 107.07 37.95 107.57 38.53 103.22 39.39 103.31 39.12 107.07"/><polygon class="cls-2" points="43.06 102.99 42.97 106.44 38.9 107.34 39.26 102.99 43.06 102.99"/><path class="cls-9" d="M49.13,97.2s1.45,2.08-3.85,1.85l-.18,2s3.39.09,3.21-1c0,0,1.54,2.45-1.72,3.35l-7.42-.13L41,97.61S45.82,98.69,49.13,97.2Z"/><path class="cls-6" d="M39.44,97.11l1.63.9s11.14,1.27,7.33-2.26C48.4,95.75,48.68,97,39.44,97.11Z"/><path class="cls-2" d="M40.62,90.32s7.42,4.16,7,5.16c0,0,.18.81-5.07.81l.45.55s6.07.9,5.71-1.82c0,0,.54-1.63-8.15-5.61Z"/><path class="cls-10" d="M51.76,55.84s4.07,7.94-3.13,20.44l10.87,2s6.52-13.45.13-25.81C59.63,52.51,54.06,52.91,51.76,55.84Z"/><path class="cls-11" d="M58.55,56s4.07,11.82-2.45,22.68L49.72,99.24s5,2.17,5.3,3.12c0,0,17.11-33.55,11.27-47.68C66.29,54.68,62.62,48.16,58.55,56Z"/><path class="cls-2" d="M56.41,56l3.05.34s1.4.51,1.7-.78L62,52.2l3.74-13.41s.34-1.33-.64-1.6L54.47,34.13l-3.9,19.8Z"/><polygon class="cls-12" points="61.53 36.61 56.78 55.9 47.34 54.07 53.79 34.78 61.53 36.61"/><path class="cls-13" d="M49.5,62.08c.63-1.11-5.31-5.66-13.27-10.17s-14.91-7.27-15.54-6.16c-.05.08-2.65,3.46-2.65,3.46l29,16.4Z"/><path class="cls-14" d="M47,65.58c-.62,1.11-7.76-1.69-15.72-6.2S17.41,50.31,18,49.21s7.58,1.65,15.54,6.16S47.66,64.48,47,65.58Z"/><path class="cls-15" d="M45,64.58c-.48.84-6.29-1.56-13-5.36s-11.75-7.56-11.27-8.4,6.29,1.57,13,5.37S45.44,63.74,45,64.58Z"/><path class="cls-16" d="M29.25,81.8s4.3,1.59,5.89,1,1.06-4.07,1.06-4.07-4.46-.18-6-1.27Z"/><path class="cls-17" d="M35.79,79l-.86,3.8,28.3,3.29L63.51,82S37.7,78.63,35.79,79Z"/><polygon class="cls-18" points="5.23 66.63 4.01 70.64 29.61 81.98 31.11 77.84 5.23 66.63"/><path class="cls-19" d="M5.39,66.77,30.56,78a11.49,11.49,0,0,0,5.53,1l27.44,3.17-29-12.73S12,67,5.39,66.77Z"/><path class="cls-20" d="M8.15,67.27l22.51,10a10.25,10.25,0,0,0,4.94.89L60.13,81,34.22,69.66S14.06,67.51,8.15,67.27Z"/><path class="cls-12" d="M54.87,80l-3.15-2.24S55.24,76.88,54.87,80Z"/><path class="cls-12" d="M38.05,73.11l-3.16-2.23S38.41,70,38.05,73.11Z"/><path class="cls-21" d="M41.79,70.75l-3.57-1.67s-17-4.3-18.59-2c0,0,1.15,3,15.35,3.19C35,70.28,41.54,71.37,41.79,70.75Z"/><path class="cls-22" d="M19.79,66.86s-2,1.18,22,3.89v2.36H38s.63-1.81-1.9-2.17c0,0-11.88-.73-14.49-1.27C21.6,69.67,18.85,69.43,19.79,66.86Z"/><path class="cls-23" d="M39,69.92c-.13.53-1.25.1-2.44-.18s-2-.33-1.87-.87,1.2-.73,2.39-.44S39.11,69.38,39,69.92Z"/><path class="cls-24" d="M58.64,77.64,55.06,76s-17-4.3-18.59-2c0,0,1.16,3,15.35,3.19C51.82,77.16,58.39,78.25,58.64,77.64Z"/><path class="cls-25" d="M37.72,64.1a2.19,2.19,0,0,1-1.2-2.84h0c.41-1.21,1.64-2.13,2.7-1.77l4.33,3.17c1,.85,1.7,1.73,1.34,2,0,0-1.39,1.42-2.46,1.06Z"/><path class="cls-26" d="M25.4,44.63l-.81,1.83s19.83,9.68,23.6,13.69l.92-2.68S38,46.8,25.4,44.63Z"/><path class="cls-27" d="M25.47,44.65l8.42-1.11s8.29.61,13.86,10.94l.43,2.24S37.56,47.64,25.47,44.65Z"/><polygon class="cls-28" points="60.45 39.87 51.92 37.43 51.76 38.75 54.37 39.6 60.45 39.87"/><path class="cls-29" d="M44,65.69c-.33.74-2.33.58-4.48-.35s-3.64-2.3-3.31-3.05,2.33-.58,4.48.36S44.28,65,44,65.69Z"/><polygon class="cls-30" points="56.1 39.13 60.45 39.87 56.24 56.17 51.82 55.94 56.1 39.13"/><polygon class="cls-18" points="52.03 38.24 55.11 38.88 50.76 55.36 47.68 54.48 52.03 38.24"/><path class="cls-31" d="M52.39,37.52l-4.62,17.3s-5.21-9.51-14-11.23l2.85-11.05Z"/><path class="cls-32" d="M55.17,34.56,36,28.48l-1.15,3.13c-.14.44,4,2.15,9.32,3.83s9.7,2.68,9.84,2.24c0,0,0-.07,0-.12Z"/><path class="cls-33" d="M55.17,34.56C55,35,50.63,34,45.34,32.32s-9.47-3.4-9.33-3.84,4.54.56,9.84,2.24S55.31,34.12,55.17,34.56Z"/><path class="cls-34" d="M50.62,33.05c-.07.23-2.38-.3-5.16-1.18s-5-1.78-4.9-2S43,30.15,45.73,31,50.7,32.81,50.62,33.05Z"/><path class="cls-35" d="M61.12,5.33l-16-4.6-8,27.68a.21.21,0,0,0,0,.07c-.22.79,3.32,2.48,7.92,3.77s8.5,1.7,8.73.92h0Z"/><path class="cls-36" d="M41.39,70.07c-.4,1.07-2,1.44-3.68.83h0c-1.64-.62-2.63-2-2.23-3.05l2-4.6c.4-1.07,1.78-.7,3.41-.08,0,0,2.46,1.06,2.06,2.13Z"/><path class="cls-37" d="M61.63,6a1.78,1.78,0,0,1-2.19,1.28L45.12,3.54a1.81,1.81,0,0,1-1.28-2.2h0A1.8,1.8,0,0,1,46,.06L60.35,3.82A1.79,1.79,0,0,1,61.63,6Z"/><polygon class="cls-12" points="54.95 38.82 56.1 39.13 51.89 56.02 50.46 55.36 54.95 38.82"/><polygon class="cls-38" points="56.1 39.13 60.45 39.87 56.24 56.17 51.76 55.84 56.1 39.13"/><path class="cls-39" d="M57.36,47.82c-.2,1-.72,1.7-1.16,1.61s-.62-1-.42-1.94.72-1.7,1.16-1.61S57.56,46.84,57.36,47.82Z"/><path class="cls-40" d="M58.67,46.9l-1.39-.55a2.27,2.27,0,0,0-.7,2.81l2-.27Z"/><path class="cls-41" d="M59.22,48c0,.56-.38,1-.74.95s-.59-.51-.54-1.07.38-1,.74-1S59.28,47.39,59.22,48Z"/><path class="cls-42" d="M25.29,52a53,53,0,0,1,5.38,2.62l-4.8,2.82-5.09-6s-.23-.32-.12-.51.54-.17.54-.17S22.06,50.54,25.29,52Z"/><path class="cls-43" d="M24.42,55a2.13,2.13,0,0,1,0,3h0a2.15,2.15,0,0,1-3,0l-1.78-1.73a2.13,2.13,0,0,1-.05-3h0a2.15,2.15,0,0,1,3,0Z"/><polygon class="cls-44" points="21.26 51.45 19.87 52.61 24.48 57.97 26.56 56.92 21.26 51.45"/><path class="cls-45" d="M31.49,55,30.2,58.08s3-.14,7.38,3.84l1.61-2.33a39.8,39.8,0,0,0-4.45-2.84A34.32,34.32,0,0,0,31.49,55Z"/><path class="cls-46" d="M37.54,62.36c-.37.58-2.29,0-4.3-1.26s-3.32-2.79-3-3.37,2.29,0,4.29,1.27S37.91,61.78,37.54,62.36Z"/><path class="cls-47" d="M34.55,59.41c-2.27-1.22-3.71-1.4-4.21-1.15,0,0-.87,6.25-2.7,7.79l5.19,3.21S35.64,63.42,37,62.2A4.89,4.89,0,0,0,34.55,59.41Z"/><path class="cls-48" d="M32.91,69.41c-.42.67-1.95.46-3.4-.47s-2.29-2.23-1.87-2.89,1.95-.45,3.41.48S33.34,68.75,32.91,69.41Z"/><path d="M31.39,68.53c-.18.28-.82.19-1.44-.2s-1-.94-.78-1.22.82-.19,1.43.21S31.56,68.25,31.39,68.53Z"/><path class="cls-49" d="M36.47,74s-1.83.88,22.17,3.6V80H54.83s.64-1.81-1.9-2.17c0,0-11.94-.15-14.56-.69C38.37,77.13,35.53,76.61,36.47,74Z"/><path class="cls-50" d="M55.83,76.8c-.13.54-1.25.11-2.44-.18s-2-.33-1.88-.86,1.2-.74,2.39-.45S56,76.27,55.83,76.8Z"/><path class="cls-51" d="M41.06,89c0,3-5.27,5.5-11.76,5.5S17.54,92,17.54,89s5.26-5.5,11.76-5.5S41.06,85.94,41.06,89Z"/><path class="cls-52" d="M38.48,89.79c0,2.37-4.23,4.28-9.45,4.28s-9.45-1.91-9.45-4.28,4.23-4.27,9.45-4.27S38.48,87.43,38.48,89.79Z"/><polygon class="cls-2" points="41.3 97.88 40.25 103.27 38.62 103.36 39.62 97.11 41.3 97.88"/><polygon class="cls-53" points="42.29 99.24 43.83 99.14 43.38 101.82 42.02 101.73 42.29 99.24"/><path class="cls-54" d="M45,108.34c0-.75-.94-1.36-2.1-1.36s-2.11.61-2.11,1.36.94,1.36,2.11,1.36S45,109.09,45,108.34Z"/><path class="cls-55" d="M54.88,102s-6.39-2-6.72,6.32c0,0,2.37,7.81.47,12.84,0,0,11.14-4.76,17.12-5.85C65.75,115.26,59.63,105.76,54.88,102Z"/><polygon class="cls-56" points="42.52 96.29 42.36 97.08 43.13 96.77 42.52 96.29"/></g></g></g></svg>