<svg xmlns="http://www.w3.org/2000/svg" viewBox="0 0 18.59 11.98"><defs><style>.cls-1{isolation:isolate;}.cls-2{fill:#438aa6;}.cls-3{fill:#4ea1c2;}.cls-4{fill:#ace3ef;}.cls-5{fill:#54aed1;}.cls-6{fill:#5095a5;}.cls-7{opacity:0.4;}.cls-8,.cls-9{fill:#494874;}.cls-9{opacity:0.2;mix-blend-mode:multiply;}.cls-10{fill:#d3d3ea;}.cls-11{fill:#807f9e;}.cls-12{fill:#ea5959;}.cls-13{fill:#fff;}.cls-14{fill:#111;}.cls-15{fill:#ef5050;}</style></defs><title>lab_16</title><g class="cls-1"><g id="Layer_2" data-name="Layer 2"><g id="ампермеьр"><g id="lab_16"><path class="cls-2" d="M4.45,11.88.27,9.39A.55.55,0,0,1,0,8.9L.23.55A.55.55,0,0,1,1,.05l4.13,1.7Z"/><path class="cls-3" d="M5.12,1.79,17.5,1.62,12.71.3A5.8,5.8,0,0,0,11.16.08L.85,0Z"/><path class="cls-4" d="M4.77,11.67a.23.23,0,0,1-.23-.24V3.08A1.25,1.25,0,0,1,5.79,1.83H17a1.25,1.25,0,0,1,1.25,1.25v8.35a.23.23,0,0,1-.23.24Z"/><path class="cls-5" d="M17,2.14a.94.94,0,0,1,.94.94v8.27H4.85V3.08a.94.94,0,0,1,.94-.94H17m0-.62H5.79A1.57,1.57,0,0,0,4.22,3.08v8.35a.55.55,0,0,0,.55.55H18.05a.55.55,0,0,0,.54-.55V3.08A1.56,1.56,0,0,0,17,1.52Z"/><path class="cls-6" d="M16.29,11.36V8.89a1,1,0,0,0-1-1.05H7.66a1,1,0,0,0-1,1.05l0,2.46Z"/><path class="cls-7" d="M9.75,8.52a1,1,0,1,0,.95,1,1,1,0,0,0-.95-1Z"/><path class="cls-8" d="M10.51,9.24h0L10.27,9H9.18L9,9.24h0a1,1,0,0,0,0,.24.82.82,0,0,0,1.64,0A.67.67,0,0,0,10.51,9.24Z"/><path class="cls-9" d="M10.51,9.24h0L10.27,9H9.73V10.3a.82.82,0,0,0,.82-.82.67.67,0,0,0,0-.24Z"/><path class="cls-10" d="M9.73,9.63a.5.5,0,0,1-.5-.5.5.5,0,1,1,1,0A.5.5,0,0,1,9.73,9.63Z"/><path class="cls-11" d="M9.73,8.7a.43.43,0,1,1-.43.43.42.42,0,0,1,.43-.43m0-.15a.58.58,0,1,0,.58.58.58.58,0,0,0-.58-.58Z"/><path class="cls-7" d="M13.33,8.52a1,1,0,1,0,1,1,1,1,0,0,0-1-1Z"/><path class="cls-8" d="M14.1,9.24h0L13.86,9H12.77l-.24.29h0a1,1,0,0,0,0,.24.82.82,0,0,0,1.64,0A1,1,0,0,0,14.1,9.24Z"/><path class="cls-9" d="M14.1,9.24h0L13.86,9h-.54V10.3a.82.82,0,0,0,.82-.82,1,1,0,0,0,0-.24Z"/><path class="cls-12" d="M13.32,9.63a.51.51,0,0,1-.51-.5.51.51,0,1,1,.51.5Z"/><path class="cls-11" d="M13.32,8.7a.43.43,0,1,1-.43.43.42.42,0,0,1,.43-.43m0-.15a.58.58,0,1,0,.58.58.58.58,0,0,0-.58-.58Z"/><path class="cls-13" d="M5.54,3.84C6,4.78,6.57,6.15,6.91,7a10.72,10.72,0,0,1,9,0l1.45-3.24A14.87,14.87,0,0,0,5.54,3.84Z"/><path class="cls-14" d="M7.54,5.81,6.31,4.29l.22,0L7.7,5.77Zm7.76,0-.13,0,1.17-1.53.17,0ZM8.14,5.67l-1-1.56.22,0,1,1.56Zm6.59,0-.17,0,1-1.57.22,0Zm-6-.11L7.92,4l.23,0,.78,1.6Zm5.35,0-.17,0,.78-1.6.22,0ZM9.4,5.46,8.76,3.84l.23,0,.58,1.63Zm4.08,0-.18,0,.58-1.63.23,0ZM10,5.39,9.6,3.75l.24,0,.38,1.65Zm2.79,0h-.17L13,3.73l.23,0Zm-2.14,0-.23-1.66h.23l.18,1.65Zm1.49,0H12l.17-1.66h.24Zm-.83,0,0-1.67h.23l0,1.67h-.18Z"/><polygon class="cls-15" points="12.96 6.07 12.8 6.05 13.2 4.22 12.96 6.07"/><polygon class="cls-15" points="13.36 6.61 12.25 6.42 12.75 4.12 13.65 4.28 13.36 6.61"/><path d="M11.12,6.89l-.19.56h-.24l.61-1.79h.28l.61,1.79h-.25l-.19-.56Zm.59-.18-.18-.52a2.23,2.23,0,0,1-.09-.32h0c0,.1,0,.21-.09.32l-.17.52Z"/></g></g></g></g></svg>