<svg xmlns="http://www.w3.org/2000/svg" xmlns:xlink="http://www.w3.org/1999/xlink" viewBox="0 0 4.93 28.03"><defs><style>.cls-1{isolation:isolate;}.cls-2{fill:url(#linear-gradient);}.cls-11,.cls-3{opacity:0.5;}.cls-13,.cls-15,.cls-3,.cls-4,.cls-9{mix-blend-mode:screen;}.cls-3{fill:url(#linear-gradient-2);}.cls-5{fill:#fff;}.cls-13,.cls-6,.cls-8{opacity:0.8;}.cls-11,.cls-14,.cls-6,.cls-8{mix-blend-mode:multiply;}.cls-6{fill:url(#linear-gradient-3);}.cls-7{fill:#231f20;}.cls-8{fill:url(#linear-gradient-4);}.cls-9{opacity:0.7;}.cls-10,.cls-11{fill:url(#linear-gradient-5);}.cls-12{fill:url(#radial-gradient);}.cls-13{fill:url(#radial-gradient-2);}.cls-14{opacity:0.4;fill:url(#radial-gradient-3);}.cls-15{opacity:0.6;fill:url(#linear-gradient-7);}</style><linearGradient id="linear-gradient" x1="-3177.62" y1="14.02" x2="-3172.7" y2="14.02" gradientTransform="matrix(-1, 0, 0, 1, -3172.7, 0)" gradientUnits="userSpaceOnUse"><stop offset="0" stop-color="#cec8d1"/><stop offset="0.02" stop-color="#d4cfd7"/><stop offset="0.1" stop-color="#e7e4e9"/><stop offset="0.18" stop-color="#f5f3f5"/><stop offset="0.28" stop-color="#fdfcfd"/><stop offset="0.42" stop-color="#fff"/><stop offset="0.53" stop-color="#fbfbfb"/><stop offset="0.64" stop-color="#f0eff0"/><stop offset="0.74" stop-color="#dedbde"/><stop offset="0.85" stop-color="#c5bfc5"/><stop offset="0.95" stop-color="#a49ba4"/><stop offset="1" stop-color="#948994"/></linearGradient><linearGradient id="linear-gradient-2" x1="-3177.22" y1="13.76" x2="-3173.36" y2="13.76" xlink:href="#linear-gradient"/><linearGradient id="linear-gradient-3" x1="-3177.62" y1="14.02" x2="-3172.7" y2="14.02" gradientTransform="matrix(-1, 0, 0, 1, -3172.7, 0)" gradientUnits="userSpaceOnUse"><stop offset="0" stop-color="#c3bcc7"/><stop offset="0.07" stop-color="#d2cdd4"/><stop offset="0.16" stop-color="#dedcdf"/><stop offset="0.26" stop-color="#e6e5e6"/><stop offset="0.42" stop-color="#e8e8e8"/><stop offset="0.54" stop-color="#e4e4e4"/><stop offset="0.65" stop-color="#dad8da"/><stop offset="0.76" stop-color="#c8c4c8"/><stop offset="0.87" stop-color="#afa8af"/><stop offset="0.98" stop-color="#8f848f"/><stop offset="1" stop-color="#8a7e8a"/></linearGradient><linearGradient id="linear-gradient-4" x1="-3176.15" y1="14.36" x2="-3174.14" y2="14.36" xlink:href="#linear-gradient-3"/><linearGradient id="linear-gradient-5" x1="-3175.97" y1="17.51" x2="-3174.3" y2="17.51" gradientTransform="matrix(-1, 0, 0, 1, -3172.7, 0)" gradientUnits="userSpaceOnUse"><stop offset="0" stop-color="#7a281c"/><stop offset="0.04" stop-color="#902917"/><stop offset="0.15" stop-color="#c02c0d"/><stop offset="0.24" stop-color="#e22e06"/><stop offset="0.31" stop-color="#f73002"/><stop offset="0.36" stop-color="#ff3000"/><stop offset="0.44" stop-color="#f82e00"/><stop offset="0.55" stop-color="#e32a01"/><stop offset="0.69" stop-color="#c12302"/><stop offset="0.84" stop-color="#931903"/><stop offset="0.96" stop-color="#6c1104"/></linearGradient><radialGradient id="radial-gradient" cx="-3176.16" cy="25.16" r="1.21" gradientTransform="matrix(-1.07, 0, 0, 1, -3406.18, -0.2)" gradientUnits="userSpaceOnUse"><stop offset="0" stop-color="#ff3200"/><stop offset="0.19" stop-color="#f73a1c"/><stop offset="0.31" stop-color="#f2391b"/><stop offset="0.45" stop-color="#e53418"/><stop offset="0.59" stop-color="#ce2d14"/><stop offset="0.74" stop-color="#ae240e"/><stop offset="0.89" stop-color="#861706"/><stop offset="1" stop-color="#650d00"/></radialGradient><radialGradient id="radial-gradient-2" cx="-3176.37" cy="25.04" r="0.68" xlink:href="#radial-gradient"/><radialGradient id="radial-gradient-3" cx="-3151.13" cy="26.95" r="1.21" gradientTransform="matrix(-1.07, 0, 0, 1, -3379.32, -1.99)" gradientUnits="userSpaceOnUse"><stop offset="0" stop-color="#f73a1c"/><stop offset="0.2" stop-color="#f4391b"/><stop offset="0.36" stop-color="#ea3619"/><stop offset="0.52" stop-color="#d83116"/><stop offset="0.66" stop-color="#c02911"/><stop offset="0.8" stop-color="#a11f0c"/><stop offset="0.93" stop-color="#7b1404"/><stop offset="1" stop-color="#650d00"/></radialGradient><linearGradient id="linear-gradient-7" x1="-3175.86" y1="16.38" x2="-3175.21" y2="16.38" gradientTransform="matrix(-1, 0, 0, 1, -3172.7, 0)" gradientUnits="userSpaceOnUse"><stop offset="0.11"/><stop offset="0.31" stop-color="#87483b"/><stop offset="0.48" stop-color="#ff8870"/><stop offset="0.54" stop-color="#e57660"/><stop offset="0.68" stop-color="#a24836"/><stop offset="0.83" stop-color="#511104"/></linearGradient></defs><title>lab_14</title><g class="cls-1"><g id="Layer_2" data-name="Layer 2"><g id="термометр"><g id="lab_14"><path class="cls-2" d="M0,26.06a2.25,2.25,0,0,0,2.46,2,2.26,2.26,0,0,0,2.47-2V2.14A2.4,2.4,0,0,0,2.46,0,2.39,2.39,0,0,0,0,2.14Z"/><path class="cls-3" d="M.67,25.6A1.76,1.76,0,0,0,2.6,27.14,1.77,1.77,0,0,0,4.53,25.6V2.06A1.88,1.88,0,0,0,2.6.38,1.87,1.87,0,0,0,.67,2.06Z"/><g class="cls-4"><path class="cls-5" d="M4.54,25.6s0-1.64,0-4.11,0-5.74.05-9c0-.82,0-1.64,0-2.44s0-1.61,0-2.37,0-1.52,0-2.22,0-1.37,0-2c0-.31,0-.6,0-.88s0-.28,0-.41v-.1a.34.34,0,0,0,0-.1s0-.07,0-.1,0-.07,0-.1a1.85,1.85,0,0,0-.33-.64A2.09,2.09,0,0,0,3.75.69a1.86,1.86,0,0,0-.84-.3c-.1,0-.18,0-.23,0H2.6v0h.08a1.11,1.11,0,0,1,.23,0,2.54,2.54,0,0,1,.36.1,1.89,1.89,0,0,1,.21.09L3.6.67l.11.08a1.86,1.86,0,0,1,.42.42,1.71,1.71,0,0,1,.3.62.28.28,0,0,1,0,.09.24.24,0,0,1,0,.09v.19c0,.13,0,.27,0,.41s0,.57,0,.88c0,.62,0,1.28,0,2s0,1.45,0,2.22,0,1.56,0,2.37,0,1.62,0,2.44c0,3.28,0,6.56,0,9s0,4.11,0,4.11Z"/></g><path class="cls-6" d="M0,2.14V26.06a2.25,2.25,0,0,0,2.46,2,2.26,2.26,0,0,0,2.47-2V2.14A2.4,2.4,0,0,0,2.46,0,2.39,2.39,0,0,0,0,2.14ZM.28,2A2.17,2.17,0,0,1,2.52,0,2.17,2.17,0,0,1,4.76,2V25.87a2,2,0,0,1-2.24,1.8,2,2,0,0,1-2.24-1.8Z"/><path class="cls-7" d="M.93,22.9H4a.08.08,0,0,0,.08-.07A.09.09,0,0,0,4,22.75H.93a.08.08,0,0,0-.08.08A.07.07,0,0,0,.93,22.9Z"/><path class="cls-7" d="M.93,20.07H4A.08.08,0,0,0,4.12,20,.08.08,0,0,0,4,19.92H.93A.07.07,0,0,0,.85,20,.07.07,0,0,0,.93,20.07Z"/><path class="cls-7" d="M.93,17.24H4a.09.09,0,0,0,.08-.08A.08.08,0,0,0,4,17.09H.93a.07.07,0,0,0-.08.07A.08.08,0,0,0,.93,17.24Z"/><path class="cls-7" d="M.93,14.41H4a.09.09,0,0,0,.08-.08A.08.08,0,0,0,4,14.26H.93a.07.07,0,0,0-.08.07A.08.08,0,0,0,.93,14.41Z"/><path class="cls-7" d="M.93,11.57H4a.07.07,0,1,0,0-.14H.93a.07.07,0,1,0,0,.14Z"/><path class="cls-7" d="M.93,8.74H4a.08.08,0,0,0,.08-.07A.09.09,0,0,0,4,8.59H.93a.08.08,0,0,0-.08.08A.07.07,0,0,0,.93,8.74Z"/><path class="cls-7" d="M.93,5.91H4a.08.08,0,0,0,.08-.07A.09.09,0,0,0,4,5.76H.93a.08.08,0,0,0-.08.08A.07.07,0,0,0,.93,5.91Z"/><path class="cls-7" d="M.93,3.08H4A.08.08,0,0,0,4.12,3,.08.08,0,0,0,4,2.93H.93A.07.07,0,0,0,.85,3,.07.07,0,0,0,.93,3.08Z"/><path class="cls-7" d="M1.1,3.59H3.86s0,0,0,0,0,0,0,0H1.1s0,0,0,0S1.08,3.59,1.1,3.59Z"/><path class="cls-7" d="M1.1,4.16H3.86s0,0,0,0a0,0,0,0,0,0,0H1.1a0,0,0,0,0,0,0S1.08,4.16,1.1,4.16Z"/><path class="cls-7" d="M1.1,4.73H3.86s0,0,0,0a0,0,0,0,0,0,0H1.1a0,0,0,0,0,0,0S1.08,4.73,1.1,4.73Z"/><path class="cls-7" d="M1.1,5.3H3.86a0,0,0,0,0,0,0s0,0,0,0H1.1s0,0,0,0A0,0,0,0,0,1.1,5.3Z"/><path class="cls-7" d="M1.1,6.39H3.86s0,0,0,0a0,0,0,0,0,0,0H1.1a0,0,0,0,0,0,0S1.08,6.39,1.1,6.39Z"/><path class="cls-7" d="M1.1,7H3.86s0,0,0,0a0,0,0,0,0,0,0H1.1a0,0,0,0,0,0,0S1.08,7,1.1,7Z"/><path class="cls-7" d="M1.1,7.53H3.86a0,0,0,0,0,0,0s0,0,0,0H1.1s0,0,0,0A0,0,0,0,0,1.1,7.53Z"/><path class="cls-7" d="M1.1,8.1H3.86a0,0,0,0,0,0,0s0,0,0,0H1.1s0,0,0,0A0,0,0,0,0,1.1,8.1Z"/><path class="cls-7" d="M1.1,9.27H3.86s0,0,0,0a0,0,0,0,0,0,0H1.1a0,0,0,0,0,0,0S1.08,9.27,1.1,9.27Z"/><path class="cls-7" d="M1.1,9.84H3.86s0,0,0,0a0,0,0,0,0,0,0H1.1a0,0,0,0,0,0,0S1.08,9.84,1.1,9.84Z"/><path class="cls-7" d="M1.1,10.41H3.86a0,0,0,0,0,0,0s0,0,0,0H1.1s0,0,0,0A0,0,0,0,0,1.1,10.41Z"/><path class="cls-7" d="M1.1,11H3.86a0,0,0,0,0,0,0s0,0,0,0H1.1s0,0,0,0A0,0,0,0,0,1.1,11Z"/><path class="cls-7" d="M1.1,12.07H3.86s0,0,0,0a0,0,0,0,0,0,0H1.1a0,0,0,0,0,0,0S1.08,12.07,1.1,12.07Z"/><path class="cls-7" d="M1.1,12.64H3.86a0,0,0,0,0,0,0s0,0,0,0H1.1s0,0,0,0A0,0,0,0,0,1.1,12.64Z"/><path class="cls-7" d="M1.1,13.21H3.86a0,0,0,0,0,0,0s0,0,0,0H1.1s0,0,0,0A0,0,0,0,0,1.1,13.21Z"/><path class="cls-7" d="M1.1,13.77H3.86s0,0,0,0,0,0,0,0H1.1s0,0,0,0S1.08,13.77,1.1,13.77Z"/><path class="cls-7" d="M1.1,14.93H3.86s0,0,0,0a0,0,0,0,0,0,0H1.1a0,0,0,0,0,0,0S1.08,14.93,1.1,14.93Z"/><path class="cls-7" d="M1.1,15.5H3.86a0,0,0,0,0,0,0s0,0,0,0H1.1s0,0,0,0A0,0,0,0,0,1.1,15.5Z"/><path class="cls-7" d="M1.1,16.07H3.86a0,0,0,0,0,0,0s0,0,0,0H1.1s0,0,0,0A0,0,0,0,0,1.1,16.07Z"/><path class="cls-7" d="M1.1,16.63H3.86s0,0,0,0a0,0,0,0,0,0,0H1.1a0,0,0,0,0,0,0S1.08,16.63,1.1,16.63Z"/><path class="cls-7" d="M1.1,17.73H3.86a0,0,0,0,0,0,0s0,0,0,0H1.1s0,0,0,0A0,0,0,0,0,1.1,17.73Z"/><path class="cls-7" d="M1.1,18.3H3.86a0,0,0,0,0,0,0s0,0,0,0H1.1s0,0,0,0A0,0,0,0,0,1.1,18.3Z"/><path class="cls-7" d="M1.1,18.86H3.86s0,0,0,0a0,0,0,0,0,0,0H1.1a0,0,0,0,0,0,0S1.08,18.86,1.1,18.86Z"/><path class="cls-7" d="M1.1,19.43H3.86s0,0,0,0a0,0,0,0,0,0,0H1.1a0,0,0,0,0,0,0S1.08,19.43,1.1,19.43Z"/><path class="cls-7" d="M1.1,20.61H3.86a0,0,0,0,0,0,0s0,0,0,0H1.1s0,0,0,0A0,0,0,0,0,1.1,20.61Z"/><path class="cls-7" d="M1.1,21.18H3.86a0,0,0,0,0,0,0s0,0,0,0H1.1s0,0,0,0A0,0,0,0,0,1.1,21.18Z"/><path class="cls-7" d="M1.1,21.74H3.86s0,0,0,0a0,0,0,0,0,0,0H1.1a0,0,0,0,0,0,0S1.08,21.74,1.1,21.74Z"/><path class="cls-7" d="M1.1,22.31H3.86s0,0,0,0a0,0,0,0,0,0,0H1.1a0,0,0,0,0,0,0S1.08,22.31,1.1,22.31Z"/><path class="cls-8" d="M1.39,24.26V2.84a1,1,0,0,1,1-.91,1,1,0,0,1,1,.91V24.26A1.39,1.39,0,0,1,4,25.34a1.5,1.5,0,0,1-1.56,1.44A1.5,1.5,0,0,1,.87,25.34,1.39,1.39,0,0,1,1.39,24.26Z"/><g class="cls-9"><path class="cls-5" d="M3.14,25.87h0l.07-.05,0,0,.06-.05,0-.06.05-.07a.56.56,0,0,0,0-.08.73.73,0,0,0,0-.09l0-.1,0-.1s0-.08,0-.12V25a2,2,0,0,0-.05-.24.91.91,0,0,0-.11-.22l0-.05,0-.05a.6.6,0,0,0-.08-.08.85.85,0,0,0-.19-.14l-.09,0-.1,0H2.82l-.08,0H2.49l.12,0,.12,0,.08,0a.13.13,0,0,1,.08,0l.09,0,.08,0a1.09,1.09,0,0,1,.17.13l.08.08,0,0,0,.05a.78.78,0,0,1,.11.2.59.59,0,0,1,0,.22v.11s0,.07,0,.11a.3.3,0,0,1,0,.1l0,.1a.36.36,0,0,1,0,.09l0,.08-.05.07,0,.06-.05.05,0,0-.06.05,0,0Z"/></g><path class="cls-10" d="M1.56,24.27V9.41a.84.84,0,0,1,.86-.76.85.85,0,0,1,.87.76V24.27a1.18,1.18,0,0,1,.43.9,1.25,1.25,0,0,1-1.3,1.2,1.25,1.25,0,0,1-1.29-1.2A1.18,1.18,0,0,1,1.56,24.27Z"/><path class="cls-11" d="M1.13,25.17a1.25,1.25,0,0,0,1.29,1.2,1.25,1.25,0,0,0,1.3-1.2,1.18,1.18,0,0,0-.43-.9V9.41a.85.85,0,0,0-.87-.76.84.84,0,0,0-.86.76V24.27A1.18,1.18,0,0,0,1.13,25.17ZM2.62,8.88a.51.51,0,0,1,.57.52V24c0,.16-.16-.07-.57-.11s-.57.05-.57-.05V9.4A.52.52,0,0,1,2.62,8.88Z"/><path class="cls-12" d="M1.13,25.17a1.25,1.25,0,0,0,1.29,1.2,1.21,1.21,0,1,0,0-2.41A1.25,1.25,0,0,0,1.13,25.17Z"/><path class="cls-13" d="M1.94,24.93a.7.7,0,0,0,.72.68.68.68,0,1,0,0-1.35A.69.69,0,0,0,1.94,24.93Z"/><path class="cls-14" d="M1.13,25.17a1.25,1.25,0,0,0,1.29,1.2,1.21,1.21,0,1,0,0-2.41A1.25,1.25,0,0,0,1.13,25.17Zm.26-.11a1.08,1.08,0,0,1,1.12-1,1,1,0,1,1,0,2.08A1.08,1.08,0,0,1,1.39,25.06Z"/><path class="cls-15" d="M2.54,23.53a.28.28,0,0,0,.3.28h0a.28.28,0,0,0,.3-.28V9.23A.28.28,0,0,0,2.84,9h0a.28.28,0,0,0-.3.28Z"/><g class="cls-9"><path class="cls-5" d="M2.9,9s0,.33,0,.92,0,1.43,0,2.43,0,2.18,0,3.44,0-4,0-2.67,0,2.69,0,3.95,0,2.43,0,3.44,0,1.84,0,2.43,0,.92,0,.92,0-.33,0-.92,0-1.43,0-2.43,0-2.18,0-3.44,0-2.6,0-3.95S3,17,3,15.74s0-2.43,0-3.44,0-1.84,0-2.43Z"/></g></g></g></g></g></svg>