<svg xmlns="http://www.w3.org/2000/svg" xmlns:xlink="http://www.w3.org/1999/xlink" viewBox="0 0 31.75 26.61"><defs><style>.cls-1{fill:url(#New_Gradient_Swatch_4);}.cls-2{fill:url(#New_Gradient_Swatch_4-2);}.cls-3{fill:url(#New_Gradient_Swatch_2);}.cls-4{fill:url(#New_Gradient_Swatch_2-2);}.cls-5{fill:url(#New_Gradient_Swatch_4-3);}.cls-6{fill:url(#New_Gradient_Swatch_4-4);}.cls-7{fill:url(#New_Gradient_Swatch_4-5);}.cls-8{fill:#003352;}.cls-9{fill:#00243b;}.cls-10{fill:#e8e37b;}.cls-11{fill:#e8b841;}.cls-12{fill:#e15649;}.cls-13{fill:#c3c7cb;}.cls-14{fill:#e0e0e0;}.cls-15{fill:#bc342e;}.cls-16{fill:#7f7c79;}.cls-17{fill:#565656;}.cls-18{fill:#004d7a;}.cls-19{fill:#636363;}</style><linearGradient id="New_Gradient_Swatch_4" y1="19.11" x2="11.5" y2="19.11" gradientUnits="userSpaceOnUse"><stop offset="0.02" stop-color="#244157"/><stop offset="0.5" stop-color="#284961"/><stop offset="0.99" stop-color="#192e3d"/></linearGradient><linearGradient id="New_Gradient_Swatch_4-2" x1="11.5" y1="18" x2="31.75" y2="18" xlink:href="#New_Gradient_Swatch_4"/><linearGradient id="New_Gradient_Swatch_2" y1="9.13" x2="11.5" y2="9.13" gradientUnits="userSpaceOnUse"><stop offset="0.02" stop-color="#8c8c8c"/><stop offset="0.13" stop-color="#848484"/><stop offset="0.5" stop-color="#ebebeb"/><stop offset="0.96" stop-color="#999"/><stop offset="0.99" stop-color="#bfbfbf"/></linearGradient><linearGradient id="New_Gradient_Swatch_2-2" x1="10.63" y1="8.05" x2="31.75" y2="8.05" xlink:href="#New_Gradient_Swatch_2"/><linearGradient id="New_Gradient_Swatch_4-3" x1="6.05" y1="4.03" x2="10.75" y2="4.03" xlink:href="#New_Gradient_Swatch_4"/><linearGradient id="New_Gradient_Swatch_4-4" x1="7.19" y1="1.78" x2="24.07" y2="1.78" xlink:href="#New_Gradient_Swatch_4"/><linearGradient id="New_Gradient_Swatch_4-5" x1="10.63" y1="2.95" x2="24.93" y2="2.95" xlink:href="#New_Gradient_Swatch_4"/></defs><title>lab_19</title><g id="Layer_2" data-name="Layer 2"><g id="набор_инструментов" data-name="набор инструментов"><g id="lab_19"><polygon class="cls-1" points="0 22.27 11.5 26.61 11.5 15.44 0 11.61 0 22.27"/><polygon class="cls-2" points="31.75 19.07 31.75 9.38 11.5 15.44 11.5 26.61 31.75 19.07"/><polygon class="cls-3" points="11.5 15.44 10.63 3.56 7.19 2.82 0 11.61 11.5 15.44"/><polygon class="cls-4" points="31.75 9.38 24.07 0.65 10.63 3.56 11.5 15.44 31.75 9.38"/><polygon class="cls-5" points="10.75 5.25 10.63 3.56 7.19 2.82 6.05 4.2 10.75 5.25"/><polygon class="cls-6" points="7.19 2.82 19.63 0 24.07 0.65 10.63 3.56 7.19 2.82"/><polygon class="cls-7" points="10.75 5.25 24.93 1.63 24.07 0.65 10.63 3.56 10.75 5.25"/><polygon class="cls-8" points="0 22.27 0 21.32 11.5 25.63 11.5 26.61 0 22.27"/><polygon class="cls-9" points="11.5 25.63 31.75 18.47 31.75 19.07 11.5 26.61 11.5 25.63"/><polygon class="cls-8" points="0 12.65 0 11.69 11.5 15.44 11.5 16.43 0 12.65"/><polygon class="cls-9" points="11.5 15.44 31.75 9.38 31.75 9.97 11.5 16.43 11.5 15.44"/><path class="cls-10" d="M25.17,16.51c0,2-1.44,4.15-2.86,4.61s-3-.69-3-2.68a5.5,5.5,0,0,1,3.06-4.69C23.79,13.29,25.17,14.52,25.17,16.51Z"/><path class="cls-11" d="M21.67,21.47A2.42,2.42,0,0,1,20.25,21a3.11,3.11,0,0,1-1.2-2.56,5.78,5.78,0,0,1,3.23-4.93,2.1,2.1,0,0,1,1.94.31,3.25,3.25,0,0,1,1.2,2.69c0,2-1.45,4.33-3,4.85A2.57,2.57,0,0,1,21.67,21.47ZM23,13.9a1.64,1.64,0,0,0-.53.09,5.29,5.29,0,0,0-2.88,4.45,2.62,2.62,0,0,0,1,2.15,1.85,1.85,0,0,0,1.69.29c1.24-.4,2.69-2.4,2.69-4.37a2.77,2.77,0,0,0-1-2.28A1.62,1.62,0,0,0,23,13.9Z"/><path class="cls-12" d="M22.57,17.2c-.14.28-.22.41-.36.69.43.48.63.72,1.07,1.19.07.07.18,0,.25-.08l.16-.26a.28.28,0,0,0,0-.33C23.22,17.94,23,17.69,22.57,17.2Z"/><path class="cls-13" d="M20.77,15.59l-.31.06c0,.15,0,.22,0,.36l.29.13.17-.28C20.89,15.75,20.85,15.7,20.77,15.59Z"/><path class="cls-14" d="M22,16.91A13,13,0,0,0,21,15.86l-.18.28a10.54,10.54,0,0,1,1.07,1Z"/><path class="cls-15" d="M22.54,17.64s0,0,0,0c.36.4.54.61.92,1,0,0,0,.07,0,.1s0,.05-.08,0c-.38-.39-.55-.6-.91-1a.11.11,0,0,1,0-.11s0,0,0,0"/><path class="cls-16" d="M22.67,16.14a.59.59,0,0,0,0-.64c-.25-.28-.39-.2-.68-.1.44-.41.74-.57,1.05-.46a.58.58,0,0,1,.3.22l.2.21a.38.38,0,0,1,.1.22c0,.14,0,.18.06.26s.06,0,.08,0,.06-.05.08,0l.21.2a.18.18,0,0,1,0,.22c-.17.27-.26.4-.42.67-.05.08-.12.1-.16.05l-.18-.2s0-.07,0-.1a.13.13,0,0,0,0-.12c-.08-.08-.1,0-.2,0a.2.2,0,0,1-.18-.07c-.11-.12-.17-.17-.27-.29"/><path class="cls-17" d="M22.67,16.14c-.68,1.28-1,1.92-1.76,3.22-.07.12-.08.27,0,.33l.09.08c.07.07.18,0,.25-.09.74-1.29,1.05-1.93,1.73-3.22Z"/><path class="cls-12" d="M22.27,16.88l-.15-.17c-.15.27-.23.41-.39.67l.17.19C22.05,17.29,22.13,17.16,22.27,16.88Z"/><rect class="cls-18" x="1.28" y="14.22" width="0.84" height="6.75" rx="0.42" ry="0.42"/><rect class="cls-18" x="3.63" y="14.97" width="0.84" height="6.75" rx="0.42" ry="0.42"/><rect class="cls-18" x="6.05" y="15.74" width="0.84" height="6.75" rx="0.42" ry="0.42"/><rect class="cls-18" x="8.78" y="16.7" width="0.84" height="6.75" rx="0.42" ry="0.42"/><path class="cls-19" d="M3.34,11.1a.33.33,0,0,1-.13,0,.26.26,0,0,1-.08-.35L6.54,5.52a.26.26,0,0,1,.35-.07A.26.26,0,0,1,7,5.8L3.55,11A.25.25,0,0,1,3.34,11.1Z"/><path class="cls-19" d="M5.72,11.86l-.1,0a.25.25,0,0,1-.13-.33l2.4-5.67a.24.24,0,0,1,.33-.13A.25.25,0,0,1,8.35,6L6,11.71A.25.25,0,0,1,5.72,11.86Z"/><path class="cls-19" d="M8.69,13h0a.24.24,0,0,1-.22-.27L9.12,6.3a.25.25,0,0,1,.27-.22.24.24,0,0,1,.22.28l-.67,6.42A.26.26,0,0,1,8.69,13Z"/><path class="cls-19" d="M12.28,7a.25.25,0,0,1-.06-.49l12.4-3.25a.26.26,0,0,1,.31.18.27.27,0,0,1-.18.31L12.34,7Z"/><path class="cls-19" d="M12.75,14.1a.25.25,0,0,1-.24-.18.25.25,0,0,1,.17-.31L29,8.76a.25.25,0,0,1,.31.17.24.24,0,0,1-.17.31L12.82,14.09Z"/></g></g></g></svg>