<svg xmlns="http://www.w3.org/2000/svg" viewBox="0 0 25.11 22.88"><defs><style>.cls-1{fill:#95948b;}.cls-2{fill:#5c5b53;}.cls-3{fill:#cac9c5;}.cls-4{fill:#7b796e;}.cls-5{fill:#3d3c37;}.cls-6{fill:#c8d4d9;}.cls-7{fill:#98a7ab;}.cls-8{fill:#747f82;}.cls-9{fill:#d6e3e8;}.cls-10{fill:#a6b6ba;}.cls-11{fill:#616e72;}</style></defs><title>lab_06</title><g id="Layer_2" data-name="Layer 2"><g id="сейф_с_реагентами" data-name="сейф  с реагентами"><g id="lab_06"><path class="cls-1" d="M19.33,20.23,4.87,17.89a1,1,0,0,1-.87-1L4,3.12a1,1,0,0,1,1.14-1L20,3.67a1,1,0,0,1,.93,1.06l-.41,14.5A1,1,0,0,1,19.33,20.23Z"/><polygon class="cls-2" points="13.63 1.25 5.1 2.09 20.97 3.77 21.02 1.99 13.63 1.25"/><path class="cls-3" d="M4.76,5l.09,10.71a1.69,1.69,0,0,0,1.42,1.65l11.9,1.9a1.68,1.68,0,0,0,1.95-1.62l.25-11.09A1.68,1.68,0,0,0,18.9,4.87L6.65,3.35A1.67,1.67,0,0,0,4.76,5Z"/><ellipse class="cls-4" cx="10.54" cy="10.5" rx="2.54" ry="3.75"/><ellipse class="cls-5" cx="10.67" cy="10.46" rx="1.33" ry="2.3"/><path class="cls-1" d="M11.45,10.61c0,1.33-.57,2.17-1.27,2.17s-1.27-.84-1.27-2.17S9.48,8.2,10.18,8.2,11.45,9.28,11.45,10.61Z"/><g id="safe"><path class="cls-6" d="M.62,2.64C5.33,1,4.36,1.34,6.89.42A7.79,7.79,0,0,1,10.47.07C16.11,1.15,18.91,1.56,25.11,3c-2.27,1.14-3.19,1.69-5.27,2.93C11.87,4.37,8.79,3.9.62,2.64Z"/><path class="cls-7" d="M13.77.71c4.15.94,6.74,1.13,11.34,2.26-1.47.8-2.06,1-5.27,3C15,5,12.7,4.12,7.92,3.25,10.6,2.2,11,2,13.77.71Z"/><path class="cls-8" d="M19.81,5.89v.18c-.05,6.45-.08,9.76-.13,16,2.46-1.84,2.92-2.14,4.74-3.66.61-.57.66-1.9.65-2.86.1-5.4,0-7.45.05-12.55C21.53,4.94,23.14,4,19.81,5.89Z"/><path class="cls-9" d="M1.58,18.64C7.7,20,11.09,20.77,18,22a1.54,1.54,0,0,0,1.82-1.62c0-5.33.07-8.14.11-13.62a1.71,1.71,0,0,0-1.27-1.72C11.84,3.87,8.73,3.31,1.77,2.34A1.56,1.56,0,0,0,0,4V16.39A2.31,2.31,0,0,0,1.58,18.64Z"/><path class="cls-10" d="M7.88,3.25C12.34,4,14.49,4.34,19,5.12a1.24,1.24,0,0,1,.91,1.23c-.06,6.18-.08,9.36-.13,15.32a.54.54,0,0,1-.63.56c-4.86-.86-7.25-1.35-11.8-2.32C7.57,13.32,7.68,9.93,7.88,3.25Z"/><path class="cls-11" d="M16.24,22.55l1.78.33c0-.59,0-.88,0-1.47l-1.78-.33C16.25,21.67,16.25,22,16.24,22.55Z"/><path class="cls-11" d="M1.53,19.47l1.59.35c0-.57,0-.86,0-1.44L1.55,18C1.54,18.6,1.54,18.89,1.53,19.47Z"/><path class="cls-11" d="M1,17c.05-5.25.07-7.88.11-13.14a.28.28,0,0,1,.32-.29c6.87,1,10,1.57,16.76,2.76a.79.79,0,0,1,.59.79c-.06,5.43-.09,8.19-.15,13.47a.28.28,0,0,1-.33.29c-7.14-1.29-10.63-2.08-17-3.48A.41.41,0,0,1,1,17ZM18.44,7a.31.31,0,0,0-.23-.31C11.45,5.5,8.33,4.92,1.49,3.92,1.44,9.14,1.41,11.76,1.36,17c6.36,1.38,9.83,2.16,16.92,3.45C18.34,15.16,18.38,12.41,18.44,7Z"/><path class="cls-11" d="M4.23,11a3,3,0,0,0,2.19,3,2,2,0,0,0,2.36-2.18,3,3,0,0,0-2.2-3.05A2.05,2.05,0,0,0,4.23,11Z"/><path class="cls-9" d="M6.69,10.26c0-.4,0-.6,0-1a2.24,2.24,0,0,1,1,.7l-.63.59A1.2,1.2,0,0,0,6.69,10.26Z"/><path class="cls-9" d="M7.52,11.41a1.42,1.42,0,0,0-.17-.55l.64-.6a2.83,2.83,0,0,1,.4,1.31Z"/><path class="cls-9" d="M7.31,12.25a1,1,0,0,0,.2-.48l.87.17a2,2,0,0,1-.48,1.13C7.67,12.74,7.55,12.58,7.31,12.25Z"/><path class="cls-9" d="M5.33,9.52A1.49,1.49,0,0,1,6.4,9.21c0,.39,0,.59,0,1a.79.79,0,0,0-.45.13Z"/><path class="cls-9" d="M5.48,11.39a1.42,1.42,0,0,0,.17.54L5,12.51a2.72,2.72,0,0,1-.4-1.29Z"/><path class="cls-9" d="M6.63,12.59a.78.78,0,0,0,.45-.12c.23.33.35.49.59.82a1.44,1.44,0,0,1-1.07.29C6.61,13.19,6.61,13,6.63,12.59Z"/><path class="cls-9" d="M5.69,10.54a1.09,1.09,0,0,0-.2.48l-.86-.16A1.93,1.93,0,0,1,5.1,9.73C5.33,10.06,5.45,10.22,5.69,10.54Z"/><path class="cls-9" d="M5.87,12.23a1,1,0,0,0,.44.3c0,.4,0,.6,0,1a2.17,2.17,0,0,1-1-.71Z"/><path class="cls-9" d="M5.14,11.14A1.8,1.8,0,0,0,6.45,13a1.23,1.23,0,0,0,1.41-1.31A1.79,1.79,0,0,0,6.55,9.83,1.23,1.23,0,0,0,5.14,11.14Z"/><path class="cls-11" d="M5,11.11A1.35,1.35,0,0,1,6.55,9.68a2,2,0,0,1,1.45,2,1.34,1.34,0,0,1-1.55,1.43A2,2,0,0,1,5,11.11Zm.28.05A1.62,1.62,0,0,0,6.46,12.8a1.09,1.09,0,0,0,1.26-1.17A1.6,1.6,0,0,0,6.54,10,1.1,1.1,0,0,0,5.28,11.16Z"/><path class="cls-11" d="M18.47,11.56l1,.18a.63.63,0,0,0,.73-.68v-.27a1,1,0,0,0-.71-.94l-1-.17a.63.63,0,0,0-.72.68v.27A.93.93,0,0,0,18.47,11.56Z"/><path class="cls-11" d="M18.4,17.72l1,.18a.63.63,0,0,0,.73-.67V17a1,1,0,0,0-.72-.93l-1-.18a.62.62,0,0,0-.72.67v.26A.94.94,0,0,0,18.4,17.72Z"/></g></g></g></g></svg>