<svg xmlns="http://www.w3.org/2000/svg" xmlns:xlink="http://www.w3.org/1999/xlink" viewBox="0 0 18.47 7.19"><defs><style>.cls-1{fill:url(#New_Gradient_Swatch_4);}.cls-2{fill:#305775;}.cls-3{fill:url(#linear-gradient);}.cls-4{fill:url(#New_Gradient_Swatch_3);}.cls-5{fill:url(#radial-gradient);}.cls-6{fill:#212121;}.cls-7{fill:#38c900;}</style><linearGradient id="New_Gradient_Swatch_4" x1="8.93" y1="4.61" x2="18.47" y2="4.61" gradientUnits="userSpaceOnUse"><stop offset="0.02" stop-color="#244157"/><stop offset="0.5" stop-color="#284961"/><stop offset="0.99" stop-color="#192e3d"/></linearGradient><linearGradient id="linear-gradient" x1="1.22" y1="2.49" x2="18.47" y2="2.49" gradientUnits="userSpaceOnUse"><stop offset="0.02" stop-color="#305775"/><stop offset="0.5" stop-color="#2d536e"/><stop offset="0.99" stop-color="#244359"/></linearGradient><linearGradient id="New_Gradient_Swatch_3" x1="5.05" y1="2.35" x2="15.44" y2="2.35" gradientUnits="userSpaceOnUse"><stop offset="0.02" stop-color="#3f3f3f"/><stop offset="0.13" stop-color="#373737"/><stop offset="0.5" stop-color="#9f9f9f"/><stop offset="0.96" stop-color="#4d4d4d"/><stop offset="0.99" stop-color="#727272"/></linearGradient><radialGradient id="radial-gradient" cx="10.24" cy="1.3" r="5.2" gradientTransform="translate(0 0.91) scale(1 0.3)" xlink:href="#New_Gradient_Swatch_3"/></defs><title>lab_13</title><g id="Layer_2" data-name="Layer 2"><g id="электронные_весы" data-name="электронные весы"><g id="lab_13"><polygon class="cls-1" points="8.93 7.19 9.21 6.98 10.12 4.79 18.47 2.03 18.47 4.35 9.24 7.15 8.93 7.19"/><path class="cls-2" d="M8.81,7.18.33,5.34a.43.43,0,0,1-.26-.65L1.22,3l8.9,1.8L9.21,7A.34.34,0,0,1,8.81,7.18Z"/><polygon class="cls-3" points="18.47 2.03 10.12 4.79 1.22 2.99 9.63 0.2 18.47 2.03"/><path class="cls-4" d="M15.44,2.1c0,.71-2.33,1.29-5.2,1.29S5.05,2.81,5.05,2.1V1.3c0,.71,2.33,1.29,5.19,1.29s5.2-.58,5.2-1.29Z"/><ellipse class="cls-5" cx="10.24" cy="1.3" rx="5.2" ry="1.3"/><path class="cls-6" d="M2.22,3.52a.64.64,0,0,0-.66.27l-.68,1L8,6.34A.64.64,0,0,0,8.67,6l.13-.31a.64.64,0,0,0-.46-.86Z"/><path class="cls-7" d="M3.41,5.07l-.68-.18L3.38,4,4,4.13Zm-.27-.33.16,0,.33-.5-.14,0Z"/><path class="cls-7" d="M4.41,5.27l-.69-.18.66-.94L5,4.33Zm-.28-.33.16,0,.33-.5-.14,0Z"/><path class="cls-7" d="M5.35,5.49l-.69-.18.66-.94L6,4.55Zm-.28-.33.16,0,.33-.5-.14,0Z"/><path class="cls-7" d="M6.3,5.75l-.68-.18.65-.94.64.18ZM6,5.42l.16,0L6.52,5l-.14,0Z"/><path class="cls-7" d="M7.19,5.92l-.68-.17.65-.94L7.8,5Zm-.27-.33.16,0,.33-.51-.14,0Z"/></g></g></g></svg>