<svg xmlns="http://www.w3.org/2000/svg" xmlns:xlink="http://www.w3.org/1999/xlink" viewBox="0 0 117.15 96.71"><defs><style>.cls-1{fill:url(#New_Gradient_Swatch_4);}.cls-2{fill:url(#linear-gradient);}.cls-3{fill:url(#New_Gradient_Swatch_4-2);}.cls-4{fill:url(#New_Gradient_Swatch_4-3);}.cls-5{fill:url(#New_Gradient_Swatch_4-4);}.cls-6{fill:#259400;}.cls-7{fill:#df0600;}.cls-8{fill:url(#New_Gradient_Swatch_4-5);}.cls-9{fill:url(#New_Gradient_Swatch_24);}.cls-10{fill:url(#New_Gradient_Swatch_5);}.cls-11{fill:#5377a1;}.cls-12{fill:url(#New_Gradient_Swatch_5-2);}.cls-13{fill:url(#New_Gradient_Swatch_3);}.cls-14{fill:url(#New_Gradient_Swatch_24-2);}.cls-15{fill:url(#New_Gradient_Swatch_25);}.cls-16{fill:url(#New_Gradient_Swatch_3-2);}.cls-17{fill:url(#New_Gradient_Swatch_2);}.cls-18{fill:url(#New_Gradient_Swatch_25-2);}.cls-19{fill:url(#New_Gradient_Swatch_25-3);}.cls-20{fill:url(#New_Gradient_Swatch_25-4);}.cls-21{fill:url(#New_Gradient_Swatch_25-5);}.cls-22{fill:url(#New_Gradient_Swatch_3-3);}.cls-23{fill:url(#New_Gradient_Swatch_25-6);}.cls-24{fill:url(#New_Gradient_Swatch_3-4);}.cls-25{fill:url(#New_Gradient_Swatch_25-7);}.cls-26{fill:url(#New_Gradient_Swatch_3-5);}.cls-27{fill:url(#New_Gradient_Swatch_24-3);}.cls-28{fill:url(#New_Gradient_Swatch_4-6);}.cls-29{fill:url(#linear-gradient-2);}.cls-30{fill:url(#New_Gradient_Swatch_4-7);}.cls-31{fill:url(#New_Gradient_Swatch_4-8);}.cls-32{fill:url(#New_Gradient_Swatch_4-9);}.cls-33{fill:url(#New_Gradient_Swatch_4-10);}.cls-34{fill:url(#New_Gradient_Swatch_24-4);}.cls-35{fill:url(#New_Gradient_Swatch_5-3);}.cls-36{fill:url(#New_Gradient_Swatch_5-4);}.cls-37{fill:url(#New_Gradient_Swatch_3-6);}.cls-38{fill:url(#New_Gradient_Swatch_24-5);}.cls-39{fill:url(#New_Gradient_Swatch_25-8);}.cls-40{fill:url(#New_Gradient_Swatch_3-7);}.cls-41{fill:url(#New_Gradient_Swatch_2-2);}.cls-42{fill:url(#New_Gradient_Swatch_25-9);}.cls-43{fill:url(#New_Gradient_Swatch_25-10);}.cls-44{fill:url(#New_Gradient_Swatch_25-11);}.cls-45{fill:url(#New_Gradient_Swatch_25-12);}.cls-46{fill:url(#New_Gradient_Swatch_3-8);}.cls-47{fill:url(#New_Gradient_Swatch_25-13);}.cls-48{fill:url(#New_Gradient_Swatch_3-9);}.cls-49{fill:url(#New_Gradient_Swatch_25-14);}.cls-50{fill:url(#New_Gradient_Swatch_3-10);}.cls-51{fill:url(#New_Gradient_Swatch_24-6);}</style><linearGradient id="New_Gradient_Swatch_4" x1="54.09" y1="62.77" x2="54.09" y2="56.58" gradientUnits="userSpaceOnUse"><stop offset="0.02" stop-color="#244157"/><stop offset="0.5" stop-color="#284961"/><stop offset="0.99" stop-color="#192e3d"/></linearGradient><linearGradient id="linear-gradient" x1="27.55" y1="68.71" x2="52.23" y2="68.71" gradientTransform="translate(108.27 28.25) rotate(89.52)" gradientUnits="userSpaceOnUse"><stop offset="0.02" stop-color="#42769e"/><stop offset="0.5" stop-color="#284961"/><stop offset="0.99" stop-color="#294961"/></linearGradient><linearGradient id="New_Gradient_Swatch_4-2" x1="39.96" y1="62.77" x2="39.96" y2="58.3" gradientTransform="translate(100.16 20.07) rotate(89.52)" xlink:href="#New_Gradient_Swatch_4"/><linearGradient id="New_Gradient_Swatch_4-3" x1="40.83" y1="58.5" x2="40.83" y2="56.1" xlink:href="#New_Gradient_Swatch_4"/><linearGradient id="New_Gradient_Swatch_4-4" x1="52.13" y1="67.46" x2="55.2" y2="67.46" xlink:href="#New_Gradient_Swatch_4"/><linearGradient id="New_Gradient_Swatch_4-5" x1="136.11" y1="38.08" x2="145.77" y2="29.38" gradientTransform="matrix(-0.71, -0.7, -0.7, 0.71, 142.88, 86.77)" xlink:href="#New_Gradient_Swatch_4"/><linearGradient id="New_Gradient_Swatch_24" x1="126.68" y1="24.35" x2="131.37" y2="19.14" gradientTransform="matrix(-0.91, -0.41, -0.41, 0.91, 161.22, 39.3)" gradientUnits="userSpaceOnUse"><stop offset="0" stop-color="#616b73"/><stop offset="0.09" stop-color="#757c83"/><stop offset="0.16" stop-color="#94979d"/><stop offset="0.3" stop-color="#c2c4cb"/><stop offset="0.68" stop-color="#dfe2e6"/><stop offset="0.88" stop-color="#d3dddd"/><stop offset="1" stop-color="#8a959e"/></linearGradient><linearGradient id="New_Gradient_Swatch_5" x1="84.34" y1="33.78" x2="93.64" y2="33.78" gradientTransform="matrix(-0.97, -0.26, -0.26, 0.97, 162.78, 24.62)" gradientUnits="userSpaceOnUse"><stop offset="0" stop-color="#3e3f3e"/><stop offset="0.5" stop-color="#70726f"/><stop offset="1" stop-color="#212121"/></linearGradient><linearGradient id="New_Gradient_Swatch_5-2" x1="79.86" y1="20.41" x2="96.22" y2="20.41" gradientTransform="matrix(-0.91, -0.41, -0.41, 0.91, 161.22, 39.3)" xlink:href="#New_Gradient_Swatch_5"/><linearGradient id="New_Gradient_Swatch_3" x1="107.64" y1="49.36" x2="121.33" y2="49.36" gradientTransform="matrix(-1, -0.01, -0.01, 1, 157.32, 0.96)" gradientUnits="userSpaceOnUse"><stop offset="0.02" stop-color="#3f3f3f"/><stop offset="0.13" stop-color="#373737"/><stop offset="0.5" stop-color="#9f9f9f"/><stop offset="0.96" stop-color="#4d4d4d"/><stop offset="0.99" stop-color="#727272"/></linearGradient><linearGradient id="New_Gradient_Swatch_24-2" x1="105.55" y1="31.93" x2="95.31" y2="38.84" gradientTransform="matrix(-0.97, -0.26, -0.26, 0.97, 162.78, 24.62)" xlink:href="#New_Gradient_Swatch_24"/><radialGradient id="New_Gradient_Swatch_25" cx="110.67" cy="50.28" r="6.24" gradientTransform="matrix(-0.97, -0.26, -0.26, 0.97, 162.78, 24.62)" gradientUnits="userSpaceOnUse"><stop offset="0.18" stop-color="#fff"/><stop offset="0.35" stop-color="#e2e0e1"/><stop offset="0.65" stop-color="#b6b2b4"/><stop offset="0.87" stop-color="#9b9598"/><stop offset="1" stop-color="#918a8e"/></radialGradient><linearGradient id="New_Gradient_Swatch_3-2" x1="114.27" y1="58.5" x2="114.27" y2="55.68" gradientTransform="matrix(-1, -0.01, -0.01, 1, 157.38, 0.96)" xlink:href="#New_Gradient_Swatch_3"/><linearGradient id="New_Gradient_Swatch_2" x1="104.89" y1="14.64" x2="105.66" y2="23.37" gradientTransform="matrix(-0.91, -0.41, -0.41, 0.91, 161.22, 39.3)" gradientUnits="userSpaceOnUse"><stop offset="0.02" stop-color="#8c8c8c"/><stop offset="0.13" stop-color="#848484"/><stop offset="0.5" stop-color="#ebebeb"/><stop offset="0.96" stop-color="#999"/><stop offset="0.99" stop-color="#bfbfbf"/></linearGradient><radialGradient id="New_Gradient_Swatch_25-2" cx="88.04" cy="20.41" r="4.17" gradientTransform="matrix(-0.91, -0.41, -0.41, 0.91, 161.22, 39.3)" xlink:href="#New_Gradient_Swatch_25"/><radialGradient id="New_Gradient_Swatch_25-3" cx="123.55" cy="17.63" r="4.17" gradientTransform="matrix(-0.91, -0.41, -0.41, 0.91, 161.22, 39.3)" xlink:href="#New_Gradient_Swatch_25"/><radialGradient id="New_Gradient_Swatch_25-4" cx="134.28" cy="26.41" r="3.48" gradientTransform="matrix(-0.91, -0.41, -0.41, 0.91, 161.22, 39.3)" xlink:href="#New_Gradient_Swatch_25"/><radialGradient id="New_Gradient_Swatch_25-5" cx="93.8" cy="41.54" r="2.44" xlink:href="#New_Gradient_Swatch_25"/><linearGradient id="New_Gradient_Swatch_3-3" x1="143.69" y1="38.57" x2="156.7" y2="38.57" gradientTransform="matrix(-0.91, -0.41, -0.41, 0.91, 161.22, 39.3)" xlink:href="#New_Gradient_Swatch_3"/><radialGradient id="New_Gradient_Swatch_25-6" cx="152.59" cy="36.02" r="2.19" gradientTransform="matrix(-0.91, -0.41, -0.41, 0.91, 161.22, 39.3)" xlink:href="#New_Gradient_Swatch_25"/><linearGradient id="New_Gradient_Swatch_3-4" x1="137.75" y1="43.16" x2="152.64" y2="43.16" gradientTransform="matrix(-0.91, -0.41, -0.41, 0.91, 161.22, 39.3)" xlink:href="#New_Gradient_Swatch_3"/><radialGradient id="New_Gradient_Swatch_25-7" cx="142.6" cy="45.51" r="2.19" gradientTransform="matrix(-0.91, -0.41, -0.41, 0.91, 161.22, 39.3)" xlink:href="#New_Gradient_Swatch_25"/><linearGradient id="New_Gradient_Swatch_3-5" x1="135.73" y1="28.51" x2="139.73" y2="32.37" gradientTransform="matrix(-0.71, -0.7, -0.7, 0.71, 142.57, 85.19)" xlink:href="#New_Gradient_Swatch_3"/><linearGradient id="New_Gradient_Swatch_24-3" x1="95.98" y1="36.42" x2="117.99" y2="36.42" gradientTransform="matrix(-0.97, -0.26, -0.26, 0.97, 162.78, 24.62)" xlink:href="#New_Gradient_Swatch_24"/><linearGradient id="New_Gradient_Swatch_4-6" x1="83.92" y1="83.77" x2="83.92" y2="77.14" xlink:href="#New_Gradient_Swatch_4"/><linearGradient id="linear-gradient-2" x1="55.52" y1="90.13" x2="81.93" y2="90.13" gradientTransform="translate(158.28 20.65) rotate(89.52)" xlink:href="#linear-gradient"/><linearGradient id="New_Gradient_Swatch_4-7" x1="68.8" y1="83.77" x2="68.8" y2="78.98" gradientTransform="translate(149.6 11.9) rotate(89.52)" xlink:href="#New_Gradient_Swatch_4"/><linearGradient id="New_Gradient_Swatch_4-8" x1="69.73" y1="79.2" x2="69.73" y2="76.63" xlink:href="#New_Gradient_Swatch_4"/><linearGradient id="New_Gradient_Swatch_4-9" x1="81.82" y1="88.79" x2="85.12" y2="88.79" xlink:href="#New_Gradient_Swatch_4"/><linearGradient id="New_Gradient_Swatch_4-10" x1="95.12" y1="53.43" x2="105.45" y2="44.13" gradientTransform="translate(64.43 -56.82) rotate(45.3)" xlink:href="#New_Gradient_Swatch_4"/><linearGradient id="New_Gradient_Swatch_24-4" x1="85.02" y1="38.75" x2="90.04" y2="33.17" gradientTransform="matrix(1, 0, 0, 1, 0, 0)" xlink:href="#New_Gradient_Swatch_24"/><linearGradient id="New_Gradient_Swatch_5-3" x1="40.02" y1="48.98" x2="49.98" y2="48.98" gradientTransform="matrix(1, 0, 0, 1, 0, 0)" xlink:href="#New_Gradient_Swatch_5"/><linearGradient id="New_Gradient_Swatch_5-4" x1="34.91" y1="34.53" x2="52.42" y2="34.53" gradientTransform="matrix(1, 0, 0, 1, 0, 0)" xlink:href="#New_Gradient_Swatch_5"/><linearGradient id="New_Gradient_Swatch_3-6" x1="61.73" y1="69.42" x2="76.39" y2="69.42" gradientTransform="translate(137.9 -0.22) rotate(89.52)" xlink:href="#New_Gradient_Swatch_3"/><linearGradient id="New_Gradient_Swatch_24-5" x1="62.73" y1="47" x2="51.76" y2="54.39" gradientTransform="matrix(1, 0, 0, 1, 0, 0)" xlink:href="#New_Gradient_Swatch_24"/><radialGradient id="New_Gradient_Swatch_25-8" cx="68.21" cy="66.64" r="6.67" gradientTransform="matrix(1, 0, 0, 1, 0, 0)" xlink:href="#New_Gradient_Swatch_25"/><linearGradient id="New_Gradient_Swatch_3-7" x1="68.83" y1="79.2" x2="68.83" y2="76.18" gradientTransform="translate(145.94 8.21) rotate(89.52)" xlink:href="#New_Gradient_Swatch_3"/><linearGradient id="New_Gradient_Swatch_2-2" x1="61.71" y1="28.35" x2="62.52" y2="37.69" gradientTransform="matrix(1, 0, 0, 1, 0, 0)" xlink:href="#New_Gradient_Swatch_2"/><radialGradient id="New_Gradient_Swatch_25-9" cx="43.67" cy="34.53" r="4.46" gradientTransform="matrix(1, 0, 0, 1, 0, 0)" xlink:href="#New_Gradient_Swatch_25"/><radialGradient id="New_Gradient_Swatch_25-10" cx="81.68" cy="31.55" r="4.46" gradientTransform="matrix(1, 0, 0, 1, 0, 0)" xlink:href="#New_Gradient_Swatch_25"/><radialGradient id="New_Gradient_Swatch_25-11" cx="93.16" cy="40.94" r="3.73" gradientTransform="matrix(1, 0, 0, 1, 0, 0)" xlink:href="#New_Gradient_Swatch_25"/><radialGradient id="New_Gradient_Swatch_25-12" cx="50.15" cy="57.28" r="2.61" gradientTransform="matrix(1, 0, 0, 1, 0, 0)" xlink:href="#New_Gradient_Swatch_25"/><linearGradient id="New_Gradient_Swatch_3-8" x1="103.22" y1="53.96" x2="117.15" y2="53.96" gradientTransform="matrix(1, 0, 0, 1, 0, 0)" xlink:href="#New_Gradient_Swatch_3"/><radialGradient id="New_Gradient_Swatch_25-13" cx="112.75" cy="51.23" r="2.34" gradientTransform="matrix(1, 0, 0, 1, 0, 0)" xlink:href="#New_Gradient_Swatch_25"/><linearGradient id="New_Gradient_Swatch_3-9" x1="96.87" y1="58.87" x2="112.8" y2="58.87" gradientTransform="matrix(1, 0, 0, 1, 0, 0)" xlink:href="#New_Gradient_Swatch_3"/><radialGradient id="New_Gradient_Swatch_25-14" cx="102.06" cy="61.39" r="2.34" gradientTransform="matrix(1, 0, 0, 1, 0, 0)" xlink:href="#New_Gradient_Swatch_25"/><linearGradient id="New_Gradient_Swatch_3-10" x1="94.71" y1="43.19" x2="98.99" y2="47.33" gradientTransform="translate(60.91 -55.42) rotate(45.3)" xlink:href="#New_Gradient_Swatch_3"/><linearGradient id="New_Gradient_Swatch_24-6" x1="52.49" y1="51.81" x2="76.04" y2="51.81" gradientTransform="matrix(1, 0, 0, 1, 0, 0)" xlink:href="#New_Gradient_Swatch_24"/></defs><title>lab_09</title><g id="Layer_2" data-name="Layer 2"><g id="лабораторный_робот" data-name="лабораторный робот"><g id="lab_09"><path class="cls-1" d="M53.94,56.89l-1.81,1.54v4.34l3.47-2.94a1.3,1.3,0,0,0,.45-1v-1A1.28,1.28,0,0,0,53.94,56.89Z"/><rect class="cls-2" x="33.85" y="56.42" width="12.09" height="24.58" transform="translate(-29.15 108.03) rotate(-89.52)"/><rect class="cls-3" x="37.83" y="46.13" width="4.27" height="28.82" rx="2.13" ry="2.13" transform="translate(-20.91 99.99) rotate(-89.52)"/><polygon class="cls-4" points="27.41 58.3 27.5 58.3 52.16 58.5 54.25 56.69 32.16 56.1 27.41 58.3"/><polygon class="cls-5" points="52.13 74.86 55.2 70.24 55.13 60.07 52.17 62.77 52.13 74.86"/><rect class="cls-6" x="45.5" y="68.71" width="4.81" height="4.21" rx="1.13" ry="1.13"/><rect class="cls-7" x="45.5" y="63.63" width="4.81" height="4.21" rx="1.13" ry="1.13"/><rect class="cls-8" x="15.14" y="5.14" width="7.66" height="12.96" rx="3.46" ry="3.46" transform="translate(-2.85 7.27) rotate(-20.22)"/><polygon class="cls-9" points="26.56 4.58 40.89 0.04 39.55 7.82 29.57 10.86 26.56 4.58"/><polygon class="cls-10" points="62.91 39.1 62.1 38.19 72.37 29.04 74.19 29.14 62.91 39.1"/><polygon class="cls-11" points="59.77 42.05 55.55 36.53 57.92 34.8 62.64 38.12 59.77 42.05"/><path class="cls-12" d="M65.16,18.08a8.18,8.18,0,1,1,4.15,10.8A8.19,8.19,0,0,1,65.16,18.08Zm.57.25a7.57,7.57,0,1,0,10-3.83A7.57,7.57,0,0,0,65.73,18.33Z"/><rect class="cls-13" x="35.59" y="42.96" width="13.66" height="12.8" rx="4.53" ry="4.53" transform="translate(-0.41 0.36) rotate(-0.48)"/><polygon class="cls-14" points="69.86 18.31 37.18 41.17 47.26 48.63 76.01 23.92 69.86 18.31"/><path class="cls-15" d="M48.85,45.83a6.24,6.24,0,1,1-4.46-7.61A6.24,6.24,0,0,1,48.85,45.83Z"/><rect class="cls-16" x="32.73" y="55.76" width="19.81" height="2.65" transform="translate(-0.48 0.36) rotate(-0.48)"/><polygon class="cls-17" points="71.91 25.62 39.77 7.98 43.16 0.36 75.3 18 71.91 25.62"/><path class="cls-18" d="M76.45,23.11a4.17,4.17,0,1,1-2.12-5.51A4.17,4.17,0,0,1,76.45,23.11Z"/><path class="cls-19" d="M45.27,5.87A4.17,4.17,0,1,1,43.16.36,4.16,4.16,0,0,1,45.27,5.87Z"/><path class="cls-20" d="M31.25,9.13a3.49,3.49,0,1,1-1.77-4.6A3.48,3.48,0,0,1,31.25,9.13Z"/><path class="cls-21" d="M63.75,40.84a2.44,2.44,0,1,1-1.75-3A2.45,2.45,0,0,1,63.75,40.84Z"/><path class="cls-22" d="M.54,16.76h0a1.53,1.53,0,0,1-.18-2.15l5.8-6.9a1.53,1.53,0,0,1,1.18-.55l8.25.11a1.52,1.52,0,0,1,1.5,1.54h0a1.52,1.52,0,0,1-1.54,1.5l-6.8-.08a1.5,1.5,0,0,0-1.19.54l-4.87,5.8A1.52,1.52,0,0,1,.54,16.76Z"/><path class="cls-23" d="M9.42,9.77A2.19,2.19,0,1,1,8.31,6.88,2.19,2.19,0,0,1,9.42,9.77Z"/><path class="cls-24" d="M2.19,20.4h0a1.51,1.51,0,0,0,1.3,1.72l8.93,1.26A1.52,1.52,0,0,0,13.66,23l6.06-5.6a1.52,1.52,0,0,0,.09-2.15h0a1.53,1.53,0,0,0-2.16-.09l-5,4.62a1.55,1.55,0,0,1-1.25.39l-7.5-1.05A1.52,1.52,0,0,0,2.19,20.4Z"/><path class="cls-25" d="M13.47,19.66a2.19,2.19,0,1,0,1.11,2.89A2.19,2.19,0,0,0,13.47,19.66Z"/><rect class="cls-26" x="20.53" y="2.15" width="5.44" height="15.61" rx="2.72" ry="2.72" transform="matrix(0.94, -0.35, 0.35, 0.94, -2.01, 8.65)"/><polygon class="cls-27" points="61.28 21.51 35.99 41.44 37.18 41.17 39.75 38.84 41.79 38.11 63.93 22.45 61.28 21.51"/><path class="cls-28" d="M83.76,77.47l-1.94,1.65v4.65l3.71-3.15a1.36,1.36,0,0,0,.49-1V78.51A1.37,1.37,0,0,0,83.76,77.47Z"/><rect class="cls-29" x="62.26" y="76.98" width="12.94" height="26.3" transform="translate(-21.97 158.1) rotate(-89.52)"/><rect class="cls-30" x="66.52" y="65.96" width="4.57" height="30.84" rx="2.28" ry="2.28" transform="translate(-13.15 149.49) rotate(-89.52)"/><polygon class="cls-31" points="55.37 78.98 55.46 78.98 81.86 79.2 84.09 77.26 60.46 76.63 55.37 78.98"/><polygon class="cls-32" points="81.82 96.71 85.12 91.76 85.03 80.88 81.87 83.77 81.82 96.71"/><rect class="cls-6" x="74.73" y="90.13" width="5.14" height="4.5" rx="1.13" ry="1.13"/><rect class="cls-7" x="74.73" y="84.68" width="5.14" height="4.5" rx="1.13" ry="1.13"/><rect class="cls-33" x="93.35" y="44.68" width="13.87" height="8.2" rx="3.7" ry="3.7" transform="translate(-4.92 85.76) rotate(-45.3)"/><polygon class="cls-34" points="96.02 38.55 84.07 27.79 81.93 35.96 90.3 43.34 96.02 38.55"/><polygon class="cls-35" points="48.89 55.7 49.98 54.98 41.93 42.66 40.02 42.26 48.89 55.7"/><polygon class="cls-11" points="51.31 59.62 57.21 55.11 55.25 52.65 49.44 54.76 51.31 59.62"/><path class="cls-36" d="M43.6,43.28a8.76,8.76,0,1,1,8.82-8.68A8.77,8.77,0,0,1,43.6,43.28Zm.14-16.85a8.1,8.1,0,1,0,8,8.16A8.1,8.1,0,0,0,43.74,26.43Z"/><rect class="cls-37" x="62.21" y="62.11" width="13.7" height="14.62" rx="4.84" ry="4.84" transform="translate(-0.93 137.9) rotate(-89.52)"/><polygon class="cls-38" points="47.52 32.28 74.89 65.03 62.4 69.92 39.6 36.36 47.52 32.28"/><path class="cls-39" d="M61.53,66.58A6.68,6.68,0,1,0,68.26,60,6.68,6.68,0,0,0,61.53,66.58Z"/><rect class="cls-40" x="67.41" y="67.09" width="2.84" height="21.2" transform="translate(-9.43 145.87) rotate(-89.52)"/><polygon class="cls-41" points="42.52 38.95 81.64 36.02 81.71 27.09 42.59 30.03 42.52 38.95"/><path class="cls-42" d="M39.21,34.49a4.46,4.46,0,1,0,4.5-4.43A4.46,4.46,0,0,0,39.21,34.49Z"/><path class="cls-43" d="M77.21,31.52a4.47,4.47,0,1,0,4.5-4.43A4.47,4.47,0,0,0,77.21,31.52Z"/><path class="cls-44" d="M89.43,40.91a3.73,3.73,0,1,0,3.76-3.69A3.72,3.72,0,0,0,89.43,40.91Z"/><path class="cls-45" d="M47.54,57.26a2.62,2.62,0,1,0,2.63-2.59A2.62,2.62,0,0,0,47.54,57.26Z"/><path class="cls-46" d="M116,62h0a1.63,1.63,0,0,0,1.14-2l-2.59-9.3a1.63,1.63,0,0,0-.91-1.06L105.51,46a1.63,1.63,0,0,0-2.15.84h0A1.63,1.63,0,0,0,104.2,49L110.86,52a1.59,1.59,0,0,1,.91,1L114,60.82A1.63,1.63,0,0,0,116,62Z"/><path class="cls-47" d="M110.41,51.21a2.34,2.34,0,1,0,2.36-2.33A2.34,2.34,0,0,0,110.41,51.21Z"/><path class="cls-48" d="M112.74,64.78h0a1.64,1.64,0,0,1-2,1.1l-9.25-2.74a1.64,1.64,0,0,1-1-.94L97,54.07a1.64,1.64,0,0,1,.87-2.14h0a1.62,1.62,0,0,1,2.13.87l2.82,6.72a1.63,1.63,0,0,0,1,.93l7.78,2.3A1.64,1.64,0,0,1,112.74,64.78Z"/><path class="cls-49" d="M102.08,59.05a2.34,2.34,0,1,1-2.36,2.32A2.34,2.34,0,0,1,102.08,59.05Z"/><rect class="cls-50" x="88.5" y="42.35" width="16.7" height="5.83" rx="2.91" ry="2.91" transform="translate(-3.44 82.27) rotate(-45.3)"/><polygon class="cls-51" points="55.49 37.98 76.04 65.64 74.89 65.03 72.89 61.9 70.99 60.58 52.48 38.22 55.49 37.98"/></g></g></g></svg>