<svg xmlns="http://www.w3.org/2000/svg" xmlns:xlink="http://www.w3.org/1999/xlink" viewBox="0 0 17.91 20.48"><defs><style>.cls-1{fill:none;}.cls-2{fill:#404040;}.cls-3{fill:#4f4f4f;}.cls-4{fill:#a1a1a1;}.cls-5{fill:#787878;}.cls-6{fill:#50a200;}.cls-7{fill:#2e53ff;}.cls-8{fill:#a20048;}.cls-9{fill:#59d400;}.cls-10{fill:url(#New_Gradient_Swatch_5);}.cls-11{fill:url(#New_Gradient_Swatch_5-2);}.cls-12{clip-path:url(#clip-path);}.cls-13{fill:#3e3f3e;}.cls-14{fill:#3f403f;}.cls-15{fill:#404140;}.cls-16{fill:#414241;}.cls-17{fill:#424342;}.cls-18{fill:#434443;}.cls-19{fill:#444544;}.cls-20{fill:#454645;}.cls-21{fill:#464746;}.cls-22{fill:#474847;}.cls-23{fill:#484948;}.cls-24{fill:#494a49;}.cls-25{fill:#4a4b4a;}.cls-26{fill:#4b4c4b;}.cls-27{fill:#4c4d4c;}.cls-28{fill:#4d4e4d;}.cls-29{fill:#4e4f4e;}.cls-30{fill:#4f504f;}.cls-31{fill:#505150;}.cls-32{fill:#515251;}.cls-33{fill:#525352;}.cls-34{fill:#535453;}.cls-35{fill:#545554;}.cls-36{fill:#555655;}.cls-37{fill:#565756;}.cls-38{fill:#575957;}.cls-39{fill:#585a57;}.cls-40{fill:#595b58;}.cls-41{fill:#5a5c59;}.cls-42{fill:#5b5d5a;}.cls-43{fill:#5c5e5b;}.cls-44{fill:#5d5f5c;}.cls-45{fill:#5e605d;}.cls-46{fill:#5f615e;}.cls-47{fill:#60625f;}.cls-48{fill:#616360;}.cls-49{fill:#626461;}.cls-50{fill:#636562;}.cls-51{fill:#646663;}.cls-52{fill:#656764;}.cls-53{fill:#666865;}.cls-54{fill:#676966;}.cls-55{fill:#686a67;}.cls-56{fill:#696b68;}.cls-57{fill:#6a6c69;}.cls-58{fill:#6b6d6a;}.cls-59{fill:#6c6e6b;}.cls-60{fill:#6d6f6c;}.cls-61{fill:#6e706d;}.cls-62{fill:#6f716e;}.cls-63{fill:#70726f;}.cls-64{fill:#5c5e5c;}.cls-65{fill:#5b5d5b;}.cls-66{fill:#5a5c5a;}.cls-67{fill:#595b59;}.cls-68{fill:#585a58;}.cls-69{fill:#565856;}.cls-70{fill:#555755;}.cls-71{fill:#545654;}.cls-72{fill:#535553;}.cls-73{fill:#525452;}.cls-74{fill:#515351;}.cls-75{fill:#505250;}.cls-76{fill:#4f514f;}.cls-77{fill:#4e504e;}.cls-78{fill:#4d4f4d;}.cls-79{fill:#4c4e4c;}.cls-80{fill:#4b4d4b;}.cls-81{fill:#4a4c4a;}.cls-82{fill:#494b49;}.cls-83{fill:#494a48;}.cls-84{fill:#484847;}.cls-85{fill:#474746;}.cls-86{fill:#464645;}.cls-87{fill:#454544;}.cls-88{fill:#444443;}.cls-89{fill:#434342;}.cls-90{fill:#424241;}.cls-91{fill:#414140;}.cls-92{fill:#40403f;}.cls-93{fill:#3f3f3e;}.cls-94{fill:#3e3e3d;}.cls-95{fill:#3d3d3c;}.cls-96{fill:#3c3c3b;}.cls-97{fill:#3b3b3a;}.cls-98{fill:#3a3a39;}.cls-99{fill:#393938;}.cls-100{fill:#383837;}.cls-101{fill:#373736;}.cls-102{fill:#363635;}.cls-103{fill:#353535;}.cls-104{fill:#343434;}.cls-105{fill:#333;}.cls-106{fill:#323232;}.cls-107{fill:#313131;}.cls-108{fill:#303030;}.cls-109{fill:#2f2f2f;}.cls-110{fill:#2e2e2e;}.cls-111{fill:#2d2d2d;}.cls-112{fill:#2c2c2c;}.cls-113{fill:#2b2b2b;}.cls-114{fill:#2a2a2a;}.cls-115{fill:#292929;}.cls-116{fill:#282828;}.cls-117{fill:#272727;}.cls-118{fill:#262626;}.cls-119{fill:#252525;}.cls-120{fill:#242424;}.cls-121{fill:#232323;}.cls-122{fill:#222;}.cls-123{fill:#212121;}.cls-124{fill:url(#New_Gradient_Swatch_5-3);}.cls-125{fill:url(#New_Gradient_Swatch_5-4);}.cls-126{fill:url(#New_Gradient_Swatch_5-5);}.cls-127{fill:url(#New_Gradient_Swatch_5-6);}.cls-128{fill:url(#New_Gradient_Swatch_5-7);}.cls-129{fill:url(#New_Gradient_Swatch_5-8);}</style><linearGradient id="New_Gradient_Swatch_5" x1="5.27" y1="5.41" x2="15.04" y2="5.41" gradientUnits="userSpaceOnUse"><stop offset="0" stop-color="#3e3f3e"/><stop offset="0.5" stop-color="#70726f"/><stop offset="1" stop-color="#212121"/></linearGradient><linearGradient id="New_Gradient_Swatch_5-2" x1="10.1" y1="10.16" x2="11.1" y2="10.16" xlink:href="#New_Gradient_Swatch_5"/><clipPath id="clip-path"><ellipse class="cls-1" cx="5.47" cy="8.35" rx="2.29" ry="1.58"/></clipPath><linearGradient id="New_Gradient_Swatch_5-3" x1="3.99" y1="9.83" x2="6.95" y2="6.87" xlink:href="#New_Gradient_Swatch_5"/><linearGradient id="New_Gradient_Swatch_5-4" x1="15.05" y1="4.53" x2="15.05" y2="4.28" xlink:href="#New_Gradient_Swatch_5"/><linearGradient id="New_Gradient_Swatch_5-5" x1="11.18" y1="3.8" x2="11.18" y2="3.64" gradientTransform="translate(16.77 -7.71) rotate(90)" xlink:href="#New_Gradient_Swatch_5"/><linearGradient id="New_Gradient_Swatch_5-6" x1="12.79" y1="-0.28" x2="12.79" y2="-0.44" gradientTransform="translate(16.77 -7.71) rotate(90)" xlink:href="#New_Gradient_Swatch_5"/><linearGradient id="New_Gradient_Swatch_5-7" x1="12.68" y1="2.44" x2="13.47" y2="2.44" xlink:href="#New_Gradient_Swatch_5"/><linearGradient id="New_Gradient_Swatch_5-8" x1="16.38" y1="5.69" x2="17.91" y2="5.69" xlink:href="#New_Gradient_Swatch_5"/></defs><title>lab_21</title><g id="Layer_2" data-name="Layer 2"><g id="анализатор_влажности" data-name="анализатор влажности"><g id="lab_21"><path class="cls-2" d="M0,10.32V19.8a.7.7,0,0,0,.72.68H11.48a.69.69,0,0,0,.72-.7l-.06-1.73a.69.69,0,0,0-.61-.65l-6.26-.9a.71.71,0,0,1-.61-.67L4.57,9.92a.7.7,0,0,0-.81-.67L.63,9.64A.7.7,0,0,0,0,10.32Z"/><path class="cls-3" d="M16.81,20.48H11.56a.74.74,0,0,1-.8-.62l0-1.42a.72.72,0,0,1,.79-.67h5.31a.73.73,0,0,1,.79.65v1.42A.73.73,0,0,1,16.81,20.48Z"/><polygon class="cls-4" points="3.98 16.73 9.7 16.64 16.8 17.77 10.82 17.77 3.98 16.73"/><path class="cls-5" d="M4.26,9.21l5.24.48a.67.67,0,0,1,.6.67L10,16.17a.66.66,0,0,1-.66.64h-5a.65.65,0,0,1-.66-.64L3.54,9.88A.66.66,0,0,1,4.26,9.21Z"/><ellipse class="cls-6" cx="4.85" cy="11.73" rx="0.27" ry="1.06"/><ellipse class="cls-7" cx="5.71" cy="11.77" rx="0.24" ry="0.97"/><ellipse class="cls-8" cx="6.7" cy="11.77" rx="0.25" ry="0.99"/><rect class="cls-3" x="0.52" y="10.67" width="2.5" height="5.39" rx="0.51" ry="0.51"/><rect class="cls-9" x="1" y="11.18" width="1.44" height="0.5" transform="translate(-0.16 0.02) rotate(-0.78)"/><rect class="cls-9" x="1" y="12.11" width="1.44" height="0.5" transform="translate(-0.17 0.02) rotate(-0.78)"/><rect class="cls-9" x="1" y="13.07" width="1.44" height="0.5" transform="translate(-0.18 0.02) rotate(-0.78)"/><rect class="cls-9" x="1" y="14" width="1.44" height="0.5" transform="translate(-0.19 0.02) rotate(-0.78)"/><rect class="cls-9" x="1" y="14.87" width="1.44" height="0.5" transform="translate(-0.21 0.02) rotate(-0.78)"/><path class="cls-10" d="M5.27,10.82V6.56a.25.25,0,0,1,.25-.25.25.25,0,0,1,.25.25v3.75l8.77-.18V.25A.25.25,0,0,1,14.79,0,.25.25,0,0,1,15,.25V10.62Z"/><path class="cls-11" d="M10.6,17.37a.5.5,0,0,1-.5-.5V3.44a.5.5,0,1,1,1,0V16.87A.5.5,0,0,1,10.6,17.37Z"/><g class="cls-12"><path class="cls-13" d="M3.18,6.77v0Z"/><rect class="cls-13" x="3.18" y="6.77" width="0.04" height="3.17"/><rect class="cls-14" x="3.22" y="6.77" width="0.04" height="3.17"/><rect class="cls-15" x="3.27" y="6.77" width="0.04" height="3.17"/><rect class="cls-16" x="3.31" y="6.77" width="0.04" height="3.17"/><rect class="cls-17" x="3.36" y="6.77" width="0.04" height="3.17"/><rect class="cls-18" x="3.4" y="6.77" width="0.04" height="3.17"/><rect class="cls-19" x="3.45" y="6.77" width="0.04" height="3.17"/><rect class="cls-20" x="3.49" y="6.77" width="0.04" height="3.17"/><rect class="cls-21" x="3.54" y="6.77" width="0.04" height="3.17"/><rect class="cls-22" x="3.58" y="6.77" width="0.04" height="3.17"/><rect class="cls-23" x="3.63" y="6.77" width="0.04" height="3.17"/><rect class="cls-24" x="3.67" y="6.77" width="0.04" height="3.17"/><rect class="cls-25" x="3.72" y="6.77" width="0.04" height="3.17"/><rect class="cls-26" x="3.76" y="6.77" width="0.04" height="3.17"/><rect class="cls-27" x="3.81" y="6.77" width="0.04" height="3.17"/><rect class="cls-28" x="3.85" y="6.77" width="0.04" height="3.17"/><rect class="cls-29" x="3.9" y="6.77" width="0.04" height="3.17"/><rect class="cls-30" x="3.94" y="6.77" width="0.04" height="3.17"/><rect class="cls-31" x="3.99" y="6.77" width="0.04" height="3.17"/><rect class="cls-32" x="4.03" y="6.77" width="0.04" height="3.17"/><rect class="cls-33" x="4.08" y="6.77" width="0.04" height="3.17"/><rect class="cls-34" x="4.12" y="6.77" width="0.04" height="3.17"/><rect class="cls-35" x="4.17" y="6.77" width="0.04" height="3.17"/><rect class="cls-36" x="4.21" y="6.77" width="0.04" height="3.17"/><rect class="cls-37" x="4.26" y="6.77" width="0.04" height="3.17"/><rect class="cls-38" x="4.3" y="6.77" width="0.04" height="3.17"/><rect class="cls-39" x="4.35" y="6.77" width="0.04" height="3.17"/><rect class="cls-40" x="4.39" y="6.77" width="0.04" height="3.17"/><rect class="cls-41" x="4.44" y="6.77" width="0.04" height="3.17"/><rect class="cls-42" x="4.48" y="6.77" width="0.04" height="3.17"/><rect class="cls-43" x="4.53" y="6.77" width="0.04" height="3.17"/><rect class="cls-44" x="4.57" y="6.77" width="0.04" height="3.17"/><rect class="cls-45" x="4.62" y="6.77" width="0.04" height="3.17"/><rect class="cls-46" x="4.66" y="6.77" width="0.04" height="3.17"/><rect class="cls-47" x="4.71" y="6.77" width="0.04" height="3.17"/><rect class="cls-48" x="4.75" y="6.77" width="0.04" height="3.17"/><rect class="cls-49" x="4.8" y="6.77" width="0.04" height="3.17"/><rect class="cls-50" x="4.84" y="6.77" width="0.04" height="3.17"/><rect class="cls-51" x="4.89" y="6.77" width="0.04" height="3.17"/><rect class="cls-52" x="4.93" y="6.77" width="0.04" height="3.17"/><rect class="cls-53" x="4.98" y="6.77" width="0.04" height="3.17"/><rect class="cls-54" x="5.02" y="6.77" width="0.04" height="3.17"/><rect class="cls-55" x="5.07" y="6.77" width="0.04" height="3.17"/><rect class="cls-56" x="5.11" y="6.77" width="0.04" height="3.17"/><rect class="cls-57" x="5.16" y="6.77" width="0.04" height="3.17"/><rect class="cls-58" x="5.2" y="6.77" width="0.04" height="3.17"/><rect class="cls-59" x="5.25" y="6.77" width="0.04" height="3.17"/><rect class="cls-60" x="5.29" y="6.77" width="0.04" height="3.17"/><rect class="cls-61" x="5.34" y="6.77" width="0.04" height="3.17"/><rect class="cls-62" x="5.38" y="6.77" width="0.04" height="3.17"/><rect class="cls-63" x="5.43" y="6.77" width="0.04" height="3.17"/><rect class="cls-63" x="5.47" y="6.77" width="0.03" height="3.17"/><rect class="cls-62" x="5.5" y="6.77" width="0.03" height="3.17"/><rect class="cls-61" x="5.53" y="6.77" width="0.03" height="3.17"/><rect class="cls-60" x="5.56" y="6.77" width="0.03" height="3.17"/><rect class="cls-59" x="5.58" y="6.77" width="0.03" height="3.17"/><rect class="cls-58" x="5.61" y="6.77" width="0.03" height="3.17"/><rect class="cls-57" x="5.64" y="6.77" width="0.03" height="3.17"/><rect class="cls-56" x="5.67" y="6.77" width="0.03" height="3.17"/><rect class="cls-55" x="5.7" y="6.77" width="0.03" height="3.17"/><rect class="cls-54" x="5.73" y="6.77" width="0.03" height="3.17"/><rect class="cls-53" x="5.75" y="6.77" width="0.03" height="3.17"/><rect class="cls-52" x="5.78" y="6.77" width="0.03" height="3.17"/><rect class="cls-51" x="5.81" y="6.77" width="0.03" height="3.17"/><rect class="cls-50" x="5.84" y="6.77" width="0.03" height="3.17"/><rect class="cls-49" x="5.87" y="6.77" width="0.03" height="3.17"/><rect class="cls-48" x="5.9" y="6.77" width="0.03" height="3.17"/><rect class="cls-47" x="5.92" y="6.77" width="0.03" height="3.17"/><rect class="cls-46" x="5.95" y="6.77" width="0.03" height="3.17"/><rect class="cls-45" x="5.98" y="6.77" width="0.03" height="3.17"/><rect class="cls-44" x="6.01" y="6.77" width="0.03" height="3.17"/><rect class="cls-64" x="6.04" y="6.77" width="0.03" height="3.17"/><rect class="cls-65" x="6.07" y="6.77" width="0.03" height="3.17"/><rect class="cls-66" x="6.09" y="6.77" width="0.03" height="3.17"/><rect class="cls-67" x="6.12" y="6.77" width="0.03" height="3.17"/><rect class="cls-68" x="6.15" y="6.77" width="0.03" height="3.17"/><rect class="cls-38" x="6.18" y="6.77" width="0.03" height="3.17"/><rect class="cls-69" x="6.21" y="6.77" width="0.03" height="3.17"/><rect class="cls-70" x="6.24" y="6.77" width="0.03" height="3.17"/><rect class="cls-71" x="6.26" y="6.77" width="0.03" height="3.17"/><rect class="cls-72" x="6.29" y="6.77" width="0.03" height="3.17"/><rect class="cls-73" x="6.32" y="6.77" width="0.03" height="3.17"/><rect class="cls-74" x="6.35" y="6.77" width="0.03" height="3.17"/><rect class="cls-75" x="6.38" y="6.77" width="0.03" height="3.17"/><rect class="cls-76" x="6.4" y="6.77" width="0.03" height="3.17"/><rect class="cls-77" x="6.43" y="6.77" width="0.03" height="3.17"/><rect class="cls-78" x="6.46" y="6.77" width="0.03" height="3.17"/><rect class="cls-79" x="6.49" y="6.77" width="0.03" height="3.17"/><rect class="cls-80" x="6.52" y="6.77" width="0.03" height="3.17"/><rect class="cls-81" x="6.55" y="6.77" width="0.03" height="3.17"/><rect class="cls-82" x="6.57" y="6.77" width="0.03" height="3.17"/><rect class="cls-83" x="6.6" y="6.77" width="0.03" height="3.17"/><rect class="cls-84" x="6.63" y="6.77" width="0.03" height="3.17"/><rect class="cls-85" x="6.66" y="6.77" width="0.03" height="3.17"/><rect class="cls-86" x="6.69" y="6.77" width="0.03" height="3.17"/><rect class="cls-87" x="6.72" y="6.77" width="0.03" height="3.17"/><rect class="cls-88" x="6.74" y="6.77" width="0.03" height="3.17"/><rect class="cls-89" x="6.77" y="6.77" width="0.03" height="3.17"/><rect class="cls-90" x="6.8" y="6.77" width="0.03" height="3.17"/><rect class="cls-91" x="6.83" y="6.77" width="0.03" height="3.17"/><rect class="cls-92" x="6.86" y="6.77" width="0.03" height="3.17"/><rect class="cls-93" x="6.89" y="6.77" width="0.03" height="3.17"/><rect class="cls-94" x="6.91" y="6.77" width="0.03" height="3.17"/><rect class="cls-95" x="6.94" y="6.77" width="0.03" height="3.17"/><rect class="cls-96" x="6.97" y="6.77" width="0.03" height="3.17"/><rect class="cls-97" x="7" y="6.77" width="0.03" height="3.17"/><rect class="cls-98" x="7.03" y="6.77" width="0.03" height="3.17"/><rect class="cls-99" x="7.06" y="6.77" width="0.03" height="3.17"/><rect class="cls-100" x="7.08" y="6.77" width="0.03" height="3.17"/><rect class="cls-101" x="7.11" y="6.77" width="0.03" height="3.17"/><rect class="cls-102" x="7.14" y="6.77" width="0.03" height="3.17"/><rect class="cls-103" x="7.17" y="6.77" width="0.03" height="3.17"/><rect class="cls-104" x="7.2" y="6.77" width="0.03" height="3.17"/><rect class="cls-105" x="7.23" y="6.77" width="0.03" height="3.17"/><rect class="cls-106" x="7.25" y="6.77" width="0.03" height="3.17"/><rect class="cls-107" x="7.28" y="6.77" width="0.03" height="3.17"/><rect class="cls-108" x="7.31" y="6.77" width="0.03" height="3.17"/><rect class="cls-109" x="7.34" y="6.77" width="0.03" height="3.17"/><rect class="cls-110" x="7.37" y="6.77" width="0.03" height="3.17"/><rect class="cls-111" x="7.4" y="6.77" width="0.03" height="3.17"/><rect class="cls-112" x="7.42" y="6.77" width="0.03" height="3.17"/><rect class="cls-113" x="7.45" y="6.77" width="0.03" height="3.17"/><rect class="cls-114" x="7.48" y="6.77" width="0.03" height="3.17"/><rect class="cls-115" x="7.51" y="6.77" width="0.03" height="3.17"/><rect class="cls-116" x="7.54" y="6.77" width="0.03" height="3.17"/><rect class="cls-117" x="7.56" y="6.77" width="0.03" height="3.17"/><rect class="cls-118" x="7.59" y="6.77" width="0.03" height="3.17"/><rect class="cls-119" x="7.62" y="6.77" width="0.03" height="3.17"/><rect class="cls-120" x="7.65" y="6.77" width="0.03" height="3.17"/><rect class="cls-121" x="7.68" y="6.77" width="0.03" height="3.17"/><rect class="cls-122" x="7.71" y="6.77" width="0.03" height="3.17"/><rect class="cls-123" x="7.73" y="6.77" width="0.03" height="3.17"/><path class="cls-123" d="M7.76,9.94v0Z"/></g><path class="cls-124" d="M5.47,10.06c-1.33,0-2.42-.76-2.42-1.71s1.09-1.7,2.42-1.7,2.42.76,2.42,1.7S6.8,10.06,5.47,10.06Zm0-3.16c-1.19,0-2.17.65-2.17,1.45s1,1.46,2.17,1.46,2.17-.65,2.17-1.46S6.67,6.9,5.47,6.9Z"/><path class="cls-125" d="M17.64,4.53H12.47a.12.12,0,0,1-.13-.12.13.13,0,0,1,.13-.13h5.17a.13.13,0,0,1,.13.13A.12.12,0,0,1,17.64,4.53Z"/><path class="cls-126" d="M13,5.17V1.78a.08.08,0,0,1,.08-.08.08.08,0,0,1,.09.08V5.17a.09.09,0,0,1-.09.08A.09.09,0,0,1,13,5.17Z"/><path class="cls-127" d="M17.05,6.78V3.39a.09.09,0,0,1,.08-.09.08.08,0,0,1,.08.09V6.78a.08.08,0,0,1-.08.08A.09.09,0,0,1,17.05,6.78Z"/><polygon class="cls-128" points="13.08 2.9 12.68 2.67 12.68 2.21 13.08 1.98 13.47 2.21 13.47 2.67 13.08 2.9"/><polygon class="cls-129" points="17.15 6.57 16.38 6.13 16.38 5.25 17.15 4.8 17.91 5.25 17.91 6.13 17.15 6.57"/></g></g></g></svg>