<svg xmlns="http://www.w3.org/2000/svg" xmlns:xlink="http://www.w3.org/1999/xlink" viewBox="0 0 37.89 26.49"><defs><style>.cls-1{fill:#9e9e9e;}.cls-2{fill:#b8b8b8;}.cls-3{fill:#d9d9d9;}.cls-4{fill:#919191;}.cls-5{fill:#0f0f0f;}.cls-6{fill:url(#linear-gradient);}.cls-7{fill:url(#linear-gradient-2);}.cls-8{fill:#1f1f1f;}.cls-9{opacity:0.6;}.cls-10{fill:#fff;}.cls-11{opacity:0.05;}.cls-12{fill:url(#linear-gradient-3);}.cls-13{fill:url(#linear-gradient-4);}.cls-14{fill:url(#linear-gradient-5);}.cls-15{fill:#acacac;}.cls-16{fill:url(#linear-gradient-6);}.cls-17{fill:gray;}.cls-18{fill:url(#radial-gradient);}.cls-19{fill:#909090;}.cls-20{fill:#a0a0a0;}.cls-21{fill:#cdcecf;}.cls-22{fill:#b2b2b2;}.cls-23{fill:#c1c1c1;}.cls-24{fill:#757676;}.cls-25{fill:#6f7070;}.cls-26{fill:#949494;}</style><linearGradient id="linear-gradient" x1="4.06" y1="23.81" x2="17.81" y2="23.81" gradientUnits="userSpaceOnUse"><stop offset="0.21" stop-color="#b9bbbd"/><stop offset="0.32" stop-color="#bbbdbf"/><stop offset="0.37" stop-color="#c2c3c5"/><stop offset="0.4" stop-color="#cdcfd0"/><stop offset="0.42" stop-color="#dedfe0"/><stop offset="0.44" stop-color="#f4f4f5"/><stop offset="0.45" stop-color="#fff"/><stop offset="0.46" stop-color="#e8e8e8"/><stop offset="0.49" stop-color="#d2d2d2"/><stop offset="0.51" stop-color="#c1c1c1"/><stop offset="0.55" stop-color="#b6b6b6"/><stop offset="0.59" stop-color="#afafaf"/><stop offset="0.72" stop-color="#adadad"/></linearGradient><linearGradient id="linear-gradient-2" x1="10.93" y1="22.39" x2="10.95" y2="23.56" gradientUnits="userSpaceOnUse"><stop offset="0" stop-color="#979a9c"/><stop offset="0.23" stop-color="#9b9ea0"/><stop offset="0.45" stop-color="#a7a9ab"/><stop offset="0.68" stop-color="#bbbdbe"/><stop offset="0.9" stop-color="#d7d7d8"/><stop offset="1" stop-color="#e6e6e6"/></linearGradient><linearGradient id="linear-gradient-3" x1="11.39" y1="24.74" x2="15.51" y2="24.74" gradientUnits="userSpaceOnUse"><stop offset="0" stop-color="#b9bbbd"/><stop offset="0.1" stop-color="#caccce"/><stop offset="0.24" stop-color="#dcddde"/><stop offset="0.34" stop-color="#e2e3e4"/><stop offset="0.62" stop-color="#cecfd0"/><stop offset="1" stop-color="#adadad"/></linearGradient><linearGradient id="linear-gradient-4" x1="11.39" y1="25.68" x2="15.51" y2="25.68" xlink:href="#linear-gradient-3"/><linearGradient id="linear-gradient-5" x1="11.39" y1="23.92" x2="15.51" y2="23.92" gradientUnits="userSpaceOnUse"><stop offset="0" stop-color="#bcbec0"/><stop offset="0.22" stop-color="#bec0c2"/><stop offset="0.3" stop-color="#c5c6c8"/><stop offset="0.35" stop-color="#d0d2d3"/><stop offset="0.4" stop-color="#e1e2e3"/><stop offset="0.44" stop-color="#f7f7f8"/><stop offset="0.45" stop-color="#fff"/><stop offset="0.55" stop-color="#f9f9f9"/><stop offset="0.69" stop-color="#e8e8e8"/><stop offset="0.85" stop-color="#cdcdcd"/><stop offset="1" stop-color="#adadad"/></linearGradient><linearGradient id="linear-gradient-6" x1="35.65" y1="23.55" x2="35.64" y2="23.74" gradientUnits="userSpaceOnUse"><stop offset="0" stop-color="#afb1b4"/><stop offset="0.33" stop-color="#a1a2a5"/><stop offset="0.96" stop-color="#7d7d7d"/><stop offset="1" stop-color="#7a7a7a"/></linearGradient><radialGradient id="radial-gradient" cx="36.15" cy="22.62" r="1.62" gradientUnits="userSpaceOnUse"><stop offset="0" stop-color="#e2e3e4"/><stop offset="0.34" stop-color="#d3d4d5"/><stop offset="1" stop-color="#adadad"/></radialGradient></defs><title>lab_15</title><g id="Layer_2" data-name="Layer 2"><g id="суперкомпьютер"><g id="lab_15"><path class="cls-1" d="M12.55,23.55h0a.49.49,0,0,1-.22-.65L14,19.61l1.07.05L13.2,23.33A.49.49,0,0,1,12.55,23.55Z" transform="translate(0)"/><path class="cls-2" d="M12.56,22.56h.75a.52.52,0,0,1,.52.52v0a.52.52,0,0,1-.52.52h-.75a0,0,0,0,1,0,0v-1A0,0,0,0,1,12.56,22.56Z"/><path class="cls-3" d="M12.14,23.43h0c-.12-.05-.11-.29,0-.53l1.63-3.29.61-.18L12.56,23.1C12.44,23.34,12.25,23.49,12.14,23.43Z" transform="translate(0)"/><path class="cls-4" d="M12.14,23.43h0s0-.22.17-.45l1.63-3.29.29-.34L12.4,23C12.28,23.26,12.17,23.45,12.14,23.43Z" transform="translate(0)"/><path class="cls-5" d="M10.09,23.76l-6-.68v1.2l6,.68a.91.91,0,0,0,.33,0l7.39-.5v-1.2l-7.39.5Z" transform="translate(0)"/><path class="cls-6" d="M10.42,23.55h-.33l-6-.68v1.2l6,.68h.33l7.39-.5v-1.2Z" transform="translate(0)"/><path class="cls-5" d="M11.85,22.37l-7.79.5V23l6,.68h.33l7.39-.5v-.09Z" transform="translate(0)"/><path class="cls-7" d="M11.85,22.3l-7.79.5v.09l6,.68a.91.91,0,0,0,.33,0l7.39-.5V23Z" transform="translate(0)"/><path class="cls-1" d="M3.58,23.9h0a.48.48,0,0,1-.22-.64L5,20,6.07,20,4.23,23.69A.48.48,0,0,1,3.58,23.9Z" transform="translate(0)"/><path class="cls-1" d="M3.58,22.92h.75a.52.52,0,0,1,.52.52v0a.52.52,0,0,1-.52.52H3.58a0,0,0,0,1,0,0v-1A0,0,0,0,1,3.58,22.92Z"/><path class="cls-3" d="M3.39,23.9h0a.47.47,0,0,1-.21-.64L4.81,20,5.88,20,4,23.69A.48.48,0,0,1,3.39,23.9Z" transform="translate(0)"/><path class="cls-3" d="M21.55,19.37,2.23,20.52a.24.24,0,0,1-.24-.2L0,.26C0,.12,0,0,.29,0L19.43,2a.22.22,0,0,1,.2.2l2.12,16.88A.21.21,0,0,1,21.55,19.37Z" transform="translate(0)"/><path class="cls-5" d="M21.74,19.37,2.41,20.51a.21.21,0,0,1-.23-.19L.19.26A.22.22,0,0,1,.43,0L19.62,2a.22.22,0,0,1,.2.2l2.12,16.88A.22.22,0,0,1,21.74,19.37Z" transform="translate(0)"/><polygon class="cls-8" points="21.28 18.46 2.79 19.6 0.94 0.7 19.15 2.51 21.28 18.46"/><g class="cls-9"><path class="cls-10" d="M3.23,14.16a.29.29,0,0,1-.09-.09s0,0,0-.05a.2.2,0,0,1,0-.07.14.14,0,0,1,0-.09.19.19,0,0,1,0-.08l.06,0s0,0,.09,0a.16.16,0,0,1,.1,0,.18.18,0,0,1,.07,0,.22.22,0,0,1,.05.08l0,.1V14a.13.13,0,0,1,0,.06l0,0a.1.1,0,0,1-.05,0h0l.08.05,0,.06,0,.07a.14.14,0,0,1,0,.07.28.28,0,0,1,0,.13.19.19,0,0,1,0,.08l-.05,0-.06,0H3.31l-.08-.06-.06-.09a.24.24,0,0,1,0-.12.25.25,0,0,1,0-.14l0-.06.06-.05Zm0,.25a.19.19,0,0,0,0,.07l0,.07.06,0a.08.08,0,0,0,.07,0h.08l0,0a.19.19,0,0,0,0-.07.19.19,0,0,0,0-.08.19.19,0,0,0,0-.08.15.15,0,0,0,0-.07l-.06,0-.08,0a.12.12,0,0,0-.1.05A.2.2,0,0,0,3.22,14.41Zm0-.44a.14.14,0,0,0,0,.06.05.05,0,0,0,0,.05l0,0H3.4l0,0a.13.13,0,0,0,0-.06V14a.64.64,0,0,0,0-.07l0-.06-.05,0H3.22l0,0a.06.06,0,0,0,0,0,.09.09,0,0,0,0,.05.43.43,0,0,1,0,.05Z" transform="translate(0)"/><path class="cls-10" d="M3.72,14.11l0-.11h.09l0,.11Zm.09.57,0-.12h.09l0,.12Z" transform="translate(0)"/><path class="cls-10" d="M4,14.19a1.19,1.19,0,0,1,0-.25.26.26,0,0,1,0-.14.12.12,0,0,1,.07-.07.15.15,0,0,1,.09,0,.2.2,0,0,1,.11,0,.18.18,0,0,1,.08.07.31.31,0,0,1,0,.1.76.76,0,0,1,0,.11s0,.08,0,.11v.09a.88.88,0,0,1,0,.17.35.35,0,0,1,0,.15.14.14,0,0,1,0,.11.17.17,0,0,1-.13,0,.24.24,0,0,1-.22-.15.53.53,0,0,1,0-.15A1.42,1.42,0,0,1,4,14.19Zm.09,0c0,.07,0,.14,0,.19a.73.73,0,0,0,0,.12.22.22,0,0,0,.06.07.08.08,0,0,0,.07,0h.06l0,0a.14.14,0,0,0,0-.07.41.41,0,0,0,0-.12s0-.1,0-.17l0-.17a1.27,1.27,0,0,0,0-.14.22.22,0,0,0-.07-.09.12.12,0,0,0-.09,0l-.07,0a.11.11,0,0,0,0,.07A.57.57,0,0,0,4,14C4,14.06,4,14.13,4.06,14.22Z" transform="translate(0)"/><path class="cls-10" d="M4.55,14.19a.76.76,0,0,1,0-.25.26.26,0,0,1,0-.14.14.14,0,0,1,.06-.07.16.16,0,0,1,.1,0,.2.2,0,0,1,.11,0s0,0,.08.07a.31.31,0,0,1,0,.1A.76.76,0,0,1,5,14s0,.08,0,.11v.09a.88.88,0,0,1,0,.17.35.35,0,0,1,0,.15.2.2,0,0,1-.06.11.15.15,0,0,1-.12,0,.18.18,0,0,1-.13,0,.2.2,0,0,1-.09-.11l-.06-.15Zm.08,0c0,.07,0,.14,0,.19a.73.73,0,0,0,0,.12.13.13,0,0,0,0,.07.12.12,0,0,0,.08,0h.06l0,0a.14.14,0,0,0,0-.07.47.47,0,0,0,0-.12,1.16,1.16,0,0,0,0-.17.85.85,0,0,0,0-.17.47.47,0,0,0,0-.14.15.15,0,0,0-.06-.09.15.15,0,0,0-.1,0l-.06,0a.08.08,0,0,0,0,.07.57.57,0,0,0,0,.14C4.61,14.06,4.62,14.13,4.63,14.22Z" transform="translate(0)"/></g><g class="cls-9"><path class="cls-10" d="M3.34,15.36l.05,0,0,0,0,0a.05.05,0,0,1,0,0s0,0,0,0a0,0,0,0,1,0,0l0,0h-.1l0,0,0,0a.43.43,0,0,1,0,0h0v0l0,0,0,0h0s0,0,.05,0,0,0,0-.06l0,0,0,0H3.33l0,0,0,0,0,0s0,0,0,0v0s0,0,0,0l0,0h.08l0,0,0,0s0,0,0,0h0s0,0,0,0l-.06,0s0,0,0,0h0v0a0,0,0,0,0,0,0v0l0,0h0l0,0Z" transform="translate(0)"/><path class="cls-10" d="M3.49,15.36s0,0,0-.06,0,0,0,0h0l0,0,0,0a0,0,0,0,0,0,0l0,.17s0,0,0,0h0v0h0v0h0l0,0H3.54l0,0v-.07a.05.05,0,0,1,0,0h0l0,0h0v0h0l0,0H3.52v0Zm.13.06H3.55v0h0v0l0,0h.06v0a0,0,0,0,0,0,0v-.08Z" transform="translate(0)"/><path class="cls-10" d="M3.83,15.58h0l0,0,0,0-.05-.22h0v0h0l0-.08h0l0,.08h0v0h0l0,.21h0Z" transform="translate(0)"/><path class="cls-10" d="M3.94,15.28H4l.06.29H4v0H4l0,0H3.88l0,0v0l-.05-.22h0l0,.22s0,0,0,0,0,0,0,0H4a0,0,0,0,0,0,0v0Z" transform="translate(0)"/><path class="cls-10" d="M4.07,15.32h0l0,0h0v0s0,0,0,0v.05l0,.19h0L4,15.28h0Z" transform="translate(0)"/><path class="cls-10" d="M4.29,15.18h0l.1.39h0v0h0l0,0H4.27l0,0,0,0s0,0,0-.05a.09.09,0,0,0,0,0v-.05s0,0,0,0h.08l0,0h0Zm0,.12,0,0v0a.09.09,0,0,0,0,.05v.07a.06.06,0,0,0,0,0l0,0h.06s0,0,0,0v-.15l0,0s0,0,0,0Z" transform="translate(0)"/><path class="cls-10" d="M4.42,15.36s0,0,0-.06,0,0,.06,0h0l0,0,0,0v0l0,.17v0h0v0h0v0h0l0,0H4.47l0,0a0,0,0,0,0,0,0v0s0,0,0,0h0l0,0h0v0h0l0,0H4.45v0Zm.13.06H4.48v0h0v0s0,0,0,0h.06l0,0v-.06Z" transform="translate(0)"/><path class="cls-10" d="M4.68,15.65h.05v-.06l-.15-.29h0l.12.24h0v-.24h0v.34a0,0,0,0,0,0,0v0H4.69Z" transform="translate(0)"/><path class="cls-10" d="M4.88,15.63h0v0h0v0h0v.05h0v0l0,0Z" transform="translate(0)"/><path class="cls-10" d="M5.07,15.46h0v0l0,0,0,0s0,0,0,0h0s0,0,0,0v0l-.07-.31h0l.08.31v.07l0,0H5.11l0,0,0,0a0,0,0,0,1,0,0v0Z" transform="translate(0)"/><path class="cls-10" d="M5.37,15.28h0l.06.29h0v0h0l0,0H5.31l0,0v0l0-.22h0l0,.22s0,0,0,0,0,0,0,0h0a0,0,0,0,0,0,0v0Z" transform="translate(0)"/><path class="cls-10" d="M5.56,15.57h0l-.07-.29h0v0h0s0,0,0,0h.09l0,0s0,0,0,0l.06.23h0l0-.21v0H5.52v0Z" transform="translate(0)"/><path class="cls-10" d="M5.88,15.43H5.75v.1s0,0,0,0h0l0,0v0h0a.06.06,0,0,1,0,0,0,0,0,0,1,0,0l0,0H5.79s0,0,0,0,0,0,0,0a.11.11,0,0,1,0-.05.07.07,0,0,1,0,0,.09.09,0,0,1,0-.05s0,0,0,0h.09l0,0a.05.05,0,0,1,0,0l0,0Zm0,0v0l0,0,0,0H5.74a0,0,0,0,1,0,0v.06Z" transform="translate(0)"/><path class="cls-10" d="M6,15.63H6v0H6v0H6v.05H6v0l0,0Z" transform="translate(0)"/><path class="cls-10" d="M6.13,15.26h0l0,0v0h0l.09.39h0l-.07-.3H6.13Z" transform="translate(0)"/><path class="cls-10" d="M6.43,15.36h0l0,0v-.05s0,0,0,0a0,0,0,0,1,0,0s0,0,0,0h.08l0,0,0,0,0,0v.07h0l0,0v0a0,0,0,0,1,0,0,.09.09,0,0,1,0,0s0,0,0,0l0,0H6.48l0,0,0,0s0,0,0,0a0,0,0,0,1,0,0v0l0,0Zm0,.11v0l0,0,0,0h.06l0,0v-.06a.08.08,0,0,1,0,0l0,0,0,0h0l0,0A.08.08,0,0,0,6.43,15.47Zm0-.18s0,0,0,0v0l0,0h0v-.09a0,0,0,0,0,0,0H6.4v.06Z" transform="translate(0)"/></g><g class="cls-11"><path class="cls-10" d="M.43,0A.22.22,0,0,0,.19.26l2,20.06a.21.21,0,0,0,.23.19l1.66-.09L16.5,1.71Z" transform="translate(0)"/></g><rect class="cls-12" x="11.39" y="23.8" width="4.12" height="1.89"/><path class="cls-5" d="M11.56,25.65v.28c0,.16.84.28,1.89.28s1.89-.12,1.89-.28v-.28Z" transform="translate(0)"/><ellipse class="cls-13" cx="13.45" cy="25.68" rx="2.06" ry="0.3"/><path class="cls-14" d="M15.51,23.8c0,.16-.93.29-2.06.29s-2.06-.13-2.06-.29v0h4.12Z" transform="translate(0)"/><ellipse class="cls-15" cx="13.45" cy="23.76" rx="2.06" ry="0.3"/><path class="cls-16" d="M33.68,23.59a.89.89,0,0,1-.26-.32,6,6,0,0,1,2.7-.63,3.41,3.41,0,0,1,1.76.76,1.39,1.39,0,0,1-.15.3c-.1.07-.37.07-1.25.06S33.87,23.64,33.68,23.59Z" transform="translate(0)"/><path class="cls-17" d="M33.42,23.26s0-.09,0-.11a5.37,5.37,0,0,1,2.7-.7c1.14.12,1.46.83,1.73.88.07.26-.49.25-1.38.24A11.55,11.55,0,0,1,33.42,23.26Z" transform="translate(0)"/><path class="cls-17" d="M34.48,22.77l-.14.06a.09.09,0,0,1-.12,0h0a.09.09,0,0,1,.05-.12l.13-.06a.1.1,0,0,1,.13,0h0A.09.09,0,0,1,34.48,22.77Z" transform="translate(0)"/><path class="cls-18" d="M33.45,23.15a5.1,5.1,0,0,1,2.7-.83,2,2,0,0,1,1.73.95c.07.25-.49.18-1.38.17A12,12,0,0,1,33.45,23.15Z" transform="translate(0)"/><polygon class="cls-19" points="32.37 24.27 16.64 25.87 16.65 25.57 32.38 23.96 32.37 24.27"/><path class="cls-20" d="M17,25.53a.33.33,0,0,1-.32.34.35.35,0,0,1,0-.69A.32.32,0,0,1,17,25.53Z" transform="translate(0)"/><polygon class="cls-21" points="20.28 26.49 15.56 25.14 15.56 24.83 20.28 26.18 20.28 26.49"/><polygon class="cls-22" points="36.01 24.89 20.28 26.49 20.28 26.18 36.01 24.58 36.01 24.89"/><polygon class="cls-23" points="36.01 24.58 20.28 26.19 15.56 24.83 31.29 23.23 36.01 24.58"/><polygon class="cls-24" points="20.36 25.85 15.85 24.81 15.85 24.7 20.36 25.7 20.36 25.85"/><polygon class="cls-25" points="35.47 24.49 20.3 25.85 15.85 24.7 31.31 23.23 35.47 24.36 35.47 24.49"/><path class="cls-26" d="M17.1,24.67s0,0,0,0l-.78.07h-.17l-.27-.05c-.05,0,0,0,0,0l.78-.08h.17Z" transform="translate(0)"/><path class="cls-26" d="M17.93,24.84s0,0,0,0l-.8.1H17l-.52-.12s0,0,0,0l.8-.08a.49.49,0,0,1,.17,0Z" transform="translate(0)"/><path class="cls-26" d="M19,24.74s0,0,0,0l-.78.08H18l-.52-.11s0,0,0,0l.78-.07h.16Z" transform="translate(0)"/><path class="cls-26" d="M20.25,24.87c.05,0,0,0,0,0l-.76.07h-.17l-.51-.11c-.05,0,0,0,0,0l.77-.07a.42.42,0,0,1,.16,0Z" transform="translate(0)"/><path class="cls-26" d="M21.32,24.77c.05,0,0,0,0,0l-.76.07h-.17l-.51-.11s0,0,0,0l.77-.07a.49.49,0,0,1,.17,0Z" transform="translate(0)"/><path class="cls-26" d="M22.39,24.68s0,0,0,0l-.77.07a.43.43,0,0,1-.16,0l-.51-.1s0,0,0,0l.77-.07h.16Z" transform="translate(0)"/><path class="cls-26" d="M23.46,24.58s0,0,0,0l-.77.07h-.16l-.5-.11s0,0,0,0l.77-.07H23Z" transform="translate(0)"/><path class="cls-26" d="M24.53,24.48s0,0,0,0l-.77.07h-.16l-.5-.11s0,0,0,0l.77-.07H24Z" transform="translate(0)"/><path class="cls-26" d="M25.6,24.38s0,0,0,0l-.77.07h-.16l-.49-.11s0,0,0,0l.77-.07h.16Z" transform="translate(0)"/><path class="cls-26" d="M26.67,24.29s0,0,0,0l-.76.07a.42.42,0,0,1-.16,0l-.49-.11s0,0,0,0l.77-.07h.16Z" transform="translate(0)"/><path class="cls-26" d="M27.74,24.19s0,0,0,0l-.76.07H26.8l-.48-.12c-.05,0,0,0,0,0l.77-.08h.16Z" transform="translate(0)"/><path class="cls-26" d="M28.81,24.09s0,0,0,0l-.77.07h-.15l-.48-.12s0,0,0,0l.78-.07a.43.43,0,0,1,.16,0Z" transform="translate(0)"/><path class="cls-26" d="M29.88,24s0,0,0,0l-.77.07a.42.42,0,0,1-.16,0L28.46,24s0,0,0,0l.77-.07a.42.42,0,0,1,.16,0Z" transform="translate(0)"/><path class="cls-26" d="M30.94,23.9s0,0,0,0l-.77.07A.42.42,0,0,1,30,24l-.46-.12s0,0,0,0l.78-.07a.38.38,0,0,1,.15,0Z" transform="translate(0)"/><path class="cls-26" d="M21.33,25s0,0,0,0l-.76.07a.42.42,0,0,1-.16,0l-.52-.1s0,0,0,0l.76-.06a.48.48,0,0,1,.17,0Z" transform="translate(0)"/><path class="cls-26" d="M22.39,24.92s0,0,0,0l-.76.07h-.16L21,24.9c-.05,0,0,0,0,0l.76-.07a.49.49,0,0,1,.17,0Z" transform="translate(0)"/><path class="cls-26" d="M23.45,24.83s0,0,0,0l-.76.07a.42.42,0,0,1-.16,0l-.51-.1s0,0,0,0l.77-.07H23Z" transform="translate(0)"/><path class="cls-26" d="M24.51,24.73s0,0,0,0l-.76.07h-.16l-.5-.11s0,0,0,0l.77-.06a.86.86,0,0,1,.16,0Z" transform="translate(0)"/><path class="cls-26" d="M25.57,24.64s0,0,0,0l-.76.07a.42.42,0,0,1-.16,0l-.5-.11s0,0,0,0l.76-.07a.42.42,0,0,1,.16,0Z" transform="translate(0)"/><path class="cls-26" d="M26.63,24.55c.05,0,0,0,0,0l-.76.07H25.7l-.49-.11s0,0,0,0l.77-.07h.16Z" transform="translate(0)"/><path class="cls-26" d="M27.7,24.45s0,0,0,0l-.76.06a.42.42,0,0,1-.16,0l-.48-.11s0,0,0,0l.77-.07a.43.43,0,0,1,.16,0Z" transform="translate(0)"/><path class="cls-26" d="M28.76,24.36s0,0,0,0l-.76.07h-.16l-.48-.12s0,0,0,0l.76-.07a.42.42,0,0,1,.16,0Z" transform="translate(0)"/><path class="cls-26" d="M29.82,24.26s0,0,0,0l-.76.06a.42.42,0,0,1-.16,0l-.47-.11s0,0,0,0l.77-.07h.16Z" transform="translate(0)"/><path class="cls-26" d="M30.88,24.17s0,0,0,0l-.76.07h-.16l-.47-.12s0,0,0,0l.77-.07a.38.38,0,0,1,.15,0Z" transform="translate(0)"/><path class="cls-26" d="M31.94,24.07s0,0,0,0l-.76.07-.15,0L30.54,24s0,0,0,0l.76-.07h.16Z" transform="translate(0)"/><path class="cls-26" d="M32,23.8s0,0,0,0l-.77.07h-.16l-.46-.12s0,0,0,0l.77-.07a.42.42,0,0,1,.16,0Z" transform="translate(0)"/><path class="cls-26" d="M33.08,23.7s0,0,0,0l-.76.07h-.16l-.45-.12s0,0,0,0l.78-.07a.38.38,0,0,1,.15,0Z" transform="translate(0)"/><path class="cls-26" d="M20,24.64s0,0,0,0l-.78.08h-.16l-.52-.11s0,0,0,0l.77-.07a1,1,0,0,1,.17,0Z" transform="translate(0)"/><path class="cls-26" d="M21.11,24.54s0,0,0,0l-.78.07h-.16l-.51-.11s0,0,0,0l.78-.07h.16Z" transform="translate(0)"/><path class="cls-26" d="M22.18,24.44s0,0,0,0l-.77.07h-.16l-.51-.11s0,0,0,0l.77-.08h.17Z" transform="translate(0)"/><path class="cls-26" d="M23.25,24.34s0,0,0,0l-.77.07H22.3l-.5-.11s0,0,0,0l.78-.08h.16Z" transform="translate(0)"/><path class="cls-26" d="M24.32,24.24s0,0,0,0l-.77.07h-.16l-.5-.11s0,0,0,0l.77-.08h.17Z" transform="translate(0)"/><path class="cls-26" d="M25.39,24.14s0,0,0,0l-.77.07a.42.42,0,0,1-.16,0L24,24.12s0,0,0,0l.78-.07h.16Z" transform="translate(0)"/><path class="cls-26" d="M26.46,24.05s0,0,0,0l-.77.07a.42.42,0,0,1-.16,0L25,24s0,0,0,0l.78-.07H26Z" transform="translate(0)"/><path class="cls-26" d="M27.53,24s0,0,0,0l-.77.07a.42.42,0,0,1-.16,0l-.48-.11s0,0,0,0l.78-.07h.16Z" transform="translate(0)"/><path class="cls-26" d="M28.59,23.85s0,0,0,0l-.77.07h-.16l-.48-.12s0,0,0,0l.78-.07a.42.42,0,0,1,.16,0Z" transform="translate(0)"/><path class="cls-26" d="M29.66,23.75s0,0,0,0l-.78.08h-.15l-.47-.12s0,0,0,0l.77-.07a.42.42,0,0,1,.16,0Z" transform="translate(0)"/><path class="cls-26" d="M30.73,23.65s0,0,0,0l-.78.07h-.15l-.47-.12s0,0,0,0l.78-.07a.42.42,0,0,1,.16,0Z" transform="translate(0)"/><path class="cls-26" d="M32.34,23.5s0,0,0,0l-1.24.11a.42.42,0,0,1-.16,0l-.45-.12s0,0,0,0l1.24-.11a.42.42,0,0,1,.16,0Z" transform="translate(0)"/><path class="cls-26" d="M33.81,23.9s0,0,0,0l-1.53.14h-.15l-.46-.13s0,0,0,0l1.53-.14a.42.42,0,0,1,.16,0Z" transform="translate(0)"/><path class="cls-26" d="M34.53,24.1s0,0,0,0l-2,.17h-.15l-.46-.12s0,0,0,0l2-.17a.42.42,0,0,1,.16,0Z" transform="translate(0)"/><path class="cls-26" d="M19.19,25s0,0,0,0L18,25.14h-.17L17.27,25s0,0,0,0l1.23-.13h.17Z" transform="translate(0)"/><path class="cls-26" d="M20.26,25.11s0,0,0,0l-1.45.2a.48.48,0,0,1-.17,0l-.52-.11c-.05,0,0,0,0,0L19.58,25h.16Z" transform="translate(0)"/><path class="cls-26" d="M22.6,25.15s0,0,0,0l-.75.07h-.17l-.51-.11s0,0,0,0l.76-.07h.16Z" transform="translate(0)"/><path class="cls-26" d="M31,24.73s0,0,0,0l-.74.06a.42.42,0,0,1-.16,0l-.65-.15s0,0,0,0l.75-.07.16,0Z" transform="translate(0)"/><path class="cls-26" d="M24.54,25.29s0,0,0,0l-.74.06a.43.43,0,0,1-.16,0L23,25.22c-.05,0,0,0,0,0l.74-.07h.16Z" transform="translate(0)"/><path class="cls-26" d="M23.52,25.37s0,0,0,0l-.73.06h-.16l-.69-.14c-.05,0,0,0,0,0l.74-.07h.16Z" transform="translate(0)"/><path class="cls-26" d="M22.5,25.46s0,0,0,0l-.73.07H21.6l-.7-.14s0,0,0,0l.74-.06h.16Z" transform="translate(0)"/><path class="cls-26" d="M32.32,24.62s0,0,0,0l-1,.08a.51.51,0,0,1-.18,0l-.64-.16s0,0,0,0l1-.09h.18Z" transform="translate(0)"/><path class="cls-26" d="M33.36,24.53s0,0,0,0l-.75.06h-.16l-.63-.16s0,0,0,0l.75-.06a.42.42,0,0,1,.16,0Z" transform="translate(0)"/><path class="cls-26" d="M35.45,24.35s0,0,0,0l-.75.06a.37.37,0,0,1-.15,0l-.62-.16s0,0,0,0l.75-.07.16,0Z" transform="translate(0)"/><path class="cls-26" d="M29.93,24.82s0,0,0,0l-5.13.44h-.15L24,25.13s0,0,0,0l5.17-.45a.34.34,0,0,1,.14,0Z" transform="translate(0)"/><path class="cls-26" d="M21.48,25.55s0,0,0,0l-1,.14h-.16l-.64-.15c-.05,0-.05,0,0,0l.94-.13h.17Z" transform="translate(0)"/><path class="cls-26" d="M23.65,25.05s0,0,0,0l-.75.06h-.17l-.5-.11s0,0,0,0l.76-.07a.43.43,0,0,1,.16,0Z" transform="translate(0)"/><path class="cls-26" d="M24.71,25s0,0,0,0l-.75.06a.42.42,0,0,1-.16,0l-.5-.1c-.05,0,0,0,0,0l.75-.07h.17Z" transform="translate(0)"/><path class="cls-26" d="M25.76,24.87s0,0,0,0L25,25h-.16l-.5-.11s0,0,0,0l.76-.07h.16Z" transform="translate(0)"/><path class="cls-26" d="M26.81,24.78s0,0,0,0l-.76.07h-.16l-.49-.11s0,0,0,0l.76-.06a.42.42,0,0,1,.16,0Z" transform="translate(0)"/><path class="cls-26" d="M27.86,24.69s0,0,0,0l-.75.07h-.16l-.49-.12s0,0,0,0l.76-.07h.16Z" transform="translate(0)"/><path class="cls-26" d="M28.92,24.59s0,0,0,0l-.75.06a.42.42,0,0,1-.16,0l-.48-.11s0,0,0,0l.76-.06a.42.42,0,0,1,.16,0Z" transform="translate(0)"/><path class="cls-26" d="M30,24.5s0,0,0,0l-.76.06a.42.42,0,0,1-.16,0l-.47-.11s0,0,0,0l.76-.07h.16Z" transform="translate(0)"/><path class="cls-26" d="M31,24.41s0,0,0,0l-.76.07H30.1l-.48-.12s0,0,0,0l.76-.07a.37.37,0,0,1,.15,0Z" transform="translate(0)"/><path class="cls-26" d="M32.08,24.32s0,0,0,0l-.75.07h-.16l-.47-.12s0,0,0,0l.76-.07.15,0Z" transform="translate(0)"/><path class="cls-26" d="M34.05,24.33s0,0,0,0l-.75.06a.37.37,0,0,1-.15,0l-.23-.06s0,0,0,0l.75-.07h.14Z" transform="translate(0)"/><path class="cls-26" d="M34.45,24.44s0,0,0,0l-.74.07h-.15l-.23-.06s0,0,0,0l.75-.07h.15Z" transform="translate(0)"/><path class="cls-26" d="M21.54,25.24c.05,0,0,0,0,0l-2,.25h-.16l-.52-.1s0,0,0,0l2-.25H21Z" transform="translate(0)"/><path class="cls-26" d="M18.27,24.56s0,0,0,0l-.78.07a.42.42,0,0,1-.16,0l-.27,0c-.05,0,0,0,0,0l.78-.08H18Z" transform="translate(0)"/><path class="cls-26" d="M19.38,24.46s0,0,0,0l-.78.08h-.17l-.26-.06c-.05,0,0,0,0,0L19,24.4h.16Z" transform="translate(0)"/><path class="cls-26" d="M20.49,24.35s0,0,0,0l-.77.07a.47.47,0,0,1-.17,0l-.26-.05c-.05,0,0,0,0,0l.78-.07h.16Z" transform="translate(0)"/><path class="cls-26" d="M21.59,24.25c.05,0,0,0,0,0l-.78.08h-.16l-.26-.06c-.05,0,0,0,0,0l.78-.08h.16Z" transform="translate(0)"/><path class="cls-26" d="M22.7,24.15s0,0,0,0l-.78.07a1,1,0,0,1-.17,0l-.25-.06s0,0,0,0l.78-.07a.42.42,0,0,1,.16,0Z" transform="translate(0)"/><path class="cls-26" d="M23.81,24s0,0,0,0l-.78.07h-.16l-.25-.06s0,0,0,0l.78-.08h.16Z" transform="translate(0)"/><path class="cls-26" d="M24.92,23.94s0,0,0,0l-.78.08H24L23.71,24s0,0,0,0l.78-.07a.42.42,0,0,1,.16,0Z" transform="translate(0)"/><path class="cls-26" d="M26,23.83s0,0,0,0l-.78.07a.42.42,0,0,1-.16,0l-.25-.06s0,0,0,0l.78-.08h.16Z" transform="translate(0)"/><path class="cls-26" d="M27.13,23.73s0,0,0,0l-.78.08h-.16l-.24-.06s0,0,0,0l.78-.07a.42.42,0,0,1,.16,0Z" transform="translate(0)"/><path class="cls-26" d="M28.24,23.62s0,0,0,0l-.78.07a.42.42,0,0,1-.16,0L27,23.65s0,0,0,0l.79-.08H28Z" transform="translate(0)"/><path class="cls-26" d="M29.34,23.52s0,0,0,0l-.78.07h-.16l-.24-.06s0,0,0,0l.79-.07a.37.37,0,0,1,.15,0Z" transform="translate(0)"/><path class="cls-26" d="M30.45,23.41s0,0,0,0l-.78.07a.37.37,0,0,1-.15,0l-.24-.06s0,0,0,0l.78-.08h.15Z" transform="translate(0)"/><path class="cls-26" d="M31.63,23.3s0,0,0,0l-.78.07a.42.42,0,0,1-.16,0l-.23-.06s0,0,0,0l.78-.07a.35.35,0,0,1,.15,0Z" transform="translate(0)"/></g></g></g></svg>