<svg xmlns="http://www.w3.org/2000/svg" xmlns:xlink="http://www.w3.org/1999/xlink" viewBox="0 0 589.01 371.01"><defs><style>.cls-1{fill:url(#radial-gradient);}.cls-2{fill:#eef0fd;}.cls-3{fill:url(#linear-gradient);}.cls-4{fill:#a8afba;}.cls-5{fill:#262626;}.cls-6{fill:#2e2e2e;}.cls-7{fill:url(#radial-gradient-2);}.cls-8{fill:#d40000;}.cls-9{fill:#804e33;}.cls-10{fill:#bd734c;}.cls-11{fill:#593624;}.cls-12{fill:url(#radial-gradient-3);}.cls-13{fill:url(#Silver);}</style><radialGradient id="radial-gradient" cx="134.91" cy="467.63" r="342.69" gradientUnits="userSpaceOnUse"><stop offset="0.17" stop-color="#7a93ba"/><stop offset="0.95" stop-color="#576c96"/></radialGradient><linearGradient id="linear-gradient" y1="146.56" x2="589.01" y2="146.56" gradientUnits="userSpaceOnUse"><stop offset="0.17" stop-color="#9e9e9e"/><stop offset="0.95" stop-color="#c2c2c2"/></linearGradient><radialGradient id="radial-gradient-2" cx="393.61" cy="113.66" r="11.69" gradientUnits="userSpaceOnUse"><stop offset="0.17" stop-color="#2462a6"/><stop offset="0.95" stop-color="#5791d4"/></radialGradient><radialGradient id="radial-gradient-3" cx="315.42" cy="32.24" r="77.22" gradientTransform="translate(0 25.79) scale(1 0.2)" gradientUnits="userSpaceOnUse"><stop offset="0.17" stop-color="#fff"/><stop offset="0.95" stop-color="#c2c2c2"/></radialGradient><linearGradient id="Silver" x1="206.52" y1="25.06" x2="424.31" y2="25.06" gradientUnits="userSpaceOnUse"><stop offset="0" stop-color="#e5e1df"/><stop offset="0" stop-color="#dddad6"/><stop offset="0.06" stop-color="#cecbc9"/><stop offset="0.18" stop-color="#a8a4a7"/><stop offset="0.26" stop-color="#8b878d"/><stop offset="0.52" stop-color="#f3f4f4"/><stop offset="0.58" stop-color="#e5e5e6"/><stop offset="0.7" stop-color="#bfbec0"/><stop offset="0.87" stop-color="#848084"/><stop offset="0.88" stop-color="#807c80"/><stop offset="1" stop-color="#d1d3d4"/><stop offset="1" stop-color="#a7a9ac"/></linearGradient></defs><title>lab_background</title><g id="Layer_2" data-name="Layer 2"><g id="стены"><g id="lab_background"><path class="cls-1" d="M589,371V250S539.39,155,.05,169.7C0,259.14,0,371,0,371Z"/><polygon class="cls-2" points="564.03 283.54 589 297.56 589 279.52 564.03 283.54"/><polygon class="cls-2" points="526.25 370.96 589.01 370.96 589.01 338.31 500.52 352.96 526.25 370.96"/><path class="cls-2" d="M487.06,240.32l75.54-11.06c-15.88-8.67-40.91-18.95-79.92-28.58l-55.81,5.84Z"/><polygon class="cls-2" points="365.07 258.19 431.76 304.85 564.03 283.54 487.06 240.32 365.07 258.19"/><polygon class="cls-2" points="312.19 324.1 367.04 370.96 391.72 370.96 500.52 352.96 431.76 304.85 312.19 324.1"/><path class="cls-2" d="M308.89,218.88l118-12.36L385,183c-20.82-2.71-43.73-5.16-68.94-7.25L256,181.88Z"/><polygon class="cls-2" points="202.1 230.05 254.07 274.44 365.07 258.19 308.89 218.88 202.1 230.05"/><polygon class="cls-2" points="146.44 290.2 199.07 342.32 312.19 324.1 254.07 274.44 146.44 290.2"/><path class="cls-2" d="M256,181.88,240.43,171c-33.6-1.53-70.4-2.49-110.7-2.74l27.72,23.68Z"/><polygon class="cls-2" points="82.57 361.1 91.48 370.96 227.97 370.96 199.07 342.32 82.57 361.1"/><polygon class="cls-2" points="57.45 202.07 96.81 241.06 202.1 230.05 157.45 191.91 57.45 202.07"/><polygon class="cls-2" points="0.02 251.19 0.02 269.82 33.43 306.75 146.44 290.2 96.81 241.06 0.02 251.19"/><polygon class="cls-2" points="0.02 311.66 0.02 370.96 21.31 370.96 82.57 361.1 33.43 306.75 0.02 311.66"/><path class="cls-2" d="M24.17,169.11q-11.9.25-24.12.59c0,12.43,0,25.29,0,38.22l57.42-5.85Z"/><path class="cls-3" d="M589,250V43.13C399.14,75.53,202,79.87,0,70.59c0,0,0,188.55.05,99.11C539.39,155,589,250,589,250Z"/><path class="cls-4" d="M589,43.13V.08L0,0V70.59C202,79.87,399.14,75.53,589,43.13Z"/><polygon class="cls-5" points="377.43 104.14 376.8 124.1 377.43 124.83 411.09 127.35 411.78 102.65 411.16 101.99 377.43 104.14"/><polygon class="cls-6" points="376.8 103.45 376.8 124.14 410.46 126.66 411.16 101.97 376.8 103.45"/><path class="cls-7" d="M381.44,105.82l24.2-.88a2,2,0,0,1,2,2l-.44,13.54a1.94,1.94,0,0,1-2.05,1.89l-23.77-1.31a2,2,0,0,1-1.84-1.95V107.77A2,2,0,0,1,381.44,105.82Z"/><polygon class="cls-8" points="380.34 123.27 378.84 123.08 378.84 122.55 380.34 122.73 380.34 123.27"/><g id="shelf"><polygon class="cls-9" points="207.66 120.45 258.47 120.93 258.43 116.23 207.66 116.13 207.66 120.45"/><polygon class="cls-10" points="262.15 116.81 258.43 116.23 258.47 120.93 261.95 120.36 262.15 116.81"/></g><g id="shelf-2" data-name="shelf"><polygon class="cls-9" points="207.66 95.76 258.25 95.51 258.3 100.02 207.66 100.01 207.66 95.76"/><polygon class="cls-10" points="261.8 100.77 258.3 100.02 258.25 95.51 261.6 96.73 261.8 100.77"/><polygon class="cls-11" points="207.66 100.01 216.16 100.78 261.8 100.77 258.3 100.02 207.66 100.01"/></g><ellipse class="cls-12" cx="315.42" cy="32.24" rx="108.89" ry="8.23"/><path class="cls-13" d="M424.31,26.1c0-4.54-48.76-8.22-108.89-8.22s-108.9,3.68-108.9,8.22v6.14c0-4.55,48.76-8.23,108.9-8.23s108.89,3.68,108.89,8.23Z"/></g></g></g></svg>