<svg xmlns="http://www.w3.org/2000/svg" xmlns:xlink="http://www.w3.org/1999/xlink" viewBox="0 0 77.7 80.65"><defs><style>.cls-1{fill:#575757;}.cls-2{fill:#8c8c8c;}.cls-3{fill:#e3e3e3;}.cls-4{fill:url(#New_Gradient_Swatch_2);}.cls-5{fill:#284961;}.cls-6{fill:url(#New_Gradient_Swatch_4);}.cls-7{fill:url(#New_Gradient_Swatch_1);}.cls-8{fill:url(#New_Gradient_Swatch_3);}.cls-9{fill:#213b4f;}.cls-10{fill:#ccd1b4;}.cls-11{fill:#a5a891;}.cls-12{fill:#1a3663;}.cls-13{fill:#5684d1;}.cls-14{fill:#29559c;}.cls-15{fill:#696b5d;}.cls-16{fill:#6e7062;}.cls-17{fill:#7a7d6c;}.cls-18{fill:url(#New_Gradient_Swatch_11);}.cls-19{fill:url(#New_Gradient_Swatch_4-2);}.cls-20{fill:#fedb41;}.cls-21{fill:#fcbf29;}.cls-22{fill:#3c3a41;}.cls-23{fill:#57555c;}.cls-24{fill:#fd3018;}.cls-25{fill:#fd4e26;}.cls-26{fill:#efbbbb;}.cls-27{fill:#6d6d6d;}.cls-28{fill:#444;}.cls-29{fill:#bfbfbf;}.cls-30{fill:#e2e2e2;}.cls-31{fill:#999;}.cls-32{fill:#d9b166;}.cls-33{fill:#bc8e50;}.cls-34{fill:#963;}.cls-35{fill:#9f0400;}.cls-36{fill:#c1c4a9;}.cls-37{opacity:0.14;}.cls-38{fill:#5fa2ff;}</style><linearGradient id="New_Gradient_Swatch_2" x1="0.15" y1="30.45" x2="77.7" y2="30.45" gradientUnits="userSpaceOnUse"><stop offset="0.02" stop-color="#8c8c8c"/><stop offset="0.13" stop-color="#848484"/><stop offset="0.5" stop-color="#ebebeb"/><stop offset="0.96" stop-color="#999"/><stop offset="0.99" stop-color="#bfbfbf"/></linearGradient><linearGradient id="New_Gradient_Swatch_4" x1="56.02" y1="60.49" x2="77.56" y2="60.49" gradientUnits="userSpaceOnUse"><stop offset="0.02" stop-color="#244157"/><stop offset="0.5" stop-color="#284961"/><stop offset="0.99" stop-color="#192e3d"/></linearGradient><linearGradient id="New_Gradient_Swatch_1" y1="35.41" x2="77.7" y2="35.41" gradientUnits="userSpaceOnUse"><stop offset="0.02" stop-color="#616f8c"/><stop offset="0.13" stop-color="#656d84"/><stop offset="0.5" stop-color="#99b9eb"/><stop offset="0.96" stop-color="#406399"/><stop offset="0.99" stop-color="#708fbf"/></linearGradient><linearGradient id="New_Gradient_Swatch_3" x1="0.11" y1="33.85" x2="77.67" y2="33.85" gradientUnits="userSpaceOnUse"><stop offset="0.02" stop-color="#3f3f3f"/><stop offset="0.13" stop-color="#373737"/><stop offset="0.5" stop-color="#9f9f9f"/><stop offset="0.96" stop-color="#4d4d4d"/><stop offset="0.99" stop-color="#727272"/></linearGradient><linearGradient id="New_Gradient_Swatch_11" x1="56.34" y1="22.15" x2="72.71" y2="22.15" gradientUnits="userSpaceOnUse"><stop offset="0.02" stop-color="#969984"/><stop offset="0.5" stop-color="#949682"/><stop offset="0.99" stop-color="#7a7d6c"/></linearGradient><linearGradient id="New_Gradient_Swatch_4-2" x1="13.84" y1="3.7" x2="72.71" y2="3.7" xlink:href="#New_Gradient_Swatch_4"/></defs><title>lab_08</title><g id="Layer_2" data-name="Layer 2"><g id="лазерный_станок" data-name="лазерный станок"><g id="lab_08"><path class="cls-1" d="M51.66,40.7,50,76a2.63,2.63,0,0,1-3.43,2.37L3.83,64.6A2.63,2.63,0,0,1,2,62L3.17,31.17A2.63,2.63,0,0,1,6.35,28.7L49.59,38A2.65,2.65,0,0,1,51.66,40.7Z"/><path class="cls-2" d="M66.43,76.72l-14.61,1.7c-2,.24-3.78-1.06-3.69-2.69l2-35.51a2.92,2.92,0,0,1,2.9-2.47l14.19-1.17c2-.16,3.63,1.11,3.55,2.69l-1.6,35A2.89,2.89,0,0,1,66.43,76.72Z"/><polygon class="cls-3" points="6.04 28.68 18.69 27.16 65.81 36.78 49.18 38.47 6.04 28.68"/><path class="cls-4" d="M13.21,21.68l-11.32,3a2.34,2.34,0,0,0,.3,4.58c14.41,3,30.76,6.24,54,10,9.74-1.47,10.88-1.69,21.53-3.61C49.13,27.43,13.21,21.68,13.21,21.68Z"/><polygon class="cls-5" points="56.02 43.93 56.02 80.65 1.9 68.67 1.9 33.6 56.02 43.93"/><polygon class="cls-6" points="56.02 80.65 77.34 70.27 77.56 40.32 56.02 43.93 56.02 80.65"/><path class="cls-7" d="M77.7,35.61l-.14,4.71c-11.33,1.93-12.4,2.1-21.54,3.61-22.18-4.24-38.83-8.06-54-10a2.29,2.29,0,0,1-2-2.36l.14-4.69a2.37,2.37,0,0,0,2.05,2.34c14.66,2.9,31.24,6.1,54,10C61.48,38.57,63.13,37.15,77.7,35.61Z"/><path class="cls-8" d="M77.67,35.61c-14.57,1.54-18.31,3.22-21.53,3.53-22.51-3.7-39.17-7-54-10a2.38,2.38,0,0,1-2-1.95l0,.95a2.38,2.38,0,0,0,2.05,2.36c14.78,3.11,31.47,6.44,54,10,6.55-1,7.24-1,21.53-3.61Z"/><polygon class="cls-9" points="25.71 39.96 3.52 35.61 3.52 67.48 25.71 72.42 25.71 39.96"/><polygon class="cls-9" points="28.71 40.55 28.71 73.09 53.67 78.66 53.67 45.44 28.71 40.55"/><path class="cls-10" d="M73,10.64,72,32.16a3.58,3.58,0,0,1-3.2,3.53l-9.23.61A3.57,3.57,0,0,1,56,32.4l.59-14.48A4.08,4.08,0,0,1,57,16.27l3.66-7.22A3.37,3.37,0,0,1,63.4,7.13l6-.41A3.57,3.57,0,0,1,73,10.64Z"/><path class="cls-11" d="M14,.65,61.54,7.21l-4.95,8.92-1,17.24a3.31,3.31,0,0,1-4,3L8.64,27l.25-14a15.61,15.61,0,0,1,2.45-8.12Z"/><polygon class="cls-12" points="24.82 0.08 70.16 6.64 61.54 7.21 13.99 0.65 24.82 0.08"/><path class="cls-13" d="M58.9,30.37l.21-12.57a3.4,3.4,0,0,1,.37-1.54l2.69-5.35a3.09,3.09,0,0,1,2.46-1.74l3-.27A3.22,3.22,0,0,1,71,12.39l-.73,17.67a3.24,3.24,0,0,1-2.81,3.19l-5.21.51A3.19,3.19,0,0,1,58.9,30.37Z"/><path class="cls-14" d="M10.82,14.79v5.34a3.17,3.17,0,0,0,2.49,3.13L49.69,30.8a3.13,3.13,0,0,0,3.72-3l.32-6.69a3.17,3.17,0,0,0-2.6-3.3L14.42,11.65A3.12,3.12,0,0,0,10.82,14.79Z"/><path class="cls-14" d="M12.38,5.77l1.76-2.85A1.9,1.9,0,0,1,16,2L56.45,7.53a1.89,1.89,0,0,1,1.38,2.84l-2,3.49a1.92,1.92,0,0,1-1.93.93L13.71,8.65A1.9,1.9,0,0,1,12.38,5.77Z"/><polygon class="cls-15" points="25.21 24.07 72.71 34.59 72.71 6.4 25.21 0 25.21 24.07"/><polygon class="cls-16" points="25.21 24.07 72.71 34.59 56.34 37.9 8.64 28.9 25.21 24.07"/><polygon class="cls-17" points="8.64 28.9 8.64 9.57 13.84 0.65 25.21 0 25.21 24.07 8.64 28.9"/><polygon class="cls-18" points="72.71 6.4 72.71 34.59 56.34 37.9 56.34 17.02 61.84 7.4 72.71 6.4"/><polygon class="cls-19" points="61.84 7.4 72.71 6.4 25.21 0 13.84 0.65 61.84 7.4"/><g id="lasr"><path class="cls-20" d="M68.44,28c-3.29.49-4.94,1.55-8.23,2A1.25,1.25,0,0,1,59,28.13c1.64-3.05,2.46-4.77,4.11-8.2a2,2,0,0,1,1.19-1.06,1,1,0,0,1,1.2.36C67.16,21.72,68,23,69.63,25.85A1.5,1.5,0,0,1,68.44,28Z"/><path class="cls-21" d="M68.44,28a24.79,24.79,0,0,0-4.12,1V18.87a1,1,0,0,1,1.2.36C67.16,21.72,68,23,69.63,25.85A1.5,1.5,0,0,1,68.44,28Z"/><path class="cls-22" d="M65.05,24a.34.34,0,0,1,0-.48l.7-.9a.38.38,0,0,1,.48-.14.34.34,0,0,1,0,.49l-.7.89A.36.36,0,0,1,65.05,24Z"/><path class="cls-23" d="M63,25.66c-.49.14-.74.21-1.23.32a.26.26,0,0,1-.34-.26.46.46,0,0,1,.34-.42c.49-.12.74-.18,1.23-.32a.25.25,0,0,1,.34.24A.48.48,0,0,1,63,25.66Z"/><path class="cls-23" d="M63.12,24.55,62.41,24a.34.34,0,0,1,0-.48.37.37,0,0,1,.49-.13l.7.5a.34.34,0,0,1,0,.48A.36.36,0,0,1,63.12,24.55Z"/><path class="cls-22" d="M65.75,26.48,65,26a.35.35,0,0,1,0-.49.39.39,0,0,1,.49-.14l.73.54a.32.32,0,0,1,0,.48A.36.36,0,0,1,65.75,26.48Z"/><path class="cls-23" d="M62.41,27.45a.35.35,0,0,1,0-.49c.3-.37.45-.56.74-.94a.38.38,0,0,1,.48-.14c.14.1.14.31,0,.49l-.73.95A.39.39,0,0,1,62.41,27.45Z"/><path class="cls-23" d="M64.67,26.19v1.36a.48.48,0,0,1-.35.44.24.24,0,0,1-.34-.24V26.39a.48.48,0,0,1,.34-.44A.24.24,0,0,1,64.67,26.19Z"/><path class="cls-23" d="M64.67,22.09v1.37a.49.49,0,0,1-.35.44.25.25,0,0,1-.34-.24V22.29a.49.49,0,0,1,.34-.44A.25.25,0,0,1,64.67,22.09Z"/><path class="cls-22" d="M65.69,24.18a.48.48,0,0,0-.34.44.24.24,0,0,0,.34.24,18.35,18.35,0,0,1,2.79-.62v-.69A19.68,19.68,0,0,0,65.69,24.18Z"/><path class="cls-24" d="M68.44,28.34a24.79,24.79,0,0,0-4.12,1v-.68a25.86,25.86,0,0,1,4.12-1A1.13,1.13,0,0,0,69.33,26c-1.64-2.84-2.47-4.07-4.11-6.55a.77.77,0,0,0-.9-.27v-.68a1.27,1.27,0,0,1,1.5.44c1.65,2.51,2.47,3.77,4.11,6.7A1.86,1.86,0,0,1,68.44,28.34Z"/><path class="cls-22" d="M64.67,22.09v1.37a.49.49,0,0,1-.35.44v-2A.25.25,0,0,1,64.67,22.09Z"/><path class="cls-22" d="M64.67,26.19v1.36a.48.48,0,0,1-.35.44V26A.24.24,0,0,1,64.67,26.19Z"/><path class="cls-23" d="M64.32,23.22a2.45,2.45,0,0,0-1.7,2.2,1.23,1.23,0,0,0,1.7,1.21A2.46,2.46,0,0,0,66,24.43,1.24,1.24,0,0,0,64.32,23.22Z"/><path class="cls-22" d="M66,24.43a2.46,2.46,0,0,1-1.71,2.2V23.22A1.24,1.24,0,0,1,66,24.43Z"/><path class="cls-25" d="M69.93,25.67c-1.64-2.93-2.46-4.19-4.11-6.7a1.27,1.27,0,0,0-1.5-.44,2.52,2.52,0,0,0-1.49,1.31C61.18,23.27,60.36,25,58.72,28a1.57,1.57,0,0,0,1.49,2.4c3.29-.49,4.94-1.55,8.23-2A1.86,1.86,0,0,0,69.93,25.67Zm-1.49,2c-3.29.5-4.94,1.56-8.23,2.05a.92.92,0,0,1-.89-1.42c1.64-3.1,2.46-4.83,4.11-8.27a1.5,1.5,0,0,1,.89-.8.77.77,0,0,1,.9.27C66.86,22,67.69,23.19,69.33,26A1.13,1.13,0,0,1,68.44,27.65Z"/></g><g id="laser"><path class="cls-26" d="M51.54,33c-3.1-.46-4.73-.8-7.83-1.38l3.44-6.21,1,.18C49.49,28.61,50.18,30.1,51.54,33Z"/><path class="cls-27" d="M50.84,16.55c-2.54-.41-3.83-.67-6.4-1.15,0-1.28,0-1.92,0-3.19,2.56.48,3.85.74,6.39,1.14Z"/><path class="cls-28" d="M50.84,16.55,49,16.24V13.05l1.82.3Z"/><path class="cls-29" d="M51.75,17.14c0,1.1,0,1.64,0,2.74a.76.76,0,0,1-.91.77v.91c-2.56-.4-3.86-.66-6.42-1.14V19.5a1.15,1.15,0,0,1-.91-1.08V15.68a.74.74,0,0,1,.91-.74c2.57.48,3.86.74,6.4,1.15A1.1,1.1,0,0,1,51.75,17.14Z"/><path class="cls-30" d="M46.72,19.93l-1.83-.34c0-1.83,0-2.74,0-4.56l1.83.34C46.73,17.2,46.73,18.11,46.72,19.93Z"/><path class="cls-31" d="M52.66,12.72v.91a.39.39,0,0,1-.46.39c-3.62-.53-5.46-.94-9.12-1.61a.57.57,0,0,1-.46-.54V11a.37.37,0,0,1,.46-.37c3.67.67,5.5,1.08,9.12,1.61A.54.54,0,0,1,52.66,12.72Zm-1.82,3.37L49,15.78v4.56l1.83.31a.76.76,0,0,0,.91-.77c0-1.1,0-1.64,0-2.74A1.1,1.1,0,0,0,50.84,16.09Z"/><path class="cls-29" d="M49,13.5c-2.37-.41-3.56-.65-5.94-1.09a.57.57,0,0,1-.46-.54V11a.37.37,0,0,1,.46-.37c2.38.43,3.57.67,5.94,1.09Z"/><path class="cls-32" d="M50.39,21.49v.91c-.83,1.53-1.25,2.28-2.09,3.8a.61.61,0,0,1-.67.28A.91.91,0,0,1,47,26c-.84-1.81-1.25-2.72-2.08-4.54V20.5C47.09,20.91,48.2,21.13,50.39,21.49Z"/><path class="cls-33" d="M50.85,20.65V22a.38.38,0,0,1-.46.38c-.83,1.53-1.25,2.28-2.09,3.8a.61.61,0,0,1-.67.28A.91.91,0,0,1,47,26l0-.05c.84-1.49,1.25-2.23,2.08-3.73-1.65-.29-2.49-.45-4.13-.76a.56.56,0,0,1-.46-.54V19.5c2.57.48,3.86.74,6.42,1.15Z"/><path class="cls-34" d="M50.85,20.65V22a.38.38,0,0,1-.46.38L49,22.17V20.34Z"/><path class="cls-35" d="M46.58,32.21a.28.28,0,0,1-.34.28l-5-.94a.41.41,0,0,1-.33-.4.27.27,0,0,1,.33-.28l5,.93A.44.44,0,0,1,46.58,32.21Zm1.05-1.52a.28.28,0,0,0-.35.28v1.37a.42.42,0,0,0,.34.4.28.28,0,0,0,.35-.28V31.09A.43.43,0,0,0,47.63,30.69Zm0-3.19a.27.27,0,0,0-.34.28V29.6a.45.45,0,0,0,.35.41.28.28,0,0,0,.34-.28c0-.73,0-1.1,0-1.83A.43.43,0,0,0,47.63,27.5ZM54,33.05c-2-.23-3-.4-5-.75a.28.28,0,0,0-.34.28A.43.43,0,0,0,49,33c2,.35,3.05.51,5,.74a.29.29,0,0,0,.33-.3A.39.39,0,0,0,54,33.05Z"/></g><g id="laser-2" data-name="laser"><path class="cls-26" d="M31.12,28.86c-3.1-.47-4.73-.8-7.82-1.38,1.36-2.49,2.05-3.72,3.43-6.21l1,.18C29.07,24.43,29.76,25.92,31.12,28.86Z"/><path class="cls-27" d="M30.43,12.36c-2.55-.41-3.84-.67-6.4-1.15C24,9.94,24,9.3,24,8c2.56.48,3.84.74,6.39,1.15Z"/><path class="cls-28" d="M30.43,12.36l-1.83-.3c0-1.28,0-1.92,0-3.2l1.82.31Z"/><path class="cls-29" d="M31.34,13v2.73a.76.76,0,0,1-.91.77v.92c-2.55-.41-3.85-.67-6.42-1.15,0-.36,0-.55,0-.91a1.16,1.16,0,0,1-.92-1.08V11.5a.74.74,0,0,1,.92-.74c2.56.48,3.85.74,6.4,1.15A1.1,1.1,0,0,1,31.34,13Z"/><path class="cls-30" d="M26.31,15.75l-1.84-.35c0-1.82,0-2.73,0-4.56l1.83.35C26.31,13,26.31,13.92,26.31,15.75Z"/><path class="cls-31" d="M32.24,8.53v.91a.38.38,0,0,1-.45.39c-3.63-.52-5.47-.94-9.13-1.61a.57.57,0,0,1-.46-.54c0-.36,0-.54,0-.91a.37.37,0,0,1,.46-.37c3.66.67,5.49,1.08,9.12,1.61A.54.54,0,0,1,32.24,8.53Zm-1.81,3.38L28.6,11.6v4.56c.73.13,1.1.19,1.83.3a.76.76,0,0,0,.91-.77V13A1.1,1.1,0,0,0,30.43,11.91Z"/><path class="cls-29" d="M28.61,9.32c-2.38-.42-3.57-.66-5.95-1.1a.57.57,0,0,1-.46-.54c0-.36,0-.54,0-.91a.37.37,0,0,1,.46-.37c2.38.44,3.57.68,5.94,1.09Z"/><path class="cls-32" d="M30,17.3v.92c-.83,1.52-1.25,2.28-2.09,3.79a.6.6,0,0,1-.66.29,1,1,0,0,1-.67-.53c-.84-1.82-1.25-2.72-2.08-4.54v-.91C26.67,16.73,27.78,17,30,17.3Z"/><path class="cls-33" d="M30.43,16.46v1.37a.38.38,0,0,1-.46.39c-.83,1.52-1.25,2.28-2.09,3.79a.6.6,0,0,1-.66.29,1,1,0,0,1-.67-.53l0-.05L28.6,18c-1.65-.28-2.48-.44-4.13-.75a.58.58,0,0,1-.46-.54c0-.55,0-.82,0-1.37,2.56.48,3.86.74,6.41,1.14Z"/><path class="cls-34" d="M30.43,16.46v1.37a.38.38,0,0,1-.46.39L28.6,18V16.16C29.33,16.29,29.7,16.35,30.43,16.46Z"/><path class="cls-35" d="M26.17,28a.28.28,0,0,1-.35.27c-2-.37-3.05-.58-5-.93a.43.43,0,0,1-.33-.4.28.28,0,0,1,.33-.29l5,.94A.44.44,0,0,1,26.17,28Zm1-1.53a.29.29,0,0,0-.35.28v1.37a.45.45,0,0,0,.35.41.28.28,0,0,0,.34-.28c0-.55,0-.82,0-1.37A.45.45,0,0,0,27.21,26.5Zm0-3.19a.28.28,0,0,0-.35.28v1.83a.42.42,0,0,0,.34.4.28.28,0,0,0,.35-.28V23.72A.44.44,0,0,0,27.22,23.31Zm6.38,5.55c-2-.23-3-.39-5-.74a.27.27,0,0,0-.34.28.42.42,0,0,0,.34.4c2,.35,3.05.52,5,.75a.3.3,0,0,0,.33-.31A.39.39,0,0,0,33.6,28.86Z"/></g><path class="cls-11" d="M8.64,9.57V28.9l47.7,9V17Zm46,22.78a2.42,2.42,0,0,1-2.88,2.38l-39.4-7.47a2.43,2.43,0,0,1-2-2.38V14.54a2.43,2.43,0,0,1,2.88-2.39l39.39,7.47a2.43,2.43,0,0,1,2,2.39Z"/><path class="cls-36" d="M13.84.65,8.64,9.57,56.34,17l5.5-9.62ZM54.59,15.23,10.82,8.53l3-5.2a2.43,2.43,0,0,1,2.47-1.19L54.91,8.05a2.43,2.43,0,0,1,1.73,3.62Z"/><g class="cls-37"><path class="cls-38" d="M52.61,19.62,13.22,12.15a2.43,2.43,0,0,0-2.88,2.39V24.88a2.43,2.43,0,0,0,2,2.38l39.4,7.47a2.42,2.42,0,0,0,2.88-2.38V22A2.43,2.43,0,0,0,52.61,19.62Z"/><path class="cls-38" d="M54.91,8.05,16.29,2.14a2.43,2.43,0,0,0-2.47,1.19l-3,5.2,43.77,6.7,2-3.56A2.43,2.43,0,0,0,54.91,8.05Z"/></g></g></g></g></svg>