<svg xmlns="http://www.w3.org/2000/svg" xmlns:xlink="http://www.w3.org/1999/xlink" viewBox="0 0 37.06 87.43"><defs><style>.cls-1{fill:url(#New_Gradient_Swatch_4);}.cls-2{fill:#284961;}.cls-3{fill:#182438;}.cls-4{fill:#0f8443;}.cls-5{fill:#0e783d;}.cls-6{fill:#1b8e4a;}.cls-7{fill:#0fa14a;}.cls-8{fill:#25a149;}.cls-9{fill:#079647;}.cls-10{fill:#2a9656;}.cls-11{fill:#0b7a3e;}.cls-12{fill:#6cbd45;}.cls-13{fill:#096e38;}.cls-14{fill:#2a8541;}.cls-15{fill:#116935;}.cls-16{fill:#92c73e;}.cls-17{fill:#30a749;}.cls-18{fill:#235d2e;}.cls-19{fill:#21b14b;}.cls-20{fill:#126936;}.cls-21{fill:#138542;}.cls-22{fill:#1f8b44;}.cls-23{fill:#1f9c48;}.cls-24{fill:#2db24a;}.cls-25{fill:#eece8d;}.cls-26{fill:#e4c084;}.cls-27{fill:#e9c484;}.cls-28{fill:#dcb275;}.cls-29{fill:#0a8743;}.cls-30{fill:#0b743b;}.cls-31{fill:#09743b;}.cls-32{fill:#118040;}.cls-33{fill:#00793e;}.cls-34{fill:#066e39;}.cls-35{fill:#14b14b;}.cls-36{fill:#50b748;}.cls-37{fill:#029b49;}.cls-38{fill:#51b748;}.cls-39{fill:#099648;}.cls-40{fill:#158744;}.cls-41{fill:#1ca554;}.cls-42{fill:#29a05a;}.cls-43{fill:#168c4a;}.cls-44{fill:#229150;}.cls-45{fill:#6aa9ff;opacity:0.38;}.cls-46{fill:#3d3d3d;}.cls-47{fill:#1f1f1f;}.cls-48{fill:#007f39;}</style><linearGradient id="New_Gradient_Swatch_4" x1="17.41" y1="43.71" x2="37.06" y2="43.71" gradientUnits="userSpaceOnUse"><stop offset="0.02" stop-color="#244157"/><stop offset="0.5" stop-color="#284961"/><stop offset="0.99" stop-color="#192e3d"/></linearGradient></defs><title>lab_07</title><g id="Layer_2" data-name="Layer 2"><g id="климатическаякамера"><g id="lab_07"><polygon class="cls-1" points="20.24 0 17.41 87.43 35.5 85.33 37.06 1.9 20.24 0"/><polygon class="cls-2" points="2.34 1.44 20.24 0 17.41 87.43 0 84.48 2.34 1.44"/><polygon class="cls-3" points="3.08 47.66 2.93 52.75 16.19 53.63 16.37 47.66 3.08 47.66"/><polygon class="cls-3" points="3.81 23.76 3.59 31.01 16.84 32.16 17.08 24.36 3.81 23.76"/><polygon class="cls-4" points="11.3 3.61 10.9 3.64 10.9 3.64 11.3 3.61 11.3 3.61"/><path class="cls-4" d="M13.62,25.32A119.68,119.68,0,0,0,11.31,3.61l-.41,0c1.41,7.15,1.92,21.68,1.92,21.68Z"/><path class="cls-5" d="M15,4.74c-.27.23-1.88,11-1.88,20.58h.69s0-15.44,1.52-20.58C15.34,4.74,15.29,4.52,15,4.74Z"/><path class="cls-6" d="M15.41,10.37a67.16,67.16,0,0,0-1.79,15h.51s.39-11.21,1.51-14.95C15.64,10.37,15.61,10.21,15.41,10.37Z"/><path class="cls-7" d="M12.07,8.28a5.08,5.08,0,0,1,2,1.75c.52,1,1,2.11,1,2.11a2.43,2.43,0,0,0-.45-2.59A3.75,3.75,0,0,0,12.07,8.28Z"/><polygon class="cls-8" points="17.47 11.51 17.45 12.08 17.45 12.08 17.47 11.51"/><path class="cls-8" d="M17.47,11.49a1.28,1.28,0,0,0-.72-.11,2.92,2.92,0,0,0-1.66.76,3.85,3.85,0,0,1,2.37-.06v-.59Z"/><path class="cls-9" d="M15.46,8.28s.56,2.38-.37,3.86A3.33,3.33,0,0,0,16.24,10,2.21,2.21,0,0,0,15.46,8.28Z"/><path class="cls-10" d="M14.45,11c-.71-.55-2.16.22-2.16.22a4.16,4.16,0,0,1,2.8,1A1.39,1.39,0,0,0,14.45,11Z"/><path class="cls-11" d="M15.09,12.14a2.08,2.08,0,0,0,.14-2.93A10.75,10.75,0,0,1,15.09,12.14Z"/><path class="cls-12" d="M15.09,12.14a6.45,6.45,0,0,1,1.58-1A1.41,1.41,0,0,0,15.09,12.14Z"/><path class="cls-13" d="M12.76,8.61A4.53,4.53,0,0,0,9.36,8a6.14,6.14,0,0,1,3,1.36c.94,1,1.83,2.13,1.83,2.13A2.94,2.94,0,0,0,12.76,8.61Z"/><polygon class="cls-14" points="17.51 10.29 17.5 10.56 17.51 10.29 17.51 10.29"/><path class="cls-14" d="M15.82,10a3.58,3.58,0,0,0-1.68,1.44,5.27,5.27,0,0,1,3.36-.87v-.32A1.68,1.68,0,0,0,15.82,10Z"/><path class="cls-15" d="M13.29,6.88s1.44,2.57.85,4.6a4,4,0,0,0,.62-2.89A2.61,2.61,0,0,0,13.29,6.88Z"/><path class="cls-16" d="M13,10.33c-1-.4-2.43,1-2.43,1s2.2-.7,3.56.18A1.66,1.66,0,0,0,13,10.33Z"/><path class="cls-17" d="M13.34,8a12.89,12.89,0,0,1,.8,3.45S15.4,9.22,13.34,8Z"/><path class="cls-18" d="M14.14,11.48a7.68,7.68,0,0,1,1.52-1.63A1.71,1.71,0,0,0,14.14,11.48Z"/><path class="cls-19" d="M9.05,10a5.46,5.46,0,0,0-3.91,1.52,7.47,7.47,0,0,1,3.91-.48c1.62.46,3.26,1.05,3.26,1.05A3.59,3.59,0,0,0,9.05,10Z"/><path class="cls-20" d="M13.13,9.58a4.27,4.27,0,0,0-.82,2.55c.61-1.94,3.33-3.26,3.33-3.26A2.25,2.25,0,0,0,13.13,9.58Z"/><path class="cls-21" d="M8.5,7.9s3.13,1.75,3.81,4.23a4.93,4.93,0,0,0-1.2-3.39A3.18,3.18,0,0,0,8.5,7.9Z"/><path class="cls-22" d="M10.4,11.65c-1.29.23-1.9,2.56-1.9,2.56s1.84-2.12,3.81-2.08A2,2,0,0,0,10.4,11.65Z"/><path class="cls-23" d="M9.28,9.06a15.85,15.85,0,0,1,3,3.07S12.17,9,9.28,9.06Z"/><path class="cls-24" d="M12.31,12.13a9.28,9.28,0,0,1,.53-2.65A2.05,2.05,0,0,0,12.31,12.13Z"/><path class="cls-19" d="M12,13a6,6,0,0,0-4.52-.89A8.19,8.19,0,0,1,11.38,14c1.23,1.37,2.41,2.88,2.41,2.88A3.92,3.92,0,0,0,12,13Z"/><polygon class="cls-20" points="17.34 15.77 17.34 15.77 17.37 14.9 17.37 14.9 17.34 15.77"/><path class="cls-20" d="M16,15a4.68,4.68,0,0,0-2.25,1.88,6.09,6.09,0,0,1,3.55-1.1l0-.87A2.07,2.07,0,0,0,16,15Z"/><path class="cls-21" d="M12.73,10.72s1.88,3.46,1.06,6.15c0,0,1.39-2,.87-3.84A3.47,3.47,0,0,0,12.73,10.72Z"/><path class="cls-22" d="M12.3,15.31C11,14.77,9,16.57,9,16.57s3-.89,4.76.3A2.27,2.27,0,0,0,12.3,15.31Z"/><path class="cls-23" d="M12.77,12.25a17.62,17.62,0,0,1,1,4.62S15.5,13.88,12.77,12.25Z"/><path class="cls-24" d="M13.79,16.87a10.12,10.12,0,0,1,2-2.14A2.24,2.24,0,0,0,13.79,16.87Z"/><path class="cls-7" d="M4.39,5.16l.06,0v0Z"/><path class="cls-7" d="M4.46,5.09v0Z"/><path class="cls-7" d="M4.45,5.14h0v0Z"/><polygon class="cls-7" points="9.21 3.77 7.4 3.92 9.21 3.77 9.21 3.77"/><path class="cls-7" d="M8.31,4.69c1.62.46,3.25,1,3.25,1a3.58,3.58,0,0,0-2.35-2L7.4,3.92,6.25,4A5.73,5.73,0,0,0,4.46,5.09v0A7.37,7.37,0,0,1,8.31,4.69Z"/><path class="cls-8" d="M11.56,5.74a5.1,5.1,0,0,1,1.82-2.3l-1.22.1A4.35,4.35,0,0,0,11.56,5.74Z"/><polygon class="cls-9" points="11.19 3.62 10.87 3.64 11.19 3.62 11.19 3.62"/><path class="cls-9" d="M11.56,5.74a6.19,6.19,0,0,0-.37-2.12l-.32,0-.47,0A5.34,5.34,0,0,1,11.56,5.74Z"/><path class="cls-10" d="M9.66,5.26c-1.3.23-1.91,2.55-1.91,2.55S9.6,5.69,11.56,5.74A2,2,0,0,0,9.66,5.26Z"/><polygon class="cls-11" points="9.78 3.73 9.78 3.73 9.78 3.73 9.78 3.73"/><path class="cls-11" d="M11.56,5.74a4.05,4.05,0,0,0-.76-2.09l-1,.08h0A11.8,11.8,0,0,1,11.56,5.74Z"/><path class="cls-12" d="M11.56,5.74a12.26,12.26,0,0,1,.36-2.18l-.28,0A2.25,2.25,0,0,0,11.56,5.74Z"/><path class="cls-7" d="M9,18.35A6.71,6.71,0,0,0,4.22,20.2S7,19.07,9,19.62s4,1.28,4,1.28A4.37,4.37,0,0,0,9,18.35Z"/><path class="cls-8" d="M14,17.78a5.24,5.24,0,0,0-1,3.12c.75-2.38,4.08-4,4.08-4A2.77,2.77,0,0,0,14,17.78Z"/><path class="cls-9" d="M8.33,15.73S12.16,17.87,13,20.9c0,0,.09-2.76-1.47-4.14A3.9,3.9,0,0,0,8.33,15.73Z"/><path class="cls-10" d="M10.66,20.32c-1.58.28-2.33,3.12-2.33,3.12S10.59,20.85,13,20.9A2.49,2.49,0,0,0,10.66,20.32Z"/><path class="cls-11" d="M9.29,17.15A19.53,19.53,0,0,1,13,20.9S12.83,17.06,9.29,17.15Z"/><path class="cls-12" d="M13,20.9a11.52,11.52,0,0,1,.65-3.24A2.52,2.52,0,0,0,13,20.9Z"/><path class="cls-13" d="M13.94,5.11A2.56,2.56,0,0,0,12,4.75a3.42,3.42,0,0,1,1.68.78c.54.58,1.05,1.22,1.05,1.22A1.68,1.68,0,0,0,13.94,5.11Z"/><path class="cls-14" d="M15.69,5.92a2,2,0,0,0-1,.83,3.38,3.38,0,0,1,2.15-.49A1.09,1.09,0,0,0,15.69,5.92Z"/><path class="cls-15" d="M14.25,4.11a4.13,4.13,0,0,1,.48,2.64,2.33,2.33,0,0,0,.36-1.66A1.5,1.5,0,0,0,14.25,4.11Z"/><path class="cls-16" d="M14.09,6.09c-.58-.23-1.4.55-1.4.55a2.88,2.88,0,0,1,2,.11A1,1,0,0,0,14.09,6.09Z"/><path class="cls-17" d="M14.27,4.77a7.25,7.25,0,0,1,.46,2A1.45,1.45,0,0,0,14.27,4.77Z"/><path class="cls-18" d="M14.73,6.75a4.51,4.51,0,0,1,.87-.93A1,1,0,0,0,14.73,6.75Z"/><polygon class="cls-25" points="10.85 30.21 13.37 30.21 13.37 25.81 9.86 25.81 10.85 30.21"/><polygon class="cls-26" points="13.37 30.21 15.89 30.21 16.88 25.81 13.37 25.81 13.37 30.21"/><rect class="cls-27" x="8.26" y="23.99" width="5.11" height="1.81"/><line class="cls-28" x1="17.09" y1="23.99" x2="17.04" y2="25.81"/><polygon class="cls-28" points="17.04 25.81 17.04 25.81 17.09 24 17.09 24 17.04 25.81"/><polygon class="cls-28" points="13.37 24 13.37 25.81 17.04 25.81 17.09 24 13.37 24"/><path class="cls-29" d="M9.88,33.5C7.74,31.9,5.6,34,5.6,34,13.38,29.18,10,48,10,48h2.42S12.32,35.34,9.88,33.5Z"/><path class="cls-30" d="M9.4,39.32C8.63,47.88,8.71,48,8.71,48h1.6s-1.6-13.85,2.36-17.65C12.67,30.35,10.17,30.75,9.4,39.32Z"/><path class="cls-31" d="M10.15,35.88s1.12-.53,1.91,4.84.06,7.28.06,7.28h1.51a69.83,69.83,0,0,0-1.43-8.82C11.2,35,10.15,35.88,10.15,35.88Z"/><path class="cls-32" d="M11.51,40.05a18.82,18.82,0,0,0,0,8h.93s-2.08-10.71,1.82-11.76C14.26,36.24,12.45,35.77,11.51,40.05Z"/><path class="cls-33" d="M11.24,48h.65a27,27,0,0,1,1.89-7.78,15.5,15.5,0,0,0-1.44,3.42C11.71,46.48,11.24,48,11.24,48Z"/><path class="cls-34" d="M7.24,40.42c4.59,1.46,3.6,7.58,3.6,7.58h.67C11.51,38.91,7.24,40.42,7.24,40.42Z"/><path class="cls-35" d="M9.14,31.16c.35,2.14,2,1.66,2,1.66s1.66,3.72,4.12,1,.81-6.68.81-6.68C12.57,26.65,8.8,29,9.14,31.16Zm5.45-3.06s-1.58,1.06-1.77.34S14.59,28.1,14.59,28.1ZM10,31.68c-.2-.72,1.77-.34,1.77-.34S10.23,32.4,10,31.68ZM10.7,30c-.26-1,2.4-.46,2.4-.46S11,31,10.7,30Zm2.66,3.78c-1,.21-.32-2.45-.32-2.45S14.36,33.58,13.36,33.79Zm1.1-1.95c-.73.15-.23-1.79-.23-1.79S15.19,31.69,14.46,31.84Zm1-1.55c-.73.15-.24-1.79-.24-1.79S16.21,30.14,15.48,30.29Z"/><path class="cls-36" d="M7.11,40.42a1.29,1.29,0,0,0-2.09-1c-1.84.95-.48,5.3-.48,5.3s4,.71,5.2-1.54S8.17,40,7.11,40.42Zm1.73.77c.3.61-1.53.59-1.53.59S8.55,40.57,8.84,41.19ZM6.29,39.84c.66-.15.24,1.62.24,1.62S5.62,40,6.29,39.84Zm-1.2,4.21s-.91-1.47-.25-1.62S5.09,44.05,5.09,44.05Zm.45-1.47s-1.31-2.13-.35-2.35S5.54,42.58,5.54,42.58Zm.3,1.26s1.63-.58,1.64.1S5.84,43.84,5.84,43.84Zm.69-1s2.3-1.27,2.48-.25S6.53,42.8,6.53,42.8Z"/><polygon class="cls-37" points="3.5 33.84 3.45 35.54 3.5 33.84 3.5 33.84"/><path class="cls-37" d="M5.36,36.4c2.11-.26,3.78-.7,4.35-1.76s-.4-2.43-1.52-2A1.79,1.79,0,0,0,6,31.66,4.45,4.45,0,0,0,3.5,33.84l0,1.7,0,.81A5.07,5.07,0,0,0,5.36,36.4Zm3.86-2.84c.19.89-2.19.3-2.19.3S9,32.66,9.22,33.56ZM6.6,31.9c.64.22-.64,1.52-.64,1.52S6,31.69,6.6,31.9Zm1,3c0,.71-1.72-.2-1.72-.2S7.65,34.2,7.62,34.92ZM5.34,32.67c.65.22-.63,1.52-.63,1.52S4.7,32.46,5.34,32.67Zm.28,2.84c0,.59-1.42,0-1.42,0S5.59,34.93,5.62,35.51ZM4.19,34c.47.16-.47,1.12-.47,1.12S3.71,33.85,4.19,34Z"/><path class="cls-38" d="M10.16,35.88a1.32,1.32,0,0,0-1.79,0,3.73,3.73,0,0,0-.81,3.92s.46.28,1.82-.52,2.36-1.62,2.43-2.51A1,1,0,0,0,10.16,35.88ZM8.74,36c.42-.47.24,1.22.24,1.22S8.32,36.47,8.74,36Zm-.82,3.15s-.48-.53-.18-.87S7.92,39.14,7.92,39.14Zm.14-2.26c.43-.49.25,1.27.25,1.27S7.62,37.38,8.06,36.88Zm.27,2.26s.43-.64.87-.42S8.33,39.14,8.33,39.14Zm.54-.83s.61-.94,1.25-.62S8.87,38.31,8.87,38.31Zm.74-1.06s.76-1.16,1.55-.76S9.61,37.25,9.61,37.25Z"/><polygon class="cls-9" points="16.75 35.43 16.65 38.54 16.75 35.43 16.75 35.43"/><path class="cls-9" d="M16.21,35.05c-1.73-.77-2.17.57-1.75,1.19,0,0-1.47-.81-1.76.42-.25,1.06,1.72,2.75,3.93,2.66l0-.78.1-3.11A2,2,0,0,0,16.21,35.05Zm.29,1c.42.06.06,1.21.06,1.21C16,36.85,16.08,36,16.5,36.08Zm-1.27-1c.48-.1.56,1.28.56,1.28C15.05,36.06,14.75,35.16,15.23,35.05Zm-1.94,1.53c.36-.51,1.62.74,1.62.74C14,37.7,12.92,37.09,13.29,36.58Zm1.13,1.17c.14-.44,1.33.13,1.33.13C15.18,38.38,14.29,38.2,14.42,37.75Zm1.29.73c.1-.32.94.09.94.09C16.25,38.92,15.62,38.8,15.71,38.48Z"/><path class="cls-39" d="M14.87,39.47c-1.08-.48-1.35.35-1.09.74,0,0-.9-.51-1.08.25s1.52,2.08,3.13,1.52C15.83,42,15.94,40,14.87,39.47Zm0,.45c.4-.09,0,.95,0,.95S14.45,40,14.84,39.92Zm-.52-.35c.29-.06,0,.69,0,.69S14,39.62,14.32,39.57Zm-1.24,1.09c-.07-.28.7,0,.7,0S13.16,40.94,13.08,40.66Zm.38.51c-.11-.44,1.09-.06,1.09-.06S13.58,41.61,13.46,41.17Zm.87.41c-.08-.28.69,0,.69,0S14.4,41.86,14.33,41.58Zm1-.11s-.29-.63,0-.69S15.29,41.47,15.29,41.47Z"/><polygon class="cls-25" points="8.72 51.93 11.09 51.93 11.09 47.81 7.8 47.81 8.72 51.93"/><polygon class="cls-26" points="11.09 51.93 13.45 51.93 14.37 47.81 11.09 47.81 11.09 51.93"/><rect class="cls-27" x="6.31" y="46.11" width="4.78" height="1.7"/><rect class="cls-28" x="11.08" y="46.11" width="4.78" height="1.7"/><path class="cls-40" d="M8.1,64.89c-.86-.64-2.59-.58-2.68-.11S6,66.17,6.66,66.47a6.91,6.91,0,0,1,2.63,2.41c.27.8,1.37,2.09,2,1.26a6,6,0,0,0-.55-2.94A8.76,8.76,0,0,0,8.1,64.89Z"/><polygon class="cls-41" points="15.94 62.08 15.93 62.16 15.94 62.08 15.94 62.08"/><path class="cls-41" d="M15,63a5.76,5.76,0,0,0-1.06,1.73,6,6,0,0,0-.78,2c-.25,1.25.28,1.36.28,1.36.36.27.93-.34,1.35-.71s.67-1.56,1.08-2.13l.09-3.16v-.07C15.56,62.42,15.21,62.8,15,63Z"/><path class="cls-42" d="M10.31,53.8c-1.71-.39-1.55,1.83-2.17,4.09S8.76,61,9,63.2a3.66,3.66,0,0,0,2.13,2.94c1.16.09,1.26-2.67,1.46-3.47A7,7,0,0,0,12.14,59C11.6,57.52,12,54.2,10.31,53.8Z"/><polygon class="cls-43" points="2.73 59.38 2.63 62.49 2.63 62.49 2.73 59.38 2.73 59.38"/><path class="cls-43" d="M6.35,64.67c1,.55,3.08,1.45,3.54,1a3.68,3.68,0,0,0-.77-2.58C8.23,62.22,8,61.4,7.48,61.22S5.27,59.54,4,59.48c-.53,0-.93-.08-1.25-.1l-.1,3.11a3.07,3.07,0,0,0,.55.36C4.51,63.52,5.38,64.11,6.35,64.67Z"/><path class="cls-44" d="M12.23,60.58c-.53.75.08,1.22-.39,3s.48,2.12.48,2.12c.5.2,1.44-1.31,1.59-1.81s.05-1.54.36-2.74.7-2.32.35-2.64S12.76,59.84,12.23,60.58Z"/><polygon class="cls-43" points="2.47 67.9 2.47 67.9 2.49 67.08 2.47 67.9"/><path class="cls-43" d="M3.94,68.07a3.38,3.38,0,0,1,3,.57c1.1.77,2.34.72,2.62.37,0,0,.2-1.79-2.16-3a7.37,7.37,0,0,0-4.85-.53l0,1.55,0,.82A3.08,3.08,0,0,0,3.94,68.07Z"/><path class="cls-43" d="M14.07,67.94c-.59,1.06-.22,1.29-.22,1.29.3.15.44-.18,1-.87s1.09-1.78.79-1.88S14.66,66.89,14.07,67.94Z"/><path class="cls-43" d="M14.73,69a3.15,3.15,0,0,0-.81,1.67c-.12,1,1-.09,1.78-1l.05-1.58A4.8,4.8,0,0,0,14.73,69Z"/><polygon class="cls-43" points="15.61 72.79 15.59 73.39 15.59 73.39 15.61 72.79"/><path class="cls-43" d="M15.65,71.63c-.94-.11-1.59.69-1.44,1.06s.76.35,1.38.7l0-.6Z"/><path class="cls-30" d="M3,66.45s6.11.19,7.37,4.17c1.47,4.63,1.06,7.09,1.06,7.09h.44s.35-6.46-2.08-8.86A8.73,8.73,0,0,0,3,66.45Z"/><path class="cls-30" d="M11.68,77.71h.62s-.08-12.42.67-16.15C13,61.56,11.68,65.22,11.68,77.71Z"/><path class="cls-30" d="M13.1,72.22a15.88,15.88,0,0,0-1.18,5.49h.73s.11-5.36,2.78-8.92A11.29,11.29,0,0,0,13.1,72.22Z"/><path class="cls-30" d="M5.1,62.57s4.61,1.65,5.45,4.69.93,10.45.93,10.45h.59S12.29,68.88,10.3,66A9,9,0,0,0,5.1,62.57Z"/><path class="cls-30" d="M13.15,68.39a50.24,50.24,0,0,0-1.47,9.32h.62a74.07,74.07,0,0,1,1-8.65,12,12,0,0,1,2.56-4.89S14.27,64.66,13.15,68.39Z"/><polygon class="cls-30" points="12.07 77.71 12.7 77.71 10.45 59.37 12.07 77.71"/><polygon class="cls-30" points="15.63 72.19 15.63 72.22 15.63 72.19 15.63 72.19"/><path class="cls-30" d="M14.82,72.06c-1.12.08-2.16,1.74-2.31,3s-.21,2.63-.21,2.63h.4a8.66,8.66,0,0,1,1.06-4.46c.62-1,1.33-1,1.86-.88v-.18A1.84,1.84,0,0,0,14.82,72.06Z"/><path class="cls-30" d="M12.07,77.71h.44a17.22,17.22,0,0,1,2-9.81A16.41,16.41,0,0,0,12.07,77.71Z"/><path class="cls-30" d="M14.51,67.9l0-.05Z"/><path class="cls-30" d="M11.68,77.71h.62s-.31-7.91-2.21-10C10.09,67.67,11.68,70.55,11.68,77.71Z"/><polygon class="cls-25" points="12.07 81.33 12.07 81.33 10.04 81.03 12.07 81.33"/><polygon class="cls-25" points="8.57 78.44 9.12 80.9 10.04 81.03 12.07 81.33 12.07 78.44 8.57 78.44"/><path class="cls-26" d="M14.42,81.42l-.09,0Z"/><path class="cls-26" d="M14.74,81.24l-.06,0Z"/><polygon class="cls-26" points="15.01 80.98 15.01 80.98 15.01 80.98 15.01 80.98"/><path class="cls-26" d="M14.06,81.53l-.11,0Z"/><polygon class="cls-26" points="12.07 81.33 13.56 81.54 12.07 81.33 12.07 81.33"/><path class="cls-26" d="M15.44,78.44H12.07v2.89l1.49.21a1.7,1.7,0,0,0,.39,0l.11,0,.27-.07.09,0,.26-.14.06,0A1.66,1.66,0,0,0,15,81h0l.41-1.79Z"/><rect class="cls-27" x="6.97" y="76.63" width="5.11" height="1.81"/><polygon class="cls-28" points="12.07 78.44 15.44 78.44 15.49 76.63 12.07 76.63 12.07 78.44"/><path class="cls-45" d="M5.83,4l10.11-.8a1.6,1.6,0,0,1,1.73,1.64L15.39,80a1.61,1.61,0,0,1-1.84,1.54l-10-1.45a1.61,1.61,0,0,1-1.37-1.63L4.36,5.59A1.59,1.59,0,0,1,5.83,4Z"/><polygon class="cls-46" points="15.55 86.04 2.14 83.76 2.14 81.76 15.55 84.04 15.55 86.04"/><path class="cls-47" d="M15.68,86.19,2,83.87V81.61l13.66,2.33ZM2.27,83.66l13.16,2.23V84.15L2.27,81.91Z"/><rect class="cls-48" x="3.3" y="82.39" width="0.25" height="1.23"/><polygon class="cls-48" points="4.49 83.52 4.09 82.58 4.32 82.48 4.58 83.09 5.12 82.58 5.29 82.76 4.49 83.52"/><rect class="cls-48" x="5.79" y="82.87" width="0.25" height="1.09"/><rect class="cls-48" x="6.79" y="83.24" width="0.25" height="0.6" transform="translate(-76.69 77.34) rotate(-81.03)"/><rect class="cls-48" x="6.62" y="83.47" width="1.24" height="0.25" transform="translate(-76.62 86.59) rotate(-87.09)"/><path class="cls-48" d="M8.74,84.53l-.85-.22V83.08l.85.17Zm-.6-.41.35.09v-.75l-.35-.08Z"/><path class="cls-48" d="M10,84.89l-.85-.22V83.44l.85.17Zm-.6-.41.35.09v-.75l-.35-.08Z"/><polygon class="cls-48" points="9.79 84.4 9.2 84.21 9.28 83.97 9.87 84.16 9.79 84.4"/><rect class="cls-48" x="10.5" y="83.8" width="0.25" height="1.05"/><rect class="cls-48" x="11.33" y="83.9" width="0.25" height="0.97"/><polygon class="cls-48" points="11.58 84.5 11.49 84.27 12.29 83.94 12.38 84.17 11.58 84.5"/><polygon class="cls-48" points="13.88 84.4 12.85 84.28 12.88 84.04 13.91 84.15 13.88 84.4"/><polygon class="cls-48" points="13.57 84.92 13.09 84.89 13.11 84.64 13.59 84.67 13.57 84.92"/><polygon class="cls-48" points="14.21 85.54 12.85 85.35 12.88 85.11 13.99 85.26 14.12 84.35 14.36 84.39 14.21 85.54"/></g></g></g></svg>