<svg xmlns="http://www.w3.org/2000/svg" xmlns:xlink="http://www.w3.org/1999/xlink" viewBox="0 0 520.78 257.26"><defs><style>.cls-1{fill:url(#New_Gradient_Swatch_2);}.cls-2{fill:url(#New_Gradient_Swatch_1);}.cls-3{fill:#c2c2c2;}.cls-4{fill:url(#New_Gradient_Swatch_1-2);}.cls-5{fill:url(#New_Gradient_Swatch_3);}.cls-6{fill:url(#New_Gradient_Swatch_2-2);}.cls-7{fill:url(#New_Gradient_Swatch_2-3);}.cls-8{fill:#284961;}.cls-9{fill:#213b4f;}.cls-10{fill:url(#New_Gradient_Swatch_4);}.cls-11{fill:url(#New_Gradient_Swatch_1-3);}.cls-12{fill:url(#New_Gradient_Swatch_3-2);}.cls-13{fill:url(#New_Gradient_Swatch_3-3);}.cls-14{fill:url(#radial-gradient);}.cls-15,.cls-16,.cls-17,.cls-18,.cls-19,.cls-20,.cls-21,.cls-22,.cls-23{fill-rule:evenodd;}.cls-15,.cls-23{opacity:0.58;}.cls-15{fill:url(#radial-gradient-2);}.cls-16{fill:#181c19;}.cls-17{fill:#101210;}.cls-18{fill:#252b26;}.cls-19{fill:#912d2d;}.cls-20{fill:#782525;}.cls-22{fill:#692121;}.cls-23{fill:url(#radial-gradient-3);}.cls-24{fill:#6d8338;}.cls-25{fill:#317037;}.cls-26{fill:#8b5d3a;}.cls-27{fill:#8d4620;}.cls-28{fill:#c4803c;}.cls-29{fill:#a86e34;}.cls-30{fill:#d9995c;}.cls-31{fill:#a87747;}</style><linearGradient id="New_Gradient_Swatch_2" x1="17.86" y1="144.91" x2="165.86" y2="144.91" gradientUnits="userSpaceOnUse"><stop offset="0.02" stop-color="#8c8c8c"/><stop offset="0.13" stop-color="#848484"/><stop offset="0.5" stop-color="#ebebeb"/><stop offset="0.96" stop-color="#999"/><stop offset="0.99" stop-color="#bfbfbf"/></linearGradient><linearGradient id="New_Gradient_Swatch_1" x1="5.23" y1="124.24" x2="199.97" y2="124.24" gradientUnits="userSpaceOnUse"><stop offset="0.02" stop-color="#616f8c"/><stop offset="0.13" stop-color="#656d84"/><stop offset="0.5" stop-color="#99b9eb"/><stop offset="0.96" stop-color="#406399"/><stop offset="0.99" stop-color="#708fbf"/></linearGradient><linearGradient id="New_Gradient_Swatch_1-2" x1="137.47" y1="39.93" x2="249.66" y2="39.93" xlink:href="#New_Gradient_Swatch_1"/><linearGradient id="New_Gradient_Swatch_3" x1="137.47" y1="37.56" x2="249.66" y2="37.56" gradientUnits="userSpaceOnUse"><stop offset="0.02" stop-color="#3f3f3f"/><stop offset="0.13" stop-color="#373737"/><stop offset="0.5" stop-color="#9f9f9f"/><stop offset="0.96" stop-color="#4d4d4d"/><stop offset="0.99" stop-color="#727272"/></linearGradient><linearGradient id="New_Gradient_Swatch_2-2" x1="137.47" y1="34.84" x2="249.66" y2="34.84" xlink:href="#New_Gradient_Swatch_2"/><linearGradient id="New_Gradient_Swatch_2-3" x1="275.25" y1="44.47" x2="379.58" y2="44.47" xlink:href="#New_Gradient_Swatch_2"/><linearGradient id="New_Gradient_Swatch_4" x1="332.46" y1="71.4" x2="379.46" y2="71.4" gradientUnits="userSpaceOnUse"><stop offset="0.02" stop-color="#244157"/><stop offset="0.5" stop-color="#284961"/><stop offset="0.99" stop-color="#192e3d"/></linearGradient><linearGradient id="New_Gradient_Swatch_1-3" x1="275.13" y1="49.55" x2="379.58" y2="49.55" xlink:href="#New_Gradient_Swatch_1"/><linearGradient id="New_Gradient_Swatch_3-2" x1="275.23" y1="48.19" x2="379.56" y2="48.19" xlink:href="#New_Gradient_Swatch_3"/><linearGradient id="New_Gradient_Swatch_3-3" x1="205" y1="200.38" x2="520.78" y2="200.38" xlink:href="#New_Gradient_Swatch_3"/><radialGradient id="radial-gradient" cx="396.22" cy="210.85" r="336.11" gradientTransform="translate(0 126.51) scale(1 0.4)" xlink:href="#New_Gradient_Swatch_2"/><radialGradient id="radial-gradient-2" cx="196.6" cy="75.48" r="10.25" gradientTransform="translate(0 52.84) scale(1 0.3)" gradientUnits="userSpaceOnUse"><stop offset="0"/><stop offset="1" stop-opacity="0"/></radialGradient><radialGradient id="radial-gradient-3" cx="284.1" cy="91.48" r="10.25" gradientTransform="translate(0 64.04) scale(1 0.3)" xlink:href="#radial-gradient-2"/></defs><title>lab_05</title><g id="Layer_2" data-name="Layer 2"><g id="столы"><g id="lab_05"><path class="cls-1" d="M165.86,96.93c0,21.54-66.27,39-148,39v57c81.73,0,148-17.46,148-39Z"/><path class="cls-2" d="M199.86,94.81c.11,13,.11-.86.11,16.52,0,24-82.07,43.76-187.15,46.08-5.74.13-6.49-5.3-6.94-11-.89-11.13-.61-7.22-.6-13.46C47.51,130,93.33,104.59,93.33,91.07Z"/><path class="cls-3" d="M93.42,55.89C157,63.81,200,79,200,96.33c0,24-82.07,43.76-187.15,46.08a7.58,7.58,0,0,1-6.94-11c5-9.84,11.18-22.28,13.72-27.6,42.23-2.89,73.73-14.2,73.73-27.72Z"/><path class="cls-3" d="M0,142.61c5.05-9.84,16.13-31.69,19.6-38.82"/><path class="cls-4" d="M249.66,39.42c-7,1.5-9.24,2.5-16.83,4.17-20.09-2.84-95.36-3.83-95.36-3.83V36.63s75.27,1,95.36,3.82c7.59-1.66,9.83-2.67,16.83-4.17Z"/><path class="cls-5" d="M249.66,34.68c-7,1.5-9.24,2.5-16.83,4.16C212.74,36,137.47,35,137.47,35v1.61s75.27,1,95.36,3.82c7.59-1.66,9.83-2.67,16.83-4.17Z"/><path class="cls-6" d="M137.47,35l11.3-4.19s86.89.85,100.89,3.85c-7,1.5-9.24,2.5-16.83,4.16C212.74,36,137.47,35,137.47,35Z"/><path class="cls-7" d="M292.33,35.43l-15.55,4.08a2,2,0,0,0,.26,4c13.25,1.69,36.41,5.06,55.54,10,47-4.59,34.25-3.25,47-4.59C354.58,41.76,292.33,35.43,292.33,35.43Z"/><polygon class="cls-8" points="332.46 57.63 332.46 89.76 317.04 84.93 317.04 54.24 332.46 57.63"/><polygon class="cls-9" points="318.46 83.89 318.46 56.01 331.04 58.77 331.04 87.83 318.46 83.89"/><polygon class="cls-10" points="332.46 89.76 377.81 78.35 379.46 53.04 332.46 57.63 332.46 89.76"/><path class="cls-11" d="M379.58,48.92,379.46,53c-12.75,1.34,0,0-47,4.59-19.14-4.93-42.3-8.3-55.55-10a2,2,0,0,1-1.78-2.07l.12-4.1A2,2,0,0,0,277,43.52c13.25,1.69,36.41,5.06,55.54,10C379.58,48.92,366.83,50.26,379.58,48.92Z"/><path class="cls-12" d="M379.56,48.92c-12.75,1.34,0-.07-47,4.52-19.14-4.93-42.3-8.3-55.55-10a2,2,0,0,1-1.76-1.71l0,.83A2,2,0,0,0,277,44.64c13.25,1.69,36.41,5.06,55.55,10,47-4.59,34.25-3.25,47-4.59Z"/><path class="cls-13" d="M520.22,167.51l.56,89.75-299-.34-15.28-19.41a24.07,24.07,0,0,1-1.54-8.75V210.2c-.08-14.68,10.89-43.85,93.8-57.37C412.11,134.34,520.22,149,520.22,149Z"/><path class="cls-14" d="M520.22,149l.56,107.86H236.34L206.54,219s-21-47.7,92.26-66.18S520.22,149,520.22,149Z"/><g id="chair"><path class="cls-15" d="M196.6,72.9c-7.88,0-14.27,1.15-14.27,2.58s6.39,2.59,14.27,2.59,14.27-1.16,14.27-2.59S204.48,72.9,196.6,72.9Z"/><path class="cls-16" d="M199.35,47.57H196.2V58.45l3.15.2Z"/><path class="cls-16" d="M199.35,60.59V58.65l-3.15-.2v2.14Z"/><path class="cls-17" d="M209.82,72.72a.53.53,0,0,0,.75,0v-2h-.75Z"/><path class="cls-16" d="M210.87,72.74h0l-1.69,0h0c-.33,0-.6.82-.6,1.84s.27,1.85.6,1.85h1.7c.31,0,.57-.81.57-1.81S211.18,72.76,210.87,72.74Z"/><path class="cls-18" d="M208.71,72.22a3.38,3.38,0,0,1,.55,1.78c1.4-.07,2.37-.1,2.37-.1a2.77,2.77,0,0,0-.69-1.75Z"/><path class="cls-16" d="M200,62.3l-.5.12c.15,3,.17,5.17.17,5.17,3.82-.13,8.68,2.76,11.29,4.35.13-.6,1-2.24.12-2.87A59.08,59.08,0,0,1,200,62.3Z"/><path class="cls-17" d="M185,72.64a.57.57,0,0,0,.76,0v-2H185Z"/><path class="cls-16" d="M186.41,72.62h0l-1.69,0h0c-.31,0-.56.84-.56,1.84s.26,1.82.57,1.82h1.7c.34,0,.6-.84.6-1.86S186.75,72.62,186.41,72.62Z"/><path class="cls-18" d="M184,73.81l2.36.1a3.31,3.31,0,0,1,.56-1.77l-2.24-.07A2.69,2.69,0,0,0,184,73.81Z"/><path class="cls-16" d="M184.5,69c-.9.63,0,2.27.11,2.87,2.61-1.59,7.47-4.48,11.3-4.34,0,0,0-2.13.16-5.17l-.49-.13A58.81,58.81,0,0,1,184.5,69Z"/><path class="cls-18" d="M199.84,57.65h-4v.78l4,.25Z"/><path class="cls-18" d="M199.84,67.47V58.68l-4-.25v9Z"/><path class="cls-16" d="M204.59,76.07h0l-1.69,0h0c-.34,0-.61.82-.61,1.84s.27,1.85.61,1.85h1.69c.32,0,.58-.81.58-1.82S204.9,76.09,204.59,76.07Z"/><path class="cls-18" d="M202.42,75.55a3.35,3.35,0,0,1,.56,1.78c1.4-.07,2.36-.1,2.36-.1a2.72,2.72,0,0,0-.68-1.75Z"/><path class="cls-17" d="M203.53,76.05a.54.54,0,0,0,.75,0V74h-.75Z"/><path class="cls-16" d="M198.87,63.06l-1.91.19a16.24,16.24,0,0,0-.54,4.22s.71,1.51,4.87,5.17c.76.67,1.49.91,1.77,2.13.56.15,1.12.39,1.48,0a3.47,3.47,0,0,0,.05-1.75Z"/><path class="cls-19" d="M197.89,44.92c9,0,14.45,0,14.45,2.52s-5.41,3-14.45,3-16.37-1.23-16.37-2.74S188.85,44.92,197.89,44.92Z"/><path class="cls-20" d="M185,46.37q12.39-1.26,20.93.26A100.34,100.34,0,0,1,185,46.37Z"/><path class="cls-21" d="M196.2,50.39v2a3.75,3.75,0,0,1,3.15,0v-2Z"/><path class="cls-22" d="M188.09,49.36q10.36.73,15.06.55Q199,46.06,188.09,49.36Z"/></g><g id="chair-2" data-name="chair"><path class="cls-23" d="M284.1,88.9c-7.88,0-14.26,1.16-14.26,2.58s6.38,2.59,14.26,2.59,14.27-1.16,14.27-2.59S292,88.9,284.1,88.9Z"/><path class="cls-16" d="M286.86,63.57H283.7V74.46l3.16.19Z"/><path class="cls-16" d="M286.86,76.59V74.65l-3.16-.19v2.13Z"/><path class="cls-17" d="M297.32,88.73a.55.55,0,0,0,.75,0v-2h-.75Z"/><path class="cls-16" d="M298.37,88.74h0l-1.68,0h0c-.33,0-.6.82-.6,1.84s.27,1.85.6,1.86l1.7,0h0c.32,0,.57-.8.57-1.81S298.68,88.77,298.37,88.74Z"/><path class="cls-18" d="M296.21,88.22a3.29,3.29,0,0,1,.55,1.78c1.41-.07,2.37-.1,2.37-.1a2.69,2.69,0,0,0-.68-1.74Z"/><path class="cls-16" d="M287.5,78.3l-.49.12c.15,3,.16,5.17.16,5.17,3.82-.13,8.69,2.76,11.3,4.35.13-.6,1-2.24.11-2.87A58.47,58.47,0,0,1,287.5,78.3Z"/><path class="cls-17" d="M272.51,88.64a.55.55,0,0,0,.75,0v-2h-.75Z"/><path class="cls-16" d="M273.92,88.63h0l-1.68,0h0c-.31,0-.56.84-.56,1.84s.25,1.82.57,1.82h1.7c.33,0,.6-.84.6-1.86S274.25,88.62,273.92,88.63Z"/><path class="cls-18" d="M271.45,89.82l2.37.09a3.23,3.23,0,0,1,.55-1.77l-2.24-.07A2.69,2.69,0,0,0,271.45,89.82Z"/><path class="cls-16" d="M272,85c-.89.63,0,2.27.11,2.87,2.61-1.59,7.48-4.48,11.3-4.34,0,0,0-2.13.16-5.17l-.49-.13A58.47,58.47,0,0,1,272,85Z"/><path class="cls-18" d="M287.34,73.66h-4v.77l4,.25Z"/><path class="cls-18" d="M287.34,83.47V74.68l-4-.25v9Z"/><path class="cls-16" d="M292.09,92.07h0l-1.69,0h0c-.33,0-.6.82-.6,1.84s.27,1.85.6,1.85h1.7c.31,0,.57-.81.57-1.81S292.4,92.09,292.09,92.07Z"/><path class="cls-18" d="M289.92,91.55a3.29,3.29,0,0,1,.56,1.78c1.4-.07,2.36-.1,2.36-.1a2.72,2.72,0,0,0-.68-1.75Z"/><path class="cls-17" d="M291,92.05a.54.54,0,0,0,.75,0V90H291Z"/><path class="cls-16" d="M286.38,79.07l-1.92.18a16.8,16.8,0,0,0-.54,4.22s.71,1.51,4.87,5.17c.76.67,1.49.91,1.77,2.13.56.16,1.12.39,1.48,0A3.32,3.32,0,0,0,292.1,89Z"/><path class="cls-19" d="M285.39,60.92c9,0,14.45,0,14.45,2.52s-5.41,3-14.45,3S269,65.18,269,63.66,276.35,60.92,285.39,60.92Z"/><path class="cls-20" d="M272.54,62.37q12.4-1.26,20.94.27Q285.41,63.61,272.54,62.37Z"/><path class="cls-21" d="M283.7,66.39v2a3.7,3.7,0,0,1,3.16,0v-2Z"/><path class="cls-22" d="M275.59,65.36c6.91.49,11.94.67,15.06.55Q286.5,62.06,275.59,65.36Z"/></g><path class="cls-24" d="M231.2,7.4a2.75,2.75,0,0,0-1.37.91,4.68,4.68,0,0,0-1,1.95l0,0a.91.91,0,0,0,1.6.19c.67-.79.52-2.88,1.3-3.11A1.41,1.41,0,0,0,231.2,7.4Z"/><path class="cls-25" d="M229.11,8a2.24,2.24,0,0,0-.34,2.07,4.55,4.55,0,0,1,.92-1.72,3,3,0,0,1,.9-.73,1.82,1.82,0,0,1,.62-.21h0a1.41,1.41,0,0,1,.58,0h0A2.07,2.07,0,0,0,229.11,8Z"/><path class="cls-26" d="M232,23.38v-.19h0c0-.15,0-.3,0-.45h0c0-.62-.05-1.25-.11-1.87l-.09-.67a.5.5,0,0,0,0-.12l.07-.1,0-.06.19-.31.08-.12c.25-.41.51-.83.76-1.26h0l0,0,0-.07,0,0h0c.15-.25.29-.51.43-.77h0a12.9,12.9,0,0,0,1.08-2.61v0h0v0h0a.31.31,0,0,1,0-.08h0l0-.1a1.55,1.55,0,0,0,.05-.23h0l.09-.48h0v0s0-.07,0-.11a.77.77,0,0,0,0-.15h0c0-.11,0-.21,0-.32v-.07c0-.23,0-.47.05-.72a9.53,9.53,0,0,1-.18,1.13l-.06.24a10.28,10.28,0,0,1-1.4,3.11l0,0c-.41.65-.87,1.24-1.32,1.83l-.29.39c-.07-.3-.15-.61-.23-.9A40.14,40.14,0,0,0,229,12l0-.1-.11-.23,0-.06-.27-.6c0-.08-.07-.15-.1-.23-.26-.6-.51-1.2-.75-1.81.22.69.46,1.37.71,2v0l.6,1.61v0l.35.93.07.2c.23.63.45,1.27.66,1.91l0,.07a26.29,26.29,0,0,1,.95,3.89,14.61,14.61,0,0,1,.14,1.47v.19c0,.39,0,.79,0,1.19v0c0,.09,0,.41,0,.8v.19H232v-.16Z"/><path class="cls-27" d="M226.74,28.93s.09-3.68,1.49-4.61a10.38,10.38,0,0,0,2.18-1.95s1.1-.79,1.56-.47.79,1.36,1.32,1.44.91.65,1.16,1.22,1.4,2,.91,3S226.74,28.93,226.74,28.93Z"/><path class="cls-28" d="M231,28l-5-.11.89,8.12s2.72.42,3.63.48a6.61,6.61,0,0,0,.89,0c.91-.06,3.63-.48,3.63-.48L236,27.9Z"/><path class="cls-29" d="M231,28s-1.35,8.43-.44,8.49a6.61,6.61,0,0,0,.89,0c.91-.06,3.63-.48,3.63-.48L236,27.9Z"/><path class="cls-30" d="M236.84,28.39c0,.27-.14.49-.31.49H225.45c-.17,0-.31-.22-.31-.49V25.3c0-.27.14-.49.31-.49h11.08c.17,0,.31.22.31.49Z"/><path class="cls-31" d="M236.84,28.39c0,.27-.14.49-.31.49H231l.74-4.07h4.8c.17,0,.31.22.31.49Z"/><path class="cls-25" d="M227.28,0a8.18,8.18,0,0,0-1.42,5.73c.1,1.32.7,2.32,1.41,2.42a10.34,10.34,0,0,1-.72-3.24,11.12,11.12,0,0,1,.34-3.76,9.55,9.55,0,0,0-.19,1,7.27,7.27,0,0,1,.54-1.87A2.89,2.89,0,0,1,227.28,0Z"/><path class="cls-24" d="M228.84,5.19c-.14-1.88-1.76-3.3-1.6-4.9a7.27,7.27,0,0,0-.54,1.87,12.3,12.3,0,0,0-.07,2.45,10,10,0,0,0,.86,3.55h0C228.37,8,229,6.68,228.84,5.19Z"/><path class="cls-25" d="M226.79,12.89c.59.35,1.22-.06,1.41-.88,0,0,0,0,0-.06a3.4,3.4,0,0,0-1.31-1.42,2,2,0,0,0-1.46-.27l.14,0a1.16,1.16,0,0,0-.66.26C225.68,10.36,226,12.43,226.79,12.89Z"/><path class="cls-24" d="M227,10.49a3.43,3.43,0,0,1,1.21,1.24,2,2,0,0,0-.77-1.82,2,2,0,0,0-2.56.58h0a1.16,1.16,0,0,1,.66-.26A2,2,0,0,1,227,10.49Z"/><path class="cls-25" d="M232.19,10.23c.6.58,0,2.21.42,3.2.29.74.89,1,1.34.67l0,0a5.64,5.64,0,0,0-.4-2.08,4.29,4.29,0,0,0-.42-.83,2.85,2.85,0,0,0-.94-.94Z"/><path class="cls-24" d="M234.23,12.11c-.66-1.7-1.81-1.86-2-1.88a2.85,2.85,0,0,1,.94.94,3.65,3.65,0,0,0-.5-.62,3.81,3.81,0,0,1,1,1.55,5.53,5.53,0,0,1,.39,1.86A2,2,0,0,0,234.23,12.11Z"/><path class="cls-24" d="M237.24,7.59a4.12,4.12,0,0,0-1.46,1.56,7.29,7.29,0,0,0-.91,2.68l0,.05c.49.71,1.31.59,1.81-.29.68-1.19.32-3.66,1.15-4.21a1.9,1.9,0,0,0-1,.41A2.16,2.16,0,0,1,237.24,7.59Z"/><path class="cls-25" d="M235,9a3.14,3.14,0,0,0-.19,2.63,7.23,7.23,0,0,1,.86-2.39,4.55,4.55,0,0,1,1.26-1.44,1.9,1.9,0,0,1,1-.41l0,0S236.23,6.76,235,9Z"/><path class="cls-24" d="M236.76,14.36a2.9,2.9,0,0,0-1.83.93v.07c0,1.05.68,1.87,1.43,1.79.95-.1,1.74-2,2.54-1.82a3.31,3.31,0,0,0-.46-.51A2.58,2.58,0,0,0,236.76,14.36Z"/><path class="cls-25" d="M236.23,13.34A1.71,1.71,0,0,0,234.94,15a2.83,2.83,0,0,1,1.67-.76,2.52,2.52,0,0,1,1.88.61l-.05,0a3.31,3.31,0,0,1,.46.51.55.55,0,0,1,.15.08S238.13,13.14,236.23,13.34Z"/></g></g></g></svg>