<svg xmlns="http://www.w3.org/2000/svg" xmlns:xlink="http://www.w3.org/1999/xlink" viewBox="0 0 154.6 177.32"><defs><style>.cls-1{opacity:0.56;fill:url(#radial-gradient);}.cls-2{fill:#ececec;}.cls-3{fill:#989698;}.cls-4{fill:#161516;}.cls-5{fill:#343331;}.cls-6{fill:#87421b;}.cls-7{fill:#5c310e;}.cls-8{fill:#7d5922;}.cls-9{fill:#572900;}.cls-10{fill:#5f2900;}.cls-11{fill:url(#linear-gradient);}.cls-12{fill:#514f58;}.cls-13{fill:#9a723d;}.cls-14{fill:#553000;}.cls-15{fill:#522d00;}.cls-16{fill:#764b19;}.cls-17{fill:#562f00;}.cls-18{fill:#4b4b4f;}.cls-19{fill:#59595c;}.cls-20{fill:#965c1b;}.cls-21{fill:#5a2a00;}.cls-22{fill:#d6d1de;}.cls-23{fill:#a1a1a0;}.cls-24{fill:#babbbd;}.cls-25{fill:#727472;}.cls-26{fill:#141418;}.cls-27{fill:#5c5c5c;}.cls-28{fill:#cacbcb;}.cls-29{fill:#8d8c8e;}.cls-30{fill:#525353;}.cls-31{fill:#141218;}.cls-32{fill:#454545;}.cls-33{fill:#444148;}.cls-34{fill:#656664;}.cls-35{fill:#ccd7db;}</style><radialGradient id="radial-gradient" cx="77.3" cy="147.77" r="50.93" gradientTransform="translate(-17.61 98.95) scale(1.23 0.3)" gradientUnits="userSpaceOnUse"><stop offset="0.02"/><stop offset="1" stop-opacity="0"/></radialGradient><linearGradient id="linear-gradient" x1="81.54" y1="52.37" x2="96.68" y2="33.66" gradientUnits="userSpaceOnUse"><stop offset="0.02" stop-color="#1a1a1a"/><stop offset="0.13" stop-color="#1f1f1f"/><stop offset="0.5" stop-color="#9f9f9f"/><stop offset="0.96" stop-color="#030303"/><stop offset="0.99" stop-color="#727272"/></linearGradient></defs><title>lab_25</title><g id="Layer_2" data-name="Layer 2"><g id="телескоп"><g id="lab_25"><ellipse class="cls-1" cx="77.3" cy="142.76" rx="77.3" ry="34.56"/><g id="path3610"><path class="cls-2" d="M76.68,59.5,95.74,73.75l.61-.75-19-14.17-.64.67Z"/><polygon points="95.83 74.44 75.93 59.56 77.27 58.16 97.06 72.91 95.83 74.44"/></g><g id="path3606"><path class="cls-2" d="M65.41,68,49,87.31a1.36,1.36,0,0,0,1.56,1.31L66.71,69.21,65.41,68Z"/><path d="M50.53,89.12a1.85,1.85,0,0,1-2-1.73l0-.23L65.37,67.24l2,1.93L50.78,89.11h-.25Zm-1-1.66a.76.76,0,0,0,.79.65L66,69.25l-.58-.55Z"/></g><g id="path3688"><path class="cls-3" d="M86.89,70.45l.72.59-4,4.66L83,75.19"/><path d="M83.66,76.2a.5.5,0,0,1-.3-.11l-.66-.5.6-.79.29.21L86.9,71.1l-.32-.26.63-.77.72.58a.5.5,0,0,1,.06.71L84,76A.46.46,0,0,1,83.66,76.2Z"/></g><g id="path3602"><path class="cls-4" d="M69,65.45l14,9.72,3.91-4.72L73.07,60.37l-4,5.08Z"/><path d="M83.06,75.85,68.3,65.56,73,59.68,87.6,70.36ZM69.74,65.35,82.88,74.5l3.27-4-13-9.49Z"/></g><g id="path3600"><path class="cls-5" d="M72.75,76.85l.7-10.32c2.38-2.21,5-3.25,8.36,0l.86,10.15"/><path d="M73.25,76.89l-1-.07L73,66.3l.15-.13c2.14-2,5.1-3.79,9,0l.14.13.88,10.34-1,.08-.85-10c-3.16-2.95-5.42-1.79-7.39,0Z"/></g><g id="rect3668"><rect x="68.04" y="76.49" width="19.37" height="13.35" rx="0.28" ry="0.28"/><path d="M87.13,90H68.31a.47.47,0,0,1-.47-.47V76.77a.48.48,0,0,1,.47-.48H87.13a.48.48,0,0,1,.48.48v12.8A.47.47,0,0,1,87.13,90ZM68.31,76.69a.08.08,0,0,0-.07.08v12.8a.07.07,0,0,0,.07.07H87.13a.07.07,0,0,0,.08-.07V76.77a.08.08,0,0,0-.08-.08Z"/></g><g id="path3674"><path class="cls-6" d="M69.47,85.57l1.86-.27L73,87l-2-.11"/><polygon class="cls-7" points="74.18 87.58 70.97 87.4 71.03 86.4 71.72 86.44 71.14 85.83 69.54 86.06 69.4 85.07 71.51 84.77 74.18 87.58"/></g><g id="path3666"><path class="cls-8" d="M71,87l1.78.14L28.12,158.19l-1.64,1.36"/><polygon class="cls-9" points="26.8 159.93 26.16 159.16 27.74 157.86 71.91 87.56 70.95 87.47 71.03 86.48 73.63 86.69 28.44 158.57 26.8 159.93"/></g><g id="path3664"><path class="cls-8" d="M86.7,86.32l3-.06,29,65-.14,4.2"/><polygon class="cls-10" points="119.06 155.46 118.06 155.43 118.18 151.34 89.38 86.77 86.71 86.83 86.69 85.83 90.02 85.75 119.19 151.14 119.06 155.46"/></g><g id="rect2816"><path class="cls-11" d="M57.46,2.24l77.66,62.55a1.1,1.1,0,0,1,.17,1.56c-2.84,8.94-7.94,13.36-13.54,16.8a1.09,1.09,0,0,1-1.55.17L42.53,20.78a1.11,1.11,0,0,1-.17-1.56A42.71,42.71,0,0,1,55.9,2.41a1.11,1.11,0,0,1,1.56-.17Z"/><path class="cls-12" d="M120.89,83.77a1.3,1.3,0,0,1-.82-.29L42.41,20.93a1.29,1.29,0,0,1-.49-.87,1.36,1.36,0,0,1,.29-1A42.47,42.47,0,0,1,55.78,2.25a1.29,1.29,0,0,1,1.8-.16h0l77.67,62.54a1.31,1.31,0,0,1,.22,1.81c-3,9.29-8.28,13.6-13.58,16.87a1.3,1.3,0,0,1-.86.45ZM56.76,2.2a.93.93,0,0,0-.71.34A42.41,42.41,0,0,0,42.54,19.3a1,1,0,0,0-.22.71.92.92,0,0,0,.34.61l77.66,62.55a.9.9,0,0,0,.67.19.87.87,0,0,0,.61-.33l.05,0c5.25-3.23,10.52-7.49,13.45-16.69l0-.07a.91.91,0,0,0-.13-1.28L57.33,2.4A.88.88,0,0,0,56.76,2.2Z"/></g><g id="path3590"><path class="cls-13" d="M25.1,157.06,64.66,81.81l6.27,5.09L26.52,159.54C24.51,160.65,23.62,160.35,25.1,157.06Z"/><path class="cls-14" d="M24.93,160.62a1,1,0,0,1-.72-.26c-.57-.52-.44-1.57.43-3.51v0L64.5,81l7.09,5.75L26.88,159.92l-.12.06A4.24,4.24,0,0,1,24.93,160.62Zm.62-3.35c-.86,1.92-.68,2.33-.66,2.36a2.69,2.69,0,0,0,1.27-.46L70.28,87l-5.46-4.43Z"/></g><g id="path3592"><path class="cls-13" d="M83.84,90.34l2.84-3.91L118.22,153c1.09,5.91-1.33,2.78-3.2,1.07Z"/><path class="cls-15" d="M118,156.92c-.71,0-1.53-.8-2.52-1.77-.26-.25-.52-.51-.77-.73l-.11-.15-31.31-64,3.51-4.83,31.94,67.43c.46,2.46.37,3.56-.32,3.93A.87.87,0,0,1,118,156.92Zm-2.54-3.18.72.7c.56.55,1.51,1.47,1.82,1.48a8.37,8.37,0,0,0-.23-2.78L86.59,87.41l-2.17,3Z"/></g><g id="path3594"><path class="cls-16" d="M80.64,90l-6.39-.35-2.84,39.68c.64,1.22,1.34,1.29,2.13,0Z"/><path class="cls-17" d="M72.43,130.75h0c-.54,0-1-.41-1.43-1.21l-.06-.13L73.79,89.1l7.44.41L74,129.57C73.48,130.36,73,130.75,72.43,130.75Zm-.51-1.55c.24.43.43.55.51.55a1.42,1.42,0,0,0,.63-.62l7-38.68-5.34-.3Z"/></g><g id="path3604"><path d="M63.61,66.84,76.71,51,81,54.78,68,70.4l-4.37-3.56Z"/><path d="M68.05,71.1,62.9,66.91,76.65,50.3l5,4.43Zm-3.73-4.33,3.59,2.93L80.3,54.84l-3.53-3.1Z"/></g><g id="path3614"><path d="M74.9,46.35l-2.28,2.87,11.5,9.46L86.28,56Z"/><path d="M84.19,59.39,71.93,49.3l2.9-3.67L87,55.94ZM73.32,49.15,84,58l1.54-1.91L75,47.07Z"/></g><g id="g3641"><g id="rect3639"><path d="M83.59,11.79l9.35,7.47a3.76,3.76,0,0,1-2.76,3.46l-9.35-7.47Z"/><path class="cls-12" d="M90.18,22.92a.17.17,0,0,1-.12,0L80.7,15.41a.17.17,0,0,1-.07-.14.18.18,0,0,1,0-.14l2.76-3.46a.2.2,0,0,1,.28,0l9.36,7.47a.22.22,0,0,1,.07.19,4,4,0,0,1-2.89,3.61Zm-9.07-7.7,9.11,7.27a3.52,3.52,0,0,0,2.51-3.14l-9.11-7.27Z"/></g><g id="rect3637"><path d="M73.5,2.74l10.57,8.44c-.52,2.82-1.76,4.11-3.89,4.89L69.6,7.62A6.67,6.67,0,0,1,73.5,2.74Z"/><path class="cls-12" d="M80.18,16.27a.21.21,0,0,1-.13-.05L69.47,7.78a.23.23,0,0,1-.07-.19,6.93,6.93,0,0,1,4-5,.22.22,0,0,1,.21,0L84.2,11a.19.19,0,0,1,.07.19c-.51,2.72-1.67,4.18-4,5ZM69.82,7.54l10.39,8.3a5.37,5.37,0,0,0,3.64-4.57L73.47,3A6.49,6.49,0,0,0,69.82,7.54Z"/></g></g><g id="path3645"><path d="M77.91,21.5l-8.68-6.4L75.6,9.47l6.45,5.31Zm-2.33-6.68,1.21.88,0,0-1.13-.93Z"/></g><g id="path3649"><polygon class="cls-18" points="61.62 22.39 52.69 15.84 56.39 11.19 57.18 11.81 54.12 15.64 61.41 20.99 64.38 16.93 57.18 11.99 57.74 11.16 65.79 16.69 61.62 22.39"/></g><g id="rect3658"><path d="M48.78,84.47l3.95-4.42a1.36,1.36,0,0,1,1.74-.19l2.91,2a1,1,0,0,1,.2,1.53l-3.95,4.42a1.35,1.35,0,0,1-1.74.19L49,86A1,1,0,0,1,48.78,84.47Z"/><path class="cls-19" d="M52.65,88.43a1.58,1.58,0,0,1-.87-.26l-2.91-2a1.24,1.24,0,0,1-.55-.88,1.19,1.19,0,0,1,.31-.94l4-4.42a1.55,1.55,0,0,1,2-.23l2.91,2a1.24,1.24,0,0,1,.55.88,1.19,1.19,0,0,1-.31.94L53.78,88A1.56,1.56,0,0,1,52.65,88.43Zm1.06-8.6a1.13,1.13,0,0,0-.83.35l-4,4.43h0a.79.79,0,0,0-.21.63.85.85,0,0,0,.38.59l2.9,2a1.17,1.17,0,0,0,1.48-.16l4-4.42a.76.76,0,0,0,.21-.63.84.84,0,0,0-.38-.6l-2.9-2A1.17,1.17,0,0,0,53.71,79.83Zm-4.93,4.64Z"/></g><g id="rect3660"><rect x="93.49" y="71.88" width="5.74" height="3.39" rx="1.16" ry="1.16" transform="translate(-19.26 110.04) rotate(-54.87)"/><path class="cls-19" d="M95.81,76.64a1.42,1.42,0,0,1-.79-.25l-.86-.61a1.37,1.37,0,0,1-.34-1.9h0l2-2.79a1.33,1.33,0,0,1,.88-.56,1.37,1.37,0,0,1,1,.23l.87.61a1.37,1.37,0,0,1,.33,1.9l-2,2.79a1.39,1.39,0,0,1-.88.56Zm-1.66-2.53a1,1,0,0,0,.24,1.34l.86.61a.93.93,0,0,0,.72.16.94.94,0,0,0,.63-.39l2-2.79a1,1,0,0,0-.23-1.35l-.87-.61a1,1,0,0,0-.72-.16,1,1,0,0,0-.63.4Z"/></g><g id="rect3662"><path d="M67.06,83.76l2.19,1.6a.27.27,0,0,1,.06.36l-2.54,3.73a.23.23,0,0,1-.34.06l-2.2-1.6a.27.27,0,0,1-.06-.36l2.54-3.73A.24.24,0,0,1,67.06,83.76Z"/><path d="M66.57,89.76a.43.43,0,0,1-.26-.09l-2.2-1.6a.46.46,0,0,1-.11-.63l2.54-3.73a.41.41,0,0,1,.29-.19.38.38,0,0,1,.34.08l2.2,1.59a.47.47,0,0,1,.11.64l-2.54,3.73a.44.44,0,0,1-.29.19Zm.34-5.85h0l-2.57,3.76a.07.07,0,0,0,0,.08l2.19,1.6.23.1-.16-.11,2.54-3.74a.06.06,0,0,0,0-.08l-2.19-1.6h0Z"/></g><g id="path3670"><path class="cls-20" d="M64.65,81.74l2.58-.31,1.84,1.75L67,83.6"/><polygon class="cls-21" points="67.07 84.09 66.88 83.11 68.03 82.88 67.06 81.95 64.71 82.23 64.59 81.24 67.41 80.9 70.12 83.48 67.07 84.09"/></g><g id="path3676"><path d="M67,83.71l2.45-.55,1.77,1.92-2,.4Z"/><path d="M69.19,86,65.8,83.37,67,83.21l2.41-.54.28-.06,2.57,2.79Zm-1-2,1.25,1,.85-.17-1-1.06Z"/></g><g id="rect3678"><path d="M87.68,86.23h1.24a.44.44,0,0,1,.35.22l.59,1.32a.15.15,0,0,1-.14.23H88.48a.41.41,0,0,1-.35-.22l-.6-1.32C87.48,86.33,87.54,86.23,87.68,86.23Z"/><path d="M88.48,88.21a.62.62,0,0,1-.54-.35l-.6-1.32a.38.38,0,0,1,0-.36.36.36,0,0,1,.32-.16h1.24a.62.62,0,0,1,.54.35l.59,1.32A.36.36,0,0,1,90,88a.38.38,0,0,1-.32.16Zm-.73-1.77.57,1.25a.2.2,0,0,0,.16.1h1.16l-.56-1.25a.21.21,0,0,0-.16-.1H87.75Zm-.07-.21v.21h0Z"/></g><g id="path3680"><path d="M87.19,85.86c.13,0,1.77.41,1.77.41l-1.43,0-.62-.23.41-.17"/><path d="M87.45,86.81l-1.89-.68,1.56-.68.11.22.06-.3c.13,0,1.79.42,1.79.42l-.11,1Z"/></g><g id="path3682"><path class="cls-22" d="M79.27,68.41a1.6,1.6,0,1,1-3.19,0,1.6,1.6,0,0,1,3.19,0Z"/><path class="cls-23" d="M77.67,70.21a1.8,1.8,0,1,1,1.8-1.8A1.8,1.8,0,0,1,77.67,70.21Zm0-3.19a1.4,1.4,0,0,0,0,2.79,1.4,1.4,0,1,0,0-2.79Z"/></g><g id="path3684"><path class="cls-24" d="M78.55,69.22l-1.16.36-.89-.82.26-1.19,1.16-.36.9.82-.27,1.19Z"/><path class="cls-25" d="M77.35,69.75l-1-.94.31-1.36L78,67,79,68l-.3,1.36Zm-.69-1,.77.71,1-.31.23-1-.77-.71-1,.31Z"/></g><g id="path3686"><path class="cls-4" d="M76.9,62.11a1.65,1.65,0,1,1-1.65-1.65A1.65,1.65,0,0,1,76.9,62.11Z"/><path class="cls-25" d="M75.25,64.16a2,2,0,1,1,2-2A2.05,2.05,0,0,1,75.25,64.16Zm0-3.3a1.25,1.25,0,1,0,1.25,1.25A1.25,1.25,0,0,0,75.25,60.86Z"/></g><g id="rect3690"><rect class="cls-2" x="49.78" y="85.91" width="0.69" height="3.34" rx="0.28" ry="0.28" transform="translate(-49.16 69.57) rotate(-49.94)"/><path class="cls-25" d="M51.15,89.2a.66.66,0,0,1-.44-.16l-2.13-1.79a.69.69,0,0,1-.24-.46.68.68,0,0,1,.16-.49l.09-.11A.65.65,0,0,1,49,86a.69.69,0,0,1,.5.16h0l2.13,1.79a.69.69,0,0,1,.24.46.66.66,0,0,1-.16.49l-.09.11A.65.65,0,0,1,51.15,89.2Zm-2-2.4h0Z"/></g><g id="path3692"><path d="M54.49,79.87l1.73-2.13A4.69,4.69,0,0,1,58.92,80l-1.61,1.89"/><path d="M57.69,82.21l-.76-.65L58.3,80a4.27,4.27,0,0,0-1.91-1.63l-1.51,1.87-.77-.63L56,77.18l.31.08a5.2,5.2,0,0,1,3,2.46l.19.31Z"/></g><g id="path3694"><path d="M86.12,72.91l3.34,2.65-.86,1-3.4-2.7.92-1Z"/><path d="M88.67,77.29l-4.2-3.35,1.6-1.71,4.1,3.25Zm-2.73-3.45,2.58,2.06.23-.27-2.58-2Z"/></g><g id="path3696"><path d="M72.31,44.61l-.75,1,2.52,2.1,1-1.18"/><polygon points="74.13 48.37 70.86 45.65 71.92 44.3 72.71 44.92 72.25 45.5 74.03 46.99 74.76 46.17 75.5 46.84 74.13 48.37"/></g><g id="path3696-8"><path d="M86.13,55.52,85,56.74l2.74,2.06,1-1.17"/><polygon points="87.79 59.48 84.25 56.81 85.76 55.18 86.49 55.86 85.74 56.68 87.66 58.13 88.41 57.29 89.15 57.96 87.79 59.48"/></g><g id="path3720"><path class="cls-26" d="M71.72,44.19,87.47,26l2.22,1.78L73.94,46.1Z"/><path class="cls-27" d="M74,46.8l-3-2.55L87.41,25.34l3,2.41Zm-1.57-2.66,1.46,1.25L89,27.88l-1.44-1.16Z"/></g><g id="path3720-9"><path class="cls-26" d="M87.11,56.77l15.75-18.16,2.22,1.78L89.33,58.68Z"/><path class="cls-27" d="M89.38,59.38l-3-2.55,16.4-18.91,3,2.41Zm-1.56-2.66L89.28,58l15.09-17.51-1.45-1.16Z"/></g><g id="path3746"><path class="cls-26" d="M71.44,13.56l1.21-1,7.1,6.07-1,1.35"/><polygon points="79.13 20.26 78.33 19.65 79.07 18.69 72.65 13.19 71.76 13.94 71.12 13.18 72.66 11.88 80.44 18.54 79.13 20.26"/></g><g id="path3770"><path class="cls-28" d="M57.37,12.73l6.52,4.48-.51.7L56.86,13.5Z"/><polygon class="cls-29" points="63.5 18.59 56.17 13.63 57.24 12.03 64.6 17.09 63.5 18.59"/></g><g id="path3651"><path class="cls-26" d="M56.47,10.14,53.8,13.57,55.86,15l2.53-3.46-1.92-1.44Z"/><path class="cls-30" d="M56,15.74l-2.88-2.06,3.28-4.24,2.72,2Zm-1.45-2.27,1.22.88,2-2.67-1.14-.85Z"/></g><g id="path3651-4"><path class="cls-26" d="M64.39,15.45,61.82,19l2.08,1.42,2.46-3.53Z"/><path class="cls-30" d="M64,21.07l-2.93-2,3.18-4.31,2.77,2Zm-1.5-2.24,1.25.85L65.66,17l-1.15-.83Z"/></g><g id="path3647"><path class="cls-31" d="M57.57,14.44C57.83,13.14,65.51.9,65.51.9c2.49-.31,3.94.6,4.22,2.86L62,17.3C60,17.26,57.73,17.89,57.57,14.44Z"/><path class="cls-32" d="M60.56,17.82c-1.56,0-3.34-.31-3.49-3.36v-.12c.26-1.32,6.71-11.65,8-13.7l.13-.21.23,0C69,0,70,2,70.23,3.69l0,.17-8,14H60.56Zm-2.49-3.33c.14,2.4,1.38,2.37,3.07,2.32h.57l7.5-13.14c-.27-1.75-1.36-2.48-3.41-2.29C62.9,6,58.39,13.41,58.07,14.49Z"/></g><g id="path3772"><path class="cls-33" d="M68.25,4.94a3.65,3.65,0,0,1-2.09-.71A2.72,2.72,0,0,1,65.08.67l.87.48a1.77,1.77,0,0,0,.79,2.27,2,2,0,0,0,2.57.07l.75.67A2.35,2.35,0,0,1,68.25,4.94Z"/></g><g id="path3774"><path class="cls-31" d="M68.07,2.73c-.08.15-.41.14-.74,0s-.53-.43-.44-.59.41-.14.73,0S68.15,2.58,68.07,2.73Z"/><path class="cls-34" d="M67.82,4.83a3,3,0,0,1-1.43-.37,2.46,2.46,0,0,1-1.27-3.3A2.46,2.46,0,0,1,68.56.37a2.46,2.46,0,0,1,1.27,3.3h0A2.2,2.2,0,0,1,67.82,4.83Zm-1.52-3a1.64,1.64,0,0,0,.39,2.11,1.64,1.64,0,0,0,2-.85A1.64,1.64,0,0,0,68.27.93a1.65,1.65,0,0,0-2,.86l1.77.94Z"/></g><g id="path3800"><path class="cls-35" d="M60.64,16.07a3.27,3.27,0,0,1-2.23-2.43l-.14-.42.3-.57C58.92,12,60.07,10,60.12,10s.09.13.16.33a3.47,3.47,0,0,0,2.28,2.44,4.77,4.77,0,0,0,1.56,0,1.26,1.26,0,0,1,.33,0s-.4.73-.9,1.61l-.91,1.6-.26.06a4,4,0,0,1-1.74.08Z"/><path class="cls-34" d="M61.26,16.38a3,3,0,0,1-.68-.07h0a3.52,3.52,0,0,1-2.41-2.59L58,13.3a.23.23,0,0,1,0-.2l.3-.57c.15-.27,1.49-2.63,1.59-2.73a.26.26,0,0,1,.24-.07c.13,0,.2.11.34.5a3.23,3.23,0,0,0,2.11,2.28,4.33,4.33,0,0,0,1.44,0c.36-.07.45-.08.55,0s.15.15-.85,1.91l-.91,1.6a.28.28,0,0,1-.16.12l-.26.06A5.22,5.22,0,0,1,61.26,16.38Zm-2.72-3.14.11.32c.45,1.3,1.14,2.07,2,2.26h0a3.84,3.84,0,0,0,1.63-.07l.16,0,.85-1.5c.29-.5.51-.9.66-1.17a4.83,4.83,0,0,1-1.49,0,3.61,3.61,0,0,1-2.41-2.48c-.35.6-1,1.79-1.3,2.26Z"/></g><g id="path3802"><path class="cls-35" d="M54.53,15.72a.22.22,0,1,1-.22-.22A.22.22,0,0,1,54.53,15.72Z"/><path class="cls-34" d="M54.31,16.19a.47.47,0,1,1,.47-.47A.47.47,0,0,1,54.31,16.19Zm0-.47a0,0,0,0,0,0,0Z"/></g><g id="path3804"><path class="cls-35" d="M61.64,20.83a.24.24,0,0,1-.24.24.24.24,0,0,1-.24-.24.24.24,0,0,1,.24-.24A.23.23,0,0,1,61.64,20.83Z"/><path class="cls-34" d="M61.4,21.32a.49.49,0,1,1,.49-.49A.49.49,0,0,1,61.4,21.32Zm0-.49h0Z"/></g><g id="path3806"><path class="cls-35" d="M128.89,76a.54.54,0,1,1-1,0,.54.54,0,1,1,1,0Z"/><path class="cls-34" d="M128.37,76.89a.85.85,0,0,1-.78-.91.78.78,0,1,1,1.55,0A.85.85,0,0,1,128.37,76.89Zm0-1.31c-.15,0-.28.19-.28.4s.13.41.28.41.27-.19.27-.41S128.51,75.58,128.37,75.58Z"/></g><g id="path3808"><path class="cls-35" d="M134.12,66.57a.54.54,0,1,1-.53-.65A.6.6,0,0,1,134.12,66.57Z"/><path class="cls-34" d="M133.59,67.47a.91.91,0,1,1,.78-.9A.84.84,0,0,1,133.59,67.47Zm0-1.3c-.14,0-.27.19-.27.4s.13.4.27.4.28-.18.28-.4S133.74,66.17,133.59,66.17Z"/></g><g id="path3810"><path class="cls-35" d="M121.83,81.87c0,.14-.29.26-.65.26s-.66-.12-.66-.26.29-.27.66-.27S121.83,81.72,121.83,81.87Z"/><path class="cls-34" d="M121.18,82.38c-.55,0-.91-.21-.91-.51,0-.71,1.81-.71,1.81,0C122.08,82.17,121.72,82.38,121.18,82.38Zm.43-.43Zm-.61-.08h.35A1,1,0,0,0,121,81.87Z"/></g><g id="path3812"><path class="cls-35" d="M43.93,20a.36.36,0,0,1-.32.39.36.36,0,0,1-.32-.39.35.35,0,0,1,.32-.38A.36.36,0,0,1,43.93,20Z"/><path class="cls-34" d="M43.61,20.59A.61.61,0,0,1,43,20a.6.6,0,0,1,.57-.63.6.6,0,0,1,.57.63A.61.61,0,0,1,43.61,20.59Zm0-.77s-.07.05-.07.13.13.18.14,0S43.63,19.82,43.61,19.82Z"/></g><g id="path3814"><path class="cls-35" d="M49.38,11a.48.48,0,1,1-.48-.46A.47.47,0,0,1,49.38,11Z"/><path class="cls-34" d="M48.9,11.73a.71.71,0,1,1,.73-.7A.72.72,0,0,1,48.9,11.73Zm0-.91a.21.21,0,1,0,0,.41.21.21,0,1,0,0-.41Z"/></g><g id="path3816"><path class="cls-35" d="M57.19,3.19c0,.14-.15.25-.34.25s-.34-.11-.34-.25.15-.25.34-.25S57.19,3.05,57.19,3.19Z"/><path class="cls-34" d="M56.85,3.69a.55.55,0,0,1-.59-.5.6.6,0,0,1,1.18,0A.55.55,0,0,1,56.85,3.69Zm.1-.47h0Zm-.1,0h0Z"/></g></g></g></g></svg>