<svg xmlns="http://www.w3.org/2000/svg" viewBox="0 0 56.18 64.17"><defs><style>.cls-1{isolation:isolate;}.cls-2{fill:#8f8da0;}.cls-3{fill:#4a464f;}.cls-4{fill:#bcd0d3;}.cls-26,.cls-5{opacity:0.6;}.cls-20,.cls-5{mix-blend-mode:multiply;}.cls-6{fill:#2b2a33;}.cls-7{opacity:0.7;}.cls-14,.cls-7{mix-blend-mode:screen;}.cls-8{fill:#ccc;}.cls-9{opacity:0.3;}.cls-10{fill:#91f2bf;}.cls-11,.cls-20{opacity:0.2;}.cls-12,.cls-13{fill:none;stroke:#91f2bf;stroke-linejoin:round;}.cls-12{stroke-width:0.92px;}.cls-13{stroke-width:1.09px;}.cls-14{opacity:0.1;}.cls-15{fill:#fff;}.cls-16{fill:#262528;}.cls-17{fill:#3a383d;}.cls-18{fill:#f8f8ff;}.cls-19{opacity:0.4;}.cls-21{fill:#494874;}.cls-22{fill:#d3d3ea;}.cls-23{fill:#807f9e;}.cls-24{fill:#2d2d35;}.cls-25{fill:#575659;}</style></defs><title>lab_10</title><g class="cls-1"><g id="Layer_2" data-name="Layer 2"><g id="осцилограф"><g id="lab_10"><g id="oscilloscope"><g class="cls-1"><path class="cls-2" d="M33.12,23.08Q44,29.53,54.83,36.2a2.42,2.42,0,0,0-1.38-.33q-10.9-6.69-21.92-13.21A3.06,3.06,0,0,1,33.12,23.08Z"/><path class="cls-3" d="M24.39,49.37C17,45.16,9.71,40.85,2.54,36.32l.16,0c7.18,4.52,14.52,8.84,21.88,13.06Z"/><path class="cls-3" d="M24.46,64.17C17.14,60.08,9.82,56,2.59,51.75a2.84,2.84,0,0,1-1.27-2.56c0-4.08,0-6.25,0-10.19V38a1.87,1.87,0,0,1,1.2-1.72c7.17,4.53,14.49,8.84,21.85,13A1.76,1.76,0,0,0,23,51v.92c0,3.79,0,5.85,0,9.74A2.84,2.84,0,0,0,24.46,64.17Z"/><path class="cls-2" d="M24.58,49.33C17.22,45.11,9.88,40.79,2.7,36.27c0-1.25,0-2.55,0-4.2a4.68,4.68,0,0,1,3.21-4.36c8.2-2.07,16.6-3.56,24.93-5a4,4,0,0,1,.67-.06q11,6.49,21.92,13.21a3.25,3.25,0,0,0-.59.09c-8.15,1.95-16.42,3.52-24.65,5.14a4.57,4.57,0,0,0-3.61,4.15C24.6,46.86,24.59,48.12,24.58,49.33Z"/></g><path class="cls-3" d="M23,49.15q15.84-3,31.65-6.18v.2c0,4.22,0,6.33,0,10.55a2.9,2.9,0,0,1-2.23,2.71c-9,1.91-18.08,3.74-27.16,5.35A1.85,1.85,0,0,1,23,59.92V49.15m-.2-1.49a1.71,1.71,0,0,0-1.34,1.59V60.19a3.13,3.13,0,0,0,3.81,3.13c9.09-1.6,18.14-3.44,27.16-5.36h0a4.89,4.89,0,0,0,3.74-4.55V42.46a1,1,0,0,0-1.31-1.06c-10.68,2.13-21.37,4.19-32.06,6.26Z"/><path class="cls-4" d="M24.22,61.51a.6.6,0,0,1-.74-.6c0-7,0-10.53,0-17.54a3.85,3.85,0,0,1,3-3.59C34.75,38.13,43,36.56,51.29,35a2.37,2.37,0,0,1,3,2.39c0,7,0,10.5,0,17.5a.93.93,0,0,1-.72.87C43.77,57.75,34,59.69,24.22,61.51Z"/><path class="cls-2" d="M51.29,35.46a2,2,0,0,1,2.47,2c0,3.76,0,5.64,0,9.4V55a.32.32,0,0,1-.24.29C43.77,57.26,34,59.2,24.22,61a.21.21,0,0,1-.25-.2V43.27a3.22,3.22,0,0,1,2.51-3c8.26-1.65,16.53-3.22,24.8-4.81m0-1c-8.27,1.58-16.54,3.15-24.8,4.8A4.51,4.51,0,0,0,23,43.47V61a1,1,0,0,0,1.22,1c9.81-1.81,19.57-3.75,29.33-5.76a1.57,1.57,0,0,0,1.2-1.46V37.27a2.76,2.76,0,0,0-3.44-2.78Z"/><g class="cls-5"><path class="cls-6" d="M27.14,52.9a1,1,0,0,1-1.18-1V43.63A1.36,1.36,0,0,1,27,42.24c5.12-1,7.65-1.5,12.71-2.48a1,1,0,0,1,1.17,1v8.33a1.5,1.5,0,0,1-1.17,1.42C34.72,51.45,32.2,51.94,27.14,52.9Z"/><path class="cls-6" d="M39.72,40.11a.67.67,0,0,1,.83.68v8.33a1,1,0,0,1-.82,1c-5,1-7.53,1.47-12.59,2.43a.67.67,0,0,1-.83-.68V43.56a.92.92,0,0,1,.7-1c5.12-1,7.65-1.5,12.71-2.48m0-.7c-5.06,1-7.59,1.46-12.71,2.48a1.81,1.81,0,0,0-1.4,1.81V52a1.23,1.23,0,0,0,1.53,1.24c5.06-1,7.58-1.44,12.59-2.43A2,2,0,0,0,41.25,49c0-3.34,0-5,0-8.34a1.23,1.23,0,0,0-1.52-1.24Z"/></g><g class="cls-7"><path class="cls-8" d="M27.14,53.74a1,1,0,0,1-1.18-1V44.46a1.35,1.35,0,0,1,1-1.38L39.72,40.6a1,1,0,0,1,1.17,1c0,3.33,0,5,0,8.33a1.5,1.5,0,0,1-1.17,1.42C34.72,52.3,32.2,52.78,27.14,53.74Z"/><path class="cls-8" d="M39.72,41a.67.67,0,0,1,.83.68c0,3.33,0,5,0,8.33a1.06,1.06,0,0,1-.83,1c-5,1-7.53,1.47-12.59,2.43a.67.67,0,0,1-.83-.68V44.39a.92.92,0,0,1,.69-1L39.72,41m0-.7L27,42.73a1.81,1.81,0,0,0-1.39,1.8v8.31a1.24,1.24,0,0,0,1.53,1.25c5.06-1,7.58-1.44,12.59-2.43a2,2,0,0,0,1.52-1.83c0-3.34,0-5,0-8.34a1.23,1.23,0,0,0-1.52-1.24Z"/></g><path class="cls-6" d="M27.12,53.11a1,1,0,0,1-1.18-1V43.84a1.52,1.52,0,0,1,1.18-1.42c5.12-1,7.66-1.49,12.72-2.47a.94.94,0,0,1,1.17,1c0,3.33,0,5,0,8.33a1.5,1.5,0,0,1-1.17,1.41C34.79,51.65,32.25,52.14,27.12,53.11Z"/><g class="cls-9"><path class="cls-10" d="M36.6,48.91c-1.74.33-1.88-1.31-2-2.39-.12-1.45-.28-1.84-1-1.69s-1,.73-1.22,2.11c-.21,1.21-.48,2.88-2.31,3.23s-2.18-1.44-2.32-2.65-.26-1.51-.6-1.44l-.24,0h-.05l.07,0c-.24-.33-.37-.49-.61-.81A1.15,1.15,0,0,1,27,45l.13,0c1.43-.28,1.59,1.17,1.71,2.23.17,1.54.37,2,1.21,1.86s1-.72,1.21-2.09.48-2.9,2.32-3.25,2.06,1.35,2.16,2.5c.12,1.41.27,1.69.87,1.57s.83-.6,1-2c.15-1.22.36-2.89,2.09-3.22a3.91,3.91,0,0,1,.91-.11l-.15,1.14a3.76,3.76,0,0,0-.76.09c-.66.13-.81.59-1,2C38.56,46.89,38.35,48.57,36.6,48.91Z"/></g><path class="cls-10" d="M36.6,48.59c-1.45.28-1.57-1-1.67-2.16-.11-1.34-.26-2.13-1.36-1.92S32.26,45.57,32,46.94s-.43,2.62-2,2.92-1.87-1.2-2-2.43-.24-1.8-.91-1.67l-.21,0a.27.27,0,0,0-.19.07l-.26-.35a.76.76,0,0,1,.5-.21l.16,0c1.14-.23,1.28,1,1.4,2,.16,1.41.35,2.31,1.52,2.09s1.29-1,1.52-2.42.43-2.62,2-2.93,1.74,1.12,1.84,2.27.23,2,1.19,1.81,1.15-1,1.32-2.38.32-2.6,1.78-2.89a4.14,4.14,0,0,1,.87-.1l-.07.49a5.14,5.14,0,0,0-.8.1c-1,.19-1.14,1-1.3,2.37S38.08,48.3,36.6,48.59Z"/><g class="cls-11"><path class="cls-12" d="M27.77,42.93v9.43"/><path class="cls-12" d="M30.08,42.47v9.45"/><path class="cls-12" d="M32.39,42v9.46"/><path class="cls-12" d="M34.7,41.58V51"/><path class="cls-12" d="M37,41.13v9.45"/><path class="cls-12" d="M39.29,40.69c0,3.78,0,5.66,0,9.44"/></g><g class="cls-11"><path class="cls-13" d="M40.26,40.5c-5.47,1.06-8.21,1.58-13.76,2.68"/><path class="cls-13" d="M40.26,42.86,26.5,45.54"/><path class="cls-13" d="M40.27,45.22,26.5,47.89"/><path class="cls-13" d="M40.27,47.58C34.79,48.66,32,49.19,26.5,50.25"/><path class="cls-13" d="M40.27,49.94C34.79,51,32,51.56,26.5,52.61"/></g><g class="cls-14"><path class="cls-15" d="M28.39,52.86l-1.27.25,6.57-1.25c.92-4.47,1.37-6.7,2.28-11.16l-5.28,1Z"/></g><path class="cls-16" d="M39.68,41.29a.44.44,0,0,1,.54.44v8a.69.69,0,0,1-.53.64c-4.94,1-7.41,1.45-12.4,2.39a.43.43,0,0,1-.53-.43v-8a.69.69,0,0,1,.54-.65c5-1,7.45-1.45,12.38-2.41m0-1.1h0c-4.93,1-7.4,1.42-12.38,2.41a1.38,1.38,0,0,0-1.08,1.3c0,3.4,0,5.1,0,8.51a.87.87,0,0,0,1.08.88c5-.94,7.46-1.42,12.4-2.39a1.39,1.39,0,0,0,1.07-1.3c0-3.41,0-5.12,0-8.53a.87.87,0,0,0-1.07-.88Z"/><path class="cls-17" d="M45.46,53.51a.64.64,0,0,1-.81-.65,1,1,0,0,1,.8-1,.64.64,0,0,1,.81.65A1,1,0,0,1,45.46,53.51Z"/><path class="cls-18" d="M45.45,52a.55.55,0,0,1,.69.55.87.87,0,0,1-.68.82.55.55,0,0,1-.69-.55.87.87,0,0,1,.68-.82m0-.26a1.21,1.21,0,0,0-.93,1.13.75.75,0,0,0,.94.76,1.21,1.21,0,0,0,.93-1.13.75.75,0,0,0-.94-.76Z"/><path class="cls-17" d="M47.89,53a.63.63,0,0,1-.8-.65,1,1,0,0,1,.8-1,.64.64,0,0,1,.81.65A1,1,0,0,1,47.89,53Z"/><path class="cls-18" d="M47.89,51.51a.54.54,0,0,1,.68.55.88.88,0,0,1-.68.83.55.55,0,0,1-.68-.55.89.89,0,0,1,.68-.83m0-.25A1.2,1.2,0,0,0,47,52.39a.74.74,0,0,0,.93.75A1.19,1.19,0,0,0,48.82,52a.74.74,0,0,0-.93-.75Z"/><path class="cls-17" d="M50.35,52.51a.64.64,0,0,1-.81-.64,1,1,0,0,1,.81-1,.64.64,0,0,1,.8.65A1,1,0,0,1,50.35,52.51Z"/><path class="cls-18" d="M50.35,51a.54.54,0,0,1,.68.54.89.89,0,0,1-.68.83.54.54,0,0,1-.68-.55.86.86,0,0,1,.68-.82m0-.26a1.2,1.2,0,0,0-.93,1.13.74.74,0,0,0,.93.75,1.2,1.2,0,0,0,.93-1.13.74.74,0,0,0-.93-.75Z"/><g class="cls-19"><path d="M28.54,55.17a1.7,1.7,0,0,0-1.34,1.6,1.08,1.08,0,0,0,1.34,1.09,1.69,1.69,0,0,0,1.34-1.6,1.08,1.08,0,0,0-1.34-1.09Z"/></g><path class="cls-17" d="M29.49,55.78h0l-.19-.43-1.82.34-.18.5h0a1,1,0,0,0-.05.35.93.93,0,0,0,1.14.94,1.46,1.46,0,0,0,1.15-1.37A.88.88,0,0,0,29.49,55.78Z"/><g class="cls-20"><path class="cls-21" d="M29.49,55.78h0l-.19-.43-.9.17c0,.79,0,1.18,0,2a1.46,1.46,0,0,0,1.15-1.37.88.88,0,0,0-.05-.33Z"/></g><path class="cls-22" d="M28.4,56.65a.68.68,0,0,1-.84-.68,1.05,1.05,0,0,1,.84-1,.67.67,0,0,1,.83.68A1.05,1.05,0,0,1,28.4,56.65Z"/><path class="cls-23" d="M28.4,55.11a.56.56,0,0,1,.7.57.9.9,0,0,1-.7.84.58.58,0,0,1-.71-.58.88.88,0,0,1,.71-.83m0-.26a1.21,1.21,0,0,0-1,1.14.78.78,0,0,0,1,.79,1.21,1.21,0,0,0,1-1.15.77.77,0,0,0-1-.78Z"/><g class="cls-19"><path d="M33.19,54.29a1.7,1.7,0,0,0-1.34,1.6A1.08,1.08,0,0,0,33.19,57a1.69,1.69,0,0,0,1.33-1.6,1.07,1.07,0,0,0-1.33-1.09Z"/></g><path class="cls-17" d="M34.14,54.89h0L34,54.45l-1.82.35-.18.51h0a1.41,1.41,0,0,0-.05.35A.92.92,0,0,0,33,56.6a1.47,1.47,0,0,0,1.15-1.38A1.14,1.14,0,0,0,34.14,54.89Z"/><g class="cls-20"><path class="cls-21" d="M34.14,54.89h0L34,54.45l-.91.18v2a1.47,1.47,0,0,0,1.15-1.38,1.14,1.14,0,0,0,0-.33Z"/></g><path class="cls-22" d="M33,55.77a.67.67,0,0,1-.83-.68,1.08,1.08,0,0,1,.83-1,.68.68,0,0,1,.84.68A1.07,1.07,0,0,1,33,55.77Z"/><path class="cls-23" d="M33,54.22a.57.57,0,0,1,.71.57.91.91,0,0,1-.71.85.57.57,0,0,1-.7-.58.9.9,0,0,1,.7-.84M33,54a1.22,1.22,0,0,0-1,1.15.78.78,0,0,0,1,.79,1.23,1.23,0,0,0,1-1.16A.77.77,0,0,0,33,54Z"/><path class="cls-2" d="M39.85,40.3a.66.66,0,0,1,.82.67v8.34a1.05,1.05,0,0,1-.82,1c-5.07,1-7.61,1.49-12.73,2.46a.68.68,0,0,1-.84-.67c0-3.33,0-5,0-8.32a1.06,1.06,0,0,1,.83-1c5.12-1,7.66-1.49,12.72-2.47m0-.7h0c-5.06,1-7.6,1.46-12.72,2.48a2,2,0,0,0-1.53,1.83c0,3.32,0,5,0,8.31a1.23,1.23,0,0,0,1.53,1.24c5.13-1,7.67-1.46,12.74-2.46a1.94,1.94,0,0,0,1.51-1.83c0-3.33,0-5,0-8.33a1.22,1.22,0,0,0-1.51-1.24Z"/><path class="cls-24" d="M42.41,46.71l-.17,0a2.21,2.21,0,0,1,0-.35h.16A1.82,1.82,0,0,0,42.41,46.71Zm3-.59a1.53,1.53,0,0,0,0-.3l.16-.07a1.86,1.86,0,0,1,0,.34Zm-2.83,0-.15,0a2.21,2.21,0,0,1,.18-.34l.13.08A2.11,2.11,0,0,0,42.53,46.08Zm2.7-.54a1,1,0,0,0-.15-.24l.13-.12a1.06,1.06,0,0,1,.17.26Zm-2.34,0-.11-.1a3.45,3.45,0,0,1,.28-.26l.08.13A2.73,2.73,0,0,0,42.89,45.5Zm2-.39a1.19,1.19,0,0,0-.25-.13l.08-.16A1.51,1.51,0,0,1,45,45Zm-1.44,0-.06-.15a2.44,2.44,0,0,1,.34-.14l0,.16A1,1,0,0,0,43.43,45.09Zm.91-.18a1,1,0,0,0-.3,0v-.17a1.28,1.28,0,0,1,.34,0Z"/><g class="cls-11"><path d="M44.05,45.17a2,2,0,0,0-1.56,1.89,1.26,1.26,0,0,0,1.57,1.28,2,2,0,0,0,1.57-1.9,1.27,1.27,0,0,0-1.58-1.27Z"/></g><path class="cls-21" d="M45.17,45.87h0L45,45.36l-2.14.42-.21.59h0a1.4,1.4,0,0,0-.06.41,1.08,1.08,0,0,0,1.35,1.1,1.74,1.74,0,0,0,1.34-1.63A1.23,1.23,0,0,0,45.17,45.87Z"/><g class="cls-20"><path class="cls-21" d="M45.17,45.87h0L45,45.36l-1.07.21v2.32a1.74,1.74,0,0,0,1.34-1.63,1.23,1.23,0,0,0-.06-.39Z"/></g><path class="cls-22" d="M43.89,46.91a.78.78,0,0,1-1-.79,1.25,1.25,0,0,1,1-1.18.78.78,0,0,1,1,.79A1.26,1.26,0,0,1,43.89,46.91Z"/><path class="cls-23" d="M43.88,45.09a.66.66,0,0,1,.83.67,1.07,1.07,0,0,1-.82,1,.66.66,0,0,1-.83-.67,1.07,1.07,0,0,1,.82-1m0-.31a1.44,1.44,0,0,0-1.12,1.37.9.9,0,0,0,1.13.91A1.44,1.44,0,0,0,45,45.7a.91.91,0,0,0-1.13-.92Z"/><path class="cls-24" d="M42.4,41.79l-.16,0a2.16,2.16,0,0,1,0-.35h.16A1.82,1.82,0,0,0,42.4,41.79Zm3-.58a1.54,1.54,0,0,0,0-.3l.16-.07a1.27,1.27,0,0,1,0,.34Zm-2.83-.05-.15,0a1.29,1.29,0,0,1,.17-.33l.13.07A1.4,1.4,0,0,0,42.53,41.16Zm2.7-.53a1.43,1.43,0,0,0-.16-.24l.13-.12a1.51,1.51,0,0,1,.18.26Zm-2.34-.05-.11-.1a2.33,2.33,0,0,1,.28-.26l.08.13A1.84,1.84,0,0,0,42.89,40.58Zm2-.38a1,1,0,0,0-.25-.14l.08-.15a.76.76,0,0,1,.28.15Zm-1.44,0L43.37,40a2.26,2.26,0,0,1,.33-.13l0,.16A1.88,1.88,0,0,0,43.42,40.17Zm.91-.18a1.5,1.5,0,0,0-.3,0l0-.17a1.22,1.22,0,0,1,.33,0Z"/><g class="cls-11"><path d="M44.05,40.25a2,2,0,0,0-1.57,1.89,1.27,1.27,0,0,0,1.57,1.29,2,2,0,0,0,1.57-1.9,1.27,1.27,0,0,0-1.57-1.28Z"/></g><path class="cls-21" d="M45.16,41h0l-.22-.51-2.13.42-.21.59h0a1.45,1.45,0,0,0-.06.41A1.09,1.09,0,0,0,43.88,43a1.72,1.72,0,0,0,1.34-1.62A1.23,1.23,0,0,0,45.16,41Z"/><g class="cls-20"><path class="cls-21" d="M45.16,41h0l-.22-.51-1.06.21V43a1.72,1.72,0,0,0,1.34-1.62,1.23,1.23,0,0,0-.06-.39Z"/></g><path class="cls-22" d="M43.88,42a.79.79,0,0,1-1-.8,1.25,1.25,0,0,1,1-1.18.79.79,0,0,1,1,.8A1.26,1.26,0,0,1,43.88,42Z"/><path class="cls-23" d="M43.88,40.17a.67.67,0,0,1,.82.68,1.05,1.05,0,0,1-.82,1,.67.67,0,0,1-.83-.67,1.06,1.06,0,0,1,.83-1m0-.3a1.44,1.44,0,0,0-1.13,1.36.91.91,0,0,0,1.13.92A1.45,1.45,0,0,0,45,40.79a.91.91,0,0,0-1.13-.92Z"/><path class="cls-24" d="M47.79,40.65l-.33.07c0-.12,0-.24,0-.36l.33,0A1.67,1.67,0,0,0,47.79,40.65Zm4.52-1c0-.1,0-.2,0-.3l.32-.12a2,2,0,0,1,0,.34ZM47.87,40l-.32,0a2.91,2.91,0,0,1,.12-.35l.3.07A1.86,1.86,0,0,0,47.87,40Zm4.33-1a2.06,2.06,0,0,0-.12-.26l.3-.2a2.08,2.08,0,0,1,.13.3Zm-4.1.34-.28-.11A2.63,2.63,0,0,1,48,39l.26.15C48.21,39.23,48.16,39.32,48.1,39.42Zm3.83-.84a1.71,1.71,0,0,0-.18-.2l.24-.27a1.21,1.21,0,0,1,.21.24Zm-3.45.29-.22-.2a3.31,3.31,0,0,1,.26-.27l.2.23A1.81,1.81,0,0,0,48.48,38.87Zm3.05-.67-.24-.14.18-.31a2.4,2.4,0,0,1,.27.16ZM49,38.41l-.15-.26a3.28,3.28,0,0,1,.31-.2l.12.28ZM51,38l-.28-.06.1-.33.32.07Zm-1.48.13-.07-.31a2,2,0,0,1,.34-.12l0,.32A1.82,1.82,0,0,0,49.54,38.09Zm.91-.2-.31,0,0-.33a2,2,0,0,1,.34,0Z"/><g class="cls-11"><path d="M50.31,38.27a3.11,3.11,0,0,0-2.43,2.94,2,2,0,0,0,2.44,2,3.14,3.14,0,0,0,2.43-2.94,2,2,0,0,0-2.44-2Z"/></g><path class="cls-17" d="M52,39.37h0l-.34-.79-3.32.65-.33.92h0a2.3,2.3,0,0,0-.09.64,1.68,1.68,0,0,0,2.09,1.7A2.69,2.69,0,0,0,52.14,40,1.89,1.89,0,0,0,52,39.37Z"/><g class="cls-20"><path class="cls-21" d="M52,39.37h0l-.34-.79-1.65.32v3.6A2.69,2.69,0,0,0,52.14,40a1.89,1.89,0,0,0-.1-.6Z"/></g><path class="cls-22" d="M50.05,41a1.22,1.22,0,0,1-1.52-1.23A2,2,0,0,1,50,37.91a1.22,1.22,0,0,1,1.52,1.24A1.94,1.94,0,0,1,50.05,41Z"/><path class="cls-17" d="M50,38.16a1,1,0,0,1,1.28,1,1.64,1.64,0,0,1-1.27,1.54,1,1,0,0,1-1.28-1A1.62,1.62,0,0,1,50,38.16m0-.49a2.26,2.26,0,0,0-1.75,2.12,1.41,1.41,0,0,0,1.76,1.42A2.24,2.24,0,0,0,51.8,39.1,1.42,1.42,0,0,0,50,37.67Z"/><path class="cls-22" d="M37.48,53.59l3.78-.74"/><path class="cls-17" d="M41.26,53.05l-3.78.75a.17.17,0,0,1-.21-.17.25.25,0,0,1,.21-.24l3.78-.75a.16.16,0,0,1,.2.17A.26.26,0,0,1,41.26,53.05Z"/><g class="cls-19"><path d="M38.94,53.75a.31.31,0,0,1-.24.29l-.56.11a.19.19,0,0,1-.24-.2V53.5a.32.32,0,0,1,.24-.3l.55-.11a.21.21,0,0,1,.25.2Z"/></g><path class="cls-22" d="M38,53.81a.2.2,0,0,1-.25-.2v-.2a.32.32,0,0,1,.25-.29L38.4,53a.21.21,0,0,1,.25.2v.2a.32.32,0,0,1-.25.3Z"/><path class="cls-25" d="M38,53.23l.38-.08a.11.11,0,0,1,.14.11v.2a.18.18,0,0,1-.14.17l-.38.08a.12.12,0,0,1-.14-.12v-.2a.17.17,0,0,1,.14-.16M38,53h0a.46.46,0,0,0-.35.43v.19a.28.28,0,0,0,.35.29l.38-.07a.45.45,0,0,0,.35-.43v-.2a.28.28,0,0,0-.35-.28L38,53Z"/><path class="cls-22" d="M37.48,55.32l3.78-.75"/><path class="cls-17" d="M41.26,54.78l-3.78.75a.17.17,0,0,1-.21-.17.25.25,0,0,1,.21-.24l3.78-.75a.16.16,0,0,1,.2.16A.28.28,0,0,1,41.26,54.78Z"/><g class="cls-19"><path d="M40.33,55.2a.32.32,0,0,1-.25.3l-.55.11a.21.21,0,0,1-.25-.2V55a.31.31,0,0,1,.25-.29l.55-.11a.2.2,0,0,1,.25.2Z"/></g><path class="cls-22" d="M39.41,55.27a.2.2,0,0,1-.25-.2v-.2a.32.32,0,0,1,.25-.3l.38-.07a.19.19,0,0,1,.24.2v.2a.32.32,0,0,1-.24.29Z"/><path class="cls-25" d="M39.41,54.68l.38-.07a.11.11,0,0,1,.14.11v.2a.18.18,0,0,1-.14.16l-.38.08a.11.11,0,0,1-.14-.11v-.2a.18.18,0,0,1,.14-.17m0-.21h0a.45.45,0,0,0-.36.42v.2a.29.29,0,0,0,.36.29l.38-.08a.46.46,0,0,0,.35-.43v-.19a.28.28,0,0,0-.35-.29l-.38.08Z"/><g class="cls-11"><path d="M50.34,45.61a2.32,2.32,0,0,0-1.8,2.18,1.44,1.44,0,0,0,1.8,1.46,2.32,2.32,0,0,0,1.8-2.18,1.45,1.45,0,0,0-1.8-1.46Z"/></g><path class="cls-17" d="M51.62,46.42h0l-.26-.58-2.45.49-.24.68h0a1.59,1.59,0,0,0-.07.48,1.23,1.23,0,0,0,1.55,1.24,2,2,0,0,0,1.54-1.87A1.56,1.56,0,0,0,51.62,46.42Z"/><g class="cls-20"><path class="cls-21" d="M51.62,46.42h0l-.26-.58-1.22.24c0,1.07,0,1.6,0,2.66a2,2,0,0,0,1.54-1.87,1.56,1.56,0,0,0-.07-.44Z"/></g><path class="cls-22" d="M50.15,47.62A.91.91,0,0,1,49,46.71a1.44,1.44,0,0,1,1.12-1.36.9.9,0,0,1,1.12.91A1.45,1.45,0,0,1,50.15,47.62Z"/><path class="cls-17" d="M50.14,45.53a.76.76,0,0,1,1,.76,1.23,1.23,0,0,1-.94,1.15.76.76,0,0,1-.95-.77,1.21,1.21,0,0,1,.94-1.14m0-.36a1.68,1.68,0,0,0-1.29,1.57,1,1,0,0,0,1.3,1,1.67,1.67,0,0,0,1.29-1.57,1,1,0,0,0-1.3-1Z"/><g class="cls-26"><path class="cls-22" d="M48.05,47.05v-.16"/><path class="cls-17" d="M48.05,47.29a.2.2,0,0,1-.24-.2v-.15a.32.32,0,0,1,.24-.29.19.19,0,0,1,.24.19V47A.32.32,0,0,1,48.05,47.29Z"/></g><g class="cls-26"><path class="cls-22" d="M49.22,45.68v-.16"/><path class="cls-17" d="M49.22,45.92a.19.19,0,0,1-.24-.19v-.16a.32.32,0,0,1,.24-.29.2.2,0,0,1,.24.2v.15A.32.32,0,0,1,49.22,45.92Z"/></g><g class="cls-26"><path class="cls-22" d="M51.17,45.26v-.15"/><path class="cls-17" d="M51.17,45.5a.19.19,0,0,1-.24-.19v-.16a.29.29,0,0,1,.23-.28.19.19,0,0,1,.24.19v.15A.3.3,0,0,1,51.17,45.5Z"/></g><g class="cls-26"><path class="cls-22" d="M52.48,46.32v-.16"/><path class="cls-17" d="M52.48,46.56a.2.2,0,0,1-.24-.2v-.15a.32.32,0,0,1,.24-.29.19.19,0,0,1,.24.19v.16A.32.32,0,0,1,52.48,46.56Z"/></g><g class="cls-26"><path class="cls-22" d="M49,43.3l2.25-.45"/><path class="cls-17" d="M51.23,43.06,49,43.51v-.42l2.25-.45Z"/></g><g class="cls-26"><path class="cls-22" d="M49.13,49.5,51.38,49"/><path class="cls-17" d="M51.38,49.25l-2.25.46v-.42l2.25-.46Z"/></g><g class="cls-26"><path class="cls-22" d="M27.36,58.08l2.14-.4"/><path class="cls-17" d="M29.5,57.89l-2.14.4v-.42l2.14-.4Z"/></g><g class="cls-26"><path class="cls-22" d="M32,57.21l2.13-.41"/><path class="cls-17" d="M34.11,57,32,57.42V57l2.13-.41Z"/></g><g class="cls-26"><path class="cls-22" d="M44.87,54.25l1.57-.32"/><path class="cls-17" d="M46.12,54.21l-.42.08v-.42l.41-.08Zm-.56.11-.69.14V54l.69-.14Z"/></g><g class="cls-26"><path class="cls-22" d="M42.76,48.68,45,48.23"/><path class="cls-17" d="M45,48.44l-2.26.45v-.42L45,48Z"/></g><g class="cls-26"><path class="cls-22" d="M42.79,43.67,45,43.23"/><path class="cls-17" d="M45,43.44l-2.25.44v-.42L45,43Z"/></g><g class="cls-26"><path class="cls-22" d="M47.22,53.77l1.56-.32"/><path class="cls-17" d="M48.46,53.73l-.41.08v-.42l.41-.08Zm-.55.11-.69.14v-.42l.69-.14Z"/></g><g class="cls-26"><path class="cls-22" d="M49.7,53.27,51.26,53"/><path class="cls-17" d="M50.94,53.22l-.41.09v-.42l.41-.09Zm-.55.11-.69.14v-.41l.69-.14Z"/></g></g><g id="oscilloscope-2" data-name="oscilloscope"><g class="cls-1"><path class="cls-2" d="M31.8.41Q42.72,6.88,53.51,13.54a2.34,2.34,0,0,0-1.38-.33Q41.22,6.51,30.21,0A3.16,3.16,0,0,1,31.8.41Z"/><path class="cls-3" d="M23.07,26.71c-7.36-4.21-14.68-8.53-21.85-13l.16-.05c7.18,4.52,14.52,8.84,21.88,13.06Z"/><path class="cls-3" d="M23.14,41.5C15.82,37.42,8.5,33.32,1.27,29.08A2.81,2.81,0,0,1,0,26.52c0-4.08,0-6.24,0-10.18v-1a1.87,1.87,0,0,1,1.2-1.72c7.17,4.52,14.49,8.84,21.85,13.05a1.76,1.76,0,0,0-1.38,1.59v.92c0,3.79,0,5.85,0,9.74A2.81,2.81,0,0,0,23.14,41.5Z"/><path class="cls-2" d="M23.26,26.67C15.9,22.45,8.56,18.13,1.38,13.61c0-1.25,0-2.55,0-4.2A4.68,4.68,0,0,1,4.61,5.05c8.2-2.07,16.6-3.56,24.93-5A4,4,0,0,1,30.21,0q11,6.5,21.92,13.21a3.2,3.2,0,0,0-.59.08c-8.15,2-16.42,3.53-24.65,5.15a4.57,4.57,0,0,0-3.61,4.15C23.28,24.2,23.27,25.46,23.26,26.67Z"/></g><path class="cls-3" d="M21.69,26.49q15.84-3,31.65-6.18v.19c0,4.22,0,6.34,0,10.56a2.9,2.9,0,0,1-2.23,2.71C42.1,35.67,33,37.51,24,39.12a1.85,1.85,0,0,1-2.27-1.86V26.49M21.49,25a1.7,1.7,0,0,0-1.34,1.58v11A3.11,3.11,0,0,0,24,40.65c9.09-1.59,18.14-3.44,27.16-5.35h0a4.89,4.89,0,0,0,3.74-4.56V19.8a1,1,0,0,0-1.31-1.06C42.87,20.87,32.18,22.93,21.49,25Z"/><path class="cls-4" d="M22.89,38.84a.59.59,0,0,1-.73-.59c0-7,0-10.53,0-17.55a3.85,3.85,0,0,1,3-3.58C33.43,15.47,41.7,13.9,50,12.31a2.37,2.37,0,0,1,3,2.4c0,7,0,10.5,0,17.5a.93.93,0,0,1-.72.87C42.45,35.09,32.7,37,22.89,38.84Z"/><path class="cls-2" d="M50,12.8a2,2,0,0,1,2.47,2c0,3.76,0,5.64,0,9.4v8.11a.3.3,0,0,1-.24.28c-9.77,2-19.52,3.95-29.32,5.77a.21.21,0,0,1-.25-.2V20.61a3.21,3.21,0,0,1,2.51-3C33.43,16,41.7,14.39,50,12.8m0-1c-8.27,1.58-16.54,3.14-24.8,4.8a4.51,4.51,0,0,0-3.49,4.17V38.33a1,1,0,0,0,1.22,1c9.81-1.81,19.57-3.75,29.33-5.76a1.57,1.57,0,0,0,1.2-1.46V14.61A2.76,2.76,0,0,0,50,11.83Z"/><g class="cls-5"><path class="cls-6" d="M25.82,30.24a1,1,0,0,1-1.18-1V21a1.35,1.35,0,0,1,1.05-1.38c5.12-1,7.65-1.5,12.71-2.48a1,1,0,0,1,1.17,1v8.33a1.49,1.49,0,0,1-1.17,1.41C33.4,28.79,30.88,29.28,25.82,30.24Z"/><path class="cls-6" d="M38.4,17.45a.67.67,0,0,1,.83.67v8.34a1,1,0,0,1-.82,1c-5,1-7.53,1.48-12.59,2.44a.67.67,0,0,1-.83-.68V20.9a.92.92,0,0,1,.69-1c5.13-1,7.66-1.5,12.72-2.48m0-.7c-5.06,1-7.59,1.46-12.71,2.48a1.8,1.8,0,0,0-1.4,1.8v8.31a1.23,1.23,0,0,0,1.53,1.24c5.06-.95,7.58-1.44,12.59-2.43a1.94,1.94,0,0,0,1.52-1.83c0-3.33,0-5,0-8.33a1.23,1.23,0,0,0-1.52-1.24Z"/></g><g class="cls-7"><path class="cls-8" d="M25.82,31.07a.94.94,0,0,1-1.18-.95V21.8a1.35,1.35,0,0,1,1-1.38L38.4,17.94a1,1,0,0,1,1.17,1c0,3.33,0,5,0,8.33a1.49,1.49,0,0,1-1.17,1.41C33.4,29.63,30.88,30.12,25.82,31.07Z"/><path class="cls-8" d="M38.4,18.29a.66.66,0,0,1,.83.67c0,3.34,0,5,0,8.34a1,1,0,0,1-.83,1c-5,1-7.53,1.48-12.59,2.43a.66.66,0,0,1-.83-.67V21.73a.93.93,0,0,1,.69-1L38.4,18.29m0-.7c-5.06,1-7.59,1.46-12.72,2.48a1.8,1.8,0,0,0-1.39,1.8v8.31a1.23,1.23,0,0,0,1.53,1.24c5.06-1,7.58-1.44,12.59-2.43a1.94,1.94,0,0,0,1.52-1.83c0-3.33,0-5,0-8.33a1.23,1.23,0,0,0-1.52-1.24Z"/></g><path class="cls-6" d="M25.8,30.45a1,1,0,0,1-1.18-1V21.18a1.52,1.52,0,0,1,1.18-1.42c5.12-1,7.66-1.5,12.72-2.47a.94.94,0,0,1,1.17.95c0,3.34,0,5,0,8.34A1.51,1.51,0,0,1,38.54,28C33.47,29,30.93,29.48,25.8,30.45Z"/><g class="cls-9"><path class="cls-10" d="M35.28,26.24c-1.74.34-1.88-1.3-2-2.38-.12-1.45-.28-1.84-1-1.69s-1,.73-1.23,2.11c-.2,1.21-.47,2.88-2.3,3.23s-2.18-1.44-2.32-2.65-.26-1.51-.6-1.44l-.24,0h0s.06,0,.07,0L25,22.61a1.16,1.16,0,0,1,.71-.29l.13,0c1.43-.28,1.59,1.17,1.71,2.22.17,1.55.37,2,1.21,1.87s1-.73,1.21-2.09.48-2.9,2.32-3.26,2.06,1.36,2.16,2.5c.12,1.42.27,1.7.87,1.58s.83-.6,1-2.05c.15-1.21.36-2.88,2.09-3.21a3.91,3.91,0,0,1,.91-.11l-.15,1.13a3.17,3.17,0,0,0-.76.1c-.66.12-.81.59-1,2C37.24,24.23,37,25.9,35.28,26.24Z"/></g><path class="cls-10" d="M35.28,25.93c-1.45.28-1.57-1-1.67-2.16-.11-1.34-.26-2.13-1.36-1.92s-1.31,1.06-1.53,2.43-.43,2.61-2,2.92-1.87-1.21-2-2.43-.24-1.8-.91-1.67l-.21,0c-.11,0-.12,0-.19.07-.1-.14-.16-.21-.26-.36a.79.79,0,0,1,.5-.2l.16,0c1.14-.22,1.28,1,1.4,2,.16,1.41.35,2.31,1.52,2.09s1.29-1.05,1.52-2.42.43-2.62,2-2.93,1.74,1.12,1.84,2.27.23,2,1.19,1.81,1.15-1,1.32-2.38.32-2.61,1.78-2.89a4.14,4.14,0,0,1,.87-.1l-.07.49a3.5,3.5,0,0,0-.8.1c-1,.19-1.14,1-1.3,2.36S36.76,25.64,35.28,25.93Z"/><g class="cls-11"><path class="cls-12" d="M26.45,20.26V29.7"/><path class="cls-12" d="M28.76,19.81v9.45"/><path class="cls-12" d="M31.07,19.36v9.45"/><path class="cls-12" d="M33.38,18.91v9.46"/><path class="cls-12" d="M35.67,18.47v9.45"/><path class="cls-12" d="M38,18c0,3.78,0,5.67,0,9.45"/></g><g class="cls-11"><path class="cls-13" d="M38.94,17.84c-5.47,1.06-8.21,1.58-13.76,2.68"/><path class="cls-13" d="M38.94,20.2,25.18,22.88"/><path class="cls-13" d="M39,22.56,25.18,25.23"/><path class="cls-13" d="M39,24.92c-5.48,1.08-8.23,1.61-13.77,2.67"/><path class="cls-13" d="M39,27.28c-5.48,1.08-8.23,1.62-13.77,2.66"/></g><g class="cls-14"><path class="cls-15" d="M27.07,30.2l-1.27.25,6.57-1.26c.92-4.46,1.37-6.69,2.28-11.16l-5.28,1Z"/></g><path class="cls-16" d="M38.36,18.63a.44.44,0,0,1,.54.44v8a.69.69,0,0,1-.53.64c-4.94,1-7.41,1.45-12.4,2.39a.43.43,0,0,1-.53-.43v-8A.69.69,0,0,1,26,21c5-1,7.45-1.45,12.38-2.41m0-1.1h0C33.43,18.48,31,19,26,19.94a1.37,1.37,0,0,0-1.08,1.29c0,3.41,0,5.11,0,8.52a.87.87,0,0,0,1.08.88c5-.94,7.46-1.42,12.4-2.4a1.36,1.36,0,0,0,1.07-1.29c0-3.41,0-5.12,0-8.54a.86.86,0,0,0-1.07-.87Z"/><path class="cls-17" d="M44.14,30.85a.65.65,0,0,1-.81-.66,1,1,0,0,1,.8-1,.64.64,0,0,1,.81.65A1,1,0,0,1,44.14,30.85Z"/><path class="cls-18" d="M44.13,29.34a.56.56,0,0,1,.69.55.89.89,0,0,1-.68.83.55.55,0,0,1-.69-.55.89.89,0,0,1,.68-.83m0-.25a1.2,1.2,0,0,0-.93,1.13.74.74,0,0,0,.94.75,1.2,1.2,0,0,0,.93-1.13.75.75,0,0,0-.94-.75Z"/><path class="cls-17" d="M46.57,30.35a.64.64,0,0,1-.8-.65,1,1,0,0,1,.8-1,.65.65,0,0,1,.81.66A1,1,0,0,1,46.57,30.35Z"/><path class="cls-18" d="M46.57,28.85a.54.54,0,0,1,.68.55.88.88,0,0,1-.68.83.55.55,0,0,1-.68-.55.89.89,0,0,1,.68-.83m0-.25a1.2,1.2,0,0,0-.93,1.13.74.74,0,0,0,.93.75,1.2,1.2,0,0,0,.93-1.13.74.74,0,0,0-.93-.75Z"/><path class="cls-17" d="M49,29.85a.64.64,0,0,1-.81-.65,1,1,0,0,1,.81-1,.64.64,0,0,1,.8.65A1,1,0,0,1,49,29.85Z"/><path class="cls-18" d="M49,28.35a.55.55,0,0,1,.68.55.89.89,0,0,1-.68.83.54.54,0,0,1-.68-.55.88.88,0,0,1,.68-.83m0-.25a1.19,1.19,0,0,0-.93,1.13A.74.74,0,0,0,49,30,1.21,1.21,0,0,0,50,28.85.74.74,0,0,0,49,28.1Z"/><g class="cls-19"><path d="M27.22,32.51a1.69,1.69,0,0,0-1.34,1.59,1.09,1.09,0,0,0,1.34,1.1,1.7,1.7,0,0,0,1.34-1.6,1.08,1.08,0,0,0-1.34-1.09Z"/></g><path class="cls-17" d="M28.17,33.12h0L28,32.68,26.16,33l-.18.5h0a1,1,0,0,0-.05.35.92.92,0,0,0,1.14.93,1.45,1.45,0,0,0,1.15-1.36A.88.88,0,0,0,28.17,33.12Z"/><g class="cls-20"><path class="cls-21" d="M28.17,33.12h0L28,32.68l-.9.17c0,.78,0,1.18,0,2a1.45,1.45,0,0,0,1.15-1.36.88.88,0,0,0,0-.33Z"/></g><path class="cls-22" d="M27.07,34a.67.67,0,0,1-.83-.68,1.07,1.07,0,0,1,.84-1,.67.67,0,0,1,.83.68A1.07,1.07,0,0,1,27.07,34Z"/><path class="cls-23" d="M27.08,32.44a.57.57,0,0,1,.7.58.9.9,0,0,1-.7.84.58.58,0,0,1-.71-.58.9.9,0,0,1,.71-.84m0-.26a1.22,1.22,0,0,0-1,1.15.78.78,0,0,0,1,.79A1.22,1.22,0,0,0,28,33a.78.78,0,0,0-1-.79Z"/><g class="cls-19"><path d="M31.87,31.62a1.71,1.71,0,0,0-1.34,1.61,1.08,1.08,0,0,0,1.34,1.09,1.7,1.7,0,0,0,1.33-1.61,1.07,1.07,0,0,0-1.33-1.09Z"/></g><path class="cls-17" d="M32.82,32.23h0l-.19-.43-1.82.35-.18.5h0a1.34,1.34,0,0,0-.05.35.92.92,0,0,0,1.14.93,1.45,1.45,0,0,0,1.15-1.37A1.14,1.14,0,0,0,32.82,32.23Z"/><g class="cls-20"><path class="cls-21" d="M32.82,32.23h0l-.19-.43-.91.17v2a1.45,1.45,0,0,0,1.15-1.37,1.14,1.14,0,0,0,0-.33Z"/></g><path class="cls-22" d="M31.72,33.1a.67.67,0,0,1-.83-.67,1.07,1.07,0,0,1,.83-1,.67.67,0,0,1,.83.68A1,1,0,0,1,31.72,33.1Z"/><path class="cls-23" d="M31.72,31.56a.57.57,0,0,1,.71.57.89.89,0,0,1-.71.84.56.56,0,0,1-.7-.57.9.9,0,0,1,.7-.84m0-.26a1.22,1.22,0,0,0-1,1.15.78.78,0,0,0,1,.79,1.24,1.24,0,0,0,1-1.16.77.77,0,0,0-1-.78Z"/><path class="cls-2" d="M38.53,17.64a.66.66,0,0,1,.82.67v8.34a1.06,1.06,0,0,1-.82,1c-5.07,1-7.61,1.49-12.74,2.46a.68.68,0,0,1-.83-.68c0-3.32,0-5,0-8.31a1.06,1.06,0,0,1,.83-1c5.12-1,7.66-1.5,12.72-2.47m0-.7h0c-5.06,1-7.6,1.46-12.72,2.47a2,2,0,0,0-1.53,1.84c0,3.32,0,5,0,8.31A1.23,1.23,0,0,0,25.8,30.8c5.12-1,7.67-1.46,12.74-2.46a2,2,0,0,0,1.51-1.83c0-3.33,0-5,0-8.33a1.22,1.22,0,0,0-1.51-1.24Z"/><path class="cls-24" d="M41.09,24.05l-.17,0a2.09,2.09,0,0,1,0-.35h.16A1.73,1.73,0,0,0,41.09,24.05ZM44,23.46a1.45,1.45,0,0,0,0-.3l.16-.07a1.86,1.86,0,0,1,0,.34Zm-2.83-.05-.15,0a2.21,2.21,0,0,1,.18-.34l.13.07C41.31,23.21,41.26,23.31,41.21,23.41Zm2.7-.53a1,1,0,0,0-.15-.24l.13-.12a1.06,1.06,0,0,1,.17.26Zm-2.34,0-.11-.1a2.27,2.27,0,0,1,.28-.26l.08.13A2.73,2.73,0,0,0,41.57,22.84Zm2-.39a1.23,1.23,0,0,0-.25-.14l.08-.15a1,1,0,0,1,.28.14Zm-1.45,0-.05-.14a1.63,1.63,0,0,1,.34-.14l0,.16A1.66,1.66,0,0,0,42.1,22.42Zm.92-.18h-.3v-.17a1.28,1.28,0,0,1,.34,0Z"/><g class="cls-11"><path d="M42.73,22.5a2,2,0,0,0-1.56,1.9,1.26,1.26,0,0,0,1.57,1.28,2,2,0,0,0,1.57-1.9,1.27,1.27,0,0,0-1.58-1.28Z"/></g><path class="cls-21" d="M43.85,23.21h0l-.22-.51-2.14.42-.21.6h0a1.4,1.4,0,0,0-.06.41,1.09,1.09,0,0,0,1.35,1.1,1.74,1.74,0,0,0,1.34-1.63A1.23,1.23,0,0,0,43.85,23.21Z"/><g class="cls-20"><path class="cls-21" d="M43.85,23.21h0l-.22-.51-1.07.21v2.33a1.74,1.74,0,0,0,1.34-1.63,1.23,1.23,0,0,0-.06-.39Z"/></g><path class="cls-22" d="M42.57,24.25a.79.79,0,0,1-1-.8,1.27,1.27,0,0,1,1-1.18.79.79,0,0,1,1,.8A1.27,1.27,0,0,1,42.57,24.25Z"/><path class="cls-23" d="M42.56,22.43a.66.66,0,0,1,.83.67,1,1,0,0,1-.82,1,.66.66,0,0,1-.83-.67,1.05,1.05,0,0,1,.82-1m0-.31a1.44,1.44,0,0,0-1.12,1.36.9.9,0,0,0,1.13.92A1.44,1.44,0,0,0,43.69,23a.91.91,0,0,0-1.13-.92Z"/><path class="cls-24" d="M41.08,19.13l-.16,0a2.07,2.07,0,0,1,0-.35h.16A1.73,1.73,0,0,0,41.08,19.13Zm3-.58a1.45,1.45,0,0,0,0-.3l.16-.07a1.27,1.27,0,0,1,0,.34Zm-2.83-.05-.15,0a1.54,1.54,0,0,1,.17-.34l.13.07A1.77,1.77,0,0,0,41.21,18.5Zm2.7-.53a1.43,1.43,0,0,0-.16-.24l.13-.12a1.51,1.51,0,0,1,.18.26Zm-2.34,0-.11-.1a3.31,3.31,0,0,1,.27-.26l.09.13A1.84,1.84,0,0,0,41.57,17.92Zm2-.38a1,1,0,0,0-.25-.14l.08-.16a1.25,1.25,0,0,1,.28.15Zm-1.44,0-.05-.15a2.33,2.33,0,0,1,.33-.14l0,.16A1.94,1.94,0,0,0,42.1,17.51Zm.91-.18a1.51,1.51,0,0,0-.3,0l0-.16a1.82,1.82,0,0,1,.33,0Z"/><g class="cls-11"><path d="M42.73,17.59a2,2,0,0,0-1.57,1.89,1.26,1.26,0,0,0,1.57,1.28,2,2,0,0,0,1.57-1.89,1.27,1.27,0,0,0-1.57-1.28Z"/></g><path class="cls-21" d="M43.84,18.3h0l-.22-.51-2.13.42-.21.59h0a1.4,1.4,0,0,0-.06.41,1.09,1.09,0,0,0,1.35,1.1,1.72,1.72,0,0,0,1.34-1.62A1.23,1.23,0,0,0,43.84,18.3Z"/><g class="cls-20"><path class="cls-21" d="M43.84,18.3h0l-.22-.51L42.56,18v2.32a1.72,1.72,0,0,0,1.34-1.62,1.23,1.23,0,0,0-.06-.39Z"/></g><path class="cls-22" d="M42.56,19.33a.78.78,0,0,1-1-.79,1.25,1.25,0,0,1,1-1.18.78.78,0,0,1,1,.8A1.24,1.24,0,0,1,42.56,19.33Z"/><path class="cls-23" d="M42.56,17.51a.67.67,0,0,1,.82.68,1.05,1.05,0,0,1-.82,1,.66.66,0,0,1-.83-.67,1.06,1.06,0,0,1,.83-1m0-.31a1.44,1.44,0,0,0-1.13,1.36.91.91,0,0,0,1.13.93,1.45,1.45,0,0,0,1.13-1.36.92.92,0,0,0-1.13-.93Z"/><path class="cls-24" d="M46.47,18l-.33.07c0-.12,0-.24,0-.36l.33,0A1.62,1.62,0,0,0,46.47,18ZM51,17c0-.1,0-.2,0-.3l.32-.12a1.86,1.86,0,0,1,0,.34Zm-4.44.37-.32,0a2.06,2.06,0,0,1,.12-.35l.3.07A1.6,1.6,0,0,0,46.55,17.37Zm4.33-.95a2.06,2.06,0,0,0-.12-.26l.3-.2a2.08,2.08,0,0,1,.13.3Zm-4.1.34-.28-.12a3.45,3.45,0,0,1,.2-.32l.26.15A2.82,2.82,0,0,0,46.78,16.76Zm3.83-.84c0-.07-.12-.14-.18-.21l.24-.26a1.21,1.21,0,0,1,.21.24Zm-3.45.29-.22-.2a3.45,3.45,0,0,1,.26-.28l.19.23Zm3.05-.67L50,15.4l.18-.31a2.4,2.4,0,0,1,.27.16Zm-2.56.21-.15-.26a3.37,3.37,0,0,1,.31-.21l.12.29A1.67,1.67,0,0,0,47.65,15.75Zm2.05-.45a1.27,1.27,0,0,0-.28-.06l.1-.33a1.65,1.65,0,0,1,.32.07Zm-1.48.12-.07-.3.34-.13,0,.33Zm.91-.19-.31,0,0-.33a2,2,0,0,1,.34,0Z"/><g class="cls-11"><path d="M49,15.61a3.1,3.1,0,0,0-2.43,2.93,2,2,0,0,0,2.44,2,3.14,3.14,0,0,0,2.43-3,2,2,0,0,0-2.44-2Z"/></g><path class="cls-17" d="M50.72,16.7h0l-.34-.79-3.32.65-.33.93h0a2.25,2.25,0,0,0-.09.64,1.67,1.67,0,0,0,2.09,1.69,2.67,2.67,0,0,0,2.09-2.51A2,2,0,0,0,50.72,16.7Z"/><g class="cls-20"><path class="cls-21" d="M50.72,16.7h0l-.34-.79-1.65.33v3.59a2.67,2.67,0,0,0,2.09-2.51,2,2,0,0,0-.1-.61Z"/></g><path class="cls-22" d="M48.73,18.31a1.22,1.22,0,0,1-1.52-1.23,2,2,0,0,1,1.51-1.83,1.22,1.22,0,0,1,1.52,1.23A2,2,0,0,1,48.73,18.31Z"/><path class="cls-17" d="M48.72,15.49a1,1,0,0,1,1.28,1,1.64,1.64,0,0,1-1.27,1.54,1,1,0,0,1-1.28-1,1.64,1.64,0,0,1,1.27-1.54m0-.48A2.25,2.25,0,0,0,47,17.12a1.41,1.41,0,0,0,1.76,1.43,2.25,2.25,0,0,0,1.75-2.11A1.41,1.41,0,0,0,48.72,15Z"/><path class="cls-22" d="M36.16,30.93l3.78-.75"/><path class="cls-17" d="M39.94,30.39l-3.78.75A.17.17,0,0,1,36,31a.25.25,0,0,1,.21-.24L39.94,30a.16.16,0,0,1,.2.16A.26.26,0,0,1,39.94,30.39Z"/><g class="cls-19"><path d="M37.62,31.09a.32.32,0,0,1-.24.29l-.56.11a.19.19,0,0,1-.24-.2v-.45a.32.32,0,0,1,.24-.3l.55-.11a.21.21,0,0,1,.25.2Z"/></g><path class="cls-22" d="M36.7,31.15a.2.2,0,0,1-.25-.2v-.2a.31.31,0,0,1,.25-.29l.38-.08a.2.2,0,0,1,.25.2v.2a.32.32,0,0,1-.25.3Z"/><path class="cls-25" d="M36.7,30.56l.38-.07a.11.11,0,0,1,.14.11v.2a.18.18,0,0,1-.14.17L36.7,31a.11.11,0,0,1-.14-.11v-.2a.18.18,0,0,1,.14-.17m0-.21h0a.46.46,0,0,0-.35.42V31a.28.28,0,0,0,.35.29l.38-.08a.45.45,0,0,0,.35-.42v-.2a.28.28,0,0,0-.35-.29l-.38.08Z"/><path class="cls-22" d="M36.16,32.66l3.78-.75"/><path class="cls-17" d="M39.94,32.11c-1.51.31-2.27.46-3.78.75A.16.16,0,0,1,36,32.7a.25.25,0,0,1,.21-.24l3.78-.75a.16.16,0,0,1,.2.16A.26.26,0,0,1,39.94,32.11Z"/><g class="cls-19"><path d="M39,32.54a.31.31,0,0,1-.25.29l-.55.11a.2.2,0,0,1-.25-.2v-.45a.31.31,0,0,1,.25-.29l.55-.11a.19.19,0,0,1,.25.19Z"/></g><path class="cls-22" d="M38.09,32.61a.21.21,0,0,1-.25-.2v-.2a.32.32,0,0,1,.25-.3l.38-.07a.19.19,0,0,1,.24.19v.2a.32.32,0,0,1-.24.3Z"/><path class="cls-25" d="M38.09,32l.38-.08a.12.12,0,0,1,.14.12v.19a.18.18,0,0,1-.14.17l-.38.08a.12.12,0,0,1-.14-.12v-.19a.17.17,0,0,1,.14-.17m0-.22h0a.46.46,0,0,0-.36.43v.2a.28.28,0,0,0,.36.28l.38-.07a.46.46,0,0,0,.35-.43V32a.28.28,0,0,0-.35-.28l-.38.07Z"/><g class="cls-11"><path d="M49,23a2.32,2.32,0,0,0-1.8,2.18A1.44,1.44,0,0,0,49,26.59a2.32,2.32,0,0,0,1.8-2.18A1.44,1.44,0,0,0,49,23Z"/></g><path class="cls-17" d="M50.3,23.76h0L50,23.17l-2.45.49-.24.68h0a1.49,1.49,0,0,0-.07.47,1.24,1.24,0,0,0,1.55,1.25,2,2,0,0,0,1.54-1.87A1.5,1.5,0,0,0,50.3,23.76Z"/><g class="cls-20"><path class="cls-21" d="M50.3,23.76h0L50,23.17l-1.22.24c0,1.07,0,1.6,0,2.66a2,2,0,0,0,1.54-1.87,1.5,1.5,0,0,0-.07-.44Z"/></g><path class="cls-22" d="M48.83,25a.9.9,0,0,1-1.13-.9,1.44,1.44,0,0,1,1.12-1.36.9.9,0,0,1,1.12.91A1.43,1.43,0,0,1,48.83,25Z"/><path class="cls-17" d="M48.82,22.86a.76.76,0,0,1,1,.77,1.22,1.22,0,0,1-1,1.15.76.76,0,0,1-.94-.77,1.23,1.23,0,0,1,.94-1.15m0-.35a1.68,1.68,0,0,0-1.29,1.57,1,1,0,0,0,1.3,1.05,1.68,1.68,0,0,0,1.29-1.57,1,1,0,0,0-1.3-1Z"/><g class="cls-26"><path class="cls-22" d="M46.73,24.38v-.15"/><path class="cls-17" d="M46.73,24.62a.19.19,0,0,1-.24-.19v-.15a.31.31,0,0,1,.24-.29.19.19,0,0,1,.24.19v.16A.3.3,0,0,1,46.73,24.62Z"/></g><g class="cls-26"><path class="cls-22" d="M47.9,23v-.16"/><path class="cls-17" d="M47.9,23.26a.2.2,0,0,1-.24-.2v-.15a.32.32,0,0,1,.24-.29.19.19,0,0,1,.24.19V23A.32.32,0,0,1,47.9,23.26Z"/></g><g class="cls-26"><path class="cls-22" d="M49.84,22.6v-.15"/><path class="cls-17" d="M49.85,22.84a.19.19,0,0,1-.24-.19v-.16a.31.31,0,0,1,.23-.29.19.19,0,0,1,.24.2v.15A.31.31,0,0,1,49.85,22.84Z"/></g><g class="cls-26"><path class="cls-22" d="M51.16,23.65V23.5"/><path class="cls-17" d="M51.16,23.89a.19.19,0,0,1-.24-.19v-.15a.32.32,0,0,1,.24-.29.19.19,0,0,1,.24.19v.16A.3.3,0,0,1,51.16,23.89Z"/></g><g class="cls-26"><path class="cls-22" d="M47.66,20.64l2.25-.45"/><path class="cls-17" d="M49.91,20.4l-2.25.45v-.42L49.91,20Z"/></g><g class="cls-26"><path class="cls-22" d="M47.81,26.84l2.25-.46"/><path class="cls-17" d="M50.06,26.59,47.81,27v-.41l2.25-.46Z"/></g><g class="cls-26"><path class="cls-22" d="M26,35.42l2.14-.4"/><path class="cls-17" d="M28.18,35.23l-2.14.4v-.42l2.14-.4Z"/></g><g class="cls-26"><path class="cls-22" d="M30.66,34.55l2.13-.41"/><path class="cls-17" d="M32.79,34.35l-2.13.41v-.42l2.13-.41Z"/></g><g class="cls-26"><path class="cls-22" d="M43.55,31.59l1.57-.32"/><path class="cls-17" d="M44.8,31.54l-.42.09v-.42l.41-.08Zm-.56.12-.69.14v-.42l.69-.14Z"/></g><g class="cls-26"><path class="cls-22" d="M41.44,26l2.26-.44"/><path class="cls-17" d="M43.7,25.78l-2.26.44v-.41l2.26-.45Z"/></g><g class="cls-26"><path class="cls-22" d="M41.47,21l2.25-.44"/><path class="cls-17" d="M43.72,20.78l-2.25.44V20.8l2.25-.44Z"/></g><g class="cls-26"><path class="cls-22" d="M45.9,31.11l1.56-.32"/><path class="cls-17" d="M47.14,31.07l-.41.08v-.42l.41-.08Zm-.55.11-.69.14V30.9l.69-.14Z"/></g><g class="cls-26"><path class="cls-22" d="M48.38,30.6l1.56-.32"/><path class="cls-17" d="M49.62,30.56l-.41.08v-.41l.41-.09Zm-.55.11-.69.14v-.42l.69-.14Z"/></g></g></g></g></g></g></svg>