<svg xmlns="http://www.w3.org/2000/svg" xmlns:xlink="http://www.w3.org/1999/xlink" viewBox="0 0 32.61 28.67"><defs><style>.cls-1{isolation:isolate;}.cls-2{fill:url(#linear-gradient);}.cls-3{fill:url(#linear-gradient-2);}.cls-4{fill:#ccc;}.cls-5{fill:url(#linear-gradient-3);}.cls-6{fill:url(#linear-gradient-4);}.cls-7{fill:url(#linear-gradient-5);}.cls-15,.cls-16,.cls-17,.cls-18,.cls-19,.cls-20,.cls-21,.cls-22,.cls-8{mix-blend-mode:multiply;}.cls-49,.cls-9{fill:#fff;}.cls-10{fill:#424242;}.cls-11,.cls-12,.cls-13,.cls-14{mix-blend-mode:overlay;}.cls-11{fill:url(#linear-gradient-6);}.cls-12{fill:url(#linear-gradient-7);}.cls-13{fill:url(#linear-gradient-8);}.cls-14{fill:url(#linear-gradient-9);}.cls-15{fill:url(#linear-gradient-10);}.cls-16{fill:url(#linear-gradient-11);}.cls-17{fill:url(#linear-gradient-12);}.cls-18{fill:url(#linear-gradient-13);}.cls-19{fill:url(#linear-gradient-14);}.cls-20{fill:url(#linear-gradient-15);}.cls-21{fill:url(#linear-gradient-16);}.cls-22{fill:url(#linear-gradient-17);}.cls-166,.cls-23{fill:#bfbfbf;}.cls-24{fill:#c1c1c1;opacity:0.96;}.cls-118,.cls-165,.cls-25{fill:#c4c4c4;}.cls-25{opacity:0.92;}.cls-26{fill:#c6c6c6;opacity:0.88;}.cls-27{fill:#c9c9c9;opacity:0.85;}.cls-28{fill:#cbcbcb;opacity:0.81;}.cls-29{fill:#cecece;opacity:0.77;}.cls-163,.cls-30{fill:#d0d0d0;}.cls-30{opacity:0.73;}.cls-31{fill:#d3d3d3;opacity:0.69;}.cls-116,.cls-32{fill:#d5d5d5;}.cls-32{opacity:0.65;}.cls-33{fill:#d8d8d8;opacity:0.62;}.cls-34{fill:#dadada;opacity:0.58;}.cls-115,.cls-35{fill:#ddd;}.cls-35{opacity:0.54;}.cls-36{fill:#dfdfdf;}.cls-100,.cls-145,.cls-36,.cls-57,.cls-89{opacity:0.5;}.cls-37{fill:#e1e1e1;opacity:0.46;}.cls-38{fill:#e4e4e4;opacity:0.42;}.cls-114,.cls-39{fill:#e6e6e6;}.cls-39{opacity:0.38;}.cls-40{fill:#e9e9e9;opacity:0.35;}.cls-41{fill:#ebebeb;opacity:0.31;}.cls-113,.cls-42{fill:#eee;}.cls-42{opacity:0.27;}.cls-43{fill:#f0f0f0;opacity:0.23;}.cls-157,.cls-44{fill:#f3f3f3;}.cls-44{opacity:0.19;}.cls-45{fill:#f5f5f5;opacity:0.15;}.cls-46,.cls-93{fill:#f8f8f8;}.cls-46{opacity:0.12;}.cls-47{fill:#fafafa;opacity:0.08;}.cls-48{fill:#fdfdfd;opacity:0.04;}.cls-49{opacity:0;}.cls-50{fill:#fbfafa;}.cls-138,.cls-50,.cls-93{opacity:0.06;}.cls-51{fill:#f6f5f5;}.cls-139,.cls-51,.cls-94{opacity:0.13;}.cls-52{fill:#f2f0f0;}.cls-140,.cls-52,.cls-95{opacity:0.19;}.cls-53{fill:#edebeb;}.cls-141,.cls-53,.cls-96{opacity:0.25;}.cls-54{fill:#e9e6e6;}.cls-142,.cls-54,.cls-97{opacity:0.31;}.cls-55{fill:#e4e1e1;}.cls-143,.cls-55,.cls-98{opacity:0.38;}.cls-56{fill:#e0dcdc;}.cls-144,.cls-56,.cls-99{opacity:0.44;}.cls-57{fill:#dcd7d7;}.cls-58{fill:#d7d1d1;}.cls-101,.cls-146,.cls-58{opacity:0.56;}.cls-59{fill:#d3cccc;}.cls-102,.cls-147,.cls-59{opacity:0.63;}.cls-60{fill:#cec7c7;}.cls-103,.cls-148,.cls-60{opacity:0.69;}.cls-61{fill:#cac2c2;}.cls-104,.cls-149,.cls-61{opacity:0.75;}.cls-62{fill:#c5bdbd;}.cls-105,.cls-150,.cls-62{opacity:0.81;}.cls-63{fill:#c1b8b8;}.cls-106,.cls-151,.cls-63{opacity:0.88;}.cls-64{fill:#bcb3b3;}.cls-107,.cls-152,.cls-64{opacity:0.94;}.cls-65{fill:#b8aeae;}.cls-66{fill:url(#linear-gradient-18);}.cls-67{fill:#faf9f9;}.cls-112,.cls-156,.cls-67{opacity:0.05;}.cls-68{fill:#f6f4f3;}.cls-113,.cls-157,.cls-68{opacity:0.1;}.cls-69{fill:#f1eeee;}.cls-114,.cls-158,.cls-69{opacity:0.14;}.cls-70{fill:#ece9e8;}.cls-115,.cls-159,.cls-70{opacity:0.19;}.cls-71{fill:#e7e3e2;}.cls-116,.cls-160,.cls-71{opacity:0.24;}.cls-72{fill:#e3dedc;}.cls-117,.cls-161,.cls-72{opacity:0.29;}.cls-73{fill:#ded8d7;}.cls-118,.cls-162,.cls-73{opacity:0.33;}.cls-74{fill:#d9d3d1;}.cls-119,.cls-163,.cls-74{opacity:0.38;}.cls-75{fill:#d5cdcb;}.cls-120,.cls-164,.cls-75{opacity:0.43;}.cls-76{fill:#d0c8c5;}.cls-121,.cls-165,.cls-76{opacity:0.48;}.cls-77{fill:#cbc2c0;}.cls-122,.cls-166,.cls-77{opacity:0.52;}.cls-78{fill:#c6bdba;}.cls-123,.cls-167,.cls-78{opacity:0.57;}.cls-79{fill:#c2b7b4;}.cls-124,.cls-168,.cls-79{opacity:0.62;}.cls-80{fill:#bdb2ae;}.cls-125,.cls-169,.cls-80{opacity:0.67;}.cls-81{fill:#b8aca9;}.cls-126,.cls-170,.cls-81{opacity:0.71;}.cls-82{fill:#b4a7a3;}.cls-127,.cls-171,.cls-82{opacity:0.76;}.cls-83{fill:#afa19d;}.cls-128,.cls-172,.cls-83{opacity:0.81;}.cls-84{fill:#aa9c97;}.cls-129,.cls-173,.cls-84{opacity:0.86;}.cls-85{fill:#a59692;}.cls-130,.cls-174,.cls-85{opacity:0.9;}.cls-86{fill:#a1918c;}.cls-131,.cls-175,.cls-86{opacity:0.95;}.cls-87{fill:#9c8b86;}.cls-88{fill:url(#radial-gradient);}.cls-109,.cls-110,.cls-134,.cls-136,.cls-137,.cls-178,.cls-180,.cls-181,.cls-189,.cls-191,.cls-89,.cls-90,.cls-92{mix-blend-mode:screen;}.cls-90{fill:#ffe669;}.cls-134,.cls-178,.cls-189,.cls-90{opacity:0.98;}.cls-91{fill:#fffae1;}.cls-92{fill:#f9e166;}.cls-136,.cls-137,.cls-180,.cls-181,.cls-191,.cls-92{opacity:0.96;}.cls-94{fill:#f2f1f1;}.cls-95{fill:#ebe9e9;}.cls-96{fill:#e4e2e2;}.cls-97{fill:#dedbdb;}.cls-98{fill:#d7d4d4;}.cls-99{fill:#d0cdcd;}.cls-100{fill:#cac6c6;}.cls-101{fill:#c3bebe;}.cls-102{fill:#bcb7b7;}.cls-103{fill:#b5b0b0;}.cls-104{fill:#afa9a9;}.cls-105{fill:#a8a2a2;}.cls-106{fill:#a19a9a;}.cls-107{fill:#9b9393;}.cls-108{fill:#948c8c;}.cls-109{fill:url(#linear-gradient-19);}.cls-110{fill:url(#linear-gradient-20);}.cls-111{fill:url(#radial-gradient-2);}.cls-112{fill:#f7f7f7;}.cls-117{fill:#cdcdcd;}.cls-119{fill:#bcbcbc;}.cls-120{fill:#b4b4b4;}.cls-121{fill:#ababab;}.cls-122{fill:#a3a3a3;}.cls-123{fill:#9a9a9a;}.cls-124{fill:#929292;}.cls-125,.cls-175{fill:#8a8a8a;}.cls-126{fill:#818181;}.cls-127{fill:#797979;}.cls-128{fill:#717171;}.cls-129{fill:#686868;}.cls-130{fill:#606060;}.cls-131{fill:#575757;}.cls-132{fill:#4f4f4f;}.cls-133{fill:url(#radial-gradient-3);}.cls-134{fill:#d75eff;}.cls-135{fill:#f2c9ff;}.cls-136{fill:#9e2dc4;}.cls-137{fill:#bf39ed;}.cls-138{fill:#fbfbfb;}.cls-139{fill:#f8f6f6;}.cls-140{fill:#f4f2f2;}.cls-141{fill:#f0eeee;}.cls-142{fill:#ede9e9;}.cls-143{fill:#e9e5e5;}.cls-144{fill:#e5e1e1;}.cls-145{fill:#e2dddd;}.cls-146{fill:#ded8d8;}.cls-147{fill:#dad4d4;}.cls-148{fill:#d6d0d0;}.cls-149{fill:#d3cbcb;}.cls-150{fill:#cfc7c7;}.cls-151{fill:#cbc3c3;}.cls-152{fill:#c8bebe;}.cls-153{fill:#c4baba;}.cls-154{fill:url(#linear-gradient-21);}.cls-155{fill:url(#linear-gradient-22);}.cls-156{fill:#f9f9f9;}.cls-158{fill:#ededed;}.cls-159{fill:#e8e8e8;}.cls-160{fill:#e2e2e2;}.cls-161{fill:#dcdcdc;}.cls-162{fill:#d6d6d6;}.cls-164{fill:#cacaca;}.cls-167{fill:#b9b9b9;}.cls-168{fill:#b3b3b3;}.cls-169{fill:#adadad;}.cls-170{fill:#a7a7a7;}.cls-171{fill:#a1a1a1;}.cls-172{fill:#9b9b9b;}.cls-173{fill:#969696;}.cls-174{fill:#909090;}.cls-176{fill:#848484;}.cls-177{fill:url(#radial-gradient-4);}.cls-178{fill:#ff6969;}.cls-179{fill:#ffe1e1;}.cls-180{fill:#662a2a;}.cls-181{fill:#4a1e1e;}.cls-182{fill:url(#linear-gradient-23);}.cls-183{fill:url(#radial-gradient-5);}.cls-184{fill:url(#radial-gradient-6);}.cls-185{fill:url(#radial-gradient-7);}.cls-186{fill:url(#linear-gradient-24);}.cls-187{fill:url(#radial-gradient-8);}.cls-188{fill:url(#radial-gradient-9);}.cls-189{fill:#69ffff;}.cls-190{fill:#e1ffff;}.cls-191{fill:#66f9f9;}.cls-192{fill:url(#radial-gradient-10);}</style><linearGradient id="linear-gradient" x1="16.3" y1="28.61" x2="16.3" y2="0.05" gradientUnits="userSpaceOnUse"><stop offset="0" stop-color="#adadad"/><stop offset="0.13" stop-color="#c2c2c2"/><stop offset="0.32" stop-color="#dbdbdb"/><stop offset="0.53" stop-color="#ececec"/><stop offset="0.74" stop-color="#f7f7f7"/><stop offset="1" stop-color="#fafafa"/></linearGradient><linearGradient id="linear-gradient-2" x1="30.63" y1="28.61" x2="30.63" y2="0.05" gradientUnits="userSpaceOnUse"><stop offset="0" stop-color="#8e8e8e"/><stop offset="0.21" stop-color="#b6b6b6"/><stop offset="0.43" stop-color="#d5d5d5"/><stop offset="0.64" stop-color="#ececec"/><stop offset="0.83" stop-color="#fafafa"/><stop offset="1" stop-color="#fff"/></linearGradient><linearGradient id="linear-gradient-3" x1="1.84" y1="27.22" x2="1.84" y2="0.93" xlink:href="#linear-gradient-2"/><linearGradient id="linear-gradient-4" x1="5.43" y1="27.34" x2="28.64" y2="27.34" gradientUnits="userSpaceOnUse"><stop offset="0" stop-color="#f7f7f7"/><stop offset="0.56" stop-color="#b5b5b5"/><stop offset="1" stop-color="#fff"/></linearGradient><linearGradient id="linear-gradient-5" x1="3.62" y1="0.98" x2="28.73" y2="0.98" gradientUnits="userSpaceOnUse"><stop offset="0.09" stop-color="#f7f7f7"/><stop offset="0.21" stop-color="#f2f2f2"/><stop offset="0.36" stop-color="#e3e3e3"/><stop offset="0.49" stop-color="#cfcfcf"/><stop offset="0.67" stop-color="#e6e6e6"/><stop offset="0.86" stop-color="#f9f9f9"/><stop offset="1" stop-color="#fff"/></linearGradient><linearGradient id="linear-gradient-6" x1="29.72" y1="28.67" x2="29.72" y2="23.04" gradientUnits="userSpaceOnUse"><stop offset="0.16" stop-color="#3b3b3b"/><stop offset="0.79" stop-color="#a1a1a1"/></linearGradient><linearGradient id="linear-gradient-7" x1="2.87" y1="27.39" x2="2.87" y2="21.73" xlink:href="#linear-gradient-6"/><linearGradient id="linear-gradient-8" x1="29.75" y1="5.63" x2="29.75" gradientUnits="userSpaceOnUse"><stop offset="0.16" stop-color="#575757"/><stop offset="0.79" stop-color="#b3b3b3"/></linearGradient><linearGradient id="linear-gradient-9" x1="2.89" y1="6.41" x2="2.89" y2="0.76" xlink:href="#linear-gradient-8"/><linearGradient id="linear-gradient-10" x1="5.79" y1="26.87" x2="6.52" y2="26.87" gradientUnits="userSpaceOnUse"><stop offset="0" stop-color="#999"/><stop offset="0.13" stop-color="#b1b1b1"/><stop offset="0.35" stop-color="#d2d2d2"/><stop offset="0.56" stop-color="#ebebeb"/><stop offset="0.75" stop-color="#fafafa"/><stop offset="0.91" stop-color="#fff"/></linearGradient><linearGradient id="linear-gradient-11" x1="35.7" y1="27.82" x2="36.41" y2="27.82" gradientTransform="matrix(-1, 0, 0, 1, 62.61, 0)" xlink:href="#linear-gradient-10"/><linearGradient id="linear-gradient-12" x1="-207.17" y1="-5.38" x2="-206.35" y2="-5.38" gradientTransform="matrix(0, 1, 1, 0, 37.35, 229.49)" gradientUnits="userSpaceOnUse"><stop offset="0.09" stop-color="#fff"/><stop offset="0.25" stop-color="#fafafa"/><stop offset="0.44" stop-color="#ebebeb"/><stop offset="0.65" stop-color="#d2d2d2"/><stop offset="0.87" stop-color="#b1b1b1"/><stop offset="1" stop-color="#999"/></linearGradient><linearGradient id="linear-gradient-13" x1="-115.07" y1="-5.32" x2="-114.32" y2="-5.32" gradientTransform="translate(37.35 -108.71) rotate(-90)" xlink:href="#linear-gradient-12"/><linearGradient id="linear-gradient-14" x1="-208.41" y1="24.46" x2="-207.69" y2="24.46" gradientTransform="translate(25.04 229.49) rotate(90)" xlink:href="#linear-gradient-12"/><linearGradient id="linear-gradient-15" x1="-115.78" y1="24.46" x2="-115.06" y2="24.46" gradientTransform="matrix(0, -1, -1, 0, 25.04, -108.71)" xlink:href="#linear-gradient-12"/><linearGradient id="linear-gradient-16" x1="5.84" y1="119.93" x2="6.57" y2="119.93" gradientTransform="matrix(1, 0, 0, -1, 0, 121.26)" xlink:href="#linear-gradient-10"/><linearGradient id="linear-gradient-17" x1="35.7" y1="120.68" x2="36.42" y2="120.68" gradientTransform="translate(62.61 121.26) rotate(180)" xlink:href="#linear-gradient-10"/><linearGradient id="linear-gradient-18" x1="5.89" y1="31.3" x2="5.89" y2="25.54" gradientTransform="translate(21.59 -14.56) rotate(23.14)" gradientUnits="userSpaceOnUse"><stop offset="0" stop-color="#d9649e"/><stop offset="0.6" stop-color="#ef7bb6"/><stop offset="0.99" stop-color="#f885c0"/></linearGradient><radialGradient id="radial-gradient" cx="16.15" cy="10.55" r="0.74" gradientUnits="userSpaceOnUse"><stop offset="0.53" stop-color="#ffe600"/><stop offset="0.64" stop-color="#ffe200"/><stop offset="0.76" stop-color="#ffd500"/><stop offset="0.88" stop-color="#ffbf00"/><stop offset="0.92" stop-color="#ffb700"/><stop offset="0.92" stop-color="#ffb400"/><stop offset="0.95" stop-color="#ff9c00"/><stop offset="0.97" stop-color="#ff8d00"/><stop offset="0.99" stop-color="#f80"/></radialGradient><linearGradient id="linear-gradient-19" x1="28.1" y1="7.38" x2="28.92" y2="10.54" gradientTransform="matrix(0.99, -0.13, 0.13, 0.96, -13.16, -0.74)" gradientUnits="userSpaceOnUse"><stop offset="0.01" stop-color="#5c5c5c"/><stop offset="0.14" stop-color="#454545"/><stop offset="0.35" stop-color="#272727"/><stop offset="0.55" stop-color="#111"/><stop offset="0.75" stop-color="#040404"/><stop offset="0.93"/></linearGradient><linearGradient id="linear-gradient-20" x1="26.75" y1="23.74" x2="27.58" y2="26.97" xlink:href="#linear-gradient-19"/><radialGradient id="radial-gradient-2" cx="16.84" cy="19.12" r="0.74" xlink:href="#radial-gradient"/><radialGradient id="radial-gradient-3" cx="14.21" cy="4.98" r="0.86" gradientUnits="userSpaceOnUse"><stop offset="0.53" stop-color="#bf00ff"/><stop offset="0.63" stop-color="#bc00fb"/><stop offset="0.74" stop-color="#b200ee"/><stop offset="0.86" stop-color="#a200d8"/><stop offset="0.92" stop-color="#9700c9"/><stop offset="0.94" stop-color="#8f00bf"/><stop offset="0.96" stop-color="#8400b0"/><stop offset="0.99" stop-color="#8000ab"/></radialGradient><linearGradient id="linear-gradient-21" x1="16.86" y1="31.13" x2="16.86" y2="25.14" gradientTransform="translate(10.72 -10.77) rotate(6.9)" gradientUnits="userSpaceOnUse"><stop offset="0" stop-color="#fffb6b"/><stop offset="0.99" stop-color="#feff94"/></linearGradient><linearGradient id="linear-gradient-22" x1="9.3" y1="31.9" x2="9.3" y2="26.13" gradientTransform="translate(-9.42 -13.14) rotate(-13.16)" gradientUnits="userSpaceOnUse"><stop offset="0" stop-color="#c2de6c"/><stop offset="0.03" stop-color="#c4df6e"/><stop offset="0.33" stop-color="#d7ea7c"/><stop offset="0.64" stop-color="#e1f085"/><stop offset="0.99" stop-color="#e5f288"/></linearGradient><radialGradient id="radial-gradient-4" cx="-32.62" cy="19.16" r="0.71" gradientTransform="translate(43.08 17.6) rotate(41.57)" gradientUnits="userSpaceOnUse"><stop offset="0.53" stop-color="red"/><stop offset="0.63" stop-color="#fb0000"/><stop offset="0.74" stop-color="#e00"/><stop offset="0.86" stop-color="#d80100"/><stop offset="0.92" stop-color="#c90100"/><stop offset="0.94" stop-color="#bf0100"/><stop offset="0.96" stop-color="#b00100"/><stop offset="0.99" stop-color="#ab0100"/></radialGradient><linearGradient id="linear-gradient-23" x1="24.29" y1="-10.3" x2="24.29" y2="-16.4" gradientTransform="translate(6.92 27.15) rotate(-14.72)" xlink:href="#linear-gradient-22"/><radialGradient id="radial-gradient-5" cx="-36.39" cy="-13.11" r="0.73" gradientTransform="translate(53.05 33.23) rotate(26.85)" xlink:href="#radial-gradient-4"/><radialGradient id="radial-gradient-6" cx="-14.52" cy="11.36" r="0.74" xlink:href="#radial-gradient-4"/><radialGradient id="radial-gradient-7" cx="-33.55" cy="15.54" r="0.72" xlink:href="#radial-gradient-4"/><linearGradient id="linear-gradient-24" x1="2.98" y1="35.11" x2="2.98" y2="29.51" xlink:href="#linear-gradient-21"/><radialGradient id="radial-gradient-8" cx="-23.44" cy="22.8" r="0.72" xlink:href="#radial-gradient-4"/><radialGradient id="radial-gradient-9" cx="-5.7" cy="18.04" r="0.7" gradientTransform="matrix(0.98, 0.18, -0.18, 0.98, 13.31, -12.98)" gradientUnits="userSpaceOnUse"><stop offset="0.53" stop-color="aqua"/><stop offset="0.63" stop-color="#00fbfb"/><stop offset="0.74" stop-color="#0ee"/><stop offset="0.86" stop-color="#00d8d8"/><stop offset="0.92" stop-color="#00c9c9"/><stop offset="0.94" stop-color="#00bfbf"/><stop offset="0.96" stop-color="#00b0b0"/><stop offset="0.99" stop-color="#00abab"/></radialGradient><radialGradient id="radial-gradient-10" cx="24.23" cy="27.98" r="0.7" gradientTransform="translate(-9.39 -22.32) rotate(-6.47)" xlink:href="#radial-gradient-9"/></defs><title>lab_04</title><g class="cls-1"><g id="Layer_2" data-name="Layer 2"><g id="доска_для_заметок_со_стикерами" data-name="доска для заметок со стикерами"><g id="lab_04"><g id="sticks"><path class="cls-2" d="M1.2,27.08A1.19,1.19,0,0,1,.06,25.94V2.2A1.21,1.21,0,0,1,1.22,1.06c10-.61,20.14-1,30.18-1a1.11,1.11,0,0,1,1.15,1.09c0,9.74-.07,16.72-.07,26.46a1,1,0,0,1-1.13,1C21.31,28,11.25,27.64,1.2,27.08Z"/><path class="cls-3" d="M31.4.05l-2.67,0v1l1.64,0a1.13,1.13,0,0,1,1.15,1.11c0,9.12-.05,15.27-.05,24.39a1,1,0,0,1-1.13,1l-1.62-.1v1l2.63.17a1,1,0,0,0,1.13-1c0-9.74.07-16.72.07-26.46A1.11,1.11,0,0,0,31.4.05Z"/><path class="cls-4" d="M31.35,28.66l-2.69-.17V27.4l1.68.11a1,1,0,0,0,1.07-1c0-9.13.05-15.27.05-24.39a1.07,1.07,0,0,0-1.09-1h-1.7V0L31.4,0a1.17,1.17,0,0,1,1.21,1.14c0,9.74-.07,16.73-.08,26.47A1.05,1.05,0,0,1,31.35,28.66Zm-2.57-.27,2.57.17a1,1,0,0,0,1.07-1c0-9.74.07-16.72.07-26.46a1,1,0,0,0-1.09-1H28.78c0,.35,0,.52,0,.87h1.58a1.18,1.18,0,0,1,1.21,1.16c0,9.12,0,15.27-.06,24.4a1.08,1.08,0,0,1-1.18,1.08l-1.57-.1C28.77,27.87,28.78,28,28.78,28.39Z"/><path class="cls-5" d="M2.24,26.17A1.19,1.19,0,0,1,1.09,25c0-8.75,0-13.17,0-21.92A1.21,1.21,0,0,1,2.27,2L3.62,1.9v-1l-2.4.13A1.21,1.21,0,0,0,.06,2.2V25.94A1.19,1.19,0,0,0,1.2,27.08l2.38.14v-1Z"/><path class="cls-4" d="M3.63,27.27,1.2,27.13A1.26,1.26,0,0,1,0,25.93V2.2A1.26,1.26,0,0,1,1.22,1L3.68.87V2L2.27,2A1.15,1.15,0,0,0,1.16,3.11c0,8.74,0,13.18,0,21.92a1.13,1.13,0,0,0,1.09,1.09l1.39.08ZM1.22,1.12A1.13,1.13,0,0,0,.12,2.2c0,9.49,0,14.25,0,23.74A1.15,1.15,0,0,0,1.2,27l2.32.13V26.3l-1.28-.07A1.26,1.26,0,0,1,1,25c0-8.75,0-13.17,0-21.92A1.25,1.25,0,0,1,2.27,1.92l1.29-.07V1Z"/><path class="cls-6" d="M3.58,26.25v1c10,.55,15.28.61,25.14,1.22v-1C18.86,26.85,13.58,26.79,3.58,26.25Z"/><path class="cls-4" d="M28.78,28.5c-9.9-.61-15.21-.67-25.26-1.23V26.19c10.05.54,15.35.61,25.25,1.22C28.77,27.85,28.78,28.07,28.78,28.5ZM3.63,27.17c10,.55,15.22.61,25,1.21v-.87c-9.82-.6-15.07-.67-25-1.21Z"/><path class="cls-7" d="M28.73,1.05v-1c-10,.09-15,.31-25.11.86v1C13.69,1.36,18.76,1.14,28.73,1.05Z"/><path class="cls-4" d="M28.79,1.1c-10,.1-15.11.32-25.23.85V.88C13.68.32,18.76.11,28.78,0,28.79.45,28.79.66,28.79,1.1ZM3.68,1.84c10-.53,15.07-.75,25-.85V.12c-9.93.1-15,.31-25,.86Z"/><g class="cls-8"><g class="cls-8"><path class="cls-9" d="M27.38.38c-8.85.11-13.33.3-22.26.76V1C14.05.57,18.53.39,27.38.27Z"/></g><g class="cls-8"><path class="cls-9" d="M27.38.63c-8.85.11-13.33.29-22.27.76V1.28C14.05.81,18.53.63,27.38.52Z"/></g><g class="cls-8"><path class="cls-9" d="M27.38.87c-8.85.11-13.33.3-22.27.76V1.52C14.05,1.06,18.53.88,27.38.76Z"/></g></g><g class="cls-8"><g class="cls-8"><path class="cls-9" d="M27.47,27.69c-8.78-.52-13.42-.6-22.32-1.06v-.11c8.9.46,13.54.54,22.32,1.06Z"/></g><g class="cls-8"><path class="cls-9" d="M27.47,27.93c-8.78-.51-13.42-.6-22.32-1.06v-.11c8.9.46,13.54.55,22.32,1.06Z"/></g><g class="cls-8"><path class="cls-9" d="M27.47,28.17c-8.78-.51-13.42-.59-22.32-1.06V27c8.9.46,13.54.54,22.32,1.06Z"/></g></g><g class="cls-8"><g class="cls-8"><path class="cls-9" d="M31.81,25.32h-.12c0-8.8,0-14.49.06-23.11h.11C31.86,10.82,31.82,16.52,31.81,25.32Z"/></g><g class="cls-8"><path class="cls-9" d="M32.06,25.33H32c0-8.8.05-14.51.06-23.13h.11C32.11,10.82,32.07,16.53,32.06,25.33Z"/></g><g class="cls-8"><path class="cls-9" d="M32.31,25.35H32.2c0-8.8.06-14.52.07-23.14h.11C32.37,10.83,32.33,16.55,32.31,25.35Z"/></g></g><g class="cls-8"><g class="cls-8"><path class="cls-9" d="M.34,23.82H.23V3.22H.35C.35,11.44.34,15.58.34,23.82Z"/></g><g class="cls-8"><path class="cls-9" d="M.6,23.83H.49V3.2H.61C.61,11.44.6,15.58.6,23.83Z"/></g><g class="cls-8"><path class="cls-9" d="M.86,23.84H.74c0-8.25,0-12.41,0-20.65H.87C.87,11.43.86,15.59.86,23.84Z"/></g></g><path class="cls-10" d="M31.47,26.53a1,1,0,0,1-1.13,1c-1.35-.08-2-.13-3.39-.2v1c1.78.1,2.66.16,4.4.28a1,1,0,0,0,1.13-1c0-1.7,0-2.6,0-4.43l-1-.07Z"/><path class="cls-4" d="M31.35,28.66l-4.45-.28c0-.43,0-.64,0-1.08l3.45.21a1,1,0,0,0,1.07-1V23l1.13.08c0,1.85,0,2.76,0,4.49A1.05,1.05,0,0,1,31.35,28.66ZM27,28.28c1.75.1,2.62.16,4.34.28a1,1,0,0,0,1.07-1c0-1.68,0-2.57,0-4.37l-.9-.06c0,1.38,0,2,0,3.37a1.08,1.08,0,0,1-1.18,1.08L27,27.41Z"/><path class="cls-10" d="M2.24,26.17A1.19,1.19,0,0,1,1.09,25v-3.2l-1,0v4.16A1.19,1.19,0,0,0,1.2,27.08c1.78.11,2.68.16,4.47.25v-1Z"/><path class="cls-4" d="M5.73,27.39,1.2,27.13A1.26,1.26,0,0,1,0,25.93v-4.2l1.15.05V25a1.13,1.13,0,0,0,1.09,1.09l3.49.19ZM.11,21.84v4.1A1.15,1.15,0,0,0,1.2,27l4.42.24v-.86l-3.38-.18A1.26,1.26,0,0,1,1,25V21.88Z"/><path class="cls-10" d="M31.4.05l-4.46,0c0,.39,0,.58,0,1l3.42,0a1.13,1.13,0,0,1,1.15,1.11V5.57h1c0-1.83,0-2.73,0-4.43A1.11,1.11,0,0,0,31.4.05Z"/><path class="cls-4" d="M32.6,5.63H31.46V2.14a1.07,1.07,0,0,0-1.09-1l-3.48,0V0C28.7,0,29.6,0,31.4,0a1.17,1.17,0,0,1,1.21,1.14C32.61,2.87,32.61,3.77,32.6,5.63Zm-1-.12h.92V1.14a1,1,0,0,0-1.09-1c-1.75,0-2.63,0-4.4,0V1l3.37,0a1.18,1.18,0,0,1,1.21,1.16C31.58,3.45,31.58,4.13,31.57,5.51Z"/><path class="cls-10" d="M1.1,3.11A1.21,1.21,0,0,1,2.27,2l3.46-.18v-1l-4.51.24A1.21,1.21,0,0,0,.06,2.2V6.35l1,0Z"/><path class="cls-4" d="M1.16,6.36,0,6.41V2.2A1.26,1.26,0,0,1,1.22,1C3.05.9,4,.85,5.79.76V1.84L2.27,2A1.15,1.15,0,0,0,1.16,3.11Zm-1-.06.92,0C1,5,1,4.37,1.05,3.11A1.25,1.25,0,0,1,2.27,1.92l3.4-.18V.87C3.89,1,3,1,1.22,1.12A1.13,1.13,0,0,0,.12,2.2Z"/><path class="cls-11" d="M31.41,26.53a1,1,0,0,1-1.07,1l-3.45-.21c0,.44,0,.65,0,1.08l4.45.28a1.05,1.05,0,0,0,1.18-1.05c0-1.73,0-2.64,0-4.49L31.41,23Z"/><path class="cls-12" d="M1.15,25V21.78L0,21.73v4.2a1.26,1.26,0,0,0,1.2,1.2l4.53.26V26.31l-3.49-.19A1.13,1.13,0,0,1,1.15,25Z"/><path class="cls-13" d="M31.4,0c-1.8,0-2.7,0-4.51,0V1.12l3.48,0a1.07,1.07,0,0,1,1.09,1.05V5.63H32.6c0-1.86,0-2.76,0-4.49A1.17,1.17,0,0,0,31.4,0Z"/><path class="cls-14" d="M0,2.2V6.41l1.16,0V3.11A1.15,1.15,0,0,1,2.27,2l3.51-.18V.76C4,.85,3.05.9,1.22,1A1.26,1.26,0,0,0,0,2.2Z"/><path class="cls-15" d="M6.51,27.42l-.72,0V26.31l.73,0C6.52,26.78,6.52,27,6.51,27.42Z"/><path class="cls-16" d="M26.2,28.34l.72,0c0-.43,0-.64,0-1.08l-.71,0Z"/><path class="cls-17" d="M32.54,23.13v-.74l-1.13-.07v.74Z"/><path class="cls-18" d="M32.6,5.61c0,.3,0,.45,0,.75H31.45V5.61Z"/><path class="cls-19" d="M0,21.74v-.67l1.15.05v.67Z"/><path class="cls-20" d="M0,6.4v.66L1.16,7V6.35Z"/><path class="cls-21" d="M6.57.77l-.73,0V1.89l.73,0Z"/><path class="cls-22" d="M26.19.05h.72V1.12h-.72Z"/><g class="cls-8"><path class="cls-23" d="M2.35,26.07A1.2,1.2,0,0,1,1.2,24.93c0-8.66,0-13.06,0-21.72A1.21,1.21,0,0,1,2.38,2.07c11.19-.61,16.82-.86,27.88-.92a1.11,1.11,0,0,1,1.15,1.1c0,9.05-.05,15.11-.06,24.16a1,1,0,0,1-1.12,1C19.34,26.73,13.43,26.7,2.35,26.07Z"/><path class="cls-24" d="M2.4,26a1.19,1.19,0,0,1-1.15-1.14c0-8.63,0-13,0-21.64A1.21,1.21,0,0,1,2.43,2.11c11.14-.6,16.76-.85,27.78-.92a1.12,1.12,0,0,1,1.15,1.1c0,9-.05,15.05-.05,24.08a1,1,0,0,1-1.13,1C19.33,26.69,13.44,26.65,2.4,26Z"/><path class="cls-25" d="M2.44,26a1.2,1.2,0,0,1-1.15-1.14c0-8.6,0-13,0-21.56A1.2,1.2,0,0,1,2.47,2.15c11.11-.6,16.72-.85,27.7-.92a1.13,1.13,0,0,1,1.15,1.11c0,9-.05,15-.05,24a1,1,0,0,1-1.13,1C19.32,26.65,13.45,26.61,2.44,26Z"/><path class="cls-26" d="M2.49,26a1.18,1.18,0,0,1-1.15-1.14c0-8.57,0-12.91,0-21.48A1.21,1.21,0,0,1,2.52,2.19c11.07-.6,16.66-.85,27.6-.92a1.12,1.12,0,0,1,1.15,1.11c0,9,0,14.93-.05,23.89a1,1,0,0,1-1.13,1C19.31,26.6,13.46,26.57,2.49,26Z"/><path class="cls-27" d="M2.53,25.92a1.2,1.2,0,0,1-1.15-1.14c0-8.54,0-12.88,0-21.41A1.19,1.19,0,0,1,2.56,2.23c11-.6,16.61-.84,27.52-.91a1.12,1.12,0,0,1,1.15,1.11c0,8.93-.05,14.86-.05,23.8a1,1,0,0,1-1.13,1C19.29,26.56,13.47,26.53,2.53,25.92Z"/><path class="cls-28" d="M2.57,25.88a1.2,1.2,0,0,1-1.15-1.14c0-8.51,0-12.83,0-21.33A1.2,1.2,0,0,1,2.61,2.27c11-.6,16.55-.84,27.43-.91a1.11,1.11,0,0,1,1.14,1.11c0,8.91,0,14.8,0,23.71a1,1,0,0,1-1.13,1C19.28,26.52,13.48,26.48,2.57,25.88Z"/><path class="cls-29" d="M2.62,25.84A1.2,1.2,0,0,1,1.47,24.7c0-8.48,0-12.78,0-21.26A1.19,1.19,0,0,1,2.65,2.31c11-.59,16.5-.84,27.34-.91a1.13,1.13,0,0,1,1.15,1.11c0,8.88,0,14.74-.05,23.62A1,1,0,0,1,30,27.18C19.27,26.48,13.49,26.44,2.62,25.84Z"/><path class="cls-30" d="M2.66,25.8a1.2,1.2,0,0,1-1.15-1.14c0-8.44,0-12.73,0-21.18A1.21,1.21,0,0,1,2.7,2.34c10.93-.58,16.44-.82,27.25-.9A1.13,1.13,0,0,1,31.1,2.56c0,8.85-.05,14.67-.05,23.53a1,1,0,0,1-1.13,1C19.26,26.44,13.5,26.4,2.66,25.8Z"/><path class="cls-31" d="M2.71,25.76a1.19,1.19,0,0,1-1.15-1.14c0-8.41,0-12.69,0-21.1A1.21,1.21,0,0,1,2.74,2.38c10.9-.58,16.39-.82,27.16-.89A1.12,1.12,0,0,1,31.05,2.6c0,8.82,0,14.62,0,23.44a1,1,0,0,1-1.13,1.05C19.25,26.4,13.51,26.35,2.71,25.76Z"/><path class="cls-32" d="M2.75,25.72A1.2,1.2,0,0,1,1.6,24.58c0-8.38,0-12.64,0-21A1.21,1.21,0,0,1,2.78,2.42c10.86-.58,16.34-.82,27.08-.89A1.13,1.13,0,0,1,31,2.64C31,11.44,31,17.2,31,26a1,1,0,0,1-1.13,1C19.24,26.35,13.52,26.31,2.75,25.72Z"/><path class="cls-33" d="M2.8,25.68a1.19,1.19,0,0,1-1.15-1.14c0-8.35,0-12.59,0-20.94A1.21,1.21,0,0,1,2.83,2.46c10.82-.57,16.28-.81,27-.89A1.12,1.12,0,0,1,31,2.69c0,8.76,0,14.49,0,23.26a1,1,0,0,1-1.13,1C19.23,26.31,13.53,26.27,2.8,25.68Z"/><path class="cls-34" d="M2.84,25.64A1.2,1.2,0,0,1,1.69,24.5c0-8.31,0-12.54,0-20.86A1.2,1.2,0,0,1,2.87,2.5c10.79-.57,16.23-.81,26.9-.88a1.12,1.12,0,0,1,1.15,1.11c0,8.74,0,14.43,0,23.17A1,1,0,0,1,29.75,27C19.22,26.27,13.54,26.23,2.84,25.64Z"/><path class="cls-35" d="M2.88,25.6a1.19,1.19,0,0,1-1.15-1.14c0-8.28,0-12.5,0-20.78A1.2,1.2,0,0,1,2.92,2.54C13.67,2,19.09,1.73,29.73,1.66a1.12,1.12,0,0,1,1.15,1.11c0,8.71,0,14.38-.05,23.09a1,1,0,0,1-1.13,1C19.21,26.23,13.55,26.18,2.88,25.6Z"/><path class="cls-36" d="M2.93,25.56a1.18,1.18,0,0,1-1.15-1.14c0-8.25,0-12.45,0-20.7A1.2,1.2,0,0,1,3,2.58C13.68,2,19.09,1.78,29.68,1.7a1.12,1.12,0,0,1,1.15,1.12c0,8.68,0,14.31,0,23a1,1,0,0,1-1.13,1.05C19.2,26.19,13.56,26.14,2.93,25.56Z"/><path class="cls-37" d="M3,25.53a1.2,1.2,0,0,1-1.15-1.14c0-8.23,0-12.41,0-20.63A1.21,1.21,0,0,1,3,2.62c10.68-.56,16.07-.8,26.63-.88a1.14,1.14,0,0,1,1.15,1.12c0,8.65,0,14.25,0,22.9a1,1,0,0,1-1.14,1C19.19,26.15,13.57,26.1,3,25.53Z"/><path class="cls-38" d="M3,25.49a1.2,1.2,0,0,1-1.15-1.14c0-8.19,0-12.36,0-20.55A1.19,1.19,0,0,1,3.05,2.66c10.65-.56,16-.8,26.54-.87A1.12,1.12,0,0,1,30.74,2.9c0,8.63,0,14.19,0,22.82a1,1,0,0,1-1.13,1.05C19.18,26.1,13.58,26.05,3,25.49Z"/><path class="cls-39" d="M3.06,25.45a1.2,1.2,0,0,1-1.15-1.14c0-8.16,0-12.32,0-20.47A1.2,1.2,0,0,1,3.1,2.7c10.61-.56,16-.79,26.45-.87A1.13,1.13,0,0,1,30.7,3c0,8.59,0,14.13,0,22.72a1,1,0,0,1-1.13,1C19.17,26.06,13.59,26,3.06,25.45Z"/><path class="cls-40" d="M3.11,25.41A1.2,1.2,0,0,1,2,24.27C2,16.14,2,12,2,3.87A1.19,1.19,0,0,1,3.14,2.74C13.72,2.18,19.05,2,29.51,1.87A1.14,1.14,0,0,1,30.66,3c0,8.57,0,14.07,0,22.63a1.05,1.05,0,0,1-1.14,1.06C19.15,26,13.6,26,3.11,25.41Z"/><path class="cls-41" d="M3.15,25.37A1.2,1.2,0,0,1,2,24.23C2,16.13,2,12,2,3.91A1.2,1.2,0,0,1,3.19,2.78C13.72,2.23,19,2,29.46,1.92A1.12,1.12,0,0,1,30.61,3c0,8.53,0,14,0,22.54a1,1,0,0,1-1.13,1.05C19.14,26,13.61,25.93,3.15,25.37Z"/><path class="cls-42" d="M3.2,25.33A1.2,1.2,0,0,1,2,24.19c0-8.06,0-12.17,0-20.24A1.21,1.21,0,0,1,3.23,2.81C13.73,2.27,19,2,29.42,2a1.13,1.13,0,0,1,1.15,1.12c0,8.51,0,14,0,22.45a1,1,0,0,1-1.13,1C19.13,25.94,13.62,25.88,3.2,25.33Z"/><path class="cls-43" d="M3.24,25.29a1.2,1.2,0,0,1-1.15-1.14c0-8,0-12.13,0-20.16A1.21,1.21,0,0,1,3.28,2.85C13.74,2.31,19,2.08,29.37,2a1.13,1.13,0,0,1,1.15,1.12c0,8.48,0,13.89,0,22.36a1.05,1.05,0,0,1-1.14,1.06C19.12,25.89,13.63,25.84,3.24,25.29Z"/><path class="cls-44" d="M3.28,25.25a1.2,1.2,0,0,1-1.15-1.14c0-8,0-12.08,0-20.08A1.21,1.21,0,0,1,3.32,2.89c10.43-.53,15.69-.76,26-.84a1.12,1.12,0,0,1,1.15,1.12c0,8.44,0,13.82,0,22.27a1,1,0,0,1-1.13,1C19.11,25.85,13.64,25.8,3.28,25.25Z"/><path class="cls-45" d="M3.33,25.21a1.18,1.18,0,0,1-1.15-1.14c0-8,0-12,0-20A1.21,1.21,0,0,1,3.36,2.93C13.76,2.4,19,2.17,29.29,2.09a1.13,1.13,0,0,1,1.14,1.12c0,8.42,0,13.77,0,22.18a1.05,1.05,0,0,1-1.14,1.06C19.1,25.81,13.65,25.75,3.33,25.21Z"/><path class="cls-46" d="M3.37,25.17A1.19,1.19,0,0,1,2.22,24c0-7.93,0-12,0-19.92A1.2,1.2,0,0,1,3.41,3C13.77,2.44,19,2.21,29.24,2.13a1.14,1.14,0,0,1,1.15,1.13c0,8.38,0,13.7,0,22.08a1.06,1.06,0,0,1-1.14,1.06C19.09,25.77,13.66,25.71,3.37,25.17Z"/><path class="cls-47" d="M3.42,25.13A1.18,1.18,0,0,1,2.27,24c0-7.9,0-11.94,0-19.84A1.2,1.2,0,0,1,3.45,3C13.78,2.48,19,2.26,29.2,2.18A1.12,1.12,0,0,1,30.35,3.3c0,8.36,0,13.64,0,22a1.05,1.05,0,0,1-1.13,1.06C19.08,25.73,13.67,25.67,3.42,25.13Z"/><path class="cls-48" d="M3.46,25.09A1.19,1.19,0,0,1,2.31,24c0-7.87,0-11.89,0-19.76A1.2,1.2,0,0,1,3.5,3.05C13.79,2.53,19,2.3,29.15,2.22A1.13,1.13,0,0,1,30.3,3.34c0,8.33,0,13.59,0,21.91a1.05,1.05,0,0,1-1.14,1.06C19.07,25.68,13.68,25.62,3.46,25.09Z"/><path class="cls-49" d="M3.51,25.06a1.21,1.21,0,0,1-1.16-1.15c0-7.84,0-11.84,0-19.68A1.19,1.19,0,0,1,3.54,3.09C13.8,2.57,19,2.35,29.11,2.26a1.14,1.14,0,0,1,1.15,1.13c0,8.29,0,13.52,0,21.81a1,1,0,0,1-1.13,1.06C19.06,25.64,13.69,25.58,3.51,25.06Z"/></g><g class="cls-8"><path class="cls-49" d="M16.9,17.49a.44.44,0,0,1-.06.1c-1.86-.83-2.79-1.23-4.65-2a0,0,0,0,1,0,0c1-2.06,1.5-3.11,2.5-5.21h0c1.51.8,2.27,1.21,3.78,2.05v0C17.86,14.45,17.54,15.47,16.9,17.49Z"/><path class="cls-50" d="M16.9,17.49s0,.1-.06.09c-1.85-.82-2.77-1.23-4.62-2a0,0,0,0,1,0,0c1-2.06,1.49-3.11,2.48-5.21h0c1.52.8,2.28,1.21,3.81,2.05,0,0,0,0,0,0C17.88,14.44,17.55,15.47,16.9,17.49Z"/><path class="cls-51" d="M16.9,17.48a.33.33,0,0,1-.06.1c-1.83-.83-2.75-1.24-4.59-2v0c1-2.06,1.47-3.1,2.45-5.2h0c1.53.8,2.3,1.2,3.84,2a0,0,0,0,1,0,0C17.89,14.44,17.56,15.47,16.9,17.48Z"/><path class="cls-52" d="M16.91,17.48l-.06.09c-1.83-.83-2.74-1.24-4.57-2,0,0,0,0,0,0,1-2,1.45-3.1,2.42-5.18h0c1.54.79,2.32,1.2,3.86,2,0,0,0,0,0,0C17.91,14.43,17.58,15.46,16.91,17.48Z"/><path class="cls-53" d="M16.91,17.48s-.05.08-.06.08c-1.82-.83-2.73-1.23-4.54-2h0c1-2.06,1.43-3.1,2.39-5.18h0c1.56.79,2.34,1.2,3.89,2h0C17.93,14.43,17.59,15.46,16.91,17.48Z"/><path class="cls-54" d="M16.91,17.48l-.05.07c-1.81-.82-2.72-1.23-4.52-2v0c.94-2,1.42-3.09,2.36-5.17h0c1.57.79,2.35,1.19,3.92,2,0,0,0,0,0,0C18,14.43,17.6,15.45,16.91,17.48Z"/><path class="cls-55" d="M16.91,17.48s0,.07-.05.06c-1.8-.82-2.7-1.23-4.5-2a0,0,0,0,1,0,0c.93-2,1.4-3.08,2.33-5.16h0c1.58.79,2.37,1.19,3.95,2v0Z"/><path class="cls-56" d="M16.91,17.47s0,.07-.05.07c-1.78-.83-2.68-1.23-4.47-2,0,0,0,0,0,0,.92-2.05,1.38-3.08,2.3-5.16h0c1.59.79,2.39,1.19,4,2h0C18,14.42,17.62,15.45,16.91,17.47Z"/><path class="cls-57" d="M16.91,17.47a.31.31,0,0,1,0,.06c-1.78-.83-2.67-1.23-4.45-2v0c.92-2,1.37-3.08,2.28-5.15h0c1.6.78,2.4,1.18,4,2a0,0,0,0,1,0,0C18,14.41,17.64,15.44,16.91,17.47Z"/><path class="cls-58" d="M16.91,17.47s0,.05,0,.05c-1.77-.82-2.65-1.23-4.42-2h0c.9-2,1.35-3.08,2.25-5.15h0c1.61.78,2.42,1.18,4,2v0C18,14.41,17.65,15.44,16.91,17.47Z"/><path class="cls-59" d="M16.91,17.47s0,.05,0,0c-1.75-.82-2.63-1.22-4.39-2v0c.89-2,1.33-3.07,2.22-5.14h0c1.62.78,2.44,1.17,4.06,2h0C18,14.4,17.66,15.44,16.91,17.47Z"/><path class="cls-60" d="M16.91,17.47s0,0,0,0c-1.75-.82-2.62-1.22-4.37-2,0,0,0,0,0,0,.88-2,1.31-3.06,2.19-5.13h0c1.64.77,2.45,1.16,4.09,2,0,0,0,0,0,0C18.05,14.4,17.67,15.43,16.91,17.47Z"/><path class="cls-61" d="M16.91,17.46s0,0,0,0c-1.74-.82-2.61-1.23-4.34-2h0c.86-2,1.3-3.07,2.16-5.13h0c1.65.76,2.47,1.16,4.12,2v0C18.07,14.39,17.68,15.43,16.91,17.46Z"/><path class="cls-62" d="M16.91,17.46l0,0c-1.73-.82-2.6-1.22-4.33-2,0,0,0,0,0,0,.85-2,1.28-3.06,2.13-5.12h0c1.66.76,2.49,1.15,4.15,2h0C18.09,14.39,17.69,15.43,16.91,17.46Z"/><path class="cls-63" d="M16.91,17.46l0,0c-1.72-.82-2.58-1.22-4.3-2a0,0,0,0,1,0,0c.84-2,1.26-3,2.1-5.11h0c1.67.76,2.51,1.15,4.18,1.95a0,0,0,0,1,0,0C18.1,14.38,17.71,15.42,16.91,17.46Z"/><path class="cls-64" d="M16.91,17.46h0c-1.7-.82-2.56-1.22-4.27-2h0c.84-2,1.25-3,2.08-5.1h0c1.68.76,2.52,1.15,4.21,1.94,0,0,0,0,0,0C18.12,14.38,17.72,15.42,16.91,17.46Z"/><path class="cls-65" d="M16.91,17.46h0c-1.7-.81-2.55-1.22-4.25-2,0,0,0,0,0,0,.82-2,1.23-3,2-5.09h0c1.69.75,2.54,1.14,4.23,1.94h0C18.14,14.37,17.73,15.41,16.91,17.46Z"/></g><path class="cls-66" d="M17,17.5c-1.72-.83-2.59-1.23-4.31-2,.83-2.06,1.25-3.11,2.08-5.19,1.72.76,2.59,1.15,4.31,2C18.2,14.36,17.78,15.42,17,17.5Z"/><g class="cls-8"><path class="cls-49" d="M16.9,10.78a.79.79,0,0,1-.75.81.77.77,0,0,1-.74-.8.79.79,0,0,1,.74-.81A.77.77,0,0,1,16.9,10.78Z"/><path class="cls-67" d="M16.89,10.77a.79.79,0,0,1-.74.81.8.8,0,0,1,0-1.6A.76.76,0,0,1,16.89,10.77Z"/><path class="cls-68" d="M16.89,10.76a.77.77,0,0,1-.74.8.75.75,0,0,1-.73-.78.79.79,0,0,1,.73-.81A.76.76,0,0,1,16.89,10.76Z"/><path class="cls-69" d="M16.89,10.75a.77.77,0,0,1-.74.8.76.76,0,0,1-.73-.78.78.78,0,0,1,.73-.8A.76.76,0,0,1,16.89,10.75Z"/><path class="cls-70" d="M16.88,10.74a.77.77,0,0,1-.73.8.76.76,0,0,1-.73-.78.77.77,0,0,1,.73-.79A.74.74,0,0,1,16.88,10.74Z"/><path class="cls-71" d="M16.88,10.74a.77.77,0,0,1-.73.79.75.75,0,0,1-.72-.78.77.77,0,0,1,.72-.79A.75.75,0,0,1,16.88,10.74Z"/><path class="cls-72" d="M16.87,10.73a.75.75,0,0,1-.72.78.74.74,0,0,1-.72-.77.76.76,0,0,1,.72-.78A.74.74,0,0,1,16.87,10.73Z"/><path class="cls-73" d="M16.87,10.72a.75.75,0,0,1-.72.78.73.73,0,0,1-.71-.77.76.76,0,0,1,.71-.78A.74.74,0,0,1,16.87,10.72Z"/><path class="cls-74" d="M16.87,10.71a.75.75,0,0,1-.72.78.74.74,0,0,1-.71-.76.75.75,0,0,1,.71-.78A.73.73,0,0,1,16.87,10.71Z"/><path class="cls-75" d="M16.86,10.7a.76.76,0,0,1-.71.78.74.74,0,0,1-.71-.76.75.75,0,0,1,.71-.77A.72.72,0,0,1,16.86,10.7Z"/><path class="cls-76" d="M16.86,10.69a.74.74,0,0,1-.71.77.71.71,0,0,1-.7-.75.75.75,0,0,1,.7-.77A.73.73,0,0,1,16.86,10.69Z"/><path class="cls-77" d="M16.85,10.69a.73.73,0,0,1-.7.76.72.72,0,0,1-.7-.75.74.74,0,0,1,.7-.76A.71.71,0,0,1,16.85,10.69Z"/><path class="cls-78" d="M16.85,10.68a.74.74,0,0,1-.7.76.73.73,0,0,1-.7-.75.76.76,0,0,1,.7-.76A.72.72,0,0,1,16.85,10.68Z"/><path class="cls-79" d="M16.85,10.67a.74.74,0,0,1-.7.76.75.75,0,0,1,0-1.5A.71.71,0,0,1,16.85,10.67Z"/><path class="cls-80" d="M16.84,10.66a.73.73,0,0,1-.69.75.7.7,0,0,1-.69-.73.74.74,0,0,1,.69-.76A.72.72,0,0,1,16.84,10.66Z"/><path class="cls-81" d="M16.84,10.65a.73.73,0,0,1-.69.75.71.71,0,0,1-.68-.73.72.72,0,0,1,.68-.75A.71.71,0,0,1,16.84,10.65Z"/><path class="cls-82" d="M16.84,10.64a.73.73,0,0,1-.69.75.74.74,0,0,1,0-1.47A.7.7,0,0,1,16.84,10.64Z"/><path class="cls-83" d="M16.83,10.64a.72.72,0,0,1-.68.74.71.71,0,0,1-.68-.73.73.73,0,0,1,.68-.74A.7.7,0,0,1,16.83,10.64Z"/><path class="cls-84" d="M16.83,10.63a.71.71,0,0,1-.68.73.69.69,0,0,1-.67-.72.7.7,0,0,1,.67-.73A.69.69,0,0,1,16.83,10.63Z"/><path class="cls-85" d="M16.82,10.62a.7.7,0,0,1-.67.73.69.69,0,0,1-.67-.72.72.72,0,0,1,.67-.73A.69.69,0,0,1,16.82,10.62Z"/><path class="cls-86" d="M16.82,10.61a.7.7,0,0,1-.67.73.68.68,0,0,1-.66-.71.7.7,0,0,1,.66-.73A.68.68,0,0,1,16.82,10.61Z"/><path class="cls-87" d="M16.82,10.6a.71.71,0,0,1-.67.73.72.72,0,0,1,0-1.43A.68.68,0,0,1,16.82,10.6Z"/></g><path class="cls-88" d="M16.82,10.61a.71.71,0,0,1-.67.73.72.72,0,0,1,0-1.44A.68.68,0,0,1,16.82,10.61Z"/><g class="cls-89"><path class="cls-90" d="M16.15,9.92a.68.68,0,0,1,.67.7h0a.68.68,0,0,0-.67-.71.7.7,0,0,0-.67.72h0A.71.71,0,0,1,16.15,9.92Z"/></g><path class="cls-90" d="M16.15,9.92a.68.68,0,0,1,.67.7h0a.68.68,0,0,0-.67-.71.7.7,0,0,0-.67.72h0A.71.71,0,0,1,16.15,9.92Z"/><path class="cls-91" d="M16.15,9.91c.37,0,.67.71.67.71h0a.68.68,0,0,0-.67-.71.7.7,0,0,0-.67.72h0S15.79,9.91,16.15,9.91Z"/><path class="cls-92" d="M15.65,11.08c-.24-.3.08-1,.08-1h0a.78.78,0,0,0-.08,1,.63.63,0,0,0,.94.09h0S15.88,11.38,15.65,11.08Z"/><path class="cls-92" d="M16.66,11.07c.24-.31-.08-1-.08-1h0a.8.8,0,0,1,.09,1,.65.65,0,0,1-1,.09h0S16.42,11.38,16.66,11.07Z"/><g class="cls-8"><path class="cls-49" d="M19.23,8.44a.61.61,0,0,1,0,.14l-5,.94h0c-.15-2.45-.23-3.67-.38-6a0,0,0,0,1,0,0L18.15,3h0C18.59,5.15,18.8,6.24,19.23,8.44Z"/><path class="cls-93" d="M19.23,8.44a.53.53,0,0,1,0,.13l-4.95.93h0c-.16-2.45-.24-3.66-.4-6a0,0,0,0,1,0,0L18.17,3a0,0,0,0,1,0,0C18.6,5.14,18.81,6.23,19.23,8.44Z"/><path class="cls-94" d="M19.23,8.44s0,.12,0,.12l-4.92.92h0c-.17-2.44-.25-3.65-.42-6,0,0,0,0,0,0L18.19,3h0C18.61,5.12,18.82,6.22,19.23,8.44Z"/><path class="cls-95" d="M19.23,8.44s0,.11,0,.11l-4.9.9s0,0,0,0c-.17-2.42-.26-3.63-.44-6,0,0,0,0,0,0L18.21,3h0C18.63,5.11,18.83,6.21,19.23,8.44Z"/><path class="cls-96" d="M19.23,8.44s0,.1,0,.1l-4.88.89h0c-.18-2.42-.27-3.61-.46-5.95a0,0,0,0,1,0,0l4.36-.52h0C18.64,5.09,18.84,6.2,19.23,8.44Z"/><path class="cls-97" d="M19.23,8.43s0,.1,0,.1l-4.86.88h0c-.19-2.41-.28-3.6-.48-5.93,0,0,0,0,0,0l4.37-.54h0C18.65,5.08,18.84,6.19,19.23,8.43Z"/><path class="cls-98" d="M19.23,8.43s0,.09,0,.09l-4.84.87s0,0,0,0c-.2-2.39-.3-3.58-.51-5.9,0,0,0,0,0,0l4.39-.56s0,0,0,0C18.67,5.06,18.85,6.18,19.23,8.43Z"/><path class="cls-99" d="M19.23,8.43v.08l-4.82.85h0c-.21-2.39-.32-3.57-.53-5.88h0c1.77-.24,2.65-.36,4.42-.58a0,0,0,0,1,0,0C18.68,5.05,18.86,6.17,19.23,8.43Z"/><path class="cls-100" d="M19.23,8.43V8.5l-4.8.84h0c-.22-2.38-.33-3.56-.55-5.86h0c1.77-.25,2.66-.37,4.44-.6,0,0,0,0,0,0C18.69,5,18.87,6.16,19.23,8.43Z"/><path class="cls-101" d="M19.23,8.43v.06l-4.77.83h0c-.22-2.37-.34-3.55-.56-5.84,0,0,0,0,0,0l4.46-.63h0C18.7,5,18.88,6.14,19.23,8.43Z"/><path class="cls-102" d="M19.23,8.42v.06l-4.75.82,0,0c-.23-2.36-.35-3.53-.58-5.8,0,0,0,0,0,0l4.48-.65h0C18.72,5,18.89,6.13,19.23,8.42Z"/><path class="cls-103" d="M19.22,8.42s0,.05,0,.05l-4.72.8h0c-.24-2.35-.36-3.51-.6-5.78,0,0,0,0,0,0l4.5-.67h0C18.73,5,18.89,6.12,19.22,8.42Z"/><path class="cls-104" d="M19.22,8.42s0,0,0,0l-4.7.79h0c-.26-2.34-.38-3.5-.63-5.76,0,0,0,0,0,0l4.52-.69h0C18.74,5,18.9,6.11,19.22,8.42Z"/><path class="cls-105" d="M19.22,8.42s0,0,0,0l-4.68.78h0c-.26-2.34-.39-3.49-.65-5.74,0,0,0,0,0,0l4.54-.72,0,0C18.75,5,18.91,6.1,19.22,8.42Z"/><path class="cls-106" d="M19.22,8.41a.06.06,0,0,1,0,0l-4.66.76v0c-.27-2.32-.4-3.47-.67-5.71,0,0,0,0,0,0l4.57-.74h0C18.77,5,18.92,6.09,19.22,8.41Z"/><path class="cls-107" d="M19.22,8.41a0,0,0,0,1,0,0l-4.64.74h0c-.28-2.31-.41-3.46-.69-5.69,0,0,0,0,0,0l4.59-.76h0C18.78,4.93,18.93,6.08,19.22,8.41Z"/><path class="cls-108" d="M19.22,8.41v0l-4.61.73h0c-.28-2.31-.43-3.45-.71-5.67v0l4.61-.78h0C18.79,4.92,18.94,6.07,19.22,8.41Z"/></g><path class="cls-9" d="M19.32,8.39l0,0-4.7.74h0c-.29-2.35-.44-3.51-.73-5.77,0,0,0,0,0,0l4.7-.8a0,0,0,0,1,0,0C18.88,4.83,19,6,19.32,8.39Z"/><path d="M14.77,7.94h0c-.21-1.75-.32-2.61-.54-4.31a0,0,0,0,1,0,0l4.08-.7h0c.22,1.7.33,2.57.55,4.34h0Z"/><path class="cls-109" d="M14.54,6.12s0,0,0,0c-.13-1-.19-1.5-.32-2.49a0,0,0,0,1,0,0l4.08-.7h0Z"/><g class="cls-8"><path class="cls-49" d="M20,24.65a.53.53,0,0,1,0,.13l-5,.62h0c-.16-2.38-.23-3.6-.38-6.06h0L19,19.14h0C19.4,21.38,19.61,22.49,20,24.65Z"/><path class="cls-93" d="M20,24.65a.49.49,0,0,1,0,.12l-5,.61h0c-.16-2.37-.24-3.59-.4-6h0l4.31-.2h0C19.41,21.37,19.62,22.48,20,24.65Z"/><path class="cls-94" d="M20,24.65s0,.11,0,.11l-4.94.6h0c-.17-2.36-.25-3.58-.42-6h0L19,19.1h0C19.42,21.35,19.63,22.47,20,24.65Z"/><path class="cls-95" d="M20,24.64s0,.11,0,.11l-4.91.59s0,0,0,0c-.18-2.35-.27-3.56-.44-6h0L19,19.07s0,0,0,0C19.43,21.34,19.64,22.46,20,24.64Z"/><path class="cls-96" d="M20,24.64s0,.1,0,.1l-4.89.58h0c-.18-2.35-.28-3.55-.46-6,0,0,0,0,0,0L19,19.05h0C19.45,21.33,19.64,22.45,20,24.64Z"/><path class="cls-97" d="M20,24.64s0,.09,0,.09l-4.87.57h0c-.19-2.34-.29-3.54-.48-5.95,0,0,0,0,0,0L19.06,19h0C19.46,21.31,19.65,22.44,20,24.64Z"/><path class="cls-98" d="M20,24.64s0,.08,0,.08l-4.85.56a0,0,0,0,1,0,0c-.21-2.33-.31-3.53-.51-5.93,0,0,0,0,0,0L19.08,19h0C19.47,21.3,19.66,22.43,20,24.64Z"/><path class="cls-99" d="M20,24.63s0,.08,0,.08l-4.83.55a0,0,0,0,1,0,0c-.22-2.32-.32-3.52-.53-5.91,0,0,0,0,0,0L19.11,19a0,0,0,0,1,0,0C19.49,21.28,19.67,22.42,20,24.63Z"/><path class="cls-100" d="M20,24.63s0,.07,0,.07l-4.81.54h0c-.22-2.32-.33-3.5-.55-5.89,0,0,0,0,0,0L19.13,19a0,0,0,0,1,0,0C19.5,21.27,19.68,22.41,20,24.63Z"/><path class="cls-101" d="M20,24.63s0,.06,0,.07l-4.79.52a0,0,0,0,1,0,0c-.23-2.3-.34-3.48-.57-5.86,0,0,0,0,0,0l4.48-.38h0C19.51,21.26,19.69,22.41,20,24.63Z"/><path class="cls-102" d="M20,24.63s0,.06,0,.06l-4.76.51a0,0,0,0,1,0,0c-.24-2.29-.35-3.47-.59-5.84a0,0,0,0,1,0,0l4.5-.41h0C19.52,21.24,19.69,22.4,20,24.63Z"/><path class="cls-103" d="M20,24.63v.05l-4.74.5a0,0,0,0,1,0,0c-.24-2.28-.37-3.46-.61-5.82a0,0,0,0,1,0,0l4.52-.43s0,0,0,0C19.54,21.23,19.7,22.39,20,24.63Z"/><path class="cls-104" d="M20,24.62v.05l-4.72.48s0,0,0,0c-.25-2.28-.38-3.45-.63-5.8a0,0,0,0,1,0,0l4.54-.45s0,0,0,0C19.55,21.22,19.71,22.38,20,24.62Z"/><path class="cls-105" d="M20,24.62s0,0,0,0l-4.69.47h0c-.27-2.27-.4-3.44-.66-5.78a0,0,0,0,1,0,0l4.56-.48a0,0,0,0,1,0,0C19.56,21.2,19.72,22.37,20,24.62Z"/><path class="cls-106" d="M20,24.62a0,0,0,0,1,0,0l-4.67.46h0c-.27-2.26-.41-3.42-.68-5.76h0l4.59-.5h0C19.57,21.19,19.73,22.36,20,24.62Z"/><path class="cls-107" d="M20,24.62s0,0,0,0l-4.65.45a0,0,0,0,1,0,0c-.28-2.25-.42-3.41-.7-5.74h0l4.61-.52a0,0,0,0,1,0,0Z"/><path class="cls-108" d="M20,24.62h0l-4.62.44s0,0,0,0c-.29-2.25-.43-3.4-.72-5.72h0l4.63-.54s0,0,0,0C19.6,21.16,19.74,22.34,20,24.62Z"/></g><path class="cls-9" d="M20.13,24.6s0,0,0,0l-4.72.45v0c-.3-2.29-.44-3.46-.73-5.82,0,0,0,0,0,0l4.71-.55s0,0,0,0C19.69,21.08,19.83,22.28,20.13,24.6Z"/><path d="M15.57,23.89s0,0,0,0c-.22-1.73-.33-2.6-.54-4.36,0,0,0,0,0,0L19.11,19s0,0,0,0c.22,1.79.33,2.68.55,4.43,0,0,0,0,0,0Z"/><path class="cls-110" d="M15.34,22.08h0c-.12-1-.19-1.53-.31-2.55,0,0,0,0,0,0L19.11,19s0,0,0,0C17.61,20.28,16.86,20.89,15.34,22.08Z"/><g class="cls-8"><path class="cls-49" d="M17.59,19.38a.74.74,0,0,1-.75.77.79.79,0,0,1-.74-.81.76.76,0,0,1,.74-.79A.8.8,0,0,1,17.59,19.38Z"/><path class="cls-67" d="M17.58,19.37a.74.74,0,0,1-.74.77.79.79,0,0,1-.74-.81.75.75,0,0,1,.74-.78A.8.8,0,0,1,17.58,19.37Z"/><path class="cls-68" d="M17.58,19.36a.74.74,0,0,1-.74.77.79.79,0,0,1-.73-.81.74.74,0,0,1,.73-.77A.79.79,0,0,1,17.58,19.36Z"/><path class="cls-69" d="M17.58,19.35a.74.74,0,0,1-.74.77.79.79,0,0,1-.73-.81.74.74,0,0,1,.73-.77A.79.79,0,0,1,17.58,19.35Z"/><path class="cls-70" d="M17.57,19.34a.72.72,0,0,1-.73.76.78.78,0,0,1-.73-.8.73.73,0,0,1,.73-.76A.78.78,0,0,1,17.57,19.34Z"/><path class="cls-71" d="M17.57,19.33a.73.73,0,0,1-.73.76.77.77,0,0,1-.72-.79.74.74,0,0,1,.72-.77A.78.78,0,0,1,17.57,19.33Z"/><path class="cls-72" d="M17.57,19.32a.73.73,0,0,1-.73.76.77.77,0,0,1-.72-.79.73.73,0,0,1,.72-.76A.78.78,0,0,1,17.57,19.32Z"/><path class="cls-73" d="M17.56,19.32a.72.72,0,0,1-.72.75.78.78,0,0,1-.72-.79.73.73,0,0,1,.72-.75A.76.76,0,0,1,17.56,19.32Z"/><path class="cls-74" d="M17.56,19.31a.71.71,0,0,1-.72.74.76.76,0,0,1-.71-.78.72.72,0,0,1,.71-.75A.77.77,0,0,1,17.56,19.31Z"/><path class="cls-75" d="M17.55,19.3a.71.71,0,0,1-.71.74.76.76,0,0,1-.71-.78.71.71,0,0,1,.71-.74A.76.76,0,0,1,17.55,19.3Z"/><path class="cls-76" d="M17.55,19.29a.71.71,0,0,1-.71.74.75.75,0,0,1-.7-.78.71.71,0,0,1,.7-.74A.76.76,0,0,1,17.55,19.29Z"/><path class="cls-77" d="M17.55,19.28a.71.71,0,0,1-.71.74.75.75,0,0,1-.7-.77.71.71,0,0,1,.7-.74A.76.76,0,0,1,17.55,19.28Z"/><path class="cls-78" d="M17.54,19.27a.71.71,0,0,1-.7.74.77.77,0,0,1-.7-.77.72.72,0,0,1,.7-.74A.75.75,0,0,1,17.54,19.27Z"/><path class="cls-79" d="M17.54,19.27a.69.69,0,0,1-.7.72.74.74,0,0,1-.69-.76.7.7,0,0,1,.69-.73A.75.75,0,0,1,17.54,19.27Z"/><path class="cls-80" d="M17.53,19.26a.69.69,0,0,1-.69.72.74.74,0,0,1-.69-.76.69.69,0,0,1,.69-.72A.73.73,0,0,1,17.53,19.26Z"/><path class="cls-81" d="M17.53,19.25a.69.69,0,0,1-.69.72.73.73,0,0,1-.68-.76.69.69,0,0,1,.68-.72A.74.74,0,0,1,17.53,19.25Z"/><path class="cls-82" d="M17.53,19.24a.69.69,0,0,1-.69.72.74.74,0,0,1-.68-.75.69.69,0,0,1,.68-.72A.73.73,0,0,1,17.53,19.24Z"/><path class="cls-83" d="M17.52,19.23a.68.68,0,0,1-.68.71.73.73,0,0,1-.68-.74.7.7,0,0,1,.68-.72A.73.73,0,0,1,17.52,19.23Z"/><path class="cls-84" d="M17.52,19.22a.68.68,0,0,1-.68.71.72.72,0,0,1-.67-.74.68.68,0,0,1,.67-.71A.72.72,0,0,1,17.52,19.22Z"/><path class="cls-85" d="M17.52,19.22a.69.69,0,0,1-.68.7.72.72,0,0,1-.67-.74.67.67,0,0,1,.67-.7A.71.71,0,0,1,17.52,19.22Z"/><path class="cls-86" d="M17.51,19.21a.68.68,0,0,1-.67.7.7.7,0,0,1-.66-.74.68.68,0,0,1,.66-.7A.72.72,0,0,1,17.51,19.21Z"/><path class="cls-87" d="M17.51,19.2a.67.67,0,0,1-.67.69.71.71,0,0,1-.66-.73.67.67,0,0,1,.66-.69A.71.71,0,0,1,17.51,19.2Z"/></g><path class="cls-111" d="M17.51,19.2a.68.68,0,0,1-.67.71.72.72,0,0,1-.67-.74.67.67,0,0,1,.67-.7A.72.72,0,0,1,17.51,19.2Z"/><g class="cls-89"><path class="cls-90" d="M16.84,18.49a.71.71,0,0,1,.67.73v0a.72.72,0,0,0-.67-.73.67.67,0,0,0-.67.7h0A.68.68,0,0,1,16.84,18.49Z"/></g><path class="cls-90" d="M16.84,18.49a.71.71,0,0,1,.67.73v0a.72.72,0,0,0-.67-.73.67.67,0,0,0-.67.7h0A.68.68,0,0,1,16.84,18.49Z"/><path class="cls-91" d="M16.84,18.48c.37,0,.67.73.67.73h0a.72.72,0,0,0-.67-.73.67.67,0,0,0-.67.7h0S16.48,18.47,16.84,18.48Z"/><path class="cls-92" d="M16.34,19.63c-.24-.31.08-.94.08-1h0a.76.76,0,0,0-.08,1,.65.65,0,0,0,.94.11h0S16.57,19.94,16.34,19.63Z"/><path class="cls-92" d="M17.35,19.66c.24-.3-.08-1-.08-1h0a.79.79,0,0,1,.09,1,.64.64,0,0,1-.95.07h0S17.11,20,17.35,19.66Z"/><g class="cls-8"><path class="cls-49" d="M15.1,5.24a.94.94,0,0,1-.89,1,.88.88,0,0,1-.89-.9,1,1,0,0,1,.89-1A.87.87,0,0,1,15.1,5.24Z"/><path class="cls-112" d="M15.09,5.23a.93.93,0,0,1-.88.95.87.87,0,0,1-.88-.9.94.94,0,0,1,.88-1A.87.87,0,0,1,15.09,5.23Z"/><path class="cls-113" d="M15.09,5.22a.94.94,0,0,1-.88,1,.87.87,0,0,1-.88-.9.94.94,0,0,1,.88-.94A.86.86,0,0,1,15.09,5.22Z"/><path class="cls-114" d="M15.08,5.21a.93.93,0,0,1-.87.94.86.86,0,0,1-.87-.89.93.93,0,0,1,.87-.94A.86.86,0,0,1,15.08,5.21Z"/><path class="cls-115" d="M15.08,5.2a.93.93,0,0,1-.87.94.87.87,0,0,1-.87-.89.92.92,0,0,1,.87-.93A.85.85,0,0,1,15.08,5.2Z"/><path class="cls-116" d="M15.07,5.19a.91.91,0,0,1-.86.93.84.84,0,0,1-.86-.88.92.92,0,0,1,.86-.93A.85.85,0,0,1,15.07,5.19Z"/><path class="cls-117" d="M15.07,5.18a.92.92,0,0,1-.86.93.85.85,0,0,1-.86-.88.92.92,0,0,1,.86-.92A.84.84,0,0,1,15.07,5.18Z"/><path class="cls-118" d="M15.06,5.17a.91.91,0,0,1-.85.92.84.84,0,0,1-.86-.87.93.93,0,0,1,.86-.92A.84.84,0,0,1,15.06,5.17Z"/><path class="cls-119" d="M15.06,5.16a.91.91,0,0,1-.85.92.85.85,0,0,1-.85-.87.9.9,0,0,1,.85-.91A.83.83,0,0,1,15.06,5.16Z"/><path class="cls-120" d="M15.06,5.15a.9.9,0,0,1-.85.91.83.83,0,0,1-.85-.86.89.89,0,0,1,.85-.9A.82.82,0,0,1,15.06,5.15Z"/><path class="cls-121" d="M15.05,5.14a.89.89,0,0,1-.84.91.83.83,0,0,1-.84-.86.9.9,0,0,1,.84-.9A.82.82,0,0,1,15.05,5.14Z"/><path class="cls-122" d="M15.05,5.13a.89.89,0,0,1-.84.9.82.82,0,0,1-.84-.85.88.88,0,0,1,.84-.89A.82.82,0,0,1,15.05,5.13Z"/><path class="cls-123" d="M15,5.12a.88.88,0,0,1-.83.9.82.82,0,0,1-.83-.84.89.89,0,0,1,.83-.9A.82.82,0,0,1,15,5.12Z"/><path class="cls-124" d="M15,5.11a.89.89,0,0,1-.83.9.82.82,0,0,1-.83-.84.87.87,0,0,1,.83-.89A.8.8,0,0,1,15,5.11Z"/><path class="cls-125" d="M15,5.1a.87.87,0,0,1-.82.89.81.81,0,0,1-.82-.83.88.88,0,0,1,.82-.89A.81.81,0,0,1,15,5.1Z"/><path class="cls-126" d="M15,5.09a.88.88,0,0,1-.82.89.81.81,0,0,1-.82-.83.86.86,0,0,1,.82-.88A.8.8,0,0,1,15,5.09Z"/><path class="cls-127" d="M15,5.08a.86.86,0,0,1-.81.88.8.8,0,0,1-.81-.82.87.87,0,0,1,.81-.88A.8.8,0,0,1,15,5.08Z"/><path class="cls-128" d="M15,5.07a.87.87,0,0,1-.81.88.8.8,0,0,1-.81-.82.85.85,0,0,1,.81-.87A.79.79,0,0,1,15,5.07Z"/><path class="cls-129" d="M15,5.07a.85.85,0,0,1-.8.86.77.77,0,0,1-.8-.81.86.86,0,0,1,.8-.87A.79.79,0,0,1,15,5.07Z"/><path class="cls-130" d="M15,5.06a.85.85,0,0,1-.8.86.79.79,0,0,1-.8-.81.85.85,0,0,1,.8-.86A.78.78,0,0,1,15,5.06Z"/><path class="cls-131" d="M15,5.05a.83.83,0,0,1-.79.85.78.78,0,0,1-.8-.8.86.86,0,0,1,.8-.86A.78.78,0,0,1,15,5.05Z"/><path class="cls-132" d="M15,5a.84.84,0,0,1-.79.85.78.78,0,0,1-.79-.8.83.83,0,0,1,.79-.85A.77.77,0,0,1,15,5Z"/></g><path class="cls-133" d="M15,5a.85.85,0,0,1-.8.86.79.79,0,0,1-.8-.81.86.86,0,0,1,.8-.86A.79.79,0,0,1,15,5Z"/><g class="cls-89"><path class="cls-134" d="M14.21,4.25A.79.79,0,0,1,15,5h0a.79.79,0,0,0-.8-.81.86.86,0,0,0-.8.86h0A.85.85,0,0,1,14.21,4.25Z"/></g><path class="cls-134" d="M14.21,4.25A.79.79,0,0,1,15,5h0a.79.79,0,0,0-.8-.81.86.86,0,0,0-.8.86h0A.85.85,0,0,1,14.21,4.25Z"/><path class="cls-135" d="M14.21,4.24c.44,0,.8.8.8.8h0a.79.79,0,0,0-.8-.81.86.86,0,0,0-.8.86h0S13.77,4.25,14.21,4.24Z"/><path class="cls-136" d="M13.61,5.6c-.29-.34.09-1.17.09-1.17h0a.88.88,0,0,0-.1,1.17.77.77,0,0,0,1.12.07h0S13.89,6,13.61,5.6Z"/><path class="cls-137" d="M14.81,5.57c.28-.36-.09-1.17-.09-1.17h0a.87.87,0,0,1,.1,1.17.77.77,0,0,1-1.12.14h0S14.53,5.93,14.81,5.57Z"/><g class="cls-8"><path class="cls-49" d="M26,22.45a.42.42,0,0,1,0,.12c-2-.3-2.95-.44-4.93-.72h0c.42-2.3.62-3.48,1-5.85h0c1.66.38,2.49.58,4.14,1a0,0,0,0,1,0,0C26.14,19.2,26.1,20.3,26,22.45Z"/><path class="cls-138" d="M26,22.45s0,.11,0,.11c-1.95-.3-2.94-.44-4.91-.72,0,0,0,0,0,0,.4-2.28.6-3.46,1-5.83h0c1.67.38,2.5.57,4.16,1,0,0,0,0,0,0C26.16,19.19,26.11,20.3,26,22.45Z"/><path class="cls-139" d="M26,22.44s0,.11,0,.11l-4.88-.73s0,0,0,0c.39-2.28.58-3.46,1-5.82h0c1.68.37,2.52.56,4.19,1h0C26.17,19.18,26.12,20.29,26,22.44Z"/><path class="cls-140" d="M26,22.44s0,.1,0,.1c-1.93-.3-2.9-.45-4.86-.73h0c.38-2.28.57-3.45.95-5.8l0,0c1.69.37,2.53.55,4.21.94,0,0,0,0,0,0C26.19,19.17,26.13,20.28,26,22.44Z"/><path class="cls-141" d="M26,22.44s0,.09,0,.09c-1.92-.3-2.89-.45-4.83-.73,0,0,0,0,0,0,.37-2.27.55-3.44.92-5.78l0,0c1.7.36,2.55.55,4.24.93a0,0,0,0,1,0,0C26.2,19.16,26.14,20.28,26,22.44Z"/><path class="cls-142" d="M26,22.44s0,.08,0,.08l-4.82-.74h0c.36-2.27.54-3.43.9-5.77,0,0,0,0,0,0,1.71.35,2.56.53,4.26.9,0,0,0,0,0,0C26.22,19.15,26.15,20.27,26,22.44Z"/><path class="cls-143" d="M26,22.44s0,.08,0,.07l-4.79-.74s0,0,0,0c.35-2.26.52-3.42.87-5.75h0c1.72.34,2.58.52,4.29.89a0,0,0,0,1,0,0C26.23,19.14,26.16,20.26,26,22.44Z"/><path class="cls-144" d="M26,22.43s0,.08,0,.08l-4.76-.76s0,0,0,0c.34-2.26.51-3.41.85-5.74h0c1.73.34,2.59.51,4.31.87,0,0,0,0,0,0C26.25,19.13,26.17,20.26,26,22.43Z"/><path class="cls-145" d="M26,22.43s0,.07,0,.07c-1.89-.32-2.83-.47-4.74-.76h0c.33-2.25.49-3.41.82-5.73h0c1.74.33,2.61.5,4.34.86h0C26.26,19.12,26.18,20.25,26,22.43Z"/><path class="cls-146" d="M26,22.43s0,.06,0,.06c-1.87-.32-2.82-.47-4.71-.76,0,0,0,0,0,0L22.06,16h0c1.75.32,2.63.49,4.36.84a0,0,0,0,1,0,0C26.28,19.11,26.19,20.24,26,22.43Z"/><path class="cls-147" d="M26,22.43s0,.05,0,.05c-1.86-.32-2.8-.47-4.69-.77h0c.31-2.24.46-3.39.77-5.7h0c1.76.32,2.64.48,4.39.83h0C26.29,19.11,26.2,20.24,26,22.43Z"/><path class="cls-148" d="M26,22.42l0,0c-1.86-.32-2.8-.47-4.67-.77,0,0,0,0,0,0L22.06,16h0c1.77.31,2.66.48,4.42.81a0,0,0,0,1,0,0C26.31,19.1,26.21,20.23,26,22.42Z"/><path class="cls-149" d="M26,22.42l0,0c-1.85-.32-2.78-.47-4.65-.77,0,0,0,0,0,0,.29-2.23.44-3.37.72-5.67h0c1.78.31,2.67.47,4.44.8a0,0,0,0,1,0,0C26.32,19.09,26.22,20.22,26,22.42Z"/><path class="cls-150" d="M26,22.42s0,0,0,0c-1.84-.32-2.77-.48-4.62-.78a0,0,0,0,1,0,0c.28-2.23.42-3.37.69-5.66h0c1.79.3,2.69.46,4.47.78v0C26.34,19.08,26.23,20.22,26,22.42Z"/><path class="cls-151" d="M26,22.42a0,0,0,0,1,0,0c-1.83-.32-2.75-.48-4.6-.78v0c.27-2.21.41-3.35.67-5.64h0c1.8.3,2.7.45,4.49.77h0C26.36,19.07,26.24,20.21,26,22.42Z"/><path class="cls-152" d="M26,22.42s0,0,0,0l-4.57-.79a0,0,0,0,1,0,0c.26-2.21.39-3.35.64-5.62l0,0c1.81.29,2.72.44,4.52.75a0,0,0,0,1,0,0C26.37,19.06,26.25,20.2,26,22.42Z"/><path class="cls-153" d="M26,22.41a0,0,0,0,1,0,0c-1.81-.33-2.72-.49-4.54-.8a0,0,0,0,1,0,0c.25-2.2.38-3.33.63-5.6,0,0,0,0,0,0,1.82.29,2.73.43,4.54.74h0C26.39,19.05,26.26,20.2,26,22.41Z"/></g><path class="cls-154" d="M26.06,22.45l-4.61-.81c.25-2.24.37-3.4.63-5.71,1.85.28,2.77.43,4.61.74C26.44,19,26.31,20.19,26.06,22.45Z"/><g class="cls-8"><path class="cls-49" d="M8.64,15.39v.12c-1.91.22-2.86.33-4.76.53h0c0-2.15-.05-3.22-.09-5.36h0l4.08-.17h0C8.17,12.45,8.33,13.43,8.64,15.39Z"/><path class="cls-138" d="M8.64,15.39v.11c-1.9.22-2.85.32-4.74.52h0c0-2.14-.06-3.21-.11-5.34h0l4.1-.19h0C8.19,12.43,8.34,13.42,8.64,15.39Z"/><path class="cls-139" d="M8.64,15.39v.1c-1.89.21-2.84.32-4.72.51h0c-.06-2.13-.08-3.19-.14-5.32h0l4.12-.21h0C8.2,12.42,8.34,13.41,8.64,15.39Z"/><path class="cls-140" d="M8.64,15.39v.1L3.93,16h0c-.06-2.12-.1-3.18-.16-5.3h0l4.14-.23h0C8.21,12.41,8.35,13.4,8.64,15.39Z"/><path class="cls-141" d="M8.64,15.39s0,.09,0,.09L4,16a0,0,0,0,1,0,0c-.07-2.11-.11-3.17-.18-5.27v0l4.17-.25v0C8.22,12.4,8.36,13.39,8.64,15.39Z"/><path class="cls-142" d="M8.64,15.38s0,.09,0,.09L4,16H4l-.2-5.26,0,0L8,10.4H8C8.24,12.39,8.37,13.38,8.64,15.38Z"/><path class="cls-143" d="M8.64,15.38s0,.08,0,.08L4,15.93H4c-.09-2.1-.13-3.15-.22-5.24l0,0L8,10.38H8C8.25,12.37,8.38,13.38,8.64,15.38Z"/><path class="cls-144" d="M8.64,15.38s0,.07,0,.07L4,15.91H4c-.09-2.09-.14-3.14-.24-5.22l0,0L8,10.36H8C8.26,12.36,8.39,13.37,8.64,15.38Z"/><path class="cls-145" d="M8.64,15.38s0,.06,0,.06c-1.83.19-2.75.28-4.58.45H4c-.1-2.08-.15-3.13-.26-5.2l0,0L8,10.34H8C8.28,12.35,8.4,13.36,8.64,15.38Z"/><path class="cls-146" d="M8.64,15.38s0,0,0,0c-1.83.19-2.74.27-4.56.44h0c-.12-2.07-.17-3.11-.29-5.18h0L8,10.32h0C8.29,12.34,8.4,13.35,8.64,15.38Z"/><path class="cls-147" d="M8.64,15.37s0,.06,0,.06l-4.54.43s0,0,0,0l-.3-5.16s0,0,0,0l4.28-.37h0C8.3,12.32,8.41,13.34,8.64,15.37Z"/><path class="cls-148" d="M8.63,15.37s0,.05,0,.05l-4.52.42h0c-.13-2.07-.2-3.1-.32-5.15h0l4.31-.39h0C8.31,12.31,8.42,13.33,8.63,15.37Z"/><path class="cls-149" d="M8.63,15.37s0,0,0,0l-4.5.41h0c-.14-2.06-.21-3.08-.34-5.13h0l4.33-.41h0C8.33,12.3,8.43,13.32,8.63,15.37Z"/><path class="cls-150" d="M8.63,15.37s0,0,0,0c-1.79.17-2.69.25-4.48.4a0,0,0,0,1,0,0c-.14-2-.22-3.07-.36-5.11h0l4.35-.43h0C8.34,12.29,8.44,13.31,8.63,15.37Z"/><path class="cls-151" d="M8.63,15.37s0,0,0,0l-4.45.39h0c-.15-2-.23-3.06-.38-5.09h0l4.37-.45h0C8.35,12.28,8.45,13.31,8.63,15.37Z"/><path class="cls-152" d="M8.63,15.36s0,0,0,0c-1.78.16-2.66.24-4.43.38h0l-.4-5.07h0l4.39-.47h0C8.36,12.26,8.45,13.3,8.63,15.36Z"/><path class="cls-153" d="M8.63,15.36v0l-4.41.37,0,0c-.17-2-.25-3-.42-5.05h0l4.41-.49h0C8.38,12.25,8.46,13.29,8.63,15.36Z"/></g><path class="cls-155" d="M8.68,15.38l-4.48.38c-.17-2.07-.26-3.1-.44-5.15l4.49-.5C8.42,12.21,8.51,13.27,8.68,15.38Z"/><g class="cls-8"><path class="cls-49" d="M6.35,11a.72.72,0,0,1-1,.08A.78.78,0,0,1,5.25,10a.72.72,0,0,1,1-.08A.77.77,0,0,1,6.35,11Z"/><path class="cls-156" d="M6.36,11a.72.72,0,0,1-1,.08A.77.77,0,0,1,5.26,10a.73.73,0,0,1,1-.09A.79.79,0,0,1,6.36,11Z"/><path class="cls-157" d="M6.36,11a.72.72,0,0,1-1,.08A.76.76,0,0,1,5.26,10a.73.73,0,0,1,1-.09A.78.78,0,0,1,6.36,11Z"/><path class="cls-158" d="M6.36,11a.71.71,0,0,1-1,.08A.76.76,0,0,1,5.27,10a.72.72,0,0,1,1-.08A.76.76,0,0,1,6.36,11Z"/><path class="cls-159" d="M6.36,10.94a.7.7,0,0,1-1,.08.75.75,0,0,1-.06-1,.71.71,0,0,1,1-.08A.75.75,0,0,1,6.36,10.94Z"/><path class="cls-160" d="M6.37,10.93a.71.71,0,0,1-1,.08.74.74,0,0,1-.06-1,.72.72,0,0,1,1-.09A.77.77,0,0,1,6.37,10.93Z"/><path class="cls-161" d="M6.37,10.92a.71.71,0,0,1-1,.08.75.75,0,0,1,0-1,.7.7,0,0,1,1-.08A.75.75,0,0,1,6.37,10.92Z"/><path class="cls-162" d="M6.37,10.92a.71.71,0,0,1-1,.07.75.75,0,0,1-.06-1,.7.7,0,0,1,1-.08A.75.75,0,0,1,6.37,10.92Z"/><path class="cls-163" d="M6.37,10.91a.7.7,0,0,1-1,.08.75.75,0,0,1-.06-1,.7.7,0,0,1,1-.09A.75.75,0,0,1,6.37,10.91Z"/><path class="cls-164" d="M6.37,10.9a.69.69,0,0,1-1,.08.75.75,0,0,1-.06-1,.7.7,0,0,1,1-.08A.75.75,0,0,1,6.37,10.9Z"/><path class="cls-165" d="M6.38,10.89a.7.7,0,0,1-1,.08.74.74,0,0,1,0-1,.69.69,0,0,1,1-.08A.74.74,0,0,1,6.38,10.89Z"/><path class="cls-166" d="M6.38,10.88a.69.69,0,0,1-1,.08.72.72,0,0,1,0-1,.68.68,0,0,1,1-.09A.73.73,0,0,1,6.38,10.88Z"/><path class="cls-167" d="M6.38,10.87a.68.68,0,0,1-1,.08.73.73,0,0,1-.06-1,.68.68,0,0,1,1-.08A.72.72,0,0,1,6.38,10.87Z"/><path class="cls-168" d="M6.38,10.86a.67.67,0,0,1-1,.08.72.72,0,0,1-.06-1,.68.68,0,0,1,1-.08A.72.72,0,0,1,6.38,10.86Z"/><path class="cls-169" d="M6.39,10.85a.67.67,0,0,1-1,.08.71.71,0,0,1-.06-1,.68.68,0,0,1,1-.09A.73.73,0,0,1,6.39,10.85Z"/><path class="cls-170" d="M6.39,10.85a.68.68,0,0,1-1,.07.72.72,0,0,1,0-1,.67.67,0,0,1,1-.08A.73.73,0,0,1,6.39,10.85Z"/><path class="cls-171" d="M6.39,10.84a.67.67,0,0,1-1,.07.7.7,0,0,1,0-1,.66.66,0,0,1,1-.08A.71.71,0,0,1,6.39,10.84Z"/><path class="cls-172" d="M6.39,10.83a.66.66,0,0,1-.95.07.7.7,0,0,1-.06-1,.66.66,0,0,1,1-.08A.7.7,0,0,1,6.39,10.83Z"/><path class="cls-173" d="M6.39,10.82a.66.66,0,0,1-.94.08.7.7,0,0,1-.06-1,.67.67,0,0,1,1-.08A.7.7,0,0,1,6.39,10.82Z"/><path class="cls-174" d="M6.4,10.81a.67.67,0,0,1-1,.08.7.7,0,0,1,0-1,.65.65,0,0,1,.94-.08A.7.7,0,0,1,6.4,10.81Z"/><path class="cls-175" d="M6.4,10.8a.66.66,0,0,1-.94.08.69.69,0,0,1,0-1,.65.65,0,0,1,.94-.08A.7.7,0,0,1,6.4,10.8Z"/><path class="cls-176" d="M6.4,10.79a.65.65,0,0,1-.93.08.69.69,0,0,1,0-1,.66.66,0,0,1,.93-.08A.7.7,0,0,1,6.4,10.79Z"/></g><path class="cls-177" d="M6.42,10.78a.66.66,0,0,1-.94.08.7.7,0,0,1-.06-1,.67.67,0,0,1,.94-.08A.7.7,0,0,1,6.42,10.78Z"/><g class="cls-89"><path class="cls-178" d="M6.35,9.83a.7.7,0,0,1,.06,1h0a.7.7,0,0,0-.06-1,.67.67,0,0,0-.94.08h0A.65.65,0,0,1,6.35,9.83Z"/></g><path class="cls-178" d="M6.35,9.83a.7.7,0,0,1,.06,1h0a.7.7,0,0,0-.06-1,.67.67,0,0,0-.94.08h0A.65.65,0,0,1,6.35,9.83Z"/><path class="cls-179" d="M6.36,9.82c.27.25,0,1,0,1h0a.7.7,0,0,0-.06-1,.67.67,0,0,0-.94.08h0S6.08,9.58,6.36,9.82Z"/><path class="cls-180" d="M5.26,10.33c0-.37.69-.68.69-.68h0a.69.69,0,0,0-.68.68A.64.64,0,0,0,5.9,11h0S5.25,10.71,5.26,10.33Z"/><path class="cls-181" d="M6,11c.36-.07.56-.79.56-.79h0A.73.73,0,0,1,6,11a.65.65,0,0,1-.76-.56h0S5.65,11.07,6,11Z"/><g class="cls-8"><path class="cls-49" d="M29.46,10.58a.53.53,0,0,1,0,.13l-4.69.72h0c-.1-2.35-.15-3.52-.25-5.78v0l4-.25h0C28.92,7.41,29.1,8.46,29.46,10.58Z"/><path class="cls-138" d="M29.46,10.58s0,.12,0,.12l-4.67.71h0c-.11-2.34-.16-3.51-.27-5.76v0l4.06-.27s0,0,0,0C28.94,7.4,29.11,8.45,29.46,10.58Z"/><path class="cls-139" d="M29.46,10.58s0,.11,0,.11l-4.65.7s0,0,0,0c-.12-2.33-.17-3.49-.29-5.73v0l4.08-.29h0C29,7.38,29.12,8.44,29.46,10.58Z"/><path class="cls-140" d="M29.46,10.57s0,.11,0,.11l-4.63.69s0,0,0,0c-.12-2.32-.18-3.47-.31-5.71v0l4.1-.31s0,0,0,0C29,7.37,29.13,8.43,29.46,10.57Z"/><path class="cls-141" d="M29.46,10.57s0,.1,0,.1l-4.61.67s0,0,0,0c-.13-2.31-.2-3.46-.33-5.69v0l4.12-.33h0C29,7.36,29.14,8.42,29.46,10.57Z"/><path class="cls-142" d="M29.46,10.57s0,.09,0,.09l-4.59.66h0c-.14-2.3-.21-3.45-.35-5.67v0l4.14-.35s0,0,0,0C29,7.34,29.14,8.41,29.46,10.57Z"/><path class="cls-143" d="M29.46,10.57v.08l-4.57.65a0,0,0,0,1,0,0c-.15-2.29-.22-3.44-.37-5.65h0c1.67-.16,2.5-.24,4.16-.38h0C29,7.33,29.15,8.4,29.46,10.57Z"/><path class="cls-144" d="M29.46,10.57v.07l-4.55.64h0c-.15-2.29-.23-3.42-.39-5.63h0l4.19-.4h0C29,7.32,29.16,8.39,29.46,10.57Z"/><path class="cls-145" d="M29.46,10.56v.07l-4.53.63h0c-.16-2.28-.24-3.41-.41-5.61h0c1.68-.18,2.52-.26,4.2-.42h0C29,7.3,29.17,8.38,29.46,10.56Z"/><path class="cls-146" d="M29.46,10.56s0,.06,0,.07l-4.5.61h0c-.17-2.27-.25-3.4-.43-5.59h0c1.69-.19,2.53-.27,4.22-.44h0C29,7.29,29.18,8.37,29.46,10.56Z"/><path class="cls-147" d="M29.46,10.56v.06c-1.79.23-2.69.35-4.48.6h0c-.18-2.26-.26-3.39-.45-5.57h0c1.7-.19,2.54-.29,4.24-.46h0C29.05,7.27,29.18,8.36,29.46,10.56Z"/><path class="cls-148" d="M29.46,10.56v0L25,11.2h0c-.18-2.26-.28-3.38-.46-5.55,0,0,0,0,0,0,1.71-.2,2.56-.3,4.26-.48,0,0,0,0,0,0C29.06,7.26,29.19,8.35,29.46,10.56Z"/><path class="cls-149" d="M29.46,10.55v0c-1.77.22-2.66.34-4.44.58h0c-.19-2.25-.29-3.36-.48-5.53,0,0,0,0,0,0,1.71-.21,2.57-.31,4.28-.5h0C29.07,7.25,29.2,8.34,29.46,10.55Z"/><path class="cls-150" d="M29.46,10.55s0,0,0,0c-1.76.22-2.64.33-4.41.57h0c-.2-2.24-.3-3.35-.5-5.51h0l4.3-.53s0,0,0,0C29.08,7.23,29.21,8.33,29.46,10.55Z"/><path class="cls-151" d="M29.45,10.55a0,0,0,0,1,0,0l-4.39.56s0,0,0,0c-.22-2.22-.32-3.33-.53-5.47,0,0,0,0,0,0l4.32-.55s0,0,0,0C29.1,7.22,29.22,8.32,29.45,10.55Z"/><path class="cls-152" d="M29.45,10.55s0,0,0,0l-4.37.55s0,0,0,0c-.22-2.21-.33-3.32-.55-5.45,0,0,0,0,0,0l4.34-.57a0,0,0,0,1,0,0C29.11,7.21,29.22,8.31,29.45,10.55Z"/><path class="cls-153" d="M29.45,10.55s0,0,0,0l-4.35.53h0c-.23-2.21-.34-3.3-.57-5.43,0,0,0,0,0,0L28.88,5h0C29.12,7.19,29.23,8.3,29.45,10.55Z"/></g><path class="cls-182" d="M29.5,10.57l-4.42.54c-.23-2.25-.34-3.37-.58-5.54L28.93,5C29.16,7.15,29.28,8.28,29.5,10.57Z"/><g class="cls-8"><path class="cls-49" d="M27.05,5.68a.71.71,0,0,1-1,.37A.84.84,0,0,1,25.74,5a.72.72,0,0,1,1-.36A.82.82,0,0,1,27.05,5.68Z"/><path class="cls-156" d="M27.05,5.67a.7.7,0,0,1-1,.36A.82.82,0,0,1,25.75,5a.7.7,0,0,1,1-.36A.82.82,0,0,1,27.05,5.67Z"/><path class="cls-157" d="M27.05,5.66a.69.69,0,0,1-1,.36A.82.82,0,0,1,25.75,5a.72.72,0,0,1,1-.36A.82.82,0,0,1,27.05,5.66Z"/><path class="cls-158" d="M27.05,5.66a.69.69,0,0,1-1,.35.81.81,0,0,1-.32-1,.7.7,0,0,1,1-.36A.82.82,0,0,1,27.05,5.66Z"/><path class="cls-159" d="M27.05,5.65a.68.68,0,0,1-1,.35.81.81,0,0,1-.32-1,.7.7,0,0,1,1-.35A.81.81,0,0,1,27.05,5.65Z"/><path class="cls-160" d="M27.05,5.64a.7.7,0,0,1-1,.35.81.81,0,0,1-.31-1,.69.69,0,0,1,1-.35A.81.81,0,0,1,27.05,5.64Z"/><path class="cls-161" d="M27.05,5.63A.68.68,0,0,1,26.1,6a.81.81,0,0,1-.32-1,.7.7,0,0,1,1-.35A.8.8,0,0,1,27.05,5.63Z"/><path class="cls-162" d="M27.05,5.62A.68.68,0,0,1,26.1,6a.8.8,0,0,1-.31-1,.69.69,0,0,1,.95-.35A.8.8,0,0,1,27.05,5.62Z"/><path class="cls-163" d="M27.05,5.61a.68.68,0,0,1-.94.35.79.79,0,0,1-.31-1,.67.67,0,0,1,.94-.35A.79.79,0,0,1,27.05,5.61Z"/><path class="cls-164" d="M27.05,5.6a.68.68,0,0,1-.94.35.81.81,0,0,1-.31-1,.68.68,0,0,1,.94-.34A.78.78,0,0,1,27.05,5.6Z"/><path class="cls-165" d="M27.05,5.59a.66.66,0,0,1-.93.34.78.78,0,0,1-.31-1,.68.68,0,0,1,.94-.35A.79.79,0,0,1,27.05,5.59Z"/><path class="cls-166" d="M27.05,5.58a.66.66,0,0,1-.93.34.77.77,0,0,1-.3-1,.68.68,0,0,1,.93-.34A.77.77,0,0,1,27.05,5.58Z"/><path class="cls-167" d="M27.05,5.57a.66.66,0,0,1-.92.34.77.77,0,0,1-.31-1,.67.67,0,0,1,.93-.34A.77.77,0,0,1,27.05,5.57Z"/><path class="cls-168" d="M27.05,5.56a.67.67,0,0,1-.92.34.77.77,0,0,1-.3-1,.67.67,0,0,1,.92-.34A.77.77,0,0,1,27.05,5.56Z"/><path class="cls-169" d="M27.05,5.55a.66.66,0,0,1-.91.34.77.77,0,0,1-.3-1,.66.66,0,0,1,.91-.33A.76.76,0,0,1,27.05,5.55Z"/><path class="cls-170" d="M27.05,5.54a.65.65,0,0,1-.91.34.77.77,0,0,1-.3-1,.65.65,0,0,1,.91-.33A.75.75,0,0,1,27.05,5.54Z"/><path class="cls-171" d="M27.05,5.53a.64.64,0,0,1-.9.34.77.77,0,0,1-.3-1,.66.66,0,0,1,.91-.33A.76.76,0,0,1,27.05,5.53Z"/><path class="cls-172" d="M27.05,5.53a.65.65,0,0,1-.9.33.76.76,0,0,1-.29-1,.65.65,0,0,1,.9-.33A.75.75,0,0,1,27.05,5.53Z"/><path class="cls-173" d="M27.05,5.52a.63.63,0,0,1-.89.32.76.76,0,0,1-.3-1,.66.66,0,0,1,.9-.33A.76.76,0,0,1,27.05,5.52Z"/><path class="cls-174" d="M27.05,5.51a.64.64,0,0,1-.89.32.75.75,0,0,1-.29-1,.65.65,0,0,1,.89-.33A.74.74,0,0,1,27.05,5.51Z"/><path class="cls-175" d="M27.05,5.5a.63.63,0,0,1-.88.32.73.73,0,0,1-.29-1,.63.63,0,0,1,.88-.32A.73.73,0,0,1,27.05,5.5Z"/><path class="cls-176" d="M27.05,5.49a.63.63,0,0,1-.88.32.75.75,0,0,1-.29-1,.64.64,0,0,1,.88-.32A.73.73,0,0,1,27.05,5.49Z"/></g><path class="cls-183" d="M27.07,5.47a.65.65,0,0,1-.89.33.74.74,0,0,1-.29-1,.64.64,0,0,1,.89-.32A.75.75,0,0,1,27.07,5.47Z"/><g class="cls-89"><path class="cls-178" d="M26.77,4.53a.74.74,0,0,1,.29,1h0a.75.75,0,0,0-.29-1,.64.64,0,0,0-.89.32h0A.65.65,0,0,1,26.77,4.53Z"/></g><path class="cls-178" d="M26.77,4.53a.74.74,0,0,1,.29,1h0a.75.75,0,0,0-.29-1,.64.64,0,0,0-.89.32h0A.65.65,0,0,1,26.77,4.53Z"/><path class="cls-179" d="M26.77,4.52c.32.17.29,1,.29,1h0a.75.75,0,0,0-.29-1,.64.64,0,0,0-.89.32h0S26.45,4.35,26.77,4.52Z"/><path class="cls-180" d="M25.84,5.32c-.08-.39.49-.87.49-.87h0a.73.73,0,0,0-.5.86.65.65,0,0,0,.8.53h0S25.93,5.7,25.84,5.32Z"/><path class="cls-181" d="M26.73,5.8c.34-.15.35-.94.35-.94h0a.8.8,0,0,1-.34.95.64.64,0,0,1-.87-.37h0S26.4,6,26.73,5.8Z"/><g class="cls-8"><path class="cls-49" d="M25.07,17.23a.68.68,0,0,1-1,0A.91.91,0,0,1,24,16.1a.68.68,0,0,1,1-.05A.92.92,0,0,1,25.07,17.23Z"/><path class="cls-156" d="M25.07,17.22a.67.67,0,0,1-1,0A.91.91,0,0,1,24,16.09a.67.67,0,0,1,1,0A.91.91,0,0,1,25.07,17.22Z"/><path class="cls-157" d="M25.08,17.21a.67.67,0,0,1-1,0A.9.9,0,0,1,24,16.09a.66.66,0,0,1,1,0A.9.9,0,0,1,25.08,17.21Z"/><path class="cls-158" d="M25.08,17.2a.67.67,0,0,1-1,0A.89.89,0,0,1,24,16.09.68.68,0,0,1,25,16,.91.91,0,0,1,25.08,17.2Z"/><path class="cls-159" d="M25.08,17.19a.67.67,0,0,1-1,0A.91.91,0,0,1,24,16.08a.67.67,0,0,1,1,0A.89.89,0,0,1,25.08,17.19Z"/><path class="cls-160" d="M25.08,17.18a.66.66,0,0,1-1,0A.88.88,0,0,1,24,16.08a.65.65,0,0,1,1,0A.88.88,0,0,1,25.08,17.18Z"/><path class="cls-161" d="M25.08,17.17a.65.65,0,0,1-1,0A.87.87,0,0,1,24,16.08a.65.65,0,0,1,1,0A.87.87,0,0,1,25.08,17.17Z"/><path class="cls-162" d="M25.09,17.16a.65.65,0,0,1-1,0A.87.87,0,0,1,24,16.07a.65.65,0,0,1,1,0A.88.88,0,0,1,25.09,17.16Z"/><path class="cls-163" d="M25.09,17.15a.65.65,0,0,1-1,0A.88.88,0,0,1,24,16.07a.65.65,0,0,1,1,0A.87.87,0,0,1,25.09,17.15Z"/><path class="cls-164" d="M25.09,17.14a.64.64,0,0,1-1,0A.86.86,0,0,1,24,16.07.65.65,0,0,1,25,16,.87.87,0,0,1,25.09,17.14Z"/><path class="cls-165" d="M25.09,17.13a.63.63,0,0,1-1,0,.85.85,0,0,1-.06-1.11.65.65,0,0,1,1,0A.85.85,0,0,1,25.09,17.13Z"/><path class="cls-166" d="M25.1,17.12a.63.63,0,0,1-1,0,.84.84,0,0,1-.06-1.1.63.63,0,0,1,1,0A.86.86,0,0,1,25.1,17.12Z"/><path class="cls-167" d="M25.1,17.12a.64.64,0,0,1-1,0,.84.84,0,0,1-.05-1.09.62.62,0,0,1,1,0A.86.86,0,0,1,25.1,17.12Z"/><path class="cls-168" d="M25.1,17.11a.63.63,0,0,1-1,0,.85.85,0,0,1-.06-1.09.64.64,0,0,1,1,0A.85.85,0,0,1,25.1,17.11Z"/><path class="cls-169" d="M25.1,17.1a.62.62,0,0,1-1,0,.83.83,0,0,1-.06-1.08.64.64,0,0,1,1,0A.85.85,0,0,1,25.1,17.1Z"/><path class="cls-170" d="M25.1,17.09a.62.62,0,0,1-1,0,.83.83,0,0,1-.06-1.08.62.62,0,0,1,1,0A.83.83,0,0,1,25.1,17.09Z"/><path class="cls-171" d="M25.11,17.08a.63.63,0,0,1-1,0,.85.85,0,0,1,0-1.08.63.63,0,0,1,.95,0A.85.85,0,0,1,25.11,17.08Z"/><path class="cls-172" d="M25.11,17.07a.63.63,0,0,1-.95,0A.83.83,0,0,1,24.11,16a.6.6,0,0,1,.94,0A.83.83,0,0,1,25.11,17.07Z"/><path class="cls-173" d="M25.11,17.06a.62.62,0,0,1-.94,0A.82.82,0,0,1,24.11,16a.61.61,0,0,1,.95,0A.82.82,0,0,1,25.11,17.06Z"/><path class="cls-174" d="M25.11,17.05a.61.61,0,0,1-.93,0A.82.82,0,0,1,24.12,16a.62.62,0,0,1,.94,0A.82.82,0,0,1,25.11,17.05Z"/><path class="cls-175" d="M25.12,17a.61.61,0,0,1-.93,0,.81.81,0,0,1-.06-1,.61.61,0,0,1,.93,0A.82.82,0,0,1,25.12,17Z"/><path class="cls-176" d="M25.12,17a.61.61,0,0,1-.93,0,.8.8,0,0,1-.05-1,.6.6,0,0,1,.92,0A.8.8,0,0,1,25.12,17Z"/></g><path class="cls-184" d="M25.13,17a.61.61,0,0,1-.93,0,.81.81,0,0,1-.05-1,.6.6,0,0,1,.93,0A.81.81,0,0,1,25.13,17Z"/><g class="cls-89"><path class="cls-178" d="M25.07,16A.83.83,0,0,1,25.13,17h0a.82.82,0,0,0-.05-1,.6.6,0,0,0-.93,0h0A.61.61,0,0,1,25.07,16Z"/></g><path class="cls-178" d="M25.07,16A.83.83,0,0,1,25.13,17h0a.82.82,0,0,0-.05-1,.6.6,0,0,0-.93,0h0A.61.61,0,0,1,25.07,16Z"/><path class="cls-179" d="M25.07,16c.27.28.06,1.06.06,1.06h0a.81.81,0,0,0-.05-1,.6.6,0,0,0-.93,0h0S24.8,15.7,25.07,16Z"/><path class="cls-180" d="M24,16.48c0-.41.67-.71.67-.71h0a.69.69,0,0,0-.68.71.74.74,0,0,0,.64.78h0S24,16.88,24,16.48Z"/><path class="cls-181" d="M24.74,17.24c.36,0,.55-.82.55-.82h0a.74.74,0,0,1-.55.83.7.7,0,0,1-.75-.64h0S24.38,17.29,24.74,17.24Z"/><g class="cls-8"><path class="cls-49" d="M8.06,7.65A.74.74,0,0,1,7,7.74.78.78,0,0,1,7,6.67a.74.74,0,0,1,1-.1A.78.78,0,0,1,8.06,7.65Z"/><path class="cls-156" d="M8.06,7.64a.73.73,0,0,1-1,.09A.76.76,0,0,1,7,6.67a.72.72,0,0,1,1-.1A.77.77,0,0,1,8.06,7.64Z"/><path class="cls-157" d="M8.07,7.63a.74.74,0,0,1-1,.1A.78.78,0,0,1,7,6.66a.74.74,0,0,1,1-.1A.78.78,0,0,1,8.07,7.63Z"/><path class="cls-158" d="M8.07,7.62a.72.72,0,0,1-1,.1A.76.76,0,0,1,7,6.66a.72.72,0,0,1,1-.1A.76.76,0,0,1,8.07,7.62Z"/><path class="cls-159" d="M8.07,7.61a.71.71,0,0,1-1,.1.75.75,0,0,1-.06-1,.7.7,0,0,1,1-.1A.75.75,0,0,1,8.07,7.61Z"/><path class="cls-160" d="M8.07,7.6a.71.71,0,0,1-1,.1.76.76,0,0,1-.06-1,.72.72,0,0,1,1-.1A.75.75,0,0,1,8.07,7.6Z"/><path class="cls-161" d="M8.08,7.59a.71.71,0,0,1-1,.1.75.75,0,0,1-.06-1,.71.71,0,0,1,1-.1A.76.76,0,0,1,8.08,7.59Z"/><path class="cls-162" d="M8.08,7.59a.71.71,0,0,1-1,.09.75.75,0,0,1-.06-1,.71.71,0,0,1,1-.09A.76.76,0,0,1,8.08,7.59Z"/><path class="cls-163" d="M8.08,7.58a.7.7,0,0,1-1,.09.74.74,0,0,1-.06-1,.71.71,0,0,1,1-.1A.76.76,0,0,1,8.08,7.58Z"/><path class="cls-164" d="M8.08,7.57a.7.7,0,0,1-1,.09.73.73,0,0,1,0-1,.69.69,0,0,1,1-.1A.74.74,0,0,1,8.08,7.57Z"/><path class="cls-165" d="M8.08,7.56a.68.68,0,0,1-1,.09.74.74,0,0,1-.06-1,.7.7,0,0,1,1-.09A.73.73,0,0,1,8.08,7.56Z"/><path class="cls-166" d="M8.09,7.55a.68.68,0,0,1-1,.09.73.73,0,0,1-.06-1,.69.69,0,0,1,1-.1A.74.74,0,0,1,8.09,7.55Z"/><path class="cls-167" d="M8.09,7.54a.67.67,0,0,1-1,.09.71.71,0,0,1-.06-1,.68.68,0,0,1,1-.1A.73.73,0,0,1,8.09,7.54Z"/><path class="cls-168" d="M8.09,7.53a.68.68,0,0,1-1,.1.73.73,0,0,1-.05-1,.68.68,0,0,1,1-.09A.72.72,0,0,1,8.09,7.53Z"/><path class="cls-169" d="M8.09,7.53a.68.68,0,0,1-1,.09.72.72,0,0,1,0-1,.68.68,0,0,1,1-.09A.72.72,0,0,1,8.09,7.53Z"/><path class="cls-170" d="M8.1,7.52a.68.68,0,0,1-1,.09.72.72,0,0,1-.06-1,.68.68,0,0,1,1-.1A.73.73,0,0,1,8.1,7.52Z"/><path class="cls-171" d="M8.1,7.51a.67.67,0,0,1-1,.09.72.72,0,0,1-.06-1,.67.67,0,0,1,1-.09A.72.72,0,0,1,8.1,7.51Z"/><path class="cls-172" d="M8.1,7.5a.67.67,0,0,1-1,.09.71.71,0,0,1,0-1A.66.66,0,0,1,8,6.52.7.7,0,0,1,8.1,7.5Z"/><path class="cls-173" d="M8.1,7.49a.66.66,0,0,1-.95.09.7.7,0,0,1-.05-1,.66.66,0,0,1,1-.1A.71.71,0,0,1,8.1,7.49Z"/><path class="cls-174" d="M8.1,7.48a.65.65,0,0,1-.94.09.69.69,0,0,1,0-1,.66.66,0,0,1,.94-.09A.69.69,0,0,1,8.1,7.48Z"/><path class="cls-175" d="M8.11,7.47a.66.66,0,0,1-.94.09.69.69,0,0,1-.06-1,.66.66,0,0,1,.94-.09A.69.69,0,0,1,8.11,7.47Z"/><path class="cls-176" d="M8.11,7.46a.65.65,0,0,1-.93.09.69.69,0,0,1-.06-1,.66.66,0,0,1,.93-.09A.69.69,0,0,1,8.11,7.46Z"/></g><path class="cls-185" d="M8.13,7.45a.66.66,0,0,1-1,.09.7.7,0,0,1,0-1,.65.65,0,0,1,.94-.1A.7.7,0,0,1,8.13,7.45Z"/><g class="cls-89"><path class="cls-178" d="M8.06,6.5a.7.7,0,0,1,.06,1h0a.7.7,0,0,0-.06-1,.65.65,0,0,0-.94.1h0A.67.67,0,0,1,8.06,6.5Z"/></g><path class="cls-178" d="M8.06,6.5a.7.7,0,0,1,.06,1h0a.7.7,0,0,0-.06-1,.65.65,0,0,0-.94.1h0A.67.67,0,0,1,8.06,6.5Z"/><path class="cls-179" d="M8.06,6.49c.28.24.06,1,.06,1h0a.7.7,0,0,0-.06-1,.65.65,0,0,0-.94.1h0S7.79,6.25,8.06,6.49Z"/><path class="cls-180" d="M7,7c0-.38.68-.69.68-.69h0A.7.7,0,0,0,7,7a.65.65,0,0,0,.65.68h0S7,7.39,7,7Z"/><path class="cls-181" d="M7.72,7.68c.37-.07.57-.79.57-.79h0a.76.76,0,0,1-.57.8A.64.64,0,0,1,7,7.14H7S7.36,7.75,7.72,7.68Z"/><g class="cls-8"><path class="cls-49" d="M11.75,24.73a.42.42,0,0,1,0,.12l-5-.69s0,0,0,0c.42-2.16.62-3.26,1-5.48,0,0,0,0,0,0,1.66.36,2.5.55,4.17.93,0,0,0,0,0,0C11.88,21.67,11.84,22.7,11.75,24.73Z"/><path class="cls-138" d="M11.75,24.73l0,.11-5-.7s0,0,0,0c.41-2.16.61-3.26,1-5.47,0,0,0,0,0,0l4.2.91v0C11.9,21.66,11.85,22.7,11.75,24.73Z"/><path class="cls-139" d="M11.75,24.73l0,.1-4.93-.7h0c.4-2.16.59-3.25,1-5.46,0,0,0,0,0,0l4.22.9h0C11.92,21.65,11.86,22.69,11.75,24.73Z"/><path class="cls-140" d="M11.75,24.73s0,.09,0,.09l-4.9-.7s0,0,0,0l1-5.44h0l4.25.88s0,0,0,0C11.93,21.64,11.87,22.69,11.75,24.73Z"/><path class="cls-141" d="M11.75,24.72s0,.09,0,.09l-4.88-.7s0,0,0,0c.38-2.14.57-3.23.94-5.43h0l4.28.87h0C12,21.64,11.88,22.68,11.75,24.72Z"/><path class="cls-142" d="M11.75,24.72s0,.09,0,.08l-4.85-.71s0,0,0,0c.36-2.14.55-3.23.91-5.42h0l4.3.86h0C12,21.63,11.89,22.67,11.75,24.72Z"/><path class="cls-143" d="M11.75,24.72s0,.08,0,.08l-4.83-.72h0c.36-2.14.54-3.22.89-5.41h0l4.33.84a0,0,0,0,1,0,0C12,21.62,11.9,22.67,11.75,24.72Z"/><path class="cls-144" d="M11.75,24.72a.64.64,0,0,1,0,.07l-4.81-.72s0,0,0,0c.34-2.13.52-3.21.86-5.38,0,0,0,0,0,0,1.74.32,2.61.48,4.35.82h0C12,21.61,11.91,22.66,11.75,24.72Z"/><path class="cls-145" d="M11.75,24.72l0,.06L7,24.05s0,0,0,0c.34-2.13.51-3.2.84-5.37,0,0,0,0,0,0l4.38.8s0,0,0,0C12,21.6,11.92,22.65,11.75,24.72Z"/><path class="cls-146" d="M11.75,24.71s0,.06,0,.06L7,24H7c.32-2.12.49-3.2.81-5.36,0,0,0,0,0,0l4.4.79h0C12,21.59,11.93,22.65,11.75,24.71Z"/><path class="cls-147" d="M11.75,24.71s0,.05,0,.05L7,24s0,0,0,0c.31-2.11.47-3.18.78-5.34,0,0,0,0,0,0,1.77.3,2.66.46,4.43.78h0C12,21.58,11.94,22.64,11.75,24.71Z"/><path class="cls-148" d="M11.75,24.71s0,0,0,0L7,24a0,0,0,0,1,0,0c.31-2.11.46-3.18.76-5.33,0,0,0,0,0,0l4.46.76a0,0,0,0,1,0,0C12.05,21.57,12,22.63,11.75,24.71Z"/><path class="cls-149" d="M11.75,24.71s0,0,0,0L7.05,24a0,0,0,0,1,0,0c.29-2.11.44-3.17.73-5.32,0,0,0,0,0,0,1.79.29,2.69.44,4.48.75a0,0,0,0,1,0,0C12.07,21.56,12,22.63,11.75,24.71Z"/><path class="cls-150" d="M11.75,24.71s0,0,0,0L7.07,24a0,0,0,0,1,0,0c.29-2.09.43-3.16.71-5.3,0,0,0,0,0,0l4.51.73a0,0,0,0,1,0,0C12.09,21.56,12,22.62,11.75,24.71Z"/><path class="cls-151" d="M11.75,24.7a.1.1,0,0,1,0,0L7.1,24v0c.27-2.09.41-3.15.68-5.29,0,0,0,0,0,0l4.53.72s0,0,0,0C12.1,21.55,12,22.61,11.75,24.7Z"/><path class="cls-152" d="M11.75,24.7a0,0,0,0,1,0,0L7.13,24h0c.27-2.09.4-3.15.66-5.28h0l4.56.71h0C12.12,21.54,12,22.61,11.75,24.7Z"/><path class="cls-153" d="M11.75,24.7s0,0,0,0L7.15,24s0,0,0,0c.25-2.08.38-3.13.63-5.26h0l4.58.69a0,0,0,0,1,0,0C12.13,21.53,12,22.6,11.75,24.7Z"/></g><path class="cls-186" d="M11.8,24.73,7.14,24c.26-2.12.39-3.2.65-5.36,1.86.27,2.79.41,4.65.7C12.19,21.5,12.06,22.59,11.8,24.73Z"/><g class="cls-8"><path class="cls-49" d="M10.8,19.82a.72.72,0,0,1-1.05,0,.82.82,0,0,1-.06-1.1.73.73,0,0,1,1.05,0A.8.8,0,0,1,10.8,19.82Z"/><path class="cls-156" d="M10.8,19.81a.71.71,0,0,1-1,0,.8.8,0,0,1-.06-1.09.71.71,0,0,1,1,0A.78.78,0,0,1,10.8,19.81Z"/><path class="cls-157" d="M10.81,19.8a.71.71,0,0,1-1,0,.79.79,0,0,1-.06-1.08.71.71,0,0,1,1,0A.79.79,0,0,1,10.81,19.8Z"/><path class="cls-158" d="M10.81,19.8a.71.71,0,0,1-1,0,.78.78,0,0,1-.06-1.08.71.71,0,0,1,1,0A.8.8,0,0,1,10.81,19.8Z"/><path class="cls-159" d="M10.81,19.79a.71.71,0,0,1-1,0,.79.79,0,0,1-.06-1.07.7.7,0,0,1,1,0A.79.79,0,0,1,10.81,19.79Z"/><path class="cls-160" d="M10.81,19.78a.71.71,0,0,1-1,0,.79.79,0,0,1-.06-1.07.69.69,0,0,1,1,0A.78.78,0,0,1,10.81,19.78Z"/><path class="cls-161" d="M10.82,19.77a.71.71,0,0,1-1,0,.79.79,0,0,1-.06-1.07.71.71,0,0,1,1,0A.8.8,0,0,1,10.82,19.77Z"/><path class="cls-162" d="M10.82,19.76a.7.7,0,0,1-1,0,.78.78,0,0,1-.06-1.06.69.69,0,0,1,1,0A.79.79,0,0,1,10.82,19.76Z"/><path class="cls-163" d="M10.82,19.75a.69.69,0,0,1-1,0,.76.76,0,0,1-.05-1.05.68.68,0,0,1,1,0A.76.76,0,0,1,10.82,19.75Z"/><path class="cls-164" d="M10.82,19.74a.68.68,0,0,1-1,0,.76.76,0,0,1-.06-1,.69.69,0,0,1,1,0A.76.76,0,0,1,10.82,19.74Z"/><path class="cls-165" d="M10.82,19.73a.67.67,0,0,1-1,0,.76.76,0,0,1-.06-1,.68.68,0,0,1,1,0A.76.76,0,0,1,10.82,19.73Z"/><path class="cls-166" d="M10.83,19.73a.68.68,0,0,1-1,0,.75.75,0,0,1-.06-1,.67.67,0,0,1,1,0A.77.77,0,0,1,10.83,19.73Z"/><path class="cls-167" d="M10.83,19.72a.67.67,0,0,1-1,0,.74.74,0,0,1-.06-1,.66.66,0,0,1,1,0A.75.75,0,0,1,10.83,19.72Z"/><path class="cls-168" d="M10.83,19.71a.67.67,0,0,1-1,0,.74.74,0,0,1,0-1,.67.67,0,0,1,1,0A.75.75,0,0,1,10.83,19.71Z"/><path class="cls-169" d="M10.83,19.7a.66.66,0,0,1-1,0,.76.76,0,0,1-.06-1,.68.68,0,0,1,1,0A.74.74,0,0,1,10.83,19.7Z"/><path class="cls-170" d="M10.84,19.69a.67.67,0,0,1-1,0,.74.74,0,0,1-.06-1,.67.67,0,0,1,1,0A.74.74,0,0,1,10.84,19.69Z"/><path class="cls-171" d="M10.84,19.68a.65.65,0,0,1-1,0,.74.74,0,0,1-.06-1,.66.66,0,0,1,1,0A.74.74,0,0,1,10.84,19.68Z"/><path class="cls-172" d="M10.84,19.67a.65.65,0,0,1-1,0,.73.73,0,0,1-.05-1,.65.65,0,0,1,1,0A.74.74,0,0,1,10.84,19.67Z"/><path class="cls-173" d="M10.84,19.67a.65.65,0,0,1-.95,0,.72.72,0,0,1-.05-1,.64.64,0,0,1,.95,0A.73.73,0,0,1,10.84,19.67Z"/><path class="cls-174" d="M10.85,19.66a.66.66,0,0,1-.95,0,.73.73,0,0,1-.06-1,.65.65,0,0,1,.95,0A.73.73,0,0,1,10.85,19.66Z"/><path class="cls-175" d="M10.85,19.65a.65.65,0,0,1-.94,0,.72.72,0,0,1-.06-1,.65.65,0,0,1,.94,0A.73.73,0,0,1,10.85,19.65Z"/><path class="cls-176" d="M10.85,19.64a.65.65,0,0,1-.94,0,.71.71,0,0,1-.05-1,.65.65,0,0,1,.94,0A.72.72,0,0,1,10.85,19.64Z"/></g><path class="cls-187" d="M10.87,19.63a.65.65,0,0,1-.95,0,.71.71,0,0,1-.05-1,.65.65,0,0,1,.94,0A.73.73,0,0,1,10.87,19.63Z"/><g class="cls-89"><path class="cls-178" d="M10.8,18.66a.72.72,0,0,1,.06,1h0a.73.73,0,0,0-.06-1,.65.65,0,0,0-.94,0h0A.65.65,0,0,1,10.8,18.66Z"/></g><path class="cls-178" d="M10.8,18.66a.72.72,0,0,1,.06,1h0a.73.73,0,0,0-.06-1,.65.65,0,0,0-.94,0h0A.65.65,0,0,1,10.8,18.66Z"/><path class="cls-179" d="M10.81,18.65c.27.26,0,1,0,1h0a.73.73,0,0,0-.06-1,.65.65,0,0,0-.94,0h0S10.53,18.39,10.81,18.65Z"/><path class="cls-180" d="M9.71,19.12c0-.38.68-.66.68-.66h0a.67.67,0,0,0-.69.67.71.71,0,0,0,.65.73h0S9.7,19.5,9.71,19.12Z"/><path class="cls-181" d="M10.46,19.84c.37-.05.57-.78.57-.78h0a.72.72,0,0,1-.57.78.7.7,0,0,1-.75-.61h0S10.1,19.88,10.46,19.84Z"/><g class="cls-8"><path class="cls-49" d="M5.12,4a.76.76,0,0,1-.85.63.7.7,0,0,1-.59-.83.79.79,0,0,1,.86-.63A.7.7,0,0,1,5.12,4Z"/><path class="cls-156" d="M5.12,4a.77.77,0,0,1-.85.63.7.7,0,0,1-.58-.83.76.76,0,0,1,.85-.62A.69.69,0,0,1,5.12,4Z"/><path class="cls-157" d="M5.12,4a.77.77,0,0,1-.85.63.69.69,0,0,1-.58-.82.78.78,0,0,1,.85-.63A.7.7,0,0,1,5.12,4Z"/><path class="cls-158" d="M5.11,4a.76.76,0,0,1-.84.62.69.69,0,0,1-.57-.82.75.75,0,0,1,.84-.62A.68.68,0,0,1,5.11,4Z"/><path class="cls-159" d="M5.11,4a.76.76,0,0,1-.83.62.7.7,0,0,1-.58-.82.78.78,0,0,1,.84-.62A.69.69,0,0,1,5.11,4Z"/><path class="cls-160" d="M5.11,4a.76.76,0,0,1-.83.62.68.68,0,0,1-.57-.81.75.75,0,0,1,.83-.62A.68.68,0,0,1,5.11,4Z"/><path class="cls-161" d="M5.11,4a.76.76,0,0,1-.83.61.66.66,0,0,1-.56-.8.74.74,0,0,1,.82-.61A.68.68,0,0,1,5.11,4Z"/><path class="cls-162" d="M5.1,4a.73.73,0,0,1-.82.61.67.67,0,0,1-.56-.8.75.75,0,0,1,.82-.61A.67.67,0,0,1,5.1,4Z"/><path class="cls-163" d="M5.1,4a.73.73,0,0,1-.81.6.66.66,0,0,1-.56-.79.74.74,0,0,1,.81-.61A.67.67,0,0,1,5.1,4Z"/><path class="cls-164" d="M5.1,4a.74.74,0,0,1-.81.6.66.66,0,0,1-.56-.79.72.72,0,0,1,.81-.6A.66.66,0,0,1,5.1,4Z"/><path class="cls-165" d="M5.1,4a.74.74,0,0,1-.81.6.66.66,0,0,1-.55-.79.73.73,0,0,1,.8-.6A.66.66,0,0,1,5.1,4Z"/><path class="cls-166" d="M5.09,4a.73.73,0,0,1-.8.6.66.66,0,0,1-.55-.79.73.73,0,0,1,.8-.59A.65.65,0,0,1,5.09,4Z"/><path class="cls-167" d="M5.09,3.94a.73.73,0,0,1-.8.6.65.65,0,0,1-.54-.78.72.72,0,0,1,.79-.6A.65.65,0,0,1,5.09,3.94Z"/><path class="cls-168" d="M5.09,3.94a.72.72,0,0,1-.79.59.66.66,0,0,1-.55-.78.72.72,0,0,1,.79-.59A.66.66,0,0,1,5.09,3.94Z"/><path class="cls-169" d="M5.09,3.93a.71.71,0,0,1-.79.58.64.64,0,0,1-.54-.77.71.71,0,0,1,.79-.58A.65.65,0,0,1,5.09,3.93Z"/><path class="cls-170" d="M5.08,3.92a.7.7,0,0,1-.78.58.63.63,0,0,1-.54-.76.72.72,0,0,1,.79-.59A.64.64,0,0,1,5.08,3.92Z"/><path class="cls-171" d="M5.08,3.91a.71.71,0,0,1-.78.58.63.63,0,0,1-.53-.76.7.7,0,0,1,.78-.58A.63.63,0,0,1,5.08,3.91Z"/><path class="cls-172" d="M5.08,3.9a.71.71,0,0,1-.78.58.63.63,0,0,1-.53-.76.71.71,0,0,1,.78-.57A.62.62,0,0,1,5.08,3.9Z"/><path class="cls-173" d="M5.08,3.89a.7.7,0,0,1-.77.58.63.63,0,0,1-.53-.76.7.7,0,0,1,.77-.57A.64.64,0,0,1,5.08,3.89Z"/><path class="cls-174" d="M5.08,3.89a.7.7,0,0,1-.77.57.63.63,0,0,1-.53-.75.7.7,0,0,1,.77-.57A.63.63,0,0,1,5.08,3.89Z"/><path class="cls-175" d="M5.07,3.88a.69.69,0,0,1-.76.57.62.62,0,0,1-.52-.75.7.7,0,0,1,.76-.57A.63.63,0,0,1,5.07,3.88Z"/><path class="cls-176" d="M5.07,3.87a.69.69,0,0,1-.76.56.63.63,0,0,1-.52-.74.69.69,0,0,1,.76-.56A.62.62,0,0,1,5.07,3.87Z"/></g><path class="cls-188" d="M5.08,3.88a.7.7,0,0,1-.77.57.64.64,0,0,1-.53-.75.7.7,0,0,1,.77-.57A.63.63,0,0,1,5.08,3.88Z"/><g class="cls-89"><path class="cls-189" d="M4.55,3.15a.63.63,0,0,1,.52.74h0a.63.63,0,0,0-.53-.75.7.7,0,0,0-.77.57h0A.7.7,0,0,1,4.55,3.15Z"/></g><path class="cls-189" d="M4.55,3.15a.63.63,0,0,1,.52.74h0a.63.63,0,0,0-.53-.75.7.7,0,0,0-.77.57h0A.7.7,0,0,1,4.55,3.15Z"/><path class="cls-190" d="M4.55,3.14c.35,0,.52.74.52.74h0a.63.63,0,0,0-.53-.75.7.7,0,0,0-.77.57h0S4.19,3.09,4.55,3.14Z"/><path class="cls-191" d="M3.87,4.14c-.18-.31.24-.91.24-.91h0a.7.7,0,0,0-.25.91.64.64,0,0,0,.89.21h0S4,4.45,3.87,4.14Z"/><path class="cls-191" d="M4.84,4.27c.28-.24.09-.93.09-.93h0a.72.72,0,0,1-.09.94.65.65,0,0,1-.93,0h0S4.56,4.52,4.84,4.27Z"/><g class="cls-8"><path class="cls-49" d="M18.59,2.86a.79.79,0,0,1-.64.86.71.71,0,0,1-.81-.65.77.77,0,0,1,.64-.85A.72.72,0,0,1,18.59,2.86Z"/><path class="cls-156" d="M18.58,2.85a.78.78,0,0,1-.64.86.71.71,0,0,1-.8-.64.77.77,0,0,1,.64-.85A.69.69,0,0,1,18.58,2.85Z"/><path class="cls-157" d="M18.58,2.85a.78.78,0,0,1-.64.85.7.7,0,0,1-.79-.64.76.76,0,0,1,.63-.85A.71.71,0,0,1,18.58,2.85Z"/><path class="cls-158" d="M18.57,2.84a.75.75,0,0,1-.63.84.69.69,0,0,1-.79-.63.76.76,0,0,1,.63-.84A.69.69,0,0,1,18.57,2.84Z"/><path class="cls-159" d="M18.57,2.83a.77.77,0,0,1-.63.84A.7.7,0,0,1,17.15,3a.76.76,0,0,1,.63-.83A.7.7,0,0,1,18.57,2.83Z"/><path class="cls-160" d="M18.56,2.82a.75.75,0,0,1-.62.84A.7.7,0,0,1,17.15,3a.76.76,0,0,1,.63-.83A.68.68,0,0,1,18.56,2.82Z"/><path class="cls-161" d="M18.56,2.82a.76.76,0,0,1-.62.83A.68.68,0,0,1,17.16,3a.74.74,0,0,1,.62-.82A.68.68,0,0,1,18.56,2.82Z"/><path class="cls-162" d="M18.56,2.81a.76.76,0,0,1-.62.83A.69.69,0,0,1,17.16,3a.76.76,0,0,1,.62-.83A.7.7,0,0,1,18.56,2.81Z"/><path class="cls-163" d="M18.55,2.8a.76.76,0,0,1-.61.83A.7.7,0,0,1,17.16,3a.75.75,0,0,1,.62-.82A.68.68,0,0,1,18.55,2.8Z"/><path class="cls-164" d="M18.55,2.8a.74.74,0,0,1-.62.81A.67.67,0,0,1,17.17,3a.73.73,0,0,1,.61-.81A.67.67,0,0,1,18.55,2.8Z"/><path class="cls-165" d="M18.54,2.79a.74.74,0,0,1-.61.81A.67.67,0,0,1,17.17,3a.74.74,0,0,1,.61-.81A.67.67,0,0,1,18.54,2.79Z"/><path class="cls-166" d="M18.54,2.78a.74.74,0,0,1-.61.81A.67.67,0,0,1,17.17,3a.73.73,0,0,1,.61-.8A.67.67,0,0,1,18.54,2.78Z"/><path class="cls-167" d="M18.53,2.77a.73.73,0,0,1-.6.81A.68.68,0,0,1,17.17,3a.74.74,0,0,1,.61-.8A.67.67,0,0,1,18.53,2.77Z"/><path class="cls-168" d="M18.53,2.77a.74.74,0,0,1-.6.8.67.67,0,0,1-.75-.6.72.72,0,0,1,.6-.8A.67.67,0,0,1,18.53,2.77Z"/><path class="cls-169" d="M18.52,2.76a.71.71,0,0,1-.59.79A.66.66,0,0,1,17.18,3a.71.71,0,0,1,.59-.79A.65.65,0,0,1,18.52,2.76Z"/><path class="cls-170" d="M18.52,2.75a.71.71,0,0,1-.59.79A.66.66,0,0,1,17.18,3a.73.73,0,0,1,.59-.79A.66.66,0,0,1,18.52,2.75Z"/><path class="cls-171" d="M18.51,2.74a.71.71,0,0,1-.58.79.65.65,0,0,1-.74-.59.7.7,0,0,1,.58-.78A.65.65,0,0,1,18.51,2.74Z"/><path class="cls-172" d="M18.51,2.74a.71.71,0,0,1-.59.78.65.65,0,0,1-.73-.59.7.7,0,0,1,.58-.77A.64.64,0,0,1,18.51,2.74Z"/><path class="cls-173" d="M18.5,2.73a.7.7,0,0,1-.58.78.65.65,0,0,1-.73-.59.71.71,0,0,1,.58-.77A.64.64,0,0,1,18.5,2.73Z"/><path class="cls-174" d="M18.5,2.72a.71.71,0,0,1-.58.78.65.65,0,0,1-.73-.58.69.69,0,0,1,.58-.77A.63.63,0,0,1,18.5,2.72Z"/><path class="cls-175" d="M18.5,2.72a.69.69,0,0,1-.58.76.63.63,0,0,1-.72-.57.7.7,0,0,1,.57-.77A.65.65,0,0,1,18.5,2.72Z"/><path class="cls-176" d="M18.49,2.71a.68.68,0,0,1-.57.76.63.63,0,0,1-.72-.57.69.69,0,0,1,.57-.76A.63.63,0,0,1,18.49,2.71Z"/></g><path class="cls-192" d="M18.5,2.71a.7.7,0,0,1-.58.77.63.63,0,0,1-.72-.57.69.69,0,0,1,.57-.77A.64.64,0,0,1,18.5,2.71Z"/><g class="cls-89"><path class="cls-189" d="M17.77,2.16a.65.65,0,0,1,.73.56h0a.64.64,0,0,0-.73-.57.69.69,0,0,0-.57.77h0A.69.69,0,0,1,17.77,2.16Z"/></g><path class="cls-189" d="M17.77,2.16a.65.65,0,0,1,.73.56h0a.64.64,0,0,0-.73-.57.69.69,0,0,0-.57.77h0A.69.69,0,0,1,17.77,2.16Z"/><path class="cls-190" d="M17.77,2.15c.36,0,.73.57.73.57h0a.64.64,0,0,0-.73-.57.69.69,0,0,0-.57.77h0S17.42,2.2,17.77,2.15Z"/><path class="cls-191" d="M17.4,3.31c-.26-.25,0-1,0-1h0a.7.7,0,0,0,0,1,.63.63,0,0,0,.92-.06h0S17.66,3.56,17.4,3.31Z"/><path class="cls-191" d="M18.39,3.16c.19-.31-.19-.93-.19-.93h0a.72.72,0,0,1,.18.94.65.65,0,0,1-.91.22h0S18.19,3.48,18.39,3.16Z"/></g></g></g></g></g></svg>