<svg xmlns="http://www.w3.org/2000/svg" xmlns:xlink="http://www.w3.org/1999/xlink" viewBox="0 0 18.4 22.82"><defs><style>.cls-1{mask:url(#mask);filter:url(#luminosity-noclip-11);}.cls-10,.cls-12,.cls-14,.cls-16,.cls-18,.cls-2,.cls-20,.cls-25,.cls-4,.cls-6,.cls-8{mix-blend-mode:multiply;}.cls-2{fill:url(#radial-gradient);}.cls-3{mask:url(#mask-2);filter:url(#luminosity-noclip-16);}.cls-4{fill:url(#radial-gradient-2);}.cls-5{mask:url(#mask-3);filter:url(#luminosity-noclip-17);}.cls-6{fill:url(#radial-gradient-3);}.cls-7{mask:url(#mask-4);filter:url(#luminosity-noclip-18);}.cls-8{fill:url(#radial-gradient-4);}.cls-9{mask:url(#mask-5);filter:url(#luminosity-noclip-19);}.cls-10{fill:url(#radial-gradient-5);}.cls-11{mask:url(#mask-6);filter:url(#luminosity-noclip-20);}.cls-12{fill:url(#radial-gradient-6);}.cls-13{mask:url(#mask-7);filter:url(#luminosity-noclip-12);}.cls-14{fill:url(#radial-gradient-7);}.cls-15{mask:url(#mask-8);filter:url(#luminosity-noclip-13);}.cls-16{fill:url(#radial-gradient-8);}.cls-17{mask:url(#mask-9);filter:url(#luminosity-noclip-14);}.cls-18{fill:url(#radial-gradient-9);}.cls-19{mask:url(#mask-10);filter:url(#luminosity-noclip-15);}.cls-20{fill:url(#radial-gradient-10);}.cls-21{isolation:isolate;}.cls-22{fill:#c10000;}.cls-23{fill:#e4c2a3;}.cls-24,.cls-25{fill:#faf1d4;}.cls-26{fill:#c6c6c2;}.cls-27{mask:url(#mask-11);}.cls-28{fill:url(#radial-gradient-11);}.cls-29{mask:url(#mask-12);}.cls-30{fill:url(#radial-gradient-12);}.cls-31{mask:url(#mask-13);}.cls-32{fill:url(#radial-gradient-13);}.cls-33{mask:url(#mask-14);}.cls-34{fill:url(#radial-gradient-14);}.cls-35{mask:url(#mask-15);}.cls-36{fill:url(#radial-gradient-15);}.cls-37{mask:url(#mask-16);}.cls-38{fill:url(#radial-gradient-16);}.cls-39{fill:#db9958;}.cls-40{fill:#ff7184;}.cls-41{fill:#3b9b45;}.cls-42{fill:#ffc81a;}.cls-43{fill:#056bb1;}.cls-44{fill:#c60000;}.cls-45{mask:url(#mask-17);}.cls-46{fill:url(#radial-gradient-17);}.cls-47{mask:url(#mask-18);}.cls-48{fill:url(#radial-gradient-18);}.cls-49{mask:url(#mask-19);}.cls-50{fill:url(#radial-gradient-19);}.cls-51{mask:url(#mask-20);}.cls-52{fill:url(#radial-gradient-20);}.cls-53{fill:url(#radial-gradient-21);}.cls-54{filter:url(#luminosity-noclip-10);}.cls-55{filter:url(#luminosity-noclip-9);}.cls-56{filter:url(#luminosity-noclip-8);}.cls-57{filter:url(#luminosity-noclip-7);}.cls-58{filter:url(#luminosity-noclip-6);}.cls-59{filter:url(#luminosity-noclip-5);}.cls-60{filter:url(#luminosity-noclip-4);}.cls-61{filter:url(#luminosity-noclip-3);}.cls-62{filter:url(#luminosity-noclip-2);}.cls-63{filter:url(#luminosity-noclip);}</style><filter id="luminosity-noclip" x="1.36" y="-8291.53" width="1.35" height="32766" filterUnits="userSpaceOnUse" color-interpolation-filters="sRGB"><feFlood flood-color="#fff" result="bg"/><feBlend in="SourceGraphic" in2="bg"/></filter><mask id="mask" x="1.36" y="-8291.53" width="1.35" height="32766" maskUnits="userSpaceOnUse"><g class="cls-63"/></mask><radialGradient id="radial-gradient" cx="-16.21" cy="84.18" r="2.88" gradientTransform="translate(16.06 -77.32) scale(0.94 1.14)" gradientUnits="userSpaceOnUse"><stop offset="0" stop-color="#fff"/><stop offset="0.19" stop-color="#c6c6c6"/><stop offset="0.57" stop-color="#5c5c5c"/><stop offset="0.82" stop-color="#1a1a1a"/><stop offset="0.94"/></radialGradient><filter id="luminosity-noclip-2" x="0.31" y="-8291.53" width="11.83" height="32766" filterUnits="userSpaceOnUse" color-interpolation-filters="sRGB"><feFlood flood-color="#fff" result="bg"/><feBlend in="SourceGraphic" in2="bg"/></filter><mask id="mask-2" x="0.31" y="-8291.53" width="11.83" height="32766" maskUnits="userSpaceOnUse"><g class="cls-62"/></mask><radialGradient id="radial-gradient-2" cx="-17.45" cy="91.56" r="16.28" xlink:href="#radial-gradient"/><filter id="luminosity-noclip-3" x="12.28" y="-8291.53" width="5.67" height="32766" filterUnits="userSpaceOnUse" color-interpolation-filters="sRGB"><feFlood flood-color="#fff" result="bg"/><feBlend in="SourceGraphic" in2="bg"/></filter><mask id="mask-3" x="12.28" y="-8291.53" width="5.67" height="32766" maskUnits="userSpaceOnUse"><g class="cls-61"/></mask><radialGradient id="radial-gradient-3" cx="-944.75" cy="395.94" r="6.42" gradientTransform="matrix(-0.86, 0.51, -0.51, -0.86, -596.06, 826.39)" gradientUnits="userSpaceOnUse"><stop offset="0.11" stop-color="#fff"/><stop offset="0.34" stop-color="#b2b2b2"/><stop offset="0.57" stop-color="#666"/><stop offset="0.77" stop-color="#2f2f2f"/><stop offset="0.92" stop-color="#0d0d0d"/><stop offset="1"/></radialGradient><filter id="luminosity-noclip-4" x="8.97" y="-8291.53" width="3.63" height="32766" filterUnits="userSpaceOnUse" color-interpolation-filters="sRGB"><feFlood flood-color="#fff" result="bg"/><feBlend in="SourceGraphic" in2="bg"/></filter><mask id="mask-4" x="8.97" y="-8291.53" width="3.63" height="32766" maskUnits="userSpaceOnUse"><g class="cls-60"/></mask><radialGradient id="radial-gradient-4" cx="-941.87" cy="403.83" r="3.62" xlink:href="#radial-gradient-3"/><filter id="luminosity-noclip-5" x="5.84" y="-8291.53" width="3.59" height="32766" filterUnits="userSpaceOnUse" color-interpolation-filters="sRGB"><feFlood flood-color="#fff" result="bg"/><feBlend in="SourceGraphic" in2="bg"/></filter><mask id="mask-5" x="5.84" y="-8291.53" width="3.59" height="32766" maskUnits="userSpaceOnUse"><g class="cls-59"/></mask><radialGradient id="radial-gradient-5" cx="-630.73" cy="937.26" r="6.42" gradientTransform="translate(-710.7 880.97) rotate(-174.22)" xlink:href="#radial-gradient-3"/><filter id="luminosity-noclip-6" x="6.97" y="-8291.53" width="1.01" height="32766" filterUnits="userSpaceOnUse" color-interpolation-filters="sRGB"><feFlood flood-color="#fff" result="bg"/><feBlend in="SourceGraphic" in2="bg"/></filter><mask id="mask-6" x="6.97" y="-8291.53" width="1.01" height="32766" maskUnits="userSpaceOnUse"><g class="cls-58"/></mask><radialGradient id="radial-gradient-6" cx="-627.84" cy="945.15" r="3.62" gradientTransform="translate(-710.7 880.97) rotate(-174.22)" xlink:href="#radial-gradient-3"/><filter id="luminosity-noclip-7" x="6.45" y="-8291.53" width="2.01" height="32766" filterUnits="userSpaceOnUse" color-interpolation-filters="sRGB"><feFlood flood-color="#fff" result="bg"/><feBlend in="SourceGraphic" in2="bg"/></filter><mask id="mask-7" x="6.45" y="-8291.53" width="2.01" height="32766" maskUnits="userSpaceOnUse"><g class="cls-57"/></mask><radialGradient id="radial-gradient-7" cx="-10.32" cy="86.86" r="3.56" xlink:href="#radial-gradient"/><filter id="luminosity-noclip-8" x="11.34" y="-8291.53" width="2.4" height="32766" filterUnits="userSpaceOnUse" color-interpolation-filters="sRGB"><feFlood flood-color="#fff" result="bg"/><feBlend in="SourceGraphic" in2="bg"/></filter><mask id="mask-8" x="11.34" y="-8291.53" width="2.4" height="32766" maskUnits="userSpaceOnUse"><g class="cls-56"/></mask><radialGradient id="radial-gradient-8" cx="-4.4" cy="87.37" r="4.21" xlink:href="#radial-gradient"/><filter id="luminosity-noclip-9" x="16.25" y="-8291.53" width="1.8" height="32766" filterUnits="userSpaceOnUse" color-interpolation-filters="sRGB"><feFlood flood-color="#fff" result="bg"/><feBlend in="SourceGraphic" in2="bg"/></filter><mask id="mask-9" x="16.25" y="-8291.53" width="1.8" height="32766" maskUnits="userSpaceOnUse"><g class="cls-55"/></mask><radialGradient id="radial-gradient-9" cx="0.96" cy="84.25" r="3.14" xlink:href="#radial-gradient"/><filter id="luminosity-noclip-10" x="0.72" y="-8291.53" width="16.55" height="32766" filterUnits="userSpaceOnUse" color-interpolation-filters="sRGB"><feFlood flood-color="#fff" result="bg"/><feBlend in="SourceGraphic" in2="bg"/></filter><mask id="mask-10" x="0.72" y="-8291.53" width="16.55" height="32766" maskUnits="userSpaceOnUse"><g class="cls-54"/></mask><radialGradient id="radial-gradient-10" cx="-11.96" cy="72.53" r="15.86" xlink:href="#radial-gradient"/><filter id="luminosity-noclip-11" x="1.36" y="17.65" width="1.35" height="2.19" filterUnits="userSpaceOnUse" color-interpolation-filters="sRGB"><feFlood flood-color="#fff" result="bg"/><feBlend in="SourceGraphic" in2="bg"/></filter><mask id="mask-11" x="1.36" y="17.65" width="1.35" height="2.19" maskUnits="userSpaceOnUse"><g class="cls-1"><path class="cls-2" d="M1.48,17.65l.86.57a1.33,1.33,0,0,0,.38,1.61C1.57,20,1.14,18.53,1.48,17.65Z"/></g></mask><radialGradient id="radial-gradient-11" cx="-16.21" cy="84.18" r="2.88" gradientTransform="translate(16.06 -77.32) scale(0.94 1.14)" gradientUnits="userSpaceOnUse"><stop offset="0" stop-color="#fff"/><stop offset="0.94" stop-color="#fff"/></radialGradient><filter id="luminosity-noclip-12" x="6.45" y="20.07" width="2.01" height="1.8" filterUnits="userSpaceOnUse" color-interpolation-filters="sRGB"><feFlood flood-color="#fff" result="bg"/><feBlend in="SourceGraphic" in2="bg"/></filter><mask id="mask-12" x="6.45" y="20.07" width="2.01" height="1.8" maskUnits="userSpaceOnUse"><g class="cls-13"><path class="cls-14" d="M6.45,20.07l1.2.24s-.15,1.19.81,1.53A1.58,1.58,0,0,1,6.45,20.07Z"/></g></mask><radialGradient id="radial-gradient-12" cx="-10.32" cy="86.86" r="3.56" xlink:href="#radial-gradient-11"/><filter id="luminosity-noclip-13" x="11.34" y="20.02" width="2.4" height="1.55" filterUnits="userSpaceOnUse" color-interpolation-filters="sRGB"><feFlood flood-color="#fff" result="bg"/><feBlend in="SourceGraphic" in2="bg"/></filter><mask id="mask-13" x="11.34" y="20.02" width="2.4" height="1.55" maskUnits="userSpaceOnUse"><g class="cls-15"><path class="cls-16" d="M11.34,20.4,12.55,20s0,1.29,1.19,1A1.36,1.36,0,0,1,11.34,20.4Z"/></g></mask><radialGradient id="radial-gradient-13" cx="-4.4" cy="87.37" r="4.21" xlink:href="#radial-gradient-11"/><filter id="luminosity-noclip-14" x="16.25" y="17.56" width="1.8" height="1.12" filterUnits="userSpaceOnUse" color-interpolation-filters="sRGB"><feFlood flood-color="#fff" result="bg"/><feBlend in="SourceGraphic" in2="bg"/></filter><mask id="mask-14" x="16.25" y="17.56" width="1.8" height="1.12" maskUnits="userSpaceOnUse"><g class="cls-17"><path class="cls-18" d="M16.25,18.41l.71-.85a.74.74,0,0,0,1.09.3C17.66,18.93,16.41,18.78,16.25,18.41Z"/></g></mask><radialGradient id="radial-gradient-14" cx="0.96" cy="84.25" r="3.14" xlink:href="#radial-gradient-11"/><filter id="luminosity-noclip-15" x="0.72" y="4.54" width="16.55" height="12.69" filterUnits="userSpaceOnUse" color-interpolation-filters="sRGB"><feFlood flood-color="#fff" result="bg"/><feBlend in="SourceGraphic" in2="bg"/></filter><mask id="mask-15" x="0.72" y="4.54" width="16.55" height="12.69" maskUnits="userSpaceOnUse"><g class="cls-19"><path class="cls-20" d="M17.27,10.88c0,3.51-3.71,6.35-8.28,6.35S.72,14.39.72,10.88,4.42,4.54,9,4.54,17.27,7.38,17.27,10.88Z"/></g></mask><radialGradient id="radial-gradient-15" cx="-11.96" cy="72.53" r="15.86" xlink:href="#radial-gradient-11"/><filter id="luminosity-noclip-16" x="0.31" y="15.14" width="11.83" height="7.23" filterUnits="userSpaceOnUse" color-interpolation-filters="sRGB"><feFlood flood-color="#fff" result="bg"/><feBlend in="SourceGraphic" in2="bg"/></filter><mask id="mask-16" x="0.31" y="15.14" width="11.83" height="7.23" maskUnits="userSpaceOnUse"><g class="cls-3"><path class="cls-4" d="M.31,15.14s4,7,11.83,7c-3.55.65-9.46.38-11.79-4.91C.31,15.81.31,15.14.31,15.14Z"/></g></mask><radialGradient id="radial-gradient-16" cx="-17.45" cy="91.56" r="16.28" xlink:href="#radial-gradient-11"/><filter id="luminosity-noclip-17" x="12.28" y="5.52" width="5.67" height="7.8" filterUnits="userSpaceOnUse" color-interpolation-filters="sRGB"><feFlood flood-color="#fff" result="bg"/><feBlend in="SourceGraphic" in2="bg"/></filter><mask id="mask-17" x="12.28" y="5.52" width="5.67" height="7.8" maskUnits="userSpaceOnUse"><g class="cls-5"><path class="cls-6" d="M14.85,6.9A6.27,6.27,0,0,1,16,8.16a3.73,3.73,0,0,1,.25.39A6.2,6.2,0,0,1,16.86,10a5.43,5.43,0,0,1,.22,1.52,4.14,4.14,0,0,1-.41,1.79A3,3,0,0,0,18,10.7a4.92,4.92,0,0,0-.2-1.39A6.06,6.06,0,0,0,17.18,8c-.07-.12-.15-.24-.23-.36a5.58,5.58,0,0,0-1-1.13,3.26,3.26,0,0,0-3.65-.67A4.38,4.38,0,0,1,14.85,6.9Z"/></g></mask><radialGradient id="radial-gradient-17" cx="-944.75" cy="395.94" r="6.42" gradientTransform="matrix(-0.86, 0.51, -0.51, -0.86, -596.06, 826.39)" gradientUnits="userSpaceOnUse"><stop offset="0.11" stop-color="#fff"/><stop offset="1" stop-color="#fff"/></radialGradient><filter id="luminosity-noclip-18" x="8.97" y="0.1" width="3.63" height="5.18" filterUnits="userSpaceOnUse" color-interpolation-filters="sRGB"><feFlood flood-color="#fff" result="bg"/><feBlend in="SourceGraphic" in2="bg"/></filter><mask id="mask-18" x="8.97" y="0.1" width="3.63" height="5.18" maskUnits="userSpaceOnUse"><g class="cls-7"><path class="cls-8" d="M12.6,5.28A5,5,0,0,1,11.08,3C10.35,1.19,9.93-.26,9,.18c0,0,.62,0,1.59,2.41C11.06,3.84,12,5.3,12.6,5.28Z"/></g></mask><radialGradient id="radial-gradient-18" cx="-941.87" cy="403.83" r="3.62" xlink:href="#radial-gradient-17"/><filter id="luminosity-noclip-19" x="5.84" y="7.1" width="3.59" height="8.64" filterUnits="userSpaceOnUse" color-interpolation-filters="sRGB"><feFlood flood-color="#fff" result="bg"/><feBlend in="SourceGraphic" in2="bg"/></filter><mask id="mask-19" x="5.84" y="7.1" width="3.59" height="8.64" maskUnits="userSpaceOnUse"><g class="cls-9"><path class="cls-10" d="M8.16,9.48a6.11,6.11,0,0,1,.17,1.68,3.55,3.55,0,0,1,0,.46A5.94,5.94,0,0,1,8,13.17a5.48,5.48,0,0,1-.72,1.36,3.94,3.94,0,0,1-1.39,1.2,2.94,2.94,0,0,0,2.58-1.36,4.66,4.66,0,0,0,.66-1.23,5.8,5.8,0,0,0,.32-1.41l0-.42a5.77,5.77,0,0,0-.16-1.52A3.27,3.27,0,0,0,6.72,7.1,4.4,4.4,0,0,1,8.16,9.48Z"/></g></mask><radialGradient id="radial-gradient-19" cx="-630.73" cy="937.26" r="6.42" gradientTransform="translate(-710.7 880.97) rotate(-174.22)" xlink:href="#radial-gradient-17"/><filter id="luminosity-noclip-20" x="6.97" y="0.58" width="1.01" height="6.26" filterUnits="userSpaceOnUse" color-interpolation-filters="sRGB"><feFlood flood-color="#fff" result="bg"/><feBlend in="SourceGraphic" in2="bg"/></filter><mask id="mask-20" x="6.97" y="0.58" width="1.01" height="6.26" maskUnits="userSpaceOnUse"><g class="cls-11"><path class="cls-12" d="M7.3,6.84a5,5,0,0,1,.13-2.75c.47-1.87,1-3.3,0-3.51,0,0,.49.39-.14,2.89C6.91,4.77,6.82,6.52,7.3,6.84Z"/></g></mask><radialGradient id="radial-gradient-20" cx="-627.84" cy="945.15" r="3.62" gradientTransform="translate(-710.7 880.97) rotate(-174.22)" xlink:href="#radial-gradient-17"/><radialGradient id="radial-gradient-21" cx="8.38" cy="2.69" r="1.26" gradientUnits="userSpaceOnUse"><stop offset="0.02" stop-color="#3f3f3f"/><stop offset="0.13" stop-color="#373737"/><stop offset="0.5" stop-color="#9f9f9f"/><stop offset="0.96" stop-color="#4d4d4d"/><stop offset="0.99" stop-color="#727272"/></radialGradient></defs><title>lab_26</title><g class="cls-21"><g id="Layer_2" data-name="Layer 2"><g id="бубен"><g id="lab_26"><path class="cls-22" d="M16.37,11.35A10.46,10.46,0,0,0,9.2,8.72,10.46,10.46,0,0,0,2,11.35H0v4.42c0,3.89,4.12,7.05,9.2,7.05s9.2-3.16,9.2-7V11.35Z"/><path class="cls-23" d="M18.4,12.36c0,3.89-4.12,7.05-9.2,7.05S0,16.25,0,12.36s4.12-7,9.2-7S18.4,8.46,18.4,12.36Z"/><path class="cls-24" d="M18.4,11.35c0,3.9-4.12,7-9.2,7S0,15.25,0,11.35s4.12-7,9.2-7S18.4,7.46,18.4,11.35Z"/><path class="cls-25" d="M16.09,10.29c0,2.92-3.08,5.28-6.89,5.28s-6.9-2.36-6.9-5.28S5.39,5,9.2,5,16.09,7.37,16.09,10.29Z"/><path class="cls-26" d="M1.42,17.46,4.08,19.4a1.47,1.47,0,0,1-2.19.25C1,18.93,1.42,17.46,1.42,17.46Z"/><path class="cls-26" d="M18.11,16,16,18.5s.92.91,2.09-.34A2.09,2.09,0,0,0,18.11,16Z"/><path class="cls-26" d="M6.37,19.92l3.15.45s0,1.91-1.7,1.66S6.37,19.92,6.37,19.92Z"/><path class="cls-26" d="M11.15,20.34l3.28-1a1.79,1.79,0,0,1-1.21,2.26C11.77,22.08,11.2,20.52,11.15,20.34Z"/><g class="cls-27"><path class="cls-28" d="M1.48,17.65l.86.57a1.33,1.33,0,0,0,.38,1.61C1.57,20,1.14,18.53,1.48,17.65Z"/></g><g class="cls-29"><path class="cls-30" d="M6.45,20.07l1.2.24s-.15,1.19.81,1.53A1.58,1.58,0,0,1,6.45,20.07Z"/></g><g class="cls-31"><path class="cls-32" d="M11.34,20.4,12.55,20s0,1.29,1.19,1A1.36,1.36,0,0,1,11.34,20.4Z"/></g><g class="cls-33"><path class="cls-34" d="M16.25,18.41l.71-.85a.74.74,0,0,0,1.09.3C17.66,18.93,16.41,18.78,16.25,18.41Z"/></g><g class="cls-35"><path class="cls-36" d="M17.27,10.88c0,3.51-3.71,6.35-8.28,6.35S.72,14.39.72,10.88,4.42,4.54,9,4.54,17.27,7.38,17.27,10.88Z"/></g><g class="cls-37"><path class="cls-38" d="M.31,15.14s4,7,11.83,7c-3.55.65-9.46.38-11.79-4.91C.31,15.81.31,15.14.31,15.14Z"/></g><path class="cls-39" d="M11.35,6.32a2.52,2.52,0,0,1,1.74-1,2.13,2.13,0,0,1-1.26-1C11.3,3.35,10.31.86,10.2.67S9.63-.3,8.89.13s-.31,1.16-.17,1.4,1.77,2.22,2.33,3.17A2,2,0,0,1,11.35,6.32Z"/><path class="cls-40" d="M16,6.31a3.45,3.45,0,0,0-3.9-.68,3.32,3.32,0,0,0-1.35,3.43A5.47,5.47,0,0,1,16,6.31Z"/><path class="cls-41" d="M17.1,7.52A5.8,5.8,0,0,0,16,6.31a5.47,5.47,0,0,0-5.25,2.75,5.71,5.71,0,0,0,.49,1.68,7,7,0,0,1,2.37-2.22A7.18,7.18,0,0,1,17.1,7.52Z"/><path class="cls-42" d="M18,9.3a6.4,6.4,0,0,0-.61-1.41,2.92,2.92,0,0,0-.24-.37,7.18,7.18,0,0,0-3.48,1,7,7,0,0,0-2.37,2.22c.08.19.18.37.28.56a6.72,6.72,0,0,0,.87,1.14A10.79,10.79,0,0,1,18,9.3Z"/><path class="cls-43" d="M18.16,10.76A5.42,5.42,0,0,0,18,9.3a10.79,10.79,0,0,0-5.55,3.14,5.25,5.25,0,0,0,1.39,1.05,8,8,0,0,0,2.21-.9A8.07,8.07,0,0,0,18.16,10.76Z"/><path class="cls-44" d="M16.76,13.56a3.11,3.11,0,0,0,1.4-2.8A8.07,8.07,0,0,1,16,12.59a8,8,0,0,1-2.21.9A3.05,3.05,0,0,0,16.76,13.56Z"/><g class="cls-45"><path class="cls-46" d="M14.85,6.9A6.27,6.27,0,0,1,16,8.16a3.73,3.73,0,0,1,.25.39A6.2,6.2,0,0,1,16.86,10a5.43,5.43,0,0,1,.22,1.52,4.14,4.14,0,0,1-.41,1.79A3,3,0,0,0,18,10.7a4.92,4.92,0,0,0-.2-1.39A6.06,6.06,0,0,0,17.18,8c-.07-.12-.15-.24-.23-.36a5.58,5.58,0,0,0-1-1.13,3.26,3.26,0,0,0-3.65-.67A4.38,4.38,0,0,1,14.85,6.9Z"/></g><g class="cls-47"><path class="cls-48" d="M12.6,5.28A5,5,0,0,1,11.08,3C10.35,1.19,9.93-.26,9,.18c0,0,.62,0,1.59,2.41C11.06,3.84,12,5.3,12.6,5.28Z"/></g><path class="cls-39" d="M5.68,7a2.35,2.35,0,0,1,1-.11,2.49,2.49,0,0,1,1,.31,2.12,2.12,0,0,1-.4-1.6c.1-1,.77-3.63.79-3.85S8.2.58,7.34.5s-.93.76-1,1,.12,2.83,0,3.93A2,2,0,0,1,5.68,7Z"/><path class="cls-40" d="M9.45,9.69A3.46,3.46,0,0,0,6.7,6.84a3.35,3.35,0,0,0-3.12,2,5.52,5.52,0,0,1,5.87.88Z"/><path class="cls-41" d="M9.62,11.31a6.55,6.55,0,0,0-.17-1.62,5.52,5.52,0,0,0-5.87-.88A6,6,0,0,0,3,10.46a7.12,7.12,0,0,1,3.23-.4A7.17,7.17,0,0,1,9.62,11.31Z"/><path class="cls-42" d="M9.25,13.24a6.36,6.36,0,0,0,.34-1.49l0-.44a7.17,7.17,0,0,0-3.41-1.25,7.12,7.12,0,0,0-3.23.4,6,6,0,0,0-.09.61,6.18,6.18,0,0,0,0,1.43,10.93,10.93,0,0,1,6.34.74Z"/><path class="cls-43" d="M8.55,14.55a5.27,5.27,0,0,0,.7-1.31,10.93,10.93,0,0,0-6.34-.74,5.1,5.1,0,0,0,.51,1.67,8.24,8.24,0,0,0,2.32.59A7.91,7.91,0,0,0,8.55,14.55Z"/><path class="cls-44" d="M5.78,16a3.13,3.13,0,0,0,2.77-1.44,7.91,7.91,0,0,1-2.81.21,8.24,8.24,0,0,1-2.32-.59A3.05,3.05,0,0,0,5.78,16Z"/><g class="cls-49"><path class="cls-50" d="M8.16,9.48a6.11,6.11,0,0,1,.17,1.68,3.55,3.55,0,0,1,0,.46A5.94,5.94,0,0,1,8,13.17a5.48,5.48,0,0,1-.72,1.36,3.94,3.94,0,0,1-1.39,1.2,2.94,2.94,0,0,0,2.58-1.36,4.66,4.66,0,0,0,.66-1.23,5.8,5.8,0,0,0,.32-1.41l0-.42a5.77,5.77,0,0,0-.16-1.52A3.27,3.27,0,0,0,6.72,7.1,4.4,4.4,0,0,1,8.16,9.48Z"/></g><g class="cls-51"><path class="cls-52" d="M7.3,6.84a5,5,0,0,1,.13-2.75c.47-1.87,1-3.3,0-3.51,0,0,.49.39-.14,2.89C6.91,4.77,6.82,6.52,7.3,6.84Z"/></g><circle class="cls-53" cx="8.38" cy="2.69" r="1.26"/></g></g></g></g></svg>