<svg xmlns="http://www.w3.org/2000/svg" viewBox="0 0 43.21 24.41"><defs><style>.cls-1{fill:#4a4e54;}.cls-1,.cls-2,.cls-3,.cls-5,.cls-6,.cls-7{fill-rule:evenodd;}.cls-2{fill:#ea580c;}.cls-3,.cls-4{fill:#93d1d9;}.cls-5{fill:#fff;}.cls-6{fill:#686c4c;}.cls-7{fill:#ea976c;}</style></defs><title>lab_20</title><g id="Layer_2" data-name="Layer 2"><g id="чертежные_инструменьы" data-name="чертежные инструменьы"><g id="lab_20"><path class="cls-1" d="M4.17,21l8.29-1.09c0-2-1.85-3.44-4.14-3.14A4.64,4.64,0,0,0,4.17,21Zm-3.85.51L.8,21.4c0-3.69,3.36-7.13,7.52-7.68s7.51,2,7.51,5.69l.48-.06a.26.26,0,0,1,.32.24v2a.35.35,0,0,1-.32.32L.32,24A.25.25,0,0,1,0,23.8v-2A.36.36,0,0,1,.32,21.46Z"/><path class="cls-2" d="M4.17,21l8.29-1.09c0-2-1.85-3.44-4.14-3.14A4.64,4.64,0,0,0,4.17,21Zm-3.85.51L.8,21.4c0-3.69,3.36-7.13,7.52-7.68s7.51,2,7.51,5.69l.48-.06a.26.26,0,0,1,.32.24v2a.35.35,0,0,1-.32.32L.32,24A.25.25,0,0,1,0,23.8v-2A.36.36,0,0,1,.32,21.46Z"/><polygon class="cls-3" points="16.02 21.97 16.02 20.34 16.08 20.34 16.08 21.96 16.02 21.97"/><polygon class="cls-3" points="14.47 22.18 14.47 20.55 14.53 20.54 14.53 22.17 14.47 22.18"/><polygon class="cls-3" points="12.92 22.38 12.92 20.75 12.98 20.74 12.98 22.37 12.92 22.38"/><polygon class="cls-3" points="11.38 22.59 11.38 20.96 11.43 20.95 11.43 22.58 11.38 22.59"/><polygon class="cls-3" points="9.83 22.79 9.83 21.16 9.88 21.15 9.88 22.78 9.83 22.79"/><polygon class="cls-3" points="8.28 22.99 8.28 21.36 8.33 21.36 8.33 22.99 8.28 22.99"/><polygon class="cls-3" points="6.73 23.2 6.73 21.57 6.78 21.56 6.78 23.19 6.73 23.2"/><polygon class="cls-3" points="5.18 23.4 5.18 21.77 5.23 21.77 5.23 23.4 5.18 23.4"/><polygon class="cls-3" points="3.63 23.61 3.63 21.98 3.68 21.97 3.68 23.6 3.63 23.61"/><polygon class="cls-3" points="2.08 23.81 2.08 22.18 2.13 22.18 2.13 23.8 2.08 23.81"/><polygon class="cls-3" points="0.53 24.02 0.53 22.39 0.59 22.38 0.59 24.01 0.53 24.02"/><polygon class="cls-3" points="16.02 21.97 16.02 21.14 16.08 21.14 16.08 21.96 16.02 21.97"/><polygon class="cls-3" points="15.87 21.99 15.87 21.16 15.92 21.16 15.92 21.98 15.87 21.99"/><polygon class="cls-3" points="15.71 22.01 15.71 21.18 15.77 21.18 15.77 22.01 15.71 22.01"/><polygon class="cls-3" points="15.56 22.03 15.56 21.21 15.61 21.2 15.61 22.03 15.56 22.03"/><polygon class="cls-3" points="15.4 22.05 15.4 21.23 15.46 21.22 15.46 22.05 15.4 22.05"/><polygon class="cls-3" points="15.25 22.07 15.25 21.02 15.3 21.01 15.3 22.07 15.25 22.07"/><polygon class="cls-3" points="15.09 22.09 15.09 21.27 15.15 21.26 15.15 22.09 15.09 22.09"/><polygon class="cls-3" points="14.94 22.11 14.94 21.29 14.99 21.28 14.99 22.11 14.94 22.11"/><polygon class="cls-3" points="14.78 22.14 14.78 21.31 14.84 21.3 14.84 22.13 14.78 22.14"/><polygon class="cls-3" points="14.63 22.16 14.63 21.33 14.68 21.32 14.68 22.15 14.63 22.16"/><polygon class="cls-3" points="2.08 23.81 2.08 22.98 2.13 22.98 2.13 23.8 2.08 23.81"/><polygon class="cls-3" points="1.93 23.83 1.93 23 1.98 23 1.98 23.82 1.93 23.83"/><polygon class="cls-3" points="1.77 23.85 1.77 23.02 1.82 23.02 1.82 23.85 1.77 23.85"/><polygon class="cls-3" points="1.61 23.87 1.61 23.05 1.67 23.04 1.67 23.87 1.61 23.87"/><polygon class="cls-3" points="1.46 23.89 1.46 23.07 1.51 23.06 1.51 23.89 1.46 23.89"/><polygon class="cls-3" points="1.3 23.91 1.3 22.86 1.36 22.85 1.36 23.91 1.3 23.91"/><polygon class="cls-3" points="1.15 23.93 1.15 23.11 1.21 23.1 1.21 23.93 1.15 23.93"/><polygon class="cls-3" points="0.99 23.95 0.99 23.13 1.05 23.12 1.05 23.95 0.99 23.95"/><polygon class="cls-3" points="0.84 23.98 0.84 23.15 0.9 23.14 0.9 23.97 0.84 23.98"/><polygon class="cls-3" points="0.69 24 0.69 23.17 0.74 23.16 0.74 23.99 0.69 24"/><polygon class="cls-3" points="3.47 23.63 3.47 22.8 3.53 22.79 3.53 23.62 3.47 23.63"/><polygon class="cls-3" points="3.32 23.65 3.32 22.82 3.37 22.81 3.37 23.64 3.32 23.65"/><polygon class="cls-3" points="3.16 23.67 3.16 22.84 3.22 22.83 3.22 23.66 3.16 23.67"/><polygon class="cls-3" points="3.01 23.69 3.01 22.86 3.06 22.85 3.06 23.68 3.01 23.69"/><polygon class="cls-3" points="2.85 23.71 2.85 22.66 2.91 22.65 2.91 23.7 2.85 23.71"/><polygon class="cls-3" points="2.7 23.73 2.7 22.9 2.75 22.89 2.75 23.72 2.7 23.73"/><polygon class="cls-3" points="2.54 23.75 2.54 22.92 2.6 22.92 2.6 23.74 2.54 23.75"/><polygon class="cls-3" points="2.39 23.77 2.39 22.94 2.44 22.94 2.44 23.76 2.39 23.77"/><polygon class="cls-3" points="2.23 23.79 2.23 22.96 2.29 22.96 2.29 23.79 2.23 23.79"/><polygon class="cls-3" points="5.02 23.42 5.02 22.6 5.08 22.59 5.08 23.42 5.02 23.42"/><polygon class="cls-3" points="4.87 23.44 4.87 22.62 4.92 22.61 4.92 23.44 4.87 23.44"/><polygon class="cls-3" points="4.71 23.46 4.71 22.64 4.77 22.63 4.77 23.46 4.71 23.46"/><polygon class="cls-3" points="4.56 23.48 4.56 22.66 4.61 22.65 4.61 23.48 4.56 23.48"/><polygon class="cls-3" points="4.4 23.51 4.4 22.45 4.46 22.45 4.46 23.5 4.4 23.51"/><polygon class="cls-3" points="4.25 23.53 4.25 22.7 4.3 22.69 4.3 23.52 4.25 23.53"/><polygon class="cls-3" points="4.09 23.55 4.09 22.72 4.15 22.71 4.15 23.54 4.09 23.55"/><polygon class="cls-3" points="3.94 23.57 3.94 22.74 3.99 22.73 3.99 23.56 3.94 23.57"/><polygon class="cls-3" points="3.78 23.59 3.78 22.76 3.84 22.75 3.84 23.58 3.78 23.59"/><polygon class="cls-3" points="6.57 23.22 6.57 22.39 6.63 22.38 6.63 23.21 6.57 23.22"/><polygon class="cls-3" points="6.42 23.24 6.42 22.41 6.47 22.41 6.47 23.23 6.42 23.24"/><polygon class="cls-3" points="6.26 23.26 6.26 22.43 6.32 22.43 6.32 23.25 6.26 23.26"/><polygon class="cls-3" points="6.11 23.28 6.11 22.45 6.16 22.45 6.16 23.27 6.11 23.28"/><polygon class="cls-3" points="5.95 23.3 5.95 22.25 6.01 22.24 6.01 23.29 5.95 23.3"/><polygon class="cls-3" points="5.8 23.32 5.8 22.49 5.85 22.49 5.85 23.31 5.8 23.32"/><polygon class="cls-3" points="5.64 23.34 5.64 22.51 5.7 22.51 5.7 23.34 5.64 23.34"/><polygon class="cls-3" points="5.49 23.36 5.49 22.54 5.54 22.53 5.54 23.36 5.49 23.36"/><polygon class="cls-3" points="5.33 23.38 5.33 22.55 5.39 22.55 5.39 23.38 5.33 23.38"/><polygon class="cls-3" points="8.12 23.02 8.12 22.19 8.18 22.18 8.18 23.01 8.12 23.02"/><polygon class="cls-3" points="7.97 23.04 7.97 22.21 8.02 22.2 8.02 23.03 7.97 23.04"/><polygon class="cls-3" points="7.81 23.06 7.81 22.23 7.87 22.22 7.87 23.05 7.81 23.06"/><polygon class="cls-3" points="7.66 23.08 7.66 22.25 7.71 22.24 7.71 23.07 7.66 23.08"/><polygon class="cls-3" points="7.5 23.1 7.5 22.04 7.56 22.04 7.56 23.09 7.5 23.1"/><polygon class="cls-3" points="7.35 23.12 7.35 22.29 7.4 22.28 7.4 23.11 7.35 23.12"/><polygon class="cls-3" points="7.19 23.14 7.19 22.31 7.25 22.3 7.25 23.13 7.19 23.14"/><polygon class="cls-3" points="7.04 23.16 7.04 22.33 7.09 22.32 7.09 23.15 7.04 23.16"/><polygon class="cls-3" points="6.88 23.18 6.88 22.35 6.94 22.34 6.94 23.17 6.88 23.18"/><polygon class="cls-3" points="9.67 22.81 9.67 21.98 9.73 21.98 9.73 22.8 9.67 22.81"/><polygon class="cls-3" points="9.52 22.83 9.52 22 9.57 22 9.57 22.82 9.52 22.83"/><polygon class="cls-3" points="9.36 22.85 9.36 22.02 9.42 22.02 9.42 22.84 9.36 22.85"/><polygon class="cls-3" points="9.21 22.87 9.21 22.04 9.26 22.04 9.26 22.86 9.21 22.87"/><polygon class="cls-3" points="9.05 22.89 9.05 21.84 9.11 21.83 9.11 22.89 9.05 22.89"/><polygon class="cls-3" points="8.9 22.91 8.9 22.09 8.95 22.08 8.95 22.91 8.9 22.91"/><polygon class="cls-3" points="8.74 22.93 8.74 22.11 8.8 22.1 8.8 22.93 8.74 22.93"/><polygon class="cls-3" points="8.59 22.95 8.59 22.13 8.64 22.12 8.64 22.95 8.59 22.95"/><polygon class="cls-3" points="8.43 22.97 8.43 22.15 8.49 22.14 8.49 22.97 8.43 22.97"/><polygon class="cls-3" points="11.22 22.61 11.22 21.78 11.28 21.77 11.28 22.6 11.22 22.61"/><polygon class="cls-3" points="11.06 22.63 11.06 21.8 11.12 21.79 11.12 22.62 11.06 22.63"/><polygon class="cls-3" points="10.91 22.65 10.91 21.82 10.97 21.81 10.97 22.64 10.91 22.65"/><polygon class="cls-3" points="10.76 22.67 10.76 21.84 10.81 21.83 10.81 22.66 10.76 22.67"/><polygon class="cls-3" points="10.6 22.69 10.6 21.63 10.66 21.63 10.66 22.68 10.6 22.69"/><polygon class="cls-3" points="10.45 22.71 10.45 21.88 10.5 21.87 10.5 22.7 10.45 22.71"/><polygon class="cls-3" points="10.29 22.73 10.29 21.9 10.35 21.89 10.35 22.72 10.29 22.73"/><polygon class="cls-3" points="10.14 22.75 10.14 21.92 10.19 21.91 10.19 22.74 10.14 22.75"/><polygon class="cls-3" points="9.98 22.77 9.98 21.94 10.04 21.93 10.04 22.76 9.98 22.77"/><polygon class="cls-3" points="12.77 22.4 12.77 21.57 12.82 21.57 12.82 22.39 12.77 22.4"/><polygon class="cls-3" points="12.62 22.42 12.62 21.59 12.67 21.59 12.67 22.41 12.62 22.42"/><polygon class="cls-3" points="12.46 22.44 12.46 21.61 12.52 21.61 12.52 22.43 12.46 22.44"/><polygon class="cls-3" points="12.3 22.46 12.3 21.64 12.36 21.63 12.36 22.45 12.3 22.46"/><polygon class="cls-3" points="12.15 22.48 12.15 21.43 12.21 21.42 12.21 22.48 12.15 22.48"/><polygon class="cls-3" points="11.99 22.5 11.99 21.68 12.05 21.67 12.05 22.5 11.99 22.5"/><polygon class="cls-3" points="11.84 22.52 11.84 21.7 11.89 21.69 11.89 22.52 11.84 22.52"/><polygon class="cls-3" points="11.69 22.55 11.69 21.72 11.74 21.71 11.74 22.54 11.69 22.55"/><polygon class="cls-3" points="11.53 22.57 11.53 21.74 11.59 21.73 11.59 22.56 11.53 22.57"/><polygon class="cls-3" points="14.32 22.2 14.32 21.37 14.37 21.36 14.37 22.19 14.32 22.2"/><polygon class="cls-3" points="14.16 22.22 14.16 21.39 14.22 21.38 14.22 22.21 14.16 22.22"/><polygon class="cls-3" points="14.01 22.24 14.01 21.41 14.06 21.4 14.06 22.23 14.01 22.24"/><polygon class="cls-3" points="13.85 22.26 13.85 21.43 13.91 21.42 13.91 22.25 13.85 22.26"/><polygon class="cls-3" points="13.7 22.28 13.7 21.23 13.75 21.22 13.75 22.27 13.7 22.28"/><polygon class="cls-3" points="13.54 22.3 13.54 21.47 13.6 21.46 13.6 22.29 13.54 22.3"/><polygon class="cls-3" points="13.39 22.32 13.39 21.49 13.44 21.48 13.44 22.31 13.39 22.32"/><polygon class="cls-3" points="13.23 22.34 13.23 21.51 13.29 21.5 13.29 22.33 13.23 22.34"/><polygon class="cls-3" points="13.08 22.36 13.08 21.53 13.13 21.52 13.13 22.35 13.08 22.36"/><polygon class="cls-3" points="16.06 19.81 16.01 19.81 16.01 20.15 16.06 20.14 16.14 20.09 16.13 20.06 16.06 20.1 16.06 20.1 16.06 19.81"/><path class="cls-3" d="M14.38,20v0l.17,0h0l0,0c-.08.08-.13.14-.13.2a.1.1,0,0,0,.12.09.23.23,0,0,0,.1-.05v0l-.08,0c-.06,0-.08,0-.08-.06s.05-.1.14-.2l0,0v0Z"/><path class="cls-3" d="M13,20.23a.15.15,0,0,0-.1,0c-.09,0-.14.06-.14.12a.08.08,0,0,0,.09.07h0a.1.1,0,0,0-.07.09s0,.08.11.07l.1,0,0,0a.11.11,0,0,1-.07,0c-.05,0-.07,0-.07,0s.05-.07.09-.07h0v0h0s-.1,0-.1-.05a.08.08,0,0,1,.08-.08H13Z"/><path class="cls-3" d="M11.58,20.53h0l-.09.12,0,.06h0v-.17Zm-.17-.11v.09h-.05v0h.05v.21h.05l.17-.24v0l-.17,0v-.1Z"/><path class="cls-3" d="M9.76,21l.18,0,0-.16H9.92c-.08,0-.11,0-.11-.06s0-.08.09-.09H10v0H9.9c-.09,0-.14.07-.14.14a.08.08,0,0,0,.05.08h.11v.09l-.15,0Z"/><path class="cls-3" d="M8.33,20.86a.07.07,0,0,1,.09.08v0a.08.08,0,0,1-.07.05c-.05,0-.08,0-.08-.06a.08.08,0,0,1,.07-.09Zm-.08.32h0a.31.31,0,0,0,.13-.06A.28.28,0,0,0,8.47,21c0-.09-.05-.14-.13-.13a.14.14,0,0,0-.13.14.09.09,0,0,0,.11.09.14.14,0,0,0,.1-.05h0a.18.18,0,0,1-.13.14h0Z"/><polygon class="cls-3" points="6.86 21.36 6.86 21.32 6.68 21.34 6.68 21.34 6.84 21.02 6.79 21.03 6.62 21.36 6.62 21.39 6.86 21.36"/><path class="cls-3" d="M5.2,21.55s-.07,0-.07-.05,0-.05.06-.06.07,0,.07,0a.06.06,0,0,1-.06.06Zm0-.28s.08,0,.07.05a.09.09,0,0,1-.06.08q-.09,0-.09-.06a.07.07,0,0,1,.08-.07Zm0,.14a.11.11,0,0,0,.08-.1s0-.09-.13-.08a.14.14,0,0,0-.13.12s0,.07.08.08h0a.1.1,0,0,0-.07.09s0,.07.11.06a.11.11,0,0,0,.12-.1.07.07,0,0,0-.06-.07Z"/><path class="cls-3" d="M3.62,21.76c-.06,0-.08,0-.08-.09v0a.16.16,0,0,1,.08,0,.06.06,0,0,1,.07.07.1.1,0,0,1-.07.09Zm.09-.33h0a.24.24,0,0,0-.11.06.22.22,0,0,0-.06.17c0,.08,0,.13.12.12a.14.14,0,0,0,.13-.13.09.09,0,0,0-.11-.09.11.11,0,0,0-.09.05h0a.16.16,0,0,1,0-.1.12.12,0,0,1,.08,0h0Z"/><polygon class="cls-3" points="2.26 21.63 2.21 21.64 2.21 21.97 2.26 21.97 2.34 21.92 2.33 21.88 2.27 21.92 2.26 21.92 2.26 21.63"/><polygon class="cls-3" points="0.67 21.84 0.62 21.84 0.62 22.18 0.66 22.18 0.75 22.13 0.74 22.09 0.67 22.13 0.67 22.13 0.67 21.84"/><polygon class="cls-3" points="0.48 21.86 0.43 21.87 0.43 22.21 0.48 22.2 0.56 22.15 0.55 22.12 0.48 22.16 0.48 22.16 0.48 21.86"/><path class="cls-3" d="M2,22c-.05,0-.07,0-.07-.13s0-.14.07-.15.08,0,.08.13S2,22,2,22Zm0,0c.08,0,.13-.08.13-.2s-.05-.16-.12-.15-.13.08-.13.19S1.91,22,2,22Z"/><polygon class="cls-3" points="8.28 20.79 8.28 20.41 8.33 20.41 8.33 20.78 8.28 20.79"/><polygon class="cls-3" points="1.71 21.28 0.8 21.4 0.8 21.35 1.71 21.23 1.71 21.28"/><polygon class="cls-3" points="4.17 20.96 3.25 21.08 3.25 21.03 4.17 20.91 4.17 20.96"/><polygon class="cls-3" points="4.23 20.31 3.33 20.29 3.33 20.24 4.24 20.26 4.23 20.31"/><polygon class="cls-3" points="4.42 19.67 3.55 19.5 3.57 19.45 4.43 19.62 4.42 19.67"/><polygon class="cls-3" points="4.72 19.05 3.92 18.74 3.95 18.7 4.75 19 4.72 19.05"/><polygon class="cls-3" points="5.13 18.47 4.43 18.04 4.46 17.99 5.17 18.42 5.13 18.47"/><polygon class="cls-3" points="5.64 17.94 5.05 17.4 5.09 17.36 5.68 17.91 5.64 17.94"/><polygon class="cls-3" points="6.23 17.5 5.77 16.85 5.82 16.82 6.28 17.46 6.23 17.5"/><polygon class="cls-3" points="6.88 17.14 6.57 16.41 6.62 16.39 6.93 17.11 6.88 17.14"/><polygon class="cls-3" points="7.58 16.88 7.42 16.09 7.47 16.08 7.63 16.86 7.58 16.88"/><polygon class="cls-3" points="8.3 16.72 8.3 15.91 8.35 15.9 8.35 16.72 8.3 16.72"/><polygon class="cls-3" points="9.02 16.68 9.18 15.86 9.23 15.86 9.07 16.68 9.02 16.68"/><polygon class="cls-3" points="9.72 16.75 10.03 15.94 10.08 15.95 9.77 16.76 9.72 16.75"/><polygon class="cls-3" points="10.38 16.93 10.83 16.17 10.88 16.19 10.42 16.95 10.38 16.93"/><polygon class="cls-3" points="10.97 17.23 11.56 16.52 11.6 16.55 11.01 17.25 10.97 17.23"/><polygon class="cls-3" points="11.48 17.61 12.19 16.99 12.22 17.03 11.52 17.64 11.48 17.61"/><polygon class="cls-3" points="11.9 18.08 12.7 17.57 12.72 17.61 11.93 18.12 11.9 18.08"/><polygon class="cls-3" points="12.21 18.62 13.07 18.23 13.09 18.27 12.23 18.67 12.21 18.62"/><polygon class="cls-3" points="12.4 19.22 13.3 18.96 13.31 19.01 12.41 19.27 12.4 19.22"/><polygon class="cls-3" points="12.46 19.84 13.38 19.71 13.38 19.76 12.46 19.88 12.46 19.84"/><polygon class="cls-3" points="1.15 21.35 0.8 21.4 0.8 21.39 1.15 21.34 1.15 21.35"/><polygon class="cls-3" points="1.15 21.24 0.8 21.28 0.8 21.27 1.15 21.23 1.15 21.24"/><polygon class="cls-3" points="1.16 21.13 0.8 21.17 0.8 21.15 1.16 21.12 1.16 21.13"/><polygon class="cls-3" points="1.16 21.02 0.81 21.05 0.81 21.04 1.16 21.01 1.16 21.02"/><polygon class="cls-3" points="1.17 20.91 0.81 20.93 0.82 20.92 1.17 20.89 1.17 20.91"/><polygon class="cls-3" points="1.18 20.8 0.82 20.81 0.83 20.8 1.18 20.78 1.18 20.8"/><polygon class="cls-3" points="1.19 20.68 0.84 20.7 0.84 20.68 1.19 20.67 1.19 20.68"/><polygon class="cls-3" points="1.2 20.57 0.85 20.58 0.85 20.57 1.21 20.56 1.2 20.57"/><polygon class="cls-3" points="1.22 20.46 0.87 20.46 0.87 20.45 1.22 20.45 1.22 20.46"/><polygon class="cls-3" points="1.24 20.35 0.89 20.34 0.89 20.33 1.24 20.33 1.24 20.35"/><polygon class="cls-3" points="1.26 20.23 0.91 20.23 0.91 20.21 1.26 20.22 1.26 20.23"/><polygon class="cls-3" points="1.28 20.12 0.93 20.11 0.94 20.09 1.28 20.11 1.28 20.12"/><polygon class="cls-3" points="1.31 20.01 0.96 19.99 0.96 19.98 1.31 20 1.31 20.01"/><polygon class="cls-3" points="1.33 19.9 0.99 19.87 0.99 19.86 1.34 19.89 1.33 19.9"/><polygon class="cls-3" points="1.36 19.79 1.02 19.75 1.02 19.74 1.37 19.77 1.36 19.79"/><polygon class="cls-3" points="1.39 19.67 1.05 19.64 1.06 19.63 1.4 19.66 1.39 19.67"/><polygon class="cls-3" points="1.43 19.56 1.09 19.52 1.09 19.51 1.43 19.55 1.43 19.56"/><polygon class="cls-3" points="1.46 19.45 1.13 19.4 1.13 19.39 1.47 19.44 1.46 19.45"/><polygon class="cls-3" points="1.5 19.34 1.16 19.29 1.17 19.28 1.5 19.33 1.5 19.34"/><polygon class="cls-3" points="1.54 19.23 1.21 19.17 1.21 19.16 1.54 19.22 1.54 19.23"/><polygon class="cls-3" points="1.58 19.12 1.25 19.06 1.25 19.04 1.59 19.11 1.58 19.12"/><polygon class="cls-3" points="1.63 19.01 1.29 18.94 1.3 18.93 1.63 19 1.63 19.01"/><polygon class="cls-3" points="1.67 18.9 1.34 18.83 1.35 18.81 1.68 18.89 1.67 18.9"/><polygon class="cls-3" points="1.72 18.79 1.39 18.71 1.4 18.7 1.72 18.78 1.72 18.79"/><polygon class="cls-3" points="1.77 18.68 1.45 18.6 1.45 18.59 1.77 18.67 1.77 18.68"/><polygon class="cls-3" points="1.82 18.58 1.5 18.48 1.51 18.47 1.83 18.56 1.82 18.58"/><polygon class="cls-3" points="1.87 18.47 1.56 18.37 1.56 18.36 1.88 18.46 1.87 18.47"/><polygon class="cls-3" points="1.93 18.36 1.61 18.26 1.62 18.25 1.94 18.35 1.93 18.36"/><polygon class="cls-3" points="1.99 18.26 1.68 18.15 1.68 18.14 1.99 18.24 1.99 18.26"/><polygon class="cls-3" points="2.05 18.15 1.74 18.04 1.74 18.03 2.05 18.14 2.05 18.15"/><polygon class="cls-3" points="2.11 18.05 1.8 17.93 1.81 17.92 2.12 18.03 2.11 18.05"/><polygon class="cls-3" points="2.17 17.94 1.87 17.82 1.88 17.81 2.18 17.93 2.17 17.94"/><polygon class="cls-3" points="2.24 17.84 1.94 17.71 1.95 17.7 2.25 17.83 2.24 17.84"/><polygon class="cls-3" points="2.3 17.74 2.01 17.6 2.02 17.59 2.31 17.73 2.3 17.74"/><polygon class="cls-3" points="2.37 17.63 2.08 17.5 2.09 17.49 2.38 17.62 2.37 17.63"/><polygon class="cls-3" points="2.44 17.53 2.15 17.39 2.16 17.38 2.45 17.52 2.44 17.53"/><polygon class="cls-3" points="2.52 17.43 2.23 17.29 2.24 17.27 2.52 17.42 2.52 17.43"/><polygon class="cls-3" points="2.59 17.33 2.31 17.18 2.32 17.17 2.6 17.32 2.59 17.33"/><polygon class="cls-3" points="2.67 17.24 2.39 17.08 2.4 17.07 2.67 17.23 2.67 17.24"/><polygon class="cls-3" points="2.75 17.14 2.47 16.98 2.48 16.97 2.75 17.13 2.75 17.14"/><polygon class="cls-3" points="2.82 17.04 2.55 16.88 2.56 16.87 2.83 17.03 2.82 17.04"/><polygon class="cls-3" points="2.9 16.95 2.64 16.78 2.65 16.77 2.91 16.94 2.9 16.95"/><polygon class="cls-3" points="2.99 16.85 2.73 16.68 2.73 16.67 3 16.84 2.99 16.85"/><polygon class="cls-3" points="3.07 16.76 2.81 16.58 2.82 16.57 3.08 16.75 3.07 16.76"/><polygon class="cls-3" points="3.16 16.67 2.9 16.48 2.91 16.47 3.17 16.66 3.16 16.67"/><polygon class="cls-3" points="3.25 16.58 3 16.39 3 16.38 3.25 16.57 3.25 16.58"/><polygon class="cls-3" points="3.33 16.49 3.09 16.3 3.1 16.29 3.35 16.48 3.33 16.49"/><polygon class="cls-3" points="3.42 16.4 3.18 16.2 3.19 16.19 3.44 16.39 3.42 16.4"/><polygon class="cls-3" points="3.52 16.31 3.28 16.11 3.29 16.1 3.53 16.3 3.52 16.31"/><polygon class="cls-3" points="3.61 16.23 3.38 16.02 3.39 16.01 3.62 16.22 3.61 16.23"/><polygon class="cls-3" points="3.71 16.14 3.48 15.93 3.49 15.92 3.72 16.13 3.71 16.14"/><polygon class="cls-3" points="3.8 16.06 3.58 15.84 3.59 15.84 3.81 16.05 3.8 16.06"/><polygon class="cls-3" points="3.9 15.98 3.68 15.76 3.69 15.75 3.91 15.97 3.9 15.98"/><polygon class="cls-3" points="4 15.9 3.79 15.67 3.8 15.66 4.01 15.89 4 15.9"/><polygon class="cls-3" points="4.1 15.82 3.89 15.59 3.9 15.58 4.11 15.81 4.1 15.82"/><polygon class="cls-3" points="4.2 15.74 4 15.51 4.01 15.5 4.21 15.73 4.2 15.74"/><polygon class="cls-3" points="4.3 15.66 4.11 15.43 4.12 15.42 4.32 15.65 4.3 15.66"/><polygon class="cls-3" points="4.41 15.59 4.21 15.35 4.23 15.34 4.42 15.58 4.41 15.59"/><polygon class="cls-3" points="4.51 15.51 4.33 15.27 4.34 15.26 4.53 15.51 4.51 15.51"/><polygon class="cls-3" points="4.62 15.44 4.44 15.2 4.45 15.19 4.63 15.44 4.62 15.44"/><polygon class="cls-3" points="4.73 15.37 4.55 15.12 4.56 15.12 4.74 15.36 4.73 15.37"/><polygon class="cls-3" points="4.84 15.3 4.66 15.05 4.68 15.04 4.85 15.29 4.84 15.3"/><polygon class="cls-3" points="4.95 15.23 4.78 14.98 4.79 14.97 4.96 15.23 4.95 15.23"/><polygon class="cls-3" points="5.06 15.17 4.9 14.91 4.91 14.9 5.07 15.16 5.06 15.17"/><polygon class="cls-3" points="5.17 15.11 5.01 14.84 5.03 14.84 5.18 15.1 5.17 15.11"/><polygon class="cls-3" points="5.28 15.04 5.13 14.78 5.14 14.77 5.29 15.04 5.28 15.04"/><polygon class="cls-3" points="5.39 14.98 5.25 14.71 5.26 14.71 5.41 14.97 5.39 14.98"/><rect class="cls-4" x="5.44" y="14.63" width="0.01" height="0.3" transform="translate(-6.11 4.08) rotate(-26.97)"/><polygon class="cls-3" points="5.62 14.86 5.49 14.59 5.5 14.58 5.64 14.86 5.62 14.86"/><polygon class="cls-3" points="5.74 14.81 5.61 14.53 5.63 14.53 5.75 14.8 5.74 14.81"/><polygon class="cls-3" points="5.86 14.75 5.74 14.47 5.75 14.47 5.87 14.75 5.86 14.75"/><polygon class="cls-3" points="5.97 14.7 5.86 14.42 5.87 14.41 5.99 14.7 5.97 14.7"/><polygon class="cls-3" points="6.09 14.65 5.98 14.37 6 14.36 6.11 14.64 6.09 14.65"/><polygon class="cls-3" points="6.21 14.6 6.11 14.31 6.12 14.31 6.23 14.6 6.21 14.6"/><polygon class="cls-3" points="6.33 14.55 6.24 14.27 6.25 14.26 6.35 14.55 6.33 14.55"/><polygon class="cls-3" points="6.45 14.51 6.36 14.22 6.37 14.21 6.47 14.5 6.45 14.51"/><polygon class="cls-3" points="6.57 14.46 6.49 14.17 6.5 14.17 6.59 14.46 6.57 14.46"/><polygon class="cls-3" points="6.7 14.42 6.62 14.13 6.63 14.12 6.71 14.42 6.7 14.42"/><polygon class="cls-3" points="6.82 14.38 6.74 14.09 6.76 14.08 6.83 14.38 6.82 14.38"/><polygon class="cls-3" points="6.94 14.35 6.87 14.04 6.88 14.04 6.95 14.34 6.94 14.35"/><polygon class="cls-3" points="7.06 14.31 7 14.01 7.01 14 7.08 14.3 7.06 14.31"/><polygon class="cls-3" points="7.18 14.27 7.13 13.97 7.14 13.97 7.2 14.27 7.18 14.27"/><polygon class="cls-3" points="7.31 14.24 7.26 13.94 7.27 13.93 7.32 14.24 7.31 14.24"/><polygon class="cls-3" points="7.43 14.21 7.39 13.9 7.4 13.9 7.45 14.21 7.43 14.21"/><polygon class="cls-3" points="7.56 14.18 7.52 13.87 7.53 13.87 7.57 14.18 7.56 14.18"/><polygon class="cls-3" points="7.68 14.15 7.65 13.85 7.66 13.84 7.7 14.15 7.68 14.15"/><polygon class="cls-3" points="7.8 14.13 7.78 13.82 7.79 13.82 7.82 14.13 7.8 14.13"/><polygon class="cls-3" points="7.93 14.11 7.91 13.79 7.92 13.79 7.94 14.1 7.93 14.11"/><polygon class="cls-3" points="8.05 14.09 8.04 13.77 8.06 13.77 8.07 14.08 8.05 14.09"/><polygon class="cls-3" points="8.18 14.06 8.17 13.75 8.19 13.75 8.19 14.06 8.18 14.06"/><polygon class="cls-3" points="8.3 14.05 8.3 13.73 8.32 13.73 8.32 14.05 8.3 14.05"/><polygon class="cls-3" points="8.43 14.03 8.44 13.72 8.45 13.71 8.44 14.03 8.43 14.03"/><polygon class="cls-3" points="8.55 14.02 8.57 13.7 8.58 13.7 8.57 14.02 8.55 14.02"/><polygon class="cls-3" points="8.68 14.01 8.7 13.69 8.71 13.69 8.69 14.01 8.68 14.01"/><polygon class="cls-3" points="8.8 14 8.83 13.68 8.84 13.68 8.82 14 8.8 14"/><polygon class="cls-3" points="8.93 13.99 8.96 13.67 8.97 13.67 8.94 13.99 8.93 13.99"/><polygon class="cls-3" points="9.05 13.98 9.09 13.67 9.1 13.66 9.07 13.98 9.05 13.98"/><polygon class="cls-3" points="9.18 13.98 9.22 13.66 9.23 13.66 9.19 13.98 9.18 13.98"/><polygon class="cls-3" points="9.3 13.98 9.35 13.66 9.36 13.66 9.31 13.98 9.3 13.98"/><polygon class="cls-3" points="9.42 13.98 9.48 13.66 9.49 13.66 9.44 13.98 9.42 13.98"/><polygon class="cls-3" points="9.55 13.98 9.61 13.66 9.62 13.66 9.56 13.98 9.55 13.98"/><polygon class="cls-3" points="9.67 13.98 9.74 13.67 9.75 13.67 9.68 13.98 9.67 13.98"/><polygon class="cls-3" points="9.79 13.99 9.87 13.67 9.88 13.67 9.8 13.99 9.79 13.99"/><polygon class="cls-3" points="9.91 14 9.99 13.68 10.01 13.68 9.93 14 9.91 14"/><polygon class="cls-3" points="10.04 14.01 10.12 13.69 10.13 13.69 10.05 14.01 10.04 14.01"/><polygon class="cls-3" points="10.16 14.02 10.25 13.7 10.26 13.71 10.17 14.02 10.16 14.02"/><polygon class="cls-3" points="10.28 14.03 10.37 13.72 10.39 13.72 10.29 14.04 10.28 14.03"/><polygon class="cls-3" points="10.4 14.05 10.5 13.73 10.51 13.74 10.41 14.05 10.4 14.05"/><polygon class="cls-3" points="10.52 14.07 10.62 13.75 10.64 13.76 10.53 14.07 10.52 14.07"/><polygon class="cls-3" points="10.63 14.09 10.75 13.77 10.76 13.78 10.65 14.09 10.63 14.09"/><polygon class="cls-3" points="10.75 14.11 10.87 13.8 10.88 13.8 10.76 14.11 10.75 14.11"/><polygon class="cls-3" points="10.87 14.13 10.99 13.82 11.01 13.82 10.88 14.13 10.87 14.13"/><polygon class="cls-3" points="10.98 14.16 11.12 13.85 11.13 13.85 11 14.16 10.98 14.16"/><polygon class="cls-3" points="11.1 14.18 11.24 13.88 11.25 13.88 11.11 14.19 11.1 14.18"/><polygon class="cls-3" points="11.21 14.21 11.36 13.91 11.37 13.91 11.23 14.22 11.21 14.21"/><polygon class="cls-3" points="11.33 14.24 11.48 13.94 11.49 13.94 11.34 14.25 11.33 14.24"/><polygon class="cls-3" points="11.44 14.28 11.6 13.97 11.61 13.98 11.45 14.28 11.44 14.28"/><polygon class="cls-3" points="11.55 14.31 11.71 14.01 11.72 14.02 11.56 14.32 11.55 14.31"/><polygon class="cls-3" points="11.66 14.35 11.83 14.05 11.84 14.05 11.68 14.35 11.66 14.35"/><polygon class="cls-3" points="11.77 14.39 11.94 14.09 11.96 14.09 11.79 14.39 11.77 14.39"/><polygon class="cls-3" points="11.88 14.43 12.06 14.13 12.07 14.14 11.89 14.43 11.88 14.43"/><polygon class="cls-3" points="11.99 14.47 12.17 14.18 12.18 14.18 12 14.47 11.99 14.47"/><polygon class="cls-3" points="12.1 14.51 12.28 14.22 12.29 14.23 12.11 14.52 12.1 14.51"/><polygon class="cls-3" points="12.2 14.56 12.39 14.27 12.4 14.28 12.21 14.56 12.2 14.56"/><polygon class="cls-3" points="12.3 14.61 12.5 14.32 12.51 14.32 12.32 14.61 12.3 14.61"/><polygon class="cls-3" points="12.41 14.66 12.61 14.37 12.62 14.38 12.42 14.66 12.41 14.66"/><polygon class="cls-3" points="12.51 14.71 12.72 14.43 12.73 14.43 12.52 14.71 12.51 14.71"/><polygon class="cls-3" points="12.61 14.76 12.82 14.48 12.83 14.49 12.62 14.77 12.61 14.76"/><polygon class="cls-3" points="12.71 14.81 12.93 14.54 12.94 14.54 12.72 14.82 12.71 14.81"/><polygon class="cls-3" points="12.81 14.87 13.03 14.6 13.04 14.6 12.82 14.88 12.81 14.87"/><polygon class="cls-3" points="12.9 14.93 13.13 14.66 13.14 14.66 12.91 14.94 12.9 14.93"/><polygon class="cls-3" points="13 14.99 13.23 14.72 13.24 14.73 13.01 14.99 13 14.99"/><polygon class="cls-3" points="13.09 15.05 13.33 14.79 13.34 14.79 13.1 15.06 13.09 15.05"/><polygon class="cls-3" points="13.18 15.11 13.42 14.85 13.44 14.86 13.19 15.12 13.18 15.11"/><polygon class="cls-3" points="13.27 15.18 13.52 14.92 13.53 14.93 13.28 15.18 13.27 15.18"/><polygon class="cls-3" points="13.36 15.24 13.61 14.99 13.62 14.99 13.37 15.25 13.36 15.24"/><polygon class="cls-3" points="13.45 15.31 13.71 15.06 13.71 15.07 13.46 15.32 13.45 15.31"/><polygon class="cls-3" points="13.54 15.38 13.79 15.13 13.8 15.14 13.55 15.39 13.54 15.38"/><polygon class="cls-3" points="13.62 15.45 13.88 15.21 13.89 15.21 13.63 15.46 13.62 15.45"/><polygon class="cls-3" points="13.7 15.52 13.97 15.28 13.98 15.29 13.71 15.53 13.7 15.52"/><polygon class="cls-3" points="13.79 15.6 14.05 15.36 14.06 15.37 13.79 15.61 13.79 15.6"/><polygon class="cls-3" points="13.86 15.67 14.14 15.44 14.15 15.45 13.87 15.68 13.86 15.67"/><polygon class="cls-3" points="13.94 15.75 14.22 15.52 14.23 15.53 13.95 15.76 13.94 15.75"/><polygon class="cls-3" points="14.02 15.83 14.3 15.6 14.31 15.61 14.03 15.84 14.02 15.83"/><polygon class="cls-3" points="14.09 15.91 14.38 15.68 14.39 15.69 14.1 15.91 14.09 15.91"/><polygon class="cls-3" points="14.16 15.99 14.45 15.77 14.46 15.78 14.17 16 14.16 15.99"/><polygon class="cls-3" points="14.23 16.07 14.53 15.85 14.54 15.86 14.24 16.08 14.23 16.07"/><polygon class="cls-3" points="14.3 16.15 14.6 15.94 14.61 15.95 14.31 16.16 14.3 16.15"/><polygon class="cls-3" points="14.37 16.24 14.67 16.03 14.68 16.04 14.38 16.25 14.37 16.24"/><polygon class="cls-3" points="14.44 16.32 14.74 16.12 14.75 16.13 14.44 16.33 14.44 16.32"/><polygon class="cls-3" points="14.5 16.41 14.81 16.21 14.81 16.22 14.51 16.42 14.5 16.41"/><polygon class="cls-3" points="14.56 16.5 14.87 16.3 14.88 16.32 14.57 16.51 14.56 16.5"/><polygon class="cls-3" points="14.62 16.59 14.93 16.4 14.94 16.41 14.63 16.6 14.62 16.59"/><polygon class="cls-3" points="14.68 16.68 14.99 16.5 15 16.5 14.69 16.69 14.68 16.68"/><polygon class="cls-3" points="14.73 16.77 15.05 16.59 15.06 16.6 14.74 16.78 14.73 16.77"/><polygon class="cls-3" points="14.79 16.86 15.11 16.69 15.12 16.7 14.79 16.88 14.79 16.86"/><polygon class="cls-3" points="14.84 16.96 15.16 16.79 15.17 16.8 14.85 16.97 14.84 16.96"/><polygon class="cls-3" points="14.89 17.05 15.21 16.89 15.22 16.9 14.89 17.06 14.89 17.05"/><polygon class="cls-3" points="14.94 17.15 15.27 16.99 15.27 17 14.94 17.16 14.94 17.15"/><polygon class="cls-3" points="14.98 17.25 15.31 17.09 15.32 17.1 14.99 17.26 14.98 17.25"/><polygon class="cls-3" points="15.03 17.35 15.36 17.19 15.36 17.2 15.03 17.36 15.03 17.35"/><polygon class="cls-3" points="15.07 17.45 15.4 17.3 15.41 17.31 15.07 17.46 15.07 17.45"/><polygon class="cls-3" points="15.11 17.55 15.44 17.4 15.45 17.41 15.11 17.56 15.11 17.55"/><polygon class="cls-3" points="15.14 17.65 15.48 17.51 15.49 17.52 15.15 17.66 15.14 17.65"/><polygon class="cls-3" points="15.18 17.75 15.52 17.62 15.53 17.63 15.19 17.76 15.18 17.75"/><polygon class="cls-3" points="15.21 17.85 15.56 17.72 15.56 17.73 15.22 17.86 15.21 17.85"/><polygon class="cls-3" points="15.25 17.95 15.59 17.83 15.59 17.84 15.25 17.96 15.25 17.95"/><polygon class="cls-3" points="15.28 18.06 15.62 17.94 15.62 17.95 15.28 18.07 15.28 18.06"/><polygon class="cls-3" points="15.3 18.16 15.65 18.05 15.65 18.06 15.3 18.17 15.3 18.16"/><polygon class="cls-3" points="15.33 18.27 15.67 18.16 15.68 18.17 15.33 18.28 15.33 18.27"/><polygon class="cls-3" points="15.35 18.37 15.7 18.27 15.7 18.29 15.35 18.39 15.35 18.37"/><polygon class="cls-3" points="15.37 18.48 15.72 18.39 15.72 18.4 15.37 18.49 15.37 18.48"/><polygon class="cls-3" points="15.39 18.59 15.74 18.5 15.74 18.51 15.39 18.6 15.39 18.59"/><polygon class="cls-3" points="15.4 18.7 15.76 18.61 15.76 18.62 15.41 18.71 15.4 18.7"/><polygon class="cls-3" points="15.42 18.8 15.77 18.73 15.77 18.74 15.42 18.82 15.42 18.8"/><polygon class="cls-3" points="15.43 18.91 15.78 18.84 15.79 18.85 15.43 18.93 15.43 18.91"/><polygon class="cls-3" points="15.44 19.02 15.79 18.95 15.79 18.97 15.44 19.04 15.44 19.02"/><polygon class="cls-3" points="15.45 19.13 15.8 19.07 15.8 19.08 15.45 19.14 15.45 19.13"/><polygon class="cls-3" points="15.45 19.24 15.81 19.18 15.81 19.2 15.45 19.25 15.45 19.24"/><polygon class="cls-3" points="15.46 19.35 15.81 19.3 15.81 19.31 15.46 19.37 15.46 19.35"/><polygon class="cls-3" points="15.46 19.46 15.81 19.42 15.81 19.43 15.46 19.48 15.46 19.46"/><polygon class="cls-3" points="1.81 20.25 0.91 20.23 0.92 20.18 1.82 20.2 1.81 20.25"/><polygon class="cls-3" points="2.11 19.22 1.25 19.06 1.27 19.01 2.13 19.17 2.11 19.22"/><polygon class="cls-3" points="2.6 18.23 1.8 17.93 1.83 17.88 2.62 18.19 2.6 18.23"/><polygon class="cls-3" points="3.26 17.31 2.55 16.88 2.59 16.83 3.29 17.27 3.26 17.31"/><polygon class="cls-3" points="4.07 16.48 3.48 15.93 3.52 15.89 4.11 16.44 4.07 16.48"/><polygon class="cls-3" points="5.01 15.77 4.55 15.12 4.6 15.09 5.06 15.74 5.01 15.77"/><polygon class="cls-3" points="6.05 15.2 5.74 14.47 5.79 14.45 6.1 15.18 6.05 15.2"/><polygon class="cls-3" points="7.16 14.79 7 14.01 7.05 13.99 7.21 14.77 7.16 14.79"/><polygon class="cls-3" points="8.3 14.55 8.3 13.73 8.36 13.73 8.36 14.54 8.3 14.55"/><polygon class="cls-3" points="9.45 14.49 9.61 13.66 9.66 13.66 9.5 14.49 9.45 14.49"/><polygon class="cls-3" points="10.56 14.61 10.87 13.8 10.92 13.81 10.61 14.62 10.56 14.61"/><polygon class="cls-3" points="11.6 14.9 12.06 14.13 12.11 14.15 11.65 14.92 11.6 14.9"/><polygon class="cls-3" points="12.54 15.36 13.13 14.66 13.17 14.68 12.58 15.39 12.54 15.36"/><polygon class="cls-3" points="13.35 15.97 14.05 15.36 14.09 15.39 13.39 16.01 13.35 15.97"/><polygon class="cls-3" points="14.01 16.73 14.81 16.21 14.83 16.25 14.04 16.76 14.01 16.73"/><polygon class="cls-3" points="14.5 17.59 15.36 17.19 15.38 17.24 14.52 17.63 14.5 17.59"/><polygon class="cls-3" points="14.79 18.53 15.7 18.27 15.71 18.32 14.8 18.58 14.79 18.53"/><polygon class="cls-3" points="14.89 19.54 15.81 19.42 15.81 19.47 14.89 19.59 14.89 19.54"/><path class="cls-3" d="M8.55,14.72c.08,0,.12.07.12.2s0,.23-.12.24-.12-.07-.12-.2.05-.23.12-.24Zm0-.06c-.12,0-.2.13-.2.31s.08.26.19.24.21-.12.21-.31-.07-.26-.2-.24Zm-.48.12c.09,0,.13.05.13.14s0,0,0,0a.13.13,0,0,1-.12.07A.09.09,0,0,1,8,14.93a.14.14,0,0,1,.11-.15Zm-.14.51H8a.51.51,0,0,0,.18-.09.37.37,0,0,0,.1-.27.18.18,0,0,0-.2-.2.23.23,0,0,0-.2.22.14.14,0,0,0,.17.14A.28.28,0,0,0,8.2,15h0a.27.27,0,0,1-.08.16.26.26,0,0,1-.13.06H7.93Z"/><path class="cls-3" d="M1.84,21.24s.06-.07.15-.09.15,0,.15.05-.06.07-.15.08-.15,0-.15,0Zm0,0c0,.06.07.1.19.09s.18-.07.18-.13-.06-.11-.19-.09S1.8,21.17,1.8,21.24Z"/><polygon class="cls-3" points="2.25 20.38 2.26 20.34 1.91 20.33 1.9 20.37 1.93 20.44 1.97 20.43 1.94 20.38 1.94 20.38 2.25 20.38"/><path class="cls-3" d="M2,20.16s.07-.06.16-.06.14,0,.13.07-.06.06-.16.06S2,20.2,2,20.16Zm0,0c0,.06.05.11.17.11a.18.18,0,0,0,.2-.1c0-.07,0-.11-.17-.11S2,20.09,1.93,20.16Z"/><path class="cls-3" d="M2.54,19.38h0l0,.14h0l0,0c0-.08-.07-.13-.13-.14a.12.12,0,0,0-.14.08.14.14,0,0,0,0,.09h0a.06.06,0,0,1,0-.07s0-.05.09-.05.07.06.13.15l0,0h0Z"/><path class="cls-3" d="M2.29,19.19c0-.05.08-.05.16,0s.13.05.11.09-.07.06-.16,0-.13-.05-.11-.09Zm0,0c0,.06,0,.12.14.14s.18,0,.21-.07,0-.12-.14-.14S2.28,19.11,2.25,19.18Z"/><path class="cls-3" d="M2.87,18.64a.46.46,0,0,0,.07-.07c0-.08,0-.13,0-.15a.11.11,0,0,0-.12,0h0a.08.08,0,0,0,0-.09.12.12,0,0,0-.13.06.16.16,0,0,0,0,.09h0a.2.2,0,0,1,0-.07s.06,0,.08,0,0,.06,0,.08v0h0v0s.07-.07.11-.06.05,0,0,.09a.17.17,0,0,1-.06.06Z"/><path class="cls-3" d="M2.79,18.22s.09,0,.16,0,.12.06.1.1-.09.05-.17,0-.11-.08-.09-.11Zm0,0c0,.06,0,.13.1.17a.17.17,0,0,0,.22,0c0-.07,0-.13-.1-.17S2.8,18.14,2.76,18.2Z"/><path class="cls-3" d="M3.37,17.62h0l0-.12s0,0,0-.05h0l0,0,.09.05-.08.09Zm.21-.06-.07,0,0,0,0,0,0,0-.17-.1,0,0,.08.22,0,0,.11-.13.07.05Z"/><path class="cls-3" d="M3.45,17.27s.09,0,.16,0,.09.09.06.13-.08,0-.15,0-.1-.1-.07-.13Zm0,0c0,.06,0,.13.06.18a.16.16,0,0,0,.22,0c0-.06,0-.13-.06-.18S3.47,17.19,3.42,17.25Z"/><path class="cls-3" d="M4.09,16.64,4,16.75l.1.12,0,0c.06-.05.1-.05.13,0a.08.08,0,0,1,0,.11l-.07,0v0a.25.25,0,0,0,.08,0c.06-.05.07-.12,0-.16a.1.1,0,0,0-.1,0l-.07,0,0,0,0-.06.1-.1Z"/><path class="cls-3" d="M4.22,16.56s.09,0,.15,0,.08.11,0,.14-.09,0-.15,0-.07-.11,0-.13Zm0,0s0,.12,0,.2.16.07.21,0,.05-.12,0-.19S4.26,16.48,4.2,16.53Z"/><path class="cls-3" d="M5.16,16.16a.08.08,0,0,1-.12,0v0a.13.13,0,0,1,0-.07.08.08,0,1,1,.09.12Zm-.09-.28,0,0A.19.19,0,0,0,5,16a.21.21,0,0,0,0,.15.13.13,0,0,0,.19,0,.11.11,0,0,0,0-.15.1.1,0,0,0-.15,0,.1.1,0,0,0-.06.07H5a.13.13,0,0,1,0-.16l0,0Z"/><path class="cls-3" d="M5.23,15.81s.09,0,.14.06,0,.12,0,.14-.09,0-.13-.06,0-.12,0-.14Zm0,0c-.06,0-.08.11,0,.2a.15.15,0,0,0,.2.06c.06,0,.07-.12,0-.2S5.28,15.74,5.22,15.78Z"/><polygon class="cls-3" points="5.89 15.35 5.9 15.38 6.07 15.31 6.07 15.31 6.03 15.62 6.08 15.6 6.11 15.28 6.1 15.26 5.89 15.35"/><path class="cls-3" d="M6.23,15.23s.09,0,.12.08,0,.13,0,.15-.09,0-.12-.08,0-.14,0-.15Zm0,0c-.07,0-.1.1-.06.2s.11.12.18.09.09-.11,0-.2S6.29,15.16,6.22,15.2Z"/><path class="cls-3" d="M7.06,15a.06.06,0,0,1,.07,0,.1.1,0,0,1,0,.08s-.07,0-.08,0A.07.07,0,0,1,7.06,15Zm.05.26c-.05,0-.08,0-.08,0s0-.06,0-.08.08,0,.09,0a.09.09,0,0,1-.06.08ZM7,15.13s-.06.06,0,.1.06.07.13,0a.12.12,0,0,0,.1-.13s0-.05-.08-.05h0a.07.07,0,0,0,0-.08s0-.07-.12,0S7,15,7,15.07a.09.09,0,0,0,.07.06Z"/><path class="cls-3" d="M7.32,14.92s.08,0,.1.1,0,.13,0,.15-.08,0-.09-.11,0-.13,0-.14Zm0,0a.16.16,0,0,0-.09.2c0,.1.08.14.15.12s.11-.09.09-.2S7.39,14.86,7.32,14.88Z"/><polygon class="cls-3" points="10.28 15.02 10.32 15.03 10.44 14.72 10.4 14.71 10.32 14.73 10.31 14.77 10.38 14.75 10.38 14.75 10.28 15.02"/><polygon class="cls-3" points="10.42 15.05 10.47 15.06 10.59 14.75 10.55 14.74 10.46 14.76 10.46 14.79 10.53 14.78 10.53 14.78 10.42 15.05"/><path class="cls-3" d="M10.74,14.8s0,.07,0,.14-.07.13-.11.12-.05-.06,0-.14.08-.12.12-.12Zm0,0c-.07,0-.14,0-.18.14s0,.17,0,.18.14,0,.18-.14S10.82,14.79,10.75,14.77Z"/><polygon class="cls-3" points="9.22 15.05 9.27 15.04 9.27 14.72 9.23 14.73 9.15 14.78 9.16 14.81 9.22 14.77 9.22 14.77 9.22 15.05"/><path class="cls-3" d="M9.43,14.73c.05,0,.07,0,.07.12s0,.14-.07.14-.07,0-.07-.12,0-.13.07-.14Zm0,0c-.07,0-.12.07-.12.18s0,.16.12.15.12-.08.12-.19S9.51,14.69,9.43,14.7Z"/><path class="cls-3" d="M9.69,14.7c.06,0,.08,0,.08.12s0,.13-.08.14-.07,0-.07-.12,0-.14.07-.14Zm0,0a.17.17,0,0,0-.13.18c0,.11,0,.16.12.15s.13-.07.13-.18S9.77,14.65,9.7,14.66Z"/><polygon class="cls-3" points="11.19 15.24 11.23 15.26 11.41 14.96 11.37 14.95 11.29 14.96 11.28 14.99 11.35 14.98 11.35 14.98 11.19 15.24"/><path class="cls-3" d="M11.46,15.35l0,0-.13-.06h0c.11,0,.17-.06.21-.12a.08.08,0,0,0-.05-.12.12.12,0,0,0-.1,0v0h.08a0,0,0,0,1,0,.08s-.08.07-.21.11l-.05,0v0Z"/><path class="cls-3" d="M11.75,15.12s0,.08,0,.15-.1.12-.14.1,0-.07,0-.15.1-.11.14-.1Zm0,0c-.06,0-.14,0-.2.12s-.05.17,0,.19.14,0,.2-.12S11.83,15.12,11.77,15.09Z"/><polygon class="cls-3" points="12.13 15.65 12.17 15.68 12.39 15.4 12.36 15.38 12.28 15.38 12.26 15.41 12.33 15.42 12.33 15.42 12.13 15.65"/><path class="cls-3" d="M12.22,15.69a.12.12,0,0,0,0,.06.13.13,0,0,0,.17,0,.08.08,0,0,0,0-.11h0a.09.09,0,0,0,.1,0,.08.08,0,0,0,0-.12l-.09,0v0l.07,0a0,0,0,0,1,0,.07.08.08,0,0,1-.1,0h0l0,0,0,0s.06.06,0,.09a.07.07,0,0,1-.1,0l-.05-.05Z"/><path class="cls-3" d="M12.7,15.63s0,.08,0,.15-.12.1-.15.07,0-.07,0-.14.12-.1.15-.08Zm0,0c-.05,0-.14,0-.21.09s-.08.16,0,.19.14,0,.22-.08S12.79,15.64,12.73,15.6Z"/><polygon class="cls-3" points="12.94 16.2 12.97 16.23 13.24 15.98 13.21 15.96 13.13 15.94 13.11 15.97 13.17 15.99 13.17 15.99 12.94 16.2"/><path class="cls-3" d="M13.12,16.18h0l.15,0,.06,0h0l-.05,0-.09.08-.07-.07Zm0,.19.07-.07,0,0,0,0,0,0,.17-.15,0,0-.28,0,0,0,.1.1-.07.07Z"/><path class="cls-3" d="M13.49,16.26s0,.08-.06.14-.13.09-.16.06,0-.08.06-.14.13-.08.16-.06Zm0,0s-.13,0-.22.05-.11.15-.06.19.13,0,.22-.05S13.57,16.28,13.52,16.24Z"/><polygon class="cls-3" points="13.5 16.9 13.53 16.94 13.83 16.74 13.81 16.71 13.74 16.68 13.71 16.7 13.77 16.73 13.77 16.73 13.5 16.9"/><path class="cls-3" d="M14,16.93l-.08-.12-.16.08s0,0,0,0,0,.09,0,.11a.08.08,0,0,1-.11,0,.11.11,0,0,1,0-.07h0a.16.16,0,0,0,0,.08.12.12,0,0,0,.17,0,.09.09,0,0,0,.05-.08.14.14,0,0,0,0-.07l0,0,.09,0,.07.1Z"/><path class="cls-3" d="M14,17.07s0,.08-.09.13-.14.06-.17,0,0-.08.09-.13.15-.06.17,0Zm0,0c0-.05-.12-.05-.22,0s-.14.14-.1.19.12.05.22,0S14.1,17.1,14.06,17.05Z"/><polygon class="cls-3" points="13.98 17.63 14 17.67 14.33 17.52 14.32 17.48 14.25 17.44 14.22 17.46 14.27 17.5 14.27 17.5 13.98 17.63"/><path class="cls-3" d="M14.08,17.78s0-.08.07-.1h0a.08.08,0,0,1,.07,0,.08.08,0,0,1-.05.09s-.09,0-.11,0Zm.34-.07v0a.22.22,0,0,0-.09-.07.27.27,0,0,0-.17,0c-.09,0-.13.1-.1.16s.09.07.16,0,.09-.08.07-.13a.1.1,0,0,0-.07-.06h0a.14.14,0,0,1,.16.05v0Z"/><path class="cls-3" d="M14.45,17.86s0,.08-.12.12-.14.05-.16,0,0-.08.11-.12.15,0,.17,0Zm0,0c0-.06-.1-.07-.21,0s-.16.12-.14.17.11.07.22,0S14.51,17.91,14.48,17.85Z"/><polygon class="cls-3" points="14.21 18.5 14.22 18.54 14.57 18.44 14.56 18.4 14.51 18.35 14.47 18.37 14.51 18.41 14.52 18.41 14.21 18.5"/><polygon class="cls-3" points="14.57 18.47 14.53 18.48 14.56 18.63 14.56 18.63 14.23 18.59 14.23 18.63 14.58 18.67 14.61 18.66 14.57 18.47"/><path class="cls-3" d="M14.6,18.78s0,.07-.13.1-.15,0-.16,0,0-.08.13-.1.16,0,.16,0Zm0,0c0-.06-.09-.09-.2-.05s-.18.09-.16.15.08.09.2.05S14.65,18.83,14.64,18.77Z"/><polygon class="cls-3" points="14.38 19.39 14.38 19.43 14.73 19.38 14.73 19.34 14.69 19.28 14.65 19.29 14.69 19.34 14.69 19.34 14.38 19.39"/><path class="cls-3" d="M14.7,19.52s0,.05,0,.06a.07.07,0,0,1-.07,0s0-.07.07-.07,0,0,0,.05Zm-.29,0a.07.07,0,0,1,.14,0s0,.07-.08.08a.05.05,0,0,1-.06-.06Zm.15-.06a.08.08,0,0,0-.09,0,.11.11,0,0,0-.1.12.08.08,0,0,0,.1.09.11.11,0,0,0,.1-.07h0a.09.09,0,0,0,.08,0,.11.11,0,0,0,.09-.11.08.08,0,0,0-.1-.08.09.09,0,0,0-.08.06Z"/><path class="cls-3" d="M14.7,19.75s-.06.07-.14.08-.15,0-.15,0,.05-.08.14-.09.15,0,.15.05Zm0,0c0-.06-.07-.1-.19-.08s-.18.07-.18.13.07.1.19.08S14.74,19.81,14.74,19.74Z"/><path class="cls-2" d="M41.47,2.56a.34.34,0,0,0-.31.31.25.25,0,0,0,.31.23.35.35,0,0,0,.3-.31.25.25,0,0,0-.3-.23Zm1.31.93L21.18,6.34A.35.35,0,0,1,20.75,6V3.29a.49.49,0,0,1,.43-.44L42.78,0a.36.36,0,0,1,.43.33V3.05A.49.49,0,0,1,42.78,3.49Z"/><polygon class="cls-5" points="21.57 2.8 21.57 5 21.5 5.01 21.5 2.81 21.57 2.8"/><polygon class="cls-5" points="23.66 2.53 23.66 4.73 23.59 4.74 23.59 2.54 23.66 2.53"/><polygon class="cls-5" points="25.75 2.25 25.75 4.45 25.68 4.46 25.68 2.26 25.75 2.25"/><polygon class="cls-5" points="27.85 1.97 27.85 4.17 27.77 4.18 27.77 1.98 27.85 1.97"/><polygon class="cls-5" points="29.94 1.7 29.94 3.9 29.86 3.91 29.86 1.71 29.94 1.7"/><polygon class="cls-5" points="32.03 1.42 32.03 3.62 31.96 3.63 31.96 1.43 32.03 1.42"/><polygon class="cls-5" points="34.12 1.15 34.12 3.35 34.05 3.36 34.05 1.16 34.12 1.15"/><polygon class="cls-5" points="36.22 0.87 36.22 3.07 36.14 3.08 36.14 0.88 36.22 0.87"/><polygon class="cls-5" points="38.31 0.59 38.31 2.79 38.23 2.8 38.23 0.6 38.31 0.59"/><polygon class="cls-5" points="40.4 0.32 40.4 2.52 40.32 2.53 40.32 0.33 40.4 0.32"/><polygon class="cls-5" points="42.49 0.04 42.49 2.24 42.42 2.25 42.42 0.05 42.49 0.04"/><polygon class="cls-5" points="21.78 2.77 21.78 3.89 21.71 3.9 21.71 2.79 21.78 2.77"/><polygon class="cls-5" points="21.99 2.75 21.99 3.87 21.91 3.88 21.91 2.76 21.99 2.75"/><polygon class="cls-5" points="22.2 2.72 22.2 3.84 22.12 3.85 22.12 2.73 22.2 2.72"/><polygon class="cls-5" points="22.41 2.69 22.41 3.81 22.33 3.82 22.33 2.7 22.41 2.69"/><polygon class="cls-5" points="22.62 2.67 22.62 4.09 22.54 4.1 22.54 2.67 22.62 2.67"/><polygon class="cls-5" points="22.83 2.64 22.83 3.75 22.75 3.77 22.75 2.65 22.83 2.64"/><polygon class="cls-5" points="23.04 2.61 23.04 3.73 22.96 3.74 22.96 2.62 23.04 2.61"/><polygon class="cls-5" points="23.25 2.58 23.25 3.7 23.17 3.71 23.17 2.59 23.25 2.58"/><polygon class="cls-5" points="23.45 2.55 23.45 3.67 23.38 3.68 23.38 2.56 23.45 2.55"/><polygon class="cls-5" points="40.4 0.32 40.4 1.44 40.32 1.45 40.32 0.33 40.4 0.32"/><polygon class="cls-5" points="40.61 0.29 40.61 1.41 40.53 1.42 40.53 0.3 40.61 0.29"/><polygon class="cls-5" points="40.82 0.26 40.82 1.38 40.74 1.39 40.74 0.27 40.82 0.26"/><polygon class="cls-5" points="41.03 0.23 41.03 1.35 40.95 1.36 40.95 0.24 41.03 0.23"/><polygon class="cls-5" points="41.24 0.21 41.24 1.32 41.16 1.33 41.16 0.22 41.24 0.21"/><polygon class="cls-5" points="41.45 0.18 41.45 1.6 41.37 1.61 41.37 0.19 41.45 0.18"/><polygon class="cls-5" points="41.65 0.15 41.65 1.27 41.58 1.28 41.58 0.16 41.65 0.15"/><polygon class="cls-5" points="41.86 0.13 41.86 1.24 41.79 1.25 41.79 0.13 41.86 0.13"/><polygon class="cls-5" points="42.07 0.1 42.07 1.22 42 1.23 42 0.11 42.07 0.1"/><polygon class="cls-5" points="42.28 0.07 42.28 1.19 42.21 1.2 42.21 0.08 42.28 0.07"/><polygon class="cls-5" points="38.52 0.57 38.52 1.68 38.44 1.69 38.44 0.58 38.52 0.57"/><polygon class="cls-5" points="38.73 0.54 38.73 1.66 38.65 1.67 38.65 0.55 38.73 0.54"/><polygon class="cls-5" points="38.94 0.51 38.94 1.63 38.86 1.64 38.86 0.52 38.94 0.51"/><polygon class="cls-5" points="39.14 0.48 39.14 1.6 39.07 1.61 39.07 0.49 39.14 0.48"/><polygon class="cls-5" points="39.35 0.46 39.35 1.88 39.28 1.89 39.28 0.47 39.35 0.46"/><polygon class="cls-5" points="39.56 0.43 39.56 1.55 39.49 1.56 39.49 0.44 39.56 0.43"/><polygon class="cls-5" points="39.77 0.4 39.77 1.52 39.7 1.53 39.7 0.41 39.77 0.4"/><polygon class="cls-5" points="39.98 0.37 39.98 1.49 39.91 1.5 39.91 0.38 39.98 0.37"/><polygon class="cls-5" points="40.19 0.34 40.19 1.46 40.12 1.47 40.12 0.35 40.19 0.34"/><polygon class="cls-5" points="36.42 0.84 36.42 1.96 36.35 1.97 36.35 0.85 36.42 0.84"/><polygon class="cls-5" points="36.63 0.81 36.63 1.93 36.56 1.94 36.56 0.82 36.63 0.81"/><polygon class="cls-5" points="36.84 0.79 36.84 1.91 36.77 1.92 36.77 0.8 36.84 0.79"/><polygon class="cls-5" points="37.05 0.76 37.05 1.88 36.98 1.89 36.98 0.77 37.05 0.76"/><polygon class="cls-5" points="37.26 0.73 37.26 2.15 37.19 2.16 37.19 0.74 37.26 0.73"/><polygon class="cls-5" points="37.47 0.7 37.47 1.82 37.4 1.83 37.4 0.71 37.47 0.7"/><polygon class="cls-5" points="37.68 0.68 37.68 1.79 37.6 1.8 37.6 0.69 37.68 0.68"/><polygon class="cls-5" points="37.89 0.65 37.89 1.77 37.81 1.78 37.81 0.66 37.89 0.65"/><polygon class="cls-5" points="38.1 0.62 38.1 1.74 38.02 1.75 38.02 0.63 38.1 0.62"/><polygon class="cls-5" points="34.33 1.12 34.33 2.24 34.26 2.25 34.26 1.13 34.33 1.12"/><polygon class="cls-5" points="34.54 1.09 34.54 2.21 34.47 2.22 34.47 1.1 34.54 1.09"/><polygon class="cls-5" points="34.75 1.06 34.75 2.18 34.68 2.19 34.68 1.07 34.75 1.06"/><polygon class="cls-5" points="34.96 1.04 34.96 2.15 34.88 2.16 34.88 1.05 34.96 1.04"/><polygon class="cls-5" points="35.17 1.01 35.17 2.43 35.09 2.44 35.09 1.02 35.17 1.01"/><polygon class="cls-5" points="35.38 0.98 35.38 2.1 35.3 2.11 35.3 0.99 35.38 0.98"/><polygon class="cls-5" points="35.59 0.95 35.59 2.07 35.51 2.08 35.51 0.96 35.59 0.95"/><polygon class="cls-5" points="35.8 0.93 35.8 2.04 35.72 2.05 35.72 0.94 35.8 0.93"/><polygon class="cls-5" points="36.01 0.9 36.01 2.02 35.93 2.02 35.93 0.91 36.01 0.9"/><polygon class="cls-5" points="32.24 1.4 32.24 2.51 32.17 2.52 32.17 1.41 32.24 1.4"/><polygon class="cls-5" points="32.45 1.37 32.45 2.48 32.38 2.5 32.38 1.38 32.45 1.37"/><polygon class="cls-5" points="32.66 1.34 32.66 2.46 32.58 2.47 32.58 1.35 32.66 1.34"/><polygon class="cls-5" points="32.87 1.31 32.87 2.43 32.79 2.44 32.79 1.32 32.87 1.31"/><polygon class="cls-5" points="33.08 1.28 33.08 2.71 33 2.72 33 1.29 33.08 1.28"/><polygon class="cls-5" points="33.29 1.26 33.29 2.38 33.21 2.38 33.21 1.27 33.29 1.26"/><polygon class="cls-5" points="33.5 1.23 33.5 2.35 33.42 2.36 33.42 1.24 33.5 1.23"/><polygon class="cls-5" points="33.7 1.2 33.7 2.32 33.63 2.33 33.63 1.21 33.7 1.2"/><polygon class="cls-5" points="33.91 1.17 33.91 2.29 33.84 2.3 33.84 1.18 33.91 1.17"/><polygon class="cls-5" points="30.15 1.67 30.15 2.79 30.07 2.8 30.07 1.68 30.15 1.67"/><polygon class="cls-5" points="30.36 1.64 30.36 2.76 30.28 2.77 30.28 1.65 30.36 1.64"/><polygon class="cls-5" points="30.57 1.62 30.57 2.73 30.49 2.74 30.49 1.63 30.57 1.62"/><polygon class="cls-5" points="30.78 1.59 30.78 2.71 30.7 2.72 30.7 1.6 30.78 1.59"/><polygon class="cls-5" points="30.98 1.56 30.98 2.98 30.91 2.99 30.91 1.57 30.98 1.56"/><polygon class="cls-5" points="31.2 1.53 31.2 2.65 31.12 2.66 31.12 1.54 31.2 1.53"/><polygon class="cls-5" points="31.4 1.5 31.4 2.62 31.33 2.63 31.33 1.51 31.4 1.5"/><polygon class="cls-5" points="31.61 1.48 31.61 2.6 31.54 2.6 31.54 1.49 31.61 1.48"/><polygon class="cls-5" points="31.82 1.45 31.82 2.57 31.75 2.58 31.75 1.46 31.82 1.45"/><polygon class="cls-5" points="28.06 1.95 28.06 3.06 27.98 3.08 27.98 1.96 28.06 1.95"/><polygon class="cls-5" points="28.27 1.92 28.27 3.04 28.19 3.05 28.19 1.93 28.27 1.92"/><polygon class="cls-5" points="28.48 1.89 28.48 3.01 28.4 3.02 28.4 1.9 28.48 1.89"/><polygon class="cls-5" points="28.68 1.86 28.68 2.98 28.61 2.99 28.61 1.87 28.68 1.86"/><polygon class="cls-5" points="28.89 1.84 28.89 3.26 28.82 3.27 28.82 1.85 28.89 1.84"/><polygon class="cls-5" points="29.1 1.81 29.1 2.93 29.03 2.94 29.03 1.82 29.1 1.81"/><polygon class="cls-5" points="29.31 1.78 29.31 2.9 29.24 2.91 29.24 1.79 29.31 1.78"/><polygon class="cls-5" points="29.52 1.75 29.52 2.87 29.45 2.88 29.45 1.76 29.52 1.75"/><polygon class="cls-5" points="29.73 1.73 29.73 2.84 29.66 2.85 29.66 1.74 29.73 1.73"/><polygon class="cls-5" points="25.96 2.22 25.96 3.34 25.89 3.35 25.89 2.23 25.96 2.22"/><polygon class="cls-5" points="26.17 2.19 26.17 3.31 26.1 3.32 26.1 2.21 26.17 2.19"/><polygon class="cls-5" points="26.38 2.17 26.38 3.29 26.31 3.29 26.31 2.18 26.38 2.17"/><polygon class="cls-5" points="26.59 2.14 26.59 3.26 26.52 3.27 26.52 2.15 26.59 2.14"/><polygon class="cls-5" points="26.8 2.11 26.8 3.54 26.73 3.54 26.73 2.12 26.8 2.11"/><polygon class="cls-5" points="27.01 2.08 27.01 3.2 26.94 3.21 26.94 2.1 27.01 2.08"/><polygon class="cls-5" points="27.22 2.06 27.22 3.17 27.14 3.19 27.14 2.07 27.22 2.06"/><polygon class="cls-5" points="27.43 2.03 27.43 3.15 27.35 3.16 27.35 2.04 27.43 2.03"/><polygon class="cls-5" points="27.64 2 27.64 3.12 27.56 3.13 27.56 2.01 27.64 2"/><polygon class="cls-5" points="23.87 2.5 23.87 3.62 23.8 3.63 23.8 2.51 23.87 2.5"/><polygon class="cls-5" points="24.08 2.47 24.08 3.59 24.01 3.6 24.01 2.48 24.08 2.47"/><polygon class="cls-5" points="24.29 2.44 24.29 3.56 24.22 3.57 24.22 2.45 24.29 2.44"/><polygon class="cls-5" points="24.5 2.42 24.5 3.53 24.43 3.54 24.43 2.43 24.5 2.42"/><polygon class="cls-5" points="24.71 2.39 24.71 3.81 24.64 3.82 24.64 2.4 24.71 2.39"/><polygon class="cls-5" points="24.92 2.36 24.92 3.48 24.84 3.49 24.84 2.37 24.92 2.36"/><polygon class="cls-5" points="25.13 2.33 25.13 3.45 25.05 3.46 25.05 2.34 25.13 2.33"/><polygon class="cls-5" points="25.34 2.31 25.34 3.42 25.26 3.43 25.26 2.32 25.34 2.31"/><polygon class="cls-5" points="25.55 2.28 25.55 3.4 25.47 3.41 25.47 2.29 25.55 2.28"/><polygon class="cls-5" points="21.52 5.73 21.59 5.72 21.59 5.26 21.53 5.27 21.41 5.34 21.43 5.38 21.52 5.33 21.52 5.33 21.52 5.73"/><path class="cls-5" d="M23.79,5.43v0l-.23,0h0l0,0c.11-.11.17-.19.17-.27s0-.13-.15-.11a.25.25,0,0,0-.15.06l0,0a.22.22,0,0,1,.11,0c.08,0,.1,0,.1.07s-.06.14-.19.27l-.05,0v0Z"/><path class="cls-5" d="M25.64,5.16a.24.24,0,0,0,.13,0A.19.19,0,0,0,26,5c0-.06-.05-.1-.12-.1h0c.07,0,.1-.07.1-.12s-.05-.1-.15-.09a.32.32,0,0,0-.13,0l0,0,.1,0c.06,0,.09,0,.09.06s-.07.08-.12.09h0V5h0c.07,0,.14,0,.14.07s0,.09-.12.1a.18.18,0,0,1-.11,0Z"/><path class="cls-5" d="M27.57,4.76h0l.12-.17,0-.07h0v.22l-.17,0Zm.23.14V4.77h.07v0H27.8V4.44h-.07l-.23.32v0l.24,0v.13Z"/><path class="cls-5" d="M30,4.15l-.24,0,0,.22h.07c.1,0,.14,0,.14.08a.13.13,0,0,1-.12.12l-.11,0v0l.12,0A.21.21,0,0,0,30,4.45a.1.1,0,0,0-.07-.1.14.14,0,0,0-.11,0h0l0-.12.19,0Z"/><path class="cls-5" d="M32,4.31c-.07,0-.11,0-.11-.12s0,0,0,0A.11.11,0,0,1,32,4.1c.06,0,.1,0,.1.09a.12.12,0,0,1-.1.12Zm.12-.44h0a.42.42,0,0,0-.16.09.32.32,0,0,0-.09.22.15.15,0,0,0,.18.17.19.19,0,0,0,.17-.19A.11.11,0,0,0,32,4.05a.16.16,0,0,0-.13.07h0A.23.23,0,0,1,32,3.93h0Z"/><polygon class="cls-5" points="33.94 3.63 33.94 3.68 34.19 3.65 34.19 3.65 33.97 4.08 34.04 4.07 34.26 3.63 34.26 3.59 33.94 3.63"/><path class="cls-5" d="M36.19,3.37a.07.07,0,0,1,.09.06.13.13,0,0,1-.08.1c-.06,0-.1,0-.1-.07a.1.1,0,0,1,.09-.09Zm0,.38c-.07,0-.11,0-.1-.07s0-.08.09-.11.11,0,.11.09,0,.08-.1.09Zm-.07-.19a.15.15,0,0,0-.1.14c0,.06.06.11.17.1a.18.18,0,0,0,.17-.16.11.11,0,0,0-.1-.1h0a.14.14,0,0,0,.08-.12c0-.06-.05-.11-.15-.09a.16.16,0,0,0-.16.14s0,.07.09.09Z"/><path class="cls-5" d="M38.32,3.09c.08,0,.11.05.11.13v0a.14.14,0,0,1-.1.06.08.08,0,0,1-.1-.08.12.12,0,0,1,.1-.13Zm-.12.44h.06a.28.28,0,0,0,.15-.08.32.32,0,0,0,.09-.23A.15.15,0,0,0,38.33,3a.2.2,0,0,0-.18.19.12.12,0,0,0,.15.12.19.19,0,0,0,.13-.07h0a.23.23,0,0,1-.07.13.24.24,0,0,1-.11.06h0Z"/><polygon class="cls-5" points="40.15 3.27 40.22 3.26 40.22 2.8 40.16 2.81 40.05 2.88 40.06 2.92 40.15 2.87 40.15 2.87 40.15 3.27"/><polygon class="cls-5" points="42.3 2.98 42.37 2.97 42.37 2.52 42.31 2.53 42.2 2.6 42.21 2.64 42.3 2.58 42.3 2.58 42.3 2.98"/><polygon class="cls-5" points="42.56 2.95 42.62 2.94 42.62 2.48 42.56 2.49 42.45 2.56 42.47 2.61 42.55 2.55 42.56 2.55 42.56 2.95"/><path class="cls-5" d="M40.51,2.8c.08,0,.11.06.11.18s0,.19-.11.2-.1-.05-.1-.17,0-.2.1-.21Zm0,0c-.1,0-.18.1-.18.26s.07.22.17.21.18-.11.18-.27S40.63,2.74,40.52,2.76Z"/><path class="cls-2" d="M24.65,16.51,31,15.67a.06.06,0,0,1,.08,0,.09.09,0,0,1,0,.09l-6.33,4.09a.11.11,0,0,1-.08,0,.05.05,0,0,1,0-.06V16.59a.08.08,0,0,1,.08-.08Zm12-1.59,4.59-3L24.57,14.16l-2.66.35v9.9l2.65-1.72Z"/><polygon class="cls-5" points="22.41 14.44 22.41 15.73 22.36 15.74 22.36 14.45 22.41 14.44"/><polygon class="cls-5" points="23.9 14.24 23.9 15.54 23.85 15.54 23.84 14.25 23.9 14.24"/><polygon class="cls-5" points="25.39 14.05 25.39 15.34 25.33 15.35 25.33 14.05 25.39 14.05"/><polygon class="cls-5" points="26.87 13.85 26.87 15.14 26.82 15.15 26.82 13.86 26.87 13.85"/><polygon class="cls-5" points="28.36 13.65 28.36 14.94 28.31 14.95 28.31 13.66 28.36 13.65"/><polygon class="cls-5" points="29.85 13.46 29.85 14.75 29.79 14.75 29.79 13.46 29.85 13.46"/><polygon class="cls-5" points="31.33 13.26 31.33 14.55 31.28 14.56 31.28 13.27 31.33 13.26"/><polygon class="cls-5" points="32.82 13.06 32.82 14.35 32.77 14.36 32.77 13.07 32.82 13.06"/><polygon class="cls-5" points="34.31 12.87 34.31 14.16 34.26 14.16 34.26 12.87 34.31 12.87"/><polygon class="cls-5" points="22.41 14.44 22.41 15.23 22.36 15.24 22.36 14.45 22.41 14.44"/><polygon class="cls-5" points="22.56 14.42 22.56 15.21 22.51 15.22 22.51 14.43 22.56 14.42"/><polygon class="cls-5" points="22.71 14.4 22.71 15.2 22.66 15.2 22.66 14.41 22.71 14.4"/><polygon class="cls-5" points="22.86 14.38 22.86 15.18 22.8 15.18 22.8 14.39 22.86 14.38"/><polygon class="cls-5" points="23.01 14.36 23.01 15.16 22.95 15.16 22.95 14.37 23.01 14.36"/><polygon class="cls-5" points="23.16 14.34 23.16 15.35 23.1 15.36 23.1 14.35 23.16 14.34"/><polygon class="cls-5" points="23.3 14.32 23.3 15.12 23.25 15.12 23.25 14.33 23.3 14.32"/><polygon class="cls-5" points="23.45 14.3 23.45 15.1 23.4 15.1 23.4 14.31 23.45 14.3"/><polygon class="cls-5" points="23.6 14.28 23.6 15.08 23.55 15.08 23.55 14.29 23.6 14.28"/><polygon class="cls-5" points="23.75 14.26 23.75 15.06 23.7 15.06 23.7 14.27 23.75 14.26"/><polygon class="cls-5" points="35.8 12.67 35.8 13.96 35.74 13.97 35.74 12.68 35.8 12.67"/><polygon class="cls-5" points="37.28 12.47 37.28 13.76 37.23 13.77 37.23 12.48 37.28 12.47"/><polygon class="cls-5" points="35.8 12.67 35.8 13.46 35.74 13.47 35.74 12.68 35.8 12.67"/><polygon class="cls-5" points="35.94 12.65 35.94 13.44 35.89 13.45 35.89 12.65 35.94 12.65"/><polygon class="cls-5" points="36.09 12.63 36.09 13.42 36.04 13.43 36.04 12.63 36.09 12.63"/><polygon class="cls-5" points="36.24 12.61 36.24 13.4 36.19 13.41 36.19 12.62 36.24 12.61"/><polygon class="cls-5" points="36.39 12.59 36.39 13.38 36.34 13.39 36.34 12.6 36.39 12.59"/><polygon class="cls-5" points="36.54 12.57 36.54 13.58 36.49 13.59 36.48 12.58 36.54 12.57"/><polygon class="cls-5" points="36.69 12.55 36.69 13.34 36.63 13.35 36.63 12.56 36.69 12.55"/><polygon class="cls-5" points="36.84 12.53 36.84 13.32 36.78 13.33 36.78 12.54 36.84 12.53"/><polygon class="cls-5" points="36.98 12.51 36.98 13.3 36.93 13.31 36.93 12.52 36.98 12.51"/><polygon class="cls-5" points="37.13 12.49 37.13 13.29 37.08 13.29 37.08 12.5 37.13 12.49"/><polygon class="cls-5" points="37.28 12.47 37.28 13.27 37.23 13.27 37.23 12.48 37.28 12.47"/><polygon class="cls-5" points="37.43 12.45 37.43 13.25 37.38 13.25 37.38 12.46 37.43 12.45"/><polygon class="cls-5" points="37.58 12.43 37.58 13.23 37.53 13.23 37.53 12.44 37.58 12.43"/><polygon class="cls-5" points="37.73 12.41 37.73 13.21 37.67 13.21 37.67 12.42 37.73 12.41"/><polygon class="cls-5" points="37.88 12.39 37.88 13.19 37.82 13.19 37.82 12.4 37.88 12.39"/><polygon class="cls-5" points="38.02 12.37 38.03 13.38 37.97 13.39 37.97 12.38 38.02 12.37"/><polygon class="cls-5" points="38.17 12.35 38.17 13.15 38.12 13.15 38.12 12.36 38.17 12.35"/><polygon class="cls-5" points="38.77 12.27 38.77 13.52 38.72 13.55 38.72 12.28 38.77 12.27"/><polygon class="cls-5" points="40.4 12.06 40.4 12.47 40.34 12.5 40.34 12.06 40.4 12.06"/><polygon class="cls-5" points="38.91 12.26 38.91 13.05 38.86 13.06 38.86 12.26 38.91 12.26"/><polygon class="cls-5" points="39.06 12.24 39.06 13.03 39.01 13.04 39.01 12.24 39.06 12.24"/><polygon class="cls-5" points="39.21 12.22 39.21 13.01 39.16 13.02 39.15 12.22 39.21 12.22"/><polygon class="cls-5" points="39.36 12.2 39.36 12.99 39.3 13 39.3 12.2 39.36 12.2"/><polygon class="cls-5" points="39.51 12.18 39.51 12.97 39.45 12.98 39.45 12.18 39.51 12.18"/><polygon class="cls-5" points="39.65 12.16 39.65 12.95 39.6 12.98 39.6 12.16 39.65 12.16"/><polygon class="cls-5" points="39.8 12.14 39.8 12.85 39.75 12.89 39.75 12.14 39.8 12.14"/><polygon class="cls-5" points="40.55 12.04 40.55 12.37 40.49 12.41 40.49 12.05 40.55 12.04"/><polygon class="cls-5" points="40.69 12.02 40.69 12.28 40.64 12.31 40.64 12.03 40.69 12.02"/><polygon class="cls-5" points="38.32 12.33 38.32 13.13 38.27 13.13 38.27 12.34 38.32 12.33"/><polygon class="cls-5" points="39.95 12.12 39.95 12.76 39.9 12.79 39.9 12.12 39.95 12.12"/><polygon class="cls-5" points="40.84 12 40.84 12.18 40.79 12.21 40.79 12.01 40.84 12"/><polygon class="cls-5" points="38.47 12.31 38.47 13.11 38.42 13.12 38.42 12.32 38.47 12.31"/><polygon class="cls-5" points="40.1 12.1 40.1 12.66 40.05 12.69 40.05 12.11 40.1 12.1"/><polygon class="cls-5" points="38.62 12.29 38.62 13.09 38.57 13.1 38.57 12.3 38.62 12.29"/><polygon class="cls-5" points="40.25 12.08 40.25 12.56 40.2 12.6 40.2 12.09 40.25 12.08"/><polygon class="cls-5" points="34.46 12.85 34.46 13.64 34.4 13.65 34.4 12.85 34.46 12.85"/><polygon class="cls-5" points="34.6 12.82 34.6 13.62 34.55 13.63 34.55 12.83 34.6 12.82"/><polygon class="cls-5" points="34.75 12.81 34.75 13.6 34.7 13.61 34.7 12.81 34.75 12.81"/><polygon class="cls-5" points="34.9 12.79 34.9 13.58 34.85 13.59 34.85 12.79 34.9 12.79"/><polygon class="cls-5" points="35.05 12.77 35.05 13.78 35 13.78 35 12.77 35.05 12.77"/><polygon class="cls-5" points="35.2 12.75 35.2 13.54 35.15 13.55 35.15 12.75 35.2 12.75"/><polygon class="cls-5" points="35.35 12.73 35.35 13.52 35.3 13.53 35.3 12.73 35.35 12.73"/><polygon class="cls-5" points="35.5 12.71 35.5 13.5 35.45 13.51 35.44 12.71 35.5 12.71"/><polygon class="cls-5" points="35.65 12.69 35.65 13.48 35.59 13.49 35.59 12.7 35.65 12.69"/><polygon class="cls-5" points="32.97 13.04 32.97 13.84 32.92 13.84 32.92 13.05 32.97 13.04"/><polygon class="cls-5" points="33.12 13.02 33.12 13.82 33.06 13.82 33.06 13.03 33.12 13.02"/><polygon class="cls-5" points="33.27 13 33.27 13.8 33.21 13.8 33.21 13.01 33.27 13"/><polygon class="cls-5" points="33.41 12.98 33.42 13.78 33.36 13.79 33.36 12.99 33.41 12.98"/><polygon class="cls-5" points="33.56 12.96 33.56 13.97 33.51 13.98 33.51 12.97 33.56 12.96"/><polygon class="cls-5" points="33.71 12.94 33.71 13.74 33.66 13.74 33.66 12.95 33.71 12.94"/><polygon class="cls-5" points="33.86 12.92 33.86 13.72 33.81 13.73 33.81 12.93 33.86 12.92"/><polygon class="cls-5" points="34.01 12.9 34.01 13.7 33.96 13.71 33.96 12.91 34.01 12.9"/><polygon class="cls-5" points="34.16 12.88 34.16 13.68 34.11 13.69 34.11 12.89 34.16 12.88"/><polygon class="cls-5" points="31.48 13.24 31.48 14.03 31.43 14.04 31.43 13.25 31.48 13.24"/><polygon class="cls-5" points="31.63 13.22 31.63 14.01 31.58 14.02 31.58 13.23 31.63 13.22"/><polygon class="cls-5" points="31.78 13.2 31.78 13.99 31.73 14 31.73 13.21 31.78 13.2"/><polygon class="cls-5" points="31.93 13.18 31.93 13.97 31.88 13.98 31.88 13.19 31.93 13.18"/><polygon class="cls-5" points="32.08 13.16 32.08 14.17 32.02 14.18 32.02 13.17 32.08 13.16"/><polygon class="cls-5" points="32.23 13.14 32.23 13.94 32.17 13.94 32.17 13.15 32.23 13.14"/><polygon class="cls-5" points="32.38 13.12 32.38 13.91 32.32 13.92 32.32 13.13 32.38 13.12"/><polygon class="cls-5" points="32.52 13.1 32.52 13.9 32.47 13.9 32.47 13.11 32.52 13.1"/><polygon class="cls-5" points="32.67 13.08 32.67 13.88 32.62 13.88 32.62 13.09 32.67 13.08"/><polygon class="cls-5" points="30 13.44 30 14.23 29.94 14.24 29.94 13.44 30 13.44"/><polygon class="cls-5" points="30.14 13.42 30.14 14.21 30.09 14.22 30.09 13.42 30.14 13.42"/><polygon class="cls-5" points="30.29 13.4 30.29 14.19 30.24 14.2 30.24 13.4 30.29 13.4"/><polygon class="cls-5" points="30.44 13.38 30.44 14.17 30.39 14.18 30.39 13.38 30.44 13.38"/><polygon class="cls-5" points="30.59 13.36 30.59 14.37 30.54 14.38 30.54 13.36 30.59 13.36"/><polygon class="cls-5" points="30.74 13.34 30.74 14.13 30.69 14.14 30.69 13.35 30.74 13.34"/><polygon class="cls-5" points="30.89 13.32 30.89 14.11 30.84 14.12 30.83 13.32 30.89 13.32"/><polygon class="cls-5" points="31.04 13.3 31.04 14.09 30.98 14.1 30.98 13.3 31.04 13.3"/><polygon class="cls-5" points="31.18 13.28 31.18 14.07 31.13 14.08 31.13 13.29 31.18 13.28"/><polygon class="cls-5" points="28.51 13.63 28.51 14.43 28.45 14.44 28.45 13.64 28.51 13.63"/><polygon class="cls-5" points="28.66 13.61 28.66 14.41 28.6 14.41 28.6 13.62 28.66 13.61"/><polygon class="cls-5" points="28.81 13.59 28.81 14.39 28.75 14.39 28.75 13.6 28.81 13.59"/><polygon class="cls-5" points="28.95 13.57 28.95 14.37 28.9 14.38 28.9 13.58 28.95 13.57"/><polygon class="cls-5" points="29.1 13.55 29.1 14.56 29.05 14.57 29.05 13.56 29.1 13.55"/><polygon class="cls-5" points="29.25 13.53 29.25 14.33 29.2 14.34 29.2 13.54 29.25 13.53"/><polygon class="cls-5" points="29.4 13.52 29.4 14.31 29.35 14.32 29.35 13.52 29.4 13.52"/><polygon class="cls-5" points="29.55 13.49 29.55 14.29 29.5 14.3 29.5 13.5 29.55 13.49"/><polygon class="cls-5" points="29.7 13.47 29.7 14.27 29.64 14.28 29.64 13.48 29.7 13.47"/><polygon class="cls-5" points="27.02 13.83 27.02 14.62 26.97 14.63 26.97 13.84 27.02 13.83"/><polygon class="cls-5" points="27.17 13.81 27.17 14.61 27.12 14.61 27.12 13.82 27.17 13.81"/><polygon class="cls-5" points="27.32 13.79 27.32 14.59 27.27 14.59 27.27 13.8 27.32 13.79"/><polygon class="cls-5" points="27.47 13.77 27.47 14.56 27.41 14.57 27.41 13.78 27.47 13.77"/><polygon class="cls-5" points="27.62 13.75 27.62 14.76 27.56 14.77 27.56 13.76 27.62 13.75"/><polygon class="cls-5" points="27.77 13.73 27.77 14.53 27.71 14.53 27.71 13.74 27.77 13.73"/><polygon class="cls-5" points="27.91 13.71 27.91 14.51 27.86 14.51 27.86 13.72 27.91 13.71"/><polygon class="cls-5" points="28.06 13.69 28.06 14.49 28.01 14.49 28.01 13.7 28.06 13.69"/><polygon class="cls-5" points="28.21 13.67 28.21 14.47 28.16 14.47 28.16 13.68 28.21 13.67"/><polygon class="cls-5" points="25.53 14.03 25.54 14.82 25.48 14.83 25.48 14.03 25.53 14.03"/><polygon class="cls-5" points="25.68 14.01 25.68 14.8 25.63 14.81 25.63 14.01 25.68 14.01"/><polygon class="cls-5" points="25.83 13.99 25.83 14.78 25.78 14.79 25.78 13.99 25.83 13.99"/><polygon class="cls-5" points="25.98 13.97 25.98 14.76 25.93 14.77 25.93 13.97 25.98 13.97"/><polygon class="cls-5" points="26.13 13.95 26.13 14.96 26.08 14.97 26.08 13.96 26.13 13.95"/><polygon class="cls-5" points="26.28 13.93 26.28 14.72 26.23 14.73 26.22 13.94 26.28 13.93"/><polygon class="cls-5" points="26.43 13.91 26.43 14.7 26.37 14.71 26.37 13.92 26.43 13.91"/><polygon class="cls-5" points="26.57 13.89 26.57 14.68 26.52 14.69 26.52 13.9 26.57 13.89"/><polygon class="cls-5" points="26.72 13.87 26.72 14.66 26.67 14.67 26.67 13.88 26.72 13.87"/><polygon class="cls-5" points="24.05 14.22 24.05 15.02 23.99 15.03 23.99 14.23 24.05 14.22"/><polygon class="cls-5" points="24.2 14.2 24.2 15 24.14 15.01 24.14 14.21 24.2 14.2"/><polygon class="cls-5" points="24.34 14.18 24.34 14.98 24.29 14.99 24.29 14.19 24.34 14.18"/><polygon class="cls-5" points="24.49 14.16 24.49 14.96 24.44 14.97 24.44 14.17 24.49 14.16"/><polygon class="cls-5" points="24.64 14.14 24.64 15.16 24.59 15.16 24.59 14.15 24.64 14.14"/><polygon class="cls-5" points="24.79 14.13 24.79 14.92 24.74 14.93 24.74 14.13 24.79 14.13"/><polygon class="cls-5" points="24.94 14.11 24.94 14.9 24.89 14.91 24.89 14.11 24.94 14.11"/><polygon class="cls-5" points="25.09 14.09 25.09 14.88 25.04 14.89 25.04 14.09 25.09 14.09"/><polygon class="cls-5" points="25.24 14.07 25.24 14.86 25.18 14.87 25.18 14.07 25.24 14.07"/><polygon class="cls-5" points="22.38 16.23 22.42 16.23 22.42 15.9 22.38 15.91 22.3 15.96 22.31 15.99 22.37 15.95 22.38 15.95 22.38 16.23"/><path class="cls-5" d="M24,16v0l-.17,0h0l0,0c.08-.08.13-.13.13-.19s0-.09-.11-.08a.18.18,0,0,0-.11,0l0,0,.08,0c.05,0,.07,0,.07.06s0,.09-.14.19l0,0v0Z"/><path class="cls-5" d="M25.3,15.83h.1a.13.13,0,0,0,.13-.12.08.08,0,0,0-.08-.07h0s.07-.05.07-.08,0-.08-.11-.07a.19.19,0,0,0-.09,0v0a.15.15,0,0,1,.07,0c.05,0,.07,0,.07,0s0,.06-.08.06h0v0h0s.09,0,.09.05,0,.06-.08.07a.09.09,0,0,1-.08,0Z"/><path class="cls-5" d="M26.84,15.64v-.09h.05v0h-.05v-.2h-.05l-.16.23v0l.16,0v.09Zm-.16-.1h0l.08-.12,0-.05h0a.43.43,0,0,0,0,.05v.11Z"/><path class="cls-5" d="M28.42,15.11l-.17,0,0,.16h.05c.08,0,.11,0,.11.06s0,.07-.09.08h-.08v0a.26.26,0,0,0,.09,0c.08,0,.14-.06.14-.12a.1.1,0,0,0-.05-.08h-.11v-.09h.14Z"/><path class="cls-5" d="M29.88,14.91h0a.23.23,0,0,0-.12.06.26.26,0,0,0-.06.16.11.11,0,0,0,.13.12.13.13,0,0,0,.12-.13c0-.07,0-.1-.11-.09a.11.11,0,0,0-.09.05h0a.18.18,0,0,1,.13-.14h0v0Zm-.09.31c-.05,0-.08,0-.08-.08v0s0,0,.07,0a.06.06,0,0,1,.07.07A.08.08,0,0,1,29.79,15.22Z"/><polygon class="cls-5" points="31.2 14.74 31.2 14.78 31.38 14.75 31.38 14.75 31.22 15.06 31.27 15.05 31.43 14.74 31.43 14.71 31.2 14.74"/><path class="cls-5" d="M32.75,14.69a.12.12,0,0,0-.07.1s0,.08.12.07.13-.06.13-.11,0-.07-.08-.08h0a.08.08,0,0,0,.06-.08s0-.08-.1-.07-.12.05-.12.1a.07.07,0,0,0,.06.07Zm0,.14s-.07,0-.07-.06,0-.06.07-.07.08,0,.08.06,0,.06-.08.07Zm0-.28c.05,0,.06,0,.06,0a.06.06,0,0,1,0,.06s-.07,0-.07-.05A.07.07,0,0,1,32.8,14.55Z"/><path class="cls-5" d="M34.23,14.67h.05a.21.21,0,0,0,.1-.06.2.2,0,0,0,.06-.16c0-.08,0-.13-.12-.12a.14.14,0,0,0-.12.13.09.09,0,0,0,.11.09.14.14,0,0,0,.08,0h0a.13.13,0,0,1,0,.09l-.08.05h0v0Zm.09-.31s.07,0,.07.08v0a.08.08,0,0,1-.07,0,.06.06,0,0,1-.07-.06A.08.08,0,0,1,34.32,14.36Z"/><polygon class="cls-5" points="35.62 14.48 35.67 14.47 35.67 14.15 35.62 14.15 35.55 14.2 35.55 14.23 35.62 14.2 35.62 14.2 35.62 14.48"/><polygon class="cls-5" points="37.15 14.28 37.2 14.27 37.2 13.95 37.15 13.95 37.07 14 37.08 14.03 37.15 13.99 37.15 13.99 37.15 14.28"/><polygon class="cls-5" points="37.33 14.25 37.38 14.25 37.38 13.92 37.33 13.93 37.26 13.98 37.26 14.01 37.33 13.97 37.33 13.97 37.33 14.25"/><path class="cls-5" d="M35.88,14.12c-.07,0-.13.07-.13.18s0,.16.13.15.12-.08.12-.19,0-.16-.12-.14Zm0,0s.07,0,.07.12,0,.14-.07.15-.08,0-.08-.13S35.83,14.16,35.88,14.15Z"/><polygon class="cls-6" points="13.94 20.92 13.8 20.91 13.56 21.76 13.61 21.76 13.94 20.92"/><path class="cls-7" d="M17.08,10.83l-.35,0a.23.23,0,0,0-.23.15l-2.75,9.84c-.11.37.73,0,.79-.23L17.22,11A.15.15,0,0,0,17.08,10.83Z"/><polygon class="cls-6" points="9.63 19.73 9.75 19.79 9.2 20.55 9.16 20.54 9.63 19.73"/><path class="cls-7" d="M15.84,10.48l.3.15a.14.14,0,0,1,0,.22L9.9,19.72c-.24.33-.56-.36-.42-.56l6.1-8.6A.22.22,0,0,1,15.84,10.48Z"/><path class="cls-6" d="M17.7,9.65l-.37-.1.14-.29-.59-.16-.14.28-.37-.1a.24.24,0,0,0-.27.12L15,12.08a.15.15,0,0,0,.1.22l1,.28a.24.24,0,0,0,.27-.12L17.8,9.87A.15.15,0,0,0,17.7,9.65Z"/><path class="cls-6" d="M10.86,18.24a.54.54,0,0,0-.59.28.33.33,0,0,0,.22.49.52.52,0,0,0,.59-.27A.35.35,0,0,0,10.86,18.24Z"/><path class="cls-6" d="M18.51,7l-.46-.13a.24.24,0,0,0-.28.13l-.94,1.93a.16.16,0,0,0,.11.23l.46.13a.25.25,0,0,0,.28-.13l.93-1.93A.15.15,0,0,0,18.51,7Z"/></g></g></g></svg>