<svg id="roomBooks" class="room-svg room-books closed" data-name="Books" data-description="This is a books." data-cost="250" data-buyed="0" xmlns="http://www.w3.org/2000/svg" xmlns:xlink="http://www.w3.org/1999/xlink" viewBox="0 0 193.33 78.88"><defs><style>.cls-1{isolation:isolate;}.cls-2{fill:#414042;}.cls-3{fill:#808285;}.cls-4{fill:#f7941e;}.cls-10,.cls-100,.cls-11,.cls-12,.cls-18,.cls-19,.cls-20,.cls-22,.cls-23,.cls-24,.cls-26,.cls-27,.cls-28,.cls-30,.cls-31,.cls-32,.cls-34,.cls-35,.cls-36,.cls-37,.cls-38,.cls-39,.cls-41,.cls-42,.cls-43,.cls-44,.cls-45,.cls-46,.cls-49,.cls-5,.cls-50,.cls-51,.cls-53,.cls-54,.cls-55,.cls-57,.cls-58,.cls-59,.cls-6,.cls-60,.cls-61,.cls-62,.cls-63,.cls-64,.cls-65,.cls-66,.cls-67,.cls-68,.cls-69,.cls-7,.cls-70,.cls-71,.cls-72,.cls-73,.cls-74,.cls-75,.cls-76,.cls-77,.cls-78,.cls-79,.cls-80,.cls-81,.cls-82,.cls-83,.cls-84,.cls-85,.cls-86,.cls-87,.cls-88,.cls-89,.cls-90,.cls-91,.cls-92,.cls-93,.cls-94,.cls-95,.cls-96,.cls-97,.cls-98,.cls-99{opacity:0.4;}.cls-10,.cls-100,.cls-11,.cls-12,.cls-18,.cls-19,.cls-20,.cls-22,.cls-23,.cls-24,.cls-26,.cls-27,.cls-28,.cls-29,.cls-30,.cls-31,.cls-32,.cls-33,.cls-34,.cls-35,.cls-36,.cls-37,.cls-38,.cls-39,.cls-41,.cls-42,.cls-43,.cls-44,.cls-45,.cls-46,.cls-49,.cls-5,.cls-50,.cls-51,.cls-52,.cls-53,.cls-54,.cls-55,.cls-57,.cls-58,.cls-59,.cls-6,.cls-60,.cls-61,.cls-62,.cls-63,.cls-64,.cls-65,.cls-66,.cls-67,.cls-68,.cls-69,.cls-7,.cls-70,.cls-71,.cls-72,.cls-73,.cls-74,.cls-75,.cls-76,.cls-77,.cls-78,.cls-79,.cls-80,.cls-81,.cls-82,.cls-83,.cls-84,.cls-85,.cls-86,.cls-87,.cls-88,.cls-89,.cls-90,.cls-91,.cls-92,.cls-93,.cls-94,.cls-95,.cls-96,.cls-97,.cls-98,.cls-99{mix-blend-mode:multiply;}.cls-5{fill:url(#linear-gradient);}.cls-6{fill:url(#linear-gradient-2);}.cls-7{fill:url(#linear-gradient-3);}.cls-8{fill:#fff;}.cls-9{fill:#f1f2f2;}.cls-10{fill:url(#linear-gradient-4);}.cls-11{fill:url(#linear-gradient-5);}.cls-12{fill:url(#linear-gradient-6);}.cls-13,.cls-29{fill:#1c75bc;}.cls-14{opacity:0.6;}.cls-15{fill:#58595b;}.cls-16{fill:#bcbec0;}.cls-17{fill:#594a42;}.cls-18{fill:url(#linear-gradient-7);}.cls-19{fill:url(#linear-gradient-8);}.cls-20{fill:url(#linear-gradient-9);}.cls-21{fill:#ee2a7b;}.cls-22{fill:url(#linear-gradient-10);}.cls-23{fill:url(#linear-gradient-11);}.cls-24{fill:url(#linear-gradient-12);}.cls-25{fill:#00a79d;}.cls-26{fill:url(#linear-gradient-13);}.cls-27{fill:url(#linear-gradient-14);}.cls-28{fill:url(#linear-gradient-15);}.cls-30{fill:url(#linear-gradient-16);}.cls-31{fill:url(#linear-gradient-17);}.cls-32{fill:#2e3192;}.cls-33{fill:#d1d3d4;}.cls-34{fill:url(#linear-gradient-18);}.cls-35{fill:url(#linear-gradient-19);}.cls-36{fill:url(#linear-gradient-20);}.cls-37{fill:url(#linear-gradient-21);}.cls-38{fill:url(#linear-gradient-22);}.cls-39{fill:url(#linear-gradient-23);}.cls-40{fill:#f15a29;}.cls-41{fill:url(#linear-gradient-24);}.cls-42{fill:url(#linear-gradient-25);}.cls-43{fill:url(#linear-gradient-26);}.cls-44{fill:url(#linear-gradient-27);}.cls-45{fill:url(#linear-gradient-28);}.cls-46{fill:url(#linear-gradient-29);}.cls-47,.cls-52{fill:#a97c50;}.cls-48{fill:#8dc63f;}.cls-49{fill:url(#linear-gradient-30);}.cls-50{fill:url(#linear-gradient-31);}.cls-51{fill:url(#linear-gradient-32);}.cls-53{fill:url(#linear-gradient-33);}.cls-54{fill:url(#linear-gradient-34);}.cls-55{fill:url(#linear-gradient-35);}.cls-56{fill:#da1c5c;}.cls-57{fill:url(#linear-gradient-36);}.cls-58{fill:url(#linear-gradient-37);}.cls-59{fill:url(#linear-gradient-38);}.cls-60{fill:url(#linear-gradient-39);}.cls-61{fill:url(#linear-gradient-40);}.cls-62{fill:url(#linear-gradient-41);}.cls-63{fill:url(#linear-gradient-42);}.cls-64{fill:url(#linear-gradient-43);}.cls-65{fill:url(#linear-gradient-44);}.cls-66{fill:url(#linear-gradient-45);}.cls-67{fill:url(#linear-gradient-46);}.cls-68{fill:url(#linear-gradient-47);}.cls-69{fill:url(#linear-gradient-48);}.cls-70{fill:url(#linear-gradient-49);}.cls-71{fill:url(#linear-gradient-50);}.cls-72{fill:url(#linear-gradient-51);}.cls-73{fill:url(#linear-gradient-52);}.cls-74{fill:url(#linear-gradient-53);}.cls-75{fill:url(#linear-gradient-54);}.cls-76{fill:url(#linear-gradient-55);}.cls-77{fill:url(#linear-gradient-56);}.cls-78{fill:url(#linear-gradient-57);}.cls-79{fill:url(#linear-gradient-58);}.cls-80{fill:url(#linear-gradient-59);}.cls-81{fill:url(#linear-gradient-60);}.cls-82{fill:url(#linear-gradient-61);}.cls-83{fill:url(#linear-gradient-62);}.cls-84{fill:url(#linear-gradient-63);}.cls-85{fill:url(#linear-gradient-64);}.cls-86{fill:url(#linear-gradient-65);}.cls-87{fill:url(#linear-gradient-66);}.cls-88{fill:url(#linear-gradient-67);}.cls-89{fill:url(#linear-gradient-68);}.cls-90{fill:url(#linear-gradient-69);}.cls-91{fill:url(#linear-gradient-70);}.cls-92{fill:url(#linear-gradient-71);}.cls-93{fill:url(#linear-gradient-72);}.cls-94{fill:url(#linear-gradient-73);}.cls-95{fill:url(#linear-gradient-74);}.cls-96{fill:url(#linear-gradient-75);}.cls-97{fill:url(#linear-gradient-76);}.cls-98{fill:url(#linear-gradient-77);}.cls-99{fill:url(#linear-gradient-78);}.cls-100{fill:url(#linear-gradient-79);}</style><linearGradient id="linear-gradient" x1="872.87" y1="-196.49" x2="877.81" y2="-196.49" gradientTransform="matrix(0.99, -0.17, -0.17, -0.99, -785.9, 18.53)" gradientUnits="userSpaceOnUse"><stop offset="0" stop-color="#f1f2f2"/><stop offset="0.04" stop-color="#a7a9ac"/><stop offset="0.23" stop-color="#f1f2f2" stop-opacity="0"/></linearGradient><linearGradient id="linear-gradient-2" x1="19.92" y1="-197" x2="24.86" y2="-197" gradientTransform="translate(98.96 -133.11) rotate(170.31)" xlink:href="#linear-gradient"/><linearGradient id="linear-gradient-3" x1="22.39" y1="-187.25" x2="22.39" y2="-201.71" gradientTransform="translate(98.96 -133.11) rotate(170.31)" gradientUnits="userSpaceOnUse"><stop offset="0" stop-color="#a7a9ac"/><stop offset="0.62" stop-color="#f1f2f2" stop-opacity="0"/></linearGradient><linearGradient id="linear-gradient-4" x1="896.45" y1="435.04" x2="903.69" y2="435.04" gradientTransform="matrix(0, 1, 1, 0, -308.3, -828.62)" xlink:href="#linear-gradient"/><linearGradient id="linear-gradient-5" x1="-5.42" y1="435.04" x2="1.83" y2="435.04" gradientTransform="translate(-308.3 69.65) rotate(-90)" xlink:href="#linear-gradient"/><linearGradient id="linear-gradient-6" x1="-1.8" y1="447.33" x2="-1.8" y2="429.11" gradientTransform="translate(-308.3 69.65) rotate(-90)" xlink:href="#linear-gradient-3"/><linearGradient id="linear-gradient-7" x1="792.38" y1="63.79" x2="796.35" y2="63.79" gradientTransform="matrix(-1, 0, 0, 1, 898.27, 0)" xlink:href="#linear-gradient"/><linearGradient id="linear-gradient-8" x1="101.93" y1="63.79" x2="105.89" y2="63.79" gradientTransform="matrix(1, 0, 0, 1, 0, 0)" xlink:href="#linear-gradient"/><linearGradient id="linear-gradient-9" x1="103.91" y1="74.87" x2="103.91" y2="58.45" gradientTransform="matrix(1, 0, 0, 1, 0, 0)" xlink:href="#linear-gradient-3"/><linearGradient id="linear-gradient-10" x1="796.34" y1="63.79" x2="800.31" y2="63.79" gradientTransform="matrix(-1, 0, 0, 1, 898.27, 0)" xlink:href="#linear-gradient"/><linearGradient id="linear-gradient-11" x1="97.96" y1="63.79" x2="101.93" y2="63.79" gradientTransform="matrix(1, 0, 0, 1, 0, 0)" xlink:href="#linear-gradient"/><linearGradient id="linear-gradient-12" x1="99.95" y1="74.87" x2="99.95" y2="58.45" gradientTransform="matrix(1, 0, 0, 1, 0, 0)" xlink:href="#linear-gradient-3"/><linearGradient id="linear-gradient-13" x1="800.35" y1="62.9" x2="805.29" y2="62.9" gradientTransform="matrix(-1, 0, 0, 1, 898.27, 0)" xlink:href="#linear-gradient"/><linearGradient id="linear-gradient-14" x1="92.98" y1="62.9" x2="97.92" y2="62.9" gradientTransform="matrix(1, 0, 0, 1, 0, 0)" xlink:href="#linear-gradient"/><linearGradient id="linear-gradient-15" x1="95.45" y1="74.85" x2="95.45" y2="57.14" gradientTransform="matrix(1, 0, 0, 1, 0, 0)" xlink:href="#linear-gradient-3"/><linearGradient id="linear-gradient-16" x1="805.36" y1="67.11" x2="811.27" y2="67.11" gradientTransform="matrix(-1, 0, 0, 1, 898.27, 0)" xlink:href="#linear-gradient"/><linearGradient id="linear-gradient-17" x1="87" y1="67.11" x2="92.91" y2="67.11" gradientTransform="matrix(1, 0, 0, 1, 0, 0)" xlink:href="#linear-gradient"/><linearGradient id="linear-gradient-18" x1="811.27" y1="65.15" x2="816.21" y2="65.15" gradientTransform="matrix(-1, 0, 0, 1, 898.27, 0)" xlink:href="#linear-gradient"/><linearGradient id="linear-gradient-19" x1="82.06" y1="65.15" x2="87" y2="65.15" gradientTransform="matrix(1, 0, 0, 1, 0, 0)" xlink:href="#linear-gradient"/><linearGradient id="linear-gradient-20" x1="84.53" y1="74.9" x2="84.53" y2="60.44" gradientTransform="matrix(1, 0, 0, 1, 0, 0)" xlink:href="#linear-gradient-3"/><linearGradient id="linear-gradient-21" x1="847.13" y1="34.59" x2="854.37" y2="34.59" gradientTransform="matrix(-1, 0, 0, 1, 898.27, 0)" xlink:href="#linear-gradient"/><linearGradient id="linear-gradient-22" x1="43.9" y1="34.59" x2="51.14" y2="34.59" gradientTransform="matrix(1, 0, 0, 1, 0, 0)" xlink:href="#linear-gradient"/><linearGradient id="linear-gradient-23" x1="47.52" y1="46.88" x2="47.52" y2="28.66" gradientTransform="matrix(1, 0, 0, 1, 0, 0)" xlink:href="#linear-gradient-3"/><linearGradient id="linear-gradient-24" x1="854.35" y1="35.83" x2="858.32" y2="35.83" gradientTransform="matrix(-1, 0, 0, 1, 898.27, 0)" xlink:href="#linear-gradient"/><linearGradient id="linear-gradient-25" x1="39.95" y1="35.83" x2="43.92" y2="35.83" gradientTransform="matrix(1, 0, 0, 1, 0, 0)" xlink:href="#linear-gradient"/><linearGradient id="linear-gradient-26" x1="41.94" y1="46.91" x2="41.94" y2="30.49" gradientTransform="matrix(1, 0, 0, 1, 0, 0)" xlink:href="#linear-gradient-3"/><linearGradient id="linear-gradient-27" x1="858.31" y1="35.83" x2="862.28" y2="35.83" gradientTransform="matrix(-1, 0, 0, 1, 898.27, 0)" xlink:href="#linear-gradient"/><linearGradient id="linear-gradient-28" x1="35.99" y1="35.83" x2="39.96" y2="35.83" gradientTransform="matrix(1, 0, 0, 1, 0, 0)" xlink:href="#linear-gradient"/><linearGradient id="linear-gradient-29" x1="37.97" y1="46.91" x2="37.97" y2="30.49" gradientTransform="matrix(1, 0, 0, 1, 0, 0)" xlink:href="#linear-gradient-3"/><linearGradient id="linear-gradient-30" x1="349.37" y1="-173.9" x2="354.31" y2="-173.9" gradientTransform="matrix(1, 0, 0, -1, -318.36, -138.95)" xlink:href="#linear-gradient"/><linearGradient id="linear-gradient-31" x1="543.96" y1="-173.9" x2="548.9" y2="-173.9" gradientTransform="translate(579.91 -138.95) rotate(180)" xlink:href="#linear-gradient"/><linearGradient id="linear-gradient-32" x1="546.42" y1="-161.95" x2="546.42" y2="-179.66" gradientTransform="translate(579.91 -138.95) rotate(180)" xlink:href="#linear-gradient-3"/><linearGradient id="linear-gradient-33" x1="867.33" y1="39.15" x2="873.25" y2="39.15" gradientTransform="matrix(-1, 0, 0, 1, 898.27, 0)" xlink:href="#linear-gradient"/><linearGradient id="linear-gradient-34" x1="25.03" y1="39.15" x2="30.94" y2="39.15" gradientTransform="matrix(1, 0, 0, 1, 0, 0)" xlink:href="#linear-gradient"/><linearGradient id="linear-gradient-35" x1="27.98" y1="46.99" x2="27.98" y2="35.37" gradientTransform="matrix(1, 0, 0, 1, 0, 0)" xlink:href="#linear-gradient-3"/><linearGradient id="linear-gradient-36" x1="873.24" y1="37.19" x2="878.18" y2="37.19" gradientTransform="matrix(-1, 0, 0, 1, 898.27, 0)" xlink:href="#linear-gradient"/><linearGradient id="linear-gradient-37" x1="20.09" y1="37.19" x2="25.03" y2="37.19" gradientTransform="matrix(1, 0, 0, 1, 0, 0)" xlink:href="#linear-gradient"/><linearGradient id="linear-gradient-38" x1="22.56" y1="46.94" x2="22.56" y2="32.48" gradientTransform="matrix(1, 0, 0, 1, 0, 0)" xlink:href="#linear-gradient-3"/><linearGradient id="linear-gradient-39" x1="700.52" y1="-279.88" x2="705.46" y2="-279.88" gradientTransform="matrix(0.94, 0.34, 0.34, -0.94, -553.96, -462.49)" xlink:href="#linear-gradient"/><linearGradient id="linear-gradient-40" x1="193.28" y1="-279.86" x2="198.22" y2="-279.86" gradientTransform="matrix(-0.94, -0.34, 0.34, -0.94, 292.66, -160.96)" xlink:href="#linear-gradient"/><linearGradient id="linear-gradient-41" x1="195.75" y1="-270.1" x2="195.75" y2="-284.56" gradientTransform="matrix(-0.94, -0.34, 0.34, -0.94, 292.66, -160.96)" xlink:href="#linear-gradient-3"/><linearGradient id="linear-gradient-42" x1="920.79" y1="-185.86" x2="925.73" y2="-185.86" gradientTransform="matrix(0.71, -0.71, -0.71, -0.71, -628.31, 566.94)" xlink:href="#linear-gradient"/><linearGradient id="linear-gradient-43" x1="-28" y1="-186.37" x2="-23.06" y2="-186.37" gradientTransform="matrix(-0.71, 0.71, -0.71, -0.71, 5.01, -69.35)" xlink:href="#linear-gradient"/><linearGradient id="linear-gradient-44" x1="-25.53" y1="-176.62" x2="-25.53" y2="-191.08" gradientTransform="matrix(-0.71, 0.71, -0.71, -0.71, 5.01, -69.35)" xlink:href="#linear-gradient-3"/><linearGradient id="linear-gradient-45" x1="716.38" y1="41.79" x2="720.35" y2="41.79" gradientTransform="matrix(-1, 0, 0, 1, 898.27, 0)" xlink:href="#linear-gradient"/><linearGradient id="linear-gradient-46" x1="177.93" y1="41.79" x2="181.89" y2="41.79" gradientTransform="matrix(1, 0, 0, 1, 0, 0)" xlink:href="#linear-gradient"/><linearGradient id="linear-gradient-47" x1="179.91" y1="52.87" x2="179.91" y2="36.45" gradientTransform="matrix(1, 0, 0, 1, 0, 0)" xlink:href="#linear-gradient-3"/><linearGradient id="linear-gradient-48" x1="725.34" y1="41.79" x2="729.31" y2="41.79" gradientTransform="matrix(-1, 0, 0, 1, 898.27, 0)" xlink:href="#linear-gradient"/><linearGradient id="linear-gradient-49" x1="168.96" y1="41.79" x2="172.93" y2="41.79" gradientTransform="matrix(1, 0, 0, 1, 0, 0)" xlink:href="#linear-gradient"/><linearGradient id="linear-gradient-50" x1="170.95" y1="52.87" x2="170.95" y2="36.45" gradientTransform="matrix(1, 0, 0, 1, 0, 0)" xlink:href="#linear-gradient-3"/><linearGradient id="linear-gradient-51" x1="720.35" y1="40.9" x2="725.29" y2="40.9" gradientTransform="matrix(-1, 0, 0, 1, 898.27, 0)" xlink:href="#linear-gradient"/><linearGradient id="linear-gradient-52" x1="172.98" y1="40.9" x2="177.92" y2="40.9" gradientTransform="matrix(1, 0, 0, 1, 0, 0)" xlink:href="#linear-gradient"/><linearGradient id="linear-gradient-53" x1="175.45" y1="52.85" x2="175.45" y2="35.14" gradientTransform="matrix(1, 0, 0, 1, 0, 0)" xlink:href="#linear-gradient-3"/><linearGradient id="linear-gradient-54" x1="709.36" y1="45.11" x2="715.27" y2="45.11" gradientTransform="matrix(-1, 0, 0, 1, 898.27, 0)" xlink:href="#linear-gradient"/><linearGradient id="linear-gradient-55" x1="183" y1="45.11" x2="188.91" y2="45.11" gradientTransform="matrix(1, 0, 0, 1, 0, 0)" xlink:href="#linear-gradient"/><linearGradient id="linear-gradient-56" x1="729.27" y1="43.15" x2="734.21" y2="43.15" gradientTransform="matrix(-1, 0, 0, 1, 898.27, 0)" xlink:href="#linear-gradient"/><linearGradient id="linear-gradient-57" x1="164.06" y1="43.15" x2="169" y2="43.15" gradientTransform="matrix(1, 0, 0, 1, 0, 0)" xlink:href="#linear-gradient"/><linearGradient id="linear-gradient-58" x1="166.53" y1="52.9" x2="166.53" y2="38.44" gradientTransform="matrix(1, 0, 0, 1, 0, 0)" xlink:href="#linear-gradient-3"/><linearGradient id="linear-gradient-59" x1="802.13" y1="12.59" x2="809.37" y2="12.59" gradientTransform="matrix(-1, 0, 0, 1, 898.27, 0)" xlink:href="#linear-gradient"/><linearGradient id="linear-gradient-60" x1="88.9" y1="12.59" x2="96.14" y2="12.59" gradientTransform="matrix(1, 0, 0, 1, 0, 0)" xlink:href="#linear-gradient"/><linearGradient id="linear-gradient-61" x1="92.52" y1="24.88" x2="92.52" y2="6.66" gradientTransform="matrix(1, 0, 0, 1, 0, 0)" xlink:href="#linear-gradient-3"/><linearGradient id="linear-gradient-62" x1="781.35" y1="13.83" x2="785.32" y2="13.83" gradientTransform="matrix(-1, 0, 0, 1, 898.27, 0)" xlink:href="#linear-gradient"/><linearGradient id="linear-gradient-63" x1="112.95" y1="13.83" x2="116.92" y2="13.83" gradientTransform="matrix(1, 0, 0, 1, 0, 0)" xlink:href="#linear-gradient"/><linearGradient id="linear-gradient-64" x1="114.94" y1="24.91" x2="114.94" y2="8.49" gradientTransform="matrix(1, 0, 0, 1, 0, 0)" xlink:href="#linear-gradient-3"/><linearGradient id="linear-gradient-65" x1="797.31" y1="13.83" x2="801.28" y2="13.83" gradientTransform="matrix(-1, 0, 0, 1, 898.27, 0)" xlink:href="#linear-gradient"/><linearGradient id="linear-gradient-66" x1="96.99" y1="13.83" x2="100.96" y2="13.83" gradientTransform="matrix(1, 0, 0, 1, 0, 0)" xlink:href="#linear-gradient"/><linearGradient id="linear-gradient-67" x1="98.97" y1="24.91" x2="98.97" y2="8.49" gradientTransform="matrix(1, 0, 0, 1, 0, 0)" xlink:href="#linear-gradient-3"/><linearGradient id="linear-gradient-68" x1="425.37" y1="-151.9" x2="430.31" y2="-151.9" gradientTransform="matrix(1, 0, 0, -1, -318.36, -138.95)" xlink:href="#linear-gradient"/><linearGradient id="linear-gradient-69" x1="467.96" y1="-151.9" x2="472.9" y2="-151.9" gradientTransform="translate(579.91 -138.95) rotate(180)" xlink:href="#linear-gradient"/><linearGradient id="linear-gradient-70" x1="470.42" y1="-139.95" x2="470.42" y2="-157.66" gradientTransform="translate(579.91 -138.95) rotate(180)" xlink:href="#linear-gradient-3"/><linearGradient id="linear-gradient-71" x1="791.33" y1="17.15" x2="797.25" y2="17.15" gradientTransform="matrix(-1, 0, 0, 1, 898.27, 0)" xlink:href="#linear-gradient"/><linearGradient id="linear-gradient-72" x1="101.03" y1="17.15" x2="106.94" y2="17.15" gradientTransform="matrix(1, 0, 0, 1, 0, 0)" xlink:href="#linear-gradient"/><linearGradient id="linear-gradient-73" x1="103.98" y1="24.99" x2="103.98" y2="13.37" gradientTransform="matrix(1, 0, 0, 1, 0, 0)" xlink:href="#linear-gradient-3"/><linearGradient id="linear-gradient-74" x1="769.41" y1="7.05" x2="774.35" y2="7.05" gradientTransform="matrix(1, 0, 0, -1, -644.32, 29.24)" xlink:href="#linear-gradient"/><linearGradient id="linear-gradient-75" x1="123.92" y1="7.05" x2="128.86" y2="7.05" gradientTransform="translate(137.21 -104.03) rotate(91.18)" xlink:href="#linear-gradient"/><linearGradient id="linear-gradient-76" x1="126.39" y1="16.8" x2="126.39" y2="2.34" gradientTransform="translate(253.96 29.24) rotate(180)" xlink:href="#linear-gradient-3"/><linearGradient id="linear-gradient-77" x1="760.5" y1="-237.07" x2="765.44" y2="-237.07" gradientTransform="matrix(0.01, 1, 1, -0.01, 310.84, -741.36)" xlink:href="#linear-gradient"/><linearGradient id="linear-gradient-78" x1="133.3" y1="-237.04" x2="138.24" y2="-237.04" gradientTransform="translate(316.23 157.34) rotate(-90.35)" xlink:href="#linear-gradient"/><linearGradient id="linear-gradient-79" x1="135.77" y1="-227.29" x2="135.77" y2="-241.75" gradientTransform="translate(316.23 157.34) rotate(-90.35)" xlink:href="#linear-gradient-3"/></defs><title>books</title><g class="cls-1"><g id="Layer_2" data-name="Layer 2"><g id="books"><g id="books-2" data-name="books"><path class="cls-2" d="M81.25,78.85A15.15,15.15,0,0,1,66.12,63.72,12.72,12.72,0,0,0,54.29,51H0V49.82H52.82c8.34,0,15.13,3,15.13,11.32,0,7,5.7,16.52,12.7,16.52h65.68v1.22Z"/><path class="cls-3" d="M81.25,77.63A13.92,13.92,0,0,1,67.33,63.72,13.92,13.92,0,0,0,53.42,49.8v0H0V47.22H56A13.92,13.92,0,0,1,69.91,61.14,13.92,13.92,0,0,0,83.83,75.05h62.5v2.61Z"/><path class="cls-4" d="M106,55.52a.08.08,0,0,1,.07-.1l4.71-.81s.08,0,.09.08l3.34,19.51a.11.11,0,0,1-.07.11l-4.71.8a.08.08,0,0,1-.09-.08Z"/><path class="cls-5" d="M110.82,54.69s0-.09-.09-.08l-4.71.81a.08.08,0,0,0-.07.1L109.29,75a.08.08,0,0,0,.09.08l4.71-.8a.11.11,0,0,0,.07-.11Z"/><path class="cls-6" d="M106,55.52a.08.08,0,0,1,.07-.1l4.71-.81s.08,0,.09.08l3.34,19.51a.11.11,0,0,1-.07.11l-4.71.8a.08.08,0,0,1-.09-.08Z"/><path class="cls-7" d="M110.82,54.69s0-.09-.09-.08l-4.71.81a.08.08,0,0,0-.07.1L109.29,75a.08.08,0,0,0,.09.08l4.71-.8a.11.11,0,0,0,.07-.11Z"/><rect class="cls-8" x="108.9" y="58.51" width="1.55" height="13.78" transform="translate(-9.3 19.02) rotate(-9.51)"/><rect class="cls-8" x="111.46" y="66.58" width="1.12" height="4.77" transform="translate(-9.85 19.46) rotate(-9.51)"/><rect class="cls-9" x="114.16" y="67.83" width="25.18" height="7.25" rx="0.12" ry="0.12"/><rect class="cls-10" x="114.16" y="67.83" width="25.18" height="7.25" rx="0.12" ry="0.12"/><rect class="cls-11" x="114.16" y="67.83" width="25.18" height="7.25" rx="0.12" ry="0.12"/><rect class="cls-12" x="114.16" y="67.83" width="25.18" height="7.25" rx="0.12" ry="0.12"/><rect class="cls-13" x="119.4" y="67.83" width="0.58" height="7.25"/><g class="cls-14"><rect class="cls-15" x="134.65" y="67.83" width="1.94" height="7.25"/></g><rect class="cls-13" x="120.63" y="67.83" width="12.8" height="7.25"/><rect class="cls-13" x="115.77" y="70.81" width="1.66" height="3.65"/><rect class="cls-16" x="117.89" y="68.93" width="1.07" height="5.54"/><rect class="cls-16" x="121.29" y="70.58" width="11.39" height="2.25"/><path class="cls-17" d="M105.89,75c0,.06,0,.11-.06.11H102s-.06,0-.06-.11V52.56c0-.06,0-.11.06-.11h3.84s.06,0,.06.11Z"/><path class="cls-18" d="M101.93,75c0,.06,0,.11.06.11h3.84s.06,0,.06-.11V52.56c0-.06,0-.11-.06-.11H102s-.06,0-.06.11Z"/><path class="cls-19" d="M105.89,75c0,.06,0,.11-.06.11H102s-.06,0-.06-.11V52.56c0-.06,0-.11.06-.11h3.84s.06,0,.06.11Z"/><path class="cls-20" d="M101.93,75c0,.06,0,.11.06.11h3.84s.06,0,.06-.11V52.56c0-.06,0-.11-.06-.11H102s-.06,0-.06.11Z"/><rect class="cls-21" x="102.42" y="53.79" width="2.91" height="3.84"/><rect class="cls-17" x="102.85" y="55.47" width="2.2" height="0.86"/><rect class="cls-17" x="102.91" y="54.63" width="1.11" height="0.55"/><rect class="cls-21" x="103.13" y="59.98" width="1.68" height="11.64"/><path class="cls-17" d="M101.93,75c0,.06,0,.11-.07.11H98S98,75.09,98,75V52.56c0-.06,0-.11.07-.11h3.83s.07,0,.07.11Z"/><path class="cls-22" d="M98,75c0,.06,0,.11.07.11h3.83s.07,0,.07-.11V52.56c0-.06,0-.11-.07-.11H98s-.07,0-.07.11Z"/><path class="cls-23" d="M101.93,75c0,.06,0,.11-.07.11H98S98,75.09,98,75V52.56c0-.06,0-.11.07-.11h3.83s.07,0,.07.11Z"/><path class="cls-24" d="M98,75c0,.06,0,.11.07.11h3.83s.07,0,.07-.11V52.56c0-.06,0-.11-.07-.11H98s-.07,0-.07.11Z"/><rect class="cls-25" x="98.45" y="53.79" width="2.91" height="3.84"/><rect class="cls-17" x="98.88" y="55.47" width="2.28" height="0.79"/><rect class="cls-17" x="98.88" y="54.8" width="0.93" height="0.43"/><rect class="cls-25" x="99.16" y="59.98" width="1.47" height="11.58"/><path class="cls-8" d="M97.92,75c0,.07,0,.12-.08.12H93.07S93,75.09,93,75V50.79c0-.07,0-.12.09-.12h4.77s.08,0,.08.12Z"/><path class="cls-26" d="M93,75c0,.07,0,.12.09.12h4.77s.08,0,.08-.12V50.79c0-.07,0-.12-.08-.12H93.07s-.09,0-.09.12Z"/><path class="cls-27" d="M97.92,75c0,.07,0,.12-.08.12H93.07S93,75.09,93,75V50.79c0-.07,0-.12.09-.12h4.77s.08,0,.08.12Z"/><path class="cls-28" d="M93,75c0,.07,0,.12.09.12h4.77s.08,0,.08-.12V50.79c0-.07,0-.12-.08-.12H93.07s-.09,0-.09.12Z"/><rect class="cls-29" x="92.98" y="53.46" width="4.94" height="1.77"/><rect class="cls-29" x="92.98" y="71.73" width="4.94" height="0.74"/><rect class="cls-13" x="94.46" y="56.39" width="1.98" height="14.48"/><path class="cls-15" d="M92.91,75.06a.09.09,0,0,1-.1.08H87.1c-.06,0-.1,0-.1-.08V59.16a.09.09,0,0,1,.1-.08h5.71a.1.1,0,0,1,.1.08Z"/><path class="cls-30" d="M87,75.06s0,.08.1.08h5.71a.09.09,0,0,0,.1-.08V59.16a.1.1,0,0,0-.1-.08H87.1a.09.09,0,0,0-.1.08Z"/><path class="cls-31" d="M92.91,75.06a.09.09,0,0,1-.1.08H87.1c-.06,0-.1,0-.1-.08V59.16a.09.09,0,0,1,.1-.08h5.71a.1.1,0,0,1,.1.08Z"/><path class="cls-32" d="M87,75.06s0,.08.1.08h5.71a.09.09,0,0,0,.1-.08V59.16a.1.1,0,0,0-.1-.08H87.1a.09.09,0,0,0-.1.08Z"/><rect class="cls-33" x="87" y="59.52" width="5.91" height="0.46"/><rect class="cls-33" x="87" y="60.22" width="5.91" height="0.46"/><rect class="cls-33" x="87" y="60.91" width="5.91" height="0.46"/><rect class="cls-33" x="87" y="61.61" width="5.91" height="0.46"/><rect class="cls-33" x="87" y="62.31" width="5.91" height="0.46"/><rect class="cls-33" x="87" y="63.01" width="5.91" height="0.46"/><rect class="cls-33" x="87" y="63.71" width="5.91" height="0.46"/><rect class="cls-33" x="87" y="64.4" width="5.91" height="0.46"/><rect class="cls-33" x="87" y="65.1" width="5.91" height="0.46"/><rect class="cls-33" x="87" y="65.8" width="5.91" height="0.46"/><rect class="cls-33" x="87" y="66.5" width="5.91" height="0.46"/><rect class="cls-33" x="87" y="67.2" width="5.91" height="0.46"/><rect class="cls-33" x="87" y="67.89" width="5.91" height="0.46"/><rect class="cls-33" x="87" y="68.59" width="5.91" height="0.46"/><rect class="cls-33" x="87" y="69.29" width="5.91" height="0.46"/><rect class="cls-33" x="87" y="69.99" width="5.91" height="0.46"/><rect class="cls-33" x="87" y="70.68" width="5.91" height="0.46"/><rect class="cls-33" x="87" y="71.38" width="5.91" height="0.46"/><rect class="cls-33" x="87" y="72.08" width="5.91" height="0.46"/><rect class="cls-33" x="87" y="72.78" width="5.91" height="0.46"/><rect class="cls-33" x="87" y="73.48" width="5.91" height="0.46"/><rect class="cls-33" x="87" y="74.17" width="5.91" height="0.46"/><rect class="cls-16" x="89.95" y="61.04" width="2.4" height="9.86"/><rect class="cls-16" x="87.76" y="61.04" width="1.24" height="4.19"/><path class="cls-25" d="M87,75a.09.09,0,0,1-.08.1H82.14a.09.09,0,0,1-.08-.1V55.26a.09.09,0,0,1,.08-.1h4.78a.09.09,0,0,1,.08.1Z"/><path class="cls-34" d="M82.06,75a.09.09,0,0,0,.08.1h4.78A.09.09,0,0,0,87,75V55.26a.09.09,0,0,0-.08-.1H82.14a.09.09,0,0,0-.08.1Z"/><path class="cls-35" d="M87,75a.09.09,0,0,1-.08.1H82.14a.09.09,0,0,1-.08-.1V55.26a.09.09,0,0,1,.08-.1h4.78a.09.09,0,0,1,.08.1Z"/><path class="cls-36" d="M82.06,75a.09.09,0,0,0,.08.1h4.78A.09.09,0,0,0,87,75V55.26a.09.09,0,0,0-.08-.1H82.14a.09.09,0,0,0-.08.1Z"/><rect class="cls-8" x="84.22" y="61.17" width="1.88" height="11.11"/><rect class="cls-8" x="82.66" y="61.17" width="0.99" height="3.98"/><rect class="cls-9" x="43.9" y="22" width="7.25" height="25.18" rx="0.12" ry="0.12"/><rect class="cls-37" x="43.9" y="22" width="7.25" height="25.18" rx="0.12" ry="0.12"/><rect class="cls-38" x="43.9" y="22" width="7.25" height="25.18" rx="0.12" ry="0.12"/><rect class="cls-39" x="43.9" y="22" width="7.25" height="25.18" rx="0.12" ry="0.12"/><rect class="cls-40" x="43.9" y="27.24" width="7.25" height="0.58"/><g class="cls-14"><rect class="cls-15" x="43.9" y="42.5" width="7.25" height="1.94"/></g><rect class="cls-40" x="43.9" y="28.47" width="7.25" height="12.8"/><rect class="cls-16" x="46.78" y="29.2" width="1.46" height="11.04"/><rect class="cls-16" x="44.68" y="26.08" width="5.66" height="0.62"/><rect class="cls-40" x="44.68" y="23.59" width="3.52" height="1.82"/><path class="cls-17" d="M43.92,47.07c0,.06,0,.11-.06.11H40s-.07,0-.07-.11V24.6c0-.06,0-.11.07-.11h3.84s.06.05.06.11Z"/><path class="cls-41" d="M40,47.07c0,.06,0,.11.07.11h3.84s.06,0,.06-.11V24.6c0-.06,0-.11-.06-.11H40s-.07.05-.07.11Z"/><path class="cls-42" d="M43.92,47.07c0,.06,0,.11-.06.11H40s-.07,0-.07-.11V24.6c0-.06,0-.11.07-.11h3.84s.06.05.06.11Z"/><path class="cls-43" d="M40,47.07c0,.06,0,.11.07.11h3.84s.06,0,.06-.11V24.6c0-.06,0-.11-.06-.11H40s-.07.05-.07.11Z"/><rect class="cls-4" x="40.45" y="25.83" width="2.91" height="3.84"/><rect class="cls-4" x="41.18" y="32.54" width="1.62" height="11.33"/><rect class="cls-17" x="40.9" y="27.48" width="2.16" height="1.15"/><rect class="cls-17" x="40.9" y="26.61" width="1.09" height="0.42"/><path class="cls-17" d="M40,47.07c0,.06,0,.11-.07.11H36.06s-.07,0-.07-.11V24.6c0-.06,0-.11.07-.11h3.83s.07.05.07.11Z"/><path class="cls-44" d="M36,47.07c0,.06,0,.11.07.11h3.83s.07,0,.07-.11V24.6c0-.06,0-.11-.07-.11H36.06s-.07.05-.07.11Z"/><path class="cls-45" d="M40,47.07c0,.06,0,.11-.07.11H36.06s-.07,0-.07-.11V24.6c0-.06,0-.11.07-.11h3.83s.07.05.07.11Z"/><path class="cls-46" d="M36,47.07c0,.06,0,.11.07.11h3.83s.07,0,.07-.11V24.6c0-.06,0-.11-.07-.11H36.06s-.07.05-.07.11Z"/><rect class="cls-47" x="36.48" y="25.83" width="2.91" height="3.84"/><rect class="cls-47" x="36.94" y="32.42" width="1.88" height="11.65"/><rect class="cls-17" x="36.88" y="27.5" width="2.25" height="0.88"/><rect class="cls-17" x="36.89" y="26.72" width="0.95" height="0.42"/><path class="cls-48" d="M31,22.83c0-.07,0-.12.08-.12h4.78s.08.05.08.12V47.06c0,.07,0,.12-.08.12H31.09s-.08,0-.08-.12Z"/><path class="cls-49" d="M36,22.83c0-.07,0-.12-.08-.12H31.09s-.08.05-.08.12V47.06c0,.07,0,.12.08.12h4.78s.08,0,.08-.12Z"/><path class="cls-50" d="M31,22.83c0-.07,0-.12.08-.12h4.78s.08.05.08.12V47.06c0,.07,0,.12-.08.12H31.09s-.08,0-.08-.12Z"/><path class="cls-51" d="M36,22.83c0-.07,0-.12-.08-.12H31.1c-.05,0-.09.05-.09.12V47.06c0,.07,0,.12.09.12h4.77c.05,0,.08,0,.08-.12Z"/><rect class="cls-52" x="31.01" y="42.61" width="4.94" height="1.77"/><rect class="cls-52" x="31.01" y="25.86" width="4.94" height="0.52"/><rect class="cls-52" x="31.01" y="25.14" width="4.94" height="0.52"/><rect class="cls-17" x="32.76" y="27.2" width="1.46" height="14.65"/><path class="cls-15" d="M30.94,47.1a.1.1,0,0,1-.1.08H25.13a.09.09,0,0,1-.1-.08V31.2a.09.09,0,0,1,.1-.08h5.71a.1.1,0,0,1,.1.08Z"/><path class="cls-53" d="M25,47.1a.09.09,0,0,0,.1.08h5.71a.1.1,0,0,0,.1-.08V31.2a.1.1,0,0,0-.1-.08H25.13a.09.09,0,0,0-.1.08Z"/><path class="cls-54" d="M30.94,47.1a.1.1,0,0,1-.1.08H25.13a.09.09,0,0,1-.1-.08V31.2a.09.09,0,0,1,.1-.08h5.71a.1.1,0,0,1,.1.08Z"/><path class="cls-55" d="M25,47.1a.09.09,0,0,0,.1.08h5.71a.1.1,0,0,0,.1-.08V31.2a.1.1,0,0,0-.1-.08H25.13a.09.09,0,0,0-.1.08Z"/><rect class="cls-33" x="25.03" y="31.56" width="5.91" height="0.46"/><rect class="cls-33" x="25.03" y="32.26" width="5.91" height="0.46"/><rect class="cls-33" x="25.03" y="32.95" width="5.91" height="0.46"/><rect class="cls-33" x="25.03" y="33.65" width="5.91" height="0.46"/><rect class="cls-33" x="25.03" y="34.35" width="5.91" height="0.46"/><rect class="cls-33" x="25.03" y="35.05" width="5.91" height="0.46"/><rect class="cls-33" x="25.03" y="35.74" width="5.91" height="0.46"/><rect class="cls-33" x="25.03" y="36.44" width="5.91" height="0.46"/><rect class="cls-33" x="25.03" y="37.14" width="5.91" height="0.46"/><rect class="cls-33" x="25.03" y="37.84" width="5.91" height="0.46"/><rect class="cls-33" x="25.03" y="38.54" width="5.91" height="0.46"/><rect class="cls-33" x="25.03" y="39.23" width="5.91" height="0.46"/><rect class="cls-33" x="25.03" y="39.93" width="5.91" height="0.46"/><rect class="cls-33" x="25.03" y="40.63" width="5.91" height="0.46"/><rect class="cls-33" x="25.03" y="41.33" width="5.91" height="0.46"/><rect class="cls-33" x="25.03" y="42.03" width="5.91" height="0.46"/><rect class="cls-33" x="25.03" y="42.72" width="5.91" height="0.46"/><rect class="cls-33" x="25.03" y="43.42" width="5.91" height="0.46"/><rect class="cls-33" x="25.03" y="44.12" width="5.91" height="0.46"/><rect class="cls-33" x="25.03" y="44.82" width="5.91" height="0.46"/><rect class="cls-33" x="25.03" y="45.52" width="5.91" height="0.46"/><rect class="cls-33" x="25.03" y="46.21" width="5.91" height="0.46"/><rect class="cls-16" x="27.51" y="33.33" width="2.49" height="11.17"/><rect class="cls-16" x="25.99" y="33.31" width="0.79" height="3.14"/><path class="cls-56" d="M25,47.08a.09.09,0,0,1-.08.1H20.17a.09.09,0,0,1-.08-.1V27.29a.09.09,0,0,1,.08-.09H25a.09.09,0,0,1,.08.09Z"/><path class="cls-57" d="M20.09,47.08a.09.09,0,0,0,.08.1H25a.09.09,0,0,0,.08-.1V27.29A.09.09,0,0,0,25,27.2H20.17a.09.09,0,0,0-.08.09Z"/><path class="cls-58" d="M25,47.08a.09.09,0,0,1-.08.1H20.17a.09.09,0,0,1-.08-.1V27.29a.09.09,0,0,1,.08-.09H25a.09.09,0,0,1,.08.09Z"/><path class="cls-59" d="M20.09,47.08a.09.09,0,0,0,.08.1H25a.09.09,0,0,0,.08-.1V27.29A.09.09,0,0,0,25,27.2H20.17a.09.09,0,0,0-.08.09Z"/><rect class="cls-8" x="22.07" y="31.53" width="1.8" height="10.88"/><rect class="cls-8" x="20.9" y="31.56" width="0.73" height="3.49"/><path class="cls-4" d="M15.37,26.85a.1.1,0,0,1,.11-.06l4.5,1.6a.09.09,0,0,1,0,.12L13.39,47.15a.09.09,0,0,1-.11.06l-4.5-1.6a.09.09,0,0,1,0-.11Z"/><path class="cls-60" d="M20,28.51a.09.09,0,0,0,0-.12l-4.5-1.6a.1.1,0,0,0-.11.06L8.73,45.5a.09.09,0,0,0,0,.11l4.5,1.6a.09.09,0,0,0,.11-.06Z"/><path class="cls-61" d="M15.37,26.85a.1.1,0,0,1,.11-.06l4.5,1.6a.09.09,0,0,1,0,.12L13.39,47.15a.09.09,0,0,1-.11.06l-4.5-1.6a.08.08,0,0,1,0-.11Z"/><path class="cls-62" d="M20,28.51a.09.09,0,0,0,0-.12l-4.5-1.6a.1.1,0,0,0-.11.06L8.73,45.5a.08.08,0,0,0,0,.11l4.5,1.6a.09.09,0,0,0,.11-.06Z"/><rect class="cls-8" x="12.64" y="31.09" width="2.12" height="10.96" transform="translate(13.19 -2.48) rotate(19.8)"/><rect class="cls-8" x="13.82" y="39.09" width="1.1" height="3.43" transform="translate(14.67 -2.46) rotate(19.8)"/><path class="cls-2" d="M157.25,56.85a15.15,15.15,0,0,1-15.13-15.13A12.72,12.72,0,0,0,130.29,29H76V27.82h52.82c8.34,0,15.13,3,15.13,11.32,0,7,5.7,16.52,12.7,16.52h36.68v1.22S169.81,56.85,157.25,56.85Z"/><path class="cls-3" d="M157.25,55.63a13.92,13.92,0,0,1-13.92-13.91A13.92,13.92,0,0,0,129.42,27.8v0H76V25.22h56a13.92,13.92,0,0,1,13.91,13.92,13.92,13.92,0,0,0,13.92,13.91h33.5v2.61S170,55.63,157.25,55.63Z"/><path class="cls-4" d="M146.3,38.89a.09.09,0,0,1,0-.13l3.37-3.38a.09.09,0,0,1,.13,0l14,14a.09.09,0,0,1,0,.12l-3.37,3.39a.11.11,0,0,1-.13,0Z"/><path class="cls-63" d="M149.79,35.39a.09.09,0,0,0-.13,0l-3.37,3.38a.09.09,0,0,0,0,.13l14,14a.11.11,0,0,0,.13,0l3.37-3.39a.09.09,0,0,0,0-.12Z"/><path class="cls-64" d="M146.3,38.89a.09.09,0,0,1,0-.13l3.37-3.38a.09.09,0,0,1,.13,0l14,14a.09.09,0,0,1,0,.12l-3.37,3.39a.11.11,0,0,1-.13,0Z"/><path class="cls-65" d="M149.79,35.39a.09.09,0,0,0-.13,0l-3.37,3.38a.09.09,0,0,0,0,.13l14,14a.11.11,0,0,0,.13,0l3.37-3.39a.09.09,0,0,0,0-.12Z"/><rect class="cls-8" x="154.28" y="37.9" width="1.55" height="13.78" transform="translate(13.64 122.56) rotate(-44.92)"/><rect class="cls-8" x="158.47" y="43.94" width="1.12" height="4.77" transform="translate(13.71 125.82) rotate(-44.92)"/><path class="cls-17" d="M181.89,53c0,.06,0,.11-.06.11H178s-.06,0-.06-.11V30.56c0-.06,0-.11.06-.11h3.84s.06.05.06.11Z"/><path class="cls-66" d="M177.93,53c0,.06,0,.11.06.11h3.84s.06,0,.06-.11V30.56c0-.06,0-.11-.06-.11H178s-.06.05-.06.11Z"/><path class="cls-67" d="M181.89,53c0,.06,0,.11-.06.11H178s-.06,0-.06-.11V30.56c0-.06,0-.11.06-.11h3.84s.06.05.06.11Z"/><path class="cls-68" d="M177.93,53c0,.06,0,.11.06.11h3.84s.06,0,.06-.11V30.56c0-.06,0-.11-.06-.11H178s-.06.05-.06.11Z"/><rect class="cls-21" x="178.42" y="31.79" width="2.91" height="3.84"/><rect class="cls-17" x="178.85" y="33.47" width="2.2" height="0.86"/><rect class="cls-17" x="178.91" y="32.63" width="1.11" height="0.55"/><rect class="cls-21" x="179.13" y="37.98" width="1.68" height="11.64"/><path class="cls-17" d="M172.93,53c0,.06,0,.11-.07.11H169s-.07,0-.07-.11V30.56c0-.06,0-.11.07-.11h3.83s.07.05.07.11Z"/><path class="cls-69" d="M169,53c0,.06,0,.11.07.11h3.83s.07,0,.07-.11V30.56c0-.06,0-.11-.07-.11H169s-.07.05-.07.11Z"/><path class="cls-70" d="M172.93,53c0,.06,0,.11-.07.11H169s-.07,0-.07-.11V30.56c0-.06,0-.11.07-.11h3.83s.07.05.07.11Z"/><path class="cls-71" d="M169,53c0,.06,0,.11.07.11h3.83s.07,0,.07-.11V30.56c0-.06,0-.11-.07-.11H169s-.07.05-.07.11Z"/><rect class="cls-25" x="169.45" y="31.79" width="2.91" height="3.84"/><rect class="cls-17" x="169.88" y="33.47" width="2.28" height="0.79"/><rect class="cls-17" x="169.88" y="32.8" width="0.93" height="0.43"/><rect class="cls-25" x="170.16" y="37.98" width="1.47" height="11.58"/><path class="cls-8" d="M177.92,53c0,.07,0,.12-.08.12h-4.77s-.09,0-.09-.12V28.79c0-.07,0-.12.09-.12h4.77s.08,0,.08.12Z"/><path class="cls-72" d="M173,53c0,.07,0,.12.09.12h4.77s.08,0,.08-.12V28.79c0-.07,0-.12-.08-.12h-4.77s-.09,0-.09.12Z"/><path class="cls-73" d="M177.92,53c0,.07,0,.12-.08.12h-4.77s-.09,0-.09-.12V28.79c0-.07,0-.12.09-.12h4.77s.08,0,.08.12Z"/><path class="cls-74" d="M173,53c0,.07,0,.12.09.12h4.77s.08,0,.08-.12V28.79c0-.07,0-.12-.08-.12h-4.77s-.09,0-.09.12Z"/><rect class="cls-29" x="172.98" y="31.46" width="4.94" height="1.77"/><rect class="cls-29" x="172.98" y="49.73" width="4.94" height="0.74"/><rect class="cls-13" x="174.46" y="34.39" width="1.98" height="14.48"/><path class="cls-15" d="M188.91,53.06a.09.09,0,0,1-.1.08H183.1c-.06,0-.1,0-.1-.08V37.16a.09.09,0,0,1,.1-.08h5.71a.1.1,0,0,1,.1.08Z"/><path class="cls-75" d="M183,53.06s0,.08.1.08h5.71a.09.09,0,0,0,.1-.08V37.16a.1.1,0,0,0-.1-.08H183.1a.09.09,0,0,0-.1.08Z"/><path class="cls-76" d="M188.91,53.06a.09.09,0,0,1-.1.08H183.1c-.06,0-.1,0-.1-.08V37.16a.09.09,0,0,1,.1-.08h5.71a.1.1,0,0,1,.1.08Z"/><path class="cls-32" d="M183,53.06s0,.08.1.08h5.71a.09.09,0,0,0,.1-.08V37.16a.1.1,0,0,0-.1-.08H183.1a.09.09,0,0,0-.1.08Z"/><rect class="cls-33" x="183" y="37.52" width="5.91" height="0.46"/><rect class="cls-33" x="183" y="38.22" width="5.91" height="0.46"/><rect class="cls-33" x="183" y="38.91" width="5.91" height="0.46"/><rect class="cls-33" x="183" y="39.61" width="5.91" height="0.46"/><rect class="cls-33" x="183" y="40.31" width="5.91" height="0.46"/><rect class="cls-33" x="183" y="41.01" width="5.91" height="0.46"/><rect class="cls-33" x="183" y="41.71" width="5.91" height="0.46"/><rect class="cls-33" x="183" y="42.4" width="5.91" height="0.46"/><rect class="cls-33" x="183" y="43.1" width="5.91" height="0.46"/><rect class="cls-33" x="183" y="43.8" width="5.91" height="0.46"/><rect class="cls-33" x="183" y="44.5" width="5.91" height="0.46"/><rect class="cls-33" x="183" y="45.2" width="5.91" height="0.46"/><rect class="cls-33" x="183" y="45.89" width="5.91" height="0.46"/><rect class="cls-33" x="183" y="46.59" width="5.91" height="0.46"/><rect class="cls-33" x="183" y="47.29" width="5.91" height="0.46"/><rect class="cls-33" x="183" y="47.99" width="5.91" height="0.46"/><rect class="cls-33" x="183" y="48.68" width="5.91" height="0.46"/><rect class="cls-33" x="183" y="49.38" width="5.91" height="0.46"/><rect class="cls-33" x="183" y="50.08" width="5.91" height="0.46"/><rect class="cls-33" x="183" y="50.78" width="5.91" height="0.46"/><rect class="cls-33" x="183" y="51.48" width="5.91" height="0.46"/><rect class="cls-33" x="183" y="52.17" width="5.91" height="0.46"/><rect class="cls-16" x="185.95" y="39.04" width="2.4" height="9.86"/><rect class="cls-16" x="183.76" y="39.04" width="1.24" height="4.19"/><path class="cls-25" d="M169,53a.09.09,0,0,1-.08.1h-4.78a.09.09,0,0,1-.08-.1V33.26a.09.09,0,0,1,.08-.1h4.78a.09.09,0,0,1,.08.1Z"/><path class="cls-77" d="M164.06,53a.09.09,0,0,0,.08.1h4.78A.09.09,0,0,0,169,53V33.26a.09.09,0,0,0-.08-.1h-4.78a.09.09,0,0,0-.08.1Z"/><path class="cls-78" d="M169,53a.09.09,0,0,1-.08.1h-4.78a.09.09,0,0,1-.08-.1V33.26a.09.09,0,0,1,.08-.1h4.78a.09.09,0,0,1,.08.1Z"/><path class="cls-79" d="M164.06,53a.09.09,0,0,0,.08.1h4.78A.09.09,0,0,0,169,53V33.26a.09.09,0,0,0-.08-.1h-4.78a.09.09,0,0,0-.08.1Z"/><rect class="cls-8" x="166.22" y="39.17" width="1.88" height="11.11"/><rect class="cls-8" x="164.66" y="39.17" width="0.99" height="3.98"/><rect class="cls-9" x="88.9" width="7.25" height="25.18" rx="0.12" ry="0.12"/><rect class="cls-80" x="88.9" width="7.25" height="25.18" rx="0.12" ry="0.12"/><rect class="cls-81" x="88.9" width="7.25" height="25.18" rx="0.12" ry="0.12"/><rect class="cls-82" x="88.9" width="7.25" height="25.18" rx="0.12" ry="0.12"/><rect class="cls-40" x="88.9" y="5.24" width="7.25" height="0.58"/><g class="cls-14"><rect class="cls-15" x="88.9" y="20.5" width="7.25" height="1.94"/></g><rect class="cls-40" x="88.9" y="6.47" width="7.25" height="12.8"/><rect class="cls-16" x="91.78" y="7.2" width="1.46" height="11.04"/><rect class="cls-16" x="89.68" y="4.08" width="5.66" height="0.62"/><rect class="cls-40" x="89.68" y="1.59" width="3.52" height="1.82"/><path class="cls-17" d="M116.92,25.07c0,.06,0,.11-.06.11H113s-.07-.05-.07-.11V2.6c0-.06,0-.11.07-.11h3.84s.06,0,.06.11Z"/><path class="cls-83" d="M113,25.07c0,.06,0,.11.07.11h3.84s.06-.05.06-.11V2.6c0-.06,0-.11-.06-.11H113s-.07,0-.07.11Z"/><path class="cls-84" d="M116.92,25.07c0,.06,0,.11-.06.11H113s-.07-.05-.07-.11V2.6c0-.06,0-.11.07-.11h3.84s.06,0,.06.11Z"/><path class="cls-85" d="M113,25.07c0,.06,0,.11.07.11h3.84s.06-.05.06-.11V2.6c0-.06,0-.11-.06-.11H113s-.07,0-.07.11Z"/><rect class="cls-4" x="113.45" y="3.83" width="2.91" height="3.84"/><rect class="cls-4" x="114.18" y="10.54" width="1.62" height="11.33"/><rect class="cls-17" x="113.9" y="5.48" width="2.16" height="1.15"/><rect class="cls-17" x="113.9" y="4.61" width="1.09" height="0.42"/><path class="cls-17" d="M101,25.07c0,.06,0,.11-.07.11H97.06s-.07-.05-.07-.11V2.6c0-.06,0-.11.07-.11h3.83s.07,0,.07.11Z"/><path class="cls-86" d="M97,25.07c0,.06,0,.11.07.11h3.83s.07-.05.07-.11V2.6c0-.06,0-.11-.07-.11H97.06s-.07,0-.07.11Z"/><path class="cls-87" d="M101,25.07c0,.06,0,.11-.07.11H97.06s-.07-.05-.07-.11V2.6c0-.06,0-.11.07-.11h3.83s.07,0,.07.11Z"/><path class="cls-88" d="M97,25.07c0,.06,0,.11.07.11h3.83s.07-.05.07-.11V2.6c0-.06,0-.11-.07-.11H97.06s-.07,0-.07.11Z"/><rect class="cls-47" x="97.48" y="3.83" width="2.91" height="3.84"/><rect class="cls-47" x="97.94" y="10.42" width="1.88" height="11.65"/><rect class="cls-17" x="97.88" y="5.5" width="2.25" height="0.88"/><rect class="cls-17" x="97.89" y="4.72" width="0.95" height="0.42"/><path class="cls-48" d="M107,.83c0-.07,0-.12.08-.12h4.78s.08.05.08.12V25.06c0,.07,0,.12-.08.12h-4.78s-.08-.05-.08-.12Z"/><path class="cls-89" d="M112,.83c0-.07,0-.12-.08-.12h-4.78s-.08.05-.08.12V25.06c0,.07,0,.12.08.12h4.78s.08-.05.08-.12Z"/><path class="cls-90" d="M107,.83c0-.07,0-.12.08-.12h4.78s.08.05.08.12V25.06c0,.07,0,.12-.08.12h-4.78s-.08-.05-.08-.12Z"/><path class="cls-91" d="M112,.83c0-.07,0-.12-.08-.12H107.1s-.09.05-.09.12V25.06c0,.07,0,.12.09.12h4.77s.08-.05.08-.12Z"/><rect class="cls-52" x="107.01" y="20.61" width="4.94" height="1.77"/><rect class="cls-52" x="107.01" y="3.86" width="4.94" height="0.52"/><rect class="cls-52" x="107.01" y="3.14" width="4.94" height="0.52"/><rect class="cls-17" x="108.76" y="5.2" width="1.46" height="14.65"/><path class="cls-15" d="M106.94,25.1a.1.1,0,0,1-.1.08h-5.71a.09.09,0,0,1-.1-.08V9.2a.09.09,0,0,1,.1-.08h5.71a.1.1,0,0,1,.1.08Z"/><path class="cls-92" d="M101,25.1a.09.09,0,0,0,.1.08h5.71a.1.1,0,0,0,.1-.08V9.2a.1.1,0,0,0-.1-.08h-5.71a.09.09,0,0,0-.1.08Z"/><path class="cls-93" d="M106.94,25.1a.1.1,0,0,1-.1.08h-5.71a.09.09,0,0,1-.1-.08V9.2a.09.09,0,0,1,.1-.08h5.71a.1.1,0,0,1,.1.08Z"/><path class="cls-94" d="M101,25.1a.09.09,0,0,0,.1.08h5.71a.1.1,0,0,0,.1-.08V9.2a.1.1,0,0,0-.1-.08h-5.71a.09.09,0,0,0-.1.08Z"/><rect class="cls-33" x="101.03" y="9.56" width="5.91" height="0.46"/><rect class="cls-33" x="101.03" y="10.26" width="5.91" height="0.46"/><rect class="cls-33" x="101.03" y="10.95" width="5.91" height="0.46"/><rect class="cls-33" x="101.03" y="11.65" width="5.91" height="0.46"/><rect class="cls-33" x="101.03" y="12.35" width="5.91" height="0.46"/><rect class="cls-33" x="101.03" y="13.05" width="5.91" height="0.46"/><rect class="cls-33" x="101.03" y="13.74" width="5.91" height="0.46"/><rect class="cls-33" x="101.03" y="14.44" width="5.91" height="0.46"/><rect class="cls-33" x="101.03" y="15.14" width="5.91" height="0.46"/><rect class="cls-33" x="101.03" y="15.84" width="5.91" height="0.46"/><rect class="cls-33" x="101.03" y="16.54" width="5.91" height="0.46"/><rect class="cls-33" x="101.03" y="17.23" width="5.91" height="0.46"/><rect class="cls-33" x="101.03" y="17.93" width="5.91" height="0.46"/><rect class="cls-33" x="101.03" y="18.63" width="5.91" height="0.46"/><rect class="cls-33" x="101.03" y="19.33" width="5.91" height="0.46"/><rect class="cls-33" x="101.03" y="20.03" width="5.91" height="0.46"/><rect class="cls-33" x="101.03" y="20.72" width="5.91" height="0.46"/><rect class="cls-33" x="101.03" y="21.42" width="5.91" height="0.46"/><rect class="cls-33" x="101.03" y="22.12" width="5.91" height="0.46"/><rect class="cls-33" x="101.03" y="22.82" width="5.91" height="0.46"/><rect class="cls-33" x="101.03" y="23.52" width="5.91" height="0.46"/><rect class="cls-33" x="101.03" y="24.21" width="5.91" height="0.46"/><rect class="cls-16" x="103.51" y="11.33" width="2.49" height="11.17"/><rect class="cls-16" x="101.99" y="11.31" width="0.79" height="3.14"/><path class="cls-56" d="M117.62,24.45c-.06,0-.1,0-.1-.08l.1-4.77a.08.08,0,0,1,.1-.08l19.78.4a.09.09,0,0,1,.1.09l-.1,4.77s0,.08-.1.08Z"/><rect class="cls-95" x="125.09" y="12.2" width="4.94" height="19.98" rx="0.1" ry="0.1" transform="translate(102.75 149.27) rotate(-88.82)"/><path class="cls-96" d="M117.62,24.45c-.06,0-.1,0-.1-.08l.1-4.77a.08.08,0,0,1,.1-.08l19.78.4a.09.09,0,0,1,.1.09l-.1,4.77s0,.08-.1.08Z"/><rect class="cls-97" x="125.09" y="12.2" width="4.94" height="19.98" rx="0.1" ry="0.1" transform="translate(102.75 149.27) rotate(-88.82)"/><rect class="cls-8" x="126.87" y="17.16" width="1.8" height="10.88" transform="translate(153 -104.68) rotate(91.18)"/><rect class="cls-8" x="131.11" y="19.22" width="0.73" height="3.49" transform="translate(155.14 -110.05) rotate(91.18)"/><path class="cls-4" d="M88.26,20.47a.09.09,0,0,1,.09.08l0,4.78a.08.08,0,0,1-.09.08l-19.79.12a.09.09,0,0,1-.1-.08l0-4.77a.1.1,0,0,1,.1-.09Z"/><path class="cls-98" d="M88.29,25.41a.08.08,0,0,0,.09-.08l0-4.78a.09.09,0,0,0-.09-.08l-19.79.12a.1.1,0,0,0-.1.09l0,4.77a.09.09,0,0,0,.1.08Z"/><path class="cls-99" d="M88.26,20.47a.09.09,0,0,1,.09.08l0,4.78a.08.08,0,0,1-.09.08l-19.79.12a.09.09,0,0,1-.1-.08l0-4.77a.1.1,0,0,1,.1-.09Z"/><path class="cls-100" d="M88.29,25.41a.08.08,0,0,0,.09-.08l0-4.78a.09.09,0,0,0-.09-.08l-19.79.12a.1.1,0,0,0-.1.09l0,4.77a.09.09,0,0,0,.1.08Z"/><rect class="cls-8" x="77.5" y="16.74" width="2.12" height="10.96" transform="translate(100.57 -56.4) rotate(89.85)"/><rect class="cls-8" x="74.25" y="22.58" width="1.1" height="3.43" transform="translate(98.9 -50.57) rotate(89.85)"/></g></g></g></g></svg>