<svg id="roomCactus" class="room-svg room-cactus closed" data-name="Cactus" data-description="This is a cactus." data-cost="250" data-buyed="0" xmlns="http://www.w3.org/2000/svg" viewBox="0 0 36.51 47.44"><defs><style>.cls-1{isolation:isolate;}.cls-2,.cls-33{mix-blend-mode:multiply;}.cls-3,.cls-31{fill:#fff;}.cls-3{opacity:0;}.cls-4{fill:#f8f7f7;opacity:0.05;}.cls-5{fill:#f2f0f0;opacity:0.1;}.cls-6{fill:#ebe8e8;opacity:0.14;}.cls-7{fill:#e4e1e1;opacity:0.19;}.cls-8{fill:#ded9d9;opacity:0.24;}.cls-9{fill:#d7d2d2;opacity:0.29;}.cls-10{fill:#d0caca;opacity:0.33;}.cls-11{fill:#cac3c3;opacity:0.38;}.cls-12{fill:#c3bbbb;opacity:0.43;}.cls-13{fill:#bcb4b4;opacity:0.48;}.cls-14{fill:#b6acac;opacity:0.52;}.cls-15{fill:#afa5a5;opacity:0.57;}.cls-16{fill:#a89d9d;opacity:0.62;}.cls-17{fill:#a29696;opacity:0.67;}.cls-18{fill:#9b8e8e;opacity:0.71;}.cls-19{fill:#948787;opacity:0.76;}.cls-20{fill:#8e7f7f;opacity:0.81;}.cls-21{fill:#877878;opacity:0.86;}.cls-22{fill:#807070;opacity:0.9;}.cls-23{fill:#7a6969;opacity:0.95;}.cls-24{fill:#736161;}.cls-25{fill:#fbbe00;}.cls-26{fill:#98b22b;}.cls-27{fill:#6f9b37;}.cls-28{fill:#a0c32e;}.cls-29{fill:#76aa3a;}.cls-30{fill:#ffde83;}.cls-32{fill:#e5835a;}.cls-33{fill:#d1d3d4;}</style></defs><title>cactus</title><g class="cls-1"><g id="Layer_2" data-name="Layer 2"><g id="cactus"><g id="cactus-2" data-name="cactus"><g class="cls-2"><path class="cls-3" d="M36.4,43.9c0,2-7.48,3.54-16.71,3.54S3,45.86,3,43.9s7.48-3.53,16.7-3.53S36.4,42,36.4,43.9Z"/><path class="cls-4" d="M35.62,43.9c0,1.86-7.13,3.37-15.93,3.37S3.77,45.76,3.77,43.9s7.13-3.37,15.92-3.37S35.62,42,35.62,43.9Z"/><path class="cls-5" d="M34.85,43.9c0,1.77-6.79,3.2-15.16,3.2S4.54,45.67,4.54,43.9s6.79-3.2,15.15-3.2S34.85,42.13,34.85,43.9Z"/><path class="cls-6" d="M34.07,43.9c0,1.68-6.44,3-14.38,3s-14.37-1.35-14.37-3,6.44-3,14.37-3S34.07,42.23,34.07,43.9Z"/><path class="cls-7" d="M33.29,43.9c0,1.58-6.09,2.87-13.6,2.87S6.1,45.48,6.1,43.9,12.19,41,19.69,41,33.29,42.32,33.29,43.9Z"/><path class="cls-8" d="M32.51,43.9c0,1.49-5.74,2.7-12.82,2.7S6.88,45.39,6.88,43.9s5.73-2.69,12.81-2.69S32.51,42.41,32.51,43.9Z"/><path class="cls-9" d="M31.74,43.9c0,1.4-5.39,2.53-12,2.53s-12-1.13-12-2.53,5.39-2.53,12-2.53S31.74,42.51,31.74,43.9Z"/><path class="cls-10" d="M31,43.9c0,1.31-5,2.36-11.27,2.36s-11.26-1-11.26-2.36,5-2.36,11.26-2.36S31,42.6,31,43.9Z"/><path class="cls-11" d="M30.18,43.9c0,1.21-4.69,2.19-10.49,2.19s-10.48-1-10.48-2.19,4.69-2.19,10.48-2.19S30.18,42.69,30.18,43.9Z"/><path class="cls-12" d="M29.4,43.9c0,1.12-4.34,2-9.71,2S10,45,10,43.9s4.35-2,9.71-2S29.4,42.78,29.4,43.9Z"/><path class="cls-13" d="M28.63,43.9c0,1-4,1.86-8.94,1.86s-8.93-.83-8.93-1.86,4-1.85,8.93-1.85S28.63,42.88,28.63,43.9Z"/><path class="cls-14" d="M27.85,43.9c0,.93-3.65,1.69-8.16,1.69s-8.15-.76-8.15-1.69,3.65-1.69,8.15-1.69S27.85,43,27.85,43.9Z"/><path class="cls-15" d="M27.07,43.9c0,.84-3.3,1.52-7.38,1.52s-7.37-.68-7.37-1.52,3.3-1.52,7.37-1.52S27.07,43.06,27.07,43.9Z"/><path class="cls-16" d="M26.3,43.9c0,.75-3,1.35-6.61,1.35s-6.6-.6-6.6-1.35,3-1.35,6.6-1.35S26.3,43.16,26.3,43.9Z"/><path class="cls-17" d="M25.52,43.9c0,.66-2.61,1.19-5.83,1.19s-5.82-.53-5.82-1.19,2.61-1.18,5.82-1.18S25.52,43.25,25.52,43.9Z"/><path class="cls-18" d="M24.74,43.9c0,.56-2.26,1-5,1s-5-.46-5-1,2.26-1,5-1S24.74,43.34,24.74,43.9Z"/><path class="cls-19" d="M24,43.9c0,.47-1.91.85-4.27.85s-4.26-.38-4.26-.85,1.91-.85,4.26-.85S24,43.43,24,43.9Z"/><path class="cls-20" d="M23.19,43.9c0,.38-1.57.68-3.5.68s-3.49-.3-3.49-.68,1.57-.68,3.49-.68S23.19,43.53,23.19,43.9Z"/><path class="cls-21" d="M22.41,43.9c0,.29-1.22.51-2.72.51S17,44.19,17,43.9s1.22-.51,2.71-.51S22.41,43.62,22.41,43.9Z"/><path class="cls-22" d="M21.63,43.9c0,.19-.87.35-1.94.35s-1.93-.16-1.93-.35.87-.34,1.93-.34S21.63,43.71,21.63,43.9Z"/><path class="cls-23" d="M20.85,43.9c0,.1-.52.18-1.16.18s-1.15-.08-1.15-.18.51-.17,1.15-.17S20.85,43.8,20.85,43.9Z"/><path class="cls-24" d="M20.08,43.9h0Z"/></g><path class="cls-25" d="M36.42,1.94c-.28-.14-1.16.54-2.09,1.58C34.79,2.24,35.4.13,35.11,0S33.65,1.87,33,3.19C33,1.6,32.88.64,32.57.54s-.78.93-.81,2.73a10.33,10.33,0,0,0,.33,3.11c0,.2.06.33.15.37h.12a.15.15,0,0,0,.08.12C32.77,7,33.93,6.06,35,4.7S36.75,2.11,36.42,1.94Z"/><path class="cls-25" d="M3.26,11.36c-.26.17-.14,1.27.26,2.61C2.68,12.91,1.19,11.3.93,11.48s.83,2.22,1.64,3.43c-1.36-.81-2.26-1.2-2.51-1S.45,15.07,2,16A9.79,9.79,0,0,0,4.8,17.37c.18.1.32.12.4.06a.15.15,0,0,0,.06-.09.17.17,0,0,0,.14,0c.32-.2.09-1.69-.5-3.34S3.58,11.17,3.26,11.36Z"/><path class="cls-26" d="M32.42,15.42a17.89,17.89,0,0,1-3.8,4.9c-2.79,2.51-2.87,1.62-4.07,1s-1.78-.57-1.46-3a23.52,23.52,0,0,1,1.75-6.68C26.91,6.5,31,3.38,33.08,4.39c1.9.93,1.76,3.46,1.41,5.21A21.5,21.5,0,0,1,32.42,15.42Z"/><path class="cls-27" d="M32.13,4.2a3.27,3.27,0,0,0-.51.07,47.46,47.46,0,0,0-8.38,13.05c-.06.35-.1.7-.15,1.06,0,.11,0,.21,0,.31A46.65,46.65,0,0,1,32.13,4.2Z"/><path class="cls-27" d="M24.27,21.22C27,16.83,31.68,8,33.46,4.62a2.61,2.61,0,0,0-.28-.17C31.39,7.84,26.68,16.72,24,21.08Z"/><path class="cls-27" d="M27.34,21.37c3.23-4.35,6-11,7.3-14.58a4.13,4.13,0,0,0-.13-.61c-1.29,3.59-4.39,11.2-8,15.67A4.38,4.38,0,0,0,27.34,21.37Z"/><path class="cls-26" d="M7.6,25.32a17.87,17.87,0,0,0,5,3.62c3.4,1.61,3.22.73,4.2-.17s1.55-1.06.56-3.27a23.71,23.71,0,0,0-3.58-5.9c-3.47-4.4-8.29-6.23-10-4.66s-.69,3.82.14,5.39A21.1,21.1,0,0,0,7.6,25.32Z"/><path class="cls-27" d="M4.68,14.49a3.86,3.86,0,0,1,.51-.09A47.92,47.92,0,0,1,16.94,24.53l.45,1,.12.29A46.63,46.63,0,0,0,4.68,14.49Z"/><path class="cls-27" d="M17.06,28.56C13.2,25.13,6.2,18,3.53,15.27A1.71,1.71,0,0,1,3.75,15c2.67,2.74,9.72,9.91,13.56,13.32Z"/><path class="cls-27" d="M14.17,29.58C9.83,26.33,5.31,20.78,3,17.68c0-.21,0-.42,0-.62,2.27,3.07,7.4,9.49,12.1,12.75A4.17,4.17,0,0,1,14.17,29.58Z"/><path class="cls-25" d="M23.24,3.87c-.48,0-1.3,1.43-2,3.44-.11-2-.51-5.36-1-5.36s-.93,3.46-1,5.67c-1-2.2-1.71-3.47-2.22-3.43s-.52,1.76.5,4.29a15.1,15.1,0,0,0,2.3,4.14c.13.27.28.43.43.43a.39.39,0,0,0,.17-.06.29.29,0,0,0,.18.11c.56,0,1.6-2,2.33-4.55S23.8,3.9,23.24,3.87Z"/><path class="cls-28" d="M20,8.42c-5.41,0-10.79,6.47-9.79,14.32a22.39,22.39,0,0,0,3.2,9.52c1.8,3.23,3.08,2.85,6.14,2.85h.89c3.07,0,4.35.38,6.14-2.85a22.39,22.39,0,0,0,3.2-9.52C30.79,14.89,25.41,8.42,20,8.42Z"/><path class="cls-29" d="M23.29,35.05A3.84,3.84,0,0,0,24,34.9c2-13.8.09-22.16-1.22-25.93a6.75,6.75,0,0,0-.83-.28C23.19,12.13,25.38,20.68,23.29,35.05Z"/><path class="cls-29" d="M26,11.17c1.27,5.48,2.34,14,.07,21.88a9.13,9.13,0,0,0,.48-.79q.38-.66.72-1.32c1.4-6.78.61-13.82-.45-18.87A11.85,11.85,0,0,0,26,11.17Z"/><path class="cls-29" d="M18.08,8.69a6.62,6.62,0,0,0-.82.28C15.94,12.74,14.06,21.1,16,34.9a3.84,3.84,0,0,0,.69.15C14.64,20.69,16.82,12.13,18.08,8.69Z"/><path class="cls-29" d="M14,11.17a11.85,11.85,0,0,0-.82.9,48,48,0,0,0-.45,18.87c.23.44.48.88.72,1.32s.32.56.48.79C11.63,25.15,12.7,16.65,14,11.17Z"/><path class="cls-29" d="M19.67,35.11h.67V8.43h-.67Z"/><path class="cls-30" d="M19,9.57l1.28,1.85H20L21,9.58a0,0,0,0,1,.05,0s0,0,0,0l-.85,2-.14.32L20,11.6l-1.05-2s0,0,0,0A0,0,0,0,1,19,9.57Z"/><path class="cls-30" d="M20,11.51l.1-3.39a0,0,0,0,1,0,0s0,0,0,0l.1,3.39a.14.14,0,1,1-.27,0Z"/><path class="cls-30" d="M19,14.63l1.28,1.58H20L21,14.63s0,0,.05,0,0,0,0,0l-.85,1.69-.14.27L20,16.36l-1.05-1.7a0,0,0,0,1,0,0S19,14.61,19,14.63Z"/><path class="cls-30" d="M20,16.28l.1-2.89a0,0,0,0,1,0,0s0,0,0,0l.1,2.89a.12.12,0,0,1-.13.12.13.13,0,0,1-.14-.11Z"/><path class="cls-30" d="M19,19.29l1.28,1.58H20L21,19.3s0,0,.05,0,0,0,0,0L20.26,21l-.14.28L20,21l-1.05-1.69s0,0,0,0Z"/><path class="cls-30" d="M20,21l.1-2.9s0,0,0,0a0,0,0,0,1,0,0l.1,2.9a.13.13,0,0,1-.13.12A.13.13,0,0,1,20,21Z"/><path class="cls-30" d="M19,24.41,20.25,26H20L21,24.41s0,0,.05,0,0,0,0,0l-.85,1.69-.14.27L20,26.14l-1.05-1.7s0,0,0,0S19,24.39,19,24.41Z"/><path class="cls-30" d="M20,26.06l.1-2.9s0,0,0,0a0,0,0,0,1,0,0l.1,2.9a.12.12,0,0,1-.13.12.13.13,0,0,1-.14-.11Z"/><path class="cls-30" d="M19,29.19l1.28,1.57H20L21,29.19s0,0,.05,0,0,0,0,0l-.85,1.69-.14.27L20,30.92l-1.05-1.7s0,0,0,0S19,29.17,19,29.19Z"/><path class="cls-30" d="M20,30.84l.1-2.9s0,0,0,0a0,0,0,0,1,0,0l.1,2.9a.12.12,0,0,1-.13.12.13.13,0,0,1-.14-.11Z"/><path class="cls-30" d="M23,10.19l.56,2.18-.28-.09,1.66-1.37a0,0,0,0,1,.06,0s0,0,0,.05l-1.48,1.56-.24.25,0-.35-.3-2.22a.05.05,0,0,1,0-.05S23,10.17,23,10.19Z"/><path class="cls-30" d="M23.27,12.35l1.27-3.14s0,0,.05,0a.08.08,0,0,1,0,0l-1.09,3.22a.13.13,0,1,1-.25-.09Z"/><path class="cls-30" d="M26.47,13.4l.68,1.84-.28-.1,1.54-1a0,0,0,0,1,.05,0,0,0,0,0,1,0,0l-1.35,1.2-.21.19-.07-.29-.43-1.86s0,0,0,0S26.46,13.39,26.47,13.4Z"/><path class="cls-30" d="M26.86,15.21l1-2.53a0,0,0,0,1,.05,0s0,0,0,0l-.85,2.59a.11.11,0,0,1-.16.06.13.13,0,0,1-.1-.15Z"/><path class="cls-30" d="M27.1,17.68l.68,1.84-.28-.09,1.54-1s0,0,.05,0a0,0,0,0,1,0,0l-1.35,1.2-.22.19-.06-.29L27,17.69s0,0,0,0S27.09,17.67,27.1,17.68Z"/><path class="cls-30" d="M27.49,19.49l1-2.53a0,0,0,0,1,0,0s0,0,0,0l-.85,2.59a.14.14,0,0,1-.26-.09Z"/><path class="cls-30" d="M27.51,22.91l.68,1.84-.28-.1,1.54-1s0,0,.05,0a0,0,0,0,1,0,0l-1.35,1.2-.22.19-.06-.29-.43-1.86s0,0,0,0S27.5,22.9,27.51,22.91Z"/><path class="cls-30" d="M27.9,24.72l1-2.53a0,0,0,0,1,0,0s0,0,0,0l-.85,2.59a.14.14,0,0,1-.26-.09Z"/><path class="cls-30" d="M27.1,27.52l.68,1.84-.28-.1,1.54-1s0,0,.05,0a0,0,0,0,1,0,0l-1.35,1.2-.22.19-.06-.29L27,27.53s0,0,0,0A.09.09,0,0,1,27.1,27.52Z"/><path class="cls-30" d="M27.49,29.33l1-2.53a0,0,0,0,1,0,0s0,0,0,0l-.85,2.59a.14.14,0,0,1-.26-.09Z"/><path class="cls-30" d="M23.65,14.88l.68,1.84-.28-.1,1.53-1a0,0,0,0,1,.06,0,0,0,0,0,1,0,0l-1.35,1.2-.22.19L24,16.75l-.44-1.86s0,0,0,0A.09.09,0,0,1,23.65,14.88Z"/><path class="cls-30" d="M24,16.69l1-2.53s0,0,.05,0a.05.05,0,0,1,0,0l-.85,2.59a.13.13,0,0,1-.17.06.12.12,0,0,1-.09-.15Z"/><path class="cls-30" d="M23.65,19.22l.68,1.84L24.05,21l1.53-1a0,0,0,0,1,.06,0,0,0,0,0,1,0,0l-1.35,1.2-.22.19L24,21.09l-.44-1.86a0,0,0,0,1,0,0S23.64,19.21,23.65,19.22Z"/><path class="cls-30" d="M24,21l1-2.53s0,0,.05,0a.08.08,0,0,1,0,0l-.85,2.59a.13.13,0,0,1-.17.06A.12.12,0,0,1,24,21Z"/><path class="cls-30" d="M23.87,24.17,24.55,26l-.28-.1,1.54-1a0,0,0,0,1,.05,0,0,0,0,0,1,0,0l-1.35,1.2-.21.19L24.23,26l-.43-1.86s0,0,0,0S23.86,24.16,23.87,24.17Z"/><path class="cls-30" d="M24.26,26l1-2.53a0,0,0,0,1,.05,0s0,0,0,0l-.85,2.59a.11.11,0,0,1-.16.06.12.12,0,0,1-.1-.15Z"/><path class="cls-30" d="M23.63,28.47l.69,1.84-.29-.1,1.54-1a0,0,0,0,1,.06,0,0,0,0,0,1,0,0l-1.35,1.2-.22.19L24,30.34l-.43-1.86s0,0,0,0S23.63,28.45,23.63,28.47Z"/><path class="cls-30" d="M24,30.28l1-2.53s0,0,0,0,0,0,0,0l-.85,2.59a.13.13,0,0,1-.17.06.12.12,0,0,1-.09-.15Z"/><path class="cls-30" d="M13,27.52l-.69,1.84.28-.1-1.53-1a0,0,0,0,0-.06,0,0,0,0,0,0,0,0l1.35,1.2.22.19.06-.29L13,27.53s0,0,0,0A0,0,0,0,0,13,27.52Z"/><path class="cls-30" d="M12.56,29.33l-1-2.53s0,0,0,0,0,0,0,0l.85,2.59a.13.13,0,0,0,.17.06.12.12,0,0,0,.09-.15Z"/><path class="cls-30" d="M16.42,28.47l-.69,1.84.29-.1-1.54-1s0,0-.05,0a0,0,0,0,0,0,0l1.34,1.2.22.19.07-.29.43-1.86s0,0,0,0S16.42,28.45,16.42,28.47Z"/><path class="cls-30" d="M16,30.28l-1-2.53a0,0,0,0,0-.05,0s0,0,0,0l.86,2.59a.11.11,0,0,0,.16.06.13.13,0,0,0,.1-.15Z"/><path class="cls-30" d="M12.49,22.91l-.68,1.84.28-.1-1.54-1a0,0,0,0,0-.05,0,0,0,0,0,0,0,0l1.35,1.2.21.19.07-.29.43-1.86s0,0,0,0S12.5,22.9,12.49,22.91Z"/><path class="cls-30" d="M12.1,24.72l-1-2.53a0,0,0,0,0-.05,0s0,0,0,0l.85,2.59a.11.11,0,0,0,.16.06.13.13,0,0,0,.1-.15Z"/><path class="cls-30" d="M16.13,24.17,15.44,26l.29-.1-1.54-1s0,0,0,0a0,0,0,0,0,0,0l1.34,1.2.22.19.07-.29.43-1.86a0,0,0,0,0,0,0A0,0,0,0,0,16.13,24.17Z"/><path class="cls-30" d="M15.73,26l-1-2.53s0,0,0,0,0,0,0,0l.86,2.59a.11.11,0,0,0,.16.06.13.13,0,0,0,.1-.15Z"/><path class="cls-30" d="M17,10.19l-.56,2.18.28-.09-1.66-1.37a0,0,0,0,0-.06,0s0,0,0,.05l1.48,1.56.24.25,0-.35.3-2.22a.05.05,0,0,0,0-.05S17,10.17,17,10.19Z"/><path class="cls-30" d="M16.74,12.35,15.47,9.21s0,0,0,0a.05.05,0,0,0,0,0l1.09,3.22a.14.14,0,0,0,.17.09.16.16,0,0,0,.09-.18Z"/><path class="cls-30" d="M13.54,13.4l-.68,1.84.28-.1-1.54-1a0,0,0,0,0,0,0,0,0,0,0,0,0,0l1.35,1.2.21.19.07-.29.43-1.86s0,0,0,0S13.55,13.39,13.54,13.4Z"/><path class="cls-30" d="M13.15,15.21l-1-2.53a0,0,0,0,0,0,0s0,0,0,0l.85,2.59a.11.11,0,0,0,.16.06.12.12,0,0,0,.1-.15Z"/><path class="cls-30" d="M13,17.77l-.68,1.84.28-.09-1.54-1s0,0-.05,0a0,0,0,0,0,0,0l1.35,1.2.21.19.07-.28.43-1.87s0,0,0,0Z"/><path class="cls-30" d="M12.61,19.58l-1-2.52s0,0-.05,0,0,0,0,0l.85,2.6a.12.12,0,0,0,.16.06c.07,0,.12-.09.1-.15Z"/><path class="cls-30" d="M16.56,15l-.69,1.84.29-.09-1.54-1s0,0,0,0a0,0,0,0,0,0,0l1.34,1.2.22.19.07-.28L16.63,15a0,0,0,0,0,0,0S16.56,15,16.56,15Z"/><path class="cls-30" d="M16.16,16.78l-1-2.52a0,0,0,0,0-.05,0,.05.05,0,0,0,0,0l.86,2.6a.13.13,0,0,0,.16.06c.07,0,.12-.09.1-.15Z"/><path class="cls-30" d="M16.56,19.22l-.69,1.84.29-.09-1.54-1a0,0,0,0,0,0,0,0,0,0,0,0,0,0l1.34,1.2.22.19.07-.29.43-1.86a0,0,0,0,0,0,0A0,0,0,0,0,16.56,19.22Z"/><path class="cls-30" d="M16.16,21l-1-2.53a0,0,0,0,0-.05,0,.05.05,0,0,0,0,0l.86,2.59a.11.11,0,0,0,.16.06c.07,0,.12-.09.1-.14Z"/><polygon class="cls-31" points="26.86 42.59 13.15 42.59 10.91 31.95 29.1 31.95 26.86 42.59"/><path class="cls-32" d="M20.34,36.08a10.15,10.15,0,0,0-8.69-.73l1.5,7.16s.32,1.91,6.86,1.91,6.85-1.91,6.85-1.91L28,37.22A11,11,0,0,1,20.34,36.08Z"/><path class="cls-33" d="M10.91,32l.19.89h6.64A2.27,2.27,0,0,1,20,35.11s-.51,7.35,0,9.33c6.48-.16,6.85-1.85,6.85-1.85L29.1,32Z"/></g></g></g></g></svg>