<svg id="roomChair" class="room-svg room-chair closed" data-name="Chair" data-description="This is a chair." data-cost="250" data-buyed="0" xmlns="http://www.w3.org/2000/svg" viewBox="0 0 95.41 129.71"><defs><style>.cls-1{isolation:isolate;}.cls-2{mix-blend-mode:multiply;}.cls-3{fill:#fff;opacity:0;}.cls-4{fill:#f8f7f7;opacity:0.05;}.cls-5{fill:#f2f0f0;opacity:0.1;}.cls-6{fill:#ebe8e8;opacity:0.14;}.cls-7{fill:#e4e1e1;opacity:0.19;}.cls-8{fill:#ded9d9;opacity:0.24;}.cls-9{fill:#d7d2d2;opacity:0.29;}.cls-10{fill:#d0caca;opacity:0.33;}.cls-11{fill:#cac3c3;opacity:0.38;}.cls-12{fill:#c3bbbb;opacity:0.43;}.cls-13{fill:#bcb4b4;opacity:0.48;}.cls-14{fill:#b6acac;opacity:0.52;}.cls-15{fill:#afa5a5;opacity:0.57;}.cls-16{fill:#a89d9d;opacity:0.62;}.cls-17{fill:#a29696;opacity:0.67;}.cls-18{fill:#9b8e8e;opacity:0.71;}.cls-19{fill:#948787;opacity:0.76;}.cls-20{fill:#8e7f7f;opacity:0.81;}.cls-21{fill:#877878;opacity:0.86;}.cls-22{fill:#807070;opacity:0.9;}.cls-23{fill:#7a6969;opacity:0.95;}.cls-24{fill:#736161;}.cls-25{fill:#574d5e;}.cls-26{fill:#b7bebc;}.cls-27{fill:#7f8a99;}.cls-28{fill:#443635;}.cls-29{fill:#423a47;}.cls-30{fill:#b8cc27;}.cls-31{fill:#466d2d;}.cls-32{fill:#3c5929;}.cls-33{fill:#87a143;}.cls-34{fill:#49414f;}</style></defs><title>chair</title><g class="cls-1"><g id="Layer_2" data-name="Layer 2"><g id="chair"><g id="chair-2" data-name="chair"><g class="cls-2"><path class="cls-3" d="M95.41,117.9c0,5.58-21.36,10.1-47.7,10.1S0,123.48,0,117.9s21.36-10.1,47.71-10.1S95.41,112.33,95.41,117.9Z"/><path class="cls-4" d="M93.19,117.9c0,5.31-20.36,9.62-45.48,9.62S2.22,123.21,2.22,117.9s20.36-9.62,45.49-9.62S93.19,112.59,93.19,117.9Z"/><path class="cls-5" d="M91,117.9C91,123,71.6,127,47.71,127S4.44,123,4.44,117.9s19.37-9.14,43.27-9.14S91,112.86,91,117.9Z"/><path class="cls-6" d="M88.75,117.9c0,4.78-18.37,8.66-41,8.66s-41-3.88-41-8.66,18.38-8.66,41.05-8.66S88.75,113.12,88.75,117.9Z"/><path class="cls-7" d="M86.53,117.9c0,4.52-17.38,8.18-38.82,8.18S8.88,122.42,8.88,117.9s17.38-8.18,38.83-8.18S86.53,113.39,86.53,117.9Z"/><path class="cls-8" d="M84.31,117.9c0,4.26-16.39,7.7-36.6,7.7s-36.61-3.44-36.61-7.7,16.39-7.7,36.61-7.7S84.31,113.65,84.31,117.9Z"/><path class="cls-9" d="M82.09,117.9c0,4-15.39,7.22-34.38,7.22s-34.39-3.23-34.39-7.22,15.39-7.22,34.39-7.22S82.09,113.91,82.09,117.9Z"/><path class="cls-10" d="M79.87,117.9c0,3.73-14.4,6.74-32.16,6.74s-32.17-3-32.17-6.74,14.4-6.74,32.17-6.74S79.87,114.18,79.87,117.9Z"/><path class="cls-11" d="M77.65,117.9c0,3.46-13.4,6.26-29.94,6.26s-29.95-2.8-29.95-6.26,13.41-6.26,30-6.26S77.65,114.44,77.65,117.9Z"/><path class="cls-12" d="M75.43,117.9c0,3.2-12.41,5.78-27.72,5.78S20,121.1,20,117.9s12.41-5.78,27.73-5.78S75.43,114.71,75.43,117.9Z"/><path class="cls-13" d="M73.21,117.9c0,2.93-11.42,5.3-25.5,5.3s-25.51-2.37-25.51-5.3,11.42-5.3,25.51-5.3S73.21,115,73.21,117.9Z"/><path class="cls-14" d="M71,117.9c0,2.67-10.42,4.82-23.28,4.82s-23.29-2.15-23.29-4.82,10.42-4.82,23.29-4.82S71,115.24,71,117.9Z"/><path class="cls-15" d="M68.77,117.9c0,2.4-9.43,4.34-21.06,4.34s-21.07-1.94-21.07-4.34,9.43-4.34,21.07-4.34S68.77,115.5,68.77,117.9Z"/><path class="cls-16" d="M66.55,117.9c0,2.14-8.43,3.86-18.84,3.86S28.86,120,28.86,117.9,37.3,114,47.71,114,66.55,115.77,66.55,117.9Z"/><path class="cls-17" d="M64.34,117.9c0,1.87-7.45,3.38-16.63,3.38s-16.63-1.51-16.63-3.38,7.44-3.38,16.63-3.38S64.34,116,64.34,117.9Z"/><path class="cls-18" d="M62.12,117.9c0,1.61-6.46,2.91-14.41,2.91s-14.41-1.3-14.41-2.91,6.45-2.9,14.41-2.9S62.12,116.3,62.12,117.9Z"/><path class="cls-19" d="M59.9,117.9c0,1.34-5.46,2.43-12.19,2.43s-12.19-1.09-12.19-2.43,5.45-2.42,12.19-2.42S59.9,116.56,59.9,117.9Z"/><path class="cls-20" d="M57.68,117.9c0,1.08-4.47,1.95-10,1.95s-10-.87-10-1.95,4.46-1.94,10-1.94S57.68,116.83,57.68,117.9Z"/><path class="cls-21" d="M55.46,117.9c0,.81-3.47,1.47-7.75,1.47S40,118.71,40,117.9s3.47-1.46,7.75-1.46S55.46,117.09,55.46,117.9Z"/><path class="cls-22" d="M53.24,117.9c0,.55-2.48,1-5.53,1s-5.53-.44-5.53-1,2.47-1,5.53-1S53.24,117.36,53.24,117.9Z"/><path class="cls-23" d="M51,117.9c0,.28-1.49.51-3.31.51s-3.31-.23-3.31-.51,1.48-.5,3.31-.5S51,117.62,51,117.9Z"/><path class="cls-24" d="M48.8,117.9a9,9,0,0,1-1.09,0,8.89,8.89,0,0,1-1.09,0s.48,0,1.09,0S48.8,117.89,48.8,117.9Z"/></g><path class="cls-25" d="M40.74,126.36a3.36,3.36,0,0,1-6.71,0Z"/><path class="cls-25" d="M63.58,126.36a3.36,3.36,0,0,1-6.71,0Z"/><path class="cls-25" d="M81.85,122.36a3.35,3.35,0,1,1-6.7,0Z"/><rect class="cls-26" x="45.46" y="82.24" width="6.04" height="27.1"/><polygon class="cls-27" points="45.46 82.31 45.46 90.8 51.5 88.94 51.5 82.31 45.46 82.31"/><rect class="cls-28" x="40.65" y="75.21" width="15.66" height="10.43" rx="3.28" ry="3.28"/><polygon class="cls-29" points="41.76 113 41.76 114.86 55.2 114.86 55.2 111.56 41.76 113"/><path class="cls-28" d="M67.41,79.5a3.08,3.08,0,0,0-3.29-2.81H32.84a2.84,2.84,0,1,0,0,5.62H64.12A3.08,3.08,0,0,0,67.41,79.5Z"/><path class="cls-30" d="M79.52,75.29a2.78,2.78,0,0,1-2.83,3.25H40.76A3.89,3.89,0,0,1,37,75.29L34.23,55.2a20.79,20.79,0,0,1,.32-6.44l9.54-39a6.1,6.1,0,0,1,3.95-4L66.7.83A30.48,30.48,0,0,1,73.15,0h3.54a3,3,0,0,1,3,3.27L76.5,48.68a39.46,39.46,0,0,0,.22,6.52Z"/><path class="cls-31" d="M71.26,78.54H36.06a3.89,3.89,0,0,1-3.73-3.25l-.94-6.76-.65-4.66-1.2-8.67a11.64,11.64,0,0,1-.12-1.28,22.5,22.5,0,0,1,.35-5.18l1.54-7.21,14.1-30.18c.37-1.77,2.38-4.13,4.15-3.78L70.78,6a3.83,3.83,0,0,1,3,3.91L71.52,42.27l-.07.9-.38,5.51a37.39,37.39,0,0,0,.22,6.52L72,60.56,73,67.38l1.11,7.91A2.79,2.79,0,0,1,71.26,78.54Z"/><path class="cls-32" d="M74,67.2l-1,.18-6.39,1.16L43,68.76l-11.61-.23-.82-6.36c.68,1.91,5,1.13,12.54,1.13h25.3c1.89,0,3.38-1,3.46-4.44C71.9,57.8,74,67.2,74,67.2Z"/><path class="cls-33" d="M34.6,41.32A2.61,2.61,0,0,1,32,38.05L39.49,3.21a4.25,4.25,0,0,1,4-3.21h27.8a3,3,0,0,1,3,3.27L71.77,38.76A3.5,3.5,0,0,1,68.25,42Z"/><rect class="cls-33" x="7.31" y="66.57" width="69.23" height="11.97" rx="5.25" ry="5.25"/><path class="cls-33" d="M60.54,78.29c0,2.89-1.24,5.71-4.13,5.71L12.56,80.54a5.26,5.26,0,0,1-5.25-5.25V73.82a5.27,5.27,0,0,1,5.25-5.25l42.73,3a5.27,5.27,0,0,1,5.25,5.25Z"/><path class="cls-30" d="M52.41,78.62a4.94,4.94,0,0,0,4.92,4.92l14.46-5A5.26,5.26,0,0,0,77,73.62l.11-2.13a4.62,4.62,0,0,0-4.66-4.92l-15.09,5c-3.6,1.43-4.92,2.22-4.92,4.92Z"/><path class="cls-25" d="M18.89,117.61a1.64,1.64,0,0,1-.29-3.25l29.58-5.47a2,2,0,0,1,.6,0l30,5.47a1.64,1.64,0,1,1-.59,3.22l-29.73-5.41-29.29,5.41A1.53,1.53,0,0,1,18.89,117.61Z"/><path class="cls-25" d="M60,121.61a1.56,1.56,0,0,1-.7-.16L48.5,112.33l-10.39,9.11a1.64,1.64,0,1,1-1.45-2.94L47.76,109a1.61,1.61,0,0,1,1.42,0l11.53,9.47a1.64,1.64,0,0,1-.7,3.12Z"/><path class="cls-25" d="M18.92,121.39a1.64,1.64,0,0,1-1.64-1.64v-3.56a1.64,1.64,0,1,1,3.28,0v3.56A1.65,1.65,0,0,1,18.92,121.39Z"/><path class="cls-25" d="M37.39,125.39a1.64,1.64,0,0,1-1.64-1.64v-3.56a1.64,1.64,0,0,1,3.28,0v3.56A1.65,1.65,0,0,1,37.39,125.39Z"/><path class="cls-25" d="M60.23,125.39a1.64,1.64,0,0,1-1.64-1.64v-3.56a1.64,1.64,0,1,1,3.28,0v3.56A1.65,1.65,0,0,1,60.23,125.39Z"/><path class="cls-25" d="M78.5,121.39a1.65,1.65,0,0,1-1.64-1.64v-3.56a1.64,1.64,0,0,1,3.28,0v3.56A1.64,1.64,0,0,1,78.5,121.39Z"/><path class="cls-25" d="M22.27,122.36a3.35,3.35,0,0,1-6.7,0Z"/><path class="cls-34" d="M15.57,122.52a.49.49,0,0,1-.5-.49,3.85,3.85,0,0,1,7.69,0,.49.49,0,0,1-.49.49Z"/><path class="cls-34" d="M18.92,118.68A3.35,3.35,0,0,1,22.27,122H15.56a3.36,3.36,0,0,1,3.36-3.35Zm0-1A4.35,4.35,0,0,0,14.58,122a1,1,0,0,0,1,1h6.71a1,1,0,0,0,1-1,4.35,4.35,0,0,0-4.34-4.34Z"/><path class="cls-34" d="M34,126.52a.49.49,0,0,1-.49-.49,3.85,3.85,0,0,1,7.69,0,.49.49,0,0,1-.49.49Z"/><path class="cls-34" d="M37.39,122.68A3.35,3.35,0,0,1,40.74,126H34a3.35,3.35,0,0,1,3.36-3.35Zm0-1A4.34,4.34,0,0,0,33.05,126a1,1,0,0,0,1,1h6.71a1,1,0,0,0,1-1,4.34,4.34,0,0,0-4.33-4.34Z"/><path class="cls-34" d="M56.87,126.52a.49.49,0,0,1-.49-.49,3.85,3.85,0,0,1,7.69,0,.49.49,0,0,1-.49.49Z"/><path class="cls-34" d="M60.23,122.68A3.35,3.35,0,0,1,63.58,126H56.87a3.35,3.35,0,0,1,3.36-3.35Zm0-1A4.34,4.34,0,0,0,55.89,126a1,1,0,0,0,1,1h6.71a1,1,0,0,0,1-1,4.34,4.34,0,0,0-4.33-4.34Z"/><path class="cls-34" d="M75.15,122.52a.49.49,0,0,1-.49-.49,3.85,3.85,0,0,1,7.69,0,.49.49,0,0,1-.5.49Z"/><path class="cls-34" d="M78.5,118.68A3.35,3.35,0,0,1,81.85,122h-6.7a3.35,3.35,0,0,1,3.35-3.35Zm0-1A4.35,4.35,0,0,0,74.16,122a1,1,0,0,0,1,1h6.7a1,1,0,0,0,1-1,4.35,4.35,0,0,0-4.34-4.34Z"/><path class="cls-25" d="M52.61,109.67V102A1.65,1.65,0,0,0,51,100.32H46A1.65,1.65,0,0,0,44.35,102v7.71Z"/></g></g></g></g></svg>