<svg id="roomCurtain" class="room-svg room-curtain closed" data-name="Curtain" data-description="This is a curtain." data-cost="250" data-buyed="0" xmlns="http://www.w3.org/2000/svg" xmlns:xlink="http://www.w3.org/1999/xlink" viewBox="0 0 84.68 107.35"><defs><style>.cls-1{fill:none;}.cls-2{clip-path:url(#clip-path);}.cls-3{fill:url(#linear-gradient);}.cls-4{clip-path:url(#clip-path-2);}.cls-5{fill:#f5f5f5;}.cls-6{clip-path:url(#clip-path-3);}.cls-7{clip-path:url(#clip-path-4);}.cls-8{fill:url(#linear-gradient-2);}.cls-9{clip-path:url(#clip-path-5);}.cls-10{clip-path:url(#clip-path-6);}.cls-11{clip-path:url(#clip-path-7);}.cls-12{fill:url(#linear-gradient-3);}.cls-13{clip-path:url(#clip-path-8);}.cls-14{clip-path:url(#clip-path-9);}.cls-15{clip-path:url(#clip-path-10);}.cls-16{fill:url(#linear-gradient-4);}.cls-17{clip-path:url(#clip-path-11);}.cls-18{clip-path:url(#clip-path-12);}.cls-19{clip-path:url(#clip-path-13);}.cls-20{fill:url(#linear-gradient-5);}.cls-21{clip-path:url(#clip-path-14);}.cls-22{clip-path:url(#clip-path-15);}.cls-23{clip-path:url(#clip-path-16);}.cls-24{fill:url(#linear-gradient-6);}.cls-25{clip-path:url(#clip-path-17);}.cls-26{clip-path:url(#clip-path-18);}.cls-27{clip-path:url(#clip-path-19);}.cls-28{fill:url(#linear-gradient-7);}.cls-29{clip-path:url(#clip-path-20);}.cls-30{clip-path:url(#clip-path-21);}.cls-31{clip-path:url(#clip-path-22);}.cls-32{fill:url(#linear-gradient-8);}.cls-33{clip-path:url(#clip-path-23);}.cls-34{clip-path:url(#clip-path-24);}.cls-35{clip-path:url(#clip-path-25);}.cls-36{fill:url(#linear-gradient-9);}.cls-37{clip-path:url(#clip-path-26);}.cls-38{clip-path:url(#clip-path-27);}.cls-39{clip-path:url(#clip-path-28);}.cls-40{fill:url(#linear-gradient-10);}.cls-41{clip-path:url(#clip-path-29);}.cls-42{clip-path:url(#clip-path-30);}.cls-43{clip-path:url(#clip-path-31);}.cls-44{fill:url(#linear-gradient-11);}.cls-45{clip-path:url(#clip-path-32);}.cls-46{clip-path:url(#clip-path-33);}.cls-47{clip-path:url(#clip-path-34);}.cls-48{fill:url(#linear-gradient-12);}.cls-49{clip-path:url(#clip-path-35);}.cls-50{clip-path:url(#clip-path-36);}.cls-51{clip-path:url(#clip-path-37);}.cls-52{fill:url(#linear-gradient-13);}.cls-53{clip-path:url(#clip-path-38);}.cls-54{clip-path:url(#clip-path-39);}.cls-55{clip-path:url(#clip-path-40);}.cls-56{fill:url(#linear-gradient-14);}.cls-57{clip-path:url(#clip-path-41);}.cls-58{clip-path:url(#clip-path-42);}.cls-59{clip-path:url(#clip-path-43);}.cls-60{fill:url(#linear-gradient-15);}.cls-61{clip-path:url(#clip-path-44);}.cls-62{clip-path:url(#clip-path-45);}.cls-63{clip-path:url(#clip-path-46);}.cls-64{fill:url(#linear-gradient-16);}.cls-65{clip-path:url(#clip-path-47);}.cls-66{clip-path:url(#clip-path-48);}.cls-67{clip-path:url(#clip-path-49);}.cls-68{fill:url(#linear-gradient-17);}.cls-69{clip-path:url(#clip-path-50);}.cls-70{clip-path:url(#clip-path-51);}.cls-71{clip-path:url(#clip-path-52);}.cls-72{fill:url(#linear-gradient-18);}.cls-73{clip-path:url(#clip-path-53);}.cls-74{clip-path:url(#clip-path-54);}.cls-75{clip-path:url(#clip-path-55);}.cls-76{fill:url(#linear-gradient-19);}.cls-77{clip-path:url(#clip-path-56);}.cls-78{clip-path:url(#clip-path-57);}.cls-79{clip-path:url(#clip-path-58);}.cls-80{fill:url(#linear-gradient-20);}.cls-81{clip-path:url(#clip-path-59);}.cls-82{clip-path:url(#clip-path-60);}.cls-83{clip-path:url(#clip-path-61);}.cls-84{fill:#e0e0e0;}.cls-85{fill:#d0d0d0;}.cls-86{fill:#c7c7c7;}.cls-87{fill:#c4c4c4;}.cls-88{clip-path:url(#clip-path-62);}.cls-89{clip-path:url(#clip-path-63);}.cls-90{fill:#a6a6a6;}.cls-91{clip-path:url(#clip-path-64);}.cls-92{fill:#d6d6d6;}.cls-93{fill:#dcdcdc;}.cls-94{fill:#e9e9e9;}.cls-95{fill:#f7f7f7;}.cls-96{fill:#fdfdfd;}.cls-97{fill:#f9f9f9;}.cls-98{fill:#efefef;}.cls-99{fill:#cfcfcf;}.cls-100{fill:#afafaf;}.cls-101{fill:#a5a5a5;}.cls-102{fill:#a1a1a1;}.cls-103{fill:#a7a7a7;}.cls-104{fill:#b3b3b3;}.cls-105{fill:#bfbfbf;}.cls-106{fill:#c5c5c5;}.cls-107{clip-path:url(#clip-path-65);}.cls-108{fill:#a9a9a9;}.cls-109{fill:#9b9b9b;}.cls-110{fill:#979797;}.cls-111{clip-path:url(#clip-path-66);}.cls-112{clip-path:url(#clip-path-67);}.cls-113{clip-path:url(#clip-path-68);}.cls-114{fill:#dbdbdb;}.cls-115{fill:#e7e7e7;}.cls-116{fill:#f3f3f3;}.cls-117{fill:#f8f8f8;}.cls-118{fill:#ececec;}.cls-119{fill:#d1d1d1;}.cls-120{fill:#b5b5b5;}.cls-121{fill:#acacac;}.cls-122{fill:#b0b0b0;}</style><clipPath id="clip-path"><path class="cls-1" d="M84.15,93.47Q42.37,96.7.53,98.89h0c-.29,0-.53.38-.53.82H0v3.72c0,.43.24.77.53.76h0q41.85-2.44,83.62-5.87h0c.29,0,.53-.38.53-.79h0v-3.4c0-.38-.22-.66-.49-.66h0m-9.72,4.72c0-1.26,0-1.88,0-3.09h0a.27.27,0,0,1,.2-.28h0a.23.23,0,0,1,.19.25h0c0,1.21,0,1.83,0,3.09h0c0,.15-.08.28-.19.29h0c-.1,0-.18-.11-.18-.26M9.84,102.67v-3.3h0c0-.16.09-.29.2-.3h0c.1,0,.19.12.19.27h0c0,1.32,0,2,0,3.31h0c0,.16-.08.29-.19.3h0c-.1,0-.18-.12-.18-.28"/></clipPath><linearGradient id="linear-gradient" x1="42.42" y1="103.54" x2="42.26" y2="94.01" gradientUnits="userSpaceOnUse"><stop offset="0" stop-color="#fff"/><stop offset="1" stop-color="#7a7a7a"/></linearGradient><clipPath id="clip-path-2"><path class="cls-1" d="M9.84,98.38v5.25h0l.38,0h0v-1h0c0,.15-.08.28-.19.29h0c-.1,0-.18-.12-.18-.28h0v-3.3h0c0-.16.09-.29.2-.3h0c.1,0,.19.12.19.27h0v1.41h0V98.36h0l-.39,0"/></clipPath><clipPath id="clip-path-3"><path class="cls-1" d="M74.46,94.2c0,.33,0,.63,0,.9h0a.27.27,0,0,1,.2-.28h0c.1,0,.18.1.19.23h0v-.88h0l-.38,0m0,4.91.39,0h0v-.9h0a.25.25,0,0,1-.19.27h0c-.1,0-.18-.11-.18-.26h0c0-1.25,0-1.87,0-3.07h0c0,2.81,0,2.91,0,4"/></clipPath><clipPath id="clip-path-4"><path class="cls-1" d="M84.16,89.25C56.3,91.17,28.42,92.69.53,94h0c-.29,0-.53.37-.53.81H0v3.71c0,.44.24.78.53.77h0Q42.38,97,84.15,93.78h0a.7.7,0,0,0,.53-.74h0V89.87a.56.56,0,0,0-.49-.62h0m-9.7,4.41c0-1.19,0-1.77,0-2.91h0a.25.25,0,0,1,.19-.26h0c.11,0,.19.1.19.24h0c0,1.14,0,1.72,0,2.9h0c0,.14-.09.27-.2.27h0c-.1,0-.18-.1-.18-.24M9.84,97.78c0-1.32,0-2,0-3.28h0c0-.16.08-.29.19-.3h0c.11,0,.19.12.19.28h0v3.28h0c0,.16-.09.29-.19.3h0c-.1,0-.19-.12-.19-.28"/></clipPath><linearGradient id="linear-gradient-2" x1="42.42" y1="98.6" x2="42.26" y2="89.81" xlink:href="#linear-gradient"/><clipPath id="clip-path-5"><path class="cls-1" d="M9.85,93.52c0,4.07,0,4,0,5.21h0l.39,0h0v-.94h0c0,.15-.09.28-.19.29h0c-.1,0-.19-.12-.19-.28h0c0-1.32,0-2,0-3.28h0c0-.16.08-.29.19-.3h0c.1,0,.19.11.19.26h0v-.95H9.85"/></clipPath><clipPath id="clip-path-6"><path class="cls-1" d="M74.49,89.9v.85h0a.25.25,0,0,1,.19-.26h0a.21.21,0,0,1,.19.22h0c0-.26,0-.53,0-.83h0l-.39,0m0,4.62.39,0h0c0-.34,0-.58,0-.84h0c0,.13-.09.25-.2.25h0c-.1,0-.18-.1-.18-.24h0c0-1.17,0-1.76,0-2.88h0c0,2.63,0,2.73,0,3.74"/></clipPath><clipPath id="clip-path-7"><path class="cls-1" d="M84.16,85.31C56.29,86.9,28.42,88.08.53,89h0c-.29,0-.53.37-.53.81H0v3.71c0,.44.24.78.53.77h0q41.84-1.92,83.63-4.77h0a.65.65,0,0,0,.52-.68h0v-3a.54.54,0,0,0-.49-.58h0M74.5,89.39c0-1.11,0-1.66,0-2.74h0a.22.22,0,0,1,.19-.24h0c.11,0,.19.09.19.22h0c0,1.07,0,1.62,0,2.74h0a.26.26,0,0,1-.19.26h0c-.11,0-.19-.1-.18-.24M9.85,92.92V89.66h0a.27.27,0,0,1,.19-.29h0c.11,0,.2.12.2.28h0c0,1.3,0,1.95,0,3.26h0c0,.15-.08.28-.19.29h0c-.11,0-.19-.12-.19-.28"/></clipPath><linearGradient id="linear-gradient-3" x1="42.34" y1="94.39" x2="42.34" y2="85.14" xlink:href="#linear-gradient"/><clipPath id="clip-path-8"><path class="cls-1" d="M9.85,88.7v2.61h0V89.66h0a.27.27,0,0,1,.19-.29h0c.11,0,.19.11.2.26h0v-.95h0l-.39,0M10,93.2h0c-.1,0-.19-.11-.19-.26h0v.93h0l.38,0h0v-.92h0a.26.26,0,0,1-.19.27"/></clipPath><clipPath id="clip-path-9"><path class="cls-1" d="M74.53,85.84c0,.3,0,.57,0,.81h0a.22.22,0,0,1,.19-.24h0a.18.18,0,0,1,.19.2h0c0-.24,0-.5,0-.79h0l-.38,0m0,4.36.38,0h0c0-.33,0-.55,0-.8h0a.25.25,0,0,1-.19.25h0c-.11,0-.19-.1-.18-.24h0c0-1.1,0-1.65,0-2.71h0c0,2.48,0,2.57,0,3.52"/></clipPath><clipPath id="clip-path-10"><path class="cls-1" d="M84.16,81.61C56.29,82.79,28.42,83.54.53,84.08h0c-.29,0-.53.37-.53.8H0V88.6c0,.44.24.78.53.77h0c27.89-1,55.76-2.17,83.63-3.79h0a.6.6,0,0,0,.52-.64h0V82.16a.53.53,0,0,0-.5-.56h0m-9.63,3.76c0-1.06,0-1.58,0-2.6h0a.22.22,0,0,1,.2-.23h0a.2.2,0,0,1,.19.21h0c0,1,0,1.54,0,2.6h0a.23.23,0,0,1-.19.24h0a.2.2,0,0,1-.18-.22M9.85,88.1c0-1.3,0-1.95,0-3.25h0c0-.15.08-.28.19-.28h0c.11,0,.19.12.19.28h0v3.24h0c0,.15-.09.28-.19.28h0c-.1,0-.19-.12-.19-.27"/></clipPath><linearGradient id="linear-gradient-4" x1="42.25" y1="90.19" x2="42.41" y2="80.72" xlink:href="#linear-gradient"/><clipPath id="clip-path-11"><path class="cls-1" d="M9.86,83.89c0,2.19,0,3.17,0,3.79h0c0-1,0-1.68,0-2.83h0c0-.15.08-.28.19-.28h0c.11,0,.19.12.19.27h0v-1H9.86m.19,4.48h0c-.1,0-.18-.11-.19-.26h0V89h.39v-.94h0c0,.15-.09.28-.19.28"/></clipPath><clipPath id="clip-path-12"><path class="cls-1" d="M74.56,82c0,.28,0,.53,0,.76h0a.22.22,0,0,1,.2-.22h0a.2.2,0,0,1,.19.21h0c0,.62,0,1.06,0,1.54h0c0-.51,0-1.22,0-2.31h0l-.38,0m0,2.78c0-.66,0-1.14,0-1.87h0c0,.92,0,1.47,0,1.87m.18.81h0c-.1,0-.17-.09-.18-.21h0c0,.24,0,.45,0,.75h0l.39,0h0v-.75h0a.23.23,0,0,1-.19.23"/></clipPath><clipPath id="clip-path-13"><path class="cls-1" d="M84.16,78.11c-27.87.71-55.75,1-83.63,1h0c-.29,0-.53.35-.53.79H0v3.72c0,.43.24.78.53.78h0c27.89-.58,55.76-1.36,83.63-2.58h0a.57.57,0,0,0,.52-.59h0V78.64a.51.51,0,0,0-.5-.53h0m-9.59,3.44c0-1,0-1.5,0-2.48h0a.22.22,0,0,1,.19-.22h0a.2.2,0,0,1,.19.21h0c0,1,0,1.47,0,2.47h0a.23.23,0,0,1-.19.23h0a.19.19,0,0,1-.18-.21M9.86,83.3V80.07h0c0-.15.09-.28.19-.28h0c.11,0,.2.13.2.28h0c0,1.29,0,1.93,0,3.22h0c0,.16-.08.28-.19.29h0c-.11,0-.19-.13-.19-.28"/></clipPath><linearGradient id="linear-gradient-5" x1="42.34" y1="84.51" x2="42.34" y2="77.97" xlink:href="#linear-gradient"/><clipPath id="clip-path-14"><path class="cls-1" d="M9.86,79.12v3.7h0V80.07h0c0-.15.09-.28.19-.28h0c.1,0,.19.11.2.25h0v-.92H9.86m.19,4.46h0c-.1,0-.19-.12-.19-.27h0v.93h.38v-.92h0a.25.25,0,0,1-.19.27"/></clipPath><clipPath id="clip-path-15"><path class="cls-1" d="M74.6,78.34c0,.26,0,.51,0,.73h0a.22.22,0,0,1,.19-.22h0a.2.2,0,0,1,.19.21h0v.15h0c0-.26,0-.56,0-.88H74.6m0,3.93.38,0h0c0-.28,0-.48,0-.7h0a.22.22,0,0,1-.19.21h0a.19.19,0,0,1-.18-.21h0c0-1,0-1.45,0-2.33h0c0,2.13,0,2.22,0,3"/></clipPath><clipPath id="clip-path-16"><path class="cls-1" d="M.52,74.22c-.29,0-.52.35-.52.78H0v3.71c0,.44.24.79.53.79h0c27.88-.11,55.76-.4,83.63-1.15h0a.54.54,0,0,0,.52-.55h0V75.3a.5.5,0,0,0-.51-.51h0C56.28,75,28.41,74.67.53,74.22h0m9.34,4.3V75.31h0c0-.15.09-.28.2-.27h0c.11,0,.19.12.19.28h0v3.2h0c0,.16-.09.28-.2.28h0c-.1,0-.19-.12-.19-.28m64.74-.61c0-1,0-1.44,0-2.38h0a.2.2,0,0,1,.2-.2h0a.18.18,0,0,1,.18.2h0c0,.93,0,1.41,0,2.37h0a.21.21,0,0,1-.19.21h0a.19.19,0,0,1-.19-.2"/></clipPath><linearGradient id="linear-gradient-6" x1="42.34" y1="79.57" x2="42.34" y2="74.03" xlink:href="#linear-gradient"/><clipPath id="clip-path-17"><path class="cls-1" d="M9.86,79.46h.39V77.71h0v.81h0c0,.16-.09.28-.2.28h0c-.1,0-.19-.12-.19-.28h0V75.31h0c0-.15.09-.28.2-.27h0c.1,0,.19.11.19.26h0v-.93H9.86v5.1"/></clipPath><clipPath id="clip-path-18"><path class="cls-1" d="M74.63,74.82c0,.26,0,.5,0,.71h0a.21.21,0,0,1,.2-.2h0a.18.18,0,0,1,.18.18h0c0-.21,0-.44,0-.69h-.38m0,3.77H75c0-.27,0-.46,0-.67h0a.21.21,0,0,1-.19.2h0a.19.19,0,0,1-.19-.2h0c0-.91,0-1.39,0-2.23h0c0,2,0,2.12,0,2.91"/></clipPath><clipPath id="clip-path-19"><path class="cls-1" d="M.51,69.29c-.28,0-.51.34-.51.77H0v3.71c0,.44.24.8.53.8h0c27.88.41,55.75.65,83.64.45h0a.52.52,0,0,0,.51-.52h0V72.11a.51.51,0,0,0-.51-.51h0C56.28,71.18,28.4,70.3.53,69.29h0m9.36,4.48v-3.2h0c0-.16.09-.28.19-.27h0c.11,0,.2.13.2.28h0c0,1.28,0,1.92,0,3.2h0c0,.15-.08.27-.19.27h0c-.11,0-.19-.13-.19-.28m64.76.64c0-.92,0-1.38,0-2.29h0a.19.19,0,0,1,.19-.19h0a.2.2,0,0,1,.19.2h0c0,.9,0,1.36,0,2.28h0a.21.21,0,0,1-.2.2h0a.2.2,0,0,1-.19-.2"/></clipPath><linearGradient id="linear-gradient-7" x1="42.34" y1="75.14" x2="42.34" y2="69.09" xlink:href="#linear-gradient"/><clipPath id="clip-path-20"><path class="cls-1" d="M9.86,74.7h.39V73.8h0c0,.14-.09.25-.19.25h0c-.11,0-.19-.13-.19-.28h0v-3.2h0c0-.16.09-.28.19-.27h0c.11,0,.19.12.2.26h0v-.92h0l-.39,0h0c0,4,0,3.89,0,5.08"/></clipPath><clipPath id="clip-path-21"><path class="cls-1" d="M74.66,72.12a.19.19,0,0,1,.19-.19h0a.19.19,0,0,1,.19.18h0v-.66h-.38v.68m0,2.95H75v-.65h0a.19.19,0,0,1-.19.19h0a.2.2,0,0,1-.19-.2h0c0-.86,0-1.32,0-2.11h0c0,1.94,0,2,0,2.77"/></clipPath><clipPath id="clip-path-22"><path class="cls-1" d="M0,65.12v3.71c0,.44.24.8.53.81h0c27.87,1,55.75,1.8,83.64,2.18h0a.49.49,0,0,0,.51-.49h0V69a.52.52,0,0,0-.51-.5h0C56.27,67.47,28.4,66,.53,64.36h0c-.28,0-.51.33-.51.76M9.87,69V65.84h0c0-.16.09-.27.2-.27h0a.27.27,0,0,1,.19.29h0v3.19h0c0,.14-.09.26-.19.26h0c-.1,0-.19-.13-.19-.28m64.8,2c0-.9,0-1.34,0-2.23h0a.19.19,0,0,1,.19-.18h0a.19.19,0,0,1,.19.2h0c0,.88,0,1.32,0,2.22h0a.2.2,0,0,1-.19.19h0a.2.2,0,0,1-.19-.2"/></clipPath><linearGradient id="linear-gradient-8" x1="42.02" y1="72.62" x2="42.52" y2="65.48" xlink:href="#linear-gradient"/><clipPath id="clip-path-23"><path class="cls-1" d="M9.87,70h.39v-.9h0c0,.14-.09.24-.19.24h0c-.1,0-.19-.13-.19-.28h0V65.84h0c0-.16.09-.27.2-.27h0a.26.26,0,0,1,.19.27h0v-.92h0l-.39,0h0V70"/></clipPath><clipPath id="clip-path-24"><path class="cls-1" d="M74.69,68.81a.19.19,0,0,1,.19-.18h0a.19.19,0,0,1,.19.18h0c0-.19,0-.41,0-.65H74.7c0,.24,0,.46,0,.66m0,2.87H75c0-.25,0-.42,0-.62h0a.19.19,0,0,1-.19.18h0a.2.2,0,0,1-.19-.2h0c0-.82,0-1.27,0-2h0c0,1.86,0,1.93,0,2.66"/></clipPath><clipPath id="clip-path-25"><path class="cls-1" d="M0,60.17v3.72c0,.44.24.8.53.82h0c27.87,1.58,55.74,3,83.64,4h0a.48.48,0,0,0,.51-.47h0V66a.52.52,0,0,0-.51-.5h0C56.27,63.8,28.39,61.67.53,59.42h0c-.28,0-.5.33-.5.75M9.87,64.3c0-1.27,0-1.91,0-3.18h0c0-.16.09-.27.19-.27h0a.27.27,0,0,1,.2.29h0c0,1.28,0,1.91,0,3.19h0c0,.15-.08.26-.18.26h0a.27.27,0,0,1-.2-.29M74.7,67.76c0-.88,0-1.32,0-2.19h0a.17.17,0,0,1,.19-.17h0a.18.18,0,0,1,.18.2h0c0,.86,0,1.3,0,2.17h0a.18.18,0,0,1-.18.18h0a.2.2,0,0,1-.19-.19"/></clipPath><linearGradient id="linear-gradient-9" x1="42.08" y1="67.68" x2="42.47" y2="62.18" xlink:href="#linear-gradient"/><clipPath id="clip-path-26"><path class="cls-1" d="M9.87,65.23l.39,0h0v-.92h0c0,.15-.08.26-.18.26h0a.27.27,0,0,1-.2-.29h0c0-1.27,0-1.91,0-3.18h0c0-.16.09-.27.19-.27h0a.27.27,0,0,1,.2.29h0c0,1.12,0,1.75,0,2.75h0c0-.61,0-1.57,0-3.69h0l-.39,0h0c0,4,0,3.88,0,5.06"/></clipPath><clipPath id="clip-path-27"><path class="cls-1" d="M74.73,65.57a.17.17,0,0,1,.19-.17h0a.19.19,0,0,1,.18.19h0c0-.2,0-.41,0-.65h0l-.38,0h0v.65m0,2.81.38,0h0v-.62h0a.17.17,0,0,1-.18.17h0a.2.2,0,0,1-.19-.19h0c0-.8,0-1.23,0-2h0c0,1.8,0,1.87,0,2.57"/></clipPath><clipPath id="clip-path-28"><path class="cls-1" d="M0,55.23V59c0,.43.24.81.53.83h0c27.87,2.2,55.74,4.28,83.64,6h0a.46.46,0,0,0,.51-.45h0V63.06a.54.54,0,0,0-.51-.51h0c-27.91-2.4-55.78-5.17-83.64-8h0c-.27,0-.49.32-.49.74m10.07,4.65c-.1,0-.19-.14-.19-.3h0V56.4h0c0-.15.09-.27.2-.26h0c.1,0,.19.14.19.3h0v3.18h0c0,.14-.08.26-.19.26h0m64.67,4.65c0-.86,0-1.29,0-2.15h0a.17.17,0,0,1,.19-.17h0a.21.21,0,0,1,.19.2h0c0,.86,0,1.29,0,2.15h0a.18.18,0,0,1-.18.17h0a.19.19,0,0,1-.18-.2"/></clipPath><linearGradient id="linear-gradient-10" x1="41.9" y1="64.2" x2="42.55" y2="58.06" xlink:href="#linear-gradient"/><clipPath id="clip-path-29"><path class="cls-1" d="M9.88,60.51l.39,0h0v-.92h0c0,.15-.08.26-.19.26h0c-.1,0-.19-.14-.19-.3h0V56.4h0c0-.15.09-.27.2-.26h0a.27.27,0,0,1,.19.28h0V55.5h0l-.39,0h0v5"/></clipPath><clipPath id="clip-path-30"><path class="cls-1" d="M74.76,62.38a.17.17,0,0,1,.19-.17h0a.21.21,0,0,1,.19.19h0v-.64h0l-.37,0h0c0,.23,0,.45,0,.65m0,2.77.38,0h0c0-.25,0-.41,0-.61h0a.18.18,0,0,1-.18.17h0a.19.19,0,0,1-.18-.2h0c0-.77,0-1.2,0-1.91h0c0,1.78,0,1.84,0,2.53"/></clipPath><clipPath id="clip-path-31"><path class="cls-1" d="M0,50.29V54c0,.44.24.82.53.85h0c27.86,2.84,55.73,5.56,83.64,7.91h0a.45.45,0,0,0,.51-.43h0V60.12a.57.57,0,0,0-.5-.53h0c-27.92-3.08-55.79-6.5-83.65-10H.48c-.27,0-.48.31-.48.73m10.08,4.87a.27.27,0,0,1-.2-.29h0c0-1.28,0-1.91,0-3.19h0c0-.15.08-.26.19-.25h0a.29.29,0,0,1,.2.3h0c0,1.27,0,1.91,0,3.18h0c0,.14-.08.26-.18.26h0M75,61.55a.21.21,0,0,1-.19-.21h0c0-.86,0-1.29,0-2.15h0A.17.17,0,0,1,75,59h0a.21.21,0,0,1,.19.2h0c0,.86,0,1.29,0,2.15h0a.17.17,0,0,1-.18.17h0"/></clipPath><linearGradient id="linear-gradient-11" x1="41.69" y1="60.72" x2="42.68" y2="53.64" xlink:href="#linear-gradient"/><clipPath id="clip-path-32"><path class="cls-1" d="M9.88,55.8l.39,0h0V54.1h0v.81h0c0,.14-.08.26-.18.26h0a.27.27,0,0,1-.2-.29h0c0-1.28,0-1.91,0-3.19h0c0-.15.08-.26.19-.25h0c.11,0,.19.14.19.29h0c0-.28,0-.59,0-.93h0l-.39,0h0c0,4,0,3.87,0,5.06"/></clipPath><clipPath id="clip-path-33"><path class="cls-1" d="M74.79,59.19A.17.17,0,0,1,75,59h0a.21.21,0,0,1,.19.19h0c0-.19,0-.41,0-.64h0l-.38,0h0c0,.24,0,.45,0,.65m0,2.77.38,0h0c0-.25,0-.41,0-.6h0a.18.18,0,0,1-.18.16h0a.21.21,0,0,1-.19-.21h0c0-.77,0-1.19,0-1.89h0c0,1.77,0,1.82,0,2.51"/></clipPath><clipPath id="clip-path-34"><path class="cls-1" d="M0,45.35v3.71c0,.44.24.82.53.86h0c27.86,3.48,55.73,6.85,83.65,9.88h0a.43.43,0,0,0,.5-.42h0V57.15a.58.58,0,0,0-.5-.55h0c-27.92-3.76-55.79-7.81-83.65-12H.47c-.26,0-.47.31-.47.72m10.08,5.1c-.1,0-.19-.14-.19-.3h0V47h0c0-.16.09-.27.2-.25h0a.3.3,0,0,1,.19.3h0V50.2h0c0,.15-.08.25-.18.25h0M75,58.36a.2.2,0,0,1-.18-.21h0c0-.86,0-1.29,0-2.16h0a.16.16,0,0,1,.19-.17h0a.22.22,0,0,1,.18.22h0c0,.86,0,1.3,0,2.16h0a.16.16,0,0,1-.17.16h0"/></clipPath><linearGradient id="linear-gradient-12" x1="41.83" y1="55.79" x2="42.59" y2="50.37" xlink:href="#linear-gradient"/><clipPath id="clip-path-35"><path class="cls-1" d="M9.89,51.08l.39.05h0v-.9h0c0,.13-.09.22-.18.22h0c-.1,0-.19-.14-.19-.3h0V47h0c0-.16.09-.27.2-.25h0c.1,0,.18.14.19.29h0v-.92h0L9.89,46h0v5"/></clipPath><clipPath id="clip-path-36"><path class="cls-1" d="M74.82,56.77c0-.23,0-.48,0-.78h0a.16.16,0,0,1,.19-.17h0a.21.21,0,0,1,.18.2h0c0-.19,0-.4,0-.64h0l-.37-.05h0c0,.61,0,1.08,0,1.44m0,2,.38,0h0v-.6h0a.15.15,0,0,1-.17.15h0a.2.2,0,0,1-.18-.21h0v-.38h0c0,.42,0,.6,0,1"/></clipPath><clipPath id="clip-path-37"><path class="cls-1" d="M0,40.4v3.72A.84.84,0,0,0,.53,45h0c27.86,4.11,55.73,8.12,83.65,11.83h0a.42.42,0,0,0,.5-.42h0V54.12a.61.61,0,0,0-.5-.57h0Q42.3,46.92.53,39.7H.47c-.27,0-.47.3-.47.7m10.09,5.34a.29.29,0,0,1-.2-.3h0c0-1.28,0-1.92,0-3.2h0c0-.15.08-.26.19-.24h0a.3.3,0,0,1,.19.31h0v3.18h0c0,.15-.07.25-.17.25h0M75,55.15a.21.21,0,0,1-.19-.21h0c0-.88,0-1.32,0-2.21h0a.16.16,0,0,1,.19-.16h0a.23.23,0,0,1,.19.22h0c0,.89,0,1.33,0,2.2h0a.17.17,0,0,1-.17.16h0"/></clipPath><linearGradient id="linear-gradient-13" x1="41.4" y1="53.02" x2="42.88" y2="45.4" xlink:href="#linear-gradient"/><clipPath id="clip-path-38"><path class="cls-1" d="M9.89,43.94c0-.51,0-1,0-1.7h0c0-.15.08-.26.19-.24h0a.29.29,0,0,1,.19.31h0v-.94h0L9.9,41.3h0c0,1.21,0,2,0,2.64m0,2.42.39.06h0v-.91h0c0,.14-.08.23-.17.23h0a.29.29,0,0,1-.2-.29h0v.91"/></clipPath><clipPath id="clip-path-39"><path class="cls-1" d="M74.85,53.48c0-.22,0-.46,0-.75h0a.16.16,0,0,1,.19-.16h0a.24.24,0,0,1,.19.21h0v-.65h0l-.37-.06h0c0,.58,0,1,0,1.41m0,2.08.38,0h0V55h0a.15.15,0,0,1-.16.15h0a.21.21,0,0,1-.19-.21h0c0,.2,0,.37,0,.63"/></clipPath><clipPath id="clip-path-40"><path class="cls-1" d="M0,35.46v3.72c0,.43.24.83.53.88h0q41.79,7.08,83.65,13.71h0a.41.41,0,0,0,.5-.41h0V51a.63.63,0,0,0-.5-.6h0Q42.32,42.82.53,34.77H.46c-.26,0-.46.29-.46.69M10.09,41a.3.3,0,0,1-.19-.31h0v-3.2h0c0-.15.09-.26.2-.24h0a.31.31,0,0,1,.19.31h0v3.2h0c0,.14-.08.24-.17.24h0m65,10.87h0a.25.25,0,0,1-.19-.23h0c0-.89,0-1.34,0-2.26h0a.15.15,0,0,1,.19-.16h0a.24.24,0,0,1,.18.23h0c0,.91,0,1.36,0,2.25h0a.16.16,0,0,1-.16.17h0"/></clipPath><linearGradient id="linear-gradient-14" x1="41.78" y1="47.4" x2="42.72" y2="42.03" xlink:href="#linear-gradient"/><clipPath id="clip-path-41"><path class="cls-1" d="M9.9,41.64l.39.07h0v-.93h0c0,.14-.08.24-.17.24h0a.3.3,0,0,1-.19-.31h0v-3.2h0c0-.15.09-.26.2-.24h0a.31.31,0,0,1,.19.3h0v-.93h0l-.39-.07h0v5.07"/></clipPath><clipPath id="clip-path-42"><path class="cls-1" d="M74.89,50.15c0-.22,0-.46,0-.75h0a.15.15,0,0,1,.19-.16h0a.24.24,0,0,1,.18.22h0c0-.21,0-.43,0-.67h0l-.38-.07h0c0,.6,0,1.06,0,1.43m0,2.16.37.06h0c0-.27,0-.44,0-.64h0a.16.16,0,0,1-.16.16h0a.25.25,0,0,1-.19-.23h0v.65"/></clipPath><clipPath id="clip-path-43"><path class="cls-1" d="M0,30.52v3.71a.89.89,0,0,0,.53.9h0q41.79,7.95,83.65,15.51h0a.41.41,0,0,0,.5-.42h0V47.77a.67.67,0,0,0-.49-.63h0Q42.33,38.67.53,29.84H.45c-.25,0-.45.29-.45.69m10.1,5.77A.31.31,0,0,1,9.9,36h0V32.76h0c0-.15.09-.26.2-.23h0a.3.3,0,0,1,.19.31h0v3.21h0c0,.14-.07.24-.17.24h0m65,12.25a.25.25,0,0,1-.18-.24h0c0-.92,0-1.39,0-2.33h0a.16.16,0,0,1,.19-.17h0a.24.24,0,0,1,.18.24h0c0,1,0,1.41,0,2.33h0a.16.16,0,0,1-.15.17h0"/></clipPath><linearGradient id="linear-gradient-15" x1="41.54" y1="43.92" x2="42.75" y2="38.21" xlink:href="#linear-gradient"/><clipPath id="clip-path-44"><path class="cls-1" d="M9.9,36.91l.39.07h0v-.93h0c0,.14-.07.24-.17.24h0A.31.31,0,0,1,9.9,36h0V32.76h0c0-.15.09-.26.2-.23h0a.3.3,0,0,1,.19.3h0V31.9h0l-.39-.09h0v5.1"/></clipPath><clipPath id="clip-path-45"><path class="cls-1" d="M74.92,46.71c0-.22,0-.46,0-.74h0a.16.16,0,0,1,.19-.17h0a.24.24,0,0,1,.18.23h0c0-.21,0-.44,0-.69h0l-.37-.07h0c0,.59,0,1.06,0,1.44m0,2.26.37.07h0c0-.28,0-.45,0-.66h0a.16.16,0,0,1-.15.16h0a.25.25,0,0,1-.18-.24h0c0,.22,0,.39,0,.67"/></clipPath><clipPath id="clip-path-46"><path class="cls-1" d="M0,25.58v3.71a.89.89,0,0,0,.53.9h0Q42.32,39,84.19,47.38h0a.4.4,0,0,0,.49-.43h0V44.38a.72.72,0,0,0-.49-.67h0Q42.33,34.43.53,24.91H.45c-.26,0-.45.28-.45.68m10.1,6c-.11,0-.19-.17-.19-.32h0V28h0c0-.16.09-.26.19-.24h0a.33.33,0,0,1,.2.33h0V31.3h0c0,.14-.08.24-.17.24h0m65,13.53a.25.25,0,0,1-.19-.24h0c0-1,0-1.45,0-2.43h0c0-.12.08-.2.18-.18h0a.26.26,0,0,1,.19.26h0c0,1,0,1.47,0,2.42h0a.17.17,0,0,1-.16.17h0"/></clipPath><linearGradient id="linear-gradient-16" x1="41.5" y1="39.73" x2="42.81" y2="34.03" xlink:href="#linear-gradient"/><clipPath id="clip-path-47"><path class="cls-1" d="M9.9,32.16l.39.08h0c0-.85,0-1.05,0-2.53h0V31.3h0c0,.14-.08.24-.17.24h0c-.11,0-.19-.17-.19-.32h0V28h0c0-.16.09-.26.19-.24h0a.33.33,0,0,1,.2.32h0v-.95h0l-.39-.08h0c0,4,0,3.91,0,5.11"/></clipPath><clipPath id="clip-path-48"><path class="cls-1" d="M74.94,44.67c0-.86,0-1.34,0-2.27h0c0-.12.08-.2.18-.18h0a.27.27,0,0,1,.19.24h0v-.71h0L75,41.67h0c0,1.85,0,2.55,0,3m0,.85.37.07h0v-.67h0a.15.15,0,0,1-.15.15h0a.25.25,0,0,1-.19-.24h0v.69"/></clipPath><clipPath id="clip-path-49"><path class="cls-1" d="M0,20.64v3.71a.92.92,0,0,0,.53.91h0Q42.32,34.75,84.19,44h0a.42.42,0,0,0,.49-.46h0V40.8a.75.75,0,0,0-.49-.71h0Q42.34,30.09.53,20H.44c-.25,0-.44.28-.44.68m10.11,6.13a.32.32,0,0,1-.2-.32h0V23.21h0c0-.16.09-.26.2-.23h0c.11,0,.19.17.19.32h0v3.24h0c0,.14-.07.23-.16.23h0M75.16,41.46A.26.26,0,0,1,75,41.2h0c0-1,0-1.51,0-2.54h0c0-.13.09-.21.19-.18h0a.27.27,0,0,1,.18.27h0c0,1,0,1.54,0,2.54h0a.16.16,0,0,1-.15.17h0"/></clipPath><linearGradient id="linear-gradient-17" x1="41.66" y1="34.82" x2="42.88" y2="29.57" xlink:href="#linear-gradient"/><clipPath id="clip-path-50"><path class="cls-1" d="M9.91,23.32v-.11h0c0-.16.09-.26.2-.23h0a.31.31,0,0,1,.19.3h0v-.93h0l-.39-.1h0v1.07m0,4.07.39.09h0v-.93h0c0,.13-.07.22-.16.22h0a.32.32,0,0,1-.2-.32h0v-.9h0v1.84"/></clipPath><clipPath id="clip-path-51"><path class="cls-1" d="M75,41c0-.84,0-1.35,0-2.29h0c0-.13.09-.21.19-.18h0a.26.26,0,0,1,.18.25h0c0-.23,0-.47,0-.75h0L75,37.9h0c0,1.82,0,2.58,0,3.05m0,1,.37.08h0c0-.3,0-.49,0-.72h0c0,.1-.07.17-.15.17h0a.26.26,0,0,1-.18-.25h0c0,.23,0,.42,0,.72"/></clipPath><clipPath id="clip-path-52"><path class="cls-1" d="M0,15.69v3.72a.94.94,0,0,0,.53.92h0q41.8,10.13,83.66,20h0c.27.06.49-.15.49-.48h0V37a.79.79,0,0,0-.49-.76h0Q42.37,25.64.53,15H.44c-.25,0-.44.27-.44.66M10.11,22a.33.33,0,0,1-.2-.33h0c0-1.3,0-1.95,0-3.25h0c0-.16.09-.26.19-.24h0a.35.35,0,0,1,.2.34h0c0,1.3,0,1.95,0,3.25h0c0,.14-.07.23-.16.23h0M75.2,37.68A.29.29,0,0,1,75,37.4h0c0-1,0-1.58,0-2.67h0c0-.14.08-.22.18-.2h0a.29.29,0,0,1,.18.29h0c0,1.09,0,1.62,0,2.67h0c0,.11-.06.19-.15.19h0"/></clipPath><linearGradient id="linear-gradient-18" x1="41.66" y1="30.59" x2="43.02" y2="24.66" xlink:href="#linear-gradient"/><clipPath id="clip-path-53"><path class="cls-1" d="M9.91,22.6l.39.09h0v-.93h0c0,.13-.07.22-.16.22h0a.33.33,0,0,1-.2-.33h0c0-1.3,0-1.95,0-3.25h0c0-.16.09-.26.19-.24h0a.34.34,0,0,1,.2.33h0v-1h0l-.39-.1h0c0,4.06,0,4,0,5.17"/></clipPath><clipPath id="clip-path-54"><path class="cls-1" d="M75,38.17l.37.09h0c0-.32,0-.52,0-.76h0a.16.16,0,0,1-.15.18h0A.29.29,0,0,1,75,37.4h0c0-1,0-1.58,0-2.67h0c0-.14.08-.22.18-.2h0a.29.29,0,0,1,.18.27h0c0-.24,0-.5,0-.78h0l-.37-.1h0c0,3.44,0,3.28,0,4.25"/></clipPath><clipPath id="clip-path-55"><path class="cls-1" d="M0,10.75v3.72a.94.94,0,0,0,.53.92h0C28.4,22.5,56.3,29.48,84.19,36.53h0c.27.06.49-.16.49-.52h0V32.94a.83.83,0,0,0-.49-.81h0C56.32,24.75,28.41,17.48.53,10.1H.43c-.24,0-.43.27-.43.66m10.11,6.41a.35.35,0,0,1-.19-.33h0V13.55h0c0-.15.09-.26.2-.23h0a.34.34,0,0,1,.19.34h0v3.27h0c0,.14-.07.24-.16.24h0M75.23,33.69a.31.31,0,0,1-.18-.29h0c0-1.11,0-1.68,0-2.83h0c0-.14.08-.23.19-.2h0a.3.3,0,0,1,.18.29h0c0,1.16,0,1.73,0,2.84h0a.17.17,0,0,1-.16.19h0"/></clipPath><linearGradient id="linear-gradient-19" x1="41.53" y1="26.74" x2="43.15" y2="19.75" xlink:href="#linear-gradient"/><clipPath id="clip-path-56"><path class="cls-1" d="M9.92,17.78l.39.1h0v-.94h0c0,.13-.07.23-.16.23h0a.35.35,0,0,1-.19-.33h0V13.55h0c0-.15.09-.26.2-.23h0a.34.34,0,0,1,.19.32h0v-1h0l-.39-.11h0v5.2"/></clipPath><clipPath id="clip-path-57"><path class="cls-1" d="M75,34.21l.37.1h0c0-.34,0-.54,0-.8h0c0,.11-.07.18-.16.18h0a.31.31,0,0,1-.18-.29h0c0-1.11,0-1.68,0-2.83h0c0-.14.08-.23.19-.2h0a.3.3,0,0,1,.18.28h0v-.83h0l-.36-.1h0c0,3.64,0,3.47,0,4.49"/></clipPath><clipPath id="clip-path-58"><path class="cls-1" d="M0,5.81V9.52a1,1,0,0,0,.53.93h0c27.88,7.37,55.78,14.62,83.66,22h0c.27.07.49-.18.49-.56h0v-3.3a.89.89,0,0,0-.48-.85h0C56.33,20.13,28.41,12.71.53,5.16H.43c-.24,0-.43.27-.43.66m10.12,6.5a.35.35,0,0,1-.2-.34h0c0-1.31,0-2,0-3.29h0c0-.16.08-.27.19-.24h0a.35.35,0,0,1,.2.34h0c0,1.32,0,2,0,3.3h0c0,.14-.07.24-.16.24h0M75.26,29.47a.32.32,0,0,1-.18-.31h0c0-1.17,0-1.77,0-3h0c0-.15.09-.25.19-.22h0a.33.33,0,0,1,.18.32h0c0,1.22,0,1.82,0,3h0c0,.13-.07.21-.15.21h0"/></clipPath><linearGradient id="linear-gradient-20" x1="41.59" y1="21.52" x2="42.98" y2="16.36" xlink:href="#linear-gradient"/><clipPath id="clip-path-59"><path class="cls-1" d="M9.92,12.93l.39.11h0v-.95h0c0,.13-.07.23-.16.23h0a.35.35,0,0,1-.2-.34h0c0-1.31,0-2,0-3.29h0c0-.16.08-.27.19-.24h0a.35.35,0,0,1,.2.33h0v-1h0L9.93,7.7h0c0,4.12,0,4,0,5.23"/></clipPath><clipPath id="clip-path-60"><path class="cls-1" d="M75.1,26.5v-.34h0c0-.15.09-.25.19-.22h0a.31.31,0,0,1,.18.3h0c0-.27,0-.56,0-.88h0l-.37-.1h0c0,.47,0,.88,0,1.24m.35,2.59c0-.28,0-.65,0-1.26h0c0,.39,0,.78,0,1.26M75.08,29h0m0,0h0m0,1.05.37.1h0c0-.36,0-.58,0-.86h0c0,.12-.07.2-.15.2h0a.32.32,0,0,1-.18-.31h0V29h0c0,.38,0,.61,0,1.05"/></clipPath><clipPath id="clip-path-61"><path class="cls-1" d="M0,1V4.68a1,1,0,0,0,.53.94h0c27.88,7.53,55.79,15,83.67,22.52h0c.26.08.48-.19.48-.59h0V24a1,1,0,0,0-.48-.92h0C56.33,15.41,28.42,7.92.53.32H.43C.19.31,0,.58,0,1M10.12,7.53a.37.37,0,0,1-.19-.34h0V3.86h0c0-.16.09-.26.2-.23h0a.36.36,0,0,1,.19.34h0V7.29h0c0,.14-.07.24-.16.24h0M75.3,25.08a.32.32,0,0,1-.19-.32h0c0-1.25,0-1.89,0-3.2h0c0-.16.08-.26.18-.23h0a.31.31,0,0,1,.18.33h0c0,1.31,0,1.95,0,3.2h0c0,.13-.06.22-.15.22h0"/></clipPath><clipPath id="clip-path-62"><path class="cls-1" d="M9.93,7V8.15h0l.39.11h0V7.12h0v-1h0V7.29h0c0,.14-.07.24-.16.24h0a.37.37,0,0,1-.19-.34h0V3.86h0c0-.16.09-.26.2-.23h0a.34.34,0,0,1,.19.32h0V3h0l-.39-.11h0V7"/></clipPath><clipPath id="clip-path-63"><path class="cls-1" d="M75.13,22.73c0-.34,0-.72,0-1.17h0c0-.16.08-.26.18-.23h0c.1,0,.18.16.18.31h0c0-.28,0-.59,0-.94h0l-.37-.1h0c0,1,0,1.65,0,2.13m0,0h0m0,1.84v1.08h0l.36.1h0c0-.3,0-.61,0-.91h0c0,.13-.07.21-.15.21h0a.32.32,0,0,1-.19-.32h0c0-.4,0-.73,0-1h0c0,.3,0,.5,0,.88"/></clipPath><clipPath id="clip-path-64"><path class="cls-1" d="M83.71,99.2l-1.21.1h0v1h0V101h0v.11h0v.41h0l1.21-.1h0a3.14,3.14,0,0,0,.11-1h0v-.17h0a2.48,2.48,0,0,0-.11-1Z"/></clipPath><clipPath id="clip-path-65"><path class="cls-1" d="M82.5,99.3a2.88,2.88,0,0,0-.12,1.12h0a3,3,0,0,0,.11,1.12h0a3.24,3.24,0,0,0,.11-1.14h0a2.46,2.46,0,0,0-.11-1.1Z"/></clipPath><clipPath id="clip-path-66"><path class="cls-1" d="M2.17,105l-1,0L1,105H1a3.07,3.07,0,0,0-.11,1.14h0A3.11,3.11,0,0,0,1,107.32H1l.31,0h0l.89,0h0V105h0"/></clipPath><clipPath id="clip-path-67"><path class="cls-1" d="M2.17,105a3,3,0,0,0-.12,1.15h0a3,3,0,0,0,.12,1.13h0a2.57,2.57,0,0,0,.11-1h0V106h0a2.29,2.29,0,0,0-.11-1Z"/></clipPath><clipPath id="clip-path-68"><path class="cls-1" d="M82.48,99.42q-40.11,3.27-80.29,5.66h0a2.7,2.7,0,0,0-.1,1h0a2.52,2.52,0,0,0,.1,1h0q40.19-2.4,80.29-5.7h0a2.41,2.41,0,0,0,.1-.93h0v-.2h0a2.17,2.17,0,0,0-.09-.88h0Z"/></clipPath></defs><title>curtain</title><g id="Layer_2" data-name="Layer 2"><g id="curtain"><g id="curtain-2" data-name="curtain"><g class="cls-2"><path id="path26" class="cls-3" d="M0,98.74q42.38-2.25,84.68-5.47v5.07Q42.36,101.82,0,104.28Z"/></g><g class="cls-4"><path id="path42" class="cls-5" d="M9.84,98.23l.39,0c0,4.34,0,4.16,0,5.49l-.38,0V98.23Z"/></g><g class="cls-6"><path id="path58" class="cls-5" d="M74.46,94.06l.38,0c0,3.93,0,3.85,0,5.13l-.39,0C74.43,97.91,74.43,98,74.46,94.06Z"/></g><g class="cls-7"><path id="path74" class="cls-8" d="M0,93.8q42.38-1.89,84.68-4.73v4.72Q42.36,97.09,0,99.34Z"/></g><g class="cls-9"><path id="path90" class="cls-5" d="M9.85,93.36h.38v5.44l-.39,0c0-1.32,0-1.14,0-5.45Z"/></g><g class="cls-10"><path id="path106" class="cls-5" d="M74.49,89.77l.39,0c0,3.7,0,3.61,0,4.81l-.39,0C74.46,93.39,74.46,93.48,74.49,89.77Z"/></g><g class="cls-11"><path id="path122" class="cls-12" d="M0,88.86c28.24-.94,56.47-2.11,84.68-3.72v4.42Q42.36,92.52,0,94.39Z"/></g><g class="cls-13"><path id="path138" class="cls-5" d="M9.85,88.54l.39,0c0,4.28,0,4.1,0,5.41H9.85v-5.4Z"/></g><g class="cls-14"><path id="path154" class="cls-5" d="M74.53,85.72l.38,0c0,3.5,0,3.42,0,4.55l-.38,0C74.5,89.14,74.5,89.23,74.53,85.72Z"/></g><g class="cls-15"><path id="path170" class="cls-16" d="M0,83.92c28.24-.53,56.46-1.27,84.68-2.46V85.6C56.47,87.25,28.24,88.47,0,89.45Z"/></g><g class="cls-17"><path id="path186" class="cls-5" d="M9.86,83.74h.38V89.1H9.85c0-1.3,0-1.11,0-5.37Z"/></g><g class="cls-18"><path id="path202" class="cls-5" d="M74.56,81.89l.39,0c0,3.33,0,3.24,0,4.31l-.39,0C74.53,85.13,74.53,85.22,74.56,81.89Z"/></g><g class="cls-19"><path id="path218" class="cls-20" d="M0,79c28.23-.06,56.45-.3,84.68-1v3.92c-28.22,1.24-56.44,2-84.68,2.62Z"/></g><g class="cls-21"><path id="path234" class="cls-5" d="M9.86,79h.39c0,4.23,0,4.05,0,5.34H9.86V79Z"/></g><g class="cls-22"><path id="path250" class="cls-5" d="M74.6,78.23H75c0,3.18,0,3.08,0,4.1l-.38,0c0-1,0-.93,0-4.11Z"/></g><g class="cls-23"><path id="path266" class="cls-24" d="M0,74c28.23.48,56.45.79,84.68.64v3.71C56.46,79.15,28.23,79.45,0,79.57Z"/></g><g class="cls-25"><path id="path282" class="cls-5" d="M9.87,74.2h.38v5.32H9.86c0-1.29,0-1.1,0-5.33Z"/></g><g class="cls-26"><path id="path298" class="cls-5" d="M74.63,74.72H75c0,3.06,0,3,0,3.93h-.38C74.6,77.69,74.6,77.78,74.63,74.72Z"/></g><g class="cls-27"><path id="path314" class="cls-28" d="M0,69.09c28.22,1,56.44,2,84.68,2.41v3.55c-28.23.23-56.45,0-84.68-.42Z"/></g><g class="cls-29"><path id="path330" class="cls-5" d="M9.87,69.46l.39,0c0,4.2,0,4,0,5.3H9.86c0-1.28,0-1.1,0-5.31Z"/></g><g class="cls-30"><path id="path346" class="cls-5" d="M74.66,71.34H75c0,3,0,2.85,0,3.78h-.38c0-.94,0-.83,0-3.8Z"/></g><g class="cls-31"><path id="path362" class="cls-32" d="M0,64.15c28.22,1.66,56.43,3.19,84.68,4.28v3.44C56.44,71.5,28.22,70.66,0,69.68Z"/></g><g class="cls-33"><path id="path378" class="cls-5" d="M9.87,64.73l.39,0V70H9.87v-5.3Z"/></g><g class="cls-34"><path id="path394" class="cls-5" d="M74.7,68.05l.38,0c0,2.88,0,2.78,0,3.68h-.38c0-.9,0-.79,0-3.69Z"/></g><g class="cls-35"><path id="path410" class="cls-36" d="M0,59.21c28.21,2.3,56.43,4.47,84.68,6.23v3.35c-28.25-1-56.46-2.46-84.68-4.05Z"/></g><g class="cls-37"><path id="path426" class="cls-5" d="M9.88,60l.39,0c0,4.19,0,4,0,5.28l-.39,0c0-1.28,0-1.09,0-5.29Z"/></g><g class="cls-38"><path id="path442" class="cls-5" d="M74.73,64.83l.38,0c0,2.84,0,2.73,0,3.61l-.38,0C74.7,67.56,74.7,67.68,74.73,64.83Z"/></g><g class="cls-39"><path id="path458" class="cls-40" d="M0,54.26c28.21,3,56.42,5.78,84.68,8.23V65.8C56.43,64.12,28.21,62,0,59.8Z"/></g><g class="cls-41"><path id="path474" class="cls-5" d="M9.88,55.3l.39,0v5.27l-.39,0Z"/></g><g class="cls-42"><path id="path490" class="cls-5" d="M74.77,61.63l.37,0c0,2.82,0,2.7,0,3.56l-.38,0C74.74,64.34,74.74,64.47,74.77,61.63Z"/></g><g class="cls-43"><path id="path506" class="cls-44" d="M0,49.32c28.21,3.59,56.42,7.08,84.68,10.22v3.3c-28.26-2.36-56.47-5.12-84.68-8Z"/></g><g class="cls-45"><path id="path522" class="cls-5" d="M9.89,50.58l.39.05c0,4.19,0,4,0,5.27l-.39,0c0-1.27,0-1.08,0-5.28Z"/></g><g class="cls-46"><path id="path538" class="cls-5" d="M74.8,58.45l.38,0c0,2.83,0,2.7,0,3.56l-.38,0c0-.86,0-.72,0-3.56Z"/></g><g class="cls-47"><path id="path554" class="cls-48" d="M0,44.38c28.2,4.23,56.42,8.35,84.68,12.18v3.33c-28.26-3-56.47-6.46-84.68-10Z"/></g><g class="cls-49"><path id="path570" class="cls-5" d="M9.89,45.86l.39.06V51.2l-.39-.05V45.86Z"/></g><g class="cls-50"><path id="path586" class="cls-5" d="M74.84,55.23l.37.05c0,2.87,0,2.73,0,3.59l-.37,0C74.81,58,74.81,58.11,74.84,55.23Z"/></g><g class="cls-51"><path id="path602" class="cls-52" d="M0,39.44Q42.3,46.7,84.68,53.52v3.4C56.42,53.18,28.2,49.13,0,45Z"/></g><g class="cls-53"><path id="path618" class="cls-5" d="M9.9,41.14l.39.07c0,4.2,0,4,0,5.28l-.39-.06c0-1.27,0-1.08,0-5.29Z"/></g><g class="cls-54"><path id="path634" class="cls-5" d="M74.87,52l.38.06c0,2.94,0,2.78,0,3.65l-.38-.05C74.84,54.75,74.84,54.9,74.87,52Z"/></g><g class="cls-55"><path id="path650" class="cls-56" d="M0,34.5q42.3,8.14,84.68,15.89v3.5Q42.29,47.26,0,40Z"/></g><g class="cls-57"><path id="path666" class="cls-5" d="M9.9,36.4l.39.08v5.29l-.39-.06V36.4Z"/></g><g class="cls-58"><path id="path682" class="cls-5" d="M74.9,48.61l.38.07c0,3,0,2.85,0,3.74l-.37-.06C74.88,51.47,74.87,51.64,74.9,48.61Z"/></g><g class="cls-59"><path id="path698" class="cls-60" d="M0,29.55q42.3,9,84.68,17.58v3.64Q42.29,43.17,0,35.09Z"/></g><g class="cls-61"><path id="path714" class="cls-5" d="M9.9,31.65l.39.08V37L9.9,37Z"/></g><g class="cls-62"><path id="path730" class="cls-5" d="M74.94,45.15l.37.07c0,3.14,0,3,0,3.87L74.9,49C74.91,48.1,74.91,48.29,74.94,45.15Z"/></g><g class="cls-63"><path id="path746" class="cls-64" d="M0,24.61Q42.32,34.3,84.68,43.7v3.82Q42.3,39,0,30.15Z"/></g><g class="cls-65"><path id="path762" class="cls-5" d="M9.91,26.88l.39.09c0,4.25,0,4.05,0,5.33l-.39-.08c0-1.28,0-1.08,0-5.34Z"/></g><g class="cls-66"><path id="path778" class="cls-5" d="M75,41.54l.38.08c0,3.28,0,3.08,0,4l-.37-.07C74.94,44.62,74.94,44.82,75,41.54Z"/></g><g class="cls-67"><path id="path794" class="cls-68" d="M0,19.67Q42.32,30,84.68,40.08v4Q42.32,34.78,0,25.2Z"/></g><g class="cls-69"><path id="path810" class="cls-5" d="M9.91,22.09l.39.09v5.36l-.39-.09V22.09Z"/></g><g class="cls-70"><path id="path826" class="cls-5" d="M75,37.76l.37.09c0,3.44,0,3.22,0,4.21L75,42C75,41,75,41.21,75,37.76Z"/></g><g class="cls-71"><path id="path842" class="cls-72" d="M0,14.73C28.21,22,56.46,29.05,84.68,36.23v4.29Q42.32,30.46,0,20.26Z"/></g><g class="cls-73"><path id="path858" class="cls-5" d="M9.92,17.27l.39.1c0,4.3,0,4.09,0,5.39l-.39-.1C9.91,21.37,9.91,21.57,9.92,17.27Z"/></g><g class="cls-74"><path id="path874" class="cls-5" d="M75,33.78l.37.09c0,3.64,0,3.4,0,4.44L75,38.22C75,37.18,75,37.42,75,33.78Z"/></g><g class="cls-75"><path id="path890" class="cls-76" d="M0,9.79c28.22,7.48,56.46,14.84,84.68,22.32V36.7C56.45,29.57,28.21,22.51,0,15.32Z"/></g><g class="cls-77"><path id="path906" class="cls-5" d="M9.92,12.42l.39.1V18l-.39-.1V12.42Z"/></g><g class="cls-78"><path id="path922" class="cls-5" d="M75.08,29.56l.37.1c0,3.86,0,3.6,0,4.7l-.37-.1C75.05,33.17,75.05,33.42,75.08,29.56Z"/></g><g class="cls-79"><path id="path938" class="cls-80" d="M0,4.84C28.22,12.49,56.47,20,84.68,27.7v4.92C56.46,25.17,28.22,17.83,0,10.38Z"/></g><g class="cls-81"><path id="path954" class="cls-5" d="M9.93,7.53l.39.11c0,4.36,0,4.15,0,5.46L9.92,13c0-1.31,0-1.1,0-5.47Z"/></g><g class="cls-82"><path id="path970" class="cls-5" d="M75.11,25.09l.37.1c0,4.1,0,3.82,0,5l-.37-.1C75.08,28.92,75.08,29.19,75.11,25.09Z"/></g><g class="cls-83"><path id="path986" class="cls-5" d="M0,0C28.22,7.69,56.48,15.27,84.68,23.05v2C56.48,17.23,28.22,9.67,0,2Z"/><path id="path988" class="cls-84" d="M0,2C28.22,9.67,56.48,17.23,84.68,25v1C56.48,18.3,28.22,10.73,0,3.06Z"/><path id="path990" class="cls-85" d="M0,3.06c28.22,7.67,56.48,15.24,84.68,23v.58C56.48,18.91,28.22,11.35,0,3.69Z"/><path id="path992" class="cls-86" d="M0,3.69c28.22,7.66,56.48,15.22,84.68,22.94v.58C56.47,19.51,28.22,12,0,4.32Z"/><path id="path994" class="cls-87" d="M0,4.32C28.22,12,56.47,19.51,84.68,27.21v1.12C56.47,20.66,28.22,13.16,0,5.53Z"/></g><g class="cls-88"><path id="path1010" class="cls-5" d="M9.93,2.71l.39.11v2l-.39-.1Z"/><path id="path1012" class="cls-84" d="M9.93,4.69l.39.1V5.87l-.39-.11Z"/><path id="path1014" class="cls-85" d="M9.93,5.76l.39.11V6.5l-.39-.11Z"/><path id="path1016" class="cls-86" d="M9.93,6.39l.39.11v.62L9.93,7Z"/><path id="path1018" class="cls-87" d="M9.93,7l.39.1v1.2l-.39-.1V7Z"/></g><g class="cls-89"><path id="path1034" class="cls-5" d="M75.14,20.42l.37.1c0,.85,0,1.48,0,2l-.37-.1C75.13,21.9,75.14,21.27,75.14,20.42Z"/><path id="path1036" class="cls-84" d="M75.13,22.38l.37.1c0,.47,0,.79,0,1l-.37-.1c0-.25,0-.57,0-1Z"/><path id="path1038" class="cls-85" d="M75.12,23.42l.37.1v.59l-.37-.1Z"/><path id="path1040" class="cls-86" d="M75.12,24l.37.1c0,.17,0,.34,0,.59l-.37-.1C75.12,24.35,75.12,24.18,75.12,24Z"/><path id="path1042" class="cls-87" d="M75.11,24.6l.37.1c0,.38,0,.75,0,1.13l-.36-.1Z"/></g><path id="path1054" class="cls-90" d="M74.67,100.14h-.13c.21-26.71.52-53.41.73-80.12l.12,0c-.2,26.69-.51,53.38-.72,80.07"/><path id="path1058" class="cls-90" d="M10.09,104.71H10q0-51.19.1-102.38l.13,0q-.06,51.18-.1,102.34"/><g class="cls-91"><path id="path1074" class="cls-92" d="M82.5,99.3l1.32-.11h0l-1.32.11Z"/><path id="path1076" class="cls-92" d="M82.5,99.31l1.32-.11v.13l-1.32.11Z"/><path id="path1078" class="cls-93" d="M82.5,99.44l1.32-.11v.13l-1.32.11Z"/><path id="path1080" class="cls-94" d="M82.5,99.57l1.32-.11v.17l-1.32.11Z"/><path id="path1082" class="cls-95" d="M82.5,99.74l1.32-.11v.27L82.5,100Z"/><path id="path1084" class="cls-96" d="M82.5,100l1.32-.11V100l-1.32.11Z"/><path id="path1086" class="cls-97" d="M82.5,100.14l1.32-.11v.13l-1.32.12Z"/><path id="path1088" class="cls-98" d="M82.5,100.28l1.32-.12v.26l-1.32.11Z"/><path id="path1090" class="cls-99" d="M82.5,100.53l1.32-.11v.24l-1.32.11Z"/><path id="path1092" class="cls-100" d="M82.5,100.77l1.32-.11v.12l-1.32.12Z"/><path id="path1094" class="cls-101" d="M82.5,100.9l1.32-.12v.13L82.5,101Z"/><path id="path1096" class="cls-102" d="M82.5,101l1.32-.11V101l-1.32.11Z"/><path id="path1098" class="cls-103" d="M82.5,101.15l1.32-.11v.12l-1.32.12Z"/><path id="path1100" class="cls-104" d="M82.5,101.28l1.32-.12v.13l-1.32.11Z"/><path id="path1102" class="cls-105" d="M82.5,101.4l1.32-.11v.13l-1.32.11Z"/><path id="path1104" class="cls-106" d="M82.5,101.53l1.32-.11h0l-1.32.11Z"/></g><g class="cls-107"><path id="path1120" class="cls-108" d="M82.39,99.22l.23,0c0,.62,0,1,0,1.31l-.23,0C82.38,100.23,82.39,99.84,82.39,99.22Z"/><path id="path1122" class="cls-109" d="M82.38,100.53l.23,0v.84l-.23,0Z"/><path id="path1124" class="cls-110" d="M82.38,101.37l.23,0v.18l-.23,0Z"/></g><g class="cls-111"><path id="path1140" class="cls-92" d="M2.17,105,.86,105h0L2.17,105Z"/><path id="path1142" class="cls-92" d="M2.17,105l-1.31.08v.13l1.31-.07Z"/><path id="path1144" class="cls-93" d="M2.17,105.11l-1.31.07v.14l1.31-.08Z"/><path id="path1146" class="cls-94" d="M2.17,105.24l-1.31.08v.18l1.31-.08Z"/><path id="path1148" class="cls-95" d="M2.17,105.42l-1.31.08v.27l1.31-.08v-.27Z"/><path id="path1150" class="cls-96" d="M2.17,105.69l-1.31.08v.14l1.31-.08v-.14Z"/><path id="path1152" class="cls-97" d="M2.17,105.83l-1.31.08V106L2.17,106Z"/><path id="path1154" class="cls-98" d="M2.17,106,.86,106v.26l1.31-.08Z"/><path id="path1156" class="cls-99" d="M2.17,106.22l-1.31.08v.25l1.31-.08Z"/><path id="path1158" class="cls-100" d="M2.17,106.47l-1.31.08v.12l1.31-.07v-.13Z"/><path id="path1160" class="cls-101" d="M2.17,106.6l-1.31.07v.13l1.31-.08v-.12Z"/><path id="path1162" class="cls-102" d="M2.17,106.72l-1.31.08v.13l1.31-.08v-.13Z"/><path id="path1164" class="cls-103" d="M2.17,106.85l-1.31.08v.13L2.17,107v-.13Z"/><path id="path1166" class="cls-104" d="M2.17,107l-1.31.08v.12l1.31-.07V107Z"/><path id="path1168" class="cls-105" d="M2.17,107.11l-1.31.07v.13l1.31-.07Z"/><path id="path1170" class="cls-106" d="M2.17,107.24l-1.31.07v0l1.31-.08Z"/></g><g class="cls-112"><path id="path1186" class="cls-108" d="M2.28,104.87H2.05v1.35l.23,0Z"/><path id="path1188" class="cls-109" d="M2.28,106.21l-.23,0v.84h.23Z"/><path id="path1190" class="cls-110" d="M2.28,107.06H2.05v.19l.23,0Z"/></g><g class="cls-113"><path id="path1206" class="cls-92" d="M2.09,105.09q40.28-2.4,80.49-5.68v0q-40.21,3.28-80.49,5.68Z"/><path id="path1208" class="cls-92" d="M2.09,105.11q40.28-2.4,80.49-5.68v.13q-40.21,3.28-80.49,5.68Z"/><path id="path1210" class="cls-114" d="M2.09,105.24q40.28-2.4,80.49-5.68v.13Q42.37,103,2.09,105.38Z"/><path id="path1212" class="cls-115" d="M2.09,105.38q40.28-2.4,80.49-5.69v.17q-40.21,3.3-80.49,5.7Z"/><path id="path1214" class="cls-116" d="M2.09,105.56q40.28-2.41,80.49-5.7v.26q-40.21,3.3-80.49,5.7Z"/><path id="path1216" class="cls-117" d="M2.09,105.82q40.28-2.4,80.49-5.7v.13Q42.37,103.54,2.09,106Z"/><path id="path1218" class="cls-5" d="M2.09,106q40.28-2.4,80.49-5.7v.12q-40.21,3.3-80.49,5.71Z"/><path id="path1220" class="cls-118" d="M2.09,106.08q40.28-2.42,80.49-5.71v.23q-40.21,3.3-80.49,5.71Z"/><path id="path1222" class="cls-119" d="M2.09,106.31q40.28-2.4,80.49-5.71v.23q-40.21,3.3-80.49,5.71Z"/><path id="path1224" class="cls-120" d="M2.09,106.54q40.28-2.4,80.49-5.71v.11q-40.21,3.3-80.49,5.72Z"/><path id="path1226" class="cls-121" d="M2.09,106.66q40.28-2.41,80.49-5.72v.12q-40.21,3.3-80.49,5.71Z"/><path id="path1228" class="cls-108" d="M2.09,106.77q40.28-2.4,80.49-5.71v.29q-40.21,3.29-80.49,5.71Z"/><path id="path1230" class="cls-122" d="M2.09,107.06q40.28-2.4,80.49-5.71v.29q-40.21,3.28-80.49,5.71Z"/></g></g></g></g></svg>