<svg xmlns="http://www.w3.org/2000/svg" xmlns:xlink="http://www.w3.org/1999/xlink" viewBox="0 0 31.38 44.11"><defs><style>.cls-1{fill:#7e9eba;}.cls-2{fill:#688299;}.cls-3{fill:#708da6;}.cls-4{fill:url(#radial-gradient);}.cls-5{fill:url(#radial-gradient-2);}.cls-6{fill:url(#linear-gradient);}.cls-7{fill:url(#radial-gradient-3);}.cls-8{fill:url(#linear-gradient-2);}.cls-9{fill:#c10006;}.cls-10{fill:url(#linear-gradient-3);}.cls-11{fill:url(#linear-gradient-4);}.cls-12{fill:#fffec9;}.cls-13{fill:url(#linear-gradient-5);}.cls-14{fill:url(#radial-gradient-4);}.cls-15{fill:url(#radial-gradient-5);}.cls-16{fill:url(#radial-gradient-6);}</style><radialGradient id="radial-gradient" cx="13.35" cy="7.21" r="5.34" gradientUnits="userSpaceOnUse"><stop offset="0" stop-color="#a4a4a4"/><stop offset="0.15" stop-color="#a6a6a6"/><stop offset="0.2" stop-color="#adadad"/><stop offset="0.24" stop-color="#b8b8b8"/><stop offset="0.27" stop-color="#c9c9c9"/><stop offset="0.29" stop-color="#dfdfdf"/><stop offset="0.31" stop-color="#f3f3f3"/><stop offset="0.32" stop-color="#eee"/><stop offset="0.44" stop-color="#a9a9a9"/><stop offset="0.52" stop-color="#7e7e7e"/><stop offset="0.57" stop-color="#6d6d6d"/><stop offset="0.72" stop-color="#1f1f1f"/><stop offset="0.94" stop-color="#f3f3f3"/><stop offset="1" stop-color="#cacaca"/></radialGradient><radialGradient id="radial-gradient-2" cx="13.32" cy="7.33" r="5.21" gradientUnits="userSpaceOnUse"><stop offset="0" stop-color="#1e1e1e"/><stop offset="0.27" stop-color="#202020"/><stop offset="0.36" stop-color="#272727"/><stop offset="0.43" stop-color="#323232"/><stop offset="0.49" stop-color="#434343"/><stop offset="0.54" stop-color="#595959"/><stop offset="0.57" stop-color="#6d6d6d"/><stop offset="1" stop-color="#454545"/></radialGradient><linearGradient id="linear-gradient" x1="-559.87" y1="27.69" x2="-558.02" y2="27.69" gradientTransform="matrix(-1, 0, 0, 1, -547.48, 0)" gradientUnits="userSpaceOnUse"><stop offset="0" stop-color="#101010"/><stop offset="0.05" stop-color="#121212"/><stop offset="0.07" stop-color="#191919"/><stop offset="0.08" stop-color="#242424"/><stop offset="0.09" stop-color="#353535"/><stop offset="0.1" stop-color="#4b4b4b"/><stop offset="0.11" stop-color="#676767"/><stop offset="0.11" stop-color="#878787"/><stop offset="0.12" stop-color="#adadad"/><stop offset="0.13" stop-color="#d6d6d6"/><stop offset="0.13" stop-color="#e7e7e7"/><stop offset="0.19" stop-color="#e5e5e5"/><stop offset="0.21" stop-color="#dedede"/><stop offset="0.23" stop-color="#d3d3d3"/><stop offset="0.24" stop-color="#c2c2c2"/><stop offset="0.25" stop-color="#acacac"/><stop offset="0.26" stop-color="#909090"/><stop offset="0.27" stop-color="#707070"/><stop offset="0.28" stop-color="#4a4a4a"/><stop offset="0.29" stop-color="#212121"/><stop offset="0.29" stop-color="#0e0e0e"/><stop offset="0.37" stop-color="#101010"/><stop offset="0.39" stop-color="#171717"/><stop offset="0.41" stop-color="#222"/><stop offset="0.43" stop-color="#333"/><stop offset="0.44" stop-color="#494949"/><stop offset="0.45" stop-color="#656565"/><stop offset="0.46" stop-color="#858585"/><stop offset="0.47" stop-color="#ababab"/><stop offset="0.48" stop-color="#d4d4d4"/><stop offset="0.48" stop-color="#e7e7e7"/><stop offset="0.82" stop-color="#e9e9e9"/><stop offset="0.83" stop-color="#c6c6c6"/><stop offset="0.83" stop-color="#9d9d9d"/><stop offset="0.84" stop-color="#777"/><stop offset="0.85" stop-color="#575757"/><stop offset="0.86" stop-color="#3b3b3b"/><stop offset="0.88" stop-color="#252525"/><stop offset="0.89" stop-color="#141414"/><stop offset="0.91" stop-color="#090909"/><stop offset="0.93" stop-color="#020202"/><stop offset="1"/></linearGradient><radialGradient id="radial-gradient-3" cx="-257.69" cy="9.02" r="1.27" gradientTransform="matrix(-1.47, 0, 0, 1.58, -369.74, 1.02)" gradientUnits="userSpaceOnUse"><stop offset="0" stop-color="#0a0a0a"/><stop offset="0.26" stop-color="#0c0c0c"/><stop offset="0.35" stop-color="#131313"/><stop offset="0.41" stop-color="#1e1e1e"/><stop offset="0.47" stop-color="#2f2f2f"/><stop offset="0.51" stop-color="#454545"/><stop offset="0.55" stop-color="#606060"/><stop offset="0.57" stop-color="#6d6d6d"/><stop offset="0.88" stop-color="#191919"/><stop offset="0.9" stop-color="#2f2f2f"/><stop offset="0.93" stop-color="#595959"/><stop offset="0.94" stop-color="#6a6a6a"/><stop offset="1"/></radialGradient><linearGradient id="linear-gradient-2" x1="-560.49" y1="41.12" x2="-557.46" y2="41.12" gradientTransform="matrix(-1, 0, 0, 1, -547.48, 0)" gradientUnits="userSpaceOnUse"><stop offset="0" stop-color="#fff"/><stop offset="1"/></linearGradient><linearGradient id="linear-gradient-3" x1="-565.25" y1="41.53" x2="-562.22" y2="41.53" xlink:href="#linear-gradient-2"/><linearGradient id="linear-gradient-4" x1="15.91" y1="18.91" x2="15.91" y2="11.27" gradientUnits="userSpaceOnUse"><stop offset="0" stop-color="#fff" stop-opacity="0"/><stop offset="0.1" stop-color="#fff" stop-opacity="0.18"/><stop offset="0.23" stop-color="#fff" stop-opacity="0.39"/><stop offset="0.37" stop-color="#fff" stop-opacity="0.58"/><stop offset="0.5" stop-color="#fff" stop-opacity="0.73"/><stop offset="0.63" stop-color="#fff" stop-opacity="0.85"/><stop offset="0.76" stop-color="#fff" stop-opacity="0.93"/><stop offset="0.88" stop-color="#fff" stop-opacity="0.98"/><stop offset="1" stop-color="#fff"/></linearGradient><linearGradient id="linear-gradient-5" x1="-434.47" y1="264.07" x2="-432.62" y2="264.07" gradientTransform="matrix(0, -1, -1, 0, 280.36, -422.47)" xlink:href="#linear-gradient"/><radialGradient id="radial-gradient-4" cx="-172.63" cy="157.39" r="1.27" gradientTransform="matrix(0, -1.47, -1.58, 0, 279.33, -244.73)" xlink:href="#radial-gradient-3"/><radialGradient id="radial-gradient-5" cx="-172.63" cy="-56.32" r="1.27" gradientTransform="matrix(0, -1.47, 1.58, 0, 89.92, -244.73)" xlink:href="#radial-gradient-3"/><radialGradient id="radial-gradient-6" cx="-192.99" cy="5.46" r="0.61" gradientTransform="matrix(-1.58, 0, 0, 1.58, -289.82, 1.02)" gradientUnits="userSpaceOnUse"><stop offset="0" stop-color="#9b9b9b"/><stop offset="1"/></radialGradient></defs><title>lamp_table</title><g id="Layer_2" data-name="Layer 2"><g id="lamp_table"><g id="lamp_table-2" data-name="lamp_table"><polygon class="cls-1" points="0.18 41.64 17.32 42.69 22.58 40.88 5.74 39.95 0.18 41.64"/><polygon class="cls-2" points="17.32 44.11 22.59 42.31 22.58 40.88 17.32 42.69 17.32 44.11"/><polygon class="cls-3" points="0.15 42.92 17.32 44.11 17.35 42.69 0.18 41.64 0.15 42.92"/><path class="cls-4" d="M11.11,14.39h.74c-.17-.13-.76-13.6.57-13.72s2.72,8,2.47,8.14l.74-.09S14.28-.46,12.34,0,11.35,14.34,11.11,14.39Z"/><path class="cls-5" d="M11.44,14.39h.16s-.9-13.88.82-14,2.8,8.29,2.8,8.29h.16s-1.23-9-3-8.46S11.44,14.39,11.44,14.39Z"/><polygon class="cls-6" points="10.54 15.65 10.54 40.94 12.38 40.94 12.38 15.64 11.08 14.43 10.54 15.65"/><polygon class="cls-7" points="10.54 15.65 12.38 15.64 11.87 14.4 11.08 14.41 10.54 15.65"/><path class="cls-8" d="M10,41.1a.56.56,0,0,0,.61.48H12.4A.56.56,0,0,0,13,41.1h0c0-.27-.3-.43-.63-.43,0,0-.05.12-.91.12s-.9-.12-.9-.12c-.34,0-.59.16-.59.43Z"/><rect class="cls-9" x="15.3" y="40.59" width="1.89" height="1.07" rx="0.53" ry="0.53"/><path class="cls-10" d="M14.74,41.51a.57.57,0,0,0,.61.48h1.81a.56.56,0,0,0,.61-.48h0c0-.27-.29-.43-.63-.43,0,0-.05.12-.9.12s-.91-.12-.91-.12c-.34,0-.59.16-.59.43Z"/><rect class="cls-11" x="2.65" y="11.27" width="26.53" height="7.64" rx="0.99" ry="0.99"/><rect class="cls-12" x="2.65" y="11.27" width="26.53" height="1.23" rx="0.62" ry="0.62"/><polygon class="cls-13" points="30.13 10.16 1.23 10.16 1.23 12 30.14 12 31.35 10.7 30.13 10.16"/><polygon class="cls-14" points="30.13 10.16 30.14 12 31.38 11.49 31.37 10.7 30.13 10.16"/><polygon class="cls-15" points="1.25 10.16 1.25 12 0 11.49 0.02 10.7 1.25 10.16"/><polygon class="cls-16" points="14.29 10.58 15.93 10.52 16.3 10.13 15.63 8.74 14.85 8.79 14.29 10.58"/></g></g></g></svg>