<svg xmlns="http://www.w3.org/2000/svg" xmlns:xlink="http://www.w3.org/1999/xlink" viewBox="0 0 166.56 36.12"><defs><style>.cls-1{fill:none;}.cls-2{clip-path:url(#clip-path);}.cls-3{fill:#a8754d;}.cls-4{fill:#a9764d;}.cls-5{fill:#aa764e;}.cls-6{fill:#ab774e;}.cls-7{fill:#ac784f;}.cls-8{fill:#ad784f;}.cls-9{fill:#ae7950;}.cls-10{fill:#af7a50;}.cls-11{fill:#b07b51;}.cls-12{fill:#b17b51;}.cls-13{fill:#b27c51;}.cls-14{fill:#b37d52;}.cls-15{fill:#b47d52;}.cls-16{fill:#b57e53;}.cls-17{fill:#b67f53;}.cls-18{fill:#b77f54;}.cls-19{fill:#b88054;}.cls-20{fill:#b98155;}.cls-21{fill:#ba8255;}.cls-22{fill:#bb8255;}.cls-23{fill:#bc8356;}.cls-24{fill:#bd8456;}.cls-25{fill:#be8457;}.cls-26{fill:#bf8557;}.cls-27{fill:#c08658;}.cls-28{fill:#c18658;}.cls-29{fill:#c28758;}.cls-30{fill:#c38859;}.cls-31{fill:#c48959;}.cls-32{fill:#c5895a;}.cls-33{fill:#c68a5a;}.cls-34{fill:#c78b5b;}.cls-35{fill:#c88b5b;}.cls-36{fill:#c98c5c;}.cls-37{fill:#ca8d5c;}.cls-38{fill:#cb8d5c;}.cls-39{fill:#cc8e5d;}.cls-40{fill:#cd8f5d;}.cls-41{fill:#ce905e;}.cls-42{fill:#cf905e;}.cls-43{fill:#d0915f;}.cls-44{fill:#d1925f;}.cls-45{fill:#d29260;}.cls-46{fill:#d49360;}.cls-47{fill:#d59460;}.cls-48{fill:#d69461;}.cls-49{fill:#d79561;}.cls-50{fill:#d89662;}.cls-51{fill:#d99662;}.cls-52{fill:#da9763;}.cls-53{fill:#db9863;}.cls-54{fill:#dc9964;}.cls-55{fill:#dd9964;}.cls-56{fill:#de9a64;}.cls-57{fill:#df9b65;}.cls-58{fill:#e09b65;}.cls-59{fill:#e19c66;}.cls-60{fill:#e29d66;}.cls-61{fill:#e39d67;}.cls-62{fill:#e49e67;}.cls-63{fill:#e59f68;}.cls-64{fill:#e6a068;}.cls-65{fill:#e7a068;}.cls-66{fill:#e8a169;}.cls-67{fill:#e9a269;}.cls-68{fill:#eaa26a;}.cls-69{fill:#eba36a;}.cls-70{fill:#eca46b;}.cls-71{fill:#eda46b;}.cls-72{fill:#eea56b;}.cls-73{fill:#efa66c;}.cls-74{fill:#f0a76c;}.cls-75{fill:#f1a76d;}.cls-76{fill:#f2a86d;}.cls-77{fill:#f3a96e;}.cls-78{fill:#f4a96e;}.cls-79{fill:#f5aa6f;}.cls-80{fill:#f6ab6f;}.cls-81{fill:#f7ab6f;}.cls-82{fill:#f8ac70;}.cls-83{fill:#f9ad70;}.cls-84{fill:#faae71;}.cls-85{fill:#fbae71;}.cls-86{fill:#fcaf72;}.cls-87{fill:#fdb072;}.cls-88{fill:#feb073;}.cls-89{fill:#ffb173;}.cls-90{clip-path:url(#clip-path-2);}.cls-91{fill:#5086b5;}.cls-92{clip-path:url(#clip-path-3);}.cls-93{fill:#ffff4d;}.cls-94{fill:#ffff5a;}.cls-95{fill:#ffff6a;}.cls-96{fill:#ff7;}.cls-97{fill:#ffff6d;}.cls-98{fill:#ffff68;}.cls-99{fill:#ffff7f;}.cls-100{fill:#ffff89;}.cls-101{fill:#ffff9c;}.cls-102{fill:#ffffa3;}.cls-103{fill:#ffffb9;}.cls-104{fill:#ff8;}.cls-105{fill:#ffffb2;}.cls-106{fill:#ffc;}.cls-107{fill:#ffffd2;}.cls-108{fill:#ffff8b;}.cls-109{fill:#ffffb8;}.cls-110{fill:#ffffd3;}.cls-111{fill:#ffffda;}.cls-112{fill:#ffff8c;}.cls-113{fill:#ffffba;}.cls-114{fill:#ffffd5;}.cls-115{fill:#ffffb3;}.cls-116{fill:#ffffcd;}.cls-117{fill:#ffff7e;}.cls-118{fill:#ffff74;}.cls-119{fill:#ffff91;}.cls-120{fill:#ffffa4;}.cls-121{fill:#ffff6e;}.cls-122{fill:#ff6;}.cls-123{fill:#ffff85;}.cls-124{fill:#ffff93;}.cls-125{fill:#ffff7a;}.cls-126{fill:#ffff5b;}.cls-127{fill:#ffff63;}.cls-128{fill:#ffff54;}.cls-129{fill:#ffff7d;}.cls-130{fill:#ffffc0;}.cls-131{fill:#ffffd4;}.cls-132{fill:#ffd;}.cls-133{fill:#ffffde;}.cls-134{fill:#ffffd6;}.cls-135{fill:#ffffc2;}.cls-136{fill:#ffffab;}.cls-137{fill:#ffff98;}.cls-138{fill:#ffff7b;}.cls-139{fill:#ffff65;}.cls-140{fill:#ffff56;}</style><clipPath id="clip-path" transform="translate(-1.82 -1.54)"><path class="cls-1" d="M1.82,16.09v6.52H168.39V16.09c0-8-37.29-14.55-83.28-14.55h0c-46,0-83.29,6.51-83.29,14.55"/></clipPath><clipPath id="clip-path-2" transform="translate(-1.82 -1.54)"><rect class="cls-1" width="170" height="38.5"/></clipPath><clipPath id="clip-path-3" transform="translate(-1.82 -1.54)"><path class="cls-1" d="M51.08,9.83c-20.66,1.62-36.86,4.66-44.49,8.42h0c-3.09,1.52-4.77,3.16-4.77,4.86h0c0,1.71,1.68,3.35,4.77,4.87h0c7.63,3.75,23.83,6.8,44.49,8.41h0c10.39.82,21.9,1.27,34,1.27h0c10.83,0,21.18-.36,30.68-1h0C138,35.1,155.58,31.93,163.62,28h0c3.08-1.52,4.77-3.16,4.77-4.87h0c0-1.7-1.69-3.34-4.77-4.86h0c-8-4-25.58-7.13-47.83-8.67h0c-9.5-.66-19.85-1-30.68-1h0c-12.13,0-23.64.46-34,1.27"/></clipPath></defs><title>lamp_top</title><g id="Layer_2" data-name="Layer 2"><g id="lamp_top"><g id="lamp_top-2" data-name="lamp_top"><g id="g12"><g class="cls-2"><g id="g14"><g id="g20"><path id="path22" class="cls-3" d="M1.82,22.61h0Z" transform="translate(-1.82 -1.54)"/></g><path id="path24" class="cls-3" d="M1.82,22.37H168.39v.24H1.82Z" transform="translate(-1.82 -1.54)"/><path id="path26" class="cls-4" d="M1.82,22.13H168.39v.24H1.82Z" transform="translate(-1.82 -1.54)"/><path id="path28" class="cls-5" d="M1.82,21.88H168.39v.25H1.82Z" transform="translate(-1.82 -1.54)"/><path id="path30" class="cls-6" d="M1.82,21.64H168.39v.24H1.82Z" transform="translate(-1.82 -1.54)"/><path id="path32" class="cls-7" d="M1.82,21.4H168.39v.24H1.82Z" transform="translate(-1.82 -1.54)"/><path id="path34" class="cls-8" d="M1.82,21.16H168.39v.24H1.82Z" transform="translate(-1.82 -1.54)"/><path id="path36" class="cls-9" d="M1.82,20.92H168.39v.24H1.82Z" transform="translate(-1.82 -1.54)"/><path id="path38" class="cls-10" d="M1.82,20.67H168.39v.25H1.82Z" transform="translate(-1.82 -1.54)"/><path id="path40" class="cls-11" d="M1.82,20.43H168.39v.24H1.82Z" transform="translate(-1.82 -1.54)"/><path id="path42" class="cls-12" d="M1.82,20.19H168.39v.24H1.82Z" transform="translate(-1.82 -1.54)"/><path id="path44" class="cls-13" d="M1.82,20H168.39v.24H1.82Z" transform="translate(-1.82 -1.54)"/><path id="path46" class="cls-14" d="M1.82,19.7H168.39V20H1.82Z" transform="translate(-1.82 -1.54)"/><path id="path48" class="cls-15" d="M1.82,19.46H168.39v.24H1.82Z" transform="translate(-1.82 -1.54)"/><path id="path50" class="cls-16" d="M1.82,19.22H168.39v.24H1.82Z" transform="translate(-1.82 -1.54)"/><path id="path52" class="cls-17" d="M1.82,19H168.39v.24H1.82Z" transform="translate(-1.82 -1.54)"/><path id="path54" class="cls-18" d="M1.82,18.74H168.39V19H1.82Z" transform="translate(-1.82 -1.54)"/><path id="path56" class="cls-19" d="M1.82,18.49H168.39v.25H1.82Z" transform="translate(-1.82 -1.54)"/><path id="path58" class="cls-20" d="M1.82,18.25H168.39v.24H1.82Z" transform="translate(-1.82 -1.54)"/><path id="path60" class="cls-21" d="M1.82,18H168.39v.24H1.82Z" transform="translate(-1.82 -1.54)"/><path id="path62" class="cls-22" d="M1.82,17.77H168.39V18H1.82Z" transform="translate(-1.82 -1.54)"/><path id="path64" class="cls-23" d="M1.82,17.52H168.39v.25H1.82Z" transform="translate(-1.82 -1.54)"/><path id="path66" class="cls-24" d="M1.82,17.28H168.39v.25H1.82Z" transform="translate(-1.82 -1.54)"/><path id="path68" class="cls-25" d="M1.82,17H168.39v.24H1.82Z" transform="translate(-1.82 -1.54)"/><path id="path70" class="cls-26" d="M1.82,16.8H168.39V17H1.82Z" transform="translate(-1.82 -1.54)"/><path id="path72" class="cls-27" d="M1.82,16.55H168.39v.25H1.82Z" transform="translate(-1.82 -1.54)"/><path id="path74" class="cls-28" d="M1.82,16.31H168.39v.24H1.82Z" transform="translate(-1.82 -1.54)"/><path id="path76" class="cls-29" d="M1.82,16.07H168.39v.24H1.82Z" transform="translate(-1.82 -1.54)"/><path id="path78" class="cls-30" d="M1.82,15.83H168.39v.24H1.82Z" transform="translate(-1.82 -1.54)"/><path id="path80" class="cls-31" d="M1.82,15.59H168.39v.24H1.82Z" transform="translate(-1.82 -1.54)"/><path id="path82" class="cls-32" d="M1.82,15.34H168.39v.25H1.82Z" transform="translate(-1.82 -1.54)"/><path id="path84" class="cls-33" d="M1.82,15.1H168.39v.24H1.82Z" transform="translate(-1.82 -1.54)"/><path id="path86" class="cls-34" d="M1.82,14.86H168.39v.24H1.82Z" transform="translate(-1.82 -1.54)"/><path id="path88" class="cls-35" d="M1.82,14.62H168.39v.24H1.82Z" transform="translate(-1.82 -1.54)"/><path id="path90" class="cls-36" d="M1.82,14.38H168.39v.24H1.82Z" transform="translate(-1.82 -1.54)"/><path id="path92" class="cls-37" d="M1.82,14.13H168.39v.25H1.82Z" transform="translate(-1.82 -1.54)"/><path id="path94" class="cls-38" d="M1.82,13.89H168.39v.24H1.82Z" transform="translate(-1.82 -1.54)"/><path id="path96" class="cls-39" d="M1.82,13.65H168.39v.24H1.82Z" transform="translate(-1.82 -1.54)"/><path id="path98" class="cls-40" d="M1.82,13.41H168.39v.24H1.82Z" transform="translate(-1.82 -1.54)"/><path id="path100" class="cls-41" d="M1.82,13.17H168.39v.24H1.82Z" transform="translate(-1.82 -1.54)"/><path id="path102" class="cls-42" d="M1.82,12.92H168.39v.25H1.82Z" transform="translate(-1.82 -1.54)"/><path id="path104" class="cls-43" d="M1.82,12.68H168.39v.24H1.82Z" transform="translate(-1.82 -1.54)"/><path id="path106" class="cls-44" d="M1.82,12.44H168.39v.24H1.82Z" transform="translate(-1.82 -1.54)"/><path id="path108" class="cls-45" d="M1.82,12.2H168.39v.24H1.82Z" transform="translate(-1.82 -1.54)"/><path id="path110" class="cls-46" d="M1.82,12H168.39v.25H1.82Z" transform="translate(-1.82 -1.54)"/><path id="path112" class="cls-47" d="M1.82,11.71H168.39V12H1.82Z" transform="translate(-1.82 -1.54)"/><path id="path114" class="cls-48" d="M1.82,11.47H168.39v.24H1.82Z" transform="translate(-1.82 -1.54)"/><path id="path116" class="cls-49" d="M1.82,11.23H168.39v.24H1.82Z" transform="translate(-1.82 -1.54)"/><path id="path118" class="cls-50" d="M1.82,11H168.39v.24H1.82Z" transform="translate(-1.82 -1.54)"/><path id="path120" class="cls-51" d="M1.82,10.74H168.39V11H1.82Z" transform="translate(-1.82 -1.54)"/><path id="path122" class="cls-52" d="M1.82,10.5H168.39v.24H1.82Z" transform="translate(-1.82 -1.54)"/><path id="path124" class="cls-53" d="M1.82,10.26H168.39v.24H1.82Z" transform="translate(-1.82 -1.54)"/><path id="path126" class="cls-54" d="M1.82,10H168.39v.24H1.82Z" transform="translate(-1.82 -1.54)"/><path id="path128" class="cls-55" d="M1.82,9.77H168.39V10H1.82Z" transform="translate(-1.82 -1.54)"/><path id="path130" class="cls-56" d="M1.82,9.53H168.39v.24H1.82Z" transform="translate(-1.82 -1.54)"/><path id="path132" class="cls-57" d="M1.82,9.29H168.39v.24H1.82Z" transform="translate(-1.82 -1.54)"/><path id="path134" class="cls-58" d="M1.82,9.05H168.39v.24H1.82Z" transform="translate(-1.82 -1.54)"/><path id="path136" class="cls-59" d="M1.82,8.8H168.39v.25H1.82Z" transform="translate(-1.82 -1.54)"/><path id="path138" class="cls-60" d="M1.82,8.56H168.39V8.8H1.82Z" transform="translate(-1.82 -1.54)"/><path id="path140" class="cls-61" d="M1.82,8.32H168.39v.24H1.82Z" transform="translate(-1.82 -1.54)"/><path id="path142" class="cls-62" d="M1.82,8.08H168.39v.24H1.82Z" transform="translate(-1.82 -1.54)"/><path id="path144" class="cls-63" d="M1.82,7.84H168.39v.24H1.82Z" transform="translate(-1.82 -1.54)"/><path id="path146" class="cls-64" d="M1.82,7.59H168.39v.25H1.82Z" transform="translate(-1.82 -1.54)"/><path id="path148" class="cls-65" d="M1.82,7.35H168.39v.24H1.82Z" transform="translate(-1.82 -1.54)"/><path id="path150" class="cls-66" d="M1.82,7.11H168.39v.24H1.82Z" transform="translate(-1.82 -1.54)"/><path id="path152" class="cls-67" d="M1.82,6.87H168.39v.24H1.82Z" transform="translate(-1.82 -1.54)"/><path id="path154" class="cls-68" d="M1.82,6.63H168.39v.24H1.82Z" transform="translate(-1.82 -1.54)"/><path id="path156" class="cls-69" d="M1.82,6.38H168.39v.25H1.82Z" transform="translate(-1.82 -1.54)"/><path id="path158" class="cls-70" d="M1.82,6.14H168.39v.24H1.82Z" transform="translate(-1.82 -1.54)"/><path id="path160" class="cls-71" d="M1.82,5.9H168.39v.24H1.82Z" transform="translate(-1.82 -1.54)"/><path id="path162" class="cls-72" d="M1.82,5.66H168.39V5.9H1.82Z" transform="translate(-1.82 -1.54)"/><path id="path164" class="cls-73" d="M1.82,5.41H168.39v.25H1.82Z" transform="translate(-1.82 -1.54)"/><path id="path166" class="cls-74" d="M1.82,5.17H168.39v.25H1.82Z" transform="translate(-1.82 -1.54)"/><path id="path168" class="cls-75" d="M1.82,4.93H168.39v.24H1.82Z" transform="translate(-1.82 -1.54)"/><path id="path170" class="cls-76" d="M1.82,4.69H168.39v.24H1.82Z" transform="translate(-1.82 -1.54)"/><path id="path172" class="cls-77" d="M1.82,4.45H168.39v.24H1.82Z" transform="translate(-1.82 -1.54)"/><path id="path174" class="cls-78" d="M1.82,4.2H168.39v.25H1.82Z" transform="translate(-1.82 -1.54)"/><path id="path176" class="cls-79" d="M1.82,4H168.39V4.2H1.82Z" transform="translate(-1.82 -1.54)"/><path id="path178" class="cls-80" d="M1.82,3.72H168.39V4H1.82Z" transform="translate(-1.82 -1.54)"/><path id="path180" class="cls-81" d="M1.82,3.48H168.39v.24H1.82Z" transform="translate(-1.82 -1.54)"/><path id="path182" class="cls-82" d="M1.82,3.23H168.39v.25H1.82Z" transform="translate(-1.82 -1.54)"/><path id="path184" class="cls-83" d="M1.82,3H168.39v.24H1.82Z" transform="translate(-1.82 -1.54)"/><path id="path186" class="cls-84" d="M1.82,2.75H168.39V3H1.82Z" transform="translate(-1.82 -1.54)"/><path id="path188" class="cls-85" d="M1.82,2.51H168.39v.24H1.82Z" transform="translate(-1.82 -1.54)"/><path id="path190" class="cls-86" d="M1.82,2.27H168.39v.24H1.82Z" transform="translate(-1.82 -1.54)"/><path id="path192" class="cls-87" d="M1.82,2H168.39v.25H1.82Z" transform="translate(-1.82 -1.54)"/><path id="path194" class="cls-88" d="M1.82,1.78H168.39V2H1.82Z" transform="translate(-1.82 -1.54)"/><path id="path196" class="cls-89" d="M168.39,1.78H1.82V1.54H168.39Z" transform="translate(-1.82 -1.54)"/></g></g></g><g id="g198"><g class="cls-90"><g id="g200"><g id="g206"><path id="path208" class="cls-91" d="M85.1,6.56c-46,0-83.28,6.51-83.28,14.55v2c0-8,37.29-14.55,83.28-14.55s83.29,6.52,83.29,14.55v-2c0-8-37.29-14.55-83.29-14.55" transform="translate(-1.82 -1.54)"/></g></g></g></g><g id="g210"><g class="cls-92"><g id="g212"><g id="g218"><g id="g220"><g id="g222"><path id="path224" class="cls-93" d="M6.59,28a45,45,0,0,0,7.27,2.67,9.71,9.71,0,0,1-1.78-1.56,53.17,53.17,0,0,1-7.53-2.27A18.77,18.77,0,0,0,6.59,28Z" transform="translate(-1.82 -1.54)"/><path id="path226" class="cls-93" d="M4.55,26.82a53.17,53.17,0,0,0,7.53,2.27,9.5,9.5,0,0,1-1.24-1.75c-3.12-.65-5.75-1.26-7.79-1.73A9.28,9.28,0,0,0,4.55,26.82Z" transform="translate(-1.82 -1.54)"/><path id="path228" class="cls-93" d="M13.86,30.65c2.91.84,6.29,1.62,10.09,2.34-.49-.68-.93-1.3-1.32-1.89-4-.62-7.5-1.29-10.55-2A9.71,9.71,0,0,0,13.86,30.65Z" transform="translate(-1.82 -1.54)"/><path id="path230" class="cls-94" d="M12.08,29.09c3.05.72,6.59,1.39,10.55,2a14.18,14.18,0,0,1-1-1.73c-4-.67-7.66-1.37-10.79-2A9.5,9.5,0,0,0,12.08,29.09Z" transform="translate(-1.82 -1.54)"/><path id="path232" class="cls-93" d="M3.05,25.61c2,.47,4.67,1.08,7.79,1.73a8.52,8.52,0,0,1-.72-1.78,76,76,0,0,0-8-1.18A4.81,4.81,0,0,0,3.05,25.61Z" transform="translate(-1.82 -1.54)"/><path id="path234" class="cls-93" d="M2.13,24.38a76,76,0,0,1,8,1.18,6.28,6.28,0,0,1-.24-1.66,58.72,58.72,0,0,0-8.06-.79A2.93,2.93,0,0,0,2.13,24.38Z" transform="translate(-1.82 -1.54)"/><path id="path236" class="cls-95" d="M10.84,27.34c3.13.66,6.75,1.36,10.79,2A7.89,7.89,0,0,1,21,27.61c-4.06-.72-7.71-1.46-10.87-2.05A8.52,8.52,0,0,0,10.84,27.34Z" transform="translate(-1.82 -1.54)"/><path id="path238" class="cls-96" d="M10.12,25.56c3.16.59,6.81,1.33,10.87,2.05a8.24,8.24,0,0,1-.23-2c-4.05-.63-7.7-1.25-10.88-1.72A6.28,6.28,0,0,0,10.12,25.56Z" transform="translate(-1.82 -1.54)"/><path id="path240" class="cls-93" d="M24,33c3.79.71,8,1.36,12.53,1.94a17.59,17.59,0,0,0-.86-2.16c-4.67-.49-9-1.05-13-1.67C23,31.69,23.46,32.31,24,33Z" transform="translate(-1.82 -1.54)"/><path id="path242" class="cls-97" d="M22.63,31.1c3.95.62,8.32,1.18,13,1.67-.28-.58-.54-1.07-.77-1.57-4.75-.52-9.19-1.15-13.22-1.83A14.18,14.18,0,0,0,22.63,31.1Z" transform="translate(-1.82 -1.54)"/><path id="path244" class="cls-93" d="M36.48,34.93C41,35.5,45.91,36,51.08,36.4c-.1-.49-.2-.92-.3-1.31-5.18-.39-10.12-.84-14.73-1.35C36.19,34.09,36.34,34.48,36.48,34.93Z" transform="translate(-1.82 -1.54)"/><path id="path246" class="cls-98" d="M36.05,33.74c4.61.51,9.55,1,14.73,1.35-.1-.39-.2-.74-.29-1.06-5.21-.34-10.19-.76-14.87-1.26C35.76,33.07,35.9,33.38,36.05,33.74Z" transform="translate(-1.82 -1.54)"/><path id="path248" class="cls-99" d="M35.62,32.77c4.68.5,9.66.92,14.87,1.26-.19-.64-.36-1.17-.51-1.7-5.3-.2-10.37-.6-15.13-1.13C35.08,31.7,35.34,32.19,35.62,32.77Z" transform="translate(-1.82 -1.54)"/><path id="path250" class="cls-100" d="M21.63,29.37c4,.68,8.47,1.31,13.22,1.83a7.7,7.7,0,0,1-.54-1.6c-4.8-.55-9.27-1.26-13.32-2A7.89,7.89,0,0,0,21.63,29.37Z" transform="translate(-1.82 -1.54)"/><path id="path252" class="cls-101" d="M21,27.61c4.05.73,8.52,1.44,13.32,2a10,10,0,0,1-.21-2.25c-4.81-.48-9.28-1.1-13.34-1.73A8.24,8.24,0,0,0,21,27.61Z" transform="translate(-1.82 -1.54)"/><path id="path254" class="cls-102" d="M34.85,31.2c4.76.53,9.83.93,15.13,1.13a12.2,12.2,0,0,1-.36-1.73,151.43,151.43,0,0,1-15.31-1A7.7,7.7,0,0,0,34.85,31.2Z" transform="translate(-1.82 -1.54)"/><path id="path256" class="cls-103" d="M34.31,29.6a151.43,151.43,0,0,0,15.31,1,18.32,18.32,0,0,1-.14-2.47c-5.43,0-10.58-.31-15.38-.78A10,10,0,0,0,34.31,29.6Z" transform="translate(-1.82 -1.54)"/><path id="path258" class="cls-93" d="M51.08,36.4c5.19.4,10.67.72,16.36.93-.1-1.08-.2-1.88-.29-2.55-5.82-.16-11.42-.41-16.66-.75C50.68,34.67,50.88,35.42,51.08,36.4Z" transform="translate(-1.82 -1.54)"/><path id="path260" class="cls-104" d="M50.49,34c5.24.34,10.84.59,16.66.75l-.26-1.73c-5.9-.23-11.58-.52-16.91-.72C50.13,32.86,50.3,33.39,50.49,34Z" transform="translate(-1.82 -1.54)"/><path id="path262" class="cls-105" d="M50,32.33c5.33.2,11,.49,16.91.72-.07-.53-.13-1.07-.18-1.76C60.77,31,55,30.66,49.62,30.6A12.2,12.2,0,0,0,50,32.33Z" transform="translate(-1.82 -1.54)"/><path id="path264" class="cls-106" d="M49.62,30.6c5.42.06,11.15.38,17.09.69,0-.35,0-.73,0-1.17-5.95-.3-11.69-.6-17.14-.62C49.54,29.91,49.58,30.27,49.62,30.6Z" transform="translate(-1.82 -1.54)"/><path id="path266" class="cls-107" d="M49.52,29.5c5.45,0,11.19.32,17.14.62,0-.43,0-.92,0-1.49-6-.25-11.7-.5-17.16-.5C49.48,28.64,49.5,29.09,49.52,29.5Z" transform="translate(-1.82 -1.54)"/><path id="path268" class="cls-93" d="M67.44,37.33c5.7.22,11.6.33,17.66.33V35C79,35,73,34.94,67.15,34.78,67.24,35.45,67.34,36.25,67.44,37.33Z" transform="translate(-1.82 -1.54)"/><path id="path270" class="cls-108" d="M67.15,34.78C73,34.94,79,35,85.1,35V33.47c-6.19,0-12.31-.19-18.21-.42Z" transform="translate(-1.82 -1.54)"/><path id="path272" class="cls-109" d="M66.89,33.05c5.9.23,12,.42,18.21.42V31.88c-6.28,0-12.44-.29-18.39-.59C66.76,32,66.82,32.52,66.89,33.05Z" transform="translate(-1.82 -1.54)"/><path id="path274" class="cls-110" d="M66.71,31.29c6,.3,12.11.59,18.39.59V30.72c-6.31,0-12.48-.3-18.44-.6C66.67,30.56,66.69,30.94,66.71,31.29Z" transform="translate(-1.82 -1.54)"/><path id="path276" class="cls-111" d="M66.66,30.12c6,.3,12.13.6,18.44.6V29.13c-6.32,0-12.5-.25-18.46-.5C66.64,29.2,66.65,29.69,66.66,30.12Z" transform="translate(-1.82 -1.54)"/><path id="path278" class="cls-93" d="M85.1,37.66q4.07,0,8-.07c0-1.16.07-2,.1-2.62-2.68,0-5.4.05-8.13.05Z" transform="translate(-1.82 -1.54)"/><path id="path280" class="cls-112" d="M85.1,35c2.73,0,5.45,0,8.13-.05,0-.65.08-1.13.12-1.62-2.72.07-5.48.12-8.25.12Z" transform="translate(-1.82 -1.54)"/><path id="path282" class="cls-93" d="M93.13,37.59c2.65,0,5.25-.11,7.82-.19.08-1.1.17-1.91.25-2.58-2.62.06-5.28.12-8,.15C93.2,35.62,93.16,36.43,93.13,37.59Z" transform="translate(-1.82 -1.54)"/><path id="path284" class="cls-104" d="M93.23,35c2.69,0,5.35-.09,8-.15.08-.67.16-1.2.23-1.74-2.66.11-5.35.21-8.08.27C93.31,33.84,93.27,34.32,93.23,35Z" transform="translate(-1.82 -1.54)"/><path id="path286" class="cls-113" d="M85.1,33.47c2.77,0,5.53,0,8.25-.12,0-.48.07-1,.1-1.64-2.75.1-5.54.17-8.35.17Z" transform="translate(-1.82 -1.54)"/><path id="path288" class="cls-114" d="M85.1,31.88c2.81,0,5.6-.07,8.35-.17,0-.68,0-1.53,0-2.73-2.76.09-5.56.15-8.39.15Z" transform="translate(-1.82 -1.54)"/><path id="path290" class="cls-115" d="M93.35,33.35c2.73-.06,5.42-.16,8.08-.27.07-.53.13-1.07.17-1.76-2.68.14-5.4.28-8.15.39C93.42,32.38,93.39,32.87,93.35,33.35Z" transform="translate(-1.82 -1.54)"/><path id="path292" class="cls-116" d="M93.45,31.71c2.75-.11,5.47-.25,8.15-.39,0-.7.06-1.54.06-2.69-2.68.13-5.41.25-8.17.35,0,1.2,0,2.05,0,2.73Z" transform="translate(-1.82 -1.54)"/><path id="path294" class="cls-93" d="M101,37.4c2.56-.09,5.09-.19,7.56-.32.14-1,.28-1.84.4-2.52q-3.78.15-7.71.26C101.12,35.49,101,36.3,101,37.4Z" transform="translate(-1.82 -1.54)"/><path id="path296" class="cls-117" d="M101.2,34.82q3.93-.1,7.71-.26c.13-.68.25-1.24.35-1.81-2.56.11-5.18.23-7.83.33C101.36,33.62,101.28,34.15,101.2,34.82Z" transform="translate(-1.82 -1.54)"/><path id="path298" class="cls-93" d="M108.51,37.08c2.47-.13,4.9-.27,7.28-.44.16-1,.33-1.79.5-2.44-2.39.14-4.86.26-7.38.36C108.79,35.24,108.65,36,108.51,37.08Z" transform="translate(-1.82 -1.54)"/><path id="path300" class="cls-118" d="M108.91,34.56c2.52-.1,5-.22,7.38-.36.16-.66.32-1.2.46-1.74-2.43.08-4.94.18-7.49.29C109.16,33.32,109,33.88,108.91,34.56Z" transform="translate(-1.82 -1.54)"/><path id="path302" class="cls-102" d="M101.43,33.08c2.65-.1,5.27-.22,7.83-.33.09-.57.18-1.14.23-1.84-2.58.12-5.22.26-7.89.41C101.56,32,101.5,32.55,101.43,33.08Z" transform="translate(-1.82 -1.54)"/><path id="path304" class="cls-113" d="M101.6,31.32c2.67-.15,5.31-.29,7.89-.41.06-.7.09-1.54.09-2.62-2.59.09-5.24.22-7.92.34,0,1.15,0,2-.06,2.69Z" transform="translate(-1.82 -1.54)"/><path id="path306" class="cls-119" d="M109.26,32.75c2.55-.11,5.06-.21,7.49-.29a13.2,13.2,0,0,0,.33-1.78c-2.47,0-5,.11-7.59.23C109.44,31.61,109.35,32.18,109.26,32.75Z" transform="translate(-1.82 -1.54)"/><path id="path308" class="cls-120" d="M109.49,30.91c2.59-.12,5.12-.21,7.59-.23a21.65,21.65,0,0,0,.13-2.55c-2.49,0-5,.06-7.63.16,0,1.08,0,1.92-.09,2.62Z" transform="translate(-1.82 -1.54)"/><path id="path310" class="cls-93" d="M115.79,36.64c5.56-.38,10.83-.87,15.73-1.45a18.49,18.49,0,0,1,.79-2.23c-5,.5-10.41.91-16,1.24C116.12,34.85,116,35.63,115.79,36.64Z" transform="translate(-1.82 -1.54)"/><path id="path312" class="cls-121" d="M116.29,34.2c5.61-.33,11-.74,16-1.24.26-.6.51-1.11.73-1.62-5.12.52-10.59.92-16.29,1.12C116.61,33,116.45,33.54,116.29,34.2Z" transform="translate(-1.82 -1.54)"/><path id="path314" class="cls-93" d="M131.52,35.19c4.9-.57,9.43-1.24,13.51-2,.47-.69.9-1.33,1.28-1.94-4.26.63-9,1.2-14,1.69A18.49,18.49,0,0,0,131.52,35.19Z" transform="translate(-1.82 -1.54)"/><path id="path316" class="cls-122" d="M132.31,33c5-.49,9.74-1.06,14-1.69a15.88,15.88,0,0,0,1-1.78c-4.34.68-9.13,1.33-14.25,1.85-.22.51-.47,1-.73,1.62Z" transform="translate(-1.82 -1.54)"/><path id="path318" class="cls-123" d="M116.75,32.46c5.7-.2,11.17-.6,16.29-1.12a8.29,8.29,0,0,0,.53-1.66c-5.16.55-10.69.94-16.49,1A13.2,13.2,0,0,1,116.75,32.46Z" transform="translate(-1.82 -1.54)"/><path id="path320" class="cls-124" d="M117.08,30.68c5.8-.06,11.33-.45,16.49-1a11.38,11.38,0,0,0,.21-2.33c-5.18.47-10.73.78-16.57.78A21.65,21.65,0,0,1,117.08,30.68Z" transform="translate(-1.82 -1.54)"/><path id="path322" class="cls-118" d="M133,31.34c5.12-.52,9.91-1.17,14.25-1.85a9.09,9.09,0,0,0,.62-1.82c-4.36.73-9.17,1.46-14.34,2a8.29,8.29,0,0,1-.53,1.66Z" transform="translate(-1.82 -1.54)"/><path id="path324" class="cls-125" d="M133.57,29.68c5.17-.55,10-1.28,14.34-2a8.83,8.83,0,0,0,.22-2.05c-4.36.63-9.17,1.25-14.35,1.73A11.38,11.38,0,0,1,133.57,29.68Z" transform="translate(-1.82 -1.54)"/><path id="path326" class="cls-93" d="M145,33.21c4.09-.74,7.73-1.55,10.85-2.43a9.69,9.69,0,0,0,1.76-1.59c-3.26.75-7.07,1.45-11.33,2.08C145.93,31.88,145.5,32.52,145,33.21Z" transform="translate(-1.82 -1.54)"/><path id="path328" class="cls-126" d="M146.31,31.27c4.26-.63,8.07-1.33,11.33-2.08a9.62,9.62,0,0,0,1.23-1.78c-3.35.67-7.24,1.39-11.58,2.08A15.88,15.88,0,0,1,146.31,31.27Z" transform="translate(-1.82 -1.54)"/><path id="path330" class="cls-93" d="M155.88,30.78a9.73,9.73,0,0,0,3-3.37c3.34-.68,6.14-1.3,8.29-1.8A13.22,13.22,0,0,1,163.62,28,45.43,45.43,0,0,1,155.88,30.78Z" transform="translate(-1.82 -1.54)"/><path id="path332" class="cls-127" d="M147.29,29.49a8.91,8.91,0,0,0,.84-3.87c4.37-.63,8.29-1.25,11.69-1.72a7.76,7.76,0,0,1-.95,3.51C155.52,28.08,151.63,28.8,147.29,29.49Z" transform="translate(-1.82 -1.54)"/><path id="path334" class="cls-128" d="M158.87,27.41a7.76,7.76,0,0,0,.95-3.51,66.83,66.83,0,0,1,8.57-.79,3.57,3.57,0,0,1-1.23,2.5c-2.15.5-4.95,1.12-8.29,1.8Z" transform="translate(-1.82 -1.54)"/><path id="path336" class="cls-93" d="M1.82,23.11a58.72,58.72,0,0,1,8.06.79A9.19,9.19,0,0,1,10.12,22a61.76,61.76,0,0,0-8-.14A2.89,2.89,0,0,0,1.82,23.11Z" transform="translate(-1.82 -1.54)"/><path id="path338" class="cls-93" d="M2.13,21.85a61.76,61.76,0,0,1,8,.14,14.58,14.58,0,0,1,.72-2.32,48.78,48.78,0,0,0-7.79.94A5,5,0,0,0,2.13,21.85Z" transform="translate(-1.82 -1.54)"/><path id="path340" class="cls-129" d="M9.88,23.9c3.18.47,6.83,1.09,10.88,1.72A21.59,21.59,0,0,1,21,22.84c-4.06-.33-7.71-.65-10.87-.85A9.19,9.19,0,0,0,9.88,23.9Z" transform="translate(-1.82 -1.54)"/><path id="path342" class="cls-96" d="M10.12,22c3.16.2,6.81.52,10.87.85.14-1.08.36-2.28.64-3.48-4,0-7.66.12-10.79.31A14.58,14.58,0,0,0,10.12,22Z" transform="translate(-1.82 -1.54)"/><path id="path344" class="cls-93" d="M3.05,20.61a48.78,48.78,0,0,1,7.79-.94,11.79,11.79,0,0,1,1.24-2.29,40.37,40.37,0,0,0-7.53,2A8.75,8.75,0,0,0,3.05,20.61Z" transform="translate(-1.82 -1.54)"/><path id="path346" class="cls-93" d="M4.55,19.41a40.37,40.37,0,0,1,7.53-2,7.47,7.47,0,0,1,1.78-1.81,44.89,44.89,0,0,0-7.27,2.68A17.24,17.24,0,0,0,4.55,19.41Z" transform="translate(-1.82 -1.54)"/><path id="path348" class="cls-95" d="M10.84,19.67c3.13-.19,6.75-.27,10.79-.31a27.9,27.9,0,0,1,1-3.45c-4,.42-7.5.9-10.55,1.47A11.79,11.79,0,0,0,10.84,19.67Z" transform="translate(-1.82 -1.54)"/><path id="path350" class="cls-94" d="M12.08,17.38c3.05-.57,6.59-1.05,10.55-1.47A11.44,11.44,0,0,1,24,13.24c-3.8.71-7.18,1.5-10.09,2.33A7.47,7.47,0,0,0,12.08,17.38Z" transform="translate(-1.82 -1.54)"/><path id="path352" class="cls-102" d="M20.76,25.62c4.06.63,8.53,1.25,13.34,1.73,0-.93.07-2.18.21-3.58-4.8-.25-9.27-.59-13.32-.93A21.59,21.59,0,0,0,20.76,25.62Z" transform="translate(-1.82 -1.54)"/><path id="path354" class="cls-101" d="M21,22.84c4.05.34,8.52.68,13.32.93.13-1.41.32-3,.54-4.52-4.75.05-9.19.06-13.22.11C21.35,20.56,21.13,21.76,21,22.84Z" transform="translate(-1.82 -1.54)"/><path id="path356" class="cls-130" d="M34.1,27.35c4.8.47,9.95.78,15.38.78,0-1,.05-2.43.14-4-5.39.07-10.52-.08-15.31-.32C34.17,25.17,34.1,26.42,34.1,27.35Z" transform="translate(-1.82 -1.54)"/><path id="path358" class="cls-103" d="M34.31,23.77c4.79.24,9.92.39,15.31.32.09-1.6.21-3.39.36-5.18-5.3.2-10.37.29-15.13.34C34.63,20.8,34.44,22.36,34.31,23.77Z" transform="translate(-1.82 -1.54)"/><path id="path360" class="cls-100" d="M21.63,19.36c4-.05,8.47-.06,13.22-.11.23-1.55.49-3.1.77-4.48-4.67.35-9,.72-13,1.14A27.9,27.9,0,0,0,21.63,19.36Z" transform="translate(-1.82 -1.54)"/><path id="path362" class="cls-97" d="M22.63,15.91c3.95-.42,8.32-.79,13-1.14a32.46,32.46,0,0,1,.86-3.47c-4.54.57-8.74,1.22-12.53,1.94A11.44,11.44,0,0,0,22.63,15.91Z" transform="translate(-1.82 -1.54)"/><path id="path364" class="cls-102" d="M34.85,19.25c4.76-.05,9.83-.14,15.13-.34.15-1.79.32-3.57.51-5.15-5.21.34-10.19.67-14.87,1C35.34,16.15,35.08,17.7,34.85,19.25Z" transform="translate(-1.82 -1.54)"/><path id="path366" class="cls-99" d="M35.62,14.77c4.68-.34,9.66-.67,14.87-1,.09-.79.19-1.53.29-2.19-5.18.39-10.12.81-14.73,1.28C35.9,13.44,35.76,14.08,35.62,14.77Z" transform="translate(-1.82 -1.54)"/><path id="path368" class="cls-98" d="M36.05,12.85c4.61-.47,9.55-.89,14.73-1.28.1-.66.2-1.25.3-1.74-5.17.4-10,.9-14.6,1.47C36.34,11.74,36.19,12.26,36.05,12.85Z" transform="translate(-1.82 -1.54)"/><path id="path370" class="cls-131" d="M49.48,28.13c5.46,0,11.21.25,17.16.5,0-.56,0-1.23,0-2-5.95-.18-11.69-.35-17.14-.33C49.5,27,49.48,27.62,49.48,28.13Z" transform="translate(-1.82 -1.54)"/><path id="path372" class="cls-107" d="M49.52,26.33c5.45,0,11.19.15,17.14.33,0-.73,0-1.55,0-2.41C60.77,24.13,55,24,49.62,24.09,49.58,24.89,49.54,25.65,49.52,26.33Z" transform="translate(-1.82 -1.54)"/><path id="path374" class="cls-106" d="M49.62,24.09c5.42-.06,11.15,0,17.09.16.05-1.72.11-3.64.18-5.56-5.9,0-11.58,0-16.91.22C49.83,20.7,49.71,22.49,49.62,24.09Z" transform="translate(-1.82 -1.54)"/><path id="path376" class="cls-105" d="M50,18.91c5.33-.2,11-.24,16.91-.22.08-1.91.16-3.82.26-5.52-5.82.08-11.42.25-16.66.59C50.3,15.34,50.13,17.12,50,18.91Z" transform="translate(-1.82 -1.54)"/><path id="path378" class="cls-104" d="M50.49,13.76c5.24-.34,10.84-.51,16.66-.59.09-1.7.19-3.2.29-4.28-5.69.22-11.17.53-16.36.94C50.88,10.81,50.68,12.18,50.49,13.76Z" transform="translate(-1.82 -1.54)"/><path id="path380" class="cls-132" d="M66.64,28.63c6,.25,12.14.5,18.46.5V27c-6.31,0-12.48-.19-18.44-.37C66.65,27.4,66.64,28.07,66.64,28.63Z" transform="translate(-1.82 -1.54)"/><path id="path382" class="cls-111" d="M66.66,26.66c6,.18,12.13.37,18.44.37V24.5c-6.28,0-12.44-.13-18.39-.25C66.69,25.11,66.67,25.93,66.66,26.66Z" transform="translate(-1.82 -1.54)"/><path id="path384" class="cls-110" d="M66.71,24.25c6,.12,12.11.25,18.39.25V18.78c-6.19,0-12.31-.07-18.21-.09C66.82,20.61,66.76,22.53,66.71,24.25Z" transform="translate(-1.82 -1.54)"/><path id="path386" class="cls-109" d="M66.89,18.69c5.9,0,12,.09,18.21.09V13.09c-6.1,0-12.13,0-17.95.08C67.05,14.87,67,16.78,66.89,18.69Z" transform="translate(-1.82 -1.54)"/><path id="path388" class="cls-108" d="M67.15,13.17C73,13.08,79,13.09,85.1,13.09V8.56c-6.06,0-12,.12-17.66.33C67.34,10,67.24,11.47,67.15,13.17Z" transform="translate(-1.82 -1.54)"/><path id="path390" class="cls-133" d="M85.1,29.13c2.83,0,5.63-.06,8.39-.15,0-1.21,0-2.8,0-4.57-2.75.06-5.54.09-8.35.09Z" transform="translate(-1.82 -1.54)"/><path id="path392" class="cls-114" d="M85.1,24.5c2.81,0,5.6,0,8.35-.09,0-1.77-.06-3.73-.1-5.68-2.72,0-5.48.05-8.25.05Z" transform="translate(-1.82 -1.54)"/><path id="path394" class="cls-134" d="M93.49,29c2.76-.1,5.49-.22,8.17-.35,0-1.15,0-2.68-.06-4.41-2.68.07-5.4.14-8.15.19,0,1.77,0,3.36,0,4.57Z" transform="translate(-1.82 -1.54)"/><path id="path396" class="cls-116" d="M93.45,24.41c2.75-.05,5.47-.12,8.15-.19,0-1.73-.1-3.65-.17-5.56l-8.08.07C93.39,20.68,93.42,22.64,93.45,24.41Z" transform="translate(-1.82 -1.54)"/><path id="path398" class="cls-113" d="M85.1,18.78c2.77,0,5.53,0,8.25-.05,0-1.95-.08-3.89-.12-5.64H85.1v5.69Z" transform="translate(-1.82 -1.54)"/><path id="path400" class="cls-112" d="M85.1,13.09h8.13c0-1.75-.07-3.3-.1-4.46-2.64,0-5.32-.07-8-.07v4.53Z" transform="translate(-1.82 -1.54)"/><path id="path402" class="cls-115" d="M93.35,18.73l8.08-.07c-.07-1.91-.15-3.82-.23-5.53q-3.93,0-8,0C93.27,14.84,93.31,16.78,93.35,18.73Z" transform="translate(-1.82 -1.54)"/><path id="path404" class="cls-104" d="M93.23,13.09q4,0,8,0c-.08-1.7-.17-3.2-.25-4.3-2.57-.09-5.17-.16-7.82-.2C93.16,9.79,93.2,11.34,93.23,13.09Z" transform="translate(-1.82 -1.54)"/><path id="path406" class="cls-135" d="M101.66,28.63c2.68-.12,5.33-.25,7.92-.34,0-1.09,0-2.57-.09-4.24-2.58,0-5.22.1-7.89.17,0,1.73.06,3.26.06,4.41Z" transform="translate(-1.82 -1.54)"/><path id="path408" class="cls-113" d="M101.6,24.22c2.67-.07,5.31-.13,7.89-.17,0-1.68-.14-3.54-.23-5.4-2.56,0-5.18,0-7.83,0C101.5,20.57,101.56,22.49,101.6,24.22Z" transform="translate(-1.82 -1.54)"/><path id="path410" class="cls-136" d="M109.58,28.29c2.59-.1,5.14-.16,7.63-.16,0-1.06,0-2.5-.13-4.12q-3.7,0-7.59,0c.06,1.67.09,3.15.09,4.24Z" transform="translate(-1.82 -1.54)"/><path id="path412" class="cls-120" d="M109.49,24.05q3.89-.07,7.59,0c-.08-1.62-.19-3.42-.33-5.22-2.43-.09-4.94-.13-7.49-.14C109.35,20.51,109.44,22.37,109.49,24.05Z" transform="translate(-1.82 -1.54)"/><path id="path414" class="cls-102" d="M101.43,18.66c2.65,0,5.27,0,7.83,0-.1-1.86-.22-3.72-.35-5.37q-3.78-.1-7.71-.15C101.28,14.84,101.36,16.75,101.43,18.66Z" transform="translate(-1.82 -1.54)"/><path id="path416" class="cls-117" d="M101.2,13.13q3.93,0,7.71.15c-.12-1.65-.26-3.09-.4-4.13-2.47-.13-5-.24-7.56-.32C101,9.93,101.12,11.43,101.2,13.13Z" transform="translate(-1.82 -1.54)"/><path id="path418" class="cls-119" d="M109.26,18.65c2.55,0,5.06.05,7.49.14-.14-1.8-.3-3.6-.46-5.2-2.39-.13-4.86-.23-7.38-.31C109,14.93,109.16,16.79,109.26,18.65Z" transform="translate(-1.82 -1.54)"/><path id="path420" class="cls-118" d="M108.91,13.28c2.52.08,5,.18,7.38.31-.17-1.59-.34-3-.5-4-2.38-.16-4.81-.31-7.28-.43C108.65,10.19,108.79,11.63,108.91,13.28Z" transform="translate(-1.82 -1.54)"/><path id="path422" class="cls-137" d="M117.21,28.13c5.84,0,11.39-.31,16.57-.78,0-1-.08-2.24-.21-3.66-5.16.24-10.69.38-16.49.32C117.16,25.63,117.21,27.07,117.21,28.13Z" transform="translate(-1.82 -1.54)"/><path id="path424" class="cls-124" d="M117.08,24c5.8.06,11.33-.08,16.49-.32-.13-1.43-.31-3-.53-4.57-5.12-.05-10.59-.14-16.29-.33C116.89,20.59,117,22.39,117.08,24Z" transform="translate(-1.82 -1.54)"/><path id="path426" class="cls-138" d="M133.78,27.35c5.18-.48,10-1.1,14.35-1.73a21.89,21.89,0,0,0-.22-2.83c-4.36.32-9.17.66-14.34.9C133.7,25.11,133.78,26.38,133.78,27.35Z" transform="translate(-1.82 -1.54)"/><path id="path428" class="cls-125" d="M133.57,23.69c5.17-.24,10-.58,14.34-.9-.14-1.11-.35-2.33-.62-3.54-4.34-.06-9.13-.08-14.25-.13.22,1.57.4,3.14.53,4.57Z" transform="translate(-1.82 -1.54)"/><path id="path430" class="cls-123" d="M116.75,18.79c5.7.19,11.17.28,16.29.33-.22-1.57-.47-3.14-.73-4.54-5-.34-10.41-.66-16-1C116.45,15.19,116.61,17,116.75,18.79Z" transform="translate(-1.82 -1.54)"/><path id="path432" class="cls-121" d="M116.29,13.59c5.61.33,11,.65,16,1-.26-1.4-.53-2.64-.79-3.55-4.9-.58-10.17-1.06-15.73-1.45C116,10.6,116.12,12,116.29,13.59Z" transform="translate(-1.82 -1.54)"/><path id="path434" class="cls-118" d="M133,19.12c5.12.05,9.91.07,14.25.13a30.84,30.84,0,0,0-1-3.51c-4.26-.44-9-.81-14-1.16.26,1.4.51,3,.73,4.54Z" transform="translate(-1.82 -1.54)"/><path id="path436" class="cls-122" d="M132.31,14.58c5,.35,9.74.72,14,1.16A12.45,12.45,0,0,0,145,13c-4.08-.74-8.61-1.4-13.51-2C131.78,11.94,132.05,13.18,132.31,14.58Z" transform="translate(-1.82 -1.54)"/><path id="path438" class="cls-139" d="M148.13,25.62a33,33,0,0,0-.84-6.37c4.34.05,8.23.15,11.58.35a12.7,12.7,0,0,1,.95,4.3C156.42,24.37,152.5,25,148.13,25.62Z" transform="translate(-1.82 -1.54)"/><path id="path440" class="cls-140" d="M159.82,23.9a12.7,12.7,0,0,0-.95-4.3,53.35,53.35,0,0,1,8.29,1,3.59,3.59,0,0,1,1.23,2.5A66.83,66.83,0,0,0,159.82,23.9Z" transform="translate(-1.82 -1.54)"/><path id="path442" class="cls-127" d="M147.29,19.25c4.34.05,8.23.15,11.58.35a11.7,11.7,0,0,0-1.23-2.32c-3.26-.6-7.07-1.1-11.33-1.54A30.84,30.84,0,0,1,147.29,19.25Z" transform="translate(-1.82 -1.54)"/><path id="path444" class="cls-126" d="M146.31,15.74c4.26.44,8.07.94,11.33,1.54a7.18,7.18,0,0,0-1.76-1.84c-3.12-.88-6.76-1.69-10.85-2.43A12.45,12.45,0,0,1,146.31,15.74Z" transform="translate(-1.82 -1.54)"/><path id="path446" class="cls-128" d="M158.87,19.6a9.33,9.33,0,0,0-3-4.16,46.24,46.24,0,0,1,7.74,2.81,13.46,13.46,0,0,1,3.54,2.36A53.35,53.35,0,0,0,158.87,19.6Z" transform="translate(-1.82 -1.54)"/></g></g></g></g></g></g><g id="g448"><g class="cls-90"><g id="g450"><g id="g456"><path id="path458" class="cls-91" d="M85.1,35.65C40.22,35.65,3.83,30,3.83,23.11S40.22,10.57,85.1,10.57s81.28,5.62,81.28,12.54S130,35.65,85.1,35.65m0-27.09c-46,0-83.28,6.52-83.28,14.55S39.11,37.66,85.1,37.66s83.29-6.51,83.29-14.55S131.1,8.56,85.1,8.56" transform="translate(-1.82 -1.54)"/></g></g></g></g></g></g></g></svg>