<svg xmlns="http://www.w3.org/2000/svg" xmlns:xlink="http://www.w3.org/1999/xlink" viewBox="0 0 52 74.58"><defs><style>.cls-1{opacity:0.71;fill:url(#radial-gradient);}.cls-2{fill:#d64a4a;}.cls-3{fill:#bf4343;}.cls-4{isolation:isolate;}.cls-5{fill:#543218;}.cls-6{fill:#513017;}.cls-7{fill:#4e2e16;}.cls-8{fill:#593619;}.cls-9{fill:#714320;}.cls-10{fill:#744521;}.cls-11{fill:#774722;}.cls-12{fill:#7a4822;}.cls-13{fill:#7d4a23;}.cls-14{fill:#804c24;}.cls-15{fill:#834d25;}.cls-16{fill:#854f26;}.cls-17{fill:#885127;}.cls-18{fill:#8b5327;}.cls-19{fill:#6e411f;}.cls-20{fill:#6b401e;}.cls-21{fill:#683e1e;}.cls-22{fill:#663c1d;}.cls-23{fill:#633a1c;}.cls-24{fill:#60391b;}.cls-25{fill:#5d371a;}.cls-26{fill:#5a3519;}.cls-27{fill:#573419;}.cls-28{fill:#844e25;}.cls-29{fill:#915629;}.cls-30{fill:#78451d;}.cls-31{fill:#fdc56f;}.cls-32{fill:#fbb14e;}.cls-33{fill:#ffde00;}.cls-34{fill:#fff;}.cls-35{fill:#fdbf0f;}.cls-36{fill:#4a4a4a;}.cls-37{fill:#232323;}.cls-38{fill:#333;}</style><radialGradient id="radial-gradient" cx="26" cy="67" r="19.15" gradientTransform="translate(0 43.79) scale(1 0.36)" gradientUnits="userSpaceOnUse"><stop offset="0" stop-color="#020202"/><stop offset="1" stop-opacity="0"/></radialGradient></defs><title>paret</title><g id="Layer_2" data-name="Layer 2"><g id="pet"><g id="paret"><ellipse class="cls-1" cx="26" cy="67.79" rx="26" ry="6.79"/><path class="cls-2" d="M27.43,20.85A27.14,27.14,0,0,0,30,34.64c1,1.88,1.29-1,1.29-1s1.85,5.43,4.41,5.48c1,0,.12-3.37.12-3.37s.8,4,2.85,4S38,33.42,38,33.42s1.21,1,1.94.61-3.86-6.48-6.5-14.43S27.43,20.85,27.43,20.85Z"/><path class="cls-3" d="M40,34c.33-.17-.42-1.5-1.58-3.63,0,.76,0,1.84-.38,2-.55.23-1.48-1.63-1.48-1.63s1.18,4.62.45,4.91-1.82-2.54-1.82-2.54.68,2.25-.5,2.7-3.38-5.12-3.38-5.12-.3,1.64-1.35,1.79c-.39.05-.83-.41-1.23-1A21.52,21.52,0,0,0,30,34.64c1,1.88,1.29-1,1.29-1s1.85,5.43,4.41,5.48c.81,0,.42-2.05.22-3,.27,1,1.11,3.56,2.75,3.59,2,0-.66-6.31-.66-6.31S39.23,34.41,40,34Z"/><g class="cls-4"><path class="cls-5" d="M42.59,67v1.21a1,1,0,0,1,0,.17V67.14a1,1,0,0,0,0-.17"/><path class="cls-6" d="M42.58,67.14v1.21a.83.83,0,0,1-.06.21V67.34a.66.66,0,0,0,.06-.2"/><path class="cls-7" d="M42.52,67.34v1.22c0,.08-.08.16-.13.24V67.59a2,2,0,0,0,.13-.25"/><path class="cls-8" d="M42.39,67.59V68.8c-1.28,1.9-8.29,3.34-16.74,3.34-9.36,0-16.94-1.77-16.94-4V67c0,2.19,7.58,4,16.94,4,8.45,0,15.46-1.45,16.74-3.34"/></g><g class="cls-4"><path class="cls-9" d="M25.65,63.82V63c1.56,0,3.06,0,4.5.14l-.07.84c-1.4-.1-2.88-.16-4.43-.16"/><path class="cls-10" d="M30.08,64l.07-.84c5.49.35,9.87,1.34,11.62,2.6l-.57.34c-1.58-.76-5.73-1.73-11.12-2.1"/><path class="cls-11" d="M41.2,66.08l.57-.34a2.89,2.89,0,0,1,.41.35l-.61.18a2.51,2.51,0,0,0-.37-.19"/><path class="cls-12" d="M41.57,66.27l.61-.18c0,.06.11.12.15.18l-.63.1-.13-.1"/><path class="cls-13" d="M41.7,66.37l.63-.1.09.12-.65,0-.07-.06"/><path class="cls-14" d="M41.77,66.43l.65,0,0,.09h-.66l0,0"/><path class="cls-15" d="M41.81,66.48h.66a.42.42,0,0,1,0,.1l-.66-.06s0,0,0,0"/><path class="cls-16" d="M41.85,66.52l.66.06a.69.69,0,0,1,.05.13l-.68-.13,0-.06"/><path class="cls-17" d="M41.88,66.58l.68.13a.69.69,0,0,1,0,.2l-.69-.24a.29.29,0,0,0,0-.09"/><path class="cls-18" d="M41.9,66.67l.69.24V67h0l-.7-.29h0v0"/><path class="cls-17" d="M41.89,66.69l.7.29v.07l-.69-.33a0,0,0,0,0,0,0"/><path class="cls-16" d="M41.9,66.72l.69.33a.2.2,0,0,1,0,.07l-.69-.37a0,0,0,0,0,0,0"/><path class="cls-15" d="M41.89,66.75l.69.37s0,0,0,.06l-.68-.4v0"/><path class="cls-14" d="M41.89,66.78l.68.4a.64.64,0,0,1,0,.07l-.67-.44a0,0,0,0,1,0,0"/><path class="cls-13" d="M41.88,66.81l.67.44a.64.64,0,0,0,0,.07l-.67-.48,0,0"/><path class="cls-12" d="M41.86,66.84l.67.48,0,.06-.66-.51,0,0"/><path class="cls-11" d="M41.84,66.87l.66.51,0,.07-.66-.55,0,0"/><path class="cls-10" d="M41.81,66.9l.66.55,0,.07-.65-.59,0,0"/><path class="cls-9" d="M41.78,66.93l.65.59,0,.06L41.75,67l0,0"/><path class="cls-19" d="M41.75,67l.64.62-.09.13L41.67,67l.08-.07"/><path class="cls-20" d="M41.67,67l.63.68-.14.16-.61-.76.12-.08"/><path class="cls-21" d="M41.55,67.11l.61.76a3.86,3.86,0,0,1-.42.34l-.57-.9a3.29,3.29,0,0,0,.38-.2"/><path class="cls-22" d="M41.17,67.31l.57.9a7.92,7.92,0,0,1-1.8.89l-.43-1.19a12.32,12.32,0,0,0,1.66-.6"/><path class="cls-21" d="M39.51,67.91l.43,1.19A26.19,26.19,0,0,1,35,70.27l-.2-1.38a39.64,39.64,0,0,0,4.7-1"/><path class="cls-22" d="M34.81,68.89l.2,1.38a60.41,60.41,0,0,1-8.28.65V69.54a63.59,63.59,0,0,0,8.09-.65"/><path class="cls-23" d="M26.72,69.54v1.38H25.65a56.82,56.82,0,0,1-11.59-1.07l.29-1.35a59.12,59.12,0,0,0,11.3,1h1.07"/><path class="cls-24" d="M14.35,68.51l-.29,1.35a21.42,21.42,0,0,1-2.27-.62l.4-1.22c.63.17,1.35.33,2.16.49"/><path class="cls-25" d="M12.19,68l-.4,1.22c-.43-.14-.82-.29-1.17-.44l.48-1.11c.32.11.69.22,1.09.33"/><path class="cls-26" d="M11.1,67.69l-.48,1.11c-.27-.13-.52-.25-.74-.38l.54-1c.2.08.43.17.68.25"/><path class="cls-27" d="M10.42,67.44l-.54,1A4.66,4.66,0,0,1,9.34,68l.59-.83a4.58,4.58,0,0,0,.49.23"/><path class="cls-5" d="M9.93,67.21,9.34,68A1.45,1.45,0,0,1,8.71,67l.7-.28c0,.15.15.32.52.52"/><path class="cls-27" d="M9.41,66.69l-.7.28h0a1,1,0,0,1,.11-.45l.66,0a.25.25,0,0,0-.07.2h0"/><path class="cls-26" d="M9.48,66.49l-.66,0a1.37,1.37,0,0,1,.19-.3l.63.12a.59.59,0,0,0-.16.15"/><path class="cls-25" d="M9.64,66.34,9,66.22A2.17,2.17,0,0,1,9.27,66l.59.25-.22.14"/><path class="cls-24" d="M9.86,66.2,9.27,66c.1-.09.21-.17.33-.26l.56.36-.3.15"/><path class="cls-23" d="M10.16,66.05l-.56-.36.45-.27.52.45-.41.18"/><path class="cls-22" d="M10.57,65.87l-.52-.45c.19-.11.4-.21.64-.32l.47.56-.59.21"/><path class="cls-21" d="M11.16,65.66l-.47-.56c.29-.12.61-.25,1-.37l.41.66-.91.27"/><path class="cls-20" d="M12.07,65.39l-.41-.66c.51-.17,1.07-.34,1.69-.49l.32.76c-.58.13-1.12.26-1.6.39"/><path class="cls-19" d="M13.67,65l-.32-.76a38.86,38.86,0,0,1,5.09-.86l.13.84a49.24,49.24,0,0,0-4.9.78"/><path class="cls-9" d="M18.57,64.22l-.13-.84A64.27,64.27,0,0,1,25.65,63v.82a63.31,63.31,0,0,0-7.08.4"/></g><ellipse class="cls-28" cx="25.65" cy="66.69" rx="16.24" ry="2.86"/><path class="cls-29" d="M24.84,66.82s.16-16.66,0-22.28-.44-15.61-.35-16.09.69-.05.78-.62.46-.77.73-1.15a.48.48,0,0,1,.65-.15s.15,39.49.11,40.15c-.29,0,.12-.06-.36,0a.72.72,0,0,0-.41.07,2.31,2.31,0,0,1-.67.31C25,67.12,24.94,67.2,24.84,66.82Z"/><path class="cls-30" d="M26,28.35c0,.33.26,4,.27,5.23s.11,28.8.12,29.61-.5,1.1-.45,1.72,0,1.83,0,1.83c.41-.43.46.12.5-.36s.38-1.57.43-2.24-.18-37.61-.18-37.61a.48.48,0,0,0-.65.15c-.27.38-.64.58-.73,1.15C25.58,28.16,26,28,26,28.35Z"/><path class="cls-29" d="M12.17,23.28s13.68,3.23,18.33,4.14,12.94,2.45,13.31,2.63-.1.68.35.88.53.58.79.92a.54.54,0,0,1,0,.66s-30.45-6.61-31-6.77-.49-.58-.87-.71-.47-.1-.74-.58-.77-.26-.86-.56S11.84,23.3,12.17,23.28Z"/><path class="cls-30" d="M43.59,31.47c-.27-.06-3.34-.49-4.36-.71l-24.4-5.35c-.66-.14-.79-.69-1.31-.75s-1.19-.21-1.19-.21c.27.48.35.45.74.58s.33.55.87.71,31,6.77,31,6.77a.54.54,0,0,0,0-.66c-.26-.34-.34-.73-.79-.92C43.83,31.14,43.87,31.52,43.59,31.47Z"/><path class="cls-31" d="M23.38,25.44a2.29,2.29,0,0,0-1.55,2.23c.07.25.41.52.62.28,0,0,.34.52.65.4a.89.89,0,0,0,.4-.25s.1.4.4.37.28-1.67,1-2.13C24.86,26.34,24.12,25.38,23.38,25.44Z"/><path class="cls-32" d="M23.78,28.46a.25.25,0,0,0,.12,0c.31,0,.28-1.67,1-2.13,0,0-.74-1-1.48-.9a1.83,1.83,0,0,0-1.07.77c.21-.13.44-.24.52-.16s-.35.79-.35,1.26c0,0,.63-.95.88-.72s.1.86.1.86.32-.63.53-.51,0,.85,0,1.06A1.32,1.32,0,0,1,23.78,28.46Z"/><path class="cls-31" d="M27.36,26.28a2.26,2.26,0,0,0-1.06,2.49c.11.23.5.43.66.15,0,0,.44.44.72.26a1.08,1.08,0,0,0,.34-.33s.17.38.47.29-.07-1.69.5-2.29C29,26.85,28.07,26.07,27.36,26.28Z"/><path class="cls-32" d="M28.36,29.15h.13c.29-.1-.07-1.69.5-2.29,0,0-.92-.78-1.63-.57a1.85,1.85,0,0,0-.9,1c.18-.16.39-.32.48-.25s-.18.84-.08,1.29c0,0,.42-1.05.71-.88s.27.82.27.82.19-.68.42-.61.17.84.19,1.05A1.19,1.19,0,0,1,28.36,29.15Z"/><path class="cls-2" d="M19.89,3c.75-2.53,5-4.28,8.78-1.8s7.06,17.94,5.56,22.26-11.5,4.63-13,.27.06-10.4.26-13.52S19.89,3,19.89,3Z"/><path class="cls-3" d="M34.23,23.46c1.5-4.32-1.77-19.78-5.56-22.26A7.11,7.11,0,0,0,25.19,0c1.24.52,2.95,1.89,3.95,5.52,1.7,6.14,1.24,12-1.48,15-2.24,2.5-5.78,1.94-7,0a12.85,12.85,0,0,0,.6,3.21C22.73,28.09,32.72,27.77,34.23,23.46Z"/><path class="cls-33" d="M27.59,8.2c0-.6-.33-.42-1.06-1s-.37-1.76-1.14-3.86-4.27-.91-4.27-.91L20,2.72c0,.09-.07.19-.1.28s1.82,4.09,1.61,7.21-1.75,9.16-.26,13.52a4.14,4.14,0,0,0,2.26,2.32c1.88-2.42,2.87-3.69,2-6-1-2.54-1.09-7.59.13-9S27.57,8.8,27.59,8.2Z"/><path class="cls-34" d="M19.76,3.52S22.14,2,23.7,2.85s.06,2.5.46,3.59-1.45,3.19-2.89,3.05S19.76,3.52,19.76,3.52Z"/><path class="cls-35" d="M21.4,24.11a2,2,0,0,0,.18.32l0,0a3.21,3.21,0,0,0,.21.3l0,0a3.27,3.27,0,0,0,.24.27l0,0,.28.24,0,0a3.55,3.55,0,0,0,.31.23l0,0,.34.22h0l.38.2h0c1.33-1.72,2.22-2.86,2.3-4.21a4.29,4.29,0,0,1-5.16-1.32c0,.13,0,.26,0,.39v0c0,.12,0,.24,0,.36v.08c0,.11,0,.22,0,.33s0,.07,0,.11a2.5,2.5,0,0,0,.05.29,1,1,0,0,0,0,.16,1.84,1.84,0,0,1,.05.25c0,.06,0,.13.05.19a1.6,1.6,0,0,0,.05.21l.06.24c0,.06,0,.11.05.16l.12.4a2.75,2.75,0,0,0,.15.36Z"/><path class="cls-2" d="M25.82,9.57c-4,1.13-1.53,11.46.56,14.74s4.8,4.86,5.54,4.49.12-1.66.12-1.66,1.73,2.13,3.1,2,.23-2.3.23-2.3,2.4,2.32,3.8,1.1c.8-.7-3.07-2.65-4-6.82S32.13,7.78,25.82,9.57Z"/><path class="cls-36" d="M19.89,3c.58.29,2.88,3.57,1.61,7.21a3.84,3.84,0,0,0-2.41-1.42c-1.35,0-1.1,1.66-1.1,1.66s-1.57-.7-1.44-3.8S19.89,3,19.89,3Z"/><path class="cls-37" d="M21.5,10.21a6.93,6.93,0,0,0,.26-3.54,7.85,7.85,0,0,0-3.21,1.14C16.61,9.17,18,10.45,18,10.45s-.25-1.71,1.1-1.66A3.84,3.84,0,0,1,21.5,10.21Z"/><path class="cls-37" d="M17.74,6.16c0,.26.55-.09.57-.31S17.72,6,17.74,6.16Z"/><path class="cls-3" d="M31.92,28.8c.74-.38.12-1.66.12-1.66s1.73,2.13,3.1,2,.23-2.3.23-2.3,2.4,2.32,3.8,1.1c.8-.7-3.07-2.65-4-6.82C34.31,17.48,32.62,10,28,9.38c1.19.64,2.81,2.11,3.7,5.51,1.54,5.85,3.73,8.73,4,9.76s-1.12,1-2.54-.84c0,0,1.47,2.35.89,3.44s-4.12-3.61-4.12-3.61,1.54,2.26.86,3.14-3.55-1.4-5.47-4.82a13,13,0,0,0,1.12,2.35C28.46,27.59,31.18,29.17,31.92,28.8Z"/><path class="cls-33" d="M34.41,18.13c.06,1.47-.09,3-.9,3.24s-1.73-1.93-1.73-1.93,1,3.45-.13,3.82-3.5-3.63-3.5-3.63,1.36,2.8-.38,3.51c-1,.41-1.95-.5-2.57-1.35a13,13,0,0,0,1.18,2.52c2.08,3.28,4.8,4.86,5.54,4.49s.12-1.66.12-1.66,1.73,2.13,3.1,2,.23-2.3.23-2.3,2.4,2.32,3.8,1.1c.8-.7-3.07-2.65-4-6.82C35,20.29,34.72,19.25,34.41,18.13Z"/><path class="cls-35" d="M35.15,21.13l-.08-.33,0-.11L35,20.44l0-.16a1.6,1.6,0,0,0-.05-.21,1.16,1.16,0,0,0,0-.18c0-.07,0-.14,0-.21s0-.13-.05-.19a1.42,1.42,0,0,0,0-.22c0-.07,0-.13-.05-.2l-.06-.22a1.46,1.46,0,0,0-.05-.2l-.06-.23-.06-.2,0-.09a5,5,0,0,1-.5,3c.88,1.86,1.6,3,1.73,3.55.23,1-1.12,1-2.54-.84,0,0,1.47,2.35.89,3.44s-4.12-3.61-4.12-3.61,1.54,2.26.86,3.14S27.18,25.39,25.26,22l0,.08a1.8,1.8,0,0,1,.08.21l.06.15a1.19,1.19,0,0,1,.08.2l.06.14.09.19.06.14.08.17a.61.61,0,0,0,.07.14c0,.06.05.11.07.16s0,.1.08.14a.54.54,0,0,0,.07.13l.09.17.05.09.15.24c2.08,3.28,4.8,4.86,5.54,4.49s.12-1.66.12-1.66,1.73,2.13,3.1,2,.23-2.3.23-2.3,2.4,2.32,3.8,1.1C40,27.25,36.1,25.3,35.15,21.13Z"/><path class="cls-38" d="M23.83,3.86a.77.77,0,0,1-.77.76.76.76,0,0,1,0-1.52A.77.77,0,0,1,23.83,3.86Z"/><path class="cls-34" d="M22.86,3.62a.18.18,0,1,1-.36,0,.18.18,0,0,1,.36,0Z"/></g></g></g></svg>