<svg xmlns="http://www.w3.org/2000/svg" xmlns:xlink="http://www.w3.org/1999/xlink" viewBox="0 0 28.6 19.77"><defs><style>.cls-1{fill:#ededed;}.cls-2{isolation:isolate;}.cls-3{opacity:0.8;mix-blend-mode:multiply;fill:url(#radial-gradient);}.cls-4{fill:url(#linear-gradient);}.cls-5{clip-path:url(#clip-path);}.cls-6{fill:#fff;}.cls-7{fill:#2c5161;}.cls-8{fill:#6dcaf3;}.cls-9{fill:#b2ce5b;}.cls-10{fill:#d6d6d6;}</style><radialGradient id="radial-gradient" cx="25.05" cy="4659.01" r="10.96" gradientTransform="matrix(1.27, 0.69, -0.32, 0.58, 1459.81, -2719.81)" gradientUnits="userSpaceOnUse"><stop offset="0" stop-color="#545556"/><stop offset="0.23" stop-color="#5b5c5d" stop-opacity="0.96"/><stop offset="0.44" stop-color="#717273" stop-opacity="0.83"/><stop offset="0.64" stop-color="#969697" stop-opacity="0.62"/><stop offset="0.84" stop-color="#c9c9ca" stop-opacity="0.32"/><stop offset="1" stop-color="#fff" stop-opacity="0"/></radialGradient><linearGradient id="linear-gradient" x1="14.72" y1="5.68" x2="13.69" y2="13.89" gradientTransform="translate(4.43 -4.15) rotate(20.99)" gradientUnits="userSpaceOnUse"><stop offset="0.29" stop-color="#fff"/><stop offset="1" stop-color="#292929"/></linearGradient><clipPath id="clip-path"><path class="cls-1" d="M22.67,8.56Q15.91,5.32,9.79,2.84C8.6,4.64,7.36,6.38,6.1,8c4.59,2.27,9.39,4.81,14.4,7.66.77-2.35,1.5-4.73,2.17-7.14Z"/></clipPath></defs><title>phone</title><g class="cls-2"><g id="Layer_2" data-name="Layer 2"><g id="phone"><g id="phone-2" data-name="phone"><path class="cls-3" d="M28.17,17.44c-1.92,3.52-9.68,3-17.34-1.18S-1.49,5.86.43,2.33s9.68-3,17.34,1.18S30.09,13.92,28.17,17.44Z"/><path class="cls-4" d="M23.71,11.65a1.68,1.68,0,0,0-1-2.08l-.38-.18v0c-4.51-2.16-13.57-6-13.91-6.12a1.45,1.45,0,0,0-1.64.62c-.69.9-1.49,1.55-2.2,2.41-.11.13-.13.49-.24.62s-.85.86.63,1.59c.26.12,10.18,5.2,15.19,8h0l.41.23s1.5.86,1.9-.54S23.32,13.18,23.71,11.65Z"/><path class="cls-1" d="M22.67,8.56Q15.91,5.32,9.79,2.84C8.6,4.64,7.36,6.38,6.1,8c4.59,2.27,9.39,4.81,14.4,7.66.77-2.35,1.5-4.73,2.17-7.14Z"/><g class="cls-5"><path class="cls-6" d="M22.55,9q-6.81-3.3-13-5.84Q8,5.54,6.33,7.73q6.84,3.35,14.31,7.53C21.32,13.2,22,11.12,22.55,9Z"/></g><path class="cls-7" d="M20.49,15.69l.42.23s1.5.87,1.9-.54.83-3,1.22-4.56a1.68,1.68,0,0,0-1-2.08l-.38-.18c-.67,2.4-1.4,4.78-2.17,7.13ZM9.78,2.83l-1-.41A1.43,1.43,0,0,0,7.12,3c-.8,1.05-1.61,2.06-2.44,3,0,0-.85.86.63,1.58L6.08,8c1.27-1.66,2.51-3.39,3.7-5.2Z"/><path class="cls-1" d="M22.76,12.08,22.51,12,22,13.56l.26.14c.16-.54.31-1.08.46-1.62Z"/><path class="cls-1" d="M22.89,11.63l-.26-.13c0,.09-.05.18-.07.27l.25.13c0-.09.05-.18.08-.27Z"/><path class="cls-1" d="M17,7.65a1,1,0,0,0,.65,1.15c.53.26,1.07.15,1.22-.25a1,1,0,0,0-.67-1.16.86.86,0,0,0-1.2.26Z"/><path class="cls-8" d="M15.84,12.25l.71.38s.48.26.6,0c.34-.85.68-1.7,1-2.55v0c.09-.22.17-.44.25-.65l-.55.13,0,0-.66-.33s-.46-.22-.59.08c-.35.83-.71,1.66-1.08,2.48,0,0-.13.29.35.54Z"/><path class="cls-6" d="M17.72,9.77l-.1,0q-.51,1.3-1.05,2.58l.11.06c.35-.86.7-1.72,1-2.59Z"/><path class="cls-6" d="M17.43,9.62l-.11,0c-.34.87-.7,1.72-1.06,2.57l.11,0c.36-.85.71-1.7,1.06-2.57Z"/><path class="cls-6" d="M17.13,9.48,17,9.43l-.58,1.38.1.06c.2-.46.39-.93.58-1.39Z"/><path class="cls-1" d="M12.17,5.42c-.2.34.05.8.56,1A.93.93,0,0,0,14,6.23c.18-.36-.08-.83-.57-1a1,1,0,0,0-1.23.23Z"/><path class="cls-8" d="M10.58,9.51l.68.35s.46.24.61,0c.42-.75.82-1.5,1.22-2.27h0L13.4,7l-.56.11,0,0-.64-.3s-.44-.2-.59.06c-.43.75-.86,1.48-1.3,2.2,0,0-.16.26.31.49Z"/><path class="cls-6" d="M12.68,7.32l-.1,0c-.42.77-.84,1.53-1.27,2.29l.1,0c.43-.76.85-1.52,1.27-2.3Z"/><path class="cls-6" d="M12.39,7.19l-.1-.05Q11.66,8.3,11,9.42l.11.05c.43-.75.86-1.51,1.28-2.28Z"/><path class="cls-6" d="M12.1,7.05,12,7l-.51.9.1,0c.17-.29.34-.6.5-.9Z"/><path class="cls-1" d="M12.88,9.89c-.18.35.11.86.65,1.14s1.14.23,1.31-.14-.13-.89-.66-1.16-1.11-.19-1.3.16Z"/><path class="cls-9" d="M15.48,6.12l.64.29s.43.2.31.49c-.36.82-.72,1.64-1.09,2.44v0l-.28.61-.28-.53,0,0-.67-.33s-.45-.23-.31-.51c.39-.78.78-1.57,1.16-2.37,0,0,.13-.29.56-.09Z"/><path class="cls-6" d="M16,6.69l-.09,0c-.38.83-.75,1.65-1.14,2.47l.1.05c.39-.82.76-1.65,1.13-2.48Z"/><path class="cls-6" d="M15.72,6.56l-.1,0c-.3.67-.62,1.34-.93,2l.1.05.93-2Z"/><path class="cls-1" d="M7.78,7.37c-.22.31,0,.76.56,1s1.13.22,1.33-.1-.05-.8-.57-1a1.1,1.1,0,0,0-1.32.12Z"/><path class="cls-9" d="M10.74,4l.61.26s.42.18.27.44c-.43.74-.86,1.46-1.3,2.18h0L10,7.47c-.08-.16-.16-.32-.23-.48h0l-.64-.31s-.45-.2-.28-.45c.47-.69.93-1.39,1.38-2.11,0,0,.17-.25.58-.07Z"/><path class="cls-6" d="M11.22,4.55l-.1,0c-.44.75-.9,1.48-1.36,2.2l.1,0c.46-.73.91-1.46,1.36-2.21Z"/><path class="cls-6" d="M10.94,4.44l-.09-.05c-.45.74-.91,1.47-1.37,2.19l.09,0c.47-.72.92-1.45,1.37-2.18Z"/><path class="cls-6" d="M10.67,4.32l-.09,0L10.13,5l.09,0,.45-.72Z"/><path class="cls-1" d="M18.15,12.63c-.15.4.18,1,.75,1.28s1.14.23,1.27-.19a1.23,1.23,0,0,0-.75-1.28c-.55-.29-1.11-.2-1.27.19Z"/><path class="cls-9" d="M20.4,8.41l.66.32s.45.22.35.54c-.28.91-.57,1.82-.86,2.72v0c-.07.22-.15.45-.23.68-.1-.2-.21-.4-.32-.59l0,0-.7-.36s-.47-.25-.35-.56c.32-.88.63-1.77.94-2.66,0,0,.1-.31.55-.1Z"/><path class="cls-6" d="M21,9l-.1,0c-.3.93-.6,1.85-.91,2.76l.1.05c.31-.91.62-1.83.91-2.76Z"/><path class="cls-6" d="M20.68,8.9l-.1-.05c-.3.92-.61,1.83-.93,2.74l.11.06c.31-.91.62-1.83.92-2.75Z"/><path class="cls-6" d="M20.38,8.76l-.1,0c-.24.74-.5,1.48-.75,2.22l.1.05q.39-1.11.75-2.22Z"/><path class="cls-1" d="M6.32,5.25c.19-.23.37-.47.54-.7a.66.66,0,0,1,.73-.2h0a.37.37,0,0,1,.15.59l-.52.71a.63.63,0,0,1-.74.19h0A.38.38,0,0,1,6.32,5.25Z"/><path class="cls-10" d="M9.7,3l.09-.14Q15.91,5.3,22.67,8.53a1.21,1.21,0,0,0-.05.18Q15.84,5.46,9.7,3Z"/><path class="cls-10" d="M6.09,8l.09-.12c4.58,2.25,9.37,4.77,14.37,7.6l-.06.17Q13,11.42,6.09,8Z"/></g></g></g></g></svg>