<svg xmlns="http://www.w3.org/2000/svg" xmlns:xlink="http://www.w3.org/1999/xlink" viewBox="0 0 128.23 116.72"><defs><style>.cls-1{fill:none;}.cls-2{fill:#6591a3;}.cls-3{clip-path:url(#clip-path);}.cls-4{clip-path:url(#clip-path-2);}.cls-5{fill:#6e9eb2;}.cls-6{fill:#73a5ba;}.cls-7{fill:#77abc1;}.cls-8{fill:#7db4cb;}.cls-9{fill:#84bed6;}.cls-10{fill:#75a8bd;}.cls-11{fill:#80b8cf;}.cls-12{fill:#87c2da;}.cls-13{fill:#7bb1c7;}.cls-14{fill:#82bad2;}.cls-15{fill:#71a2b6;}.cls-16{fill:#76aabf;}.cls-17{fill:#89c5de;}.cls-18{fill:#78adc2;}.cls-19{fill:#f89406;}.cls-20{fill:#e87e04;}.cls-21{fill:#d35400;}.cls-22{fill:#f5d76e;}.cls-23{fill:#99770d;}.cls-24{fill:#e5d39a;}.cls-25{fill:#f7df8b;}.cls-26{fill:#e5ca76;}.cls-27{fill:#736a4d;}.cls-28{fill:#b99812;}.cls-29{fill:#f7ca18;}.cls-30{clip-path:url(#clip-path-4);}.cls-31{opacity:0.9;}.cls-32{fill:#b1b4b5;}.cls-33{clip-path:url(#clip-path-5);}.cls-34{fill:#595a5b;}.cls-35{fill:#858788;}.cls-36{clip-path:url(#clip-path-6);}.cls-37{clip-path:url(#clip-path-7);}.cls-38{fill:#743f02;}.cls-39{fill:#957494;}.cls-40{fill:#4b3a4a;}.cls-41{clip-path:url(#clip-path-8);}.cls-42{clip-path:url(#clip-path-9);}.cls-43{fill:#6a2a00;}.cls-44{clip-path:url(#clip-path-10);}.cls-45{clip-path:url(#clip-path-11);}.cls-46{clip-path:url(#clip-path-12);}.cls-47{clip-path:url(#clip-path-13);}.cls-48{clip-path:url(#clip-path-14);}.cls-49{fill:#7c4a03;}.cls-50{clip-path:url(#clip-path-15);}.cls-51{opacity:0.6;}.cls-52{clip-path:url(#clip-path-16);}.cls-53{clip-path:url(#clip-path-17);}.cls-54{clip-path:url(#clip-path-18);}.cls-55{fill:#1b9bbe;}.cls-56{fill:#87d37c;}.cls-57{clip-path:url(#clip-path-19);}.cls-58{fill:#072730;}</style><clipPath id="clip-path" transform="translate(-2.54 -1.75)"><rect class="cls-1" width="132.77" height="121"/></clipPath><clipPath id="clip-path-2" transform="translate(-2.54 -1.75)"><path class="cls-1" d="M63,1.8a4.78,4.78,0,0,0-2.46.93h0a2.18,2.18,0,0,0-.82,1.7h0a11.12,11.12,0,0,0,.06,1.16h0a7.69,7.69,0,0,0,1.55,4h0a3.61,3.61,0,0,0,1.88,1.27h0a3.19,3.19,0,0,0,3.12-1.27h0a7.69,7.69,0,0,0,1.54-4h0A11.12,11.12,0,0,0,68,4.43h0a2.15,2.15,0,0,0-.82-1.7h0a5.32,5.32,0,0,0-3.28-1h0A5.69,5.69,0,0,0,63,1.8"/></clipPath><clipPath id="clip-path-4" transform="translate(-2.54 -1.75)"><rect class="cls-1" x="34.47" y="81.53" width="8.15" height="8.15"/></clipPath><clipPath id="clip-path-5" transform="translate(-2.54 -1.75)"><rect class="cls-1" x="35.9" y="81.58" width="6.72" height="8.09"/></clipPath><clipPath id="clip-path-6" transform="translate(-2.54 -1.75)"><rect class="cls-1" x="29.33" y="51.13" width="6.86" height="6.86"/></clipPath><clipPath id="clip-path-7" transform="translate(-2.54 -1.75)"><rect class="cls-1" x="30.53" y="51.18" width="5.66" height="6.81"/></clipPath><clipPath id="clip-path-8" transform="translate(-2.54 -1.75)"><rect class="cls-1" x="40.22" y="98.79" width="16.03" height="16.03"/></clipPath><clipPath id="clip-path-9" transform="translate(-2.54 -1.75)"><rect class="cls-1" x="43.03" y="98.9" width="13.23" height="15.92"/></clipPath><clipPath id="clip-path-10" transform="translate(-2.54 -1.75)"><rect class="cls-1" x="43.7" y="103.12" width="4.54" height="0.89"/></clipPath><clipPath id="clip-path-11" transform="translate(-2.54 -1.75)"><rect class="cls-1" x="41.44" y="106.42" width="4.54" height="0.89"/></clipPath><clipPath id="clip-path-12" transform="translate(-2.54 -1.75)"><rect class="cls-1" x="45.48" y="108.87" width="4.54" height="0.89"/></clipPath><clipPath id="clip-path-13" transform="translate(-2.54 -1.75)"><rect class="cls-1" x="2.54" y="59.33" width="25.33" height="25.33"/></clipPath><clipPath id="clip-path-14" transform="translate(-2.54 -1.75)"><rect class="cls-1" x="6.97" y="59.51" width="20.9" height="25.15"/></clipPath><clipPath id="clip-path-15" transform="translate(-2.54 -1.75)"><rect class="cls-1" x="3.77" y="65.15" width="22.86" height="1.38"/></clipPath><clipPath id="clip-path-16" transform="translate(-2.54 -1.75)"><rect class="cls-1" x="2.58" y="69.78" width="25.28" height="3.33"/></clipPath><clipPath id="clip-path-17" transform="translate(-2.54 -1.75)"><rect class="cls-1" x="3.09" y="75.72" width="24.22" height="1.38"/></clipPath><clipPath id="clip-path-18" transform="translate(-2.54 -1.75)"><rect class="cls-1" x="3.7" y="77.29" width="23.01" height="1.38"/></clipPath><clipPath id="clip-path-19" transform="translate(-2.54 -1.75)"><rect class="cls-1" x="103.03" y="78.4" width="15.88" height="15.88"/></clipPath></defs><title>planet_system</title><g id="Layer_2" data-name="Layer 2"><g id="planet_system"><g id="planet_system-2" data-name="planet_system"><path id="path12" class="cls-2" d="M64.55,8.69h-1.4V61.26h1.4Z" transform="translate(-2.54 -1.75)"/><g id="g14"><g class="cls-3"><g id="g16"><g id="g22"><path id="path24" class="cls-2" d="M33.36,54.57h-1.2c.05-10,3-17.85,8.77-23.23,9.28-8.64,22.4-7.88,23-7.84l-.08,1.2c-.13,0-13.17-.76-22.07,7.53-5.51,5.14-8.33,12.66-8.38,22.35" transform="translate(-2.54 -1.75)"/></g><g id="g26"><path id="path28" class="cls-2" d="M38,85.61c-.37-14,2.79-24,9.39-29.92a22,22,0,0,1,16.59-5.31l-.17,1.19a21.13,21.13,0,0,0-15.63,5c-6.32,5.63-9.34,15.38-9,29Z" transform="translate(-2.54 -1.75)"/></g><g id="g30"><path id="path32" class="cls-2" d="M90.81,66.27C90.27,59,87.7,53.54,83.19,49.94c-7.87-6.28-19.14-4.67-19.25-4.65l-.18-1.19C64.24,44,75.64,42.39,83.93,49c4.79,3.81,7.51,9.6,8.09,17.19Z" transform="translate(-2.54 -1.75)"/></g><g id="g34"><path id="path36" class="cls-2" d="M121.9,58.83c-.11-15.21-4.76-26.7-13.82-34.15-8.83-7.26-20.33-9.31-28.43-9.75A72.67,72.67,0,0,0,64,15.72l-.23-1.18a73.91,73.91,0,0,1,16-.82c8.29.45,20.07,2.56,29.16,10,9.35,7.68,14.15,19.48,14.26,35.07Z" transform="translate(-2.54 -1.75)"/></g><g id="g38"><path id="path40" class="cls-2" d="M110.13,85.45c-.27-20.42-5.59-34.52-15.81-41.92C81.14,34,64.2,39.19,64,39.25l-.36-1.15a40.54,40.54,0,0,1,10.48-1.52c5.58-.13,13.72.81,20.87,6,10.55,7.63,16,22,16.31,42.88Z" transform="translate(-2.54 -1.75)"/></g><g id="g42"><path id="path44" class="cls-2" d="M91.63,109l-1.2-.05c.5-13-.58-24-3.2-32.45-2.09-6.75-5.16-12-9.12-15.5C71.25,54.92,64,55.94,63.94,56l-.18-1.19c.31,0,7.88-1.11,15.15,5.38,4.13,3.69,7.31,9.09,9.47,16C91,84.79,92.13,95.85,91.63,109" transform="translate(-2.54 -1.75)"/></g><g id="g46"><path id="path48" class="cls-2" d="M47.39,106.13C47.14,72.88,53,61.88,58,58.51a6.66,6.66,0,0,1,6-1.07l-.46,1.11a5.57,5.57,0,0,0-5,1c-2.81,1.92-5.08,5.94-6.77,11.93-2.3,8.17-3.41,19.83-3.3,34.67Z" transform="translate(-2.54 -1.75)"/></g><g id="g50"><path id="path52" class="cls-2" d="M14.88,72.91c-.05-14,1.77-25.91,5.41-35.37,3.07-8,7.46-14.31,13.06-18.83a37.62,37.62,0,0,1,20.53-8.06A37.08,37.08,0,0,1,64,11.06l-.25,1.18a36.55,36.55,0,0,0-9.79-.38,36.44,36.44,0,0,0-19.84,7.79C22,29.42,16,47.33,16.09,72.91Z" transform="translate(-2.54 -1.75)"/></g></g></g></g><g id="g54"><g class="cls-4"><g id="g56"><g id="g62"><g id="g64"><g id="g66"><path id="path68" class="cls-2" d="M61.35,9.56a6.11,6.11,0,0,1-1-1.74l.58.21a7.15,7.15,0,0,0,.84,2A3,3,0,0,1,61.35,9.56Z" transform="translate(-2.54 -1.75)"/><path id="path70" class="cls-2" d="M61.77,10a7.15,7.15,0,0,1-.84-2l.68.2a15.42,15.42,0,0,0,.62,2.15A3.92,3.92,0,0,1,61.77,10Z" transform="translate(-2.54 -1.75)"/><path id="path72" class="cls-2" d="M60.35,7.82l.58.21a10.73,10.73,0,0,1-.27-1.21A5.24,5.24,0,0,0,60,6.76a8.22,8.22,0,0,0,.34,1.06Z" transform="translate(-2.54 -1.75)"/><path id="path74" class="cls-2" d="M60,6.76a5.24,5.24,0,0,1,.65.06q-.12-.63-.18-1.26c-.24,0-.47,0-.68,0A11,11,0,0,0,60,6.76Z" transform="translate(-2.54 -1.75)"/><path id="path76" class="cls-5" d="M60.93,8l.68.2c-.09-.42-.16-.85-.23-1.3l-.72-.11A10.73,10.73,0,0,0,60.93,8Z" transform="translate(-2.54 -1.75)"/><path id="path78" class="cls-6" d="M60.66,6.82l.72.11q-.09-.66-.15-1.35l-.75,0Q60.54,6.19,60.66,6.82Z" transform="translate(-2.54 -1.75)"/><path id="path80" class="cls-2" d="M62.23,10.38a4.67,4.67,0,0,0,.49.27c0-.32-.12-.67-.18-1.05-.21-.06-.43-.12-.64-.2C62,9.76,62.12,10.09,62.23,10.38Z" transform="translate(-2.54 -1.75)"/><path id="path82" class="cls-5" d="M61.9,9.4c.21.08.43.14.64.2-.07-.38-.14-.79-.2-1.22-.25,0-.49-.09-.73-.15C61.7,8.64,61.8,9,61.9,9.4Z" transform="translate(-2.54 -1.75)"/><path id="path84" class="cls-2" d="M62.72,10.65a4.4,4.4,0,0,0,.51.18c0-.34,0-.71-.09-1.1-.19,0-.39-.08-.6-.13C62.6,10,62.67,10.33,62.72,10.65Z" transform="translate(-2.54 -1.75)"/><path id="path86" class="cls-6" d="M62.54,9.6c.21.05.41.1.6.13,0-.39-.06-.81-.1-1.25a6.2,6.2,0,0,1-.7-.1c.06.43.13.84.2,1.22Z" transform="translate(-2.54 -1.75)"/><path id="path88" class="cls-7" d="M61.61,8.23c.24.06.48.11.73.15-.07-.42-.13-.87-.18-1.34l-.78-.11C61.45,7.38,61.52,7.81,61.61,8.23Z" transform="translate(-2.54 -1.75)"/><path id="path90" class="cls-8" d="M61.38,6.93l.78.11c-.06-.46-.1-.94-.12-1.42l-.81,0Q61.29,6.27,61.38,6.93Z" transform="translate(-2.54 -1.75)"/><path id="path92" class="cls-8" d="M62.34,8.38a6.2,6.2,0,0,0,.7.1C63,8,63,7.58,63,7.1A6.83,6.83,0,0,1,62.16,7c.05.47.11.92.18,1.34Z" transform="translate(-2.54 -1.75)"/><path id="path94" class="cls-9" d="M62.16,7A6.83,6.83,0,0,0,63,7.1c0-.48-.06-1-.08-1.47H62C62.06,6.1,62.1,6.58,62.16,7Z" transform="translate(-2.54 -1.75)"/><path id="path96" class="cls-2" d="M63.23,10.83a2.69,2.69,0,0,0,.89.05c0-.32,0-.69,0-1.09a4.14,4.14,0,0,1-1-.06c0,.39.07.76.09,1.1Z" transform="translate(-2.54 -1.75)"/><path id="path98" class="cls-10" d="M63.14,9.73a4.14,4.14,0,0,0,1,.06c0-.41,0-.85,0-1.31a6.86,6.86,0,0,1-1.11,0c0,.44.07.86.1,1.25Z" transform="translate(-2.54 -1.75)"/><path id="path100" class="cls-2" d="M64.12,10.88a2.76,2.76,0,0,0,.84-.23,6.28,6.28,0,0,0,.2-1,5.72,5.72,0,0,1-1,.17C64.14,10.19,64.13,10.56,64.12,10.88Z" transform="translate(-2.54 -1.75)"/><path id="path102" class="cls-6" d="M64.14,9.79a5.72,5.72,0,0,0,1-.17c0-.4.09-.83.12-1.28a10.57,10.57,0,0,1-1.13.14c0,.46,0,.9,0,1.31Z" transform="translate(-2.54 -1.75)"/><path id="path104" class="cls-11" d="M63,8.48a6.86,6.86,0,0,0,1.11,0c0-.46,0-.94,0-1.42-.4,0-.8.05-1.19,0,0,.48.06.94.09,1.38Z" transform="translate(-2.54 -1.75)"/><path id="path106" class="cls-12" d="M63,7.1c.39,0,.79,0,1.19,0,0-.49,0-1,0-1.47-.41,0-.83,0-1.25,0,0,.5.05,1,.08,1.47Z" transform="translate(-2.54 -1.75)"/><path id="path108" class="cls-8" d="M64.15,8.48a10.57,10.57,0,0,0,1.13-.14c0-.46,0-.94.06-1.41l-1.2.13c0,.48,0,1,0,1.42Z" transform="translate(-2.54 -1.75)"/><path id="path110" class="cls-9" d="M64.14,7.06l1.2-.13c0-.48,0-.95,0-1.4-.42,0-.84,0-1.26.06,0,.49,0,1,0,1.47Z" transform="translate(-2.54 -1.75)"/><path id="path112" class="cls-2" d="M65,10.65a11.66,11.66,0,0,0,.32-2.31c.37-.07.74-.16,1.09-.25a6,6,0,0,1-.66,2.1A3.87,3.87,0,0,1,65,10.65Z" transform="translate(-2.54 -1.75)"/><path id="path114" class="cls-2" d="M65.71,10.19a6,6,0,0,0,.66-2.1c.34-.08.67-.18,1-.27a6.11,6.11,0,0,1-1,1.74A4.17,4.17,0,0,1,65.71,10.19Z" transform="translate(-2.54 -1.75)"/><path id="path116" class="cls-7" d="M65.28,8.34c.37-.07.74-.16,1.09-.25.06-.41.11-.85.16-1.29l-1.19.13C65.33,7.4,65.31,7.88,65.28,8.34Z" transform="translate(-2.54 -1.75)"/><path id="path118" class="cls-8" d="M65.34,6.93l1.19-.13c0-.43.07-.87.11-1.29-.42,0-.84,0-1.26,0,0,.45,0,.92,0,1.4Z" transform="translate(-2.54 -1.75)"/><path id="path120" class="cls-5" d="M66.37,8.09c.34-.08.67-.18,1-.27a6.91,6.91,0,0,0,.34-1.06,11.14,11.14,0,0,0-1.15,0C66.48,7.24,66.43,7.68,66.37,8.09Z" transform="translate(-2.54 -1.75)"/><path id="path122" class="cls-6" d="M66.53,6.8a11.14,11.14,0,0,1,1.15,0,11,11,0,0,0,.21-1.17c-.41,0-.83-.07-1.25-.08,0,.42-.07.86-.11,1.29Z" transform="translate(-2.54 -1.75)"/><path id="path124" class="cls-2" d="M59.8,5.59a11.12,11.12,0,0,1-.06-1.16,4.58,4.58,0,0,1,.68-.12c0,.41,0,.86.06,1.25-.24,0-.47,0-.68,0Z" transform="translate(-2.54 -1.75)"/><path id="path126" class="cls-10" d="M60.48,5.56c0-.39-.06-.84-.06-1.25.24,0,.5,0,.77-.06,0,.43,0,.91,0,1.33l-.75,0Z" transform="translate(-2.54 -1.75)"/><path id="path128" class="cls-11" d="M61.23,5.58c0-.42,0-.9,0-1.33l.82,0c0,.45,0,.93,0,1.39l-.81,0Z" transform="translate(-2.54 -1.75)"/><path id="path130" class="cls-12" d="M62,5.62c0-.46,0-.94,0-1.39h.85c0,.46,0,.93,0,1.41Z" transform="translate(-2.54 -1.75)"/><path id="path132" class="cls-2" d="M59.74,4.43a6.83,6.83,0,0,1,1.45-.18,5.2,5.2,0,0,1,.13-1.12A4.5,4.5,0,0,0,60,3.48,2.11,2.11,0,0,0,59.74,4.43Z" transform="translate(-2.54 -1.75)"/><path id="path134" class="cls-2" d="M60,3.48a4.5,4.5,0,0,1,1.36-.35,5.21,5.21,0,0,1,.34-1,3.71,3.71,0,0,0-1.09.61A2.29,2.29,0,0,0,60,3.48Z" transform="translate(-2.54 -1.75)"/><path id="path136" class="cls-13" d="M61.19,4.25a5.2,5.2,0,0,1,.13-1.12l.79-.07A11.07,11.07,0,0,0,62,4.23l-.82,0Z" transform="translate(-2.54 -1.75)"/><path id="path138" class="cls-14" d="M62,4.23a11.07,11.07,0,0,1,.1-1.17l.8-.05c0,.4,0,.8,0,1.21Z" transform="translate(-2.54 -1.75)"/><path id="path140" class="cls-15" d="M61.32,3.13a5.21,5.21,0,0,1,.34-1,4.6,4.6,0,0,1,.66-.2q-.12.56-.21,1.14l-.79.07Z" transform="translate(-2.54 -1.75)"/><path id="path142" class="cls-16" d="M62.11,3.06q.09-.59.21-1.14a5.4,5.4,0,0,1,.7-.13c-.05.41-.08.82-.11,1.22l-.8.05Z" transform="translate(-2.54 -1.75)"/><path id="path144" class="cls-17" d="M62.87,5.63c0-.48,0-1,0-1.41.44,0,.88-.06,1.31-.07,0,.45,0,1,0,1.44-.41,0-.83,0-1.25,0Z" transform="translate(-2.54 -1.75)"/><path id="path146" class="cls-12" d="M64.12,5.59c0-.46,0-1,0-1.44.44,0,.88,0,1.31,0,0,.44-.08,1-.1,1.4-.42,0-.84,0-1.26.06Z" transform="translate(-2.54 -1.75)"/><path id="path148" class="cls-11" d="M65.38,5.53c0-.43.1-1,.1-1.4.44,0,.86,0,1.28.08,0,.41-.08.91-.12,1.3-.42,0-.84,0-1.26,0Z" transform="translate(-2.54 -1.75)"/><path id="path150" class="cls-10" d="M66.64,5.51c0-.39.11-.89.12-1.3A9,9,0,0,1,68,4.43a11.12,11.12,0,0,1-.06,1.16c-.41,0-.83-.07-1.25-.08Z" transform="translate(-2.54 -1.75)"/><path id="path152" class="cls-9" d="M62.86,4.22c0-.41,0-.81,0-1.21.41,0,.83-.06,1.26-.07,0,.4,0,.81,0,1.21-.43,0-.87,0-1.31.07Z" transform="translate(-2.54 -1.75)"/><path id="path154" class="cls-14" d="M64.17,4.15c0-.4,0-.81,0-1.21.43,0,.87,0,1.29,0a11.52,11.52,0,0,1,0,1.17c-.43,0-.87,0-1.31,0Z" transform="translate(-2.54 -1.75)"/><path id="path156" class="cls-18" d="M62.91,3c0-.4.06-.81.11-1.22a8.63,8.63,0,0,1,1.14,0c0,.38,0,.78,0,1.19-.43,0-.85,0-1.26.07Z" transform="translate(-2.54 -1.75)"/><path id="path158" class="cls-16" d="M64.17,2.94c0-.41,0-.81,0-1.19a6.74,6.74,0,0,1,1.11.15A4.25,4.25,0,0,1,65.46,3c-.42,0-.86,0-1.29,0Z" transform="translate(-2.54 -1.75)"/><path id="path160" class="cls-13" d="M65.48,4.13a10.78,10.78,0,0,1,2.47.3,2,2,0,0,0-.22-.95A6.37,6.37,0,0,0,65.46,3,11.52,11.52,0,0,1,65.48,4.13Z" transform="translate(-2.54 -1.75)"/><path id="path162" class="cls-15" d="M65.46,3a6.37,6.37,0,0,1,2.27.52,2.4,2.4,0,0,0-.6-.75,4.29,4.29,0,0,0-1.86-.83A4.25,4.25,0,0,1,65.46,3Z" transform="translate(-2.54 -1.75)"/></g></g></g></g></g></g><g class="cls-3"><g id="g172"><path id="path174" class="cls-19" d="M63.93,88.74a13,13,0,1,1,13-13,13,13,0,0,1-13,13m0-30.88A17.86,17.86,0,1,0,81.79,75.72,17.85,17.85,0,0,0,63.93,57.86" transform="translate(-2.54 -1.75)"/></g><g id="g176"><path id="path178" class="cls-20" d="M74.56,75.31A10.72,10.72,0,1,1,63.85,64.6,10.71,10.71,0,0,1,74.56,75.31" transform="translate(-2.54 -1.75)"/></g><g id="g180"><path id="path182" class="cls-21" d="M67.78,75.31a3.93,3.93,0,1,1-3.93-3.93,3.93,3.93,0,0,1,3.93,3.93" transform="translate(-2.54 -1.75)"/></g><g id="g184"><path id="path186" class="cls-22" d="M99.87,106.81a9.14,9.14,0,1,1-11.3-6.28,9.14,9.14,0,0,1,11.3,6.28" transform="translate(-2.54 -1.75)"/></g><g id="g188"><path id="path190" class="cls-22" d="M99.87,106.81a9.14,9.14,0,1,1-11.3-6.28,9.14,9.14,0,0,1,11.3,6.28" transform="translate(-2.54 -1.75)"/></g><g id="g192"><path id="path194" class="cls-23" d="M99.83,106.71c-2.53.85-5.42,2.12-8.62,3s-6.35,1.36-8.94,2c-.08-.26-.12-.49-.13-.52,2.22-.43,5.41-1.2,8.89-2.19s6.52-2,8.63-2.86a3.06,3.06,0,0,1,.17.55" transform="translate(-2.54 -1.75)"/></g><g id="g196"><path id="path198" class="cls-24" d="M96.66,102.09a9.13,9.13,0,0,0-14.15,4Z" transform="translate(-2.54 -1.75)"/></g><g id="g200"><path id="path202" class="cls-25" d="M82.19,107.15a9,9,0,0,0-.22,2.93l17.25-4.93a9.09,9.09,0,0,0-1.73-2.37Z" transform="translate(-2.54 -1.75)"/></g><g id="g204"><path id="path206" class="cls-26" d="M85.07,116.2A9.14,9.14,0,0,0,99.83,112Z" transform="translate(-2.54 -1.75)"/></g><g id="g208"><path id="path210" class="cls-27" d="M99.89,106.81a9.15,9.15,0,0,0-11.3-6.28,9.25,9.25,0,0,0-1.83.75,9.14,9.14,0,0,1,4.81,17.17,9.66,9.66,0,0,0,2-.34,9.15,9.15,0,0,0,6.28-11.3" transform="translate(-2.54 -1.75)"/></g><g id="g212"><path id="path214" class="cls-28" d="M99.29,105.29c3.11-.63,4.92-.79,5-.38.21.71-5.63,3-13,5.12s-13.58,3.25-13.78,2.54c-.12-.41,1.5-1.25,4.48-2.35-6.37,2.13-10.42,3.92-10.22,4.62.28,1,9.15-.71,19.82-3.76s19.09-6.3,18.81-7.28c-.2-.7-4.58-.07-11.11,1.49" transform="translate(-2.54 -1.75)"/></g><g id="g216"><path id="path218" class="cls-23" d="M99.27,105.31c2.8-.59,3.64-.47,3.73-.14.17.59-5.12,2.61-11.82,4.52s-12.26,3-12.43,2.41c-.09-.33.57-.9,3.23-1.87,0,0,0,0,0,0-5.76,1.9-8.6,3.35-8.44,3.92.23.8,8.24-.79,17.89-3.55s17.28-5.63,17-6.43c-.16-.56-3.42-.26-9.2,1.13-.06,0,0,0,0,.06" transform="translate(-2.54 -1.75)"/></g><g id="g220"><path id="path222" class="cls-29" d="M99.29,105.34c2.74-.59,3.35-.45,3.44-.15.15.52-5,2.47-11.6,4.34s-12,3-12.14,2.43c-.08-.29.38-.76,3-1.7,0,0,0,0,0,0-5.65,1.84-8.25,3.15-8.1,3.67.2.72,8-.89,17.46-3.59s16.93-5.46,16.73-6.18c-.15-.51-3.13-.22-8.78,1.17,0,0,0,0,0,0" transform="translate(-2.54 -1.75)"/></g><g id="g224"><g id="g232"><g class="cls-30"><g id="g234" class="cls-31"><g id="g236"><path id="path238" class="cls-32" d="M42.62,85.6a4.08,4.08,0,1,1-4.07-4.07,4.07,4.07,0,0,1,4.07,4.07" transform="translate(-2.54 -1.75)"/></g></g></g></g></g><g id="g240"><g id="g248"><g class="cls-33"><g id="g250" class="cls-31"><g id="g252"><path id="path254" class="cls-34" d="M39.23,81.58a4.08,4.08,0,0,1-2.65,7.17,3.82,3.82,0,0,1-.68-.06,4.07,4.07,0,1,0,3.33-7.11" transform="translate(-2.54 -1.75)"/></g></g></g></g></g><g id="g256"><path id="path258" class="cls-35" d="M36.19,82.62a.31.31,0,0,0,0,.61.31.31,0,0,0,0-.61" transform="translate(-2.54 -1.75)"/></g><g id="g260"><path id="path262" class="cls-35" d="M38.1,82.74a.31.31,0,0,0,0,.61.31.31,0,0,0,0-.61" transform="translate(-2.54 -1.75)"/></g><g id="g264"><path id="path266" class="cls-35" d="M37,85a.31.31,0,0,0,0,.62A.31.31,0,0,0,37,85" transform="translate(-2.54 -1.75)"/></g><g id="g268"><path id="path270" class="cls-35" d="M35.45,85.14a.31.31,0,0,0,0,.61.31.31,0,0,0,0-.61" transform="translate(-2.54 -1.75)"/></g><g id="g272"><path id="path274" class="cls-35" d="M35.45,87a.31.31,0,0,0,0,.62.31.31,0,0,0,0-.62" transform="translate(-2.54 -1.75)"/></g><g id="g276"><path id="path278" class="cls-35" d="M39.2,83.91a.31.31,0,0,0,0,.61.31.31,0,0,0,0-.61" transform="translate(-2.54 -1.75)"/></g><g id="g280"><path id="path282" class="cls-35" d="M37.48,86.49a.31.31,0,0,0,0,.62.31.31,0,0,0,0-.62" transform="translate(-2.54 -1.75)"/></g><g id="g284"><g id="g292"><g class="cls-36"><g id="g294" class="cls-31"><g id="g296"><path id="path298" class="cls-32" d="M36.19,54.56a3.43,3.43,0,1,1-3.43-3.43,3.43,3.43,0,0,1,3.43,3.43" transform="translate(-2.54 -1.75)"/></g></g></g></g></g><g id="g300"><g id="g308"><g class="cls-37"><g id="g310" class="cls-31"><g id="g312"><path id="path314" class="cls-34" d="M33.33,51.18a3.43,3.43,0,0,1-2.23,6,3.66,3.66,0,0,1-.57,0,3.43,3.43,0,1,0,2.8-6" transform="translate(-2.54 -1.75)"/></g></g></g></g></g><g id="g316"><path id="path318" class="cls-20" d="M97.59,67.08a6.18,6.18,0,1,1-6.17-6.18,6.17,6.17,0,0,1,6.17,6.18" transform="translate(-2.54 -1.75)"/></g><g id="g320"><path id="path322" class="cls-38" d="M92.45,61a6.18,6.18,0,0,1-4,10.87,7,7,0,0,1-1-.09,6.18,6.18,0,1,0,5-10.78" transform="translate(-2.54 -1.75)"/></g><g id="g324"><path id="path326" class="cls-39" d="M130.77,58.76a8.94,8.94,0,1,1-8.94-8.94,8.94,8.94,0,0,1,8.94,8.94" transform="translate(-2.54 -1.75)"/></g><g id="g328"><path id="path330" class="cls-40" d="M123.32,50a8.94,8.94,0,0,1-5.81,15.73,9.17,9.17,0,0,1-1.49-.13,8.94,8.94,0,1,0,7.3-15.6" transform="translate(-2.54 -1.75)"/></g><g id="g332"><g id="g340"><g class="cls-41"><g id="g342" class="cls-31"><g id="g344"><path id="path346" class="cls-21" d="M56.25,106.81a8,8,0,1,1-8-8,8,8,0,0,1,8,8" transform="translate(-2.54 -1.75)"/></g></g></g></g></g><g id="g348"><g id="g356"><g class="cls-42"><g id="g358" class="cls-31"><g id="g360"><path id="path362" class="cls-43" d="M49.58,98.9A8,8,0,0,1,44.37,113a7.34,7.34,0,0,1-1.34-.12,8,8,0,1,0,6.55-14" transform="translate(-2.54 -1.75)"/></g></g></g></g></g><g id="g364"><g id="g372"><g class="cls-44"><g id="g374" class="cls-31"><g id="g376"><path id="path378" class="cls-43" d="M48.24,103.57c0,.24-1,.44-2.27.44s-2.27-.2-2.27-.44,1-.45,2.27-.45,2.27.2,2.27.45" transform="translate(-2.54 -1.75)"/></g></g></g></g></g><g id="g380"><g id="g388"><g class="cls-45"><g id="g390" class="cls-31"><g id="g392"><path id="path394" class="cls-43" d="M46,106.86c0,.25-1,.45-2.27.45s-2.26-.2-2.26-.45,1-.44,2.26-.44,2.27.2,2.27.44" transform="translate(-2.54 -1.75)"/></g></g></g></g></g><g id="g396"><g id="g404"><g class="cls-46"><g id="g406" class="cls-31"><g id="g408"><path id="path410" class="cls-43" d="M50,109.32c0,.25-1,.44-2.26.44s-2.27-.19-2.27-.44,1-.45,2.27-.45,2.26.2,2.26.45" transform="translate(-2.54 -1.75)"/></g></g></g></g></g><g id="g412"><g id="g420"><g class="cls-47"><g id="g422" class="cls-31"><g id="g424"><path id="path426" class="cls-19" d="M27.87,72c0,.15,0,.29,0,.43s0,.15,0,.23l0,.46c0,.08,0,.15,0,.23a2.51,2.51,0,0,1,0,.27,1.23,1.23,0,0,1,0,.2c0,.08,0,.16,0,.24l0,.19c0,.09,0,.18-.05.27l-.06.25-.06.29c-.06.22-.12.45-.19.67s-.07.22-.11.34l-.07.21-.06.15c0,.11-.08.22-.13.34l-.12.29s0,0,0,0l-.09.19s0,0,0,0l-.15.32-.13.25-.25.44c-.06.1-.12.21-.19.31v0a12,12,0,0,1-.81,1.16l-.18.22a12.38,12.38,0,0,1-2,2l-.39.3-.29.2-.25.16-.26.16-.54.31-.26.14c-.34.18-.69.33-1,.48l-.24.09c-.14,0-.28.11-.43.15l-.16.06c-.33.1-.67.2-1,.28l-.4.08-.35.07h-.1l-.34.06-.44,0-.39,0-.49,0h-.82l-.44,0a5.51,5.51,0,0,1-.57-.06,5.54,5.54,0,0,1-.57-.07c-.28,0-.56-.1-.84-.17l-.41-.1h0l-.38-.11c-.29-.09-.58-.19-.86-.3l-.4-.16-.08,0L9.7,83.4a4.16,4.16,0,0,1-.47-.24l-.4-.22-.1-.06c-.23-.14-.46-.28-.68-.44A8,8,0,0,1,7.39,82L7,81.61a12.5,12.5,0,0,1-2.53-2.94,13,13,0,0,1-.74-1.38l-.09-.19v0c-.19-.44-.36-.89-.51-1.36h0a14,14,0,0,1-.51-2.61h0c0-.36,0-.73,0-1.11a12.22,12.22,0,0,1,.19-2.19v0a12.86,12.86,0,0,1,1-3.25l0,0a12.24,12.24,0,0,1,.74-1.33v0A12.67,12.67,0,0,1,15.2,59.33a12.18,12.18,0,0,1,2.11.18l.42.08c.1,0,.19,0,.29.06l.4.1h0l.44.13.09,0,.33.1h0l.32.11.13,0c.34.13.68.28,1,.44l.21.11c.24.12.48.26.72.4l.18.11c.33.21.64.43.95.66l.21.17c.15.11.29.23.42.34l.21.19.2.18.39.38c.31.33.61.67.89,1,.12.14.22.29.33.44s.24.33.35.51l0,0,.27.44.27.49.21.42h0a.37.37,0,0,1,.05.11l.18.38.16.42a.3.3,0,0,1,0,.1l.15.41v0l.15.48.13.49a1.62,1.62,0,0,1,0,.19,2.86,2.86,0,0,1,.07.28.43.43,0,0,0,0,.11c0,.07,0,.15,0,.22a0,0,0,0,0,0,0v0c0,.11,0,.21.05.33a2,2,0,0,1,0,.24,1.81,1.81,0,0,1,0,.23c0,.17,0,.34.05.51s0,.29,0,.43h0c0,.14,0,.29,0,.43" transform="translate(-2.54 -1.75)"/></g></g></g></g></g><g id="g428"><g id="g436"><g class="cls-48"><g id="g438" class="cls-31"><g id="g440"><path id="path442" class="cls-49" d="M27.87,72c0,.15,0,.29,0,.43s0,.15,0,.23l0,.46c0,.08,0,.15,0,.23a2.51,2.51,0,0,1,0,.27,1.23,1.23,0,0,1,0,.2c0,.08,0,.16,0,.24l0,.19c0,.09,0,.18-.05.27l-.06.25-.06.29c-.06.22-.12.45-.19.67s-.07.22-.11.34l-.07.21-.06.15c0,.11-.08.22-.13.34l-.12.29s0,0,0,0l-.09.19s0,0,0,0l-.15.32-.13.25-.25.44c-.06.1-.12.21-.19.31v0a12,12,0,0,1-.81,1.16l-.18.22a12.38,12.38,0,0,1-2,2l-.39.3-.29.2-.25.16-.26.16-.54.31-.26.14c-.34.18-.69.33-1,.48l-.24.09c-.14,0-.28.11-.43.15l-.16.06c-.33.1-.67.2-1,.28l-.4.08-.35.07h-.1l-.34.06-.44,0-.39,0-.49,0h-.82l-.44,0a5.51,5.51,0,0,1-.57-.06,5.54,5.54,0,0,1-.57-.07c-.28,0-.56-.1-.84-.17l-.41-.1h0l-.38-.11c-.29-.09-.58-.19-.86-.3l-.4-.16-.08,0L9.7,83.4a4.16,4.16,0,0,1-.47-.24l-.4-.22-.1-.06c-.23-.14-.46-.28-.68-.44A8,8,0,0,1,7.39,82L7,81.61a12.18,12.18,0,0,0,2.11.18,12.55,12.55,0,0,0,8.32-3.12,11.08,11.08,0,0,0,1.36-1.38c.06-.06.11-.13.16-.19a13.26,13.26,0,0,0,1-1.38,12.87,12.87,0,0,0,1.2-2.61,12.2,12.2,0,0,0,.63-3.33c0-.22,0-.44,0-.65a13.1,13.1,0,0,0-.27-2.6,12.73,12.73,0,0,0-.37-1.38,12.64,12.64,0,0,0-3.8-5.64l.42.08c.1,0,.19,0,.29.06l.4.1h0l.44.13.09,0,.33.1h0l.45.16c.34.13.68.28,1,.44l.21.11.72.4.18.11c.33.21.64.43.95.66l.21.17c.15.11.29.23.42.34l.21.19.2.18.39.38c.31.33.61.67.89,1,.12.14.22.29.33.44s.24.33.35.51l0,0,.27.44.27.49.21.42h0a.37.37,0,0,1,.05.11l.18.38.16.42a.3.3,0,0,1,0,.1l.15.41v0l.15.48.13.49a1.62,1.62,0,0,1,0,.19,2.86,2.86,0,0,1,.07.28.43.43,0,0,0,0,.11c0,.07,0,.15,0,.22a0,0,0,0,0,0,0v0c0,.11,0,.21.05.33a2,2,0,0,1,0,.24,1.81,1.81,0,0,1,0,.23c0,.17,0,.34.05.51s0,.29,0,.43h0c0,.14,0,.29,0,.43" transform="translate(-2.54 -1.75)"/></g></g></g></g></g><g id="g444"><g id="g452"><g class="cls-50"><g id="g454" class="cls-51"><g id="g456"><path id="path458" class="cls-49" d="M26.63,66.53H3.77l0,0,.74-1.33v0H25.86Z" transform="translate(-2.54 -1.75)"/></g></g></g></g></g><g id="g460"><g id="g468"><g class="cls-52"><g id="g470" class="cls-51"><g id="g472"><path id="path474" class="cls-49" d="M27.87,72c0,.15,0,.29,0,.43s0,.15,0,.23l0,.46H2.58l.15-3.3v0h25v0c0,.11,0,.21.05.33a2,2,0,0,1,0,.24,1.81,1.81,0,0,1,0,.23c0,.17,0,.34.05.51s0,.29,0,.43h0c0,.14,0,.29,0,.43" transform="translate(-2.54 -1.75)"/></g></g></g></g></g><g id="g10"><g id="g476"><g id="g484"><g class="cls-53"><g id="g486" class="cls-51"><g id="g488"><path id="path490" class="cls-49" d="M27.31,75.72c0,.11-.07.22-.11.34l-.07.21-.06.15c0,.11-.08.22-.13.34l-.12.29s0,0,0,0H3.61v0l-.51-1.36H27.31Z" transform="translate(-2.54 -1.75)"/></g></g></g></g></g><g id="g164"><g id="g492"><g id="g500"><g class="cls-54"><g id="g502" class="cls-51"><g id="g504"><path id="path506" class="cls-49" d="M26.71,77.29s0,0,0,0l-.15.32-.13.25-.25.44c-.06.1-.12.21-.19.31v0H4.44a13,13,0,0,1-.74-1.38Z" transform="translate(-2.54 -1.75)"/></g></g></g></g></g><g id="g508"><path id="path510" class="cls-55" d="M118.88,85.61a8.68,8.68,0,1,1-8.68-8.68,8.67,8.67,0,0,1,8.68,8.68" transform="translate(-2.54 -1.75)"/></g><g id="g512"><path id="path514" class="cls-56" d="M104.67,87v0" transform="translate(-2.54 -1.75)"/></g><g id="g516"><path id="path518" class="cls-56" d="M109.89,86.86l-.92-.62-.34,0-.31-.6-.59-.3h-.64l-.31.26-.3-.58h-.63l-.26.28h-.66V85l-.29-.28v-.33s-.36-.06-.34,0-.27.26-.27.26a3,3,0,0,1-.3-.59l.29-.3s.89,0,1,0,.51.24.57.28a2.55,2.55,0,0,0,.65-.66s.29-1.1.29-1.17a4.4,4.4,0,0,1,.59-.62l1,0V81h.09l.85.31.59-.62h-.32c.05-.2-.52-1-.59-.91a6.21,6.21,0,0,1-.57.29l-1.28,0-.33.6-.27-.29-.35,0,0-.62.81-.29h.14l.32.3.82-.3h.69a2,2,0,0,0-.6-.92h-.64c.07.07-.82.59-.82.59a.41.41,0,0,1-.16,0c-.12-.39-1.13-.62-1.13-.62h0a8.68,8.68,0,0,0-3.66,5.82l0,0,.15,0,.37,0,.28.29s0-.09.36,0a2.25,2.25,0,0,1,.85.6l.66,0,.28.3h.62V86a2.07,2.07,0,0,0-.37.37c-.06.11-.18.56-.21.65s0,0,0,.27.88,1.15.88,1.15l.61,0,0,.65.6,1.12a3.67,3.67,0,0,0,0,.74s.17.48.26.49a5.87,5.87,0,0,1,.22.6,2.92,2.92,0,0,1,.15.37c0,.13.32.36.32.36l.58,0s-.27-.33-.34-.39a4.66,4.66,0,0,1-.25-.46s0,0,0-.13.29-.72.29-.82.65-.34.65-.34v-1l.61-.31a3.45,3.45,0,0,1,0-.62c0-.07.49-.18.6-.32a6,6,0,0,0,.29-.89s-.27-.7-.3-.64" transform="translate(-2.54 -1.75)"/></g><g id="g520"><path id="path522" class="cls-56" d="M108.05,82.23l.3.27.3-.27-.3-.31H108v.24Z" transform="translate(-2.54 -1.75)"/></g><g id="g524"><path id="path526" class="cls-56" d="M108.93,82.16l-.31-.24,0-.32h.62l0,.28-.23.24Z" transform="translate(-2.54 -1.75)"/></g><g id="g528"><path id="path530" class="cls-56" d="M113,80.05v.3l.32.27.22-.25-.2-.28Z" transform="translate(-2.54 -1.75)"/></g><g id="g532"><path id="path534" class="cls-56" d="M113.64,80.05l.28-.27.57.27-.25.57h-.31V80.3Z" transform="translate(-2.54 -1.75)"/></g><g id="g536"><path id="path538" class="cls-56" d="M115.15,78.48v.91a2,2,0,0,0,.36.39l.58.23-.28.32-.66,0-.3.25v.62l-.3-.25h-.64l-.27.59.3.58.55.06.41-.39a1.74,1.74,0,0,0,.82-.52c.22-.34.28.43.28.43l.09.48.31.27.58-.29-.53-.62.25-.28.6.52,0,.35.35,0,.26.28.36,0a8.75,8.75,0,0,0-3.16-4" transform="translate(-2.54 -1.75)"/></g><g id="g540"><path id="path542" class="cls-56" d="M116.81,91.23l-.43-.33v-.63l-.54-1.13.58-.71-.29-.57,0-.74-.55-.22-.64-.09-.64.38-.69,0-.65-.28s-.32-.8-.32-.84V85.1l.26-.28.06-1.07.27-.26h.61l.47-.29,1.13-.09.85.58s.76-.53,1-.47.43.18.58.21a6,6,0,0,0,.69,0,8.4,8.4,0,0,1-1.8,7.78" transform="translate(-2.54 -1.75)"/></g><g id="g166"><g id="g544"><g id="g552"><g class="cls-57"><g id="g554" class="cls-51"><g id="g556"><path id="path558" class="cls-58" d="M115.06,78.4a8.67,8.67,0,0,1-12,12,8.67,8.67,0,1,0,12-12" transform="translate(-2.54 -1.75)"/></g></g></g></g></g></g></g></g></g></g></g></g></svg>