<svg xmlns="http://www.w3.org/2000/svg" xmlns:xlink="http://www.w3.org/1999/xlink" viewBox="0 0 64.32 21.26"><defs><style>.cls-1{fill:none;}.cls-2{isolation:isolate;}.cls-3,.cls-4{opacity:0.8;mix-blend-mode:multiply;}.cls-3{fill:url(#radial-gradient);}.cls-4{fill:url(#radial-gradient-2);}.cls-5{clip-path:url(#clip-path);}.cls-6{fill:#e3e2e2;}.cls-7{fill:#f4f4f4;}.cls-8{fill:#fff;}.cls-9{fill:#ebeaea;}.cls-10{fill:#d1d0d0;}.cls-11{fill:#006ec3;}.cls-12{fill:#e5e6e7;}.cls-13{fill:#5781ff;}.cls-14{clip-path:url(#clip-path-2);}.cls-15{clip-path:url(#clip-path-3);}.cls-16{fill:#f6f8f7;}.cls-17{fill:#e9ebea;}.cls-18{fill:#d8dada;}.cls-19{fill:#c9cbcb;}.cls-20{fill:#bbbdbe;}.cls-21{fill:#a6a8aa;}.cls-22{fill:#8f9194;}.cls-23{fill:#c2c4c5;}.cls-24{fill:#9e9fa2;}.cls-25{fill:#87898c;}.cls-26{fill:#c4c6c7;}.cls-27{fill:#cacccc;}.cls-28{fill:#dadddc;}.cls-29{fill:#eceeed;}.cls-30{fill:#f2f5f4;}.cls-31{fill:#a1a3a5;}.cls-32{fill:#a9abad;}.cls-33{fill:#8b8d90;}.cls-34{fill:#95989a;}.cls-35{fill:#c4c7c7;}.cls-36{fill:#e2e5e4;}.cls-37{fill:#eef0ef;}.cls-38{fill:#b6b8b9;}.cls-39{fill:#dadddd;}.cls-40{fill:#eaedec;}.cls-41{fill:#808285;}.cls-42{fill:#848689;}.cls-43{fill:#8e9193;}.cls-44{fill:#b0b3b4;}.cls-45{fill:#d7dada;}.cls-46{fill:#b2b5b5;}.cls-47{fill:#d9dcdb;}.cls-48{fill:#eaedeb;}.cls-49{fill:#d7dbda;}.cls-50{fill:#dbdddc;}.cls-51{clip-path:url(#clip-path-5);}.cls-52{clip-path:url(#clip-path-6);}.cls-53{fill:#dbdddd;}.cls-54{fill:#d4d6d7;}.cls-55{fill:#e8eae9;}.cls-56{fill:#dddfdf;}.cls-57{fill:#e3e5e4;}.cls-58{fill:#ebedec;}.cls-59{fill:#f3f5f4;}.cls-60{fill:#f2f4f3;}.cls-61{fill:#e8eaea;}.cls-62{fill:#dfe1e1;}.cls-63{fill:#d2d4d5;}.cls-64{fill:#d5d7d7;}.cls-65{fill:#dddfde;}.cls-66{fill:#f0f2f2;}.cls-67{fill:#e4e6e6;}.cls-68{fill:#f5f7f6;}.cls-69{fill:#f4f6f5;}.cls-70{fill:#f1f3f2;}.cls-71{fill:#eceeee;}.cls-72{fill:#e6e8e8;}.cls-73{fill:#dee0e1;}.cls-74{fill:#ecefee;}.cls-75{fill:#e3e5e5;}.cls-76{fill:#dadcdd;}.cls-77{fill:#f3f4f4;}.cls-78{fill:#fafbfa;}.cls-79{fill:#eaebeb;}.cls-80{fill:#dbddde;}.cls-81{fill:#e1e2e3;}.cls-82{fill:#f2f3f3;}.cls-83{fill:#fafbfb;}.cls-84{fill:#d6d8d9;}.cls-85{fill:#dcdedf;}.cls-86{fill:#eaecec;}.cls-87{fill:#f9f9f9;}.cls-88{fill:#dadcdc;}.cls-89{fill:#e5e7e7;}.cls-90{fill:#e6e8e7;}.cls-91{fill:#fefefe;}.cls-92{fill:#edf0ef;}.cls-93{fill:#eef1f0;}.cls-94{fill:#e1e4e3;}.cls-95{fill:#e4e7e6;}.cls-96{fill:#d7d9d9;}.cls-97{fill:#dbdede;}.cls-98{clip-path:url(#clip-path-8);}.cls-99{clip-path:url(#clip-path-9);}.cls-100{clip-path:url(#clip-path-10);}.cls-101{fill:#f2f4f4;}.cls-102{fill:#e8e9e9;}.cls-103{fill:#d5d7d8;}.cls-104{fill:#d9dbdc;}.cls-105{fill:#f8f8f8;}.cls-106{fill:#ebeeed;}.cls-107{fill:#edefee;}.cls-108{fill:#d9dbdb;}.cls-109{fill:#c5c7c9;}.cls-110{fill:#dee0e0;}.cls-111{fill:#e1e3e3;}.cls-112{fill:#f1f3f3;}.cls-113{fill:#eef0f0;}.cls-114{fill:#cdcfd0;}.cls-115{fill:#c8cacb;}.cls-116{fill:#eff1f1;}.cls-117{fill:#e0e2e2;}.cls-118{fill:#d1d3d4;}.cls-119{fill:#e9ebeb;}.cls-120{fill:#bcbec0;}.cls-121{fill:#c0c2c3;}.cls-122{fill:#cbccce;}</style><radialGradient id="radial-gradient" cx="37.34" cy="4669.9" r="12.26" gradientTransform="matrix(0.94, 0, 0, 0.12, 0.1, -534.93)" gradientUnits="userSpaceOnUse"><stop offset="0" stop-color="#545556"/><stop offset="0.09" stop-color="#474849" stop-opacity="0.85"/><stop offset="0.33" stop-color="#282929" stop-opacity="0.48"/><stop offset="0.57" stop-color="#121212" stop-opacity="0.21"/><stop offset="0.8" stop-color="#050505" stop-opacity="0.05"/><stop offset="1" stop-opacity="0"/></radialGradient><radialGradient id="radial-gradient-2" cx="67.18" cy="4717.35" r="12.26" gradientTransform="matrix(0.73, 0, 0, 0.06, 5.21, -274.51)" xlink:href="#radial-gradient"/><clipPath id="clip-path" transform="translate(-0.73 -0.37)"><rect class="cls-1" y="6" width="62" height="14"/></clipPath><clipPath id="clip-path-2" transform="translate(-0.73 -0.37)"><rect class="cls-1" x="48" width="12" height="3"/></clipPath><clipPath id="clip-path-3" transform="translate(-0.73 -0.37)"><path class="cls-1" d="M54.5.37H53.16c-4.56,0-5.07.33-5.07.5V1a1.55,1.55,0,0,0,.68,1.45,3.42,3.42,0,0,0,1.78.37h6.93A2.72,2.72,0,0,0,59,2.47,1.63,1.63,0,0,0,59.64,1V.87c0-.17-.81-.5-5.07-.5Z"/></clipPath><clipPath id="clip-path-5" transform="translate(-0.73 -0.37)"><rect class="cls-1" x="48" width="12" height="22"/></clipPath><clipPath id="clip-path-6" transform="translate(-0.73 -0.37)"><path class="cls-1" d="M52.8,21.1h0Zm.1,0h0ZM55.73,1.21H52.78c-.29,0-.59,0-.84,0h-.26a20.49,20.49,0,0,1-2.74-.12c-.92-.13-.85-.25-.85.06v.2a74.46,74.46,0,0,0,.47,7.73c.4,3.92,1,7.74,1.46,10.54.08.5.21,1.51,2.88,1.51h2c3,0,3.11-1,3.18-1.51.48-3.23,1-7,1.26-10.76.21-2.54.34-5.1.34-7.53V1.1c0-.17,0-.23-.15-.23s-1.17.23-3.77.34"/></clipPath><clipPath id="clip-path-8" transform="translate(-0.73 -0.37)"><rect class="cls-1" x="48" y="2" width="12" height="3"/></clipPath><clipPath id="clip-path-9" transform="translate(-0.73 -0.37)"><rect class="cls-1" x="58" y="2" width="8" height="15"/></clipPath><clipPath id="clip-path-10" transform="translate(-0.73 -0.37)"><path class="cls-1" d="M61.27,2.46a3.12,3.12,0,0,0-1.38.48.43.43,0,0,0-.36.38c0,.18,0,.42,0,.74a8,8,0,0,0-.05.83,1.54,1.54,0,0,0,.06.64c.41.09.25-1.29,1.14-1.89,1.77-1.22,3.69.76,3.49,2.91-.11,1.06-.33,3.38-3.68,6.14a22.22,22.22,0,0,0-1.56,1.61,1.08,1.08,0,0,0-.33.55,2.42,2.42,0,0,0-.09.53c0,.13,0,.26,0,.37a.34.34,0,0,0,.12.27c.41-.11,2.13-2.27,2.77-2.88s3.58-2.71,3.7-6.5c.1-3.48-2.24-4.2-3.49-4.2l-.29,0"/></clipPath></defs><title>plate_and_cup</title><g id="Layer_2" data-name="Layer 2"><g id="plate_and_cup"><g id="plate_and_cup-2" data-name="plate_and_cup" class="cls-2"><path class="cls-3" d="M46,17.57c0,.8-5.18,1.44-11.56,1.43s-11.57-.66-11.56-1.47,5.17-1.44,11.56-1.43S46,16.77,46,17.57Z" transform="translate(-0.73 -0.37)"/><path class="cls-4" d="M62.81,20.88c0,.42-4,.76-9,.75s-9-.35-9-.78,4-.76,9-.75S62.81,20.45,62.81,20.88Z" transform="translate(-0.73 -0.37)"/><g class="cls-5"><path class="cls-6" d="M34.57,17.1l-4.93-.17.11.26a.69.69,0,0,0,.27.14,18.54,18.54,0,0,0,4.55.49,18.65,18.65,0,0,0,4.56-.49.87.87,0,0,0,.27-.14l.11-.26Z" transform="translate(-0.73 -0.37)"/><path class="cls-7" d="M48,11l-.19.11-11,1H32.3l-11-1-.19-.1s2.27,5.28,11,6.49a16.91,16.91,0,0,0,2.46.18,16.24,16.24,0,0,0,2.64-.21C45.78,16.18,48,11,48,11" transform="translate(-0.73 -0.37)"/><path class="cls-8" d="M48.11,10.5c0,2.23-6.06,4.05-13.54,4.05S21,12.73,21,10.5,27.1,6.44,34.57,6.44,48.11,8.26,48.11,10.5" transform="translate(-0.73 -0.37)"/><path class="cls-9" d="M48.11,10.29c0,2.24-6.06,4.05-13.54,4.05S21,12.53,21,10.29s6.07-4,13.54-4,13.54,1.82,13.54,4" transform="translate(-0.73 -0.37)"/><path class="cls-8" d="M34.57,6.38c7.35,0,13.4,1.79,13.4,4.05a2,2,0,0,1-.74,1.3,1.94,1.94,0,0,0,.88-1.44c0-2.23-6.06-4-13.54-4S21,8.06,21,10.29a1.86,1.86,0,0,0,.81,1.38,1.93,1.93,0,0,1-.66-1.25c0-2.26,6-4,13.39-4" transform="translate(-0.73 -0.37)"/><path class="cls-10" d="M34.57,11.77c-3.75,0-6.8.89-7,2a40.65,40.65,0,0,0,7,.57,40.48,40.48,0,0,0,7-.57c-.15-1.11-3.21-2-7-2" transform="translate(-0.73 -0.37)"/><path class="cls-11" d="M45.4,13.12a32.63,32.63,0,0,1-10.83,1.65,32.53,32.53,0,0,1-10.82-1.65A16,16,0,0,1,22,12.33l.35.42c2.81,1.39,7.25,2.31,12.25,2.31s9.42-.91,12.24-2.3l.35-.42a15.41,15.41,0,0,1-1.76.78" transform="translate(-0.73 -0.37)"/><path class="cls-12" d="M25.48,17.93a3.17,3.17,0,0,1,.52.85c0,.27,0,.63-.59.42s-7.14-2.89-7.51-3.06-1.34-.7-1.86-1a13.38,13.38,0,0,0-2.71-1.08c-1.92-.63-4.38-1.32-5.09-1.92,0,0-.69-.5-.4-1.16s.87-.54,1.45-.37a31.42,31.42,0,0,1,3.59,1.6c2.37,1.19,2.77,1.43,3.22,1.61s1.63.47,2.22.63a41.21,41.21,0,0,1,4.11,1.62,10.74,10.74,0,0,1,3.05,1.84" transform="translate(-0.73 -0.37)"/><path class="cls-13" d="M25.71,19.39a1,1,0,0,1-.35-.07c-.49-.19-7.1-2.88-7.51-3.07l-1.53-.8-.47-.24a12.93,12.93,0,0,0-2.56-1l-1.15-.37a16.11,16.11,0,0,1-4-1.57A1.13,1.13,0,0,1,7.73,11c.35-.8,1.13-.57,1.59-.44a32.45,32.45,0,0,1,3.62,1.61c.94.47,1.57.79,2,1,.68.34.93.47,1.2.57s1.07.33,1.66.49l.55.14A41,41,0,0,1,22.49,16a10.76,10.76,0,0,1,3.08,1.86h0a2.87,2.87,0,0,1,.55.93.55.55,0,0,1-.15.53.39.39,0,0,1-.26.09M8.58,10.63a.62.62,0,0,0-.63.43c-.24.55.36,1,.36,1a16.44,16.44,0,0,0,3.91,1.53l1.15.37A14.47,14.47,0,0,1,16,15l.46.25c.52.27,1.23.65,1.53.79s6.85,2.82,7.49,3.06c.18.07.3.08.37,0a.38.38,0,0,0,.05-.31,2.62,2.62,0,0,0-.49-.79,9.89,9.89,0,0,0-3-1.81,41.39,41.39,0,0,0-4.09-1.61l-.54-.14c-.6-.16-1.34-.35-1.69-.49s-.54-.24-1.22-.6l-2-1a31.15,31.15,0,0,0-3.58-1.59,2.72,2.72,0,0,0-.67-.12" transform="translate(-0.73 -0.37)"/><path class="cls-12" d="M48.81,16.79l1.47-.64a.29.29,0,0,0,.12-.31.32.32,0,0,0-.28-.21,3.84,3.84,0,0,0-.63.19l.55-.23a.28.28,0,0,0,.16-.16l0,0,0-.14a.22.22,0,0,0-.22-.17h0l-.1,0-.56.24.53-.28a.28.28,0,0,0,.12-.31.27.27,0,0,0-.26-.21,8.89,8.89,0,0,0-1.55.62,12,12,0,0,1,1.93-.93,1.48,1.48,0,0,1,.35-.05,1.86,1.86,0,0,1,.5.09,1.17,1.17,0,0,0,.36.08h.17l.14,0a1.67,1.67,0,0,0,.58-.15c.53-.21,3-1.23,3.86-1.71s2.1-1.2,2.61-1.54l.14-.09a3.19,3.19,0,0,1,1.35-.66h.11a1.15,1.15,0,0,1,.63.47,1.13,1.13,0,0,1-.1.78c-.17.33-.93.49-1.48.61l-.17,0c-.59.13-2,.5-2.92.81s-3.41,1.36-3.9,1.59a1.3,1.3,0,0,0-.6.42l-.11.14a1.17,1.17,0,0,0-.19.3,1.37,1.37,0,0,1-.56.64,12,12,0,0,1-2,.76" transform="translate(-0.73 -0.37)"/><path class="cls-13" d="M60.11,10.35h.08a1.13,1.13,0,0,1,.55.39,1.16,1.16,0,0,1-.09.68c-.15.28-.93.45-1.4.54l-.17,0c-.6.13-2,.5-2.93.81s-3.43,1.37-3.92,1.6a1.37,1.37,0,0,0-.65.46l-.1.12a1.36,1.36,0,0,0-.21.34,1.34,1.34,0,0,1-.52.59l-.25.13a.39.39,0,0,0-.22-.52l0-.06a.37.37,0,0,0,0-.29A.33.33,0,0,0,50,15a.42.42,0,0,0,0-.25.44.44,0,0,0-.23-.27l.27-.09a1.1,1.1,0,0,1,.31,0,1.64,1.64,0,0,1,.46.08,1.83,1.83,0,0,0,.39.09h.32a1.64,1.64,0,0,0,.62-.16c.51-.2,3-1.24,3.88-1.71s2.11-1.2,2.62-1.54l.14-.1a3.19,3.19,0,0,1,1.28-.64m0-.25a3.7,3.7,0,0,0-1.56.78C58,11.22,56.8,12,56,12.41s-3.29,1.48-3.85,1.7a1.55,1.55,0,0,1-.53.14l-.31,0a5.66,5.66,0,0,0-.86-.17,1.33,1.33,0,0,0-.38,0,23.22,23.22,0,0,0-3.08,1.54,7.06,7.06,0,0,0-.95.54l.14-.05c.18-.07,3.31-1.43,3.5-1.47h0a.16.16,0,0,1,.08.29c-.13.08-.23.13-.9.47s-2.61,1.28-2.58,1.31h0c.09,0,3.45-1.45,3.61-1.51l.08,0a.1.1,0,0,1,.1.09h0s.08.12-.07.19S46.38,17,46.39,17h0c.1,0,2.05-.7,2.73-.94s.82-.28,1-.32h0a.16.16,0,0,1,.09.29c-.16.1-3.31,1.42-3.49,1.49s-.16.07-.13.07.29-.07,1-.31a23.35,23.35,0,0,0,3.24-1.15c.54-.32.57-.73.78-1a1.3,1.3,0,0,1,.67-.53c.55-.25,3-1.29,3.89-1.58s2.31-.68,2.91-.81,1.52-.28,1.74-.7a1.35,1.35,0,0,0,.1-.88h0a1.32,1.32,0,0,0-.71-.54.39.39,0,0,0-.15,0" transform="translate(-0.73 -0.37)"/><path class="cls-12" d="M17.75,12.33c.62.49,1.89,1.07,4.17.48A7,7,0,0,0,25.44,11a.63.63,0,0,0,.23-.57.64.64,0,0,0-.4-.47,7,7,0,0,0-3.9-.65C19,9.43,18,10.38,17.54,11s-1.92.69-3.07.85-5.22.72-6.63.84-4.18.12-4.93.19-2.2.31-2,1.3v.16l0,.11c.15,1,1.61.75,2.35.59s3.36-1,4.74-1.34,5.42-1.05,6.57-1.25,2.56-.64,3.18-.15" transform="translate(-0.73 -0.37)"/><path class="cls-13" d="M2.12,15.34a1.64,1.64,0,0,1-1-.23.84.84,0,0,1-.37-.61l-.05-.27a.91.91,0,0,1,.17-.7,2.87,2.87,0,0,1,2-.74c.35,0,1.1,0,2-.07s2.19-.06,3-.12c1.58-.13,6.42-.82,6.62-.84l.68-.08c.93-.11,2-.23,2.31-.71.49-.75,1.57-1.66,3.92-1.81a7.17,7.17,0,0,1,4,.66.73.73,0,0,1,.47.58.71.71,0,0,1-.26.67A7.17,7.17,0,0,1,22,12.93c-2.27.59-3.58.05-4.28-.5-.45-.36-1.49-.15-2.41,0-.23,0-.45.1-.67.13s-5,.89-6.56,1.25c-.75.18-1.87.51-2.85.81s-1.55.46-1.89.53a5.66,5.66,0,0,1-1.17.15m20-5.94h-.71c-2.24.14-3.26,1-3.72,1.69s-1.46.71-2.49.82l-.67.08c-.21,0-5.05.71-6.64.85-.77.06-1.94.09-3,.12C4,13,3.27,13,2.93,13a2.69,2.69,0,0,0-1.82.64.65.65,0,0,0-.12.51l0,.27a.6.6,0,0,0,.27.44,2.63,2.63,0,0,0,1.93,0c.33-.07,1.05-.28,1.88-.53,1-.3,2.11-.63,2.86-.81,1.55-.36,6.37-1.21,6.57-1.26l.67-.12c1-.21,2.07-.43,2.62,0s1.88,1,4.06.46a7,7,0,0,0,3.45-1.79c.24-.23.22-.41.21-.46a.52.52,0,0,0-.33-.39,6.51,6.51,0,0,0-3.14-.65" transform="translate(-0.73 -0.37)"/></g><g class="cls-14"><g class="cls-15"><g class="cls-14"><path class="cls-16" d="M50.55,2.84h.17a5.28,5.28,0,0,1-.59,0H50A5.43,5.43,0,0,0,50.55,2.84Z" transform="translate(-0.73 -0.37)"/><path class="cls-16" d="M50,2.82h.17a2.18,2.18,0,0,1-.48-.08h-.18Z" transform="translate(-0.73 -0.37)"/><path class="cls-16" d="M50.72,2.84h.16a5.22,5.22,0,0,1-.58,0h-.17A5.28,5.28,0,0,0,50.72,2.84Z" transform="translate(-0.73 -0.37)"/><path class="cls-17" d="M50.13,2.81h.17a4.79,4.79,0,0,1-.48-.08h-.17A2.18,2.18,0,0,0,50.13,2.81Z" transform="translate(-0.73 -0.37)"/><path class="cls-16" d="M49.47,2.74h.18a2.09,2.09,0,0,1-.4-.12h-.17A2,2,0,0,0,49.47,2.74Z" transform="translate(-0.73 -0.37)"/><path class="cls-16" d="M49.08,2.62h.17a2.25,2.25,0,0,1-.31-.16l-.17,0Z" transform="translate(-0.73 -0.37)"/><path class="cls-18" d="M49.65,2.73h.17a2.54,2.54,0,0,1-.39-.13h-.18A2.09,2.09,0,0,0,49.65,2.73Z" transform="translate(-0.73 -0.37)"/><path class="cls-19" d="M49.25,2.61h.18a1.79,1.79,0,0,1-.31-.16h-.18A2.25,2.25,0,0,0,49.25,2.61Z" transform="translate(-0.73 -0.37)"/><path class="cls-16" d="M50.88,2.84H51a5.17,5.17,0,0,1-.57,0H50.3A5.22,5.22,0,0,0,50.88,2.84Z" transform="translate(-0.73 -0.37)"/><path class="cls-18" d="M50.3,2.81h.15A3,3,0,0,1,50,2.72h-.16A3,3,0,0,0,50.3,2.81Z" transform="translate(-0.73 -0.37)"/><path class="cls-16" d="M51,2.84h.14a5,5,0,0,1-.57,0h-.14A5.17,5.17,0,0,0,51,2.84Z" transform="translate(-0.73 -0.37)"/><path class="cls-19" d="M50.45,2.81h.14l-.47-.09H50A3,3,0,0,0,50.45,2.81Z" transform="translate(-0.73 -0.37)"/><path class="cls-20" d="M49.82,2.73H50a3.56,3.56,0,0,1-.39-.13h-.16A2.54,2.54,0,0,0,49.82,2.73Z" transform="translate(-0.73 -0.37)"/><path class="cls-21" d="M49.43,2.6h.16a1.8,1.8,0,0,1-.31-.17l-.16,0A1.79,1.79,0,0,0,49.43,2.6Z" transform="translate(-0.73 -0.37)"/><path class="cls-21" d="M50,2.72h.14a2.77,2.77,0,0,1-.38-.14h-.15A3.56,3.56,0,0,0,50,2.72Z" transform="translate(-0.73 -0.37)"/><path class="cls-22" d="M49.59,2.59h.15a2.27,2.27,0,0,1-.31-.17h-.15A1.8,1.8,0,0,0,49.59,2.59Z" transform="translate(-0.73 -0.37)"/><path class="cls-16" d="M51.16,2.84h2.7a1.21,1.21,0,0,1,0-.18c-1.69,0-2,.13-3.28.15A5,5,0,0,0,51.16,2.84Z" transform="translate(-0.73 -0.37)"/><path class="cls-23" d="M50.59,2.81c1.24,0,1.59-.15,3.28-.15v-.2c-1.69,0-2.47.21-3.75.26Z" transform="translate(-0.73 -0.37)"/><path class="cls-24" d="M50.12,2.72c1.28-.05,2.06-.26,3.75-.26V2.23c-1.69,0-2.83.27-4.13.35A2.77,2.77,0,0,0,50.12,2.72Z" transform="translate(-0.73 -0.37)"/><path class="cls-25" d="M49.74,2.58c1.3-.08,2.44-.35,4.13-.35V2c-1.69,0-3.12.32-4.44.41A2.27,2.27,0,0,0,49.74,2.58Z" transform="translate(-0.73 -0.37)"/><path class="cls-16" d="M53.86,2.84h2.87a3.68,3.68,0,0,0,.49,0c-1.19,0-1.75-.15-3.35-.15A1.21,1.21,0,0,0,53.86,2.84Z" transform="translate(-0.73 -0.37)"/><path class="cls-23" d="M53.87,2.66c1.6,0,2.16.13,3.35.15a3.15,3.15,0,0,0,.39-.1c-1.25,0-2.21-.25-3.74-.25Z" transform="translate(-0.73 -0.37)"/><path class="cls-24" d="M53.87,2.46c1.53,0,2.49.21,3.74.25a1.34,1.34,0,0,0,.32-.14c-1.31-.07-2.6-.34-4.06-.34Z" transform="translate(-0.73 -0.37)"/><path class="cls-25" d="M53.87,2.23c1.46,0,2.75.27,4.06.34a1.67,1.67,0,0,0,.26-.17C56.84,2.31,55.3,2,53.87,2Z" transform="translate(-0.73 -0.37)"/><path class="cls-16" d="M56.73,2.84h.17a3.79,3.79,0,0,0,.49,0h-.17A3.68,3.68,0,0,1,56.73,2.84Z" transform="translate(-0.73 -0.37)"/><path class="cls-23" d="M57.22,2.81h.17l.4-.09h-.18A3.15,3.15,0,0,1,57.22,2.81Z" transform="translate(-0.73 -0.37)"/><path class="cls-16" d="M56.9,2.84h.17a3.89,3.89,0,0,0,.51,0h-.19A3.79,3.79,0,0,1,56.9,2.84Z" transform="translate(-0.73 -0.37)"/><path class="cls-19" d="M57.39,2.81h.19A2.26,2.26,0,0,0,58,2.72h-.2Z" transform="translate(-0.73 -0.37)"/><path class="cls-24" d="M57.61,2.71h.18a2.18,2.18,0,0,0,.34-.14h-.2A1.34,1.34,0,0,1,57.61,2.71Z" transform="translate(-0.73 -0.37)"/><path class="cls-25" d="M57.93,2.57h.2a1.56,1.56,0,0,0,.25-.17h-.19A1.67,1.67,0,0,1,57.93,2.57Z" transform="translate(-0.73 -0.37)"/><path class="cls-21" d="M57.79,2.72H58a1.15,1.15,0,0,0,.34-.13h-.2A2.18,2.18,0,0,1,57.79,2.72Z" transform="translate(-0.73 -0.37)"/><path class="cls-22" d="M58.13,2.58h.2a1.28,1.28,0,0,0,.26-.16l-.21,0A1.56,1.56,0,0,1,58.13,2.58Z" transform="translate(-0.73 -0.37)"/><path class="cls-16" d="M57.07,2.84h.2a3.89,3.89,0,0,0,.51,0h-.2A3.89,3.89,0,0,1,57.07,2.84Z" transform="translate(-0.73 -0.37)"/><path class="cls-18" d="M57.58,2.81h.2a2.24,2.24,0,0,0,.42-.08H58A2.26,2.26,0,0,1,57.58,2.81Z" transform="translate(-0.73 -0.37)"/><path class="cls-16" d="M57.27,2.84h.21a4.27,4.27,0,0,0,.52,0h-.22A3.89,3.89,0,0,1,57.27,2.84Z" transform="translate(-0.73 -0.37)"/><path class="cls-17" d="M57.78,2.81H58l.42-.08H58.2A2.24,2.24,0,0,1,57.78,2.81Z" transform="translate(-0.73 -0.37)"/><path class="cls-20" d="M58,2.72h.21a2.86,2.86,0,0,0,.35-.12l-.22,0A1.15,1.15,0,0,1,58,2.72Z" transform="translate(-0.73 -0.37)"/><path class="cls-21" d="M58.33,2.59l.22,0a1.75,1.75,0,0,0,.27-.16l-.23,0A1.28,1.28,0,0,1,58.33,2.59Z" transform="translate(-0.73 -0.37)"/><path class="cls-18" d="M58.2,2.73h.22a1.8,1.8,0,0,0,.35-.12h-.22A2.86,2.86,0,0,1,58.2,2.73Z" transform="translate(-0.73 -0.37)"/><path class="cls-19" d="M58.55,2.61h.22L59,2.47l-.22,0A1.75,1.75,0,0,1,58.55,2.61Z" transform="translate(-0.73 -0.37)"/><path class="cls-16" d="M48.77,2.47l.17,0a1.34,1.34,0,0,1-.37-.33l-.17,0A1.34,1.34,0,0,0,48.77,2.47Z" transform="translate(-0.73 -0.37)"/><path class="cls-16" d="M48.4,2.14l.17,0a1.69,1.69,0,0,1-.22-.39l-.16,0A1.3,1.3,0,0,0,48.4,2.14Z" transform="translate(-0.73 -0.37)"/><path class="cls-23" d="M48.94,2.45h.18a1.28,1.28,0,0,1-.22-.17l-.17,0A1.16,1.16,0,0,0,48.94,2.45Z" transform="translate(-0.73 -0.37)"/><path class="cls-26" d="M48.73,2.29l.17,0a.9.9,0,0,1-.16-.18l-.17,0A.85.85,0,0,0,48.73,2.29Z" transform="translate(-0.73 -0.37)"/><path class="cls-27" d="M48.57,2.12l.17,0a1.39,1.39,0,0,1-.22-.39l-.17,0A1.69,1.69,0,0,0,48.57,2.12Z" transform="translate(-0.73 -0.37)"/><path class="cls-16" d="M48.19,1.76l.16,0a1.8,1.8,0,0,1-.08-.39l-.17,0A3,3,0,0,0,48.19,1.76Z" transform="translate(-0.73 -0.37)"/><path class="cls-16" d="M48.1,1.38l.17,0a2.28,2.28,0,0,1,0-.36l-.15,0C48.09,1.13,48.09,1.25,48.1,1.38Z" transform="translate(-0.73 -0.37)"/><path class="cls-28" d="M48.35,1.73l.17,0a1.46,1.46,0,0,1-.09-.39l-.16,0A1.8,1.8,0,0,0,48.35,1.73Z" transform="translate(-0.73 -0.37)"/><path class="cls-29" d="M48.27,1.34l.16,0a1.37,1.37,0,0,1,0-.19l-.16,0A1.1,1.1,0,0,0,48.27,1.34Z" transform="translate(-0.73 -0.37)"/><path class="cls-30" d="M48.25,1.16l.16,0a1.09,1.09,0,0,1,0-.18l-.16,0C48.24,1,48.25,1.09,48.25,1.16Z" transform="translate(-0.73 -0.37)"/><path class="cls-24" d="M49.12,2.44l.16,0a1.2,1.2,0,0,1-.21-.17l-.17,0A1.28,1.28,0,0,0,49.12,2.44Z" transform="translate(-0.73 -0.37)"/><path class="cls-31" d="M48.9,2.27l.17,0-.17-.18-.16,0A.9.9,0,0,0,48.9,2.27Z" transform="translate(-0.73 -0.37)"/><path class="cls-32" d="M48.74,2.09l.16,0a1.93,1.93,0,0,1-.21-.4l-.17,0A1.39,1.39,0,0,0,48.74,2.09Z" transform="translate(-0.73 -0.37)"/><path class="cls-25" d="M49.28,2.42h.15a1.24,1.24,0,0,1-.21-.18l-.15,0A1.2,1.2,0,0,0,49.28,2.42Z" transform="translate(-0.73 -0.37)"/><path class="cls-33" d="M49.07,2.25l.15,0a.9.9,0,0,1-.16-.18l-.16,0Z" transform="translate(-0.73 -0.37)"/><path class="cls-34" d="M48.9,2.07l.16,0a1.81,1.81,0,0,1-.22-.41l-.15,0A1.93,1.93,0,0,0,48.9,2.07Z" transform="translate(-0.73 -0.37)"/><path class="cls-35" d="M48.52,1.7l.17,0a1.56,1.56,0,0,1-.1-.4l-.16,0A1.46,1.46,0,0,0,48.52,1.7Z" transform="translate(-0.73 -0.37)"/><path class="cls-36" d="M48.43,1.31l.16,0a1.37,1.37,0,0,1,0-.19l-.16,0A1.37,1.37,0,0,0,48.43,1.31Z" transform="translate(-0.73 -0.37)"/><path class="cls-37" d="M48.41,1.12l.16,0a1,1,0,0,1,0-.17l-.16,0A1.09,1.09,0,0,0,48.41,1.12Z" transform="translate(-0.73 -0.37)"/><path class="cls-38" d="M48.69,1.67l.15,0a3.24,3.24,0,0,1-.09-.4l-.16,0A1.56,1.56,0,0,0,48.69,1.67Z" transform="translate(-0.73 -0.37)"/><path class="cls-39" d="M48.59,1.27l.16,0a1.37,1.37,0,0,1,0-.19l-.16,0A1.37,1.37,0,0,0,48.59,1.27Z" transform="translate(-0.73 -0.37)"/><path class="cls-40" d="M48.57,1.08l.16,0V.88l-.17,0A1,1,0,0,0,48.57,1.08Z" transform="translate(-0.73 -0.37)"/><path class="cls-41" d="M49.43,2.41C50.75,2.32,52.18,2,53.87,2V1.79c-1.69,0-3.31.35-4.65.44A1.24,1.24,0,0,0,49.43,2.41Z" transform="translate(-0.73 -0.37)"/><path class="cls-42" d="M49.22,2.23c1.34-.09,3-.44,4.65-.44V1.58a47.84,47.84,0,0,0-4.81.47A.9.9,0,0,0,49.22,2.23Z" transform="translate(-0.73 -0.37)"/><path class="cls-43" d="M49.06,2.05a47.84,47.84,0,0,1,4.81-.47c0-.14,0-.27,0-.4a40.28,40.28,0,0,0-5,.46A1.81,1.81,0,0,0,49.06,2.05Z" transform="translate(-0.73 -0.37)"/><path class="cls-44" d="M48.84,1.64a40.28,40.28,0,0,1,5-.46c0-.12,0-.24,0-.34a31.17,31.17,0,0,0-5.12.4A3.24,3.24,0,0,0,48.84,1.64Z" transform="translate(-0.73 -0.37)"/><path class="cls-45" d="M48.75,1.24a31.17,31.17,0,0,1,5.12-.4V.7a29.65,29.65,0,0,0-5.14.35A1.37,1.37,0,0,0,48.75,1.24Z" transform="translate(-0.73 -0.37)"/><path class="cls-17" d="M48.73,1.05A29.65,29.65,0,0,1,53.87.7V.59a28.79,28.79,0,0,0-5.14.29Z" transform="translate(-0.73 -0.37)"/><path class="cls-41" d="M53.87,2c1.43,0,3,.31,4.32.4a1.29,1.29,0,0,0,.16-.18c-1.36-.09-3.07-.43-4.48-.43Z" transform="translate(-0.73 -0.37)"/><path class="cls-42" d="M53.87,1.79c1.41,0,3.12.34,4.48.43A1.07,1.07,0,0,0,58.48,2c-1.41-.11-3.25-.45-4.61-.45Z" transform="translate(-0.73 -0.37)"/><path class="cls-22" d="M53.87,1.58c1.36,0,3.2.34,4.61.45a1.78,1.78,0,0,0,.17-.41c-1.57-.18-3.58-.44-4.77-.44C53.88,1.31,53.87,1.44,53.87,1.58Z" transform="translate(-0.73 -0.37)"/><path class="cls-46" d="M53.88,1.18c1.19,0,3.2.26,4.77.44a3.12,3.12,0,0,0,.06-.41A41.29,41.29,0,0,0,53.87.84C53.88.94,53.88,1.06,53.88,1.18Z" transform="translate(-0.73 -0.37)"/><path class="cls-47" d="M53.87.84a41.29,41.29,0,0,1,4.84.37,1.21,1.21,0,0,0,0-.19A39.08,39.08,0,0,0,53.87.7Z" transform="translate(-0.73 -0.37)"/><path class="cls-48" d="M53.87.7A39.08,39.08,0,0,1,58.72,1V.85A35.81,35.81,0,0,0,53.87.59Z" transform="translate(-0.73 -0.37)"/><path class="cls-41" d="M58.19,2.4h.19l.18-.18h-.21A1.29,1.29,0,0,1,58.19,2.4Z" transform="translate(-0.73 -0.37)"/><path class="cls-42" d="M58.35,2.22h.21l.13-.18-.21,0A1.07,1.07,0,0,1,58.35,2.22Z" transform="translate(-0.73 -0.37)"/><path class="cls-43" d="M58.48,2l.21,0a1.72,1.72,0,0,0,.17-.4l-.21,0A1.78,1.78,0,0,1,58.48,2Z" transform="translate(-0.73 -0.37)"/><path class="cls-25" d="M58.38,2.41l.21,0a1,1,0,0,0,.18-.17l-.21,0Z" transform="translate(-0.73 -0.37)"/><path class="cls-33" d="M58.56,2.23l.21,0,.14-.18-.22,0Z" transform="translate(-0.73 -0.37)"/><path class="cls-34" d="M58.69,2.05l.22,0a1.59,1.59,0,0,0,.18-.4l-.23,0A1.72,1.72,0,0,1,58.69,2.05Z" transform="translate(-0.73 -0.37)"/><path class="cls-44" d="M58.65,1.62l.21,0a2,2,0,0,0,.08-.4l-.23,0A3.12,3.12,0,0,1,58.65,1.62Z" transform="translate(-0.73 -0.37)"/><path class="cls-49" d="M58.71,1.21l.23,0c0-.07,0-.13,0-.19l-.24,0A1.21,1.21,0,0,1,58.71,1.21Z" transform="translate(-0.73 -0.37)"/><path class="cls-17" d="M58.72,1l.24,0V.89l-.24,0Z" transform="translate(-0.73 -0.37)"/><path class="cls-38" d="M58.86,1.65l.23,0a1.8,1.8,0,0,0,.08-.39l-.23,0A2,2,0,0,1,58.86,1.65Z" transform="translate(-0.73 -0.37)"/><path class="cls-39" d="M58.94,1.25l.23,0c0-.07,0-.13,0-.19l-.23,0C59,1.12,59,1.18,58.94,1.25Z" transform="translate(-0.73 -0.37)"/><path class="cls-40" d="M59,1.06l.23,0V.93L59,.89Z" transform="translate(-0.73 -0.37)"/><path class="cls-24" d="M58.59,2.43l.23,0A1.45,1.45,0,0,0,59,2.29l-.23,0A1,1,0,0,1,58.59,2.43Z" transform="translate(-0.73 -0.37)"/><path class="cls-31" d="M58.77,2.26l.23,0c.06-.06.1-.12.15-.18l-.24,0Z" transform="translate(-0.73 -0.37)"/><path class="cls-32" d="M58.91,2.08l.24,0a1.43,1.43,0,0,0,.17-.38l-.23-.05A1.59,1.59,0,0,1,58.91,2.08Z" transform="translate(-0.73 -0.37)"/><path class="cls-23" d="M58.82,2.45l.22,0a1.47,1.47,0,0,0,.33-.33l-.22,0A1.51,1.51,0,0,1,58.82,2.45Z" transform="translate(-0.73 -0.37)"/><path class="cls-27" d="M59.15,2.11l.22,0a1.46,1.46,0,0,0,.18-.38l-.23,0A1.43,1.43,0,0,1,59.15,2.11Z" transform="translate(-0.73 -0.37)"/><path class="cls-35" d="M59.09,1.68l.23.05a2,2,0,0,0,.08-.4l-.23,0A1.8,1.8,0,0,1,59.09,1.68Z" transform="translate(-0.73 -0.37)"/><path class="cls-36" d="M59.17,1.29l.23,0c0-.06,0-.12,0-.18l-.23,0C59.18,1.16,59.18,1.22,59.17,1.29Z" transform="translate(-0.73 -0.37)"/><path class="cls-37" d="M59.19,1.1l.23,0V1l-.23,0Z" transform="translate(-0.73 -0.37)"/><path class="cls-50" d="M59.32,1.73l.23,0a2.87,2.87,0,0,0,.08-.38l-.23,0A2,2,0,0,1,59.32,1.73Z" transform="translate(-0.73 -0.37)"/><path class="cls-29" d="M59.4,1.33l.23,0c0-.13,0-.25,0-.36l-.22,0A2.11,2.11,0,0,1,59.4,1.33Z" transform="translate(-0.73 -0.37)"/><path class="cls-16" d="M48.09,1c.2-.05.41-.1.64-.14,0-.06,0-.11,0-.16a5.81,5.81,0,0,0-.63.15Z" transform="translate(-0.73 -0.37)"/><path class="cls-16" d="M48.73.88A28.79,28.79,0,0,1,53.87.59a.22.22,0,0,0,0-.09,30,30,0,0,0-5.14.22C48.72.77,48.73.82,48.73.88Z" transform="translate(-0.73 -0.37)"/><path class="cls-16" d="M53.87.59a35.81,35.81,0,0,1,4.85.26V.7A34.36,34.36,0,0,0,53.86.5.22.22,0,0,1,53.87.59Z" transform="translate(-0.73 -0.37)"/><path class="cls-16" d="M58.72.85l.92.17V.87A8.35,8.35,0,0,0,58.72.7Z" transform="translate(-0.73 -0.37)"/><path class="cls-16" d="M48.09.87a5.81,5.81,0,0,1,.63-.15c0-.16.13-.35,4.5-.35h-.06C48.6.37,48.09.7,48.09.87Z" transform="translate(-0.73 -0.37)"/><path class="cls-8" d="M48.72.72A30,30,0,0,1,53.86.5a.56.56,0,0,0,0-.13h-.64C48.85.37,48.72.56,48.72.72Z" transform="translate(-0.73 -0.37)"/><path class="cls-8" d="M53.86.5a34.36,34.36,0,0,1,4.86.2c0-.16-.22-.33-4.22-.33h-.64A.56.56,0,0,1,53.86.5Z" transform="translate(-0.73 -0.37)"/><path class="cls-8" d="M58.72.7a8.35,8.35,0,0,1,.92.17c0-.17-.81-.5-5.07-.5H54.5C58.5.37,58.72.54,58.72.7Z" transform="translate(-0.73 -0.37)"/></g></g></g><g class="cls-51"><g class="cls-52"><g class="cls-51"><path class="cls-16" d="M52.9,21.1H53c-1.27,0-1.82-.26-2.06-.57h-.41A3.71,3.71,0,0,0,52.9,21.1Z" transform="translate(-0.73 -0.37)"/><path class="cls-53" d="M50.49,20.53h.41a.9.9,0,0,1-.18-.5h-.59A1.13,1.13,0,0,0,50.49,20.53Z" transform="translate(-0.73 -0.37)"/><path class="cls-54" d="M50.13,20h.59c0-.16,0-.31,0-.44H50A1.46,1.46,0,0,0,50.13,20Z" transform="translate(-0.73 -0.37)"/><path class="cls-16" d="M53,21.1h-.07a3,3,0,0,1-1.13-.21l-.22,0A4.91,4.91,0,0,0,53,21.1Z" transform="translate(-0.73 -0.37)"/><path class="cls-55" d="M51.54,20.93l.22,0a.74.74,0,0,1-.42-.39l-.44,0A1.35,1.35,0,0,0,51.54,20.93Z" transform="translate(-0.73 -0.37)"/><path class="cls-56" d="M50.9,20.53a1.74,1.74,0,0,1-.21-.94H51c0,.25-.09.62.08.93Z" transform="translate(-0.73 -0.37)"/><path class="cls-57" d="M51.11,20.52c-.17-.31,0-.68-.08-.93h.3c0,.25-.11.6,0,.91Z" transform="translate(-0.73 -0.37)"/><path class="cls-16" d="M52.89,21.1c-1.06-.05-1.43-.3-1.55-.6l.21,0c.08.29.37.54,1.29.62Z" transform="translate(-0.73 -0.37)"/><path class="cls-16" d="M52.84,21.1c-.92-.08-1.21-.33-1.29-.62h.15c0,.29.24.54,1.1.63Z" transform="translate(-0.73 -0.37)"/><path class="cls-58" d="M51.34,20.5c-.12-.31,0-.66,0-.91h.27c0,.25-.12.59-.05.89Z" transform="translate(-0.73 -0.37)"/><path class="cls-59" d="M51.55,20.48c-.07-.3.08-.64.05-.89h.24c0,.25-.16.59-.14.88Z" transform="translate(-0.73 -0.37)"/><path class="cls-16" d="M52.8,21.1h1.07V19.59h-2C51.9,20.09,51.1,20.92,52.8,21.1Z" transform="translate(-0.73 -0.37)"/><path class="cls-16" d="M53.87,21.1h.68c1.37-.27,1.05-1,1.08-1.51H53.87Z" transform="translate(-0.73 -0.37)"/><path class="cls-16" d="M54.55,21.1c.68-.14,1-.39,1-.67h.26c-.13.29-.46.54-1.24.66Z" transform="translate(-0.73 -0.37)"/><path class="cls-16" d="M54.61,21.1c.78-.12,1.11-.37,1.24-.66l.34,0c-.15.3-.54.55-1.54.63Z" transform="translate(-0.73 -0.37)"/><path class="cls-16" d="M55.59,20.43a3.45,3.45,0,0,0,0-.84H56a2.13,2.13,0,0,1-.1.85Z" transform="translate(-0.73 -0.37)"/><path class="cls-60" d="M55.85,20.44a2.13,2.13,0,0,0,.1-.85h.33a2.28,2.28,0,0,1-.09.88Z" transform="translate(-0.73 -0.37)"/><path class="cls-16" d="M54.65,21.1c1-.08,1.39-.33,1.54-.63l.35,0c-.17.3-.64.55-1.85.6Z" transform="translate(-0.73 -0.37)"/><path class="cls-16" d="M54.69,21.1c1.21-.05,1.68-.3,1.85-.6h.27c-.23.31-.78.56-2.08.59Z" transform="translate(-0.73 -0.37)"/><path class="cls-61" d="M56.19,20.47a2.28,2.28,0,0,0,.09-.88h.33c0,.25.1.61-.07.91Z" transform="translate(-0.73 -0.37)"/><path class="cls-62" d="M56.54,20.5c.17-.3.05-.66.07-.91H57c0,.25,0,.62-.18.92Z" transform="translate(-0.73 -0.37)"/><path class="cls-16" d="M54.73,21.1h.14a4.43,4.43,0,0,0,2.68-.57l-.74,0C56.58,20.82,56,21.07,54.73,21.1Z" transform="translate(-0.73 -0.37)"/><path class="cls-53" d="M56.81,20.51l.74,0a1.22,1.22,0,0,0,.5-.94H57C57,19.84,57,20.21,56.81,20.51Z" transform="translate(-0.73 -0.37)"/><path class="cls-63" d="M50,19.59h.67c-.44-2.84-1-6.62-1.44-10.5l-.69,0C49,13,49.56,16.78,50,19.59Z" transform="translate(-0.73 -0.37)"/><path class="cls-64" d="M50.69,19.59c-.44-2.84-1-6.62-1.44-10.5l.43,0c.38,3.85.94,7.59,1.35,10.47Z" transform="translate(-0.73 -0.37)"/><path class="cls-65" d="M51,19.59c-.41-2.88-1-6.62-1.35-10.47h.43c.33,3.81.86,7.49,1.22,10.46Z" transform="translate(-0.73 -0.37)"/><path class="cls-55" d="M51.33,19.59c-.36-3-.89-6.65-1.22-10.46h.43c.27,3.77.74,7.4,1.06,10.46Z" transform="translate(-0.73 -0.37)"/><path class="cls-60" d="M51.6,19.59c-.32-3.06-.79-6.69-1.06-10.46H51c.24,3.74.6,7.35.88,10.45Z" transform="translate(-0.73 -0.37)"/><path class="cls-16" d="M51.84,19.59h2c0-3.63,0-7,0-10.5-1,0-2.06.08-2.92.05C51.2,12.88,51.56,16.49,51.84,19.59Z" transform="translate(-0.73 -0.37)"/><path class="cls-16" d="M53.87,19.59h1.76c.22-3.44.44-6.93.57-10.55-.7,0-1.55.05-2.32.05C53.87,12.62,53.87,16,53.87,19.59Z" transform="translate(-0.73 -0.37)"/><path class="cls-16" d="M55.63,19.59c.22-3.44.44-6.93.57-10.55l.52,0c-.18,3.64-.52,7.16-.77,10.57Z" transform="translate(-0.73 -0.37)"/><path class="cls-66" d="M56,19.59c.25-3.41.59-6.93.77-10.57l.51,0c-.23,3.68-.64,7.24-.95,10.6Z" transform="translate(-0.73 -0.37)"/><path class="cls-67" d="M56.28,19.59c.31-3.36.72-6.92.95-10.6l.51,0c-.3,3.71-.74,7.33-1.13,10.63Z" transform="translate(-0.73 -0.37)"/><path class="cls-18" d="M56.61,19.59c.39-3.3.83-6.92,1.13-10.63l.49,0c-.33,3.73-.82,7.39-1.24,10.66Z" transform="translate(-0.73 -0.37)"/><path class="cls-63" d="M57,19.59h1.06c.48-3.23,1-7,1.26-10.76-.34,0-.72.08-1.08.1C57.9,12.66,57.41,16.32,57,19.59Z" transform="translate(-0.73 -0.37)"/><path class="cls-63" d="M48.56,9.05l.69,0a73,73,0,0,1-.47-7.68l-.69-.09A74.46,74.46,0,0,0,48.56,9.05Z" transform="translate(-0.73 -0.37)"/><path class="cls-64" d="M49.25,9.09a73,73,0,0,1-.47-7.68l.45,0c0,2.46.19,5.08.45,7.67Z" transform="translate(-0.73 -0.37)"/><path class="cls-65" d="M49.68,9.12c-.26-2.59-.44-5.21-.45-7.67l.48,0c0,2.48.19,5.08.4,7.64Z" transform="translate(-0.73 -0.37)"/><path class="cls-55" d="M50.11,9.13c-.21-2.56-.39-5.16-.4-7.64l.48,0c0,2.51.18,5.09.35,7.61Z" transform="translate(-0.73 -0.37)"/><path class="cls-60" d="M50.54,9.13c-.17-2.52-.34-5.1-.35-7.61l.5,0c0,2.52.11,5.09.27,7.6Z" transform="translate(-0.73 -0.37)"/><path class="cls-16" d="M51,9.14c-.08-1.26-.15-2.52-.19-3.8l.74,0c0,1.27.06,2.52.13,3.76Z" transform="translate(-0.73 -0.37)"/><path class="cls-68" d="M51.64,9.14c-.07-1.24-.11-2.49-.13-3.76l.79,0c0,1.26,0,2.5.05,3.72Z" transform="translate(-0.73 -0.37)"/><path class="cls-16" d="M50.77,5.34c-.05-1.27-.08-2.54-.08-3.8l.8,0c0,1.27,0,2.54,0,3.81Z" transform="translate(-0.73 -0.37)"/><path class="cls-59" d="M51.51,5.38c0-1.27,0-2.54,0-3.81l.81,0c0,1.3,0,2.57,0,3.82Z" transform="translate(-0.73 -0.37)"/><path class="cls-69" d="M52.35,9.13c.25,0,.5,0,.76,0,0-.6,0-1.2,0-1.81h-.79C52.32,7.9,52.34,8.52,52.35,9.13Z" transform="translate(-0.73 -0.37)"/><path class="cls-70" d="M52.31,7.28h.79c0-.61,0-1.22,0-1.85-.26,0-.53,0-.79,0C52.3,6,52.31,6.66,52.31,7.28Z" transform="translate(-0.73 -0.37)"/><path class="cls-59" d="M53.11,9.1h.77V7.3H53.1C53.1,7.9,53.1,8.5,53.11,9.1Z" transform="translate(-0.73 -0.37)"/><path class="cls-37" d="M53.1,7.29h.78V5.46l-.79,0C53.09,6.07,53.09,6.68,53.1,7.29Z" transform="translate(-0.73 -0.37)"/><path class="cls-71" d="M52.3,5.41c.26,0,.53,0,.79,0V3.55l-.8,0C52.29,4.16,52.29,4.79,52.3,5.41Z" transform="translate(-0.73 -0.37)"/><path class="cls-61" d="M52.29,3.52l.8,0c0-.64,0-1.29,0-1.95H52.3C52.3,2.24,52.3,2.88,52.29,3.52Z" transform="translate(-0.73 -0.37)"/><path class="cls-72" d="M53.09,5.44l.79,0V3.57l-.79,0Z" transform="translate(-0.73 -0.37)"/><path class="cls-73" d="M53.09,3.55l.79,0v-2h-.79C53.1,2.26,53.09,2.91,53.09,3.55Z" transform="translate(-0.73 -0.37)"/><path class="cls-60" d="M53.88,9.09h.59c0-.59,0-1.19,0-1.8l-.6,0Z" transform="translate(-0.73 -0.37)"/><path class="cls-74" d="M53.88,7.3l.6,0V5.44l-.6,0Z" transform="translate(-0.73 -0.37)"/><path class="cls-59" d="M54.47,9.08h.6c0-.6,0-1.2,0-1.81l-.61,0C54.47,7.89,54.47,8.49,54.47,9.08Z" transform="translate(-0.73 -0.37)"/><path class="cls-37" d="M54.48,7.28l.61,0c0-.61,0-1.23,0-1.85l-.62,0Z" transform="translate(-0.73 -0.37)"/><path class="cls-75" d="M53.88,5.46l.6,0V3.56h-.6Z" transform="translate(-0.73 -0.37)"/><path class="cls-76" d="M53.88,3.57h.6v-2h-.6Z" transform="translate(-0.73 -0.37)"/><path class="cls-72" d="M54.48,5.44l.62,0V3.53l-.62,0Z" transform="translate(-0.73 -0.37)"/><path class="cls-73" d="M54.48,3.56l.62,0c0-.63,0-1.28,0-1.94h-.61Z" transform="translate(-0.73 -0.37)"/><path class="cls-69" d="M55.07,9.07c0-1.2,0-2.41,0-3.66l.62,0c0,1.24,0,2.46-.07,3.67Z" transform="translate(-0.73 -0.37)"/><path class="cls-68" d="M55.65,9.05c0-1.21.06-2.43.07-3.67l.6,0c0,1.25-.07,2.47-.12,3.69Z" transform="translate(-0.73 -0.37)"/><path class="cls-71" d="M55.1,5.41c0-1.24,0-2.51,0-3.82h.63c0,1.29,0,2.55,0,3.79Z" transform="translate(-0.73 -0.37)"/><path class="cls-59" d="M55.72,5.38c0-1.24,0-2.5,0-3.79l.64,0c0,1.28,0,2.54,0,3.78Z" transform="translate(-0.73 -0.37)"/><path class="cls-16" d="M56.2,9c.1-2.43.15-4.91.16-7.47l.58,0c0,2.55-.11,5-.22,7.47Z" transform="translate(-0.73 -0.37)"/><path class="cls-66" d="M56.72,9c.11-2.43.22-4.92.22-7.47l.58,0c0,2.52-.13,5-.29,7.47Z" transform="translate(-0.73 -0.37)"/><path class="cls-67" d="M57.23,9c.16-2.46.29-4.95.29-7.47.19,0,.38,0,.55,0,0,2.48-.13,5-.33,7.47Z" transform="translate(-0.73 -0.37)"/><path class="cls-18" d="M57.74,9c.2-2.48.33-5,.33-7.47l.53-.05c0,2.47-.15,5-.37,7.49Z" transform="translate(-0.73 -0.37)"/><path class="cls-63" d="M58.23,8.93c.36,0,.74-.06,1.08-.1.21-2.54.34-5.1.34-7.53a9.26,9.26,0,0,1-1,.14C58.59,3.91,58.45,6.43,58.23,8.93Z" transform="translate(-0.73 -0.37)"/><path class="cls-63" d="M48.09,1.32l.69.09V1.3l-.69-.08Z" transform="translate(-0.73 -0.37)"/><path class="cls-64" d="M48.78,1.41V1.3l.45.05v.1Z" transform="translate(-0.73 -0.37)"/><path class="cls-65" d="M49.23,1.45v-.1l.48,0v.11Z" transform="translate(-0.73 -0.37)"/><path class="cls-55" d="M49.71,1.49V1.38c.16,0,.32,0,.48,0v.11Z" transform="translate(-0.73 -0.37)"/><path class="cls-60" d="M50.19,1.52V1.41l.5,0v.11Z" transform="translate(-0.73 -0.37)"/><path class="cls-16" d="M50.69,1.54V1.49l.8,0v.05Z" transform="translate(-0.73 -0.37)"/><path class="cls-70" d="M51.49,1.57l.81,0v0l-.81,0Z" transform="translate(-0.73 -0.37)"/><path class="cls-77" d="M51.49,1.54l.81,0v0h-.81Z" transform="translate(-0.73 -0.37)"/><path class="cls-16" d="M50.69,1.49V1.43l.8,0v.06Z" transform="translate(-0.73 -0.37)"/><path class="cls-16" d="M51.49,1.52h.81v0h-.81Z" transform="translate(-0.73 -0.37)"/><path class="cls-78" d="M51.49,1.49h.81v0l-.81,0Z" transform="translate(-0.73 -0.37)"/><path class="cls-72" d="M52.3,1.59h.79v0H52.3Z" transform="translate(-0.73 -0.37)"/><path class="cls-79" d="M52.3,1.56h.79v0H52.3Z" transform="translate(-0.73 -0.37)"/><path class="cls-80" d="M53.09,1.6h.79v0h-.79Z" transform="translate(-0.73 -0.37)"/><path class="cls-81" d="M53.09,1.57h.79v0h-.79Z" transform="translate(-0.73 -0.37)"/><path class="cls-82" d="M52.3,1.53h1.58v0l-1.58,0Z" transform="translate(-0.73 -0.37)"/><path class="cls-83" d="M52.3,1.5l1.58,0v0H52.3Z" transform="translate(-0.73 -0.37)"/><path class="cls-84" d="M53.88,1.6h.6v0h-.6Z" transform="translate(-0.73 -0.37)"/><path class="cls-85" d="M53.88,1.57h.6v0h-.6Z" transform="translate(-0.73 -0.37)"/><path class="cls-80" d="M54.48,1.6h.61v0h-.61Z" transform="translate(-0.73 -0.37)"/><path class="cls-81" d="M54.48,1.57h.61v0h-.61Z" transform="translate(-0.73 -0.37)"/><path class="cls-86" d="M53.88,1.54h1.21v0H53.88Z" transform="translate(-0.73 -0.37)"/><path class="cls-87" d="M53.88,1.52h1.21v0H53.88Z" transform="translate(-0.73 -0.37)"/><path class="cls-72" d="M55.09,1.59h.63v0h-.63Z" transform="translate(-0.73 -0.37)"/><path class="cls-79" d="M55.09,1.57h.63v0h-.63Z" transform="translate(-0.73 -0.37)"/><path class="cls-70" d="M55.72,1.59V1.53h.64v.05Z" transform="translate(-0.73 -0.37)"/><path class="cls-82" d="M55.09,1.54h.63v0h-.63Z" transform="translate(-0.73 -0.37)"/><path class="cls-78" d="M55.09,1.51h.63v0h-.63Z" transform="translate(-0.73 -0.37)"/><path class="cls-16" d="M55.72,1.53V1.48l.64,0v.06Z" transform="translate(-0.73 -0.37)"/><path class="cls-16" d="M56.36,1.57V1.46l.58,0v.11Z" transform="translate(-0.73 -0.37)"/><path class="cls-66" d="M56.94,1.55V1.44l.58,0v.1Z" transform="translate(-0.73 -0.37)"/><path class="cls-67" d="M57.52,1.52v-.1l.55,0v.1C57.9,1.5,57.71,1.52,57.52,1.52Z" transform="translate(-0.73 -0.37)"/><path class="cls-18" d="M58.07,1.49v-.1l.53,0v.1Z" transform="translate(-0.73 -0.37)"/><path class="cls-63" d="M58.6,1.44a9.26,9.26,0,0,0,1-.14V1.2a9.26,9.26,0,0,1-1,.14Z" transform="translate(-0.73 -0.37)"/><path class="cls-63" d="M48.09,1.22l.69.08v0l-.69-.09Z" transform="translate(-0.73 -0.37)"/><path class="cls-18" d="M48.09,1.19l.69.09v0l-.69-.08Z" transform="translate(-0.73 -0.37)"/><path class="cls-67" d="M48.09,1.17l.69.08v0l-.69-.09Z" transform="translate(-0.73 -0.37)"/><path class="cls-66" d="M48.09,1.14l.69.09v0l-.69-.08Z" transform="translate(-0.73 -0.37)"/><path class="cls-64" d="M48.78,1.3c.3,0,.61.06.93.08v0c-.32,0-.63,0-.93-.07Z" transform="translate(-0.73 -0.37)"/><path class="cls-88" d="M48.78,1.28c.3,0,.61.06.93.07v0l-.93-.08Z" transform="translate(-0.73 -0.37)"/><path class="cls-89" d="M48.78,1.25l.93.08v0l-.93-.08Z" transform="translate(-0.73 -0.37)"/><path class="cls-70" d="M48.78,1.23l.93.08v0l-.93-.08Z" transform="translate(-0.73 -0.37)"/><path class="cls-90" d="M49.71,1.38l1,.05V1.38l-1,0Z" transform="translate(-0.73 -0.37)"/><path class="cls-37" d="M49.71,1.33l1,0v0l-1-.05Z" transform="translate(-0.73 -0.37)"/><path class="cls-16" d="M50.69,1.43v-.1l1.61,0v.11C51.76,1.47,51.22,1.46,50.69,1.43Z" transform="translate(-0.73 -0.37)"/><path class="cls-91" d="M52.3,1.48V1.37h1.58v.11Z" transform="translate(-0.73 -0.37)"/><path class="cls-8" d="M53.88,1.49V1.38h1.21v.11Z" transform="translate(-0.73 -0.37)"/><path class="cls-91" d="M55.09,1.48V1.37l1.27,0v.11Z" transform="translate(-0.73 -0.37)"/><path class="cls-16" d="M56.36,1.46V1.41l.58,0v.05Z" transform="translate(-0.73 -0.37)"/><path class="cls-92" d="M56.94,1.44l.58,0v0l-.58,0Z" transform="translate(-0.73 -0.37)"/><path class="cls-93" d="M56.94,1.42l.58,0v0l-.58,0Z" transform="translate(-0.73 -0.37)"/><path class="cls-16" d="M56.36,1.41l1.16,0v0l-1.16,0Z" transform="translate(-0.73 -0.37)"/><path class="cls-16" d="M56.36,1.38l1.16,0v0l-1.16,0Z" transform="translate(-0.73 -0.37)"/><path class="cls-94" d="M57.52,1.42l.55,0v0l-.55,0Z" transform="translate(-0.73 -0.37)"/><path class="cls-95" d="M57.52,1.39l.55,0v0l-.55,0Z" transform="translate(-0.73 -0.37)"/><path class="cls-96" d="M58.07,1.39l.53,0v0l-.53,0Z" transform="translate(-0.73 -0.37)"/><path class="cls-97" d="M58.07,1.36l.53,0v0l-.53,0Z" transform="translate(-0.73 -0.37)"/><path class="cls-29" d="M57.52,1.37l1.08-.08v0l-1.08.07Z" transform="translate(-0.73 -0.37)"/><path class="cls-59" d="M57.52,1.34l1.08-.07v0l-1.08.07Z" transform="translate(-0.73 -0.37)"/><path class="cls-63" d="M58.6,1.34a9.26,9.26,0,0,0,1-.14v0q-.46.09-1,.15Z" transform="translate(-0.73 -0.37)"/><path class="cls-18" d="M58.6,1.32q.59-.06,1-.15v0c-.31.06-.66.1-1,.14Z" transform="translate(-0.73 -0.37)"/><path class="cls-67" d="M58.6,1.29c.39,0,.74-.08,1-.14v0q-.46.09-1,.15Z" transform="translate(-0.73 -0.37)"/><path class="cls-66" d="M58.6,1.27q.59-.06,1-.15v0c-.31.06-.66.1-1,.14Z" transform="translate(-0.73 -0.37)"/><path class="cls-16" d="M48.09,1.12l.69.08c0-.45-.42,0,3.16,0h-.26C47.91,1.21,48.09.64,48.09,1.12Z" transform="translate(-0.73 -0.37)"/><path class="cls-16" d="M48.78,1.2c.6.06,1.24.1,1.91.13,0-.31-.31-.08,2.09-.11-.29,0-.59,0-.84,0C48.36,1.22,48.78.75,48.78,1.2Z" transform="translate(-0.73 -0.37)"/><path class="cls-16" d="M50.69,1.33c1.06,0,2.16,0,3.19,0,0,0,0-.1,0-.15H52.78C50.38,1.25,50.69,1,50.69,1.33Z" transform="translate(-0.73 -0.37)"/><path class="cls-8" d="M53.88,1.38c.78,0,1.64,0,2.48,0,0-.24.17-.17-1.64-.13h-.85C53.87,1.28,53.88,1.35,53.88,1.38Z" transform="translate(-0.73 -0.37)"/><path class="cls-16" d="M56.36,1.35c.79,0,1.56-.05,2.24-.11,0-.44.2-.16-3.25,0h-.63C56.53,1.18,56.36,1.11,56.36,1.35Z" transform="translate(-0.73 -0.37)"/><path class="cls-16" d="M58.6,1.24c.39,0,.74-.08,1-.14,0-.5,0-.05-3.92.11h-.38C58.8,1.08,58.6.8,58.6,1.24Z" transform="translate(-0.73 -0.37)"/></g></g></g><g class="cls-98"><path class="cls-11" d="M48.1,2.4c0,.65,0,1.31.08,2a50.39,50.39,0,0,0,5.68.3,51,51,0,0,0,5.72-.3q0-1,.06-2a51.87,51.87,0,0,1-5.78.3,51.76,51.76,0,0,1-5.76-.3" transform="translate(-0.73 -0.37)"/></g><g class="cls-99"><g class="cls-100"><g class="cls-99"><path class="cls-16" d="M58.89,14.29c.36-.42,1.26-1.34,1.56-1.6a.16.16,0,0,1,.1.05,15.68,15.68,0,0,0-1.87,1.81A1.71,1.71,0,0,1,58.89,14.29Z" transform="translate(-0.73 -0.37)"/><path class="cls-53" d="M58.68,14.55a15.68,15.68,0,0,1,1.87-1.81l.1.1a15,15,0,0,0-2.09,2A1.34,1.34,0,0,1,58.68,14.55Z" transform="translate(-0.73 -0.37)"/><path class="cls-63" d="M58.56,14.85a15,15,0,0,1,2.09-2l.05,0A16.14,16.14,0,0,0,58.53,15,.26.26,0,0,1,58.56,14.85Z" transform="translate(-0.73 -0.37)"/><path class="cls-18" d="M58.53,15a16.14,16.14,0,0,1,2.17-2.08l.07,0a17.07,17.07,0,0,0-2.27,2.18Z" transform="translate(-0.73 -0.37)"/><path class="cls-67" d="M58.5,15.09a17.07,17.07,0,0,1,2.27-2.18s0,0,.06,0c-.16.18-2.23,1.85-2.34,2.28C58.49,15.18,58.5,15.14,58.5,15.09Z" transform="translate(-0.73 -0.37)"/><path class="cls-66" d="M58.49,15.23c.11-.43,2.18-2.1,2.34-2.28l.06,0a18.13,18.13,0,0,0-2.42,2.39S58.48,15.28,58.49,15.23Z" transform="translate(-0.73 -0.37)"/><path class="cls-16" d="M58.47,15.37A18.13,18.13,0,0,1,60.89,13,.37.37,0,0,0,61,13c-.27.28-2.36,2.21-2.54,2.55A1.27,1.27,0,0,0,58.47,15.37Z" transform="translate(-0.73 -0.37)"/><path class="cls-16" d="M58.46,15.57c.18-.34,2.27-2.27,2.54-2.55l.08,0c-.39.39-2.36,2.43-2.62,2.7Z" transform="translate(-0.73 -0.37)"/><path class="cls-16" d="M58.46,15.75c.26-.27,2.23-2.31,2.62-2.7l.06,0c-.43.42-2.39,2.52-2.67,2.76A.25.25,0,0,0,58.46,15.75Z" transform="translate(-0.73 -0.37)"/><path class="cls-101" d="M58.47,15.83c.28-.24,2.24-2.34,2.67-2.76l.06,0c-.51.5-2.37,2.62-2.7,2.82A.26.26,0,0,1,58.47,15.83Z" transform="translate(-0.73 -0.37)"/><path class="cls-102" d="M58.5,15.91c.33-.2,2.19-2.32,2.7-2.82l.07,0A35.62,35.62,0,0,1,58.53,16S58.5,15.93,58.5,15.91Z" transform="translate(-0.73 -0.37)"/><path class="cls-103" d="M58.53,16a35.62,35.62,0,0,0,2.74-2.86l.08,0c-.64.61-2.36,2.77-2.77,2.88C58.56,16,58.54,16,58.53,16Z" transform="translate(-0.73 -0.37)"/><path class="cls-16" d="M60.45,12.69C63.79,9.93,64,7.61,64.13,6.54h.16c0,2-1.47,4.28-3.74,6.21A.16.16,0,0,0,60.45,12.69Z" transform="translate(-0.73 -0.37)"/><path class="cls-53" d="M60.55,12.74c2.27-1.93,3.77-4.2,3.74-6.21h.1c.17,2.94-2.54,5.23-3.74,6.31Z" transform="translate(-0.73 -0.37)"/><path class="cls-63" d="M60.65,12.84c1.2-1.08,3.91-3.37,3.74-6.31h0c.18,3.1-2.71,5.42-3.73,6.35Z" transform="translate(-0.73 -0.37)"/><path class="cls-104" d="M60.7,12.88c1-.93,3.91-3.25,3.73-6.35h0c.24,3.46-3.07,5.81-3.7,6.38Z" transform="translate(-0.73 -0.37)"/><path class="cls-61" d="M60.77,12.91c.63-.57,3.94-2.92,3.7-6.38h.06c.29,3.81-3.45,6.19-3.7,6.42C60.81,12.94,60.78,12.93,60.77,12.91Z" transform="translate(-0.73 -0.37)"/><path class="cls-105" d="M60.83,13c.25-.23,4-2.61,3.7-6.42h.08c.31,4-3.66,6.37-3.72,6.45Z" transform="translate(-0.73 -0.37)"/><path class="cls-8" d="M60.89,13c.06-.08,4-2.47,3.72-6.45h0c.21,3.93-3.43,6.25-3.66,6.48A.37.37,0,0,1,60.89,13Z" transform="translate(-0.73 -0.37)"/><path class="cls-91" d="M61,13c.23-.23,3.87-2.55,3.66-6.48h.08c.11,3.88-3.26,6.11-3.66,6.5Z" transform="translate(-0.73 -0.37)"/><path class="cls-16" d="M61.08,13.05l.12,0c.15-.14.45-.38.82-.71a.54.54,0,0,1-.18,0C61.47,12.74,61.18,13,61.08,13.05Z" transform="translate(-0.73 -0.37)"/><path class="cls-16" d="M61.84,12.42a.54.54,0,0,0,.18,0,11.46,11.46,0,0,0,1.23-1.31c-.06,0-.11,0-.15,0A10.73,10.73,0,0,1,61.84,12.42Z" transform="translate(-0.73 -0.37)"/><path class="cls-16" d="M63.1,11.11s.09,0,.15,0a7.85,7.85,0,0,0,1.13-1.93.21.21,0,0,1-.11,0A7.49,7.49,0,0,1,63.1,11.11Z" transform="translate(-0.73 -0.37)"/><path class="cls-16" d="M64.27,9.15a.21.21,0,0,0,.11,0,6.83,6.83,0,0,0,.49-2.56l-.13,0A6.32,6.32,0,0,1,64.27,9.15Z" transform="translate(-0.73 -0.37)"/><path class="cls-94" d="M61.2,13.09l.15.05c.18-.18.5-.44.88-.79a.32.32,0,0,0-.21,0C61.65,12.71,61.35,13,61.2,13.09Z" transform="translate(-0.73 -0.37)"/><path class="cls-95" d="M62,12.38a.32.32,0,0,1,.21,0A11.4,11.4,0,0,0,63.44,11a.26.26,0,0,0-.19,0A11.46,11.46,0,0,1,62,12.38Z" transform="translate(-0.73 -0.37)"/><path class="cls-106" d="M63.25,11.07a.26.26,0,0,1,.19,0,8.53,8.53,0,0,0,1.09-1.89.27.27,0,0,0-.15,0A7.85,7.85,0,0,1,63.25,11.07Z" transform="translate(-0.73 -0.37)"/><path class="cls-59" d="M64.38,9.14a.27.27,0,0,1,.15,0,7.36,7.36,0,0,0,.52-2.51l-.18-.06A6.83,6.83,0,0,1,64.38,9.14Z" transform="translate(-0.73 -0.37)"/><path class="cls-16" d="M64.13,6.54h.16A4.33,4.33,0,0,0,64,4.72c0,.13,0,.27,0,.29A3.42,3.42,0,0,1,64.13,6.54Z" transform="translate(-0.73 -0.37)"/><path class="cls-107" d="M63.91,5c.08,0,.07-.16,0-.29a3.13,3.13,0,0,0-.89-1.19c.08.11.13.22.07.3A3,3,0,0,1,63.91,5Z" transform="translate(-0.73 -0.37)"/><path class="cls-108" d="M63.13,3.83a.16.16,0,0,0,0-.14A2.11,2.11,0,0,0,62,3.13a.16.16,0,0,1,0,.14A2.13,2.13,0,0,1,63.13,3.83Z" transform="translate(-0.73 -0.37)"/><path class="cls-109" d="M62,3.27a.16.16,0,0,0,0-.14,1.75,1.75,0,0,0-1.26.31l-.09.19A2,2,0,0,1,62,3.27Z" transform="translate(-0.73 -0.37)"/><path class="cls-110" d="M63.15,3.69a1.9,1.9,0,0,0-2.42-.25,1.14,1.14,0,0,1,.09-.16,1.92,1.92,0,0,1,2.24.25A.89.89,0,0,1,63.15,3.69Z" transform="translate(-0.73 -0.37)"/><path class="cls-53" d="M64.29,6.53h.1a5.07,5.07,0,0,0-.48-2.09s0,.14,0,.28A4.33,4.33,0,0,1,64.29,6.53Z" transform="translate(-0.73 -0.37)"/><path class="cls-56" d="M64,4.72c0-.14-.07-.27,0-.28a2.73,2.73,0,0,0-1-1.13s0,.12.11.22A3.13,3.13,0,0,1,64,4.72Z" transform="translate(-0.73 -0.37)"/><path class="cls-111" d="M63.06,3.53,63,3.4A2.25,2.25,0,0,0,61.85,3l.08.06A2.27,2.27,0,0,1,63.06,3.53Z" transform="translate(-0.73 -0.37)"/><path class="cls-90" d="M61.93,3,61.85,3a1.64,1.64,0,0,0-1,.17.54.54,0,0,0-.07.13A1.71,1.71,0,0,1,61.93,3Z" transform="translate(-0.73 -0.37)"/><path class="cls-75" d="M63,3.4s0-.08,0-.09a2.31,2.31,0,0,0-1.11-.4,0,0,0,0,0,0,.07A2.25,2.25,0,0,1,63,3.4Z" transform="translate(-0.73 -0.37)"/><path class="cls-37" d="M61.85,3a0,0,0,0,1,0-.07,1.78,1.78,0,0,0-.9.14.93.93,0,0,1,0,.1A1.64,1.64,0,0,1,61.85,3Z" transform="translate(-0.73 -0.37)"/><path class="cls-63" d="M64.39,6.53h0a5.52,5.52,0,0,0-.5-2.14s0,.05,0,.05A5.07,5.07,0,0,1,64.39,6.53Z" transform="translate(-0.73 -0.37)"/><path class="cls-18" d="M63.91,4.44s0,0,0-.05a3,3,0,0,0-1-1.14s0,0,0,.06A2.73,2.73,0,0,1,63.91,4.44Z" transform="translate(-0.73 -0.37)"/><path class="cls-18" d="M64.43,6.53h0a5.59,5.59,0,0,0-.55-2.24s0,.07,0,.1A5.52,5.52,0,0,1,64.43,6.53Z" transform="translate(-0.73 -0.37)"/><path class="cls-85" d="M63.93,4.39s0-.06,0-.1a2.71,2.71,0,0,0-1-1.11.43.43,0,0,0,0,.07A3,3,0,0,1,63.93,4.39Z" transform="translate(-0.73 -0.37)"/><path class="cls-67" d="M63,3.31s0-.08-.05-.13a2.67,2.67,0,0,0-1.1-.34s.07,0,0,.07A2.31,2.31,0,0,1,63,3.31Z" transform="translate(-0.73 -0.37)"/><path class="cls-66" d="M61.84,2.91s0-.05,0-.07a2,2,0,0,0-.78.09l-.08.12A1.78,1.78,0,0,1,61.84,2.91Z" transform="translate(-0.73 -0.37)"/><path class="cls-67" d="M64.47,6.53c-.12-1.94-.82-2.9-1.57-3.35l0-.07c.78.41,1.53,1.35,1.68,3.42Z" transform="translate(-0.73 -0.37)"/><path class="cls-66" d="M64.53,6.53c-.15-2.07-.9-3-1.68-3.42,0,0,0,0,0,0,.79.4,1.57,1.33,1.75,3.46Z" transform="translate(-0.73 -0.37)"/><path class="cls-107" d="M62.9,3.18c0-.05-.08-.1,0-.11a2.92,2.92,0,0,0-1.78-.23L61,2.93A2.41,2.41,0,0,1,62.9,3.18Z" transform="translate(-0.73 -0.37)"/><path class="cls-16" d="M64.61,6.53c-.18-2.13-1-3.06-1.75-3.46l.07,0c.78.42,1.54,1.37,1.7,3.48Z" transform="translate(-0.73 -0.37)"/><path class="cls-16" d="M64.63,6.53h0a5.65,5.65,0,0,0-.57-2.36l-.08,0A5.7,5.7,0,0,1,64.63,6.53Z" transform="translate(-0.73 -0.37)"/><path class="cls-68" d="M64,4.16l.08,0A2.75,2.75,0,0,0,63,3h-.1A2.69,2.69,0,0,1,64,4.16Z" transform="translate(-0.73 -0.37)"/><path class="cls-16" d="M62.86,3.07a2.92,2.92,0,0,0-1.78-.23.33.33,0,0,0,0-.06,3.07,3.07,0,0,1,1.82.27Z" transform="translate(-0.73 -0.37)"/><path class="cls-112" d="M62.93,3.05H63a2.73,2.73,0,0,0-1.12-.35l-.1.06A2.72,2.72,0,0,1,62.93,3.05Z" transform="translate(-0.73 -0.37)"/><path class="cls-113" d="M61.81,2.75l.1-.06a3.43,3.43,0,0,0-.75,0,.56.56,0,0,1,0,.08A4,4,0,0,1,61.81,2.75Z" transform="translate(-0.73 -0.37)"/><path class="cls-16" d="M64.66,6.54h0a5.61,5.61,0,0,0-.51-2.34l-.09,0A5.65,5.65,0,0,1,64.66,6.54Z" transform="translate(-0.73 -0.37)"/><path class="cls-112" d="M64.09,4.18l.09,0a2.86,2.86,0,0,0-1-1.17H63A2.75,2.75,0,0,1,64.09,4.18Z" transform="translate(-0.73 -0.37)"/><path class="cls-16" d="M64.69,6.54h0a5.75,5.75,0,0,0-.49-2.33l-.07,0A5.61,5.61,0,0,1,64.69,6.54Z" transform="translate(-0.73 -0.37)"/><path class="cls-113" d="M64.18,4.2l.07,0a2.93,2.93,0,0,0-1-1.21l-.07,0A2.86,2.86,0,0,1,64.18,4.2Z" transform="translate(-0.73 -0.37)"/><path class="cls-102" d="M63,3h.12A2.57,2.57,0,0,0,62,2.63l-.11.06A2.73,2.73,0,0,1,63,3Z" transform="translate(-0.73 -0.37)"/><path class="cls-110" d="M61.91,2.69,62,2.63a3.23,3.23,0,0,0-.82,0l0,.08A3.43,3.43,0,0,1,61.91,2.69Z" transform="translate(-0.73 -0.37)"/><path class="cls-110" d="M63.15,3l.07,0a2.83,2.83,0,0,0-1.14-.43l-.06,0A2.57,2.57,0,0,1,63.15,3Z" transform="translate(-0.73 -0.37)"/><path class="cls-114" d="M62,2.63l.06,0a2.75,2.75,0,0,0-.85,0l0,.06A3.23,3.23,0,0,1,62,2.63Z" transform="translate(-0.73 -0.37)"/><path class="cls-16" d="M64.74,6.55l.13,0a5.51,5.51,0,0,0-.43-2.3l-.19-.06A5.75,5.75,0,0,1,64.74,6.55Z" transform="translate(-0.73 -0.37)"/><path class="cls-107" d="M64.25,4.22l.19.06a3,3,0,0,0-1-1.23.42.42,0,0,0-.19,0A2.93,2.93,0,0,1,64.25,4.22Z" transform="translate(-0.73 -0.37)"/><path class="cls-108" d="M63.22,3s0,0,.08,0a2.83,2.83,0,0,0-1.17-.46.06.06,0,0,0-.05,0A2.83,2.83,0,0,1,63.22,3Z" transform="translate(-0.73 -0.37)"/><path class="cls-109" d="M62.08,2.58a.06.06,0,0,1,.05,0,3,3,0,0,0-.88,0s0,0,0,0A2.75,2.75,0,0,1,62.08,2.58Z" transform="translate(-0.73 -0.37)"/><path class="cls-53" d="M63.3,3l.11,0a3.11,3.11,0,0,0-1.2-.49h-.08A2.83,2.83,0,0,1,63.3,3Z" transform="translate(-0.73 -0.37)"/><path class="cls-115" d="M62.13,2.56h.08a3.65,3.65,0,0,0-1,0h0A3,3,0,0,1,62.13,2.56Z" transform="translate(-0.73 -0.37)"/><path class="cls-16" d="M64.87,6.58l.18.06a5.15,5.15,0,0,0-.39-2.26l-.22-.1A5.51,5.51,0,0,1,64.87,6.58Z" transform="translate(-0.73 -0.37)"/><path class="cls-116" d="M64.44,4.28l.22.1a3.11,3.11,0,0,0-1-1.29.68.68,0,0,1-.21,0A3,3,0,0,1,64.44,4.28Z" transform="translate(-0.73 -0.37)"/><path class="cls-117" d="M63.41,3.05l.12,0a3.47,3.47,0,0,0-1.24-.52h-.08A3.11,3.11,0,0,1,63.41,3.05Z" transform="translate(-0.73 -0.37)"/><path class="cls-118" d="M62.21,2.56h.08a3.9,3.9,0,0,0-1-.06v0A3.65,3.65,0,0,1,62.21,2.56Z" transform="translate(-0.73 -0.37)"/><path class="cls-119" d="M63.53,3.08h.09a3.37,3.37,0,0,0-1.27-.56.07.07,0,0,1-.06,0A3.47,3.47,0,0,1,63.53,3.08Z" transform="translate(-0.73 -0.37)"/><path class="cls-111" d="M62.29,2.56a.07.07,0,0,0,.06,0,3.51,3.51,0,0,0-1.08-.07s0,0,0,0A3.9,3.9,0,0,1,62.29,2.56Z" transform="translate(-0.73 -0.37)"/><path class="cls-120" d="M60.64,3.63c-.89.61-.73,2-1.14,1.9,0,0,0,0,0,0,.43,0,.43-1.49,1.26-2Z" transform="translate(-0.73 -0.37)"/><path class="cls-103" d="M60.73,3.44c-.83.55-.83,2-1.26,2a1.05,1.05,0,0,0,0-.13c.45-.2.66-1.64,1.37-2.07A1.14,1.14,0,0,0,60.73,3.44Z" transform="translate(-0.73 -0.37)"/><path class="cls-102" d="M60.82,3.28c-.71.43-.92,1.87-1.37,2.07,0-.06,0-.13,0-.2.47-.41.87-1.69,1.45-2A.54.54,0,0,0,60.82,3.28Z" transform="translate(-0.73 -0.37)"/><path class="cls-101" d="M60.89,3.15c-.58.31-1,1.59-1.45,2V4.88c.48-.49,1-1.57,1.5-1.83A.93.93,0,0,1,60.89,3.15Z" transform="translate(-0.73 -0.37)"/><path class="cls-16" d="M60.94,3.05l.14-.21a2.62,2.62,0,0,0-1.59,1.22,8,8,0,0,0-.05.82C59.92,4.39,60.42,3.31,60.94,3.05Z" transform="translate(-0.73 -0.37)"/><path class="cls-16" d="M61.08,2.84a2.62,2.62,0,0,0-1.59,1.22,1.8,1.8,0,0,0,0-.22,2.33,2.33,0,0,1,1.6-1.06A.33.33,0,0,1,61.08,2.84Z" transform="translate(-0.73 -0.37)"/><path class="cls-107" d="M61.11,2.78a2.33,2.33,0,0,0-1.6,1.06,1.41,1.41,0,0,0,0-.2,2.41,2.41,0,0,1,1.64-.94A.56.56,0,0,1,61.11,2.78Z" transform="translate(-0.73 -0.37)"/><path class="cls-108" d="M61.16,2.7a2.41,2.41,0,0,0-1.64.94V3.47a2.64,2.64,0,0,1,1.68-.85Z" transform="translate(-0.73 -0.37)"/><path class="cls-109" d="M61.2,2.62a2.64,2.64,0,0,0-1.68.85c0-.06,0-.1,0-.15a2.69,2.69,0,0,1,1.7-.76Z" transform="translate(-0.73 -0.37)"/><path class="cls-120" d="M61.23,2.56a2.69,2.69,0,0,0-1.7.76s0-.09,0-.13a2.62,2.62,0,0,1,1.68-.66S61.24,2.54,61.23,2.56Z" transform="translate(-0.73 -0.37)"/><path class="cls-121" d="M61.25,2.53a2.62,2.62,0,0,0-1.68.66.21.21,0,0,1,.06-.1,2.86,2.86,0,0,1,1.62-.57Z" transform="translate(-0.73 -0.37)"/><path class="cls-122" d="M61.25,2.52a2.86,2.86,0,0,0-1.62.57l.1-.09a3.33,3.33,0,0,1,1.52-.5Z" transform="translate(-0.73 -0.37)"/><path class="cls-56" d="M61.25,2.5a3.33,3.33,0,0,0-1.52.5l.16-.06a3.12,3.12,0,0,1,1.38-.48S61.26,2.5,61.25,2.5Z" transform="translate(-0.73 -0.37)"/></g></g></g></g></g></g></svg>