<svg xmlns="http://www.w3.org/2000/svg" xmlns:xlink="http://www.w3.org/1999/xlink" viewBox="0 0 91.08 75.42"><defs><style>.cls-1,.cls-208,.cls-213,.cls-216,.cls-218,.cls-219{fill:none;}.cls-2{isolation:isolate;}.cls-3{mix-blend-mode:multiply;}.cls-206,.cls-209,.cls-215,.cls-4{fill:#fff;}.cls-4{opacity:0.04;}.cls-5{fill:#fefefe;opacity:0.04;}.cls-6{fill:#fdfdfd;opacity:0.05;}.cls-7{fill:#fcfcfc;opacity:0.05;}.cls-8{fill:#fbfbfb;opacity:0.06;}.cls-9{fill:#fafafa;opacity:0.06;}.cls-10{fill:#f9f9f9;opacity:0.07;}.cls-11{fill:#f8f8f8;opacity:0.07;}.cls-12{fill:#f7f7f7;opacity:0.08;}.cls-13{fill:#f6f6f6;opacity:0.08;}.cls-14,.cls-15{fill:#f5f5f5;}.cls-14{opacity:0.09;}.cls-15{opacity:0.09;}.cls-16{fill:#f4f4f4;opacity:0.1;}.cls-17{fill:#f3f3f3;opacity:0.1;}.cls-18{fill:#f2f2f2;opacity:0.11;}.cls-19{fill:#f1f1f1;opacity:0.11;}.cls-20{fill:#f0f0f0;opacity:0.12;}.cls-21{fill:#efefef;opacity:0.12;}.cls-22{fill:#eee;opacity:0.13;}.cls-23{fill:#ededed;opacity:0.13;}.cls-24{fill:#ececec;opacity:0.14;}.cls-25{fill:#ebebeb;opacity:0.14;}.cls-26{fill:#eaeaea;opacity:0.15;}.cls-27{fill:#e9e9e9;opacity:0.15;}.cls-28{fill:#e8e8e8;opacity:0.15;}.cls-29{fill:#e7e7e7;opacity:0.16;}.cls-30{fill:#e6e6e6;opacity:0.16;}.cls-31{fill:#e5e5e5;opacity:0.17;}.cls-32{fill:#e4e4e4;opacity:0.17;}.cls-33{fill:#e3e3e3;opacity:0.18;}.cls-34,.cls-35{fill:#e2e2e2;}.cls-34{opacity:0.18;}.cls-35{opacity:0.19;}.cls-36{fill:#e1e1e1;opacity:0.19;}.cls-37{fill:#e0e0e0;opacity:0.2;}.cls-38{fill:#dfdfdf;opacity:0.2;}.cls-39{fill:#dedede;opacity:0.21;}.cls-40{fill:#ddd;opacity:0.21;}.cls-41{fill:#dcdcdc;opacity:0.22;}.cls-42{fill:#dbdbdb;opacity:0.22;}.cls-43{fill:#dadada;opacity:0.23;}.cls-44{fill:#d9d9d9;opacity:0.23;}.cls-45{fill:#d8d8d8;opacity:0.24;}.cls-46{fill:#d7d7d7;opacity:0.24;}.cls-47{fill:#d6d6d6;opacity:0.25;}.cls-48{fill:#d5d5d5;opacity:0.25;}.cls-49{fill:#d4d4d4;opacity:0.25;}.cls-50{fill:#d3d3d3;opacity:0.26;}.cls-51{fill:#d2d2d2;opacity:0.26;}.cls-223,.cls-52{fill:#d1d1d1;}.cls-52{opacity:0.27;}.cls-53{fill:#d0d0d0;opacity:0.27;}.cls-54,.cls-55{fill:#cfcfcf;}.cls-54{opacity:0.28;}.cls-55{opacity:0.28;}.cls-56{fill:#cecece;opacity:0.29;}.cls-57{fill:#cdcdcd;opacity:0.29;}.cls-58{fill:#ccc;opacity:0.3;}.cls-59{fill:#cbcbcb;opacity:0.3;}.cls-60{fill:#cacaca;opacity:0.31;}.cls-61{fill:#c9c9c9;opacity:0.31;}.cls-62{fill:#c8c8c8;opacity:0.32;}.cls-63{fill:#c7c7c7;opacity:0.32;}.cls-64{fill:#c6c6c6;opacity:0.33;}.cls-65{fill:#c5c5c5;opacity:0.33;}.cls-66{fill:#c4c4c4;opacity:0.34;}.cls-67{fill:#c3c3c3;opacity:0.34;}.cls-68{fill:#c2c2c2;opacity:0.35;}.cls-69{fill:#c1c1c1;opacity:0.35;}.cls-70{fill:silver;opacity:0.36;}.cls-71{fill:#bfbfbf;opacity:0.36;}.cls-72{fill:#bebebe;opacity:0.36;}.cls-73{fill:#bdbdbd;opacity:0.37;}.cls-74,.cls-75{fill:#bcbcbc;}.cls-74{opacity:0.37;}.cls-75{opacity:0.38;}.cls-76{fill:#bbb;opacity:0.38;}.cls-77{fill:#bababa;opacity:0.39;}.cls-78{fill:#b9b9b9;opacity:0.39;}.cls-79{fill:#b8b8b8;opacity:0.4;}.cls-80{fill:#b7b7b7;opacity:0.4;}.cls-81{fill:#b6b6b6;opacity:0.41;}.cls-82{fill:#b5b5b5;opacity:0.41;}.cls-83{fill:#b4b4b4;opacity:0.42;}.cls-84{fill:#b3b3b3;opacity:0.42;}.cls-85{fill:#b2b2b2;opacity:0.43;}.cls-86{fill:#b1b1b1;opacity:0.43;}.cls-87{fill:#b0b0b0;opacity:0.44;}.cls-88{fill:#afafaf;opacity:0.44;}.cls-89{fill:#aeaeae;opacity:0.45;}.cls-90{fill:#adadad;opacity:0.45;}.cls-91{fill:#acacac;opacity:0.46;}.cls-92{fill:#ababab;opacity:0.46;}.cls-93{fill:#aaa;opacity:0.47;}.cls-94,.cls-95{fill:#a9a9a9;}.cls-94{opacity:0.47;}.cls-95{opacity:0.47;}.cls-96{fill:#a8a8a8;opacity:0.48;}.cls-97{fill:#a7a7a7;opacity:0.48;}.cls-98{fill:#a6a6a6;opacity:0.49;}.cls-99{fill:#a5a5a5;opacity:0.49;}.cls-100{fill:#a4a4a4;opacity:0.5;}.cls-101{fill:#a3a3a3;opacity:0.5;}.cls-102{fill:#a2a2a2;opacity:0.51;}.cls-103{fill:#a1a1a1;opacity:0.51;}.cls-104{fill:#a0a0a0;opacity:0.52;}.cls-105{fill:#9f9f9f;opacity:0.52;}.cls-106{fill:#9e9e9e;opacity:0.53;}.cls-107{fill:#9d9d9d;opacity:0.53;}.cls-108{fill:#9c9c9c;opacity:0.54;}.cls-109{fill:#9b9b9b;opacity:0.54;}.cls-110{fill:#9a9a9a;opacity:0.55;}.cls-111{fill:#999;opacity:0.55;}.cls-112{fill:#989898;opacity:0.56;}.cls-113{fill:#979797;opacity:0.56;}.cls-114,.cls-115{fill:#969696;}.cls-114{opacity:0.57;}.cls-115{opacity:0.57;}.cls-116{fill:#959595;opacity:0.57;}.cls-117{fill:#949494;opacity:0.58;}.cls-118{fill:#939393;opacity:0.58;}.cls-119{fill:#929292;opacity:0.59;}.cls-120{fill:#919191;opacity:0.59;}.cls-121{fill:#909090;opacity:0.6;}.cls-122{fill:#8f8f8f;opacity:0.6;}.cls-123{fill:#8e8e8e;opacity:0.61;}.cls-124{fill:#8d8d8d;opacity:0.61;}.cls-125{fill:#8c8c8c;opacity:0.62;}.cls-126{fill:#8b8b8b;opacity:0.62;}.cls-127{fill:#8a8a8a;opacity:0.63;}.cls-128{fill:#898989;opacity:0.63;}.cls-129{fill:#888;opacity:0.64;}.cls-130{fill:#878787;opacity:0.64;}.cls-131{fill:#868686;opacity:0.65;}.cls-132{fill:#858585;opacity:0.65;}.cls-133{fill:#848484;opacity:0.66;}.cls-134,.cls-135{fill:#838383;}.cls-134{opacity:0.66;}.cls-135{opacity:0.67;}.cls-136{fill:#828282;opacity:0.67;}.cls-137{fill:#818181;opacity:0.68;}.cls-138{fill:gray;opacity:0.68;}.cls-139{fill:#7f7f7f;opacity:0.68;}.cls-140{fill:#7e7e7e;opacity:0.69;}.cls-141{fill:#7d7d7d;opacity:0.69;}.cls-142{fill:#7c7c7c;opacity:0.7;}.cls-143{fill:#7b7b7b;opacity:0.7;}.cls-144{fill:#7a7a7a;opacity:0.71;}.cls-145{fill:#797979;opacity:0.71;}.cls-146{fill:#787878;opacity:0.72;}.cls-147{fill:#777;opacity:0.72;}.cls-148{fill:#767676;opacity:0.73;}.cls-149{fill:#757575;opacity:0.73;}.cls-150{fill:#747474;opacity:0.74;}.cls-151{fill:#737373;opacity:0.74;}.cls-152{fill:#727272;opacity:0.75;}.cls-153{fill:#717171;opacity:0.75;}.cls-154,.cls-155{fill:#707070;}.cls-154{opacity:0.76;}.cls-155{opacity:0.76;}.cls-156{fill:#6f6f6f;opacity:0.77;}.cls-157{fill:#6e6e6e;opacity:0.77;}.cls-158{fill:#6d6d6d;opacity:0.78;}.cls-159{fill:#6c6c6c;opacity:0.78;}.cls-160{fill:#6b6b6b;opacity:0.79;}.cls-161{fill:#6a6a6a;opacity:0.79;}.cls-162{fill:#696969;opacity:0.79;}.cls-163{fill:#686868;opacity:0.8;}.cls-164{fill:#676767;opacity:0.8;}.cls-165{fill:#666;opacity:0.81;}.cls-166{fill:#656565;opacity:0.81;}.cls-167{fill:#646464;opacity:0.82;}.cls-168{fill:#636363;opacity:0.82;}.cls-169{fill:#626262;opacity:0.83;}.cls-170{fill:#616161;opacity:0.83;}.cls-171{fill:#606060;opacity:0.84;}.cls-172{fill:#5f5f5f;opacity:0.84;}.cls-173{fill:#5e5e5e;opacity:0.85;}.cls-174,.cls-175{fill:#5d5d5d;}.cls-174{opacity:0.85;}.cls-175{opacity:0.86;}.cls-176{fill:#5c5c5c;opacity:0.86;}.cls-177{fill:#5b5b5b;opacity:0.87;}.cls-178{fill:#5a5a5a;opacity:0.87;}.cls-179{fill:#595959;opacity:0.88;}.cls-180{fill:#585858;opacity:0.88;}.cls-181{fill:#575757;opacity:0.89;}.cls-182{fill:#565656;opacity:0.89;}.cls-183{fill:#555;opacity:0.89;}.cls-184{fill:#545454;opacity:0.9;}.cls-185{fill:#535353;opacity:0.9;}.cls-186{fill:#525252;opacity:0.91;}.cls-187{fill:#515151;opacity:0.91;}.cls-188{fill:#505050;opacity:0.92;}.cls-189{fill:#4f4f4f;opacity:0.92;}.cls-190{fill:#4e4e4e;opacity:0.93;}.cls-191{fill:#4d4d4d;opacity:0.93;}.cls-192{fill:#4c4c4c;opacity:0.94;}.cls-193{fill:#4b4b4b;opacity:0.94;}.cls-194,.cls-195{fill:#4a4a4a;}.cls-194{opacity:0.95;}.cls-195{opacity:0.95;}.cls-196{fill:#494949;opacity:0.96;}.cls-197{fill:#484848;opacity:0.96;}.cls-198{fill:#474747;opacity:0.97;}.cls-199{fill:#464646;opacity:0.97;}.cls-200{fill:#454545;opacity:0.98;}.cls-201{fill:#444;opacity:0.98;}.cls-202{fill:#434343;opacity:0.99;}.cls-203{fill:#424242;opacity:0.99;}.cls-204{fill:#414141;opacity:1;}.cls-205{fill:#404040;}.cls-207{fill:url(#radial-gradient);}.cls-208,.cls-213,.cls-216,.cls-218,.cls-219{stroke:#231f20;}.cls-208,.cls-218{stroke-linecap:round;}.cls-208{stroke-linejoin:round;}.cls-208,.cls-218,.cls-219{stroke-width:1px;}.cls-209{font-size:13.51px;font-family:MVBoli, MV Boli;}.cls-210{opacity:0.63;fill:url(#radial-gradient-2);}.cls-211{fill:#f8daa6;}.cls-211,.cls-212,.cls-214,.cls-215,.cls-217,.cls-220,.cls-221{fill-rule:evenodd;}.cls-212{fill:#a15641;}.cls-213,.cls-216,.cls-218,.cls-219{stroke-miterlimit:22.93;}.cls-213{stroke-width:0.57px;}.cls-214{fill:#c96c38;}.cls-216{stroke-width:2px;}.cls-217{fill:#e6e7e8;}.cls-220{fill:#00adee;}.cls-221,.cls-222{fill:#231f20;}.cls-224{clip-path:url(#clip-path);}.cls-225{fill:#f1f2f2;}.cls-226{fill:#f0f1f1;}.cls-227{fill:#eff0f0;}.cls-228{fill:#eeefef;}.cls-229{fill:#edeeee;}.cls-230{fill:#eceded;}.cls-231{fill:#ebecec;}.cls-232{fill:#eaebeb;}.cls-233{fill:#e9eaea;}.cls-234{fill:#e8e9e9;}.cls-235{fill:#e7e8e8;}.cls-236{fill:#e6e7e7;}.cls-237{fill:#e5e6e6;}.cls-238{fill:#e4e5e5;}.cls-239{fill:#e3e4e4;}.cls-240{fill:#e2e3e3;}.cls-241{fill:#e0e2e3;}.cls-242{fill:#dfe1e2;}.cls-243{fill:#dee0e1;}.cls-244{fill:#dddfe0;}.cls-245{fill:#dcdedf;}.cls-246{fill:#dbddde;}.cls-247{fill:#dadcdd;}.cls-248{fill:#d9dbdc;}.cls-249{fill:#d8dadb;}.cls-250{fill:#d7d9da;}.cls-251{fill:#d6d8d9;}.cls-252{fill:#d5d7d8;}.cls-253{fill:#d4d6d7;}.cls-254{fill:#d3d5d6;}.cls-255{fill:#d2d4d5;}.cls-256{fill:#d1d3d4;}.cls-257{clip-path:url(#clip-path-2);}.cls-258{clip-path:url(#clip-path-3);}.cls-259{clip-path:url(#clip-path-4);}.cls-260{fill:#191819;}.cls-261{clip-path:url(#clip-path-5);}.cls-262{fill:#313032;}.cls-263{fill:#302f31;}.cls-264{fill:#2f2e30;}.cls-265{fill:#2e2d2f;}.cls-266{fill:#2d2c2e;}.cls-267{fill:#2c2b2d;}.cls-268{fill:#2b2a2c;}.cls-269{fill:#2a292b;}.cls-270{fill:#29282a;}.cls-271{fill:#282729;}.cls-272{fill:#272628;}.cls-273{fill:#262527;}.cls-274{fill:#252426;}.cls-275{fill:#242325;}.cls-276{fill:#232224;}.cls-277{fill:#222123;}.cls-278{fill:#212022;}.cls-279{fill:#201f21;}.cls-280{fill:#1f1e20;}.cls-281{fill:#1e1d1f;}.cls-282{fill:#1d1c1e;}.cls-283{fill:#1c1b1d;}.cls-284{fill:#1b1a1c;}.cls-285{fill:#1a191b;}.cls-286{fill:#19181a;}.cls-287{fill:#181818;}.cls-288{fill:#171717;}.cls-289{fill:#161616;}.cls-290{fill:#151515;}.cls-291{fill:#141414;}.cls-292{fill:#131313;}.cls-293{fill:#121212;}.cls-294{fill:#111;}.cls-295{fill:#101010;}.cls-296{fill:#0f0f0f;}.cls-297{fill:#0e0e0e;}.cls-298{fill:#0d0d0d;}.cls-299{fill:#0c0c0c;}.cls-300{fill:#0b0b0b;}.cls-301{fill:#0a0a0a;}.cls-302{fill:#090909;}.cls-303{fill:#080808;}.cls-304{fill:#070707;}.cls-305{fill:#060606;}.cls-306{fill:#050505;}.cls-307{fill:#040404;}.cls-308{fill:#030303;}.cls-309{fill:#020202;}.cls-310{fill:#010101;}.cls-311{clip-path:url(#clip-path-6);}.cls-312{clip-path:url(#clip-path-7);}.cls-313{clip-path:url(#clip-path-8);}.cls-314{fill:#414042;}</style><radialGradient id="radial-gradient" cx="43.46" cy="33.59" r="33.5" gradientTransform="translate(0.76 15.42) scale(1.03 0.72)" gradientUnits="userSpaceOnUse"><stop offset="0" stop-color="#429444"/><stop offset="1" stop-color="#5f8049"/></radialGradient><radialGradient id="radial-gradient-2" cx="42.34" cy="62.03" r="20.35" gradientTransform="translate(0 49.62) scale(1 0.2)" gradientUnits="userSpaceOnUse"><stop offset="0" stop-color="#231f20" stop-opacity="0.7"/><stop offset="1" stop-color="#231f20" stop-opacity="0"/></radialGradient><clipPath id="clip-path"><polygon class="cls-1" points="80.34 15.34 83.79 11.96 7.63 11.96 11.08 15.34 80.34 15.34"/></clipPath><clipPath id="clip-path-2"><polygon class="cls-1" points="80.4 64 83.9 67.43 83.9 11.96 80.4 15.39 80.4 64"/></clipPath><clipPath id="clip-path-3"><polygon class="cls-1" points="80.36 64.07 11.22 64.07 7.76 67.45 83.81 67.45 80.36 64.07"/></clipPath><clipPath id="clip-path-4"><polygon class="cls-1" points="11.03 64.07 11.03 15.4 7.53 11.97 7.53 67.45 7.66 67.45 11.11 64.07 11.03 64.07"/></clipPath><clipPath id="clip-path-5"><polygon class="cls-1" points="84.03 11.66 87.85 7.78 3.59 7.78 7.41 11.66 84.03 11.66"/></clipPath><clipPath id="clip-path-6"><polygon class="cls-1" points="84.09 67.54 87.97 71.47 87.97 7.78 84.09 11.72 84.09 67.54"/></clipPath><clipPath id="clip-path-7"><polygon class="cls-1" points="84.05 67.62 7.56 67.62 3.74 71.5 87.87 71.5 84.05 67.62"/></clipPath><clipPath id="clip-path-8"><polygon class="cls-1" points="7.36 67.62 7.36 11.73 3.48 7.79 3.48 71.5 3.62 71.5 7.44 67.62 7.36 67.62"/></clipPath></defs><title>poster</title><g class="cls-2"><g id="Layer_2" data-name="Layer 2"><g id="poster"><g id="poster-2" data-name="poster"><g class="cls-3"><path class="cls-4" d="M5.45,75.42A5.45,5.45,0,0,1,0,70V10.85A5.46,5.46,0,0,1,5.45,5.4H85.63a5.46,5.46,0,0,1,5.45,5.45V70a5.45,5.45,0,0,1-5.45,5.44Z"/><path class="cls-5" d="M5.45,75.4A5.43,5.43,0,0,1,0,70V10.85A5.44,5.44,0,0,1,5.45,5.42H85.63a5.44,5.44,0,0,1,5.43,5.43V70a5.43,5.43,0,0,1-5.43,5.42Z"/><path class="cls-6" d="M5.45,75.38A5.42,5.42,0,0,1,0,70V10.85A5.42,5.42,0,0,1,5.45,5.44H85.63A5.42,5.42,0,0,1,91,10.85V70a5.42,5.42,0,0,1-5.41,5.4Z"/><path class="cls-7" d="M5.45,75.36A5.39,5.39,0,0,1,.07,70V10.85A5.38,5.38,0,0,1,5.45,5.47H85.63A5.39,5.39,0,0,1,91,10.85V70a5.4,5.4,0,0,1-5.39,5.38Z"/><path class="cls-8" d="M5.45,75.33A5.36,5.36,0,0,1,.09,70V10.85A5.36,5.36,0,0,1,5.45,5.49H85.63A5.36,5.36,0,0,1,91,10.85V70a5.36,5.36,0,0,1-5.36,5.35Z"/><path class="cls-9" d="M5.45,75.31A5.34,5.34,0,0,1,.11,70V10.85A5.35,5.35,0,0,1,5.45,5.51H85.63A5.35,5.35,0,0,1,91,10.85V70a5.34,5.34,0,0,1-5.34,5.33Z"/><rect class="cls-10" x="0.13" y="5.53" width="90.82" height="69.76" rx="5.32" ry="5.32"/><path class="cls-11" d="M5.45,75.27A5.31,5.31,0,0,1,.15,70V10.85a5.31,5.31,0,0,1,5.3-5.3H85.63a5.31,5.31,0,0,1,5.3,5.3V70a5.31,5.31,0,0,1-5.3,5.29Z"/><path class="cls-12" d="M5.45,75.25A5.28,5.28,0,0,1,.18,70V10.85A5.28,5.28,0,0,1,5.45,5.57H85.63a5.29,5.29,0,0,1,5.28,5.28V70a5.29,5.29,0,0,1-5.28,5.27Z"/><path class="cls-13" d="M5.45,75.23A5.26,5.26,0,0,1,.2,70V10.85A5.26,5.26,0,0,1,5.45,5.6H85.63a5.25,5.25,0,0,1,5.25,5.25V70a5.26,5.26,0,0,1-5.25,5.25Z"/><path class="cls-14" d="M5.45,75.2A5.23,5.23,0,0,1,.22,70V10.85A5.23,5.23,0,0,1,5.45,5.62H85.63a5.23,5.23,0,0,1,5.23,5.23V70a5.23,5.23,0,0,1-5.23,5.22Z"/><path class="cls-15" d="M5.45,75.18A5.21,5.21,0,0,1,.24,70V10.85A5.22,5.22,0,0,1,5.45,5.64H85.63a5.22,5.22,0,0,1,5.21,5.21V70a5.21,5.21,0,0,1-5.21,5.2Z"/><path class="cls-16" d="M5.45,75.16A5.2,5.2,0,0,1,.26,70V10.85A5.2,5.2,0,0,1,5.45,5.66H85.63a5.2,5.2,0,0,1,5.19,5.19V70a5.2,5.2,0,0,1-5.19,5.18Z"/><path class="cls-17" d="M5.45,75.14A5.17,5.17,0,0,1,.28,70V10.85A5.18,5.18,0,0,1,5.45,5.68H85.63a5.18,5.18,0,0,1,5.17,5.17V70a5.17,5.17,0,0,1-5.17,5.16Z"/><path class="cls-18" d="M5.45,75.12A5.15,5.15,0,0,1,.31,70V10.85A5.14,5.14,0,0,1,5.45,5.71H85.63a5.15,5.15,0,0,1,5.15,5.14V70a5.15,5.15,0,0,1-5.15,5.14Z"/><path class="cls-19" d="M5.45,75.09A5.12,5.12,0,0,1,.33,70V10.85A5.12,5.12,0,0,1,5.45,5.73H85.63a5.12,5.12,0,0,1,5.12,5.12V70a5.12,5.12,0,0,1-5.12,5.11Z"/><rect class="cls-20" x="0.35" y="5.75" width="90.38" height="69.32" rx="5.1" ry="5.1"/><path class="cls-21" d="M5.45,75.05A5.09,5.09,0,0,1,.37,70V10.85A5.09,5.09,0,0,1,5.45,5.77H85.63a5.09,5.09,0,0,1,5.08,5.08V70a5.09,5.09,0,0,1-5.08,5.07Z"/><path class="cls-22" d="M5.45,75A5.06,5.06,0,0,1,.39,70V10.85A5.07,5.07,0,0,1,5.45,5.79H85.63a5.07,5.07,0,0,1,5.06,5.06V70a5.06,5.06,0,0,1-5.06,5Z"/><path class="cls-23" d="M5.45,75a5,5,0,0,1-5-5V10.85a5,5,0,0,1,5-5H85.63a5,5,0,0,1,5,5V70a5,5,0,0,1-5,5Z"/><path class="cls-24" d="M5.45,75a5,5,0,0,1-5-5V10.85a5,5,0,0,1,5-5H85.63a5,5,0,0,1,5,5V70a5,5,0,0,1-5,5Z"/><path class="cls-25" d="M5.45,75a5,5,0,0,1-5-5V10.85a5,5,0,0,1,5-5H85.63a5,5,0,0,1,5,5V70a5,5,0,0,1-5,5Z"/><path class="cls-26" d="M5.45,74.94a5,5,0,0,1-5-5V10.85a5,5,0,0,1,5-5H85.63a5,5,0,0,1,5,5V70a5,5,0,0,1-5,5Z"/><path class="cls-27" d="M5.45,74.92A5,5,0,0,1,.5,70V10.85a5,5,0,0,1,5-4.95H85.63a5,5,0,0,1,5,4.95V70a5,5,0,0,1-5,4.94Z"/><path class="cls-28" d="M5.45,74.9A4.93,4.93,0,0,1,.53,70V10.85A4.93,4.93,0,0,1,5.45,5.92H85.63a4.93,4.93,0,0,1,4.93,4.93V70a4.93,4.93,0,0,1-4.93,4.92Z"/><path class="cls-29" d="M5.45,74.88A4.91,4.91,0,0,1,.55,70V10.85A4.9,4.9,0,0,1,5.45,6H85.63a4.9,4.9,0,0,1,4.9,4.9V70a4.91,4.91,0,0,1-4.9,4.9Z"/><path class="cls-30" d="M5.45,74.85A4.88,4.88,0,0,1,.57,70V10.85A4.89,4.89,0,0,1,5.45,6H85.63a4.89,4.89,0,0,1,4.88,4.88V70a4.88,4.88,0,0,1-4.88,4.87Z"/><path class="cls-31" d="M5.45,74.83A4.86,4.86,0,0,1,.59,70V10.85A4.87,4.87,0,0,1,5.45,6H85.63a4.87,4.87,0,0,1,4.86,4.86V70a4.86,4.86,0,0,1-4.86,4.85Z"/><path class="cls-32" d="M5.45,74.81A4.84,4.84,0,0,1,.61,70V10.85A4.84,4.84,0,0,1,5.45,6H85.63a4.84,4.84,0,0,1,4.84,4.84V70a4.84,4.84,0,0,1-4.84,4.83Z"/><path class="cls-33" d="M5.45,74.79A4.83,4.83,0,0,1,.63,70V10.85A4.83,4.83,0,0,1,5.45,6H85.63a4.83,4.83,0,0,1,4.82,4.82V70a4.83,4.83,0,0,1-4.82,4.81Z"/><path class="cls-34" d="M5.45,74.77A4.8,4.8,0,0,1,.66,70V10.85A4.79,4.79,0,0,1,5.45,6.06H85.63a4.79,4.79,0,0,1,4.79,4.79V70a4.8,4.8,0,0,1-4.79,4.79Z"/><path class="cls-35" d="M5.45,74.74A4.77,4.77,0,0,1,.68,70V10.85A4.78,4.78,0,0,1,5.45,6.08H85.63a4.78,4.78,0,0,1,4.77,4.77V70a4.77,4.77,0,0,1-4.77,4.76Z"/><path class="cls-36" d="M5.45,74.72A4.75,4.75,0,0,1,.7,70V10.85A4.75,4.75,0,0,1,5.45,6.1H85.63a4.75,4.75,0,0,1,4.75,4.75V70a4.75,4.75,0,0,1-4.75,4.74Z"/><path class="cls-37" d="M5.45,74.7A4.73,4.73,0,0,1,.72,70V10.85A4.73,4.73,0,0,1,5.45,6.12H85.63a4.73,4.73,0,0,1,4.73,4.73V70a4.73,4.73,0,0,1-4.73,4.72Z"/><path class="cls-38" d="M5.45,74.68A4.72,4.72,0,0,1,.74,70V10.85A4.72,4.72,0,0,1,5.45,6.14H85.63a4.72,4.72,0,0,1,4.71,4.71V70a4.72,4.72,0,0,1-4.71,4.7Z"/><path class="cls-39" d="M5.45,74.66A4.69,4.69,0,0,1,.77,70V10.85A4.69,4.69,0,0,1,5.45,6.16H85.63a4.7,4.7,0,0,1,4.69,4.69V70a4.69,4.69,0,0,1-4.69,4.68Z"/><path class="cls-40" d="M5.45,74.64A4.66,4.66,0,0,1,.79,70V10.85A4.66,4.66,0,0,1,5.45,6.19H85.63a4.66,4.66,0,0,1,4.66,4.66V70a4.66,4.66,0,0,1-4.66,4.66Z"/><path class="cls-41" d="M5.45,74.61A4.64,4.64,0,0,1,.81,70V10.85A4.64,4.64,0,0,1,5.45,6.21H85.63a4.64,4.64,0,0,1,4.64,4.64V70a4.64,4.64,0,0,1-4.64,4.63Z"/><path class="cls-42" d="M5.45,74.59A4.63,4.63,0,0,1,.83,70V10.85A4.63,4.63,0,0,1,5.45,6.23H85.63a4.62,4.62,0,0,1,4.62,4.62V70a4.62,4.62,0,0,1-4.62,4.61Z"/><path class="cls-43" d="M5.45,74.57A4.6,4.6,0,0,1,.85,70V10.85a4.61,4.61,0,0,1,4.6-4.6H85.63a4.61,4.61,0,0,1,4.6,4.6V70a4.6,4.6,0,0,1-4.6,4.59Z"/><path class="cls-44" d="M5.45,74.55A4.58,4.58,0,0,1,.88,70V10.85A4.58,4.58,0,0,1,5.45,6.27H85.63a4.59,4.59,0,0,1,4.58,4.58V70a4.58,4.58,0,0,1-4.58,4.57Z"/><path class="cls-45" d="M5.45,74.53A4.56,4.56,0,0,1,.9,70V10.85A4.55,4.55,0,0,1,5.45,6.3H85.63a4.55,4.55,0,0,1,4.55,4.55V70a4.56,4.56,0,0,1-4.55,4.55Z"/><path class="cls-46" d="M5.45,74.5A4.53,4.53,0,0,1,.92,70V10.85A4.53,4.53,0,0,1,5.45,6.32H85.63a4.53,4.53,0,0,1,4.53,4.53V70a4.53,4.53,0,0,1-4.53,4.52Z"/><path class="cls-47" d="M5.45,74.48A4.52,4.52,0,0,1,.94,70V10.85A4.52,4.52,0,0,1,5.45,6.34H85.63a4.51,4.51,0,0,1,4.51,4.51V70a4.51,4.51,0,0,1-4.51,4.5Z"/><path class="cls-48" d="M5.45,74.46A4.49,4.49,0,0,1,1,70V10.85A4.5,4.5,0,0,1,5.45,6.36H85.63a4.5,4.5,0,0,1,4.49,4.49V70a4.49,4.49,0,0,1-4.49,4.48Z"/><path class="cls-49" d="M5.45,74.44A4.47,4.47,0,0,1,1,70V10.85A4.48,4.48,0,0,1,5.45,6.38H85.63a4.48,4.48,0,0,1,4.47,4.47V70a4.47,4.47,0,0,1-4.47,4.46Z"/><path class="cls-50" d="M5.45,74.42A4.45,4.45,0,0,1,1,70V10.85A4.44,4.44,0,0,1,5.45,6.41H85.63a4.44,4.44,0,0,1,4.44,4.44V70a4.45,4.45,0,0,1-4.44,4.44Z"/><path class="cls-51" d="M5.45,74.4A4.43,4.43,0,0,1,1,70V10.85A4.42,4.42,0,0,1,5.45,6.43H85.63a4.42,4.42,0,0,1,4.42,4.42V70a4.43,4.43,0,0,1-4.42,4.42Z"/><path class="cls-52" d="M5.45,74.37A4.4,4.4,0,0,1,1.05,70V10.85a4.41,4.41,0,0,1,4.4-4.4H85.63a4.4,4.4,0,0,1,4.4,4.4V70a4.4,4.4,0,0,1-4.4,4.39Z"/><path class="cls-53" d="M5.45,74.35A4.38,4.38,0,0,1,1.07,70V10.85A4.39,4.39,0,0,1,5.45,6.47H85.63A4.39,4.39,0,0,1,90,10.85V70a4.38,4.38,0,0,1-4.38,4.37Z"/><path class="cls-54" d="M5.45,74.33A4.36,4.36,0,0,1,1.09,70V10.85A4.37,4.37,0,0,1,5.45,6.49H85.63A4.37,4.37,0,0,1,90,10.85V70a4.36,4.36,0,0,1-4.36,4.35Z"/><path class="cls-55" d="M5.45,74.31A4.34,4.34,0,0,1,1.12,70V10.85A4.34,4.34,0,0,1,5.45,6.51H85.63A4.35,4.35,0,0,1,90,10.85V70a4.35,4.35,0,0,1-4.34,4.33Z"/><path class="cls-56" d="M5.45,74.29A4.32,4.32,0,0,1,1.14,70V10.85A4.31,4.31,0,0,1,5.45,6.54H85.63a4.31,4.31,0,0,1,4.31,4.31V70a4.32,4.32,0,0,1-4.31,4.31Z"/><path class="cls-57" d="M5.45,74.26A4.29,4.29,0,0,1,1.16,70V10.85A4.3,4.3,0,0,1,5.45,6.56H85.63a4.29,4.29,0,0,1,4.29,4.29V70a4.29,4.29,0,0,1-4.29,4.28Z"/><path class="cls-58" d="M5.45,74.24A4.27,4.27,0,0,1,1.18,70V10.85A4.27,4.27,0,0,1,5.45,6.58H85.63a4.27,4.27,0,0,1,4.27,4.27V70a4.27,4.27,0,0,1-4.27,4.26Z"/><path class="cls-59" d="M5.45,74.22A4.25,4.25,0,0,1,1.2,70V10.85A4.26,4.26,0,0,1,5.45,6.6H85.63a4.26,4.26,0,0,1,4.25,4.25V70a4.25,4.25,0,0,1-4.25,4.24Z"/><path class="cls-60" d="M5.45,74.2A4.23,4.23,0,0,1,1.23,70V10.85A4.23,4.23,0,0,1,5.45,6.62H85.63a4.24,4.24,0,0,1,4.23,4.23V70a4.24,4.24,0,0,1-4.23,4.22Z"/><path class="cls-61" d="M5.45,74.18A4.21,4.21,0,0,1,1.25,70V10.85a4.2,4.2,0,0,1,4.2-4.2H85.63a4.2,4.2,0,0,1,4.2,4.2V70a4.21,4.21,0,0,1-4.2,4.2Z"/><path class="cls-62" d="M5.45,74.15A4.18,4.18,0,0,1,1.27,70V10.85A4.18,4.18,0,0,1,5.45,6.67H85.63a4.18,4.18,0,0,1,4.18,4.18V70a4.18,4.18,0,0,1-4.18,4.17Z"/><path class="cls-63" d="M5.45,74.13A4.16,4.16,0,0,1,1.29,70V10.85A4.16,4.16,0,0,1,5.45,6.69H85.63a4.16,4.16,0,0,1,4.16,4.16V70a4.16,4.16,0,0,1-4.16,4.15Z"/><path class="cls-64" d="M5.45,74.11A4.14,4.14,0,0,1,1.31,70V10.85A4.15,4.15,0,0,1,5.45,6.71H85.63a4.15,4.15,0,0,1,4.14,4.14V70a4.14,4.14,0,0,1-4.14,4.13Z"/><path class="cls-65" d="M5.45,74.09A4.12,4.12,0,0,1,1.33,70V10.85A4.13,4.13,0,0,1,5.45,6.73H85.63a4.13,4.13,0,0,1,4.12,4.12V70a4.12,4.12,0,0,1-4.12,4.11Z"/><path class="cls-66" d="M5.45,74.07A4.09,4.09,0,0,1,1.36,70V10.85a4.1,4.1,0,0,1,4.09-4.1H85.63a4.1,4.1,0,0,1,4.09,4.1V70a4.09,4.09,0,0,1-4.09,4.09Z"/><path class="cls-67" d="M5.45,74.05A4.08,4.08,0,0,1,1.38,70V10.85A4.07,4.07,0,0,1,5.45,6.78H85.63a4.07,4.07,0,0,1,4.07,4.07V70a4.08,4.08,0,0,1-4.07,4.07Z"/><path class="cls-68" d="M5.45,74A4.05,4.05,0,0,1,1.4,70V10.85a4.05,4.05,0,0,1,4.05-4H85.63a4.05,4.05,0,0,1,4.05,4.05V70a4.05,4.05,0,0,1-4.05,4Z"/><path class="cls-69" d="M5.45,74a4,4,0,0,1-4-4V10.85a4,4,0,0,1,4-4H85.63a4,4,0,0,1,4,4V70a4,4,0,0,1-4,4Z"/><path class="cls-70" d="M5.45,74a4,4,0,0,1-4-4V10.85a4,4,0,0,1,4-4H85.63a4,4,0,0,1,4,4V70a4,4,0,0,1-4,4Z"/><path class="cls-71" d="M5.45,74a4,4,0,0,1-4-4V10.85a4,4,0,0,1,4-4H85.63a4,4,0,0,1,4,4V70a4,4,0,0,1-4,4Z"/><rect class="cls-72" x="1.49" y="6.89" width="88.11" height="67.05" rx="3.96" ry="3.96"/><path class="cls-73" d="M5.45,73.91A3.94,3.94,0,0,1,1.51,70V10.85A3.94,3.94,0,0,1,5.45,6.91H85.63a3.94,3.94,0,0,1,3.94,3.94V70a3.94,3.94,0,0,1-3.94,3.93Z"/><path class="cls-74" d="M5.45,73.89A3.92,3.92,0,0,1,1.53,70V10.85A3.93,3.93,0,0,1,5.45,6.93H85.63a3.93,3.93,0,0,1,3.92,3.92V70a3.92,3.92,0,0,1-3.92,3.91Z"/><path class="cls-75" d="M5.45,73.87A3.9,3.9,0,0,1,1.55,70V10.85A3.91,3.91,0,0,1,5.45,7H85.63a3.91,3.91,0,0,1,3.9,3.9V70a3.9,3.9,0,0,1-3.9,3.89Z"/><path class="cls-76" d="M5.45,73.85A3.88,3.88,0,0,1,1.58,70V10.85A3.88,3.88,0,0,1,5.45,7H85.63a3.88,3.88,0,0,1,3.88,3.88V70a3.88,3.88,0,0,1-3.88,3.87Z"/><path class="cls-77" d="M5.45,73.83A3.86,3.86,0,0,1,1.6,70V10.85A3.85,3.85,0,0,1,5.45,7H85.63a3.85,3.85,0,0,1,3.85,3.85V70a3.86,3.86,0,0,1-3.85,3.85Z"/><path class="cls-78" d="M5.45,73.81A3.84,3.84,0,0,1,1.62,70V10.85A3.83,3.83,0,0,1,5.45,7H85.63a3.83,3.83,0,0,1,3.83,3.83V70a3.84,3.84,0,0,1-3.83,3.83Z"/><path class="cls-79" d="M5.45,73.78A3.81,3.81,0,0,1,1.64,70V10.85A3.82,3.82,0,0,1,5.45,7H85.63a3.82,3.82,0,0,1,3.81,3.81V70a3.81,3.81,0,0,1-3.81,3.8Z"/><path class="cls-80" d="M5.45,73.76A3.79,3.79,0,0,1,1.66,70V10.85A3.79,3.79,0,0,1,5.45,7.06H85.63a3.79,3.79,0,0,1,3.79,3.79V70a3.79,3.79,0,0,1-3.79,3.78Z"/><path class="cls-81" d="M5.45,73.74A3.77,3.77,0,0,1,1.69,70V10.85A3.77,3.77,0,0,1,5.45,7.08H85.63a3.77,3.77,0,0,1,3.77,3.77V70a3.77,3.77,0,0,1-3.77,3.76Z"/><path class="cls-82" d="M5.45,73.72A3.75,3.75,0,0,1,1.71,70V10.85A3.75,3.75,0,0,1,5.45,7.1H85.63a3.75,3.75,0,0,1,3.74,3.75V70a3.75,3.75,0,0,1-3.74,3.74Z"/><rect class="cls-83" x="1.73" y="7.13" width="87.62" height="66.57" rx="3.73" ry="3.73"/><path class="cls-84" d="M5.45,73.67A3.7,3.7,0,0,1,1.75,70V10.85a3.7,3.7,0,0,1,3.7-3.7H85.63a3.7,3.7,0,0,1,3.7,3.7V70a3.7,3.7,0,0,1-3.7,3.69Z"/><path class="cls-85" d="M5.45,73.65A3.68,3.68,0,0,1,1.77,70V10.85A3.68,3.68,0,0,1,5.45,7.17H85.63a3.68,3.68,0,0,1,3.68,3.68V70a3.68,3.68,0,0,1-3.68,3.67Z"/><path class="cls-86" d="M5.45,73.63A3.67,3.67,0,0,1,1.79,70V10.85A3.67,3.67,0,0,1,5.45,7.19H85.63a3.66,3.66,0,0,1,3.66,3.66V70a3.66,3.66,0,0,1-3.66,3.65Z"/><path class="cls-87" d="M5.45,73.61A3.64,3.64,0,0,1,1.82,70V10.85A3.64,3.64,0,0,1,5.45,7.21H85.63a3.65,3.65,0,0,1,3.64,3.64V70a3.64,3.64,0,0,1-3.64,3.63Z"/><path class="cls-88" d="M5.45,73.59A3.61,3.61,0,0,1,1.84,70V10.85A3.61,3.61,0,0,1,5.45,7.24H85.63a3.61,3.61,0,0,1,3.61,3.61V70a3.61,3.61,0,0,1-3.61,3.61Z"/><path class="cls-89" d="M5.45,73.56A3.59,3.59,0,0,1,1.86,70V10.85A3.59,3.59,0,0,1,5.45,7.26H85.63a3.59,3.59,0,0,1,3.59,3.59V70a3.59,3.59,0,0,1-3.59,3.58Z"/><path class="cls-90" d="M5.45,73.54A3.57,3.57,0,0,1,1.88,70V10.85A3.57,3.57,0,0,1,5.45,7.28H85.63a3.57,3.57,0,0,1,3.57,3.57V70a3.57,3.57,0,0,1-3.57,3.56Z"/><path class="cls-91" d="M5.45,73.52A3.56,3.56,0,0,1,1.9,70V10.85A3.56,3.56,0,0,1,5.45,7.3H85.63a3.55,3.55,0,0,1,3.55,3.55V70a3.55,3.55,0,0,1-3.55,3.54Z"/><path class="cls-92" d="M5.45,73.5A3.53,3.53,0,0,1,1.93,70V10.85A3.53,3.53,0,0,1,5.45,7.32H85.63a3.54,3.54,0,0,1,3.53,3.53V70a3.53,3.53,0,0,1-3.53,3.52Z"/><path class="cls-93" d="M5.45,73.48A3.5,3.5,0,0,1,2,70V10.85a3.51,3.51,0,0,1,3.5-3.51H85.63a3.51,3.51,0,0,1,3.5,3.51V70a3.5,3.5,0,0,1-3.5,3.5Z"/><path class="cls-94" d="M5.45,73.46A3.49,3.49,0,0,1,2,70V10.85A3.48,3.48,0,0,1,5.45,7.37H85.63a3.48,3.48,0,0,1,3.48,3.48V70a3.49,3.49,0,0,1-3.48,3.48Z"/><path class="cls-95" d="M5.45,73.43A3.46,3.46,0,0,1,2,70V10.85A3.46,3.46,0,0,1,5.45,7.39H85.63a3.46,3.46,0,0,1,3.46,3.46V70a3.46,3.46,0,0,1-3.46,3.45Z"/><path class="cls-96" d="M5.45,73.41A3.44,3.44,0,0,1,2,70V10.85A3.45,3.45,0,0,1,5.45,7.41H85.63a3.45,3.45,0,0,1,3.44,3.44V70a3.44,3.44,0,0,1-3.44,3.43Z"/><path class="cls-97" d="M5.45,73.39A3.41,3.41,0,0,1,2,70V10.85A3.42,3.42,0,0,1,5.45,7.43H85.63a3.42,3.42,0,0,1,3.42,3.42V70a3.42,3.42,0,0,1-3.42,3.41Z"/><path class="cls-98" d="M5.45,73.37A3.39,3.39,0,0,1,2.06,70V10.85a3.4,3.4,0,0,1,3.39-3.4H85.63A3.4,3.4,0,0,1,89,10.85V70a3.39,3.39,0,0,1-3.39,3.39Z"/><path class="cls-99" d="M5.45,73.35A3.38,3.38,0,0,1,2.08,70V10.85A3.37,3.37,0,0,1,5.45,7.48H85.63A3.37,3.37,0,0,1,89,10.85V70a3.38,3.38,0,0,1-3.37,3.37Z"/><path class="cls-100" d="M5.45,73.32A3.35,3.35,0,0,1,2.1,70V10.85A3.35,3.35,0,0,1,5.45,7.5H85.63A3.35,3.35,0,0,1,89,10.85V70a3.35,3.35,0,0,1-3.35,3.34Z"/><path class="cls-101" d="M5.45,73.3A3.33,3.33,0,0,1,2.12,70V10.85A3.34,3.34,0,0,1,5.45,7.52H85.63A3.34,3.34,0,0,1,89,10.85V70a3.33,3.33,0,0,1-3.33,3.32Z"/><path class="cls-102" d="M5.45,73.28A3.31,3.31,0,0,1,2.14,70V10.85A3.31,3.31,0,0,1,5.45,7.54H85.63a3.31,3.31,0,0,1,3.31,3.31V70a3.31,3.31,0,0,1-3.31,3.3Z"/><path class="cls-103" d="M5.45,73.26A3.28,3.28,0,0,1,2.17,70V10.85A3.29,3.29,0,0,1,5.45,7.56H85.63a3.29,3.29,0,0,1,3.28,3.29V70a3.28,3.28,0,0,1-3.28,3.28Z"/><path class="cls-104" d="M5.45,73.24A3.27,3.27,0,0,1,2.19,70V10.85A3.26,3.26,0,0,1,5.45,7.59H85.63a3.26,3.26,0,0,1,3.26,3.26V70a3.27,3.27,0,0,1-3.26,3.26Z"/><path class="cls-105" d="M5.45,73.22A3.25,3.25,0,0,1,2.21,70V10.85A3.25,3.25,0,0,1,5.45,7.61H85.63a3.24,3.24,0,0,1,3.24,3.24V70a3.25,3.25,0,0,1-3.24,3.24Z"/><path class="cls-106" d="M5.45,73.19A3.22,3.22,0,0,1,2.23,70V10.85A3.22,3.22,0,0,1,5.45,7.63H85.63a3.22,3.22,0,0,1,3.22,3.22V70a3.22,3.22,0,0,1-3.22,3.21Z"/><path class="cls-107" d="M5.45,73.17A3.2,3.2,0,0,1,2.25,70V10.85a3.2,3.2,0,0,1,3.2-3.2H85.63a3.2,3.2,0,0,1,3.2,3.2V70a3.2,3.2,0,0,1-3.2,3.19Z"/><path class="cls-108" d="M5.45,73.15A3.17,3.17,0,0,1,2.28,70V10.85A3.18,3.18,0,0,1,5.45,7.67H85.63a3.19,3.19,0,0,1,3.18,3.18V70a3.18,3.18,0,0,1-3.18,3.17Z"/><path class="cls-109" d="M5.45,73.13A3.16,3.16,0,0,1,2.3,70V10.85A3.16,3.16,0,0,1,5.45,7.69H85.63a3.16,3.16,0,0,1,3.15,3.16V70a3.16,3.16,0,0,1-3.15,3.15Z"/><path class="cls-110" d="M5.45,73.11A3.14,3.14,0,0,1,2.32,70V10.85A3.13,3.13,0,0,1,5.45,7.72H85.63a3.13,3.13,0,0,1,3.13,3.13V70a3.13,3.13,0,0,1-3.13,3.13Z"/><path class="cls-111" d="M5.45,73.08A3.11,3.11,0,0,1,2.34,70V10.85A3.11,3.11,0,0,1,5.45,7.74H85.63a3.11,3.11,0,0,1,3.11,3.11V70a3.11,3.11,0,0,1-3.11,3.1Z"/><path class="cls-112" d="M5.45,73.06A3.09,3.09,0,0,1,2.36,70V10.85A3.09,3.09,0,0,1,5.45,7.76H85.63a3.09,3.09,0,0,1,3.09,3.09V70a3.09,3.09,0,0,1-3.09,3.08Z"/><path class="cls-113" d="M5.45,73A3.06,3.06,0,0,1,2.39,70V10.85A3.07,3.07,0,0,1,5.45,7.78H85.63a3.08,3.08,0,0,1,3.07,3.07V70A3.07,3.07,0,0,1,85.63,73Z"/><path class="cls-114" d="M5.45,73a3,3,0,0,1-3-3V10.85a3,3,0,0,1,3-3H85.63a3,3,0,0,1,3,3.05V70a3,3,0,0,1-3,3Z"/><path class="cls-115" d="M5.45,73a3,3,0,0,1-3-3V10.85a3,3,0,0,1,3-3H85.63a3,3,0,0,1,3,3V70a3,3,0,0,1-3,3Z"/><path class="cls-116" d="M5.45,73a3,3,0,0,1-3-3V10.85a3,3,0,0,1,3-3H85.63a3,3,0,0,1,3,3V70a3,3,0,0,1-3,3Z"/><path class="cls-117" d="M5.45,73a3,3,0,0,1-3-3V10.85a3,3,0,0,1,3-3H85.63a3,3,0,0,1,3,3V70a3,3,0,0,1-3,3Z"/><path class="cls-118" d="M5.45,72.93a3,3,0,0,1-3-3V10.85a3,3,0,0,1,3-3H85.63a3,3,0,0,1,3,3V70a3,3,0,0,1-3,3Z"/><path class="cls-119" d="M5.45,72.91A2.93,2.93,0,0,1,2.52,70V10.85A2.94,2.94,0,0,1,5.45,7.91H85.63a2.94,2.94,0,0,1,2.93,2.94V70a2.93,2.93,0,0,1-2.93,2.93Z"/><path class="cls-120" d="M5.45,72.89A2.92,2.92,0,0,1,2.54,70V10.85A2.92,2.92,0,0,1,5.45,7.93H85.63a2.91,2.91,0,0,1,2.91,2.92V70a2.91,2.91,0,0,1-2.91,2.91Z"/><path class="cls-121" d="M5.45,72.87A2.9,2.9,0,0,1,2.56,70V10.85A2.89,2.89,0,0,1,5.45,8H85.63a2.89,2.89,0,0,1,2.89,2.89V70a2.9,2.9,0,0,1-2.89,2.89Z"/><path class="cls-122" d="M5.45,72.84A2.87,2.87,0,0,1,2.58,70V10.85A2.87,2.87,0,0,1,5.45,8H85.63a2.87,2.87,0,0,1,2.87,2.87V70a2.87,2.87,0,0,1-2.87,2.86Z"/><path class="cls-123" d="M5.45,72.82A2.85,2.85,0,0,1,2.6,70V10.85A2.86,2.86,0,0,1,5.45,8H85.63a2.86,2.86,0,0,1,2.85,2.85V70a2.85,2.85,0,0,1-2.85,2.84Z"/><path class="cls-124" d="M5.45,72.8A2.82,2.82,0,0,1,2.63,70V10.85A2.83,2.83,0,0,1,5.45,8H85.63a2.83,2.83,0,0,1,2.83,2.83V70a2.83,2.83,0,0,1-2.83,2.82Z"/><path class="cls-125" d="M5.45,72.78A2.81,2.81,0,0,1,2.65,70V10.85A2.81,2.81,0,0,1,5.45,8H85.63a2.8,2.8,0,0,1,2.8,2.81V70a2.8,2.8,0,0,1-2.8,2.8Z"/><path class="cls-126" d="M5.45,72.76A2.79,2.79,0,0,1,2.67,70V10.85A2.78,2.78,0,0,1,5.45,8.07H85.63a2.78,2.78,0,0,1,2.78,2.78V70a2.79,2.79,0,0,1-2.78,2.78Z"/><path class="cls-127" d="M5.45,72.73A2.76,2.76,0,0,1,2.69,70V10.85A2.76,2.76,0,0,1,5.45,8.09H85.63a2.76,2.76,0,0,1,2.76,2.76V70a2.76,2.76,0,0,1-2.76,2.75Z"/><path class="cls-128" d="M5.45,72.71A2.74,2.74,0,0,1,2.71,70V10.85A2.74,2.74,0,0,1,5.45,8.11H85.63a2.74,2.74,0,0,1,2.74,2.74V70a2.74,2.74,0,0,1-2.74,2.73Z"/><path class="cls-129" d="M5.45,72.69A2.71,2.71,0,0,1,2.74,70V10.85A2.71,2.71,0,0,1,5.45,8.13H85.63a2.72,2.72,0,0,1,2.72,2.72V70a2.72,2.72,0,0,1-2.72,2.71Z"/><path class="cls-130" d="M5.45,72.67A2.7,2.7,0,0,1,2.76,70V10.85a2.7,2.7,0,0,1,2.69-2.7H85.63a2.7,2.7,0,0,1,2.69,2.7V70a2.7,2.7,0,0,1-2.69,2.69Z"/><path class="cls-131" d="M5.45,72.65A2.68,2.68,0,0,1,2.78,70V10.85A2.67,2.67,0,0,1,5.45,8.18H85.63a2.67,2.67,0,0,1,2.67,2.67V70a2.68,2.68,0,0,1-2.67,2.67Z"/><path class="cls-132" d="M5.45,72.63A2.65,2.65,0,0,1,2.8,70V10.85A2.65,2.65,0,0,1,5.45,8.2H85.63a2.65,2.65,0,0,1,2.65,2.65V70a2.65,2.65,0,0,1-2.65,2.65Z"/><path class="cls-133" d="M5.45,72.6A2.62,2.62,0,0,1,2.82,70V10.85A2.63,2.63,0,0,1,5.45,8.22H85.63a2.63,2.63,0,0,1,2.63,2.63V70a2.62,2.62,0,0,1-2.63,2.62Z"/><path class="cls-134" d="M5.45,72.58A2.62,2.62,0,0,1,2.84,70V10.85A2.62,2.62,0,0,1,5.45,8.24H85.63a2.61,2.61,0,0,1,2.61,2.61V70a2.61,2.61,0,0,1-2.61,2.6Z"/><path class="cls-135" d="M5.45,72.56A2.59,2.59,0,0,1,2.87,70V10.85A2.59,2.59,0,0,1,5.45,8.26H85.63a2.59,2.59,0,0,1,2.58,2.59V70a2.59,2.59,0,0,1-2.58,2.58Z"/><path class="cls-136" d="M5.45,72.54A2.56,2.56,0,0,1,2.89,70V10.85A2.57,2.57,0,0,1,5.45,8.28H85.63a2.57,2.57,0,0,1,2.56,2.57V70a2.56,2.56,0,0,1-2.56,2.56Z"/><path class="cls-137" d="M5.45,72.52A2.54,2.54,0,0,1,2.91,70V10.85A2.54,2.54,0,0,1,5.45,8.31H85.63a2.54,2.54,0,0,1,2.54,2.54V70a2.54,2.54,0,0,1-2.54,2.54Z"/><path class="cls-138" d="M5.45,72.49A2.52,2.52,0,0,1,2.93,70V10.85A2.52,2.52,0,0,1,5.45,8.33H85.63a2.52,2.52,0,0,1,2.52,2.52V70a2.52,2.52,0,0,1-2.52,2.51Z"/><rect class="cls-139" x="2.95" y="8.35" width="85.17" height="64.12" rx="2.5" ry="2.5"/><path class="cls-140" d="M5.45,8.37H85.63a2.47,2.47,0,0,1,2.47,2.47V70a2.48,2.48,0,0,1-2.48,2.48H5.45A2.47,2.47,0,0,1,3,70V10.85A2.48,2.48,0,0,1,5.45,8.37Z"/><path class="cls-141" d="M5.45,8.39H85.63a2.45,2.45,0,0,1,2.45,2.45V70a2.46,2.46,0,0,1-2.46,2.46H5.45A2.45,2.45,0,0,1,3,70V10.85A2.45,2.45,0,0,1,5.45,8.39Z"/><rect class="cls-142" x="3.02" y="8.42" width="85.04" height="63.99" rx="2.43" ry="2.43"/><rect class="cls-143" x="3.04" y="8.44" width="85" height="63.95" rx="2.41" ry="2.41"/><rect class="cls-144" x="3.06" y="8.46" width="84.95" height="63.9" rx="2.39" ry="2.39"/><rect class="cls-145" x="3.09" y="8.48" width="84.91" height="63.86" rx="2.37" ry="2.37"/><path class="cls-146" d="M5.45,8.5H85.63A2.35,2.35,0,0,1,88,10.85V70a2.35,2.35,0,0,1-2.35,2.35H5.45A2.34,2.34,0,0,1,3.11,70V10.85A2.35,2.35,0,0,1,5.45,8.5Z"/><path class="cls-147" d="M5.45,8.52H85.63A2.32,2.32,0,0,1,88,10.85V70a2.33,2.33,0,0,1-2.33,2.33H5.45A2.32,2.32,0,0,1,3.13,70V10.85A2.33,2.33,0,0,1,5.45,8.52Z"/><rect class="cls-148" x="3.15" y="8.55" width="84.78" height="63.73" rx="2.3" ry="2.3"/><rect class="cls-149" x="3.17" y="8.57" width="84.74" height="63.69" rx="2.28" ry="2.28"/><rect class="cls-150" x="3.2" y="8.59" width="84.69" height="63.64" rx="2.26" ry="2.26"/><path class="cls-151" d="M5.45,8.61H85.63a2.23,2.23,0,0,1,2.23,2.23V70a2.24,2.24,0,0,1-2.24,2.24H5.45A2.23,2.23,0,0,1,3.22,70V10.85A2.24,2.24,0,0,1,5.45,8.61Z"/><path class="cls-152" d="M5.45,8.63H85.63a2.21,2.21,0,0,1,2.21,2.21V70a2.22,2.22,0,0,1-2.22,2.22H5.45A2.21,2.21,0,0,1,3.24,70V10.85A2.22,2.22,0,0,1,5.45,8.63Z"/><rect class="cls-153" x="3.26" y="8.66" width="84.56" height="63.51" rx="2.19" ry="2.19"/><rect class="cls-154" x="3.28" y="8.68" width="84.52" height="63.47" rx="2.17" ry="2.17"/><rect class="cls-155" x="3.3" y="8.7" width="84.47" height="63.42" rx="2.15" ry="2.15"/><path class="cls-156" d="M5.45,8.72H85.63a2.12,2.12,0,0,1,2.12,2.12V70a2.12,2.12,0,0,1-2.12,2.12H5.45A2.13,2.13,0,0,1,3.33,70V10.85A2.13,2.13,0,0,1,5.45,8.72Z"/><path class="cls-157" d="M5.45,8.74H85.63a2.1,2.1,0,0,1,2.1,2.1V70a2.11,2.11,0,0,1-2.11,2.11H5.45A2.1,2.1,0,0,1,3.35,70V10.85A2.1,2.1,0,0,1,5.45,8.74Z"/><rect class="cls-158" x="3.37" y="8.77" width="84.34" height="63.29" rx="2.08" ry="2.08"/><rect class="cls-159" x="3.39" y="8.79" width="84.3" height="63.25" rx="2.06" ry="2.06"/><rect class="cls-160" x="3.41" y="8.81" width="84.25" height="63.2" rx="2.04" ry="2.04"/><rect class="cls-161" x="3.44" y="8.83" width="84.21" height="63.16" rx="2.02" ry="2.02"/><path class="cls-162" d="M5.45,8.85H85.63a2,2,0,0,1,2,2V70a2,2,0,0,1-2,2H5.45a2,2,0,0,1-2-2V10.85A2,2,0,0,1,5.45,8.85Z"/><path class="cls-163" d="M5.45,8.87H85.63a2,2,0,0,1,2,2V70a2,2,0,0,1-2,2H5.45a2,2,0,0,1-2-2V10.85a2,2,0,0,1,2-2Z"/><rect class="cls-164" x="3.5" y="8.9" width="84.08" height="63.03" rx="1.95" ry="1.95"/><rect class="cls-165" x="3.52" y="8.92" width="84.03" height="62.99" rx="1.93" ry="1.93"/><rect class="cls-166" x="3.55" y="8.94" width="83.99" height="62.94" rx="1.91" ry="1.91"/><rect class="cls-167" x="3.57" y="8.96" width="83.95" height="62.9" rx="1.89" ry="1.89"/><path class="cls-168" d="M5.45,9H85.63a1.86,1.86,0,0,1,1.86,1.86V70a1.87,1.87,0,0,1-1.87,1.87H5.45A1.87,1.87,0,0,1,3.59,70V10.85A1.86,1.86,0,0,1,5.45,9Z"/><rect class="cls-169" x="3.61" y="9.01" width="83.86" height="62.81" rx="1.84" ry="1.84"/><rect class="cls-170" x="3.63" y="9.03" width="83.82" height="62.77" rx="1.82" ry="1.82"/><rect class="cls-171" x="3.65" y="9.05" width="83.77" height="62.72" rx="1.8" ry="1.8"/><rect class="cls-172" x="3.68" y="9.07" width="83.73" height="62.68" rx="1.78" ry="1.78"/><path class="cls-173" d="M5.45,9.09H85.63a1.76,1.76,0,0,1,1.76,1.76V70a1.76,1.76,0,0,1-1.76,1.76H5.45A1.75,1.75,0,0,1,3.7,70V10.85A1.76,1.76,0,0,1,5.45,9.09Z"/><rect class="cls-174" x="3.72" y="9.11" width="83.64" height="62.59" rx="1.73" ry="1.73"/><rect class="cls-175" x="3.74" y="9.14" width="83.6" height="62.55" rx="1.71" ry="1.71"/><rect class="cls-176" x="3.76" y="9.16" width="83.55" height="62.51" rx="1.69" ry="1.69"/><rect class="cls-177" x="3.79" y="9.18" width="83.51" height="62.46" rx="1.67" ry="1.67"/><path class="cls-178" d="M5.45,9.2H85.63a1.64,1.64,0,0,1,1.64,1.64V70a1.65,1.65,0,0,1-1.65,1.65H5.45A1.64,1.64,0,0,1,3.81,70V10.85A1.65,1.65,0,0,1,5.45,9.2Z"/><rect class="cls-179" x="3.83" y="9.22" width="83.42" height="62.37" rx="1.62" ry="1.62"/><rect class="cls-180" x="3.85" y="9.25" width="83.38" height="62.33" rx="1.6" ry="1.6"/><rect class="cls-181" x="3.87" y="9.27" width="83.33" height="62.29" rx="1.58" ry="1.58"/><rect class="cls-182" x="3.9" y="9.29" width="83.29" height="62.24" rx="1.56" ry="1.56"/><path class="cls-183" d="M5.45,9.31H85.63a1.53,1.53,0,0,1,1.53,1.53V70a1.54,1.54,0,0,1-1.54,1.54H5.45A1.54,1.54,0,0,1,3.92,70V10.85A1.54,1.54,0,0,1,5.45,9.31Z"/><path class="cls-184" d="M5.45,9.33H85.63a1.51,1.51,0,0,1,1.51,1.51V70a1.52,1.52,0,0,1-1.52,1.52H5.45A1.51,1.51,0,0,1,3.94,70V10.85A1.52,1.52,0,0,1,5.45,9.33Z"/><rect class="cls-185" x="3.96" y="9.36" width="83.16" height="62.11" rx="1.49" ry="1.49"/><rect class="cls-186" x="3.98" y="9.38" width="83.12" height="62.07" rx="1.47" ry="1.47"/><rect class="cls-187" x="4" y="9.4" width="83.07" height="62.02" rx="1.45" ry="1.45"/><rect class="cls-188" x="4.03" y="9.42" width="83.03" height="61.98" rx="1.43" ry="1.43"/><path class="cls-189" d="M5.45,9.44H85.63a1.4,1.4,0,0,1,1.4,1.4V70a1.41,1.41,0,0,1-1.41,1.41H5.45A1.4,1.4,0,0,1,4,70V10.85A1.41,1.41,0,0,1,5.45,9.44Z"/><rect class="cls-190" x="4.07" y="9.46" width="82.94" height="61.89" rx="1.38" ry="1.38"/><rect class="cls-191" x="4.09" y="9.49" width="82.9" height="61.85" rx="1.36" ry="1.36"/><rect class="cls-192" x="4.11" y="9.51" width="82.85" height="61.81" rx="1.34" ry="1.34"/><rect class="cls-193" x="4.14" y="9.53" width="82.81" height="61.76" rx="1.32" ry="1.32"/><path class="cls-194" d="M5.45,9.55H85.63a1.29,1.29,0,0,1,1.29,1.29V70a1.3,1.3,0,0,1-1.3,1.3H5.45A1.29,1.29,0,0,1,4.16,70V10.85A1.3,1.3,0,0,1,5.45,9.55Z"/><rect class="cls-195" x="4.18" y="9.57" width="82.72" height="61.67" rx="1.27" ry="1.27"/><rect class="cls-196" x="4.2" y="9.6" width="82.68" height="61.63" rx="1.25" ry="1.25"/><rect class="cls-197" x="4.22" y="9.62" width="82.63" height="61.59" rx="1.23" ry="1.23"/><rect class="cls-198" x="4.25" y="9.64" width="82.59" height="61.54" rx="1.21" ry="1.21"/><rect class="cls-199" x="4.27" y="9.66" width="82.55" height="61.5" rx="1.19" ry="1.19"/><path class="cls-200" d="M5.45,9.68H85.63a1.16,1.16,0,0,1,1.16,1.16V70a1.17,1.17,0,0,1-1.17,1.17H5.45A1.16,1.16,0,0,1,4.29,70V10.85A1.17,1.17,0,0,1,5.45,9.68Z"/><rect class="cls-201" x="4.31" y="9.7" width="82.46" height="61.41" rx="1.14" ry="1.14"/><rect class="cls-202" x="4.33" y="9.73" width="82.42" height="61.37" rx="1.12" ry="1.12"/><rect class="cls-203" x="4.35" y="9.75" width="82.37" height="61.33" rx="1.1" ry="1.1"/><rect class="cls-204" x="4.38" y="9.77" width="82.33" height="61.28" rx="1.08" ry="1.08"/><path class="cls-205" d="M5.45,9.79H85.63a1.05,1.05,0,0,1,1.05,1.05V70A1.05,1.05,0,0,1,85.63,71H5.45A1.06,1.06,0,0,1,4.4,70V10.85A1.05,1.05,0,0,1,5.45,9.79Z"/></g><rect class="cls-206" x="10.67" y="13.38" width="71.48" height="51.91"/><rect class="cls-207" x="11.03" y="15.49" width="69.06" height="48.43"/><path class="cls-208" d="M28.84,59.31H27.3c-1.3-.08-1.45,1.47.06,1.25L29,60.21l-1.1.57c-1.08.54-.34,1.49.67,1.08l.64-.26.92-.48a3.47,3.47,0,0,0,2.09-.3l.38-3.18"/><text class="cls-209" transform="matrix(0.97, 0.23, -0.23, 0.97, 36.6, 25.48)">E=mc2</text><ellipse class="cls-210" cx="42.34" cy="62.03" rx="28.58" ry="3.33"/><polygon class="cls-211" points="29.05 61.58 30.13 61.13 30.56 61.15 31.51 61.04 32.04 60.88 32.26 60.54 32.65 57.63 31.43 56.3 30.43 55.73 30.15 55.62 29.56 54.82 29.27 54.66 28.8 54.66 28.61 54.82 28.27 55.25 28.54 56.07 28.14 55.84 27.11 55.39 26.53 55.8 26.46 56.41 27.07 57 27.25 57.22 26.68 57.22 26.32 57.33 26.12 57.81 26.21 58.12 26.86 58.62 28.8 59.03 28.93 59.44 27.77 59.37 26.73 59.41 26.25 59.98 26.48 60.39 27.02 60.55 28.32 60.38 27.59 61 27.43 61.36 27.73 61.86 28.07 61.95 29.05 61.58"/><path class="cls-212" d="M55.23,55.66l7.4-18.2c.2-.48.56-.46.73-.36s.2.42.09.71L56.61,56l-.19.78L55,56.58Z"/><path class="cls-213" d="M55.23,55.66l7.4-18.2c.2-.48.56-.46.73-.36s.2.42.09.71L56.61,56l-.19.78L55,56.58Z"/><path class="cls-214" d="M63.45,37.18a.66.66,0,0,1,0,.63L56.61,56l-.17.71-.82-.1.26-.92,7.39-18.2a.9.9,0,0,1,.18-.28"/><polygon class="cls-211" points="50.91 60.72 51.02 57.27 51.94 56.03 53.11 55.18 53.99 54.99 54.7 55.23 55.38 55.8 55.48 55.95 56.89 56.09 57.8 56.78 58.12 57.45 57.68 58.17 57.42 58.41 57.59 58.91 57.52 59.57 57.06 60.13 57.01 60.85 56.35 61.28 56.27 61.92 55.74 62.26 54.51 62.29 53.65 61.94 53.08 61.96 52.49 61.94 51.63 61.53 50.91 60.72"/><path class="cls-215" d="M33.63,39.84a1.66,1.66,0,0,1,1.31.65,1.63,1.63,0,0,1,1.1-.88,1.65,1.65,0,0,1,2.32-2.24l.15-.37a1.65,1.65,0,0,1-.59-1.27,1.63,1.63,0,0,1,.79-1.41,2,2,0,0,1-.05-.42,1.66,1.66,0,0,1,3-.95,1.56,1.56,0,0,1,.64-.13A1.66,1.66,0,0,1,44,34.25a1.65,1.65,0,0,1,3.21.57,1.75,1.75,0,0,1-.08.51,1.52,1.52,0,0,1,.42-.06,1.66,1.66,0,0,1,.77,3.13,1.21,1.21,0,0,1,.2.3l.11.07a1.65,1.65,0,0,1,2.63.27,1.68,1.68,0,0,1,.6-.11,1.66,1.66,0,0,1,1.66,1.66v0a1.66,1.66,0,0,1,1.6,1.66.86.86,0,0,1,0,.16,1.84,1.84,0,0,1,.41-.05,1.66,1.66,0,0,1,.62,3.2A1.66,1.66,0,0,1,55,48.53a1.55,1.55,0,0,1-.53-.09,1.68,1.68,0,0,1-1.26,1.36A1.65,1.65,0,0,1,52,52.41a2.64,2.64,0,0,1,0,.29,1.66,1.66,0,0,1-3.06.87l0,0L44.5,54.72l-5.57.82-2.34-1.17a1.66,1.66,0,0,1-3.13-.76,2.83,2.83,0,0,1,0-.29,1.66,1.66,0,0,1-1.26-2.61A1.64,1.64,0,0,1,31,49.35a1.61,1.61,0,0,1-.54.09,1.65,1.65,0,0,1-1.07-2.92A1.65,1.65,0,0,1,30,43.33a1.77,1.77,0,0,1,.41.05c0-.05,0-.11,0-.17A1.66,1.66,0,0,1,32,41.56V41.5A1.67,1.67,0,0,1,33.63,39.84Z"/><path class="cls-216" d="M33.63,39.84a1.66,1.66,0,0,1,1.31.65,1.63,1.63,0,0,1,1.1-.88,1.65,1.65,0,0,1,2.32-2.24l.15-.37a1.65,1.65,0,0,1-.59-1.27,1.63,1.63,0,0,1,.79-1.41,2,2,0,0,1-.05-.42,1.66,1.66,0,0,1,3-.95,1.56,1.56,0,0,1,.64-.13A1.66,1.66,0,0,1,44,34.25a1.65,1.65,0,0,1,3.21.57,1.75,1.75,0,0,1-.08.51,1.52,1.52,0,0,1,.42-.06,1.66,1.66,0,0,1,.77,3.13,1.21,1.21,0,0,1,.2.3l.11.07a1.65,1.65,0,0,1,2.63.27,1.68,1.68,0,0,1,.6-.11,1.66,1.66,0,0,1,1.66,1.66v0a1.66,1.66,0,0,1,1.6,1.66.86.86,0,0,1,0,.16,1.84,1.84,0,0,1,.41-.05,1.66,1.66,0,0,1,.62,3.2A1.66,1.66,0,0,1,55,48.53a1.55,1.55,0,0,1-.53-.09,1.68,1.68,0,0,1-1.26,1.36A1.65,1.65,0,0,1,52,52.41a2.64,2.64,0,0,1,0,.29,1.66,1.66,0,0,1-3.06.87l0,0L44.5,54.72l-5.57.82-2.34-1.17a1.66,1.66,0,0,1-3.13-.76,2.83,2.83,0,0,1,0-.29,1.66,1.66,0,0,1-1.26-2.61A1.64,1.64,0,0,1,31,49.35a1.61,1.61,0,0,1-.54.09,1.65,1.65,0,0,1-1.07-2.92A1.65,1.65,0,0,1,30,43.33a1.77,1.77,0,0,1,.41.05c0-.05,0-.11,0-.17A1.66,1.66,0,0,1,32,41.56V41.5A1.67,1.67,0,0,1,33.63,39.84Z"/><path class="cls-217" d="M49.85,53.79a1.5,1.5,0,0,1-.49-.51l0,0-.64.16a1.16,1.16,0,0,1-.2-.24h0l-3.8,1.16L40.37,55l-1.81-.9c-.33.64-2.4-.07-2.4-.58a.52.52,0,0,1,0-.22A1.29,1.29,0,0,1,35,52a1.25,1.25,0,0,1,.24-.73,1.28,1.28,0,0,1-1-1.05,1.14,1.14,0,0,1-.41.07,1.27,1.27,0,0,1-1.27-1.27,1.25,1.25,0,0,1,.45-1,1.28,1.28,0,0,1,.47-2.46,1.06,1.06,0,0,1,.31,0v-.13A1.26,1.26,0,0,1,35,44.27v0a1.27,1.27,0,0,1,2.28-.78,1.25,1.25,0,0,1,.84-.68,1.29,1.29,0,0,1-.18-.65,1.27,1.27,0,0,1,2-1.07l.11-.28a1.27,1.27,0,0,1,.16-2.07,1.12,1.12,0,0,1,0-.32,1.27,1.27,0,0,1,2.31-.73,1.35,1.35,0,0,1,.5-.1,1.27,1.27,0,0,1,1.26,1.1,1.27,1.27,0,0,1,2.41.83,1.12,1.12,0,0,1,.32,0,1.27,1.27,0,0,1,.6,2.4,1.82,1.82,0,0,1,.15.23l.08.06a1.26,1.26,0,0,1,2,.21,1.19,1.19,0,0,1,.47-.09,1.27,1.27,0,0,1,1.27,1.27v0a1.27,1.27,0,0,1,1.23,1.27.57.57,0,0,1,0,.13,1.12,1.12,0,0,1,.32,0,1.27,1.27,0,0,1,1.27,1.27,1.26,1.26,0,0,1-.8,1.18,1.28,1.28,0,0,1-.82,2.25,1.3,1.3,0,0,1-.41-.07,1.27,1.27,0,0,1-1,1,1.28,1.28,0,0,1-1,2c0,.07,0-.12,0,.22s0,.83-.56,1"/><path class="cls-218" d="M51,57.21c1.45-2.49,3.66-3,4.65-1,.63,1.25-.43,2-1.36.9l-.51-.61-.29-.09"/><path class="cls-218" d="M55.41,55.85a7,7,0,0,1,1.62.37c2.51,1.16-.32,3.59-1.77,1.48"/><path class="cls-218" d="M57.49,58.44c.57,1.49-.25,1.86-1.27,1.75-1.81-.2-3.09-1.72-.74-2.18"/><path class="cls-218" d="M57.07,60.25c0,1.42-1.34,1-2.47.71-.89-.64-1.37-1.13-.36-1.79"/><path class="cls-218" d="M52.68,59.53a1.86,1.86,0,0,0,1.54-.83"/><path class="cls-218" d="M53.76,61.86a2.68,2.68,0,0,1-2.89-1.17l.07-3.54"/><path class="cls-218" d="M56.35,61.2c0,1.31-1.16,1.23-2.2,1-.82-.59-1.17-1.16-.24-1.77"/><path class="cls-211" d="M47.85,51.78c1.31-2.61,3.5.07,1,2.28Z"/><path class="cls-219" d="M47.85,51.78c1.31-2.61,3.5.07,1,2.28Z"/><path class="cls-211" d="M39.05,51.8c-1.6-2.47-3.91.38-.85,2.28Z"/><path class="cls-219" d="M39.05,51.8c-1.6-2.47-3.91.38-.85,2.28Z"/><path class="cls-211" d="M38.76,51.8c-.29-1.38-.68-2.65-1-3.92-.9-3.48-.86-5.28.56-6.32,1.17-.86,3.38-1.24,5.93-1.24s4,1.12,4.46,2.66,0,3.67-.33,5.7c-.19,1-.36,1.93-.43,2.69,1.39,1.4,1.45,2.8.77,3.94-1.34,2.24-4.19,2.78-6.55,2.3C39.34,57.05,36.58,55.31,38.76,51.8Z"/><path class="cls-219" d="M38.76,51.8c-.29-1.38-.68-2.65-1-3.92-.9-3.48-.86-5.28.56-6.32,1.17-.86,3.38-1.24,5.93-1.24s4,1.12,4.46,2.66,0,3.67-.33,5.7c-.19,1-.36,1.93-.43,2.69,1.39,1.4,1.45,2.8.77,3.94-1.34,2.24-4.19,2.78-6.55,2.3C39.34,57.05,36.58,55.31,38.76,51.8Z"/><path class="cls-215" d="M41.27,47.17a2.1,2.1,0,0,1,1.93,2.24c0,.1,0,.2,0,.3a5.41,5.41,0,0,1-3.34,1.19,2.4,2.4,0,0,1-.49-1.49A2.1,2.1,0,0,1,41.27,47.17Z"/><path class="cls-219" d="M41.27,47.17a2.1,2.1,0,0,1,1.93,2.24c0,.1,0,.2,0,.3a5.41,5.41,0,0,1-3.34,1.19,2.4,2.4,0,0,1-.49-1.49A2.1,2.1,0,0,1,41.27,47.17Z"/><path class="cls-220" d="M42.66,50a4.72,4.72,0,0,1-2,.85,2,2,0,0,1-.31-1.09c0-.89.51-1.6,1.14-1.6s1.14.71,1.14,1.6a1.93,1.93,0,0,1,0,.24"/><path class="cls-221" d="M42.13,50.3a4.06,4.06,0,0,1-.83.37,1,1,0,0,1-.38-.84c0-.5.29-.91.65-.91s.65.41.65.91A1.13,1.13,0,0,1,42.13,50.3Z"/><path class="cls-213" d="M42.13,50.3a4.06,4.06,0,0,1-.83.37,1,1,0,0,1-.38-.84c0-.5.29-.91.65-.91s.65.41.65.91A1.13,1.13,0,0,1,42.13,50.3Z"/><path class="cls-215" d="M45.94,48.17A1.7,1.7,0,0,0,44.38,50a2.11,2.11,0,0,0,0,.25,4.43,4.43,0,0,0,2.71,1,2,2,0,0,0,.4-1.21A1.7,1.7,0,0,0,45.94,48.17Z"/><path class="cls-219" d="M45.94,48.17A1.7,1.7,0,0,0,44.38,50a2.11,2.11,0,0,0,0,.25,4.43,4.43,0,0,0,2.71,1,2,2,0,0,0,.4-1.21A1.7,1.7,0,0,0,45.94,48.17Z"/><path class="cls-220" d="M44.82,50.33a4.48,4.48,0,0,0,1.89.83A2,2,0,0,0,47,50.1c0-.85-.5-1.55-1.11-1.55s-1.1.7-1.1,1.55a1.64,1.64,0,0,0,0,.23"/><path class="cls-221" d="M45.33,50.66a4.09,4.09,0,0,0,.8.36,1,1,0,0,0,.37-.82c0-.49-.28-.88-.63-.88s-.63.39-.63.88A1.14,1.14,0,0,0,45.33,50.66Z"/><path class="cls-213" d="M45.33,50.66a4.09,4.09,0,0,0,.8.36,1,1,0,0,0,.37-.82c0-.49-.28-.88-.63-.88s-.63.39-.63.88A1.14,1.14,0,0,0,45.33,50.66Z"/><path class="cls-217" d="M42.46,52c-2.62-.38-3.17-.92-4.11,1.85l-.19.68.86.24.83.76,1,.25,1.22.72,1,0,1.17.18,1.05-.34,1.15-.11.6-.37h.61l.8-.56.62-.45-.33-.68c-.9-2.84-1.51-2.3-4.53-1.87Z"/><path class="cls-219" d="M42.46,52c-2.62-.38-3.17-.92-4.11,1.85l-.19.68.86.24.83.76,1,.25,1.22.72,1,0,1.17.18,1.05-.34,1.15-.11.6-.37h.61l.8-.56.62-.45-.33-.68c-.9-2.84-1.51-2.3-4.53-1.87Z"/><path class="cls-215" d="M42.49,52.24c-2.32-.33-3-.8-3.76,1.18l.62-.45L39,54.13l.9-.88L40,54.74l1.2-.55L41,55.53l1.07-1.13.16,1.14.85-.57.54.9.19-1.72,1,1.87.38-1.82.94,1.19.24-1.07.86.88.21-1,.7.55.36-.59h0c-.85-2.52-1.47-2-4.33-1.63Z"/><polygon class="cls-217" points="39.83 45.45 40.6 45.92 41.29 45.76 41.52 45.36 41.35 44.83 40.35 44.12 39.65 44.06 39.12 44.18 38.62 44.55 38.1 45.47 38.22 46.35 38.52 46.17 38.87 45.54 39.43 45.36 39.83 45.45"/><polygon class="cls-219" points="39.83 45.45 40.6 45.92 41.29 45.76 41.52 45.36 41.35 44.83 40.35 44.12 39.65 44.06 39.12 44.18 38.62 44.55 38.1 45.47 38.22 46.35 38.52 46.17 38.87 45.54 39.43 45.36 39.83 45.45"/><polygon class="cls-215" points="41.2 44.82 40.3 44.18 39.66 44.13 39.17 44.24 38.71 44.59 38.23 45.44 38.29 45.88 38.48 45.77 38.81 45.19 39.32 45.02 39.69 45.1 40.41 45.54 41.05 45.39 41.27 45.02 41.2 44.82"/><path class="cls-217" d="M44.9,47.18,44.21,47l-.23-.4.18-.53a2.26,2.26,0,0,1,2.11-.4c1.43.41,1.84,1.89,1.08,1.43a1.91,1.91,0,0,0-.91-.41A2.53,2.53,0,0,0,44.9,47.18Z"/><path class="cls-219" d="M44.9,47.18,44.21,47l-.23-.4.18-.53a2.26,2.26,0,0,1,2.11-.4c1.43.41,1.84,1.89,1.08,1.43a1.91,1.91,0,0,0-.91-.41A2.53,2.53,0,0,0,44.9,47.18Z"/><path class="cls-215" d="M44.14,46.54l.11-.35a2.07,2.07,0,0,1,2-.39,2.12,2.12,0,0,1,1.26,1c0,.09-.15.1-.34,0a1.8,1.8,0,0,0-.87-.41,2.32,2.32,0,0,0-1.46.47l-.66-.16Z"/><path class="cls-211" d="M43.71,50.78c.76,0,1.38.47,1.38,1a1.43,1.43,0,1,1-1.38-1Z"/><path class="cls-219" d="M43.71,50.78c.76,0,1.38.47,1.38,1a1.43,1.43,0,1,1-1.38-1Z"/><path class="cls-215" d="M41.77,49.16c.11,0,.26.07.32.25s0,.35-.09.39-.26-.06-.33-.24,0-.35.1-.4"/><path class="cls-215" d="M46.16,49.61c.11,0,.26.07.32.25s0,.35-.09.39-.27-.07-.33-.24,0-.36.1-.4"/><path class="cls-208" d="M32.56,57.56c-.81-1-1-1.47-2.32-1.88L29.73,55c-1.07-1.25-2.31.64-.09,2-.1,1.54.06,2.22,1.58,2.41"/><polyline class="cls-208" points="29.59 57.05 28.99 58.06 28.81 58.84 29.2 60.93"/><path class="cls-208" d="M28.72,56.17l-.67-.45c-1.45-.91-2.24.5-.81,1.29l2,.78"/><path class="cls-208" d="M29.07,58l-1.65-.7c-1.32-.58-2,.87-.21,1.33l1.68.35"/><polygon class="cls-222" points="83.66 8.63 45.77 1.11 7.96 8.63 7.89 8.29 45.77 0.76 45.81 0.77 83.72 8.29 83.66 8.63"/><path class="cls-223" d="M84,11.83H7.44v55.7H84ZM11.19,63.92V15.49H80.24V63.92Z"/><g class="cls-224"><rect class="cls-225" x="7.63" y="13.39" width="76.17" height="1.94"/><rect class="cls-225" x="7.63" y="13.35" width="76.17" height="0.04"/><rect class="cls-226" x="7.63" y="13.3" width="76.17" height="0.04"/><rect class="cls-227" x="7.63" y="13.26" width="76.17" height="0.04"/><rect class="cls-228" x="7.63" y="13.21" width="76.17" height="0.04"/><rect class="cls-229" x="7.63" y="13.17" width="76.17" height="0.04"/><rect class="cls-230" x="7.63" y="13.12" width="76.17" height="0.04"/><rect class="cls-231" x="7.63" y="13.08" width="76.17" height="0.04"/><rect class="cls-232" x="7.63" y="13.03" width="76.17" height="0.04"/><rect class="cls-233" x="7.63" y="12.99" width="76.17" height="0.04"/><rect class="cls-234" x="7.63" y="12.95" width="76.17" height="0.04"/><rect class="cls-235" x="7.63" y="12.9" width="76.17" height="0.04"/><rect class="cls-236" x="7.63" y="12.86" width="76.17" height="0.04"/><rect class="cls-237" x="7.63" y="12.81" width="76.17" height="0.04"/><rect class="cls-238" x="7.63" y="12.77" width="76.17" height="0.04"/><rect class="cls-239" x="7.63" y="12.72" width="76.17" height="0.04"/><rect class="cls-240" x="7.63" y="12.68" width="76.17" height="0.04"/><rect class="cls-241" x="7.63" y="12.63" width="76.17" height="0.04"/><rect class="cls-242" x="7.63" y="12.59" width="76.17" height="0.04"/><rect class="cls-243" x="7.63" y="12.54" width="76.17" height="0.04"/><rect class="cls-244" x="7.63" y="12.5" width="76.17" height="0.04"/><rect class="cls-245" x="7.63" y="12.45" width="76.17" height="0.04"/><rect class="cls-246" x="7.63" y="12.41" width="76.17" height="0.04"/><rect class="cls-247" x="7.63" y="12.36" width="76.17" height="0.04"/><rect class="cls-248" x="7.63" y="12.32" width="76.17" height="0.04"/><rect class="cls-249" x="7.63" y="12.27" width="76.17" height="0.04"/><rect class="cls-250" x="7.63" y="12.23" width="76.17" height="0.04"/><rect class="cls-251" x="7.63" y="12.18" width="76.17" height="0.04"/><rect class="cls-252" x="7.63" y="12.14" width="76.17" height="0.04"/><rect class="cls-253" x="7.63" y="12.09" width="76.17" height="0.04"/><rect class="cls-254" x="7.63" y="12.05" width="76.17" height="0.04"/><rect class="cls-255" x="7.63" y="12.01" width="76.17" height="0.04"/><rect class="cls-256" x="7.63" y="11.96" width="76.17" height="0.04"/><path class="cls-256" d="M83.79,12h0Z"/></g><g class="cls-257"><polygon class="cls-225" points="83.9 43.54 83.07 11.96 83.9 11.96 83.9 43.54"/><polygon class="cls-225" points="83.9 47.6 82.96 11.96 83.07 11.96 83.9 43.54 83.9 47.6"/><polygon class="cls-226" points="83.9 51.67 82.86 11.96 82.96 11.96 83.9 47.6 83.9 51.67"/><polygon class="cls-227" points="83.9 55.73 82.75 11.96 82.86 11.96 83.9 51.67 83.9 55.73"/><polygon class="cls-228" points="83.9 59.79 82.64 11.96 82.75 11.96 83.9 55.73 83.9 59.79"/><polygon class="cls-229" points="83.9 63.86 82.53 11.96 82.64 11.96 83.9 59.79 83.9 63.86"/><polygon class="cls-230" points="83.89 67.43 82.43 11.96 82.53 11.96 83.9 63.86 83.9 67.43 83.89 67.43"/><polygon class="cls-231" points="83.78 67.43 82.32 11.96 82.43 11.96 83.89 67.43 83.78 67.43"/><polygon class="cls-232" points="83.67 67.43 82.21 11.96 82.32 11.96 83.78 67.43 83.67 67.43"/><polygon class="cls-233" points="83.57 67.43 82.11 11.96 82.21 11.96 83.67 67.43 83.57 67.43"/><polygon class="cls-234" points="83.46 67.43 82 11.96 82.11 11.96 83.57 67.43 83.46 67.43"/><polygon class="cls-235" points="83.35 67.43 81.89 11.96 82 11.96 83.46 67.43 83.35 67.43"/><polygon class="cls-236" points="83.25 67.43 81.79 11.96 81.89 11.96 83.35 67.43 83.25 67.43"/><polygon class="cls-237" points="83.14 67.43 81.68 11.96 81.79 11.96 83.25 67.43 83.14 67.43"/><polygon class="cls-238" points="83.03 67.43 81.57 11.96 81.68 11.96 83.14 67.43 83.03 67.43"/><polygon class="cls-239" points="82.93 67.43 81.47 11.96 81.57 11.96 83.03 67.43 82.93 67.43"/><polygon class="cls-240" points="82.82 67.43 81.36 11.96 81.47 11.96 82.93 67.43 82.82 67.43"/><polygon class="cls-241" points="82.71 67.43 81.25 11.96 81.36 11.96 82.82 67.43 82.71 67.43"/><polygon class="cls-242" points="82.61 67.43 81.14 11.96 81.25 11.96 82.71 67.43 82.61 67.43"/><polygon class="cls-243" points="82.5 67.43 81.04 11.96 81.14 11.96 82.61 67.43 82.5 67.43"/><polygon class="cls-244" points="82.39 67.43 80.93 11.96 81.04 11.96 82.5 67.43 82.39 67.43"/><polygon class="cls-245" points="82.28 67.43 80.82 11.96 80.93 11.96 82.39 67.43 82.28 67.43"/><polygon class="cls-246" points="82.18 67.43 80.72 11.96 80.82 11.96 82.28 67.43 82.18 67.43"/><polygon class="cls-247" points="82.07 67.43 80.61 11.96 80.72 11.96 82.18 67.43 82.07 67.43"/><polygon class="cls-248" points="81.96 67.43 80.5 11.96 80.61 11.96 82.07 67.43 81.96 67.43"/><polygon class="cls-249" points="81.86 67.43 80.4 11.96 80.5 11.96 81.96 67.43 81.86 67.43"/><polygon class="cls-250" points="81.75 67.43 80.4 16.01 80.4 11.96 80.4 11.96 81.86 67.43 81.75 67.43"/><polygon class="cls-251" points="81.64 67.43 80.4 20.07 80.4 16.01 81.75 67.43 81.64 67.43"/><polygon class="cls-252" points="81.53 67.43 80.4 24.14 80.4 20.07 81.64 67.43 81.53 67.43"/><polygon class="cls-253" points="81.43 67.43 80.4 28.2 80.4 24.14 81.53 67.43 81.43 67.43"/><polygon class="cls-254" points="81.32 67.43 80.4 32.26 80.4 28.2 81.43 67.43 81.32 67.43"/><polygon class="cls-255" points="81.21 67.43 80.4 36.33 80.4 32.26 81.32 67.43 81.21 67.43"/><polygon class="cls-256" points="81.11 67.43 80.4 40.39 80.4 36.33 81.21 67.43 81.11 67.43"/><polygon class="cls-256" points="80.4 40.39 81.11 67.43 80.4 67.43 80.4 40.39"/></g><g class="cls-258"><rect class="cls-225" x="7.76" y="65.5" width="76.05" height="1.94"/><rect class="cls-225" x="7.76" y="65.46" width="76.05" height="0.04"/><rect class="cls-226" x="7.76" y="65.41" width="76.05" height="0.04"/><rect class="cls-227" x="7.76" y="65.37" width="76.05" height="0.04"/><rect class="cls-228" x="7.76" y="65.32" width="76.05" height="0.04"/><rect class="cls-229" x="7.76" y="65.28" width="76.05" height="0.04"/><rect class="cls-230" x="7.76" y="65.23" width="76.05" height="0.04"/><rect class="cls-231" x="7.76" y="65.19" width="76.05" height="0.04"/><rect class="cls-232" x="7.76" y="65.14" width="76.05" height="0.04"/><rect class="cls-233" x="7.76" y="65.1" width="76.05" height="0.04"/><rect class="cls-234" x="7.76" y="65.05" width="76.05" height="0.04"/><rect class="cls-235" x="7.76" y="65.01" width="76.05" height="0.04"/><rect class="cls-236" x="7.76" y="64.97" width="76.05" height="0.04"/><rect class="cls-237" x="7.76" y="64.92" width="76.05" height="0.04"/><rect class="cls-238" x="7.76" y="64.88" width="76.05" height="0.04"/><rect class="cls-239" x="7.76" y="64.83" width="76.05" height="0.04"/><rect class="cls-240" x="7.76" y="64.79" width="76.05" height="0.04"/><rect class="cls-241" x="7.76" y="64.74" width="76.05" height="0.04"/><rect class="cls-242" x="7.76" y="64.7" width="76.05" height="0.04"/><rect class="cls-243" x="7.76" y="64.65" width="76.05" height="0.04"/><rect class="cls-244" x="7.76" y="64.61" width="76.05" height="0.04"/><rect class="cls-245" x="7.76" y="64.56" width="76.05" height="0.04"/><rect class="cls-246" x="7.76" y="64.52" width="76.05" height="0.04"/><rect class="cls-247" x="7.76" y="64.47" width="76.05" height="0.04"/><rect class="cls-248" x="7.76" y="64.43" width="76.05" height="0.04"/><rect class="cls-249" x="7.76" y="64.38" width="76.05" height="0.04"/><rect class="cls-250" x="7.76" y="64.34" width="76.05" height="0.04"/><rect class="cls-251" x="7.76" y="64.29" width="76.05" height="0.04"/><rect class="cls-252" x="7.76" y="64.25" width="76.05" height="0.04"/><rect class="cls-253" x="7.76" y="64.2" width="76.05" height="0.04"/><rect class="cls-254" x="7.76" y="64.16" width="76.05" height="0.04"/><rect class="cls-255" x="7.76" y="64.11" width="76.05" height="0.04"/><rect class="cls-256" x="7.76" y="64.07" width="76.05" height="0.04"/><path class="cls-256" d="M83.81,64.07h0Z"/></g><g class="cls-259"><path class="cls-225" d="M7.53,12v0Z"/><rect class="cls-225" x="7.53" y="11.97" width="0.11" height="55.48"/><rect class="cls-226" x="7.64" y="11.97" width="0.11" height="55.48"/><rect class="cls-227" x="7.75" y="11.97" width="0.11" height="55.48"/><rect class="cls-228" x="7.86" y="11.97" width="0.11" height="55.48"/><rect class="cls-229" x="7.97" y="11.97" width="0.11" height="55.48"/><rect class="cls-230" x="8.09" y="11.97" width="0.11" height="55.48"/><rect class="cls-231" x="8.2" y="11.97" width="0.11" height="55.48"/><rect class="cls-232" x="8.31" y="11.97" width="0.11" height="55.48"/><rect class="cls-233" x="8.42" y="11.97" width="0.11" height="55.48"/><rect class="cls-234" x="8.53" y="11.97" width="0.11" height="55.48"/><rect class="cls-235" x="8.65" y="11.97" width="0.11" height="55.48"/><rect class="cls-236" x="8.76" y="11.97" width="0.11" height="55.48"/><rect class="cls-237" x="8.87" y="11.97" width="0.11" height="55.48"/><rect class="cls-238" x="8.98" y="11.97" width="0.11" height="55.48"/><rect class="cls-239" x="9.09" y="11.97" width="0.11" height="55.48"/><rect class="cls-240" x="9.21" y="11.97" width="0.11" height="55.48"/><rect class="cls-241" x="9.32" y="11.97" width="0.11" height="55.48"/><rect class="cls-242" x="9.43" y="11.97" width="0.11" height="55.48"/><rect class="cls-243" x="9.54" y="11.97" width="0.11" height="55.48"/><rect class="cls-244" x="9.65" y="11.97" width="0.11" height="55.48"/><rect class="cls-245" x="9.76" y="11.97" width="0.11" height="55.48"/><rect class="cls-246" x="9.88" y="11.97" width="0.11" height="55.48"/><rect class="cls-247" x="9.99" y="11.97" width="0.11" height="55.48"/><rect class="cls-248" x="10.1" y="11.97" width="0.11" height="55.48"/><rect class="cls-249" x="10.21" y="11.97" width="0.11" height="55.48"/><rect class="cls-250" x="10.32" y="11.97" width="0.11" height="55.48"/><rect class="cls-251" x="10.44" y="11.97" width="0.11" height="55.48"/><rect class="cls-252" x="10.55" y="11.97" width="0.11" height="55.48"/><rect class="cls-253" x="10.66" y="11.97" width="0.11" height="55.48"/><rect class="cls-254" x="10.77" y="11.97" width="0.11" height="55.48"/><rect class="cls-255" x="10.88" y="11.97" width="0.11" height="55.48"/><rect class="cls-256" x="11" y="11.97" width="0.11" height="55.48"/><path class="cls-256" d="M11.11,67.45v0Z"/></g><path class="cls-260" d="M88.08,7.63H3.39v64H88.08ZM7.53,67.45V11.83H83.92V67.45Z"/><g class="cls-261"><rect class="cls-262" x="3.59" y="9.43" width="84.26" height="2.23"/><rect class="cls-262" x="3.59" y="9.39" width="84.26" height="0.03"/><rect class="cls-263" x="3.59" y="9.36" width="84.26" height="0.03"/><rect class="cls-264" x="3.59" y="9.33" width="84.26" height="0.03"/><rect class="cls-265" x="3.59" y="9.29" width="84.26" height="0.03"/><rect class="cls-266" x="3.59" y="9.26" width="84.26" height="0.03"/><rect class="cls-267" x="3.59" y="9.23" width="84.26" height="0.03"/><rect class="cls-268" x="3.59" y="9.19" width="84.26" height="0.03"/><rect class="cls-269" x="3.59" y="9.16" width="84.26" height="0.03"/><rect class="cls-270" x="3.59" y="9.13" width="84.26" height="0.03"/><rect class="cls-271" x="3.59" y="9.1" width="84.26" height="0.03"/><rect class="cls-272" x="3.59" y="9.06" width="84.26" height="0.03"/><rect class="cls-273" x="3.59" y="9.03" width="84.26" height="0.03"/><rect class="cls-274" x="3.59" y="9" width="84.26" height="0.03"/><rect class="cls-275" x="3.59" y="8.96" width="84.26" height="0.03"/><rect class="cls-276" x="3.59" y="8.93" width="84.26" height="0.03"/><rect class="cls-277" x="3.59" y="8.9" width="84.26" height="0.03"/><rect class="cls-278" x="3.59" y="8.87" width="84.26" height="0.03"/><rect class="cls-279" x="3.59" y="8.83" width="84.26" height="0.03"/><rect class="cls-280" x="3.59" y="8.8" width="84.26" height="0.03"/><rect class="cls-281" x="3.59" y="8.77" width="84.26" height="0.03"/><rect class="cls-282" x="3.59" y="8.73" width="84.26" height="0.03"/><rect class="cls-283" x="3.59" y="8.7" width="84.26" height="0.03"/><rect class="cls-284" x="3.59" y="8.67" width="84.26" height="0.03"/><rect class="cls-285" x="3.59" y="8.64" width="84.26" height="0.03"/><rect class="cls-286" x="3.59" y="8.6" width="84.26" height="0.03"/><rect class="cls-287" x="3.59" y="8.57" width="84.26" height="0.03"/><rect class="cls-288" x="3.59" y="8.54" width="84.26" height="0.03"/><rect class="cls-289" x="3.59" y="8.5" width="84.26" height="0.03"/><rect class="cls-290" x="3.59" y="8.47" width="84.26" height="0.03"/><rect class="cls-291" x="3.59" y="8.44" width="84.26" height="0.03"/><rect class="cls-292" x="3.59" y="8.41" width="84.26" height="0.03"/><rect class="cls-293" x="3.59" y="8.37" width="84.26" height="0.03"/><rect class="cls-294" x="3.59" y="8.34" width="84.26" height="0.03"/><rect class="cls-295" x="3.59" y="8.31" width="84.26" height="0.03"/><rect class="cls-296" x="3.59" y="8.27" width="84.26" height="0.03"/><rect class="cls-297" x="3.59" y="8.24" width="84.26" height="0.03"/><rect class="cls-298" x="3.59" y="8.21" width="84.26" height="0.03"/><rect class="cls-299" x="3.59" y="8.18" width="84.26" height="0.03"/><rect class="cls-300" x="3.59" y="8.14" width="84.26" height="0.03"/><rect class="cls-301" x="3.59" y="8.11" width="84.26" height="0.03"/><rect class="cls-302" x="3.59" y="8.08" width="84.26" height="0.03"/><rect class="cls-303" x="3.59" y="8.04" width="84.26" height="0.03"/><rect class="cls-304" x="3.59" y="8.01" width="84.26" height="0.03"/><rect class="cls-305" x="3.59" y="7.98" width="84.26" height="0.03"/><rect class="cls-306" x="3.59" y="7.94" width="84.26" height="0.03"/><rect class="cls-307" x="3.59" y="7.91" width="84.26" height="0.03"/><rect class="cls-308" x="3.59" y="7.88" width="84.26" height="0.03"/><rect class="cls-309" x="3.59" y="7.85" width="84.26" height="0.03"/><rect class="cls-310" x="3.59" y="7.81" width="84.26" height="0.03"/><rect x="3.59" y="7.78" width="84.26" height="0.03"/><path d="M87.85,7.78h0Z"/></g><g class="cls-311"><polygon class="cls-262" points="87.97 43.09 87.04 7.78 87.97 7.78 87.97 43.09"/><polygon class="cls-262" points="87.97 45.99 86.96 7.78 87.04 7.78 87.97 43.09 87.97 45.99"/><polygon class="cls-263" points="87.97 48.9 86.89 7.78 86.96 7.78 87.97 45.99 87.97 48.9"/><polygon class="cls-264" points="87.97 51.81 86.81 7.78 86.89 7.78 87.97 48.9 87.97 51.81"/><polygon class="cls-265" points="87.97 54.72 86.73 7.78 86.81 7.78 87.97 51.81 87.97 54.72"/><polygon class="cls-266" points="87.97 57.62 86.66 7.78 86.73 7.78 87.97 54.72 87.97 57.62"/><polygon class="cls-267" points="87.97 60.53 86.58 7.78 86.66 7.78 87.97 57.62 87.97 60.53"/><polygon class="cls-268" points="87.97 63.44 86.5 7.78 86.58 7.78 87.97 60.53 87.97 63.44"/><polygon class="cls-269" points="87.97 66.34 86.43 7.78 86.5 7.78 87.97 63.44 87.97 66.34"/><polygon class="cls-270" points="87.97 69.25 86.35 7.78 86.43 7.78 87.97 66.34 87.97 69.25"/><polygon class="cls-271" points="87.95 71.47 86.27 7.78 86.35 7.78 87.97 69.25 87.97 71.47 87.95 71.47"/><polygon class="cls-272" points="87.87 71.47 86.2 7.78 86.27 7.78 87.95 71.47 87.87 71.47"/><polygon class="cls-273" points="87.8 71.47 86.12 7.78 86.2 7.78 87.87 71.47 87.8 71.47"/><polygon class="cls-274" points="87.72 71.47 86.04 7.78 86.12 7.78 87.8 71.47 87.72 71.47"/><polygon class="cls-275" points="87.64 71.47 85.97 7.78 86.04 7.78 87.72 71.47 87.64 71.47"/><polygon class="cls-276" points="87.57 71.47 85.89 7.78 85.97 7.78 87.64 71.47 87.57 71.47"/><polygon class="cls-277" points="87.49 71.47 85.81 7.78 85.89 7.78 87.57 71.47 87.49 71.47"/><polygon class="cls-278" points="87.42 71.47 85.74 7.78 85.81 7.78 87.49 71.47 87.42 71.47"/><polygon class="cls-279" points="87.34 71.47 85.66 7.78 85.74 7.78 87.42 71.47 87.34 71.47"/><polygon class="cls-280" points="87.26 71.47 85.58 7.78 85.66 7.78 87.34 71.47 87.26 71.47"/><polygon class="cls-281" points="87.19 71.47 85.51 7.78 85.58 7.78 87.26 71.47 87.19 71.47"/><polygon class="cls-282" points="87.11 71.47 85.43 7.78 85.51 7.78 87.19 71.47 87.11 71.47"/><polygon class="cls-283" points="87.03 71.47 85.36 7.78 85.43 7.78 87.11 71.47 87.03 71.47"/><polygon class="cls-284" points="86.96 71.47 85.28 7.78 85.36 7.78 87.03 71.47 86.96 71.47"/><polygon class="cls-285" points="86.88 71.47 85.2 7.78 85.28 7.78 86.96 71.47 86.88 71.47"/><polygon class="cls-286" points="86.8 71.47 85.13 7.78 85.2 7.78 86.88 71.47 86.8 71.47"/><polygon class="cls-287" points="86.73 71.47 85.05 7.78 85.13 7.78 86.8 71.47 86.73 71.47"/><polygon class="cls-288" points="86.65 71.47 84.97 7.78 85.05 7.78 86.73 71.47 86.65 71.47"/><polygon class="cls-289" points="86.57 71.47 84.9 7.78 84.97 7.78 86.65 71.47 86.57 71.47"/><polygon class="cls-290" points="86.5 71.47 84.82 7.78 84.9 7.78 86.57 71.47 86.5 71.47"/><polygon class="cls-291" points="86.42 71.47 84.74 7.78 84.82 7.78 86.5 71.47 86.42 71.47"/><polygon class="cls-292" points="86.34 71.47 84.67 7.78 84.74 7.78 86.42 71.47 86.34 71.47"/><polygon class="cls-293" points="86.27 71.47 84.59 7.78 84.67 7.78 86.34 71.47 86.27 71.47"/><polygon class="cls-294" points="86.19 71.47 84.51 7.78 84.59 7.78 86.27 71.47 86.19 71.47"/><polygon class="cls-295" points="86.11 71.47 84.44 7.78 84.51 7.78 86.19 71.47 86.11 71.47"/><polygon class="cls-296" points="86.04 71.47 84.36 7.78 84.44 7.78 86.11 71.47 86.04 71.47"/><polygon class="cls-297" points="85.96 71.47 84.28 7.78 84.36 7.78 86.04 71.47 85.96 71.47"/><polygon class="cls-298" points="85.88 71.47 84.21 7.78 84.28 7.78 85.96 71.47 85.88 71.47"/><polygon class="cls-299" points="85.81 71.47 84.13 7.78 84.21 7.78 85.88 71.47 85.81 71.47"/><polygon class="cls-300" points="85.73 71.47 84.09 9.16 84.09 7.78 84.13 7.78 85.81 71.47 85.73 71.47"/><polygon class="cls-301" points="85.66 71.47 84.09 12.07 84.09 9.16 85.73 71.47 85.66 71.47"/><polygon class="cls-302" points="85.58 71.47 84.09 14.98 84.09 12.07 85.66 71.47 85.58 71.47"/><polygon class="cls-303" points="85.5 71.47 84.09 17.88 84.09 14.98 85.58 71.47 85.5 71.47"/><polygon class="cls-304" points="85.42 71.47 84.09 20.79 84.09 17.88 85.5 71.47 85.42 71.47"/><polygon class="cls-305" points="85.35 71.47 84.09 23.7 84.09 20.79 85.42 71.47 85.35 71.47"/><polygon class="cls-306" points="85.27 71.47 84.09 26.61 84.09 23.7 85.35 71.47 85.27 71.47"/><polygon class="cls-307" points="85.2 71.47 84.09 29.51 84.09 26.61 85.27 71.47 85.2 71.47"/><polygon class="cls-308" points="85.12 71.47 84.09 32.42 84.09 29.51 85.2 71.47 85.12 71.47"/><polygon class="cls-309" points="85.04 71.47 84.09 35.33 84.09 32.42 85.12 71.47 85.04 71.47"/><polygon class="cls-310" points="84.97 71.47 84.09 38.24 84.09 35.33 85.04 71.47 84.97 71.47"/><polygon points="84.89 71.47 84.09 41.14 84.09 38.24 84.97 71.47 84.89 71.47"/><polygon points="84.09 41.14 84.89 71.47 84.09 71.47 84.09 41.14"/></g><g class="cls-312"><rect class="cls-262" x="3.74" y="69.26" width="84.13" height="2.23"/><rect class="cls-262" x="3.74" y="69.23" width="84.13" height="0.03"/><rect class="cls-263" x="3.74" y="69.2" width="84.13" height="0.03"/><rect class="cls-264" x="3.74" y="69.17" width="84.13" height="0.03"/><rect class="cls-265" x="3.74" y="69.13" width="84.13" height="0.03"/><rect class="cls-266" x="3.74" y="69.1" width="84.13" height="0.03"/><rect class="cls-267" x="3.74" y="69.07" width="84.13" height="0.03"/><rect class="cls-268" x="3.74" y="69.03" width="84.13" height="0.03"/><rect class="cls-269" x="3.74" y="69" width="84.13" height="0.03"/><rect class="cls-270" x="3.74" y="68.97" width="84.13" height="0.03"/><rect class="cls-271" x="3.74" y="68.93" width="84.13" height="0.03"/><rect class="cls-272" x="3.74" y="68.9" width="84.13" height="0.03"/><rect class="cls-273" x="3.74" y="68.87" width="84.13" height="0.03"/><rect class="cls-274" x="3.74" y="68.84" width="84.13" height="0.03"/><rect class="cls-275" x="3.74" y="68.8" width="84.13" height="0.03"/><rect class="cls-276" x="3.74" y="68.77" width="84.13" height="0.03"/><rect class="cls-277" x="3.74" y="68.74" width="84.13" height="0.03"/><rect class="cls-278" x="3.74" y="68.7" width="84.13" height="0.03"/><rect class="cls-279" x="3.74" y="68.67" width="84.13" height="0.03"/><rect class="cls-280" x="3.74" y="68.64" width="84.13" height="0.03"/><rect class="cls-281" x="3.74" y="68.61" width="84.13" height="0.03"/><rect class="cls-282" x="3.74" y="68.57" width="84.13" height="0.03"/><rect class="cls-283" x="3.74" y="68.54" width="84.13" height="0.03"/><rect class="cls-284" x="3.74" y="68.51" width="84.13" height="0.03"/><rect class="cls-285" x="3.74" y="68.47" width="84.13" height="0.03"/><rect class="cls-286" x="3.74" y="68.44" width="84.13" height="0.03"/><rect class="cls-287" x="3.74" y="68.41" width="84.13" height="0.03"/><rect class="cls-288" x="3.74" y="68.38" width="84.13" height="0.03"/><rect class="cls-289" x="3.74" y="68.34" width="84.13" height="0.03"/><rect class="cls-290" x="3.74" y="68.31" width="84.13" height="0.03"/><rect class="cls-291" x="3.74" y="68.28" width="84.13" height="0.03"/><rect class="cls-292" x="3.74" y="68.24" width="84.13" height="0.03"/><rect class="cls-293" x="3.74" y="68.21" width="84.13" height="0.03"/><rect class="cls-294" x="3.74" y="68.18" width="84.13" height="0.03"/><rect class="cls-295" x="3.74" y="68.15" width="84.13" height="0.03"/><rect class="cls-296" x="3.74" y="68.11" width="84.13" height="0.03"/><rect class="cls-297" x="3.74" y="68.08" width="84.13" height="0.03"/><rect class="cls-298" x="3.74" y="68.05" width="84.13" height="0.03"/><rect class="cls-299" x="3.74" y="68.01" width="84.13" height="0.03"/><rect class="cls-300" x="3.74" y="67.98" width="84.13" height="0.03"/><rect class="cls-301" x="3.74" y="67.95" width="84.13" height="0.03"/><rect class="cls-302" x="3.74" y="67.92" width="84.13" height="0.03"/><rect class="cls-303" x="3.74" y="67.88" width="84.13" height="0.03"/><rect class="cls-304" x="3.74" y="67.85" width="84.13" height="0.03"/><rect class="cls-305" x="3.74" y="67.82" width="84.13" height="0.03"/><rect class="cls-306" x="3.74" y="67.78" width="84.13" height="0.03"/><rect class="cls-307" x="3.74" y="67.75" width="84.13" height="0.03"/><rect class="cls-308" x="3.74" y="67.72" width="84.13" height="0.03"/><rect class="cls-309" x="3.74" y="67.68" width="84.13" height="0.03"/><rect class="cls-310" x="3.74" y="67.65" width="84.13" height="0.03"/><rect x="3.74" y="67.62" width="84.13" height="0.03"/><path d="M87.87,67.62h0Z"/></g><g class="cls-313"><path class="cls-262" d="M3.48,7.79v0Z"/><rect class="cls-262" x="3.48" y="7.79" width="0.08" height="63.71"/><rect class="cls-263" x="3.56" y="7.79" width="0.08" height="63.71"/><rect class="cls-264" x="3.64" y="7.79" width="0.08" height="63.71"/><rect class="cls-265" x="3.72" y="7.79" width="0.08" height="63.71"/><rect class="cls-266" x="3.8" y="7.79" width="0.08" height="63.71"/><rect class="cls-267" x="3.88" y="7.79" width="0.08" height="63.71"/><rect class="cls-268" x="3.96" y="7.79" width="0.08" height="63.71"/><rect class="cls-269" x="4.03" y="7.79" width="0.08" height="63.71"/><rect class="cls-270" x="4.11" y="7.79" width="0.08" height="63.71"/><rect class="cls-271" x="4.19" y="7.79" width="0.08" height="63.71"/><rect class="cls-272" x="4.27" y="7.79" width="0.08" height="63.71"/><rect class="cls-273" x="4.35" y="7.79" width="0.08" height="63.71"/><rect class="cls-274" x="4.43" y="7.79" width="0.08" height="63.71"/><rect class="cls-275" x="4.51" y="7.79" width="0.08" height="63.71"/><rect class="cls-276" x="4.59" y="7.79" width="0.08" height="63.71"/><rect class="cls-277" x="4.67" y="7.79" width="0.08" height="63.71"/><rect class="cls-278" x="4.75" y="7.79" width="0.08" height="63.71"/><rect class="cls-279" x="4.83" y="7.79" width="0.08" height="63.71"/><rect class="cls-280" x="4.91" y="7.79" width="0.08" height="63.71"/><rect class="cls-281" x="4.99" y="7.79" width="0.08" height="63.71"/><rect class="cls-282" x="5.06" y="7.79" width="0.08" height="63.71"/><rect class="cls-283" x="5.14" y="7.79" width="0.08" height="63.71"/><rect class="cls-284" x="5.22" y="7.79" width="0.08" height="63.71"/><rect class="cls-285" x="5.3" y="7.79" width="0.08" height="63.71"/><rect class="cls-286" x="5.38" y="7.79" width="0.08" height="63.71"/><rect class="cls-287" x="5.46" y="7.79" width="0.08" height="63.71"/><rect class="cls-288" x="5.54" y="7.79" width="0.08" height="63.71"/><rect class="cls-289" x="5.62" y="7.79" width="0.08" height="63.71"/><rect class="cls-290" x="5.7" y="7.79" width="0.08" height="63.71"/><rect class="cls-291" x="5.78" y="7.79" width="0.08" height="63.71"/><rect class="cls-292" x="5.86" y="7.79" width="0.08" height="63.71"/><rect class="cls-293" x="5.94" y="7.79" width="0.08" height="63.71"/><rect class="cls-294" x="6.02" y="7.79" width="0.08" height="63.71"/><rect class="cls-295" x="6.09" y="7.79" width="0.08" height="63.71"/><rect class="cls-296" x="6.17" y="7.79" width="0.08" height="63.71"/><rect class="cls-297" x="6.25" y="7.79" width="0.08" height="63.71"/><rect class="cls-298" x="6.33" y="7.79" width="0.08" height="63.71"/><rect class="cls-299" x="6.41" y="7.79" width="0.08" height="63.71"/><rect class="cls-300" x="6.49" y="7.79" width="0.08" height="63.71"/><rect class="cls-301" x="6.57" y="7.79" width="0.08" height="63.71"/><rect class="cls-302" x="6.65" y="7.79" width="0.08" height="63.71"/><rect class="cls-303" x="6.73" y="7.79" width="0.08" height="63.71"/><rect class="cls-304" x="6.81" y="7.79" width="0.08" height="63.71"/><rect class="cls-305" x="6.89" y="7.79" width="0.08" height="63.71"/><rect class="cls-306" x="6.97" y="7.79" width="0.08" height="63.71"/><rect class="cls-307" x="7.05" y="7.79" width="0.08" height="63.71"/><rect class="cls-308" x="7.12" y="7.79" width="0.08" height="63.71"/><rect class="cls-309" x="7.2" y="7.79" width="0.08" height="63.71"/><rect class="cls-310" x="7.28" y="7.79" width="0.08" height="63.71"/><rect x="7.36" y="7.79" width="0.08" height="63.71"/><path d="M7.44,71.5v0Z"/></g><path class="cls-222" d="M46.75.94A.94.94,0,1,1,45.81,0,.94.94,0,0,1,46.75.94Z"/><path class="cls-314" d="M45.81.72a.6.6,0,0,1,.58.45.77.77,0,0,0,0-.15.6.6,0,0,0-1.19,0,.77.77,0,0,0,0,.15A.6.6,0,0,1,45.81.72Z"/></g></g></g></g></svg>