<svg xmlns="http://www.w3.org/2000/svg" xmlns:xlink="http://www.w3.org/1999/xlink" viewBox="0 0 78 31.69"><defs><style>.cls-1{fill:url(#radial-gradient);}.cls-2{fill:#3f3f3f;}.cls-3{fill:#303030;}.cls-4{fill:#33b1ff;opacity:0.71;}.cls-5{fill:#525f67;}.cls-6{fill:#869ba8;opacity:0.16;}.cls-7{fill:#697885;}.cls-8,.cls-9{fill:#d3d3d3;}.cls-11,.cls-8{opacity:0.43;}.cls-10{fill:#d11100;}.cls-11{fill:#d1d1d1;}</style><radialGradient id="radial-gradient" cx="39" cy="15.84" r="27.39" gradientTransform="translate(-4.03 5.35) scale(1.1 0.66)" gradientUnits="userSpaceOnUse"><stop offset="0" stop-color="#020202"/><stop offset="1" stop-opacity="0"/></radialGradient></defs><title>robot_vacuum_cleaner</title><g id="Layer_2" data-name="Layer 2"><g id="robot_vacuum_cleaner"><g id="robot_vacuum_cleaner-2" data-name="robot_vacuum_cleaner"><ellipse class="cls-1" cx="39" cy="15.84" rx="39" ry="15.84"/><path class="cls-2" d="M67.05,16.11c0,5.93-12.4,9.78-27.7,9.78S11.66,22,11.66,16.11v-4H67.05Z"/><path class="cls-3" d="M67.05,16.11c0,5.93-12.4,9.78-27.7,9.78V12.09h27.7Z"/><path class="cls-4" d="M39.35,23.54c-15.29,0-27.69-3.85-27.69-9.78v1.29c0,5.94,12.4,9.78,27.69,9.78s27.7-3.84,27.7-9.78V13.76C67.05,19.69,54.65,23.54,39.35,23.54Z"/><ellipse class="cls-5" cx="39.35" cy="11.59" rx="27.7" ry="10.74"/><path class="cls-6" d="M67.05,11.59c0,5.93-12.4,10.74-27.7,10.74C32,15.1,29.09,9.31,39.35.84,54.65.84,67.05,5.65,67.05,11.59Z"/><ellipse class="cls-7" cx="39.35" cy="10.83" rx="21.48" ry="7.85"/><path class="cls-8" d="M26.7,8.47c1.81-2,6.79-3.41,12.65-3.41S50.19,6.49,52,8.47h2.76c-1.91-2.54-8.09-4.4-15.42-4.4S25.84,5.93,23.94,8.47Z"/><path class="cls-9" d="M39.35,5.85c-6,0-10.81,1.76-10.81,3.93s4.84,3.93,10.81,3.93S50.17,12,50.17,9.78,45.33,5.85,39.35,5.85Zm0,4.73c-1.48,0-2.68-.43-2.68-1s1.2-1,2.68-1,2.68.43,2.68,1S40.83,10.58,39.35,10.58Z"/><path class="cls-10" d="M43.29,6.72a18.76,18.76,0,0,0-4-.3,17.9,17.9,0,0,0-3.94.3V8a22.61,22.61,0,0,1,4-.3,22.41,22.41,0,0,1,4,.3Z"/><path class="cls-11" d="M43.29,6.72a18.76,18.76,0,0,0-4-.3c-.5.51-.5.9,0,1.24a22.41,22.41,0,0,1,4,.3Z"/></g></g></g></svg>