<svg xmlns="http://www.w3.org/2000/svg" xmlns:xlink="http://www.w3.org/1999/xlink" viewBox="0 0 43.65 80.6"><defs><style>.cls-1{fill:none;}.cls-2{opacity:0.44;fill:url(#radial-gradient);}.cls-3{clip-path:url(#clip-path);}.cls-4{fill:#5c5f63;}.cls-5{fill:#2294c6;}.cls-6{fill:#808285;}.cls-7{fill:#a7a9ac;}.cls-8{fill:#fff;}.cls-9{fill:#cbcfd3;}.cls-10{clip-path:url(#clip-path-2);}.cls-11{opacity:0.3;}.cls-12{clip-path:url(#clip-path-3);}.cls-13{fill:#3bbaeb;}.cls-14{fill:#3b99cc;}.cls-15{clip-path:url(#clip-path-4);}.cls-16{opacity:0.6;}.cls-17{clip-path:url(#clip-path-5);}.cls-18{fill:#212121;}.cls-19{fill:#2e2e2e;}.cls-20{clip-path:url(#clip-path-6);}.cls-21{opacity:0.72;}.cls-22{clip-path:url(#clip-path-7);}.cls-23{clip-path:url(#clip-path-8);}.cls-24{clip-path:url(#clip-path-9);}.cls-25{clip-path:url(#clip-path-10);}.cls-26{opacity:0.5;}.cls-27{clip-path:url(#clip-path-11);}.cls-28{clip-path:url(#clip-path-12);}.cls-29{fill:#4d4d4d;}.cls-30{clip-path:url(#clip-path-13);}.cls-31{fill:#999;}.cls-32{fill:#838383;}.cls-33{fill:#737373;}.cls-34{fill:#696969;}.cls-35{fill:#7c7c7c;}.cls-36{fill:#666;}.cls-37{fill:#585858;}.cls-38{fill:#787878;}.cls-39{fill:#606060;}.cls-40{fill:#525252;}.cls-41{fill:#656565;}.cls-42{fill:#575757;}.cls-43{fill:#6f6f6f;}.cls-44{fill:#616161;}.cls-45{fill:#8b8b8b;}.cls-46{fill:#8a8a8a;}.cls-47{fill:#828282;}.cls-48{fill:#5b5b5b;}.cls-49{fill:#5f5f5f;}.cls-50{fill:#535353;}.cls-51{fill:#595959;}.cls-52{fill:#797979;}.cls-53{fill:#626262;}.cls-54{fill:#4f4f4f;}.cls-55{fill:#5c5c5c;}.cls-56{fill:#6a6a6a;}.cls-57{fill:gray;}.cls-58{fill:#6b6b6b;}.cls-59{fill:#888;}.cls-60{clip-path:url(#clip-path-14);}.cls-61{fill:#333;}.cls-62{fill:#363636;}.cls-63{fill:#3b3b3b;}.cls-64{fill:#3e3e3e;}.cls-65{fill:#3a3a3a;}.cls-66{fill:#3c3c3c;}.cls-67{fill:#383838;}.cls-68{fill:#414141;}.cls-69{fill:#434343;}.cls-70{fill:#494949;}.cls-71{fill:#4c4c4c;}.cls-72{fill:#404040;}.cls-73{fill:#505050;}.cls-74{fill:#555;}.cls-75{fill:#646464;}.cls-76{clip-path:url(#clip-path-15);}.cls-77{fill:#ebf5ff;}.cls-78{fill:#f7fbff;}.cls-79{fill:#fdfeff;}.cls-80{fill:#ddefff;}.cls-81{fill:#d4eaff;}.cls-82{fill:#e6f3ff;}.cls-83{fill:#f3f9ff;}.cls-84{fill:#fcfdff;}.cls-85{fill:#d1e9ff;}.cls-86{fill:#e5f3ff;}.cls-87{fill:#fcfeff;}.cls-88{fill:#f0f8ff;}.cls-89{fill:#f9fcff;}.cls-90{fill:#e8f4ff;}.cls-91{fill:#fafdfe;}.cls-92{fill:#eef8fd;}.cls-93{fill:#dbf1fa;}.cls-94{fill:#f4fafd;}.cls-95{fill:#c4e8f7;}.cls-96{fill:#d8eef9;}.cls-97{fill:#b9e4f6;}.cls-98{fill:#88d0ef;}.cls-99{fill:#c7e8f7;}.cls-100{fill:#5abee9;}.cls-101{fill:#37b0e4;}.cls-102{fill:#2dace2;}.cls-103{fill:#7ac8ec;}.cls-104{fill:#5ebce8;}.cls-105{fill:#56b8e7;}.cls-106{fill:#d1eaf8;}.cls-107{fill:#d6ecf9;}.cls-108{fill:#91ceef;}.cls-109{fill:#7ac4ec;}.cls-110{fill:#9fd2f1;}.cls-111{fill:#8bc9ee;}.cls-112{fill:#f6fbfe;}.cls-113{fill:#def0fa;}.cls-114{fill:#a7d5f2;}.cls-115{fill:#91cbee;}.cls-116{fill:#f7fbfe;}.cls-117{fill:#ecf6fc;}.cls-118{fill:#ebf5fc;}.cls-119{fill:#f0f8fe;}.cls-120{fill:#e7f4fd;}.cls-121{fill:#e1f1fe;}.cls-122{fill:#c2e2f6;}.cls-123{fill:#c5e3f6;}.cls-124{fill:#9bcff0;}.cls-125{fill:#8ec9ee;}.cls-126{fill:#a1d2f1;}.cls-127{fill:#95cdef;}.cls-128{fill:#cce7f8;}.cls-129{fill:#d8ecfb;}.cls-130{fill:#b2dbf4;}.cls-131{fill:#aad7f2;}.cls-132{fill:#cfe8f8;}.cls-133{fill:#29abe2;}.cls-134{fill:#2cace2;}.cls-135{fill:#36b0e4;}.cls-136{fill:#47b7e6;}.cls-137{fill:#53b7e7;}.cls-138{fill:#55b8e7;}.cls-139{fill:#59bae8;}.cls-140{fill:#5fc0e9;}.cls-141{fill:#7dcced;}.cls-142{fill:#5ebee9;}.cls-143{fill:#74c6ec;}.cls-144{fill:#a1daf2;}.cls-145{fill:#cdebf8;}.cls-146{fill:#90d1f0;}.cls-147{fill:#b5e0f5;}.cls-148{fill:#62bde9;}.cls-149{fill:#70c3eb;}.cls-150{fill:#86cbee;}.cls-151{fill:#a4d7f2;}.cls-152{fill:#81c8ed;}.cls-153{fill:#98d0f0;}.cls-154{fill:#71c0ea;}.cls-155{fill:#6fbfea;}.cls-156{fill:#83c5ec;}.cls-157{fill:#76c2eb;}.cls-158{fill:#80c6ec;}.cls-159{fill:#90ccee;}.cls-160{fill:#81c5ec;}.cls-161{fill:#85c6ed;}.cls-162{fill:#89c7ed;}.cls-163{fill:#90cbee;}.cls-164{fill:#a7d5f1;}.cls-165{fill:#cbe7f7;}.cls-166{clip-path:url(#clip-path-16);}.cls-167{fill:red;}.cls-168{fill:#f70000;}.cls-169{fill:#e40000;}.cls-170{fill:#e00;}.cls-171{fill:#c80000;}.cls-172{fill:#b70000;}.cls-173{fill:#a60000;}.cls-174{fill:#a10000;}.cls-175{fill:#9f0000;}.cls-176{fill:#fe0d0c;}.cls-177{fill:#ff1514;}.cls-178{fill:#fa0706;}.cls-179{fill:#ed0000;}.cls-180{fill:#f30808;}.cls-181{fill:#fd1614;}.cls-182{fill:#fe2522;}.cls-183{fill:#f91b19;}.cls-184{fill:#fd2e2a;}.cls-185{fill:#df0000;}.cls-186{fill:#e70908;}.cls-187{fill:#e00908;}.cls-188{fill:#ce0000;}.cls-189{fill:#d60807;}.cls-190{fill:#f21d1b;}.cls-191{fill:#ec1c19;}.cls-192{fill:#fb312d;}.cls-193{fill:#f62f2b;}.cls-194{fill:#e21816;}.cls-195{fill:#ec2926;}.cls-196{fill:#b90000;}.cls-197{fill:#be0504;}.cls-198{fill:#a70000;}.cls-199{fill:#c50f0d;}.cls-200{fill:#cc1816;}.cls-201{fill:#ab0504;}.cls-202{fill:#a20101;}.cls-203{fill:#ff1917;}.cls-204{fill:#ff1614;}.cls-205{fill:#ff0f0e;}.cls-206{fill:#ff2c28;}.cls-207{fill:#ff2724;}.cls-208{fill:#ff3632;}.cls-209{fill:#ff322e;}.cls-210{fill:#ff1d1b;}.cls-211{fill:#ff3a35;}.cls-212{fill:#fc3833;}.cls-213{fill:#fc3530;}.cls-214{fill:#f4332f;}.cls-215{fill:#f4302c;}.cls-216{fill:#f62623;}.cls-217{fill:#fa1614;}.cls-218{fill:#d92320;}.cls-219{fill:#db211e;}.cls-220{fill:#ba110f;}.cls-221{fill:#bf100e;}.cls-222{fill:#e21a18;}.cls-223{fill:#ee0f0e;}.cls-224{fill:#cc0c0b;}.cls-225{fill:#e10707;}.cls-226{fill:#a40303;}.cls-227{fill:#aa0303;}.cls-228{fill:#bb0202;}.cls-229{fill:#d70101;}.cls-230{fill:#a50000;}.cls-231{fill:#d50000;}.cls-232{clip-path:url(#clip-path-17);}.cls-233{fill:#f40000;}.cls-234{fill:#f61010;}.cls-235{fill:#f21717;}.cls-236{fill:#fc1010;}.cls-237{fill:#f81e1e;}.cls-238{fill:#f42727;}.cls-239{fill:#e80000;}.cls-240{fill:#eb1515;}.cls-241{fill:#ee2424;}.cls-242{fill:#ef2d2d;}.cls-243{fill:#de2222;}.cls-244{fill:#dc2a2a;}.cls-245{fill:#cf1111;}.cls-246{fill:#cd1d1d;}.cls-247{fill:#cb2424;}.cls-248{fill:#b30000;}.cls-249{fill:#b10e0e;}.cls-250{fill:#a00;}.cls-251{fill:#bf0000;}.cls-252{fill:#a30000;}.cls-253{fill:#af0000;}.cls-254{fill:#9e0000;}.cls-255{fill:#fc1515;}.cls-256{fill:#fc1212;}.cls-257{fill:#f92424;}.cls-258{fill:#f92121;}.cls-259{fill:#f52d2d;}.cls-260{fill:#f42a2a;}.cls-261{fill:#f71818;}.cls-262{fill:#f32121;}.cls-263{fill:#f11212;}.cls-264{fill:#f03030;}.cls-265{fill:#dc2d2d;}.cls-266{fill:#ca2626;}.cls-267{fill:#af1212;}.cls-268{fill:#a30505;}.cls-269{clip-path:url(#clip-path-18);}.cls-270{fill:#b3b3b3;}.cls-271{clip-path:url(#clip-path-19);}.cls-272{fill:#424242;}.cls-273{fill:#5e5e5e;}.cls-274{fill:#676767;}.cls-275{fill:#5d5d5d;}.cls-276{fill:#545454;}.cls-277{fill:#3d3d3d;}.cls-278{fill:#636363;}.cls-279{fill:#7d7d7d;}.cls-280{fill:#6c6c6c;}.cls-281{fill:#7a7a7a;}.cls-282{fill:#878787;}.cls-283{fill:#909090;}.cls-284{fill:#919191;}.cls-285{fill:#979797;}.cls-286{fill:#8c8c8c;}.cls-287{fill:#949494;}.cls-288{fill:#5a5a5a;}.cls-289{fill:#4a4a4a;}.cls-290{fill:#3f3f3f;}.cls-291{fill:#353535;}.cls-292{fill:#484848;}.cls-293{fill:#393939;}.cls-294{fill:#6e6e6e;}.cls-295{fill:#868686;}.cls-296{fill:#818181;}.cls-297{fill:#8f8f8f;}.cls-298{fill:#7f7f7f;}.cls-299{fill:#f2f2f2;}.cls-300{clip-path:url(#clip-path-21);}.cls-301{fill:#0071bc;}.cls-302{fill:#087cc3;}.cls-303{fill:#1088cb;}.cls-304{fill:#1791d1;}.cls-305{fill:#1c99d6;}.cls-306{fill:#24a4dd;}.cls-307{fill:#1995d4;}.cls-308{fill:#1690d0;}.cls-309{fill:#0b81c7;}.cls-310{fill:#27a8e0;}.cls-311{fill:#23a3dd;}.cls-312{fill:#128acd;}.cls-313{fill:#1087cb;}.cls-314{fill:#0b80c6;}.cls-315{fill:#1f9cd9;}.cls-316{fill:#1c98d6;}.cls-317{fill:#26a7e0;}.cls-318{fill:#24a3dd;}.cls-319{fill:#158ecf;}.cls-320{fill:#26a6df;}.cls-321{fill:#23a2dc;}.cls-322{fill:#1b97d5;}.cls-323{fill:#0f86ca;}.cls-324{fill:#1893d2;}.cls-325{fill:#158fd0;}</style><radialGradient id="radial-gradient" cx="21.07" cy="78.71" r="12.63" gradientTransform="translate(0 47.22) scale(1 0.4)" gradientUnits="userSpaceOnUse"><stop offset="0" stop-opacity="0.94"/><stop offset="1" stop-opacity="0"/></radialGradient><clipPath id="clip-path" transform="translate(-0.22 -0.65)"><rect class="cls-1" x="3.62" y="76.14" width="35.52" height="5.1"/></clipPath><clipPath id="clip-path-2" transform="translate(-0.22 -0.65)"><rect class="cls-1" x="12.86" y="21.03" width="6.63" height="3.13"/></clipPath><clipPath id="clip-path-3" transform="translate(-0.22 -0.65)"><rect class="cls-1" x="23.11" y="21.03" width="6.63" height="3.13"/></clipPath><clipPath id="clip-path-4" transform="translate(-0.22 -0.65)"><rect class="cls-1" x="26.36" y="71.77" width="6.14" height="1.2"/></clipPath><clipPath id="clip-path-5" transform="translate(-0.22 -0.65)"><rect class="cls-1" x="17.67" y="13.15" width="7.29" height="3.07"/></clipPath><clipPath id="clip-path-6" transform="translate(-0.22 -0.65)"><rect class="cls-1" x="18.08" y="6.24" width="1.4" height="2.23"/></clipPath><clipPath id="clip-path-7" transform="translate(-0.22 -0.65)"><rect class="cls-1" x="23.14" y="6.24" width="1.4" height="2.23"/></clipPath><clipPath id="clip-path-8" transform="translate(-0.22 -0.65)"><rect class="cls-1" x="18.88" y="11.62" width="4.96" height="2.2"/></clipPath><clipPath id="clip-path-9" transform="translate(-0.22 -0.65)"><rect class="cls-1" x="31.49" y="18.59" width="9.14" height="13.46"/></clipPath><clipPath id="clip-path-10" transform="translate(-0.22 -0.65)"><rect class="cls-1" x="34.38" y="29.72" width="8.12" height="12.34"/></clipPath><clipPath id="clip-path-11" transform="translate(-0.22 -0.65)"><rect class="cls-1" x="2.65" y="18.38" width="8.42" height="13.46"/></clipPath><clipPath id="clip-path-12" transform="translate(-0.22 -0.65)"><rect class="cls-1" x="1.69" y="29.43" width="7.43" height="12.47"/></clipPath><clipPath id="clip-path-13" transform="translate(-0.22 -0.65)"><path class="cls-1" d="M22.66,30.2l-.06.06h0l-.19.2h0l.14.18h0l0,.06h0a.65.65,0,0,0,.28-.18h0a.12.12,0,0,0,0,0h0a.58.58,0,0,0,.13-.23h0l-.05,0h0l-.18-.13h0l-.14.12"/></clipPath><clipPath id="clip-path-14" transform="translate(-0.22 -0.65)"><path class="cls-1" d="M22.52,30.15h0l-.21.23h0l.1.13h0l.1.14h0a1,1,0,0,0,.31-.2h0a.83.83,0,0,0,.19-.31h0l-.14-.1h0L22.73,30h0l-.21.18"/></clipPath><clipPath id="clip-path-15" transform="translate(-0.22 -0.65)"><path class="cls-1" d="M19.66,27.18a.35.35,0,0,0-.12,0h0a1.13,1.13,0,0,0,0,.12h0a1.75,1.75,0,0,0,0,.45h0a2.4,2.4,0,0,0,.41,1h0a3,3,0,0,0,.37.46h0a5.43,5.43,0,0,0,1.32,1h0a2.35,2.35,0,0,0,.48.19h0a1,1,0,0,0,.28-.14h0l.16-.14h0a1.42,1.42,0,0,0,.21-.27h0a1.37,1.37,0,0,0,.07-.16h0a2.53,2.53,0,0,0-.19-.49h0a5.43,5.43,0,0,0-1-1.32h0a3.55,3.55,0,0,0-.46-.37h0a2.4,2.4,0,0,0-1-.41h-.46"/></clipPath><clipPath id="clip-path-16" transform="translate(-0.22 -0.65)"><path class="cls-1" d="M19.55,27.19h0a.28.28,0,0,1,0,.06h0a2.33,2.33,0,0,0,0,.32h0c0,.05,0,.11,0,.16h0a.88.88,0,0,0,0,.16h0l0,.13h0a.91.91,0,0,0,.41-.09h0a.52.52,0,0,0,.17-.12h0l.07-.08h0a.79.79,0,0,0,.14-.51h0l-.12,0h0l-.16,0h-.24c-.16,0-.26,0-.3,0"/></clipPath><clipPath id="clip-path-17" transform="translate(-0.22 -0.65)"><path class="cls-1" d="M20.62,27.76a1.29,1.29,0,0,1-.22.3h0a1.17,1.17,0,0,1-.42.27h0a1.27,1.27,0,0,1-.28.06h0l.06.13h0a.56.56,0,0,1,0,.08h0l.17,0h0l.24-.08h0a1.19,1.19,0,0,0,.38-.25h0a1.15,1.15,0,0,0,.19-.26h0a1.11,1.11,0,0,0,.13-.36h0l0-.17h0l-.09,0h0a.34.34,0,0,0-.12-.06h0a1.33,1.33,0,0,1-.12.4"/></clipPath><clipPath id="clip-path-18" transform="translate(-0.22 -0.65)"><rect class="cls-1" width="44.1" height="81.78"/></clipPath><clipPath id="clip-path-19" transform="translate(-0.22 -0.65)"><path class="cls-1" d="M21,28.42a.4.4,0,0,0-.16.13h0a.42.42,0,0,0-.09.14h0a.47.47,0,0,0,0,.17h0a.43.43,0,0,0,0,.19h0a.49.49,0,0,0,.1.15h0a.2.2,0,0,0,.07.06h0a.38.38,0,0,0,.13.06h0a.4.4,0,0,0,.15,0h0a.51.51,0,0,0,.17,0h0a.42.42,0,0,0,.14-.09h0a.51.51,0,0,0,.13-.16h0a.52.52,0,0,0,0-.21h0a.39.39,0,0,0,0-.15h0a.38.38,0,0,0-.06-.13h0l-.06-.07h0a.54.54,0,0,0-.16-.1h0a.39.39,0,0,0-.18,0h0a.46.46,0,0,0-.21.05"/></clipPath><clipPath id="clip-path-21" transform="translate(-0.22 -0.65)"><path class="cls-1" d="M21,28.61a.2.2,0,0,0-.06.09h0a.29.29,0,0,0,0,.16h0a.37.37,0,0,0,0,.18h0a.18.18,0,0,0,.05.07h0a.36.36,0,0,0,.26.11h0a.47.47,0,0,0,.16,0h0l.09-.07h0a.35.35,0,0,0,.1-.25h0a.35.35,0,0,0-.1-.25h0l-.07-.06h0a.41.41,0,0,0-.18-.05h0a.36.36,0,0,0-.26.11"/></clipPath></defs><title>robot</title><g id="Layer_2" data-name="Layer 2"><g id="robot"><g id="robot-2" data-name="robot"><path class="cls-2" d="M37.76,81.25c1.2,0,1.33-.5.3-1.11l-4.89-2.87a9.66,9.66,0,0,0-4.08-1.1h-16A9.66,9.66,0,0,0,9,77.27L4.09,80.14c-1,.61-.9,1.11.3,1.11Z" transform="translate(-0.22 -0.65)"/><g id="g78"><path id="path80" class="cls-4" d="M14.46,50.39a.6.6,0,0,0,.76-.35L17,45.3a.59.59,0,0,0-.34-.75L15.05,44a.58.58,0,0,0-.75.34L12.48,49a.56.56,0,0,0,.34.74Z" transform="translate(-0.22 -0.65)"/></g><g id="g82"><path id="path84" class="cls-4" d="M27.94,50.39l1.64-.61a.57.57,0,0,0,.34-.74L28.1,44.29a.59.59,0,0,0-.76-.34l-1.64.6a.59.59,0,0,0-.34.75L27.18,50a.59.59,0,0,0,.76.35" transform="translate(-0.22 -0.65)"/></g><g id="g86"><path id="path88" class="cls-5" d="M19,43.26a2.59,2.59,0,1,0-2.58,2.58A2.58,2.58,0,0,0,19,43.26" transform="translate(-0.22 -0.65)"/></g><g id="g90"><path id="path92" class="cls-6" d="M17.17,51A3.13,3.13,0,1,0,14,54.14,3.13,3.13,0,0,0,17.17,51" transform="translate(-0.22 -0.65)"/></g><g id="g94"><path id="path96" class="cls-5" d="M28.67,43.26a2.58,2.58,0,1,0-2.58,2.58,2.57,2.57,0,0,0,2.58-2.58" transform="translate(-0.22 -0.65)"/></g><g id="g98"><path id="path100" class="cls-6" d="M31.6,51a3.13,3.13,0,1,0-3.13,3.13A3.13,3.13,0,0,0,31.6,51" transform="translate(-0.22 -0.65)"/></g><path id="path102" class="cls-5" d="M31.26,16.36H11.61v4H31.26Z" transform="translate(-0.22 -0.65)"/><path id="path104" class="cls-7" d="M10,77.3h6.14V71H10Z" transform="translate(-0.22 -0.65)"/><g id="g106"><path id="path108" class="cls-8" d="M9.9,51.17l-1,9.89H17.2l1-9.89s.32-1.86-1.5-1.86v1.86H11.4V49.31c-1.46,0-1.5,1.86-1.5,1.86" transform="translate(-0.22 -0.65)"/></g><path id="path110" class="cls-6" d="M11.07,62h4.28v-.9H11.07Z" transform="translate(-0.22 -0.65)"/><path id="path112" class="cls-6" d="M27.42,62H31.7v-.9H27.42Z" transform="translate(-0.22 -0.65)"/><path id="path114" class="cls-7" d="M26.36,77.3h6.15V71H26.36Z" transform="translate(-0.22 -0.65)"/><g id="g116"><path id="path118" class="cls-8" d="M16.39,75.39c-1,0-2,.89-3.17.89s-2.46-.93-3.61-.93a3.83,3.83,0,0,0-2.5,1.35v1.7H19V76.56a4,4,0,0,0-2.63-1.17" transform="translate(-0.22 -0.65)"/></g><g id="g120"><path id="path122" class="cls-8" d="M35.39,76.56a4,4,0,0,0-2.63-1.17c-1,0-2,.89-3.18.89s-2.45-.93-3.6-.93a3.83,3.83,0,0,0-2.5,1.35v1.7H35.39Z" transform="translate(-0.22 -0.65)"/></g><g id="g124"><path id="path126" class="cls-8" d="M17,41h8.68s.12-2.57,1-3.41a10,10,0,0,1,1.83-1.35s6-18.76,1.34-18.76H12.85c-4.7,0,1.34,18.76,1.34,18.76A10,10,0,0,1,16,37.6c.84.84,1,3.41,1,3.41" transform="translate(-0.22 -0.65)"/></g><g id="g128"><path id="path130" class="cls-9" d="M21,19.69h5.59c2.17,0,2.2-.86,2.2-1.27v-.93H14.18v.93c0,.55,0,1.27,2.2,1.27Z" transform="translate(-0.22 -0.65)"/></g><g id="g132"><g id="g140"><g class="cls-10"><g id="g142" class="cls-11"><g id="g144"><path id="path146" class="cls-7" d="M16.17,22c1.35,0,2.66-.32,3.32,2.19C19.13,21.52,17.78,21,16.17,21s-3,.49-3.31,3.13c.69-2.51,2-2.19,3.31-2.19" transform="translate(-0.22 -0.65)"/></g></g></g></g></g><g id="g148"><g id="g156"><g class="cls-12"><g id="g158" class="cls-11"><g id="g160"><path id="path162" class="cls-7" d="M26.43,22c1.35,0,2.65-.32,3.32,2.19C29.39,21.52,28,21,26.43,21s-3,.49-3.32,3.13c.7-2.51,2-2.19,3.32-2.19" transform="translate(-0.22 -0.65)"/></g></g></g></g></g><g id="g164"><path id="path166" class="cls-13" d="M24.76,29a3.52,3.52,0,1,0-3.52,3.52A3.52,3.52,0,0,0,24.76,29" transform="translate(-0.22 -0.65)"/></g><g id="g168"><path id="path170" class="cls-8" d="M24.22,29a3,3,0,1,0-3,3,3,3,0,0,0,3-3" transform="translate(-0.22 -0.65)"/></g><g id="g172"><path id="path174" class="cls-5" d="M17,41h8.68s.12-2.57,1-3.41a10,10,0,0,1,1.83-1.35h0a36.91,36.91,0,0,1-7.13.69,40.65,40.65,0,0,1-7.13-.69h0A10,10,0,0,1,16,37.6c.84.84,1,3.41,1,3.41" transform="translate(-0.22 -0.65)"/></g><g id="g176"><path id="path178" class="cls-14" d="M7.11,78.4v1.41H8.42a1.2,1.2,0,0,1,2.38,0h4.54a1.19,1.19,0,0,1,2.37,0H19V78.4Z" transform="translate(-0.22 -0.65)"/></g><g id="g180"><path id="path182" class="cls-14" d="M23.48,78.4v1.41h1.31a1.2,1.2,0,0,1,2.38,0H31.7a1.2,1.2,0,0,1,2.38,0h1.31V78.4Z" transform="translate(-0.22 -0.65)"/></g><g id="g184"><g id="g192"><g class="cls-15"><g id="g194" class="cls-16"><path id="path196" class="cls-7" d="M26.36,73h6.15v-1.2H26.36Z" transform="translate(-0.22 -0.65)"/></g></g></g></g><g id="g198"><path id="path200" class="cls-8" d="M8.94,62v9.89s0,1.85,1.06,1.85v-.2s-.08-.77.66-.77h4.68c1,0,.8.7.8.7v.27c1.14,0,1.06-1.85,1.06-1.85V62Z" transform="translate(-0.22 -0.65)"/></g><g id="g202"><path id="path204" class="cls-8" d="M25.31,62v9.89s0,1.85,1.05,1.85V71.85h6.15V73.7c1.14,0,1.05-1.85,1.05-1.85V62Z" transform="translate(-0.22 -0.65)"/></g><g id="g206"><path id="path208" class="cls-13" d="M7.74,62s-.21,8.59,1.2,8.59V66H17.2v4.55c1.41,0,1.2-8.57,1.2-8.57H17.2v1.75H8.94V62Z" transform="translate(-0.22 -0.65)"/></g><g id="g210"><path id="path212" class="cls-13" d="M24.12,62s-.22,8.61,1.19,8.61V66h8.26v4.55c1.41,0,1.2-8.59,1.2-8.59h-1.2v1.77H25.31V62Z" transform="translate(-0.22 -0.65)"/></g><g id="g214"><path id="path216" class="cls-8" d="M24.33,51.17l1,9.89h8.26l-1-9.89s0-1.86-1.49-1.86v1.86H25.83V49.31c-1.82,0-1.5,1.86-1.5,1.86" transform="translate(-0.22 -0.65)"/></g><g id="g218"><path id="path220" class="cls-4" d="M21,18.71h2.15c1.75,0,1.77-.7,1.77-1V13.15H17.68v4.53c0,.44,0,1,1.77,1Z" transform="translate(-0.22 -0.65)"/></g><g id="g222"><path id="path224" class="cls-8" d="M16.76,42.69c.69,0,.71,1.66,1,2.47a1.39,1.39,0,0,0,1.33.87h4.32a1.38,1.38,0,0,0,1.32-.87c.34-.81.36-2.47,1-2.47h3a1,1,0,0,0,.81-1v-2.2c0-.68-.15-.95-1-.95H13.92c-.83,0-1,.27-1,.95v2.2a1,1,0,0,0,.81,1h3" transform="translate(-0.22 -0.65)"/></g><g id="g226"><g id="g234"><g class="cls-17"><g id="g236" class="cls-16"><g id="g238"><path id="path240" class="cls-7" d="M25,16v-2.8H17.67v2.72a20.56,20.56,0,0,0,3.85.35A20.92,20.92,0,0,0,25,16" transform="translate(-0.22 -0.65)"/></g></g></g></g></g><g id="g242"><path id="path244" class="cls-18" d="M15.32,1.37c-.41.16-.31.94-.19,1.45s1,.64,1.18.59A1.5,1.5,0,0,0,16.89,3c.07-.12.22-.12.2-.39s.31-.73.31-.73a3.3,3.3,0,0,0-2.08-.5" transform="translate(-0.22 -0.65)"/></g><g id="g246"><path id="path248" class="cls-18" d="M25.73,2.88a1.5,1.5,0,0,0,.58.42c.17.05,1.05-.08,1.18-.59s.22-1.29-.19-1.45a3.3,3.3,0,0,0-2.08.5s.34.46.31.73.13.27.2.39" transform="translate(-0.22 -0.65)"/></g><g id="g250"><path id="path252" class="cls-8" d="M29.78,12.68V3.87C29.78,2,24.75,1,21.52,1c-3.45,0-8.68.93-8.68,3.07v8.57c0,1.78,5.23,2.66,8.68,2.66,3.23,0,8.26-1.37,8.26-2.66" transform="translate(-0.22 -0.65)"/></g><g id="g254"><path id="path256" class="cls-18" d="M23.57,15.55c2.32,0,3.45-12.07,3.74-14.31C25.59.74,23.62,1,21.52,1c-2.27,0-4.39-.24-6.21.34.35,2.18,1.45,14.18,3.72,14.18Z" transform="translate(-0.22 -0.65)"/></g><g id="g258"><path id="path260" class="cls-19" d="M23.69,14.35c1.9,0,2.77-11.42,3.59-13,0,0,0-.06,0-.1A21.13,21.13,0,0,0,21.51.65a20.68,20.68,0,0,0-6.19.72c.82,1.57,1.69,13,3.58,13Z" transform="translate(-0.22 -0.65)"/></g><g id="g262"><g id="g270"><g class="cls-20"><g id="g272" class="cls-21"><g id="g274"><path id="path276" class="cls-13" d="M19.48,7.35c0-.62-.31-1.11-.7-1.11s-.7.49-.7,1.11.31,1.12.7,1.12.7-.5.7-1.12" transform="translate(-0.22 -0.65)"/></g></g></g></g></g><g id="g278"><path id="path280" class="cls-9" d="M19.11,7.35c0-.29-.15-.52-.33-.52s-.33.23-.33.52.15.52.33.52.33-.23.33-.52" transform="translate(-0.22 -0.65)"/></g><g id="g282"><g id="g290"><g class="cls-22"><g id="g292" class="cls-21"><g id="g294"><path id="path296" class="cls-13" d="M24.54,7.35c0-.62-.31-1.11-.7-1.11s-.7.49-.7,1.11.31,1.12.7,1.12.7-.5.7-1.12" transform="translate(-0.22 -0.65)"/></g></g></g></g></g><g id="g298"><path id="path300" class="cls-9" d="M24.17,7.35c0-.29-.15-.52-.33-.52s-.33.23-.33.52.15.52.33.52.33-.23.33-.52" transform="translate(-0.22 -0.65)"/></g><g id="g302"><g id="g310"><g class="cls-23"><g id="g312" class="cls-21"><g id="g314"><path id="path316" class="cls-13" d="M21.33,13.82c.2,0,.37-.24.37-.54s-.17-.54-.37-.54S21,13,21,13.28s.16.54.37.54" transform="translate(-0.22 -0.65)"/></g><g id="g318"><path id="path320" class="cls-13" d="M22.86,12.86c0-.3-.16-.54-.37-.54s-.37.24-.37.54.17.54.37.54.37-.24.37-.54" transform="translate(-0.22 -0.65)"/></g><g id="g322"><path id="path324" class="cls-13" d="M20.53,12.86c0-.3-.17-.54-.37-.54s-.37.24-.37.54.16.54.37.54.37-.24.37-.54" transform="translate(-0.22 -0.65)"/></g><g id="g326"><path id="path328" class="cls-13" d="M19.62,12.16c0-.3-.16-.54-.37-.54s-.37.24-.37.54.17.54.37.54.37-.24.37-.54" transform="translate(-0.22 -0.65)"/></g><g id="g330"><path id="path332" class="cls-13" d="M23.84,12.16c0-.3-.16-.54-.37-.54s-.37.24-.37.54.17.54.37.54.37-.24.37-.54" transform="translate(-0.22 -0.65)"/></g></g></g></g></g><g id="g334"><path id="path336" class="cls-8" d="M35.29,45.2l1.55-1.6a.82.82,0,0,0,0-1.17.83.83,0,0,0-1.17,0l-1.55,1.6a.83.83,0,0,0,1.19,1.15" transform="translate(-0.22 -0.65)"/></g><g id="g338"><path id="path340" class="cls-8" d="M36.57,32.05l4.26-1.82a19.71,19.71,0,0,0-1.64-6.31,18.9,18.9,0,0,0-3.68-5.8l-3.3.23-.72,1.49a18.79,18.79,0,0,0,1.65,6.67,19.34,19.34,0,0,0,3.43,5.54" transform="translate(-0.22 -0.65)"/></g><g id="g342"><g id="g350"><g class="cls-24"><g id="g352" class="cls-11"><g id="g354"><path id="path356" class="cls-7" d="M31.94,19.39l-.45.45a18.79,18.79,0,0,0,1.65,6.67,19.34,19.34,0,0,0,3.43,5.54l4.06-3.16-4.7.29A26.88,26.88,0,0,1,33.12,23c0-.07,2.89-4.39,2.89-4.39s-4,1.42-4.07.8" transform="translate(-0.22 -0.65)"/></g></g></g></g></g><g id="g358"><path id="path360" class="cls-8" d="M41.74,29.07c-.22-.78-7.19.51-7.28,1.19-.53,3.75,1.71,10.21,3.15,11.8l4.59-.53c.93-2.25.54-8.43-.44-12.3,0-.05.2.62,0-.16" transform="translate(-0.22 -0.65)"/></g><g id="g10"><g id="g362"><g id="g370"><g class="cls-25"><g id="g372" class="cls-26"><g id="g374"><path id="path376" class="cls-7" d="M42.2,41.53a5.9,5.9,0,0,0,.3-1.06l-3.71.43c-1.36-1.51-3.43-7.27-3.32-11.18-.6.19-1,.39-1,.54-.53,3.76,1.71,10.21,3.15,11.8Z" transform="translate(-0.22 -0.65)"/></g></g></g></g></g><g id="g378"><path id="path380" class="cls-8" d="M42.31,47.51a.8.8,0,0,0,.74-.85l-.15-2.13a.79.79,0,0,0-1.58.12l.15,2.14a.78.78,0,0,0,.84.72" transform="translate(-0.22 -0.65)"/></g><g id="g382"><path id="path384" class="cls-8" d="M40.17,48a.81.81,0,0,0,.73-.86l-.15-2.13a.79.79,0,0,0-.85-.73.81.81,0,0,0-.73.85l.15,2.14a.79.79,0,0,0,.85.73" transform="translate(-0.22 -0.65)"/></g><g id="g386"><path id="path388" class="cls-8" d="M37.9,47.83a.8.8,0,0,0,.74-.85l-.16-2.13a.78.78,0,0,0-.84-.73.8.8,0,0,0-.74.85l.16,2.13a.78.78,0,0,0,.84.73" transform="translate(-0.22 -0.65)"/></g><g id="g390"><path id="path392" class="cls-5" d="M35.9,17.19a.53.53,0,0,0-.24-.76,7.27,7.27,0,0,0-2.85-.68,4.13,4.13,0,0,0-3,1l1.47,7.83h1.83Z" transform="translate(-0.22 -0.65)"/></g><g id="g394"><path id="path396" class="cls-13" d="M31.79,19.72a4.93,4.93,0,0,1,.7,0,7,7,0,0,1,.8.1.53.53,0,0,0,.66-.32c.12-.22.61-1.56.84-2.2a.36.36,0,0,0-.18-.45,5.73,5.73,0,0,0-1.86-.37,3.4,3.4,0,0,0-1.69.31.45.45,0,0,0-.26.55c.1.6.3,1.75.37,2a.51.51,0,0,0,.62.41" transform="translate(-0.22 -0.65)"/></g><g id="g398"><path id="path400" class="cls-5" d="M37,45.3l5.82-.7c.94-.27,1.12-3.37,1-5.8-.06-1.25-9.14.17-9,1.18C35.34,42.77,36,45.37,37,45.3" transform="translate(-0.22 -0.65)"/></g><g id="g402"><path id="path404" class="cls-13" d="M39,43.28l3.7-.44c.6-.17.72-2.14.66-3.68,0-.79-5.88,0-5.78.59.32,2,.75,3.57,1.42,3.53" transform="translate(-0.22 -0.65)"/></g><g id="g406"><path id="path408" class="cls-8" d="M10.42,44.78a.83.83,0,0,0-.07-1.17L8.67,42.14a.83.83,0,0,0-1.09,1.24l1.67,1.47a.83.83,0,0,0,1.17-.07" transform="translate(-0.22 -0.65)"/></g><g id="g410"><path id="path412" class="cls-8" d="M9.93,26.05a18.9,18.9,0,0,0,1.12-6.78l-.83-1.43-3.31,0A18.9,18.9,0,0,0,3.7,23.94a19.27,19.27,0,0,0-1.14,6.42l4.38,1.48a19.36,19.36,0,0,0,3-5.79" transform="translate(-0.22 -0.65)"/></g><g id="g12"><g id="g414"><g id="g422"><g class="cls-27"><g id="g424" class="cls-11"><g id="g426"><path id="path428" class="cls-7" d="M7.35,28.93,2.65,29l4.29,2.84a19.36,19.36,0,0,0,3-5.79,18.9,18.9,0,0,0,1.12-6.78l-.48-.41c0,.62-4.12-.48-4.12-.48s3.23,4.08,3.22,4.14a26.62,26.62,0,0,1-2.32,6.41" transform="translate(-0.22 -0.65)"/></g></g></g></g></g><g id="g430"><path id="path432" class="cls-8" d="M2.07,41.73l4.62.17c1.31-1.7,3-8.31,2.22-12-.15-.68-7.2-1.42-7.35-.63s0,.11,0,.17C.87,33.37,1,39.56,2.07,41.73" transform="translate(-0.22 -0.65)"/></g><g id="g14"><g id="g434"><g id="g442"><g class="cls-28"><g id="g444" class="cls-26"><g id="g446"><path id="path448" class="cls-7" d="M8.91,29.9c0-.16-.44-.32-1-.47.41,3.89-1.2,9.8-2.43,11.41L1.69,40.7a5.75,5.75,0,0,0,.38,1l4.62.17c1.31-1.7,3-8.31,2.22-12" transform="translate(-0.22 -0.65)"/></g></g></g></g></g><g id="g450"><path id="path452" class="cls-5" d="M7.54,45.09c1.06,0,1.47-2.66,1.71-5.48.09-1-9.07-1.72-9-.47.08,2.43.51,5.5,1.47,5.7Z" transform="translate(-0.22 -0.65)"/></g><g id="g454"><path id="path456" class="cls-13" d="M5.36,43.23c.67,0,1-1.61,1.14-3.63,0-.62-5.84-.93-5.81-.14C.75,41,1,43,1.64,43.08Z" transform="translate(-0.22 -0.65)"/></g><g id="g458"><path id="path460" class="cls-8" d="M3.21,46.91V44.77A.81.81,0,0,0,2.4,44a.79.79,0,0,0-.79.79l0,2.14a.8.8,0,0,0,.8.8.79.79,0,0,0,.78-.8" transform="translate(-0.22 -0.65)"/></g><g id="g462"><path id="path464" class="cls-8" d="M5.4,47.27l0-2.15a.79.79,0,0,0-.8-.78.77.77,0,0,0-.78.79v2.14a.8.8,0,0,0,1.59,0" transform="translate(-0.22 -0.65)"/></g><g id="g466"><path id="path468" class="cls-8" d="M7.64,46.88l0-2.14a.8.8,0,0,0-.8-.79.79.79,0,0,0-.78.8v2.14a.8.8,0,1,0,1.59,0" transform="translate(-0.22 -0.65)"/></g><g id="g470"><path id="path472" class="cls-5" d="M11.4,24.54l1.47-7.83a4.14,4.14,0,0,0-3-1A7.22,7.22,0,0,0,7,16.43a.53.53,0,0,0-.24.76l2.79,7.35Z" transform="translate(-0.22 -0.65)"/></g><g id="g474"><path id="path476" class="cls-13" d="M9.39,19.8a5.09,5.09,0,0,1,.8-.09,3.93,3.93,0,0,1,.7,0,.49.49,0,0,0,.61-.41c.07-.24.28-1.38.38-2a.45.45,0,0,0-.26-.55,3.42,3.42,0,0,0-1.69-.31,5.73,5.73,0,0,0-1.86.37.38.38,0,0,0-.19.45c.24.64.73,2,.84,2.2a.54.54,0,0,0,.67.32" transform="translate(-0.22 -0.65)"/></g><g id="g478"><path id="path480" class="cls-9" d="M29.78,13v-.58c0,1.29-5,2.22-8.26,2.22-3.45,0-8.68-.44-8.68-2.22V13c0,1.78,5.23,2.66,8.68,2.66,3.23,0,8.26-1.36,8.26-2.66" transform="translate(-0.22 -0.65)"/></g><g id="g482"><path id="path484" class="cls-9" d="M21,19.69h5.59c2.17,0,2.2-.86,2.2-1.27v-.93H14.18v.93c0,.55,0,1.27,2.2,1.27Z" transform="translate(-0.22 -0.65)"/></g><g id="g486"><path id="path488" class="cls-29" d="M22.3,28.8l.19.06.27.42-.2-.06Z" transform="translate(-0.22 -0.65)"/></g><g id="g490"><path id="path492" class="cls-29" d="M21.16,29.94l.05.2.42.26-.06-.19Z" transform="translate(-0.22 -0.65)"/></g></g></g><g id="g494"><g class="cls-30"><g id="g496"><g id="g502"><g id="g504"><g id="g506"><path id="path508" class="cls-31" d="M22.8,30.08l-.07.06h0l.06-.07Z" transform="translate(-0.22 -0.65)"/><path id="path510" class="cls-32" d="M22.8,30.08l-.06.07,0,0a.24.24,0,0,0,.06-.09l0,0Z" transform="translate(-0.22 -0.65)"/><path id="path512" class="cls-33" d="M22.83,30.1a.24.24,0,0,1-.06.09l.06.06a.24.24,0,0,0,.06-.11l-.06,0Z" transform="translate(-0.22 -0.65)"/><path id="path514" class="cls-34" d="M22.89,30.14a.24.24,0,0,1-.06.11l.1.08a.43.43,0,0,0,.05-.12Z" transform="translate(-0.22 -0.65)"/><path id="path516" class="cls-31" d="M22.73,30.14l-.07.06,0,0,.06-.07Z" transform="translate(-0.22 -0.65)"/><path id="path518" class="cls-35" d="M22.74,30.15l-.06.07a.17.17,0,0,0,0,.05l.07-.08Z" transform="translate(-0.22 -0.65)"/><path id="path520" class="cls-36" d="M22.77,30.19l-.07.08.06.07.07-.09-.06-.06Z" transform="translate(-0.22 -0.65)"/><path id="path522" class="cls-37" d="M22.83,30.25l-.07.09a.75.75,0,0,0,.09.09l.08-.1Z" transform="translate(-0.22 -0.65)"/><path id="path524" class="cls-31" d="M22.66,30.2l-.06.06v0l.07-.06Z" transform="translate(-0.22 -0.65)"/><path id="path526" class="cls-38" d="M22.68,30.22l-.07.06,0,0,.06-.06A.17.17,0,0,1,22.68,30.22Z" transform="translate(-0.22 -0.65)"/><path id="path528" class="cls-39" d="M22.7,30.27l-.06.06.06.07.06-.06Z" transform="translate(-0.22 -0.65)"/><path id="path530" class="cls-40" d="M22.76,30.34l-.06.06.09.1.06-.07A.75.75,0,0,1,22.76,30.34Z" transform="translate(-0.22 -0.65)"/><path id="path532" class="cls-31" d="M22.6,30.26a.94.94,0,0,0-.1.1l0,0,.09-.1Z" transform="translate(-0.22 -0.65)"/><path id="path534" class="cls-35" d="M22.61,30.28l-.09.1s0,0,0,0l.1-.09,0,0Z" transform="translate(-0.22 -0.65)"/><path id="path536" class="cls-41" d="M22.64,30.33l-.05.05s0,0,.06.07l.05-.05-.06-.07Z" transform="translate(-0.22 -0.65)"/><path id="path538" class="cls-42" d="M22.7,30.4l-.05.05.08.1.06-.05-.09-.1Z" transform="translate(-0.22 -0.65)"/><path id="path540" class="cls-43" d="M22.59,30.38l-.05,0,.06.07,0,0s0-.06-.06-.07Z" transform="translate(-0.22 -0.65)"/><path id="path542" class="cls-44" d="M22.65,30.45l0,0a.58.58,0,0,0,.08.1l.05,0Z" transform="translate(-0.22 -0.65)"/><path id="path544" class="cls-31" d="M22.5,30.36l-.09.1h0l.1-.09,0,0Z" transform="translate(-0.22 -0.65)"/><path id="path546" class="cls-45" d="M22.52,30.38l-.1.09,0,0,.1-.07S22.52,30.39,22.52,30.38Z" transform="translate(-0.22 -0.65)"/><path id="path548" class="cls-35" d="M22.54,30.42l-.05,0,.05.07.06,0-.06-.07Z" transform="translate(-0.22 -0.65)"/><path id="path550" class="cls-43" d="M22.6,30.49l-.06,0,.07.1.07,0A.58.58,0,0,1,22.6,30.49Z" transform="translate(-0.22 -0.65)"/><path id="path552" class="cls-46" d="M22.49,30.46l0,0a.21.21,0,0,0,0,.06l.06,0Z" transform="translate(-0.22 -0.65)"/><path id="path554" class="cls-47" d="M22.54,30.53l-.06,0,.07.09h.06Z" transform="translate(-0.22 -0.65)"/><path id="path556" class="cls-36" d="M23,30.21a.14.14,0,0,1,0,.06h0a.14.14,0,0,0,0-.06Z" transform="translate(-0.22 -0.65)"/><path id="path558" class="cls-36" d="M23,30.22a.14.14,0,0,1,0,.06h0a.14.14,0,0,1,0-.06Z" transform="translate(-0.22 -0.65)"/><path id="path560" class="cls-48" d="M23,30.27l0,.06h0l0-.06Z" transform="translate(-0.22 -0.65)"/><path id="path562" class="cls-49" d="M23,30.28l0,.06h0l0-.06Z" transform="translate(-0.22 -0.65)"/><path id="path564" class="cls-36" d="M23,30.23l0,0a.14.14,0,0,1,0,.06l0,0A.14.14,0,0,1,23,30.23Z" transform="translate(-0.22 -0.65)"/><path id="path566" class="cls-34" d="M23,30.29l0,0,0,.07,0,0Z" transform="translate(-0.22 -0.65)"/><path id="path568" class="cls-50" d="M22.93,30.33l-.08.1v0l.08-.11Z" transform="translate(-0.22 -0.65)"/><path id="path570" class="cls-51" d="M22.94,30.34l-.08.11h0a.44.44,0,0,0,.08-.11Z" transform="translate(-0.22 -0.65)"/><path id="path572" class="cls-36" d="M23,30.35l0,.06h0a.13.13,0,0,0,0-.06Z" transform="translate(-0.22 -0.65)"/><path id="path574" class="cls-52" d="M23,30.36a.13.13,0,0,1,0,.06h0l0-.05Z" transform="translate(-0.22 -0.65)"/><path id="path576" class="cls-53" d="M22.91,30.41l0,.05h0l0,0Z" transform="translate(-0.22 -0.65)"/><path id="path578" class="cls-52" d="M22.92,30.42l0,0h0l0-.05Z" transform="translate(-0.22 -0.65)"/><path id="path580" class="cls-29" d="M22.85,30.43l0,0v0l0,0v0Z" transform="translate(-0.22 -0.65)"/><path id="path582" class="cls-40" d="M22.86,30.45l0,0h0s0,0,0,0Z" transform="translate(-0.22 -0.65)"/><path id="path584" class="cls-39" d="M22.87,30.46s0,0,0,0h0a.12.12,0,0,1,0,0Z" transform="translate(-0.22 -0.65)"/><path id="path586" class="cls-38" d="M22.89,30.47a.12.12,0,0,0,0,0h0a.12.12,0,0,0,0,0Z" transform="translate(-0.22 -0.65)"/><path id="path588" class="cls-54" d="M22.81,30.47l0,.06h0l.05-.05v0Z" transform="translate(-0.22 -0.65)"/><path id="path590" class="cls-50" d="M22.82,30.49l-.05.05h0l.05,0Z" transform="translate(-0.22 -0.65)"/><path id="path592" class="cls-42" d="M22.76,30.53l-.07,0s0,0,0,0l.06-.05Z" transform="translate(-0.22 -0.65)"/><path id="path594" class="cls-55" d="M22.77,30.54l-.06.05h0l.06-.05Z" transform="translate(-0.22 -0.65)"/><path id="path596" class="cls-53" d="M22.84,30.5l-.05,0h0s0,0,0,0Z" transform="translate(-0.22 -0.65)"/><path id="path598" class="cls-52" d="M22.85,30.51s0,0,0,0a0,0,0,0,1,0,0l0,0Z" transform="translate(-0.22 -0.65)"/><path id="path600" class="cls-56" d="M22.79,30.54l-.06.05h0l.07-.05Z" transform="translate(-0.22 -0.65)"/><path id="path602" class="cls-57" d="M22.82,30.54l-.07.05h0l.06-.05a0,0,0,0,0,0,0Z" transform="translate(-0.22 -0.65)"/><path id="path604" class="cls-36" d="M22.69,30.58l-.07,0h0l.08,0s0,0,0,0Z" transform="translate(-0.22 -0.65)"/><path id="path606" class="cls-58" d="M22.71,30.59l-.08,0h0l.08-.05Z" transform="translate(-0.22 -0.65)"/><path id="path608" class="cls-35" d="M22.62,30.62l-.07,0v0l.07,0Z" transform="translate(-0.22 -0.65)"/><path id="path610" class="cls-57" d="M22.63,30.63l-.07,0h0l.08,0Z" transform="translate(-0.22 -0.65)"/><path id="path612" class="cls-38" d="M22.73,30.59h0l-.09.06,0,0,.08-.05Z" transform="translate(-0.22 -0.65)"/><path id="path614" class="cls-59" d="M22.65,30.64l0,0-.1,0v0l.08,0Z" transform="translate(-0.22 -0.65)"/></g></g></g></g></g></g><g id="g616"><g class="cls-60"><g id="g618"><g id="g624"><g id="g626"><g id="g628"><path id="path630" class="cls-61" d="M22.73,30l-.11.09s0,0,0,.06a.67.67,0,0,0,.09-.14Z" transform="translate(-0.22 -0.65)"/><path id="path632" class="cls-61" d="M22.75,30a.67.67,0,0,1-.09.14l.11.12a.71.71,0,0,0,.08-.18Z" transform="translate(-0.22 -0.65)"/><path id="path634" class="cls-61" d="M22.62,30.05l-.1.09.05.07.09-.1S22.63,30.05,22.62,30.05Z" transform="translate(-0.22 -0.65)"/><path id="path636" class="cls-62" d="M22.66,30.11l-.09.1.05.05s.05-.05.08-.1Z" transform="translate(-0.22 -0.65)"/><path id="path638" class="cls-63" d="M22.7,30.16c0,.05-.07.08-.08.1s0,0,.06.08l.09-.11Z" transform="translate(-0.22 -0.65)"/><path id="path640" class="cls-61" d="M22.52,30.14l0,0,.05.06h0l-.05-.07Z" transform="translate(-0.22 -0.65)"/><path id="path642" class="cls-62" d="M22.57,30.21h0l.05.06,0,0Z" transform="translate(-0.22 -0.65)"/><path id="path644" class="cls-64" d="M22.62,30.26l0,0,.06.08,0,0S22.63,30.29,22.62,30.26Z" transform="translate(-0.22 -0.65)"/><path id="path646" class="cls-61" d="M22.5,30.16l.05.06-.06.06s0-.05,0-.06l.05-.06Z" transform="translate(-0.22 -0.65)"/><path id="path648" class="cls-65" d="M22.45,30.22l-.06.06h0l.05-.05v0Z" transform="translate(-0.22 -0.65)"/><path id="path650" class="cls-66" d="M22.46,30.24l-.05.05,0,0,.06,0Z" transform="translate(-0.22 -0.65)"/><path id="path652" class="cls-67" d="M22.55,30.22l-.06.06s0,0,.05,0l.06,0-.05-.06Z" transform="translate(-0.22 -0.65)"/><path id="path654" class="cls-68" d="M22.6,30.28l-.06,0,.06.08.06-.05Z" transform="translate(-0.22 -0.65)"/><path id="path656" class="cls-69" d="M22.49,30.28l.11.13-.06,0-.11-.12Z" transform="translate(-0.22 -0.65)"/><path id="path658" class="cls-70" d="M22.39,30.28l-.05,0h0l.06-.05Z" transform="translate(-0.22 -0.65)"/><path id="path660" class="cls-71" d="M22.41,30.29l-.06.05,0,0,.06,0,0,0Z" transform="translate(-0.22 -0.65)"/><path id="path662" class="cls-44" d="M22.34,30.33l0,0-.06,0,0,0Z" transform="translate(-0.22 -0.65)"/><path id="path664" class="cls-50" d="M22.43,30.33l-.12.08.08.11.15-.07Z" transform="translate(-0.22 -0.65)"/><path id="path666" class="cls-61" d="M22.85,30.05a.71.71,0,0,1-.08.18l0,0a.58.58,0,0,0,.08-.18Z" transform="translate(-0.22 -0.65)"/><path id="path668" class="cls-62" d="M22.88,30.07a.58.58,0,0,1-.08.18l0,0a.51.51,0,0,0,.09-.18l0,0Z" transform="translate(-0.22 -0.65)"/><path id="path670" class="cls-72" d="M22.91,30.1a.51.51,0,0,1-.09.18l0,0a.55.55,0,0,0,.09-.19Z" transform="translate(-0.22 -0.65)"/><path id="path672" class="cls-73" d="M23,30.12a.55.55,0,0,1-.09.19l0,0a.55.55,0,0,0,.09-.19l0,0Z" transform="translate(-0.22 -0.65)"/><path id="path674" class="cls-69" d="M22.77,30.23l-.09.11,0,0a.73.73,0,0,0,.09-.11Z" transform="translate(-0.22 -0.65)"/><path id="path676" class="cls-70" d="M22.8,30.25a.73.73,0,0,1-.09.11l0,0a.37.37,0,0,0,.09-.11l0,0Z" transform="translate(-0.22 -0.65)"/><path id="path678" class="cls-74" d="M22.82,30.28a.37.37,0,0,1-.09.11l.07.07.1-.12Z" transform="translate(-0.22 -0.65)"/><path id="path680" class="cls-29" d="M22.68,30.34h0l.05.05h0l-.05-.05Z" transform="translate(-0.22 -0.65)"/><path id="path682" class="cls-39" d="M22.73,30.39h0l.07.07h0l-.07-.07Z" transform="translate(-0.22 -0.65)"/><path id="path684" class="cls-29" d="M22.68,30.34a.69.69,0,0,1-.13.11s0,0,.06,0a.76.76,0,0,0,.12-.1l-.05-.05Z" transform="translate(-0.22 -0.65)"/><path id="path686" class="cls-44" d="M22.73,30.39a.76.76,0,0,1-.12.1.16.16,0,0,1,.08.06l.11-.09-.07-.07Z" transform="translate(-0.22 -0.65)"/><path id="path688" class="cls-75" d="M22.55,30.45l-.16.07,0,.06a.61.61,0,0,0,.18-.09S22.56,30.47,22.55,30.45Z" transform="translate(-0.22 -0.65)"/><path id="path690" class="cls-43" d="M22.61,30.49a.61.61,0,0,1-.18.09l.06.08a.78.78,0,0,0,.2-.11A.16.16,0,0,0,22.61,30.49Z" transform="translate(-0.22 -0.65)"/></g></g></g></g></g></g><g id="g692"><g class="cls-76"><g id="g694"><g id="g700"><g id="g702"><g id="g704"><path id="path706" class="cls-8" d="M22.11,30.48l.08,0,0,0-.08,0Z" transform="translate(-0.22 -0.65)"/><path id="path708" class="cls-77" d="M22.08,30.47l.08,0-.09-.06c-.05,0-.08.06-.08.08Z" transform="translate(-0.22 -0.65)"/><path id="path710" class="cls-8" d="M22.19,30.45a.83.83,0,0,0,.2-.11l0,0-.19.12Z" transform="translate(-0.22 -0.65)"/><path id="path712" class="cls-78" d="M22.16,30.42l-.09-.06a.35.35,0,0,0,.09-.06l.08.07Z" transform="translate(-0.22 -0.65)"/><path id="path714" class="cls-79" d="M22.24,30.37l-.08-.07.11-.08.08.08-.11.07Z" transform="translate(-0.22 -0.65)"/><path id="path716" class="cls-80" d="M22,30.44s0,0,.08-.08l-.14-.09a.32.32,0,0,0-.1.11l.16.06Z" transform="translate(-0.22 -0.65)"/><path id="path718" class="cls-81" d="M21.83,30.38l-.2-.09a.25.25,0,0,1,0-.07l.2.11Z" transform="translate(-0.22 -0.65)"/><path id="path720" class="cls-82" d="M21.87,30.33l-.2-.11.07-.08.19.13A.17.17,0,0,0,21.87,30.33Z" transform="translate(-0.22 -0.65)"/><path id="path722" class="cls-83" d="M22.07,30.36l-.33-.22.09-.09.33.25A.35.35,0,0,1,22.07,30.36Z" transform="translate(-0.22 -0.65)"/><path id="path724" class="cls-84" d="M22.16,30.3l-.33-.25.12-.11a3.7,3.7,0,0,1,.32.28Z" transform="translate(-0.22 -0.65)"/><path id="path726" class="cls-85" d="M21.63,30.29a5.43,5.43,0,0,1-1.32-1,.38.38,0,0,1,.06-.13,6.51,6.51,0,0,0,1.3,1.08A.25.25,0,0,0,21.63,30.29Z" transform="translate(-0.22 -0.65)"/><path id="path728" class="cls-86" d="M21.67,30.22a6.51,6.51,0,0,1-1.3-1.08,1.09,1.09,0,0,1,.08-.15,8.42,8.42,0,0,0,1.29,1.15Z" transform="translate(-0.22 -0.65)"/><path id="path730" class="cls-83" d="M21.74,30.14A8.42,8.42,0,0,1,20.45,29l.1-.14a11.79,11.79,0,0,0,1.28,1.2Z" transform="translate(-0.22 -0.65)"/><path id="path732" class="cls-87" d="M21.83,30.05a11.79,11.79,0,0,1-1.28-1.2l.13-.15A11.43,11.43,0,0,0,22,29.94Z" transform="translate(-0.22 -0.65)"/><path id="path734" class="cls-85" d="M20.31,29.27a3,3,0,0,1-.37-.46,1,1,0,0,1,0-.14,5.09,5.09,0,0,0,.39.47A.38.38,0,0,0,20.31,29.27Z" transform="translate(-0.22 -0.65)"/><path id="path736" class="cls-86" d="M20.37,29.14a5.09,5.09,0,0,1-.39-.47,1,1,0,0,1,.07-.15,5.56,5.56,0,0,0,.4.47A1.09,1.09,0,0,0,20.37,29.14Z" transform="translate(-0.22 -0.65)"/><path id="path738" class="cls-83" d="M20.45,29a5.56,5.56,0,0,1-.4-.47.71.71,0,0,1,.1-.14l.4.47Z" transform="translate(-0.22 -0.65)"/><path id="path740" class="cls-87" d="M20.55,28.85l-.4-.47.11-.15.42.47Z" transform="translate(-0.22 -0.65)"/><path id="path742" class="cls-85" d="M19.94,28.81a1.46,1.46,0,0,1-.17-.29.39.39,0,0,1,0-.14,3.31,3.31,0,0,0,.18.29,1,1,0,0,0,0,.14Z" transform="translate(-0.22 -0.65)"/><path id="path744" class="cls-86" d="M20,28.67a3.31,3.31,0,0,1-.18-.29.78.78,0,0,1,.05-.14l.2.28A1,1,0,0,0,20,28.67Z" transform="translate(-0.22 -0.65)"/><path id="path746" class="cls-85" d="M19.77,28.52a1,1,0,0,1,.08-.28L19.7,28a.87.87,0,0,0-.05.28A1.59,1.59,0,0,0,19.77,28.52Z" transform="translate(-0.22 -0.65)"/><path id="path748" class="cls-83" d="M20.05,28.52l-.2-.28.08-.14.22.28A.71.71,0,0,0,20.05,28.52Z" transform="translate(-0.22 -0.65)"/><path id="path750" class="cls-87" d="M20.15,28.38l-.22-.28A.64.64,0,0,1,20,28l.23.26Z" transform="translate(-0.22 -0.65)"/><path id="path752" class="cls-88" d="M19.85,28.24,19.7,28l.06-.13.17.26Z" transform="translate(-0.22 -0.65)"/><path id="path754" class="cls-89" d="M19.93,28.1l-.17-.26.06-.12L20,28A.64.64,0,0,0,19.93,28.1Z" transform="translate(-0.22 -0.65)"/><path id="path756" class="cls-85" d="M19.65,28.25a2.1,2.1,0,0,1-.12-.48c0-.1,0-.19,0-.26,0,.12.11.28.19.46A.87.87,0,0,0,19.65,28.25Z" transform="translate(-0.22 -0.65)"/><path id="path758" class="cls-90" d="M19.7,28c0-.09-.08-.17-.11-.25l0-.12.14.24Z" transform="translate(-0.22 -0.65)"/><path id="path760" class="cls-88" d="M19.76,27.84l-.14-.24,0-.1.17.22Z" transform="translate(-0.22 -0.65)"/><path id="path762" class="cls-80" d="M19.59,27.72a2.18,2.18,0,0,1,.06-.22l-.13-.18c0,.05,0,.11,0,.19S19.56,27.64,19.59,27.72Z" transform="translate(-0.22 -0.65)"/><path id="path764" class="cls-8" d="M22.39,30.34l-.12-.12,0,0,.11.13Z" transform="translate(-0.22 -0.65)"/><path id="path766" class="cls-91" d="M22.42,30.31l-.11-.13,0,0a.79.79,0,0,1,.12.14Z" transform="translate(-0.22 -0.65)"/><path id="path768" class="cls-92" d="M22.46,30.29a.79.79,0,0,0-.12-.14l0,0a1.31,1.31,0,0,0,.12.14A.08.08,0,0,0,22.46,30.29Z" transform="translate(-0.22 -0.65)"/><path id="path770" class="cls-93" d="M22.5,30.25a1.31,1.31,0,0,1-.12-.14l0,0a1.43,1.43,0,0,1,.11.15Z" transform="translate(-0.22 -0.65)"/><path id="path772" class="cls-8" d="M22.27,30.22a3.7,3.7,0,0,0-.32-.28l0,0a3.7,3.7,0,0,1,.32.28Z" transform="translate(-0.22 -0.65)"/><path id="path774" class="cls-87" d="M22.31,30.18A3.7,3.7,0,0,0,22,29.9l.05,0a2.08,2.08,0,0,1,.3.3Z" transform="translate(-0.22 -0.65)"/><path id="path776" class="cls-94" d="M22.34,30.15a2.08,2.08,0,0,0-.3-.3l.09-.09a1.9,1.9,0,0,1,.29.31A.3.3,0,0,1,22.34,30.15Z" transform="translate(-0.22 -0.65)"/><path id="path778" class="cls-95" d="M22.53,30.22l0,0-.11-.15,0,0A1.43,1.43,0,0,1,22.53,30.22Z" transform="translate(-0.22 -0.65)"/><path id="path780" class="cls-96" d="M22.42,30.07l0,0a1.9,1.9,0,0,0-.29-.31l0,0A1.9,1.9,0,0,1,22.42,30.07Z" transform="translate(-0.22 -0.65)"/><path id="path782" class="cls-97" d="M22.55,30.2s0,0,0-.05l.07-.07,0,.05Z" transform="translate(-0.22 -0.65)"/><path id="path784" class="cls-98" d="M22.62,30.13l0-.05.06-.07,0,0Z" transform="translate(-0.22 -0.65)"/><path id="path786" class="cls-99" d="M22.52,30.15l.13-.14-.07-.11a1,1,0,0,1-.14.15Z" transform="translate(-0.22 -0.65)"/><path id="path788" class="cls-100" d="M22.67,30.06l0,0a.43.43,0,0,1,0-.07l0,0Z" transform="translate(-0.22 -0.65)"/><path id="path790" class="cls-101" d="M22.72,30l0,0,0,0s0,0,0,.05Z" transform="translate(-0.22 -0.65)"/><path id="path792" class="cls-102" d="M22.74,30s0,0,0-.05l0,0s0,.05,0,.05Z" transform="translate(-0.22 -0.65)"/><path id="path794" class="cls-103" d="M22.65,30l-.07-.11.06-.07.05.11A.43.43,0,0,0,22.65,30Z" transform="translate(-0.22 -0.65)"/><path id="path796" class="cls-104" d="M22.69,29.94l-.05-.11,0,0a.51.51,0,0,1,.05.12Z" transform="translate(-0.22 -0.65)"/><path id="path798" class="cls-105" d="M22.71,29.91a.51.51,0,0,0-.05-.12l0,0a.51.51,0,0,1,.05.12Z" transform="translate(-0.22 -0.65)"/><path id="path800" class="cls-106" d="M22.44,30.05a1,1,0,0,0,.14-.15,1.16,1.16,0,0,0-.11-.16l-.15.17Z" transform="translate(-0.22 -0.65)"/><path id="path802" class="cls-107" d="M22.32,29.91l.15-.17a.86.86,0,0,0-.16-.18l-.16.18A1.35,1.35,0,0,1,22.32,29.91Z" transform="translate(-0.22 -0.65)"/><path id="path804" class="cls-108" d="M22.58,29.9a1.16,1.16,0,0,0-.11-.16.46.46,0,0,0,.07-.07l.1.16Z" transform="translate(-0.22 -0.65)"/><path id="path806" class="cls-109" d="M22.64,29.83l-.1-.16.05-.07a1.46,1.46,0,0,1,.09.16Z" transform="translate(-0.22 -0.65)"/><path id="path808" class="cls-110" d="M22.47,29.74a.86.86,0,0,0-.16-.18l.07-.08c.06.06.11.13.16.19A.46.46,0,0,1,22.47,29.74Z" transform="translate(-0.22 -0.65)"/><path id="path810" class="cls-111" d="M22.54,29.67c-.05-.06-.1-.13-.16-.19l.06-.08a2.08,2.08,0,0,1,.15.2Z" transform="translate(-0.22 -0.65)"/><path id="path812" class="cls-8" d="M22,29.94a12,12,0,0,1-1.25-1.22l.05-.06A13.19,13.19,0,0,0,22,29.9Z" transform="translate(-0.22 -0.65)"/><path id="path814" class="cls-79" d="M22,29.9a13.19,13.19,0,0,1-1.24-1.24l.06-.06A12.17,12.17,0,0,0,22,29.85Z" transform="translate(-0.22 -0.65)"/><path id="path816" class="cls-112" d="M22,29.85a12.17,12.17,0,0,1-1.23-1.25l.11-.11a16.94,16.94,0,0,0,1.21,1.27Z" transform="translate(-0.22 -0.65)"/><path id="path818" class="cls-8" d="M20.7,28.72l-.44-.49,0-.05.44.48Z" transform="translate(-0.22 -0.65)"/><path id="path820" class="cls-79" d="M20.75,28.66l-.44-.48.05-.06.45.48Z" transform="translate(-0.22 -0.65)"/><path id="path822" class="cls-112" d="M20.81,28.6l-.45-.48.11-.1.45.47Z" transform="translate(-0.22 -0.65)"/><path id="path824" class="cls-113" d="M22.13,29.76a16.94,16.94,0,0,1-1.21-1.27l.22-.2c.47.52.84,1,1.16,1.28Z" transform="translate(-0.22 -0.65)"/><path id="path826" class="cls-114" d="M22.3,29.57c-.32-.32-.69-.76-1.16-1.28l.1-.09c.5.55.86,1,1.14,1.28Z" transform="translate(-0.22 -0.65)"/><path id="path828" class="cls-115" d="M22.38,29.48c-.28-.3-.64-.73-1.14-1.28l.1-.08c.51.56.84,1,1.1,1.28Z" transform="translate(-0.22 -0.65)"/><path id="path830" class="cls-113" d="M20.92,28.49,20.47,28l.2-.18c.15.14.32.28.47.45Z" transform="translate(-0.22 -0.65)"/><path id="path832" class="cls-114" d="M21.14,28.29c-.15-.17-.32-.31-.47-.45l.1-.08a4.73,4.73,0,0,1,.47.44Z" transform="translate(-0.22 -0.65)"/><path id="path834" class="cls-115" d="M21.24,28.2a4.73,4.73,0,0,0-.47-.44l.1-.07a5.94,5.94,0,0,1,.47.43Z" transform="translate(-0.22 -0.65)"/><path id="path836" class="cls-8" d="M20.26,28.23,20,28l.06-.08.24.26Z" transform="translate(-0.22 -0.65)"/><path id="path838" class="cls-91" d="M20.33,28.15l-.24-.26.06-.07.26.25A.6.6,0,0,1,20.33,28.15Z" transform="translate(-0.22 -0.65)"/><path id="path840" class="cls-87" d="M20,28l-.21-.25,0-.07.23.24Z" transform="translate(-0.22 -0.65)"/><path id="path842" class="cls-116" d="M20.09,27.89l-.23-.24.05-.06.24.23Z" transform="translate(-0.22 -0.65)"/><path id="path844" class="cls-117" d="M20.41,28.07l.16-.15-.29-.23-.13.13Z" transform="translate(-0.22 -0.65)"/><path id="path846" class="cls-118" d="M20.15,27.82l.13-.13A2.4,2.4,0,0,0,20,27.5l-.08.09Z" transform="translate(-0.22 -0.65)"/><path id="path848" class="cls-83" d="M19.82,27.72l-.17-.22s0,0,0-.06l.19.21Z" transform="translate(-0.22 -0.65)"/><path id="path850" class="cls-119" d="M19.86,27.65l-.19-.21,0-.05.21.2Z" transform="translate(-0.22 -0.65)"/><path id="path852" class="cls-86" d="M19.65,27.5a.37.37,0,0,1,.05-.11,1.2,1.2,0,0,1-.16-.16.64.64,0,0,0,0,.09Z" transform="translate(-0.22 -0.65)"/><path id="path854" class="cls-120" d="M19.91,27.59,20,27.5a2.56,2.56,0,0,0-.25-.16s0,0,0,.05Z" transform="translate(-0.22 -0.65)"/><path id="path856" class="cls-121" d="M19.7,27.39s0-.05,0-.05l-.2-.14v0a1.2,1.2,0,0,0,.16.16Z" transform="translate(-0.22 -0.65)"/><path id="path858" class="cls-122" d="M20.57,27.92l.15-.12a1.29,1.29,0,0,0-.3-.22l-.14.11Z" transform="translate(-0.22 -0.65)"/><path id="path860" class="cls-123" d="M20.28,27.69l.14-.11-.33-.16-.1.08A2.4,2.4,0,0,1,20.28,27.69Z" transform="translate(-0.22 -0.65)"/><path id="path862" class="cls-124" d="M20.72,27.8a1.29,1.29,0,0,0-.3-.22l.07,0a1.49,1.49,0,0,1,.31.2Z" transform="translate(-0.22 -0.65)"/><path id="path864" class="cls-125" d="M20.8,27.74a1.49,1.49,0,0,0-.31-.2l.06,0a1.29,1.29,0,0,1,.32.19Z" transform="translate(-0.22 -0.65)"/><path id="path866" class="cls-126" d="M20.42,27.58l-.33-.16.06,0,.34.15Z" transform="translate(-0.22 -0.65)"/><path id="path868" class="cls-127" d="M20.49,27.54l-.34-.15.06,0a2.44,2.44,0,0,1,.34.14Z" transform="translate(-0.22 -0.65)"/><path id="path870" class="cls-128" d="M20,27.5l.1-.08-.3-.12-.05,0A2.56,2.56,0,0,1,20,27.5Z" transform="translate(-0.22 -0.65)"/><path id="path872" class="cls-129" d="M19.74,27.34l.05,0a1.5,1.5,0,0,1-.22-.11h0l.2.14Z" transform="translate(-0.22 -0.65)"/><path id="path874" class="cls-130" d="M20.09,27.42l-.3-.12.05,0,.31.11Z" transform="translate(-0.22 -0.65)"/><path id="path876" class="cls-131" d="M20.15,27.39l-.31-.11h.06l.31.09Z" transform="translate(-0.22 -0.65)"/><path id="path878" class="cls-132" d="M19.79,27.3l.11,0-.24-.09h-.09A1.5,1.5,0,0,0,19.79,27.3Z" transform="translate(-0.22 -0.65)"/><path id="path880" class="cls-133" d="M22.76,29.93s0,0,0-.05a.08.08,0,0,0,0,0l0,.05Z" transform="translate(-0.22 -0.65)"/><path id="path882" class="cls-134" d="M22.77,29.89l0-.05,0,0,0,.05,0,0Z" transform="translate(-0.22 -0.65)"/><path id="path884" class="cls-135" d="M22.79,29.86l0-.05v0a.11.11,0,0,0,0,0Z" transform="translate(-0.22 -0.65)"/><path id="path886" class="cls-136" d="M22.8,29.83a.11.11,0,0,1,0,0v0l0,0v0Z" transform="translate(-0.22 -0.65)"/><path id="path888" class="cls-137" d="M22.73,29.88a.51.51,0,0,0-.05-.12l.05-.06,0,.11Z" transform="translate(-0.22 -0.65)"/><path id="path890" class="cls-138" d="M22.77,29.81l0-.11v0a.76.76,0,0,1,0,.11Z" transform="translate(-0.22 -0.65)"/><path id="path892" class="cls-139" d="M22.78,29.79a.76.76,0,0,0,0-.11v0l0,.11v0Z" transform="translate(-0.22 -0.65)"/><path id="path894" class="cls-140" d="M22.81,29.81h0v0h0v0Z" transform="translate(-0.22 -0.65)"/><path id="path896" class="cls-141" d="M22.82,29.79h0Z" transform="translate(-0.22 -0.65)"/><path id="path898" class="cls-142" d="M22.8,29.8v0Z" transform="translate(-0.22 -0.65)"/><path id="path900" class="cls-143" d="M22.81,29.78v0h0v0Z" transform="translate(-0.22 -0.65)"/><path id="path902" class="cls-144" d="M22.82,29.78h0Z" transform="translate(-0.22 -0.65)"/><path id="path904" class="cls-145" d="M22.82,29.77h0Z" transform="translate(-0.22 -0.65)"/><path id="path906" class="cls-146" d="M22.82,29.77v0h0v0Z" transform="translate(-0.22 -0.65)"/><path id="path908" class="cls-147" d="M22.82,29.76v0h0v0Z" transform="translate(-0.22 -0.65)"/><path id="path910" class="cls-148" d="M22.79,29.77l0-.11h0l0,.1v0Z" transform="translate(-0.22 -0.65)"/><path id="path912" class="cls-149" d="M22.8,29.75l0-.1h0l0,.09Z" transform="translate(-0.22 -0.65)"/><path id="path914" class="cls-150" d="M22.81,29.74l0,0h0v0Z" transform="translate(-0.22 -0.65)"/><path id="path916" class="cls-151" d="M22.81,29.74v0h0v0Z" transform="translate(-0.22 -0.65)"/><path id="path918" class="cls-152" d="M22.79,29.7l0-.05h0l0,.06Z" transform="translate(-0.22 -0.65)"/><path id="path920" class="cls-153" d="M22.8,29.7l0-.06h0l0,.05Z" transform="translate(-0.22 -0.65)"/><path id="path922" class="cls-154" d="M22.68,29.76a1.46,1.46,0,0,0-.09-.16l.05-.06c0,.06.06.11.09.16Z" transform="translate(-0.22 -0.65)"/><path id="path924" class="cls-155" d="M22.73,29.7c0-.05-.05-.1-.09-.16s0,0,0,0l.08.15S22.74,29.68,22.73,29.7Z" transform="translate(-0.22 -0.65)"/><path id="path926" class="cls-156" d="M22.59,29.6c0-.05.06-.08.08-.09l-.13-.2-.1.09A2.08,2.08,0,0,1,22.59,29.6Z" transform="translate(-0.22 -0.65)"/><path id="path928" class="cls-154" d="M22.75,29.66l-.08-.15h0l.08.15Z" transform="translate(-0.22 -0.65)"/><path id="path930" class="cls-157" d="M22.76,29.65l-.08-.15h0a.71.71,0,0,1,.07.16Z" transform="translate(-0.22 -0.65)"/><path id="path932" class="cls-158" d="M22.76,29.65a.71.71,0,0,0-.07-.16h0a.77.77,0,0,1,.06.15Z" transform="translate(-0.22 -0.65)"/><path id="path934" class="cls-159" d="M22.77,29.64a.77.77,0,0,0-.06-.15h0c0,.06,0,.11.06.15Z" transform="translate(-0.22 -0.65)"/><path id="path936" class="cls-160" d="M22.67,29.51l-.13-.2,0,0a2.19,2.19,0,0,1,.11.2Z" transform="translate(-0.22 -0.65)"/><path id="path938" class="cls-161" d="M22.69,29.49a2.19,2.19,0,0,0-.11-.2h.05a1.89,1.89,0,0,1,.1.21Z" transform="translate(-0.22 -0.65)"/><path id="path940" class="cls-162" d="M22.44,29.4c-.26-.28-.59-.72-1.1-1.28a.46.46,0,0,1,.31-.13,5.08,5.08,0,0,1,1,1.29A.24.24,0,0,0,22.44,29.4Z" transform="translate(-0.22 -0.65)"/><path id="path942" class="cls-162" d="M21.34,28.12l0,0a.52.52,0,0,1,.3-.14l0,0A.46.46,0,0,0,21.34,28.12Z" transform="translate(-0.22 -0.65)"/><path id="path944" class="cls-162" d="M21.32,28.1a5.57,5.57,0,0,0-.45-.41.46.46,0,0,1,.29-.1,3.55,3.55,0,0,1,.46.37A.52.52,0,0,0,21.32,28.1Z" transform="translate(-0.22 -0.65)"/><path id="path946" class="cls-162" d="M20.87,27.69a.46.46,0,0,1,.29-.1,2.19,2.19,0,0,0-.29-.17c-.18,0-.18,0-.32.08A1.29,1.29,0,0,1,20.87,27.69Z" transform="translate(-0.22 -0.65)"/><path id="path948" class="cls-163" d="M20.55,27.5c.14-.09.14-.06.32-.08a1.59,1.59,0,0,0-.27-.12.86.86,0,0,0-.39.06A2.44,2.44,0,0,1,20.55,27.5Z" transform="translate(-0.22 -0.65)"/><path id="path950" class="cls-164" d="M20.21,27.36a.86.86,0,0,1,.39-.06l-.26-.08a1.29,1.29,0,0,0-.44.05Z" transform="translate(-0.22 -0.65)"/><path id="path952" class="cls-165" d="M19.9,27.27a1.29,1.29,0,0,1,.44-.05l-.23,0a1.66,1.66,0,0,0-.45,0l.24.09Z" transform="translate(-0.22 -0.65)"/></g></g></g></g></g></g><g id="g954"><g class="cls-166"><g id="g956"><g id="g962"><g id="g964"><g id="g966"><path id="path968" class="cls-167" d="M19.58,28l.22,0a.3.3,0,0,0,0-.1.46.46,0,0,1-.2.05A.64.64,0,0,1,19.58,28Z" transform="translate(-0.22 -0.65)"/><path id="path970" class="cls-167" d="M19.56,28a.13.13,0,0,0,0-.06l.09,0a.25.25,0,0,0,0,.07Z" transform="translate(-0.22 -0.65)"/><path id="path972" class="cls-168" d="M19.66,28a.25.25,0,0,1,0-.07l.09-.05,0,.08Z" transform="translate(-0.22 -0.65)"/><path id="path974" class="cls-169" d="M19.8,28l.19-.07c0-.05,0-.1,0-.14a1.18,1.18,0,0,1-.19.11A.3.3,0,0,1,19.8,28Z" transform="translate(-0.22 -0.65)"/><path id="path976" class="cls-170" d="M19.76,27.91A1.18,1.18,0,0,0,20,27.8l-.05-.09-.17.12Z" transform="translate(-0.22 -0.65)"/><path id="path978" class="cls-171" d="M20,27.94a.64.64,0,0,0-.09-.23l.08-.07a.61.61,0,0,1,.1.24Z" transform="translate(-0.22 -0.65)"/><path id="path980" class="cls-172" d="M20.08,27.88a.61.61,0,0,0-.1-.24l.07-.08a.63.63,0,0,1,.11.26Z" transform="translate(-0.22 -0.65)"/><path id="path982" class="cls-173" d="M20.16,27.82a.63.63,0,0,0-.11-.26l0,0a.53.53,0,0,1,.12.25Z" transform="translate(-0.22 -0.65)"/><path id="path984" class="cls-174" d="M20.2,27.78a.53.53,0,0,0-.12-.25l0,0a.49.49,0,0,1,.12.24Z" transform="translate(-0.22 -0.65)"/><path id="path986" class="cls-175" d="M20.23,27.74a.79.79,0,0,0,.14-.51l-.12,0a.56.56,0,0,1-.14.3A.49.49,0,0,1,20.23,27.74Z" transform="translate(-0.22 -0.65)"/><path id="path988" class="cls-167" d="M19.55,27.9a.45.45,0,0,0,.18-.07l0,0a.37.37,0,0,1-.15.08v0Z" transform="translate(-0.22 -0.65)"/><path id="path990" class="cls-167" d="M19.54,27.86a.37.37,0,0,0,.15-.08.21.21,0,0,0,0-.06l-.11.1v0Z" transform="translate(-0.22 -0.65)"/><path id="path992" class="cls-167" d="M19.54,27.82l.05,0s0,0,0-.05l0,.05v0Z" transform="translate(-0.22 -0.65)"/><path id="path994" class="cls-167" d="M19.53,27.78l0-.05,0-.05s0,.05,0,.06v0Z" transform="translate(-0.22 -0.65)"/><path id="path996" class="cls-176" d="M19.59,27.78l.06-.06,0-.06,0,.07S19.58,27.76,19.59,27.78Z" transform="translate(-0.22 -0.65)"/><path id="path998" class="cls-177" d="M19.57,27.73l0-.07,0-.05,0,.07Z" transform="translate(-0.22 -0.65)"/><path id="path1000" class="cls-168" d="M19.73,27.83l.08-.06,0-.06a.27.27,0,0,1-.08.07Z" transform="translate(-0.22 -0.65)"/><path id="path1002" class="cls-178" d="M19.69,27.78a.27.27,0,0,0,.08-.07l-.05-.06-.07.07a.21.21,0,0,1,0,.06Z" transform="translate(-0.22 -0.65)"/><path id="path1004" class="cls-179" d="M19.81,27.77l.09-.06,0-.06-.08.06Z" transform="translate(-0.22 -0.65)"/><path id="path1006" class="cls-180" d="M19.77,27.71l.08-.06-.06-.08-.07.08Z" transform="translate(-0.22 -0.65)"/><path id="path1008" class="cls-181" d="M19.65,27.72l.07-.07-.06-.07a.56.56,0,0,0-.05.08Z" transform="translate(-0.22 -0.65)"/><path id="path1010" class="cls-182" d="M19.61,27.66a.56.56,0,0,1,.05-.08l0-.06a.36.36,0,0,0,0,.09l0,.05Z" transform="translate(-0.22 -0.65)"/><path id="path1012" class="cls-183" d="M19.72,27.65l.07-.08-.07-.07-.06.08Z" transform="translate(-0.22 -0.65)"/><path id="path1014" class="cls-184" d="M19.66,27.58l.06-.08,0-.05-.05.07,0,.06Z" transform="translate(-0.22 -0.65)"/><path id="path1016" class="cls-185" d="M19.9,27.71l.06-.06-.05-.06-.06.06,0,.06Z" transform="translate(-0.22 -0.65)"/><path id="path1018" class="cls-186" d="M19.85,27.65l-.06-.08,0,0,.06.07,0,0Z" transform="translate(-0.22 -0.65)"/><path id="path1020" class="cls-187" d="M19.88,27.62l-.06-.07,0,0,.06.07,0,0Z" transform="translate(-0.22 -0.65)"/><path id="path1022" class="cls-188" d="M20,27.65l.06,0L20,27.54l-.05.05.05.06Z" transform="translate(-0.22 -0.65)"/><path id="path1024" class="cls-189" d="M19.91,27.59l.05-.05-.06-.06a.1.1,0,0,1,0,0Z" transform="translate(-0.22 -0.65)"/><path id="path1026" class="cls-190" d="M19.79,27.57l-.07-.07,0,0,.07.07,0,0Z" transform="translate(-0.22 -0.65)"/><path id="path1028" class="cls-191" d="M19.82,27.55l-.07-.07,0,0,.07.06,0,0Z" transform="translate(-0.22 -0.65)"/><path id="path1030" class="cls-192" d="M19.72,27.5l0-.05,0,0,.05.06Z" transform="translate(-0.22 -0.65)"/><path id="path1032" class="cls-193" d="M19.75,27.48l-.05-.06,0,0,.05.06,0,0Z" transform="translate(-0.22 -0.65)"/><path id="path1034" class="cls-194" d="M19.85,27.52a.1.1,0,0,0,0,0l0-.06-.07,0,.07.06Z" transform="translate(-0.22 -0.65)"/><path id="path1036" class="cls-195" d="M19.78,27.46l.07,0-.06-.05-.06,0,.05.06Z" transform="translate(-0.22 -0.65)"/><path id="path1038" class="cls-196" d="M20,27.6s0,0,.05-.05L20,27.5l-.05,0,.06.06Z" transform="translate(-0.22 -0.65)"/><path id="path1040" class="cls-197" d="M20,27.54l.05,0L20,27.44l-.06,0Z" transform="translate(-0.22 -0.65)"/><path id="path1042" class="cls-198" d="M20.07,27.55a.57.57,0,0,1-.11-.11l0,0,.11.1Z" transform="translate(-0.22 -0.65)"/><path id="path1044" class="cls-174" d="M20.09,27.52l-.11-.1h0l.11.09,0,0Z" transform="translate(-0.22 -0.65)"/><path id="path1046" class="cls-199" d="M19.9,27.48l.06,0-.05-.05-.06,0,0,.06Z" transform="translate(-0.22 -0.65)"/><path id="path1048" class="cls-200" d="M19.85,27.42l.06,0-.06-.05-.06,0,.06.05Z" transform="translate(-0.22 -0.65)"/><path id="path1050" class="cls-201" d="M20,27.44l-.11-.1h0l.1.09Z" transform="translate(-0.22 -0.65)"/><path id="path1052" class="cls-202" d="M20,27.42l-.1-.09h0l.1.09Z" transform="translate(-0.22 -0.65)"/><path id="path1054" class="cls-175" d="M20.11,27.5a.56.56,0,0,0,.14-.3l-.16,0c-.13.06-.12.09-.19.14Z" transform="translate(-0.22 -0.65)"/><path id="path1056" class="cls-167" d="M19.53,27.74s0,0,0-.06a.43.43,0,0,1,0-.05.14.14,0,0,1,0,.07.06.06,0,0,0,0,0Z" transform="translate(-0.22 -0.65)"/><path id="path1058" class="cls-167" d="M19.52,27.7a.14.14,0,0,0,0-.07v-.05s0,.05,0,.08Z" transform="translate(-0.22 -0.65)"/><path id="path1060" class="cls-203" d="M19.55,27.68l0-.07s0,0,0-.06,0,.06,0,.08A.43.43,0,0,0,19.55,27.68Z" transform="translate(-0.22 -0.65)"/><path id="path1062" class="cls-204" d="M19.54,27.63s0-.05,0-.08,0,0,0-.06,0,.06,0,.09v.05Z" transform="translate(-0.22 -0.65)"/><path id="path1064" class="cls-167" d="M19.52,27.66s0-.06,0-.08v-.1a.87.87,0,0,1,0,.1S19.52,27.63,19.52,27.66Z" transform="translate(-0.22 -0.65)"/><path id="path1066" class="cls-205" d="M19.53,27.58a.87.87,0,0,0,0-.1.28.28,0,0,1,0-.09l0,.1s0,.06,0,.09Z" transform="translate(-0.22 -0.65)"/><path id="path1068" class="cls-206" d="M19.58,27.61a.36.36,0,0,1,0-.09l0-.05,0,.08S19.57,27.59,19.58,27.61Z" transform="translate(-0.22 -0.65)"/><path id="path1070" class="cls-207" d="M19.56,27.55l0-.08s0,0,0-.06,0,.06,0,.08S19.56,27.53,19.56,27.55Z" transform="translate(-0.22 -0.65)"/><path id="path1072" class="cls-208" d="M19.62,27.52l.05-.07,0-.05a.43.43,0,0,0,0,.07Z" transform="translate(-0.22 -0.65)"/><path id="path1074" class="cls-209" d="M19.59,27.47a.43.43,0,0,1,0-.07l0,0,0,.06s0,0,0,.06Z" transform="translate(-0.22 -0.65)"/><path id="path1076" class="cls-210" d="M19.55,27.49s0,0,0-.08a.17.17,0,0,0,0-.05s0,.05,0,.08a.09.09,0,0,0,0,0Z" transform="translate(-0.22 -0.65)"/><path id="path1078" class="cls-205" d="M19.54,27.44s0-.05,0-.08a.05.05,0,0,0,0,0v.07s0,0,0,.05Z" transform="translate(-0.22 -0.65)"/><path id="path1080" class="cls-207" d="M19.57,27.41l0-.06,0-.05a.14.14,0,0,1,0,.06.17.17,0,0,1,0,.05Z" transform="translate(-0.22 -0.65)"/><path id="path1082" class="cls-204" d="M19.55,27.36a.14.14,0,0,0,0-.06l0,0a.43.43,0,0,0,0,.05.05.05,0,0,1,0,0Z" transform="translate(-0.22 -0.65)"/><path id="path1084" class="cls-211" d="M19.67,27.45l0-.05,0,0,0,.05Z" transform="translate(-0.22 -0.65)"/><path id="path1086" class="cls-212" d="M19.69,27.43l0-.05,0,0,0,.05Z" transform="translate(-0.22 -0.65)"/><path id="path1088" class="cls-208" d="M19.63,27.4l0,0,0,0,0,.05Z" transform="translate(-0.22 -0.65)"/><path id="path1090" class="cls-213" d="M19.65,27.38l0-.05v0l0,.05Z" transform="translate(-0.22 -0.65)"/><path id="path1092" class="cls-214" d="M19.72,27.41l.05,0a.12.12,0,0,0-.05-.05l0,0,0,.05Z" transform="translate(-0.22 -0.65)"/><path id="path1094" class="cls-215" d="M19.67,27.36l0,0-.06,0,0,0Z" transform="translate(-0.22 -0.65)"/><path id="path1096" class="cls-206" d="M19.6,27.35l0,0,0,0,0,0,0,.05Z" transform="translate(-0.22 -0.65)"/><path id="path1098" class="cls-203" d="M19.57,27.3l0,0-.06,0v0l0,0Z" transform="translate(-0.22 -0.65)"/><path id="path1100" class="cls-216" d="M19.63,27.31l0,0-.06,0v0Z" transform="translate(-0.22 -0.65)"/><path id="path1102" class="cls-217" d="M19.59,27.27v0l-.06,0v0l.06,0Z" transform="translate(-0.22 -0.65)"/><path id="path1104" class="cls-218" d="M19.77,27.38l.06,0-.07-.05,0,0a.12.12,0,0,1,.05.05Z" transform="translate(-0.22 -0.65)"/><path id="path1106" class="cls-219" d="M19.72,27.33l0,0-.07,0,0,0,.06,0Z" transform="translate(-0.22 -0.65)"/><path id="path1108" class="cls-220" d="M19.83,27.35l.05,0-.08,0h0Z" transform="translate(-0.22 -0.65)"/><path id="path1110" class="cls-221" d="M19.76,27.3h0l-.08,0h0Z" transform="translate(-0.22 -0.65)"/><path id="path1112" class="cls-222" d="M19.66,27.28l0,0-.07,0,0,0Z" transform="translate(-0.22 -0.65)"/><path id="path1114" class="cls-223" d="M19.6,27.25l0,0-.08,0h0l.06,0Z" transform="translate(-0.22 -0.65)"/><path id="path1116" class="cls-224" d="M19.69,27.26h0l-.09,0h0l.07,0Z" transform="translate(-0.22 -0.65)"/><path id="path1118" class="cls-225" d="M19.62,27.23h0l-.09,0h0l.08,0Z" transform="translate(-0.22 -0.65)"/><path id="path1120" class="cls-226" d="M19.88,27.33h0a.2.2,0,0,0-.08,0h0l.08,0Z" transform="translate(-0.22 -0.65)"/><path id="path1122" class="cls-227" d="M19.8,27.29h0l-.09,0h0l.08,0Z" transform="translate(-0.22 -0.65)"/><path id="path1124" class="cls-228" d="M19.72,27.25h0l-.09,0h0l.09,0Z" transform="translate(-0.22 -0.65)"/><path id="path1126" class="cls-229" d="M19.63,27.22h0l-.09,0h0l.09,0Z" transform="translate(-0.22 -0.65)"/><path id="path1128" class="cls-175" d="M19.9,27.32c.07-.05.06-.08.19-.14h0a1,1,0,0,0-.23.11.2.2,0,0,1,.08,0Z" transform="translate(-0.22 -0.65)"/><path id="path1130" class="cls-230" d="M19.82,27.28a1,1,0,0,1,.23-.11h0a1.3,1.3,0,0,0-.28.07l.09,0Z" transform="translate(-0.22 -0.65)"/><path id="path1132" class="cls-172" d="M19.73,27.24a1.3,1.3,0,0,1,.28-.07h0a.8.8,0,0,0-.33,0l.09,0Z" transform="translate(-0.22 -0.65)"/><path id="path1134" class="cls-231" d="M19.64,27.22a.8.8,0,0,1,.33,0h0a1.54,1.54,0,0,0-.38,0l.09,0Z" transform="translate(-0.22 -0.65)"/></g></g></g></g></g></g><g id="g1136"><g class="cls-232"><g id="g1138"><g id="g1144"><g id="g1146"><g id="g1148"><path id="path1150" class="cls-167" d="M20,28.57a.27.27,0,0,0,.12,0l-.1,0-.11,0Z" transform="translate(-0.22 -0.65)"/><path id="path1152" class="cls-167" d="M19.89,28.59l.11,0h-.1l-.09,0Z" transform="translate(-0.22 -0.65)"/><path id="path1154" class="cls-233" d="M20.1,28.54l-.1,0h.05l.11,0-.06,0Z" transform="translate(-0.22 -0.65)"/><path id="path1156" class="cls-170" d="M20.16,28.52l-.11,0,.06,0,.11,0-.06,0Z" transform="translate(-0.22 -0.65)"/><path id="path1158" class="cls-234" d="M20,28.56h-.1l0,0H20Z" transform="translate(-0.22 -0.65)"/><path id="path1160" class="cls-235" d="M20.05,28.55h-.11l.06,0a.2.2,0,0,0,.11,0l-.06,0Z" transform="translate(-0.22 -0.65)"/><path id="path1162" class="cls-167" d="M19.81,28.6a.56.56,0,0,0,0-.08h.06l0,.07Z" transform="translate(-0.22 -0.65)"/><path id="path1164" class="cls-236" d="M19.86,28.58l0-.07h0l.06.07Z" transform="translate(-0.22 -0.65)"/><path id="path1166" class="cls-237" d="M19.9,28.57l-.06-.07h0a.11.11,0,0,0,.07.06Z" transform="translate(-0.22 -0.65)"/><path id="path1168" class="cls-238" d="M19.94,28.55a.11.11,0,0,1-.07-.06l.05,0a.08.08,0,0,0,.08.05Z" transform="translate(-0.22 -0.65)"/><path id="path1170" class="cls-239" d="M20.22,28.5a1.24,1.24,0,0,0,.2-.1h0a1.19,1.19,0,0,1-.25.13l.08,0Z" transform="translate(-0.22 -0.65)"/><path id="path1172" class="cls-240" d="M20.14,28.52a1.19,1.19,0,0,0,.25-.13l0,0a1.59,1.59,0,0,1-.32.16Z" transform="translate(-0.22 -0.65)"/><path id="path1174" class="cls-241" d="M20.05,28.53l.18-.07s0,0,0,0l-.22.09Z" transform="translate(-0.22 -0.65)"/><path id="path1176" class="cls-242" d="M20,28.52l.22-.09,0,0a1.35,1.35,0,0,1-.24.08.08.08,0,0,0,0,.05Z" transform="translate(-0.22 -0.65)"/><path id="path1178" class="cls-243" d="M20.23,28.46l.14-.09v0l-.17.08S20.21,28.45,20.23,28.46Z" transform="translate(-0.22 -0.65)"/><path id="path1180" class="cls-244" d="M20.19,28.43l.17-.08,0-.05-.17.09Z" transform="translate(-0.22 -0.65)"/><path id="path1182" class="cls-188" d="M20.42,28.4l.18-.15s0,0,0,0a.85.85,0,0,1-.2.17Z" transform="translate(-0.22 -0.65)"/><path id="path1184" class="cls-245" d="M20.39,28.39a.85.85,0,0,0,.2-.17v0a.74.74,0,0,1-.21.17l0,0Z" transform="translate(-0.22 -0.65)"/><path id="path1186" class="cls-246" d="M20.37,28.37a.74.74,0,0,0,.21-.17v0a1,1,0,0,1-.21.18Z" transform="translate(-0.22 -0.65)"/><path id="path1188" class="cls-247" d="M20.36,28.35a1,1,0,0,0,.21-.18s0,0,0,0a.67.67,0,0,1-.22.17Z" transform="translate(-0.22 -0.65)"/><path id="path1190" class="cls-248" d="M20.6,28.25l.11-.12s0-.06,0-.07a.76.76,0,0,1-.11.14S20.59,28.23,20.6,28.25Z" transform="translate(-0.22 -0.65)"/><path id="path1192" class="cls-249" d="M20.58,28.2a.76.76,0,0,0,.11-.14L20.64,28a.51.51,0,0,1-.09.13.15.15,0,0,0,0,.07Z" transform="translate(-0.22 -0.65)"/><path id="path1194" class="cls-230" d="M20.71,28.13c0-.08,0-.07-.07-.13s.05-.11.08-.16.06.06.07.15A1,1,0,0,1,20.71,28.13Z" transform="translate(-0.22 -0.65)"/><path id="path1196" class="cls-175" d="M20.79,28v-.07l0-.09a.2.2,0,0,0,0,.07l-.05.09Z" transform="translate(-0.22 -0.65)"/><path id="path1198" class="cls-230" d="M20.84,27.9l0-.08v0a.3.3,0,0,1,0,.08v0Z" transform="translate(-0.22 -0.65)"/><path id="path1200" class="cls-174" d="M20.83,27.86a.3.3,0,0,0,0-.08v0a.36.36,0,0,1,0,.09Z" transform="translate(-0.22 -0.65)"/><path id="path1202" class="cls-175" d="M20.79,27.92s0,0,0,0a.47.47,0,0,0,.05-.1.07.07,0,0,1,0,0l0,.09Z" transform="translate(-0.22 -0.65)"/><path id="path1204" class="cls-175" d="M20.83,27.83a.07.07,0,0,0,0,0,.37.37,0,0,0,.05-.11v.07a.36.36,0,0,1,0,.09Z" transform="translate(-0.22 -0.65)"/><path id="path1206" class="cls-172" d="M20.87,27.82l0-.09v-.05a.38.38,0,0,1,0,.1v0Z" transform="translate(-0.22 -0.65)"/><path id="path1208" class="cls-250" d="M20.87,27.78a.38.38,0,0,0,0-.1s0,0,0,0a.3.3,0,0,1,0,.1v0Z" transform="translate(-0.22 -0.65)"/><path id="path1210" class="cls-231" d="M20.9,27.73a.44.44,0,0,0,0-.1v0l0,.09v.05Z" transform="translate(-0.22 -0.65)"/><path id="path1212" class="cls-251" d="M20.9,27.68s0,0,0,0,0,0,0,0v0s0,0,0,0Z" transform="translate(-0.22 -0.65)"/><path id="path1214" class="cls-188" d="M20.92,27.64v0l0-.05v0s0,0,0,.05Z" transform="translate(-0.22 -0.65)"/><path id="path1216" class="cls-252" d="M20.87,27.74a.3.3,0,0,0,0-.1v0a.69.69,0,0,1,0,.1v0Z" transform="translate(-0.22 -0.65)"/><path id="path1218" class="cls-175" d="M20.87,27.71a.69.69,0,0,0,0-.1v0l0,.1v0Z" transform="translate(-0.22 -0.65)"/><path id="path1220" class="cls-253" d="M20.91,27.64l0-.09V27.5l0,.11v0Z" transform="translate(-0.22 -0.65)"/><path id="path1222" class="cls-173" d="M20.91,27.61l0-.11v0a.36.36,0,0,0,0,.11Z" transform="translate(-0.22 -0.65)"/><path id="path1224" class="cls-175" d="M20.77,27.88l-.05,0a1.8,1.8,0,0,0,.08-.21l.07,0a1,1,0,0,1-.1.21Z" transform="translate(-0.22 -0.65)"/><path id="path1226" class="cls-254" d="M20.87,27.67l0,0,0-.1,0,0Z" transform="translate(-0.22 -0.65)"/><path id="path1228" class="cls-174" d="M20.91,27.57l0,0a.61.61,0,0,0,0-.11l.05,0A.36.36,0,0,0,20.91,27.57Z" transform="translate(-0.22 -0.65)"/><path id="path1230" class="cls-175" d="M20.84,27.65l.06-.21,0,0a.83.83,0,0,1-.06.21l0,0Z" transform="translate(-0.22 -0.65)"/><path id="path1232" class="cls-167" d="M19.76,28.52l0-.07h.06s0,0,0,.06Z" transform="translate(-0.22 -0.65)"/><path id="path1234" class="cls-255" d="M19.82,28.51h0s0,0,0,0h0l0,0Z" transform="translate(-0.22 -0.65)"/><path id="path1236" class="cls-256" d="M19.8,28.48h0a0,0,0,0,1,0,0h0v0Z" transform="translate(-0.22 -0.65)"/><path id="path1238" class="cls-167" d="M19.73,28.45h.09a.11.11,0,0,1,0-.07l-.14,0Z" transform="translate(-0.22 -0.65)"/><path id="path1240" class="cls-257" d="M19.84,28.5h0l0,0h0s0,0,0,0Z" transform="translate(-0.22 -0.65)"/><path id="path1242" class="cls-258" d="M19.83,28.47h0v0h0a0,0,0,0,0,0,0Z" transform="translate(-0.22 -0.65)"/><path id="path1244" class="cls-259" d="M19.87,28.49l.05,0,0,0h0Z" transform="translate(-0.22 -0.65)"/><path id="path1246" class="cls-260" d="M19.85,28.46h0v0h0v0Z" transform="translate(-0.22 -0.65)"/><path id="path1248" class="cls-261" d="M19.82,28.44a.11.11,0,0,1,0-.07l.07,0a.26.26,0,0,0-.06.08Z" transform="translate(-0.22 -0.65)"/><path id="path1250" class="cls-262" d="M19.85,28.43h0s0,0,0,0l-.05,0Z" transform="translate(-0.22 -0.65)"/><path id="path1252" class="cls-263" d="M19.87,28.4l.05,0,.06-.05-.07,0,0,0Z" transform="translate(-0.22 -0.65)"/><path id="path1254" class="cls-264" d="M19.92,28.47a1.35,1.35,0,0,0,.24-.08.05.05,0,0,0,0,0l-.22.08,0,0Z" transform="translate(-0.22 -0.65)"/><path id="path1256" class="cls-242" d="M19.9,28.45l.22-.08,0,0-.19.07Z" transform="translate(-0.22 -0.65)"/><path id="path1258" class="cls-265" d="M20.16,28.39l.17-.09h0l-.17.08a.05.05,0,0,1,0,0Z" transform="translate(-0.22 -0.65)"/><path id="path1260" class="cls-244" d="M20.12,28.37l.17-.08-.05,0-.15.08Z" transform="translate(-0.22 -0.65)"/><path id="path1262" class="cls-241" d="M19.9,28.42a1.56,1.56,0,0,0,.34-.15.05.05,0,0,1,0,0,1.2,1.2,0,0,1-.28.13S19.91,28.41,19.9,28.42Z" transform="translate(-0.22 -0.65)"/><path id="path1264" class="cls-240" d="M19.92,28.38a1.2,1.2,0,0,0,.28-.13s0,0,0,0a1.51,1.51,0,0,1-.22.11l-.06.05Z" transform="translate(-0.22 -0.65)"/><path id="path1266" class="cls-266" d="M20.33,28.3a.58.58,0,0,0,.22-.17H20.5a.77.77,0,0,1-.21.17Z" transform="translate(-0.22 -0.65)"/><path id="path1268" class="cls-247" d="M20.29,28.29a.77.77,0,0,0,.21-.17l0,0a1,1,0,0,1-.22.17Z" transform="translate(-0.22 -0.65)"/><path id="path1270" class="cls-246" d="M20.24,28.27a1,1,0,0,0,.22-.17l0,0a1,1,0,0,1-.22.17A.05.05,0,0,0,20.24,28.27Z" transform="translate(-0.22 -0.65)"/><path id="path1272" class="cls-245" d="M20.2,28.25a1,1,0,0,0,.22-.17l0,0a1.08,1.08,0,0,1-.2.16s0,0,0,0Z" transform="translate(-0.22 -0.65)"/><path id="path1274" class="cls-267" d="M20.55,28.13a.42.42,0,0,0,.09-.14l-.07,0a.76.76,0,0,1-.11.14Z" transform="translate(-0.22 -0.65)"/><path id="path1276" class="cls-249" d="M20.46,28.1a.76.76,0,0,0,.11-.14l-.05,0a.75.75,0,0,1-.12.14A.15.15,0,0,0,20.46,28.1Z" transform="translate(-0.22 -0.65)"/><path id="path1278" class="cls-268" d="M20.64,28a.35.35,0,0,1-.12-.07,1.4,1.4,0,0,0,.1-.16l.1.08C20.69,27.89,20.67,28,20.64,28Z" transform="translate(-0.22 -0.65)"/><path id="path1280" class="cls-175" d="M20.72,27.84a1.6,1.6,0,0,0,.14-.42.34.34,0,0,0-.12-.06,1.33,1.33,0,0,1-.12.4Z" transform="translate(-0.22 -0.65)"/></g></g></g></g></g></g><g id="g1282"><g class="cls-269"><g id="g1284"><g id="g1290"><path id="path1292" class="cls-57" d="M22.64,29.88a5.77,5.77,0,0,0-.42-.65l.71.25.62,1A3.6,3.6,0,0,0,23,30a.63.63,0,0,0-.38-.13" transform="translate(-0.22 -0.65)"/></g><g id="g1294"><path id="path1296" class="cls-270" d="M22.26,29.09l0,.14.71.25,0-.16Z" transform="translate(-0.22 -0.65)"/></g><g id="g1298"><path id="path1300" class="cls-61" d="M23.59,30.26l0,.18-.62-1,0-.16Z" transform="translate(-0.22 -0.65)"/></g><g id="g1302"><path id="path1304" class="cls-57" d="M22.23,30.29a4.31,4.31,0,0,1-.66-.42l.26.71,1,.62a4.19,4.19,0,0,1-.44-.53.68.68,0,0,1-.12-.38" transform="translate(-0.22 -0.65)"/></g><g id="g1306"><path id="path1308" class="cls-270" d="M21.44,29.92l.13-.05.26.71-.16.05Z" transform="translate(-0.22 -0.65)"/></g><g id="g1310"><path id="path1312" class="cls-61" d="M22.61,31.25l.18-.05-1-.62-.16.05Z" transform="translate(-0.22 -0.65)"/></g></g></g></g><g id="g1314"><g class="cls-271"><g id="g1316"><g id="g1322"><g id="g1324"><g id="g1326"><path id="path1328" class="cls-29" d="M21.21,29.35a.4.4,0,0,1-.15,0h0a.8.8,0,0,0,.15,0Z" transform="translate(-0.22 -0.65)"/><path id="path1330" class="cls-29" d="M21.25,29.34a.8.8,0,0,1-.15,0l0,0,.15.06Z" transform="translate(-0.22 -0.65)"/><path id="path1332" class="cls-29" d="M21.29,29.34l-.15-.06.09-.05.15.09Z" transform="translate(-0.22 -0.65)"/><path id="path1334" class="cls-29" d="M21.38,29.32l-.15-.09,0,0,.15.09Z" transform="translate(-0.22 -0.65)"/><path id="path1336" class="cls-29" d="M21.42,29.3l-.15-.09.06,0a1.25,1.25,0,0,1,.12.09Z" transform="translate(-0.22 -0.65)"/><path id="path1338" class="cls-29" d="M21.45,29.28a1.25,1.25,0,0,0-.12-.09l.1-.05a.38.38,0,0,0,.09.09A.18.18,0,0,1,21.45,29.28Z" transform="translate(-0.22 -0.65)"/><path id="path1340" class="cls-29" d="M21.52,29.23a.46.46,0,0,0,.07-.07.43.43,0,0,0,0-.07.39.39,0,0,1-.08.1l.05,0Z" transform="translate(-0.22 -0.65)"/><path id="path1342" class="cls-29" d="M21.47,29.19a.39.39,0,0,0,.08-.1L21.49,29a.24.24,0,0,1-.06.11Z" transform="translate(-0.22 -0.65)"/><path id="path1344" class="cls-29" d="M21.59,29.16l.06-.09,0-.08-.05.1a.43.43,0,0,1,0,.07Z" transform="translate(-0.22 -0.65)"/><path id="path1346" class="cls-272" d="M21.55,29.09,21.49,29l0-.06.05.07a.08.08,0,0,1,0,.05Z" transform="translate(-0.22 -0.65)"/><path id="path1348" class="cls-66" d="M21.57,29,21.52,29l0,0,.05.07Z" transform="translate(-0.22 -0.65)"/><path id="path1350" class="cls-29" d="M21.65,29.07l0-.1a.13.13,0,0,0,0-.08.31.31,0,0,1,0,.1Z" transform="translate(-0.22 -0.65)"/><path id="path1352" class="cls-65" d="M21.6,29a.31.31,0,0,0,0-.1l0-.07a.36.36,0,0,0-.07.1Z" transform="translate(-0.22 -0.65)"/><path id="path1354" class="cls-29" d="M21.68,29a.41.41,0,0,0,0-.11v-.07a.42.42,0,0,1,0,.1.13.13,0,0,1,0,.08Z" transform="translate(-0.22 -0.65)"/><path id="path1356" class="cls-72" d="M21.65,28.89a.42.42,0,0,0,0-.1s0-.05,0-.08a.54.54,0,0,1-.05.11Z" transform="translate(-0.22 -0.65)"/><path id="path1358" class="cls-29" d="M21.06,29.32l-.07,0,0,0,.07,0Z" transform="translate(-0.22 -0.65)"/><path id="path1360" class="cls-37" d="M21.1,29.31l-.07,0,0,0,.07,0,0,0Z" transform="translate(-0.22 -0.65)"/><path id="path1362" class="cls-29" d="M21,29.3l-.06,0,0,0,.07,0Z" transform="translate(-0.22 -0.65)"/><path id="path1364" class="cls-273" d="M21,29.27l-.07,0,0,0,.07,0,0,0Z" transform="translate(-0.22 -0.65)"/><path id="path1366" class="cls-39" d="M21.14,29.28a.42.42,0,0,1-.14-.09l0,0,.15.1Z" transform="translate(-0.22 -0.65)"/><path id="path1368" class="cls-41" d="M21.19,29.26l-.15-.1,0,0,.15.11Z" transform="translate(-0.22 -0.65)"/><path id="path1370" class="cls-274" d="M21.23,29.23l-.15-.11,0,0,.15.13Z" transform="translate(-0.22 -0.65)"/><path id="path1372" class="cls-75" d="M21.27,29.21l-.15-.13,0,0,.17.15Z" transform="translate(-0.22 -0.65)"/><path id="path1374" class="cls-275" d="M21.33,29.19,21.16,29l0,0,.18.17Z" transform="translate(-0.22 -0.65)"/><path id="path1376" class="cls-276" d="M21.38,29.17,21.2,29l0,0,.19.18Z" transform="translate(-0.22 -0.65)"/><path id="path1378" class="cls-29" d="M21.43,29.14,21.24,29l.11-.13s.1.15.14.2A.24.24,0,0,1,21.43,29.14Z" transform="translate(-0.22 -0.65)"/><path id="path1380" class="cls-277" d="M21.49,29c0-.05-.1-.16-.14-.2a.56.56,0,0,1,0-.08s.08.17.12.22Z" transform="translate(-0.22 -0.65)"/><path id="path1382" class="cls-62" d="M21.52,29s-.08-.18-.12-.22l.05-.07c0,.05.06.19.1.24Z" transform="translate(-0.22 -0.65)"/><path id="path1384" class="cls-61" d="M21.55,28.92c0-.05-.06-.19-.1-.24a.25.25,0,0,1,.08-.05s.06.14.09.19A.36.36,0,0,0,21.55,28.92Z" transform="translate(-0.22 -0.65)"/><path id="path1386" class="cls-65" d="M21.62,28.82c0-.05-.05-.15-.09-.19a.18.18,0,0,0,.08-.05.38.38,0,0,1,.06.13A.54.54,0,0,1,21.62,28.82Z" transform="translate(-0.22 -0.65)"/><path id="path1388" class="cls-29" d="M20.93,29.26l-.07-.06,0,0,.07.06,0,0Z" transform="translate(-0.22 -0.65)"/><path id="path1390" class="cls-278" d="M21,29.23l-.07-.06,0,0,.07.06Z" transform="translate(-0.22 -0.65)"/><path id="path1392" class="cls-33" d="M21,29.19l-.07-.06,0,0,.07.07Z" transform="translate(-0.22 -0.65)"/><path id="path1394" class="cls-279" d="M21,29.16,21,29.09l0,0,.08.07Z" transform="translate(-0.22 -0.65)"/><path id="path1396" class="cls-29" d="M20.86,29.2l-.06-.07,0,0,.06.08,0,0Z" transform="translate(-0.22 -0.65)"/><path id="path1398" class="cls-274" d="M20.89,29.17l-.06-.08,0,0a.27.27,0,0,0,.07.08l0,0Z" transform="translate(-0.22 -0.65)"/><path id="path1400" class="cls-29" d="M20.8,29.13a.3.3,0,0,1,0-.08.05.05,0,0,1,0,0,.35.35,0,0,0,0,.08l0,0Z" transform="translate(-0.22 -0.65)"/><path id="path1402" class="cls-280" d="M20.83,29.09a.35.35,0,0,1,0-.08s0,0,0-.05l.06.09,0,0Z" transform="translate(-0.22 -0.65)"/><path id="path1404" class="cls-281" d="M20.93,29.13a.27.27,0,0,1-.07-.08l0,0,.08.08Z" transform="translate(-0.22 -0.65)"/><path id="path1406" class="cls-282" d="M21,29.09,20.89,29l0-.05.07.09,0,0Z" transform="translate(-0.22 -0.65)"/><path id="path1408" class="cls-47" d="M20.86,29.05,20.8,29l0,0,.06.09Z" transform="translate(-0.22 -0.65)"/><path id="path1410" class="cls-283" d="M20.89,29l-.06-.09,0,0a.27.27,0,0,0,.07.08l0,.05Z" transform="translate(-0.22 -0.65)"/><path id="path1412" class="cls-57" d="M21.08,29.12,21,29l0,0,.12.12Z" transform="translate(-0.22 -0.65)"/><path id="path1414" class="cls-281" d="M21.12,29.08l0,0L21.1,29l0,0,.06.06Z" transform="translate(-0.22 -0.65)"/><path id="path1416" class="cls-47" d="M21.06,29l0,0L21,28.92l0,0Z" transform="translate(-0.22 -0.65)"/><path id="path1418" class="cls-284" d="M21,29l0,0-.06-.06,0,0Z" transform="translate(-0.22 -0.65)"/><path id="path1420" class="cls-285" d="M20.91,28.94l0,0-.05-.07,0,.05Z" transform="translate(-0.22 -0.65)"/><path id="path1422" class="cls-286" d="M21,29l0,0L21,28.86l0,0L21,29Z" transform="translate(-0.22 -0.65)"/><path id="path1424" class="cls-287" d="M20.94,28.9l0,0-.06-.07,0,0Z" transform="translate(-0.22 -0.65)"/><path id="path1426" class="cls-58" d="M21.16,29l0,0-.06-.06,0,0Z" transform="translate(-0.22 -0.65)"/><path id="path1428" class="cls-33" d="M21.1,29l0,0-.06-.06,0,0,.06.06Z" transform="translate(-0.22 -0.65)"/><path id="path1430" class="cls-288" d="M21.2,29l0,0-.06-.06,0,0Z" transform="translate(-0.22 -0.65)"/><path id="path1432" class="cls-53" d="M21.14,28.94l0,0-.07-.06,0,0,.06.06Z" transform="translate(-0.22 -0.65)"/><path id="path1434" class="cls-57" d="M21,28.92l.07-.08-.06-.06-.07.08.06.06Z" transform="translate(-0.22 -0.65)"/><path id="path1436" class="cls-286" d="M21,28.86l.07-.08L21,28.71l-.07.08Z" transform="translate(-0.22 -0.65)"/><path id="path1438" class="cls-29" d="M21.24,29s0,0,.05-.06l-.06-.06-.05.06Z" transform="translate(-0.22 -0.65)"/><path id="path1440" class="cls-74" d="M21.18,28.9l.05-.06-.06-.06-.06.06.07.06Z" transform="translate(-0.22 -0.65)"/><path id="path1442" class="cls-69" d="M21.29,28.9l.06-.07-.06-.06-.06.07Z" transform="translate(-0.22 -0.65)"/><path id="path1444" class="cls-289" d="M21.23,28.84l.06-.07-.06-.06-.06.07Z" transform="translate(-0.22 -0.65)"/><path id="path1446" class="cls-274" d="M21.11,28.84l.06-.06-.06-.06-.06.06.06.06Z" transform="translate(-0.22 -0.65)"/><path id="path1448" class="cls-38" d="M21.05,28.78l.06-.06-.06-.06-.06.05Z" transform="translate(-0.22 -0.65)"/><path id="path1450" class="cls-51" d="M21.17,28.78l.06-.07-.05-.05-.07.06Z" transform="translate(-0.22 -0.65)"/><path id="path1452" class="cls-274" d="M21.11,28.72l.07-.06-.07-.06-.06.06Z" transform="translate(-0.22 -0.65)"/><path id="path1454" class="cls-63" d="M21.35,28.83a.56.56,0,0,1,0-.08l0-.06-.06.08Z" transform="translate(-0.22 -0.65)"/><path id="path1456" class="cls-290" d="M21.29,28.77l.06-.08-.05-.05-.07.07Z" transform="translate(-0.22 -0.65)"/><path id="path1458" class="cls-291" d="M21.4,28.75l-.1-.11.05-.06.1.1Z" transform="translate(-0.22 -0.65)"/><path id="path1460" class="cls-292" d="M21.23,28.71l.07-.07-.06-.05-.06.07.05.05Z" transform="translate(-0.22 -0.65)"/><path id="path1462" class="cls-73" d="M21.18,28.66l.06-.07s0,0-.06-.05l-.07.06Z" transform="translate(-0.22 -0.65)"/><path id="path1464" class="cls-293" d="M21.3,28.64l-.12-.1,0,0,.11.1Z" transform="translate(-0.22 -0.65)"/><path id="path1466" class="cls-291" d="M21.33,28.61l-.11-.1,0,0,.11.09Z" transform="translate(-0.22 -0.65)"/><path id="path1468" class="cls-61" d="M21.45,28.68l-.06-.06a.18.18,0,0,1,.08-.06l.06.07A.25.25,0,0,0,21.45,28.68Z" transform="translate(-0.22 -0.65)"/><path id="path1470" class="cls-65" d="M21.53,28.63l-.06-.07.08,0,.06.06A.18.18,0,0,1,21.53,28.63Z" transform="translate(-0.22 -0.65)"/><path id="path1472" class="cls-61" d="M21.39,28.62a.67.67,0,0,0-.15-.13l.08,0,.15.12A.18.18,0,0,0,21.39,28.62Z" transform="translate(-0.22 -0.65)"/><path id="path1474" class="cls-65" d="M21.47,28.56l-.15-.12.07,0a.42.42,0,0,1,.16.11Z" transform="translate(-0.22 -0.65)"/><path id="path1476" class="cls-29" d="M20.76,29.05a.05.05,0,0,1,0,0l0-.05,0,0Z" transform="translate(-0.22 -0.65)"/><path id="path1478" class="cls-29" d="M20.74,29l0,0,0-.05s0,0,0,0A.43.43,0,0,0,20.74,29Z" transform="translate(-0.22 -0.65)"/><path id="path1480" class="cls-294" d="M20.78,29s0,0,0-.05a.08.08,0,0,1,0,0,.08.08,0,0,0,0,0s0,0,0,.05Z" transform="translate(-0.22 -0.65)"/><path id="path1482" class="cls-56" d="M20.76,29a.08.08,0,0,1,0,0l0-.05s0,0,0,0Z" transform="translate(-0.22 -0.65)"/><path id="path1484" class="cls-29" d="M20.73,29a.28.28,0,0,1,0-.09v0a.29.29,0,0,0,0,.09s0,0,0,0Z" transform="translate(-0.22 -0.65)"/><path id="path1486" class="cls-44" d="M20.74,28.91a.29.29,0,0,1,0-.09s0,0,0-.05a.19.19,0,0,0,0,.1s0,0,0,0Z" transform="translate(-0.22 -0.65)"/><path id="path1488" class="cls-295" d="M20.8,29l0,0,0-.05s0,0,0,.05A.08.08,0,0,0,20.8,29Z" transform="translate(-0.22 -0.65)"/><path id="path1490" class="cls-296" d="M20.78,28.92s0,0,0-.05a.08.08,0,0,1,0-.05s0,0,0,.05l0,.05Z" transform="translate(-0.22 -0.65)"/><path id="path1492" class="cls-287" d="M20.83,28.92l0,0,0-.05,0,0Z" transform="translate(-0.22 -0.65)"/><path id="path1494" class="cls-297" d="M20.8,28.87l0,0,0,0a.06.06,0,0,0,0,.09Z" transform="translate(-0.22 -0.65)"/><path id="path1496" class="cls-33" d="M20.76,28.87s0,0,0-.05a.08.08,0,0,1,0,0,.05.05,0,0,0,0,0s0,0,0,.05Z" transform="translate(-0.22 -0.65)"/><path id="path1498" class="cls-44" d="M20.74,28.82a.05.05,0,0,1,0,0l0-.05a.06.06,0,0,0,0,0s0,0,0,.05Z" transform="translate(-0.22 -0.65)"/><path id="path1500" class="cls-296" d="M20.78,28.82a.08.08,0,0,1,0,0l0-.05s0,0,0,.05A.08.08,0,0,0,20.78,28.82Z" transform="translate(-0.22 -0.65)"/><path id="path1502" class="cls-56" d="M20.76,28.78s0,0,0-.05,0,0,0,0,0,0,0,0l0,.05Z" transform="translate(-0.22 -0.65)"/><path id="path1504" class="cls-31" d="M20.86,28.88l.06-.09,0,0-.06.08,0,.05Z" transform="translate(-0.22 -0.65)"/><path id="path1506" class="cls-287" d="M20.83,28.83l.06-.08,0-.05a.35.35,0,0,0-.05.08Z" transform="translate(-0.22 -0.65)"/><path id="path1508" class="cls-295" d="M20.8,28.78a.35.35,0,0,1,.05-.08l0-.05-.05.08Z" transform="translate(-0.22 -0.65)"/><path id="path1510" class="cls-294" d="M20.77,28.73l.05-.08,0,0,0,.08S20.76,28.72,20.77,28.73Z" transform="translate(-0.22 -0.65)"/><path id="path1512" class="cls-284" d="M20.92,28.79l.07-.08,0,0-.06.08Z" transform="translate(-0.22 -0.65)"/><path id="path1514" class="cls-286" d="M20.89,28.75l.06-.08,0-.05-.06.08Z" transform="translate(-0.22 -0.65)"/><path id="path1516" class="cls-298" d="M20.85,28.7l.06-.08,0,0-.05.07,0,.05Z" transform="translate(-0.22 -0.65)"/><path id="path1518" class="cls-34" d="M20.82,28.65l.05-.07,0,0-.05.07,0,0Z" transform="translate(-0.22 -0.65)"/><path id="path1520" class="cls-57" d="M21,28.71l.06-.05-.05,0s0,0-.05.05Z" transform="translate(-0.22 -0.65)"/><path id="path1522" class="cls-279" d="M21,28.67s0,0,.05-.05l0,0-.05,0Z" transform="translate(-0.22 -0.65)"/><path id="path1524" class="cls-294" d="M21.05,28.66,21,28.58s0,0,.05,0a.26.26,0,0,1,.1.07Z" transform="translate(-0.22 -0.65)"/><path id="path1526" class="cls-33" d="M20.91,28.62l.05,0-.05,0,0,0Z" transform="translate(-0.22 -0.65)"/><path id="path1528" class="cls-278" d="M20.87,28.58l0,0,0,0,0,0,0,0Z" transform="translate(-0.22 -0.65)"/><path id="path1530" class="cls-274" d="M21,28.58s0,0,.05,0l-.05,0-.05,0Z" transform="translate(-0.22 -0.65)"/><path id="path1532" class="cls-275" d="M20.91,28.54l.05,0-.05,0s0,0,0,0Z" transform="translate(-0.22 -0.65)"/><path id="path1534" class="cls-276" d="M21.11,28.6a.26.26,0,0,0-.1-.07l.06,0a.28.28,0,0,1,.11.05Z" transform="translate(-0.22 -0.65)"/><path id="path1536" class="cls-277" d="M21.18,28.54a.28.28,0,0,0-.11-.05l0,0a.4.4,0,0,1,.13,0Z" transform="translate(-0.22 -0.65)"/><path id="path1538" class="cls-62" d="M21.22,28.51a.4.4,0,0,0-.13,0l0,0a.34.34,0,0,1,.12,0Z" transform="translate(-0.22 -0.65)"/><path id="path1540" class="cls-276" d="M21,28.53l-.1-.06,0,0,.12,0Z" transform="translate(-0.22 -0.65)"/><path id="path1542" class="cls-272" d="M21.07,28.49l-.12,0,.05,0,.12,0Z" transform="translate(-0.22 -0.65)"/><path id="path1544" class="cls-61" d="M21.24,28.49l.08,0-.11,0-.09,0A.34.34,0,0,1,21.24,28.49Z" transform="translate(-0.22 -0.65)"/><path id="path1546" class="cls-65" d="M21.12,28.45l.09,0-.11,0-.1,0,.12,0Z" transform="translate(-0.22 -0.65)"/><path id="path1548" class="cls-65" d="M21.32,28.44l.07,0-.09,0-.09,0Z" transform="translate(-0.22 -0.65)"/><path id="path1550" class="cls-72" d="M21.21,28.41l.09,0h-.2l.11,0Z" transform="translate(-0.22 -0.65)"/></g></g></g></g></g></g><g id="g1552"><g class="cls-269"><g id="g1554"><g id="g1560"><path id="path1562" class="cls-299" d="M21.48,28.58a.4.4,0,0,1,0,.56.39.39,0,0,1-.55,0,.4.4,0,0,1,0-.56.39.39,0,0,1,.55,0" transform="translate(-0.22 -0.65)"/></g></g></g></g><g id="g1564"><g class="cls-300"><g id="g1566"><g id="g1572"><g id="g1574"><g id="g1576"><path id="path1578" class="cls-301" d="M21.21,29.22h.08l-.14-.07-.08.05a.35.35,0,0,0,.14,0Z" transform="translate(-0.22 -0.65)"/><path id="path1580" class="cls-301" d="M21.07,29.19a.42.42,0,0,1-.12-.08l0,0a.38.38,0,0,0,.12.09Z" transform="translate(-0.22 -0.65)"/><path id="path1582" class="cls-302" d="M21.11,29.17a.38.38,0,0,1-.12-.09l0,0,.13.1Z" transform="translate(-0.22 -0.65)"/><path id="path1584" class="cls-301" d="M21.29,29.21l-.14-.07,0,0,.14.08Z" transform="translate(-0.22 -0.65)"/><path id="path1586" class="cls-301" d="M21.33,29.19l-.14-.08,0,0,.15.1Z" transform="translate(-0.22 -0.65)"/><path id="path1588" class="cls-303" d="M21.15,29.14,21,29l0,0a.69.69,0,0,0,.13.11Z" transform="translate(-0.22 -0.65)"/><path id="path1590" class="cls-304" d="M21.19,29.11a.69.69,0,0,1-.13-.11l0,0,.13.12Z" transform="translate(-0.22 -0.65)"/><path id="path1592" class="cls-301" d="M21,29.11,20.9,29l0,0a.19.19,0,0,0,.06.07Z" transform="translate(-0.22 -0.65)"/><path id="path1594" class="cls-303" d="M21,29.08a.19.19,0,0,1-.06-.07l0,0L21,29Z" transform="translate(-0.22 -0.65)"/><path id="path1596" class="cls-305" d="M21,29,21,29l0,0a.27.27,0,0,0,.07.08l0,0Z" transform="translate(-0.22 -0.65)"/><path id="path1598" class="cls-306" d="M21.06,29a.27.27,0,0,1-.07-.08l0,0,.07.08,0,0Z" transform="translate(-0.22 -0.65)"/><path id="path1600" class="cls-301" d="M21.37,29.18l.09-.07L21.33,29l-.11.09Z" transform="translate(-0.22 -0.65)"/><path id="path1602" class="cls-307" d="M21.22,29.08l.11-.09-.13-.13a.52.52,0,0,1-.11.1Z" transform="translate(-0.22 -0.65)"/><path id="path1604" class="cls-301" d="M21.46,29.11a.36.36,0,0,0,.08-.12.77.77,0,0,0-.09-.13l-.12.13Z" transform="translate(-0.22 -0.65)"/><path id="path1606" class="cls-308" d="M21.33,29l.12-.13-.12-.13a.8.8,0,0,1-.13.13Z" transform="translate(-0.22 -0.65)"/><path id="path1608" class="cls-301" d="M21.54,29a.3.3,0,0,0,0-.13.27.27,0,0,0,0-.13.51.51,0,0,1-.09.13A.77.77,0,0,1,21.54,29Z" transform="translate(-0.22 -0.65)"/><path id="path1610" class="cls-309" d="M21.45,28.86a.51.51,0,0,0,.09-.13.36.36,0,0,0-.08-.12l-.13.12Z" transform="translate(-0.22 -0.65)"/><path id="path1612" class="cls-310" d="M21.09,29a.52.52,0,0,0,.11-.1l-.08-.08-.1.1Z" transform="translate(-0.22 -0.65)"/><path id="path1614" class="cls-311" d="M21.2,28.86l-.08-.08.13-.12.08.07A.8.8,0,0,1,21.2,28.86Z" transform="translate(-0.22 -0.65)"/><path id="path1616" class="cls-308" d="M21.33,28.73l-.08-.07.14-.11.07.06Z" transform="translate(-0.22 -0.65)"/><path id="path1618" class="cls-301" d="M20.9,29l0,0,0-.05,0,0A.08.08,0,0,0,20.9,29Z" transform="translate(-0.22 -0.65)"/><path id="path1620" class="cls-301" d="M20.88,29l0,0a.08.08,0,0,1,0-.05s0,0,0,0l0,.05Z" transform="translate(-0.22 -0.65)"/><path id="path1622" class="cls-312" d="M20.93,29l0,0,0,0,0,0,0,.05Z" transform="translate(-0.22 -0.65)"/><path id="path1624" class="cls-313" d="M20.9,29l0,0,0-.05s0,0,0,0A.08.08,0,0,0,20.9,29Z" transform="translate(-0.22 -0.65)"/><path id="path1626" class="cls-301" d="M20.86,29a.28.28,0,0,1,0-.09v0a.16.16,0,0,0,0,.09s0,0,0,0Z" transform="translate(-0.22 -0.65)"/><path id="path1628" class="cls-314" d="M20.88,28.91a.16.16,0,0,1,0-.09s0,0,0,0a.36.36,0,0,0,0,.09s0,0,0,0Z" transform="translate(-0.22 -0.65)"/><path id="path1630" class="cls-315" d="M21,29l0,0,0,0,0,0,0,0Z" transform="translate(-0.22 -0.65)"/><path id="path1632" class="cls-316" d="M20.92,28.92l0,0,0-.05a.08.08,0,0,0,0,0l0,.05Z" transform="translate(-0.22 -0.65)"/><path id="path1634" class="cls-317" d="M21,28.92l0,0,0,0,0,0Z" transform="translate(-0.22 -0.65)"/><path id="path1636" class="cls-318" d="M21,28.88l0,0,0-.05,0,0Z" transform="translate(-0.22 -0.65)"/><path id="path1638" class="cls-319" d="M20.9,28.87a.08.08,0,0,1,0,0l0,0,0,0Z" transform="translate(-0.22 -0.65)"/><path id="path1640" class="cls-314" d="M20.87,28.82l0,0a.08.08,0,0,0,0,0s0,0,0,0S20.87,28.81,20.87,28.82Z" transform="translate(-0.22 -0.65)"/><path id="path1642" class="cls-316" d="M20.92,28.83l0,0s0,0,0-.05l0,0,0,0Z" transform="translate(-0.22 -0.65)"/><path id="path1644" class="cls-313" d="M20.89,28.78l0,0,0,0s0,0,0,0A.08.08,0,0,1,20.89,28.78Z" transform="translate(-0.22 -0.65)"/><path id="path1646" class="cls-133" d="M21,28.88l.1-.1-.05-.05-.09.11Z" transform="translate(-0.22 -0.65)"/><path id="path1648" class="cls-317" d="M21,28.84l.09-.11,0,0a.39.39,0,0,0-.08.1Z" transform="translate(-0.22 -0.65)"/><path id="path1650" class="cls-315" d="M21,28.79a.39.39,0,0,1,.08-.1l0,0a.2.2,0,0,0-.07.09s0,0,0,.05Z" transform="translate(-0.22 -0.65)"/><path id="path1652" class="cls-312" d="M20.92,28.74a.2.2,0,0,1,.07-.09l0,0a.28.28,0,0,0-.06.09Z" transform="translate(-0.22 -0.65)"/><path id="path1654" class="cls-320" d="M21.12,28.78l.13-.12,0,0-.14.11Z" transform="translate(-0.22 -0.65)"/><path id="path1656" class="cls-321" d="M21.07,28.73l.14-.11-.05,0-.13.1Z" transform="translate(-0.22 -0.65)"/><path id="path1658" class="cls-322" d="M21,28.69l.13-.1,0,0-.13.1Z" transform="translate(-0.22 -0.65)"/><path id="path1660" class="cls-323" d="M21,28.65l.13-.1-.05,0a.42.42,0,0,0-.12.08Z" transform="translate(-0.22 -0.65)"/><path id="path1662" class="cls-324" d="M21.25,28.66l.14-.11,0,0-.14.09Z" transform="translate(-0.22 -0.65)"/><path id="path1664" class="cls-325" d="M21.21,28.62l.14-.09H21.3a.46.46,0,0,0-.14.07Z" transform="translate(-0.22 -0.65)"/><path id="path1666" class="cls-323" d="M21.16,28.59a.46.46,0,0,1,.14-.07l-.09,0a.35.35,0,0,0-.14,0A.24.24,0,0,1,21.16,28.59Z" transform="translate(-0.22 -0.65)"/></g></g></g></g></g></g><g id="g1668"><g class="cls-269"><g id="g1670"><g id="g1676"><path id="path1678" class="cls-299" d="M21,28.88S21,29,21,29s0,0,0-.06,0-.08,0-.09a.07.07,0,0,1,.05.07" transform="translate(-0.22 -0.65)"/></g></g></g></g></g></g></g></g></svg>