<svg xmlns="http://www.w3.org/2000/svg" xmlns:xlink="http://www.w3.org/1999/xlink" viewBox="0 0 84.8 125.43"><defs><style>.cls-1{fill:none;}.cls-2{isolation:isolate;}.cls-3{clip-path:url(#clip-path);}.cls-4{fill:#21242c;}.cls-5{fill:#20232a;}.cls-6{fill:#1f2229;}.cls-7{fill:#1e2027;}.cls-8{clip-path:url(#clip-path-2);}.cls-9{fill:#242730;}.cls-10{fill:#23262e;}.cls-11{fill:#22252d;}.cls-12{clip-path:url(#clip-path-3);}.cls-13{fill:#1c1e25;}.cls-14{fill:#1b1d23;}.cls-15{clip-path:url(#clip-path-4);}.cls-16{clip-path:url(#clip-path-5);}.cls-17{clip-path:url(#clip-path-6);}.cls-18{clip-path:url(#clip-path-7);}.cls-19{clip-path:url(#clip-path-8);}.cls-20{clip-path:url(#clip-path-9);}.cls-21{clip-path:url(#clip-path-10);}.cls-22{fill:#1d1f26;}.cls-23{clip-path:url(#clip-path-11);}.cls-24{clip-path:url(#clip-path-12);}.cls-25{clip-path:url(#clip-path-13);}.cls-26{clip-path:url(#clip-path-14);}.cls-27{clip-path:url(#clip-path-15);}.cls-28{clip-path:url(#clip-path-16);}.cls-29{clip-path:url(#clip-path-17);}.cls-30{clip-path:url(#clip-path-18);}.cls-31{clip-path:url(#clip-path-19);}.cls-32{clip-path:url(#clip-path-20);}.cls-33{clip-path:url(#clip-path-21);}.cls-34{clip-path:url(#clip-path-22);}.cls-35{clip-path:url(#clip-path-23);}.cls-36{clip-path:url(#clip-path-24);}.cls-37{clip-path:url(#clip-path-25);}.cls-38{clip-path:url(#clip-path-26);}.cls-39{clip-path:url(#clip-path-27);}.cls-40{clip-path:url(#clip-path-28);}.cls-41{fill:#fdc536;}.cls-42{clip-path:url(#clip-path-29);}.cls-43{clip-path:url(#clip-path-30);}.cls-44{clip-path:url(#clip-path-31);}.cls-45{clip-path:url(#clip-path-32);}.cls-46{clip-path:url(#clip-path-33);}.cls-47{clip-path:url(#clip-path-34);}.cls-48{clip-path:url(#clip-path-35);}.cls-49{clip-path:url(#clip-path-36);}.cls-50{clip-path:url(#clip-path-37);}.cls-51{clip-path:url(#clip-path-38);}.cls-52{clip-path:url(#clip-path-39);}.cls-53{clip-path:url(#clip-path-40);}.cls-54{clip-path:url(#clip-path-41);}.cls-55{clip-path:url(#clip-path-42);}.cls-56{clip-path:url(#clip-path-43);}.cls-57{clip-path:url(#clip-path-44);}.cls-58{clip-path:url(#clip-path-45);}.cls-59{clip-path:url(#clip-path-46);}.cls-60{clip-path:url(#clip-path-47);}.cls-61{clip-path:url(#clip-path-48);}.cls-62{clip-path:url(#clip-path-49);}.cls-63{clip-path:url(#clip-path-50);}.cls-64{clip-path:url(#clip-path-51);}.cls-65{clip-path:url(#clip-path-52);}.cls-66{clip-path:url(#clip-path-53);}.cls-67{clip-path:url(#clip-path-54);}.cls-68{fill:#343844;}.cls-69{fill:url(#radial-gradient);}.cls-70{fill:#dfae30;}.cls-71{fill:#5d6069;}.cls-72{fill:#7f8091;}</style><clipPath id="clip-path"><path class="cls-1" d="M18.53,109.54l-1-2.22a3.45,3.45,0,0,0,1.28-.3l.95,2.22A3.45,3.45,0,0,1,18.53,109.54Z"/></clipPath><clipPath id="clip-path-2"><path class="cls-1" d="M17,109.15l-.95-2.22a2.66,2.66,0,0,0,1.49.39l1,2.22A2.75,2.75,0,0,1,17,109.15Z"/></clipPath><clipPath id="clip-path-3"><path class="cls-1" d="M20.7,108.72l-.95-2.21a8.77,8.77,0,0,0,2.52-3.17l.95,2.22A8.65,8.65,0,0,1,20.7,108.72Z"/></clipPath><clipPath id="clip-path-4"><path class="cls-1" d="M15.58,107.34l-.95-2.22a4.37,4.37,0,0,0,.78,1.24l.95,2.22A4.37,4.37,0,0,1,15.58,107.34Z"/></clipPath><clipPath id="clip-path-5"><path class="cls-1" d="M19.81,109.24,18.86,107c0-1.4-.08-2.69-.11-3.94l.95,2.22C19.73,106.55,19.77,107.83,19.81,109.24Z"/></clipPath><clipPath id="clip-path-6"><path class="cls-1" d="M16.36,108.58l-.95-2.22,1.95-4.1.95,2.22Z"/></clipPath><clipPath id="clip-path-7"><path class="cls-1" d="M21.84,102.4l-.95-2.22c.62.59,1.26,1.2,1.94,1.88l1,2.22C23.1,103.6,22.46,103,21.84,102.4Z"/></clipPath><clipPath id="clip-path-8"><path class="cls-1" d="M18.28,104.41l-1-2.21a3.1,3.1,0,0,1-.21-.94l.95,2.22A3,3,0,0,0,18.28,104.41Z"/></clipPath><clipPath id="clip-path-9"><path class="cls-1" d="M23.78,104.28l-1-2.22a14.21,14.21,0,0,0,.88-4.58l.95,2.22A14.21,14.21,0,0,1,23.78,104.28Z"/></clipPath><clipPath id="clip-path-10"><path class="cls-1" d="M15,103.85l-.95-2.22L17,100l1,2.22Z"/></clipPath><clipPath id="clip-path-11"><path class="cls-1" d="M70.23,79l-1-2.22a2.16,2.16,0,0,0,1.54.63,2.41,2.41,0,0,0,.77-.16l1,2.22a2.15,2.15,0,0,1-.77.15A2.07,2.07,0,0,1,70.23,79Z"/></clipPath><clipPath id="clip-path-12"><path class="cls-1" d="M22,99.88,21,97.66l2.64-1.51.95,2.22Z"/></clipPath><clipPath id="clip-path-13"><path class="cls-1" d="M73.3,79.11l-1-2.22a7.82,7.82,0,0,0,2.3-2.9l.95,2.22A7.8,7.8,0,0,1,73.3,79.11Z"/></clipPath><clipPath id="clip-path-14"><path class="cls-1" d="M18,102.17,17,100c0-.51-.06-1-.1-1.53l.95,2.22C17.91,101.15,18,101.66,18,102.17Z"/></clipPath><clipPath id="clip-path-15"><path class="cls-1" d="M66.69,82.13l-1-2.22a15,15,0,0,1-.82-2.67l1,2.22A15.26,15.26,0,0,0,66.69,82.13Z"/></clipPath><clipPath id="clip-path-16"><path class="cls-1" d="M69.27,77.61l-1-2.22a5.39,5.39,0,0,0,.4.76l1,2.22A5.39,5.39,0,0,1,69.27,77.61Z"/></clipPath><clipPath id="clip-path-17"><path class="cls-1" d="M69.67,78.37l-1-2.22c.17-.42.33-.83.49-1.24l1,2.22C70,77.54,69.84,78,69.67,78.37Z"/></clipPath><clipPath id="clip-path-18"><path class="cls-1" d="M72.53,79.5l-1-2.22c0-1.27-.08-2.45-.12-3.59l1,2.22C72.45,77.05,72.49,78.23,72.53,79.5Z"/></clipPath><clipPath id="clip-path-19"><path class="cls-1" d="M23.09,93.75l1,2.21a8.45,8.45,0,0,1,.57,2.41l-.95-2.22A8,8,0,0,0,23.09,93.75Z"/></clipPath><clipPath id="clip-path-20"><path class="cls-1" d="M74.5,73.17l-1-2.22,1.64,1.79,1,2.21Z"/></clipPath><clipPath id="clip-path-21"><path class="cls-1" d="M16.72,97.79l-.95-2.21,1,.87.95,2.22Z"/></clipPath><clipPath id="clip-path-22"><path class="cls-1" d="M22,96.32,21,94.1c.29-.64.57-1.29.87-2l.95,2.22Z"/></clipPath><clipPath id="clip-path-23"><path class="cls-1" d="M17.74,98.67l-.95-2.22c-.06-.74-.11-1.48-.15-2.23l.95,2.22C17.63,97.18,17.68,97.93,17.74,98.67Z"/></clipPath><clipPath id="clip-path-24"><path class="cls-1" d="M76.14,75l-1-2.21a14.7,14.7,0,0,0,.92-4.6l1,2.22A14.58,14.58,0,0,1,76.14,75Z"/></clipPath><clipPath id="clip-path-25"><path class="cls-1" d="M29,97.09l-1-2.22a1.49,1.49,0,0,1-.1-.51A18.16,18.16,0,0,0,26.7,88l.95,2.22a18.16,18.16,0,0,1,1.28,6.41A1.49,1.49,0,0,0,29,97.09Z"/></clipPath><clipPath id="clip-path-26"><path class="cls-1" d="M74.77,70.21l-1-2.22,2.24-1.21L77,69Z"/></clipPath><clipPath id="clip-path-27"><path class="cls-1" d="M73.56,67l1,2.21c0-.09-.09-.18-.14-.27l-1-2.22A2.44,2.44,0,0,1,73.56,67Z"/></clipPath><clipPath id="clip-path-28"><path class="cls-1" d="M36.16,88.75l-.95-2.22q13.56-7.74,27.21-15.29l.95,2.22Q49.72,81,36.16,88.75Z"/></clipPath><clipPath id="clip-path-29"><path class="cls-1" d="M64.76,72.68l-1-2.22.8-.44,1,2.21Z"/></clipPath><clipPath id="clip-path-30"><path class="cls-1" d="M69,70.33l-1-2.22c.33-.16.64-.34,1-.52l1,2.22C69.61,70,69.3,70.17,69,70.33Z"/></clipPath><clipPath id="clip-path-31"><path class="cls-1" d="M71,69.22,70,67l1.18-.65,1,2.22Z"/></clipPath><clipPath id="clip-path-32"><path class="cls-1" d="M72.94,68.21,72,66a1,1,0,0,1,.24,0,1.14,1.14,0,0,1,.6.15l1,2.22a1,1,0,0,0-.6-.15A1,1,0,0,0,72.94,68.21Z"/></clipPath><clipPath id="clip-path-33"><path class="cls-1" d="M75.49,64.3l1,2.22A7.86,7.86,0,0,1,77,69l-1-2.22A7.87,7.87,0,0,0,75.49,64.3Z"/></clipPath><clipPath id="clip-path-34"><path class="cls-1" d="M69.82,67.88l-.95-2.22c.4.48.79.92,1.16,1.34l1,2.22C70.61,68.8,70.22,68.36,69.82,67.88Z"/></clipPath><clipPath id="clip-path-35"><path class="cls-1" d="M11.6,111.94l-.95-2.22a13.25,13.25,0,0,1-1-4.9,25,25,0,0,1,6.52-16.75l.95,2.22A25,25,0,0,0,10.64,107,13.27,13.27,0,0,0,11.6,111.94Z"/></clipPath><clipPath id="clip-path-36"><path class="cls-1" d="M73.78,68.33l-1-2.22c.46-1.08,1-2.22,1.48-3.44l1,2.22C74.73,66.11,74.24,67.25,73.78,68.33Z"/></clipPath><clipPath id="clip-path-37"><path class="cls-1" d="M26.1,89.16l1,2.22c-1-2.45-2.79-3.85-5-3.79l-1-2.22C23.32,85.31,25.06,86.71,26.1,89.16Z"/></clipPath><clipPath id="clip-path-38"><path class="cls-1" d="M17.16,90.29l-.95-2.22c0-.51-.08-1-.1-1.56l.95,2.22C17.09,89.26,17.12,89.77,17.16,90.29Z"/></clipPath><clipPath id="clip-path-39"><path class="cls-1" d="M72.16,68.57l-1-2.22c0-1.14-.07-2.32-.12-3.59L72,65C72.09,66.25,72.13,67.43,72.16,68.57Z"/></clipPath><clipPath id="clip-path-40"><path class="cls-1" d="M82,67.6l-1-2.22a1.29,1.29,0,0,1-.09-.51,16.44,16.44,0,0,0-1.19-6.17l1,2.22a16.44,16.44,0,0,1,1.19,6.17A1.5,1.5,0,0,0,82,67.6Z"/></clipPath><clipPath id="clip-path-41"><path class="cls-1" d="M11,95.39,10,93.17a2.11,2.11,0,0,1,.18-1.67,27.08,27.08,0,0,1,5.74-7.66l1,2.22a26.93,26.93,0,0,0-5.74,7.66A2.11,2.11,0,0,0,11,95.39Z"/></clipPath><clipPath id="clip-path-42"><path class="cls-1" d="M28,85.83l.95,2.22c-1.33-3.09-3.44-4.88-6.08-4.81a5.24,5.24,0,0,0-.77.07l-.95-2.22a6.88,6.88,0,0,1,.77-.07C24.51,81,26.62,82.74,28,85.83Z"/></clipPath><clipPath id="clip-path-43"><path class="cls-1" d="M78.86,59.83l1,2.22c-1.12-2.61-3-4.06-5.1-4a5.27,5.27,0,0,0-2.48.74c-3.57,2-6.08,7.54-6.67,13.45l-1-2.21c.59-5.91,3.1-11.43,6.67-13.46a5.27,5.27,0,0,1,2.48-.74C75.86,55.77,77.74,57.22,78.86,59.83Z"/></clipPath><clipPath id="clip-path-44"><path class="cls-1" d="M81.39,56.7l1,2.22c-1.49-3.49-4-5.39-6.85-5.32l-1-2.22C77.36,51.31,79.9,53.21,81.39,56.7Z"/></clipPath><clipPath id="clip-path-45"><path class="cls-1" d="M63.37,73.46l-.95-2.22c.48-8.17,3.76-16,8.72-18.85a7.14,7.14,0,0,1,3.39-1l1,2.22a7,7,0,0,0-3.4,1C67.14,57.46,63.85,65.29,63.37,73.46Z"/></clipPath><clipPath id="clip-path-46"><path class="cls-1" d="M34.18,97.25l-1-2.22q-5.77-15.37-12-30.55l.95,2.22Q28.39,81.88,34.18,97.25Z"/></clipPath><clipPath id="clip-path-47"><path class="cls-1" d="M16.87,86.06l-1-2.22q-.6-8.72-1.21-17.43l1,2.22Q16.26,77.35,16.87,86.06Z"/></clipPath><clipPath id="clip-path-48"><path class="cls-1" d="M15.67,68.63l-1-2.22q-.29-10.92-.58-21.86l.95,2.22Q15.38,57.71,15.67,68.63Z"/></clipPath><clipPath id="clip-path-49"><path class="cls-1" d="M14.64,46.53l-1-2.22a.67.67,0,0,1-.06-.3,1.17,1.17,0,0,1,.46-1L15,45.23a1.17,1.17,0,0,0-.46,1A.67.67,0,0,0,14.64,46.53Z"/></clipPath><clipPath id="clip-path-50"><path class="cls-1" d="M15,45.23,14.09,43c-.06-2.26-.11-4.51-.18-6.78l.95,2.22C14.93,40.71,15,43,15,45.23Z"/></clipPath><clipPath id="clip-path-51"><path class="cls-1" d="M14.42,38.2,13.47,36a.7.7,0,0,1-.06-.3,1.16,1.16,0,0,1,.49-1l.95,2.21a1.19,1.19,0,0,0-.49,1A.71.71,0,0,0,14.42,38.2Z"/></clipPath><clipPath id="clip-path-52"><path class="cls-1" d="M14.85,36.86l-.95-2.21,1.22-.57,1,2.22C15.7,36.47,15.31,36.66,14.85,36.86Z"/></clipPath><clipPath id="clip-path-53"><path class="cls-1" d="M16.07,36.3l-1-2.22q-.34-13.14-.71-26.26L15.36,10Q15.72,23.17,16.07,36.3Z"/></clipPath><clipPath id="clip-path-54"><path class="cls-1" d="M15,7a2.14,2.14,0,0,0-.95,2,1.71,1.71,0,0,0,.11.58l-.95-2.22a1.66,1.66,0,0,1-.11-.58,2.16,2.16,0,0,1,.94-2"/></clipPath><radialGradient id="radial-gradient" cx="42.4" cy="102.29" r="34.16" gradientTransform="translate(0 51.15) scale(1 0.5)" gradientUnits="userSpaceOnUse"><stop offset="0" stop-color="#020202"/><stop offset="1" stop-opacity="0"/></radialGradient></defs><title>scooter</title><g id="Layer_2" data-name="Layer 2"><g id="scooter"><g id="scooter-2" data-name="scooter"><g class="cls-2"><g class="cls-2"><g class="cls-3"><g class="cls-2"><path class="cls-4" d="M18.53,109.54l-1-2.22h.2l.95,2.22h-.2"/><path class="cls-5" d="M18.73,109.53l-.95-2.22.34,0,.95,2.22-.34,0"/><path class="cls-6" d="M19.07,109.48l-.95-2.22c.12,0,.23-.06.35-.09l1,2.22-.35.09"/><path class="cls-7" d="M19.42,109.39l-1-2.22a3.12,3.12,0,0,0,.39-.15l.95,2.22-.39.15"/></g></g></g><g class="cls-2"><g class="cls-8"><g class="cls-2"><path class="cls-9" d="M17,109.15l-.95-2.22a2.33,2.33,0,0,0,.39.19l.95,2.22a3.49,3.49,0,0,1-.39-.19"/><path class="cls-10" d="M17.43,109.34l-.95-2.22a3,3,0,0,0,.58.17l1,2.22a3,3,0,0,1-.58-.17"/><path class="cls-11" d="M18,109.51l-1-2.22a2.43,2.43,0,0,0,.38,0l.95,2.22a2.43,2.43,0,0,1-.38,0"/><path class="cls-4" d="M18.39,109.54l-.95-2.22h.14l1,2.22h-.14"/></g></g></g><g class="cls-2"><g class="cls-12"><g class="cls-2"><path class="cls-13" d="M20.7,108.72l-.95-2.21.26-.21.95,2.22-.26.2"/><path class="cls-14" d="M21,108.52,20,106.3a9.11,9.11,0,0,0,2.26-3l.95,2.22a9.11,9.11,0,0,1-2.26,3"/></g></g></g><g class="cls-2"><g class="cls-15"><g class="cls-2"><path class="cls-4" d="M15.58,107.34l-.95-2.22c.08.18.17.36.26.52l.95,2.22c-.09-.16-.18-.34-.26-.52"/><path class="cls-11" d="M15.84,107.86l-.95-2.22a4.52,4.52,0,0,0,.34.51l.95,2.22c-.12-.16-.23-.33-.34-.51"/><path class="cls-10" d="M16.18,108.37l-.95-2.22.18.21.95,2.22-.18-.21"/></g></g></g><g class="cls-2"><g class="cls-16"><g class="cls-2"><path class="cls-14" d="M19.81,109.24,18.86,107c0-1.4-.08-2.69-.11-3.94l.95,2.22c0,1.25.07,2.53.11,3.94"/></g></g></g><g class="cls-2"><g class="cls-17"><g class="cls-2"><path class="cls-14" d="M16.36,108.58l-.95-2.22,1.95-4.1.95,2.22-1.95,4.1"/></g></g></g><g class="cls-2"><g class="cls-18"><g class="cls-2"><path class="cls-10" d="M21.84,102.4l-.95-2.22c.62.59,1.26,1.2,1.94,1.88l1,2.22c-.68-.68-1.32-1.29-1.94-1.88"/></g></g></g><g class="cls-2"><g class="cls-19"><g class="cls-2"><path class="cls-14" d="M18.28,104.41l-1-2.21a3.1,3.1,0,0,1-.21-.94l.95,2.22a3,3,0,0,0,.21.93"/></g></g></g><g class="cls-2"><g class="cls-20"><g class="cls-2"><path class="cls-14" d="M23.78,104.28l-1-2.22a14.21,14.21,0,0,0,.88-4.58l.95,2.22a14.21,14.21,0,0,1-.88,4.58"/></g></g></g><g class="cls-2"><g class="cls-21"><g class="cls-2"><path class="cls-22" d="M15,103.85l-.95-2.22L17,100l1,2.22-3,1.68"/></g></g></g><g class="cls-2"><g class="cls-23"><g class="cls-2"><path class="cls-10" d="M70.23,79l-1-2.22.17.14,1,2.22a1.07,1.07,0,0,1-.16-.14"/><path class="cls-9" d="M70.39,79.17l-1-2.22a1.91,1.91,0,0,0,.56.34l1,2.22a2.33,2.33,0,0,1-.56-.34"/><path class="cls-10" d="M71,79.51l-1-2.22a2.11,2.11,0,0,0,.43.12l.95,2.22a3.45,3.45,0,0,1-.43-.12"/><path class="cls-11" d="M71.38,79.63l-.95-2.22.28,0,1,2.21-.29,0"/><path class="cls-4" d="M71.67,79.65l-1-2.21H71l1,2.22h-.24"/><path class="cls-5" d="M71.91,79.65l-1-2.22.25,0,1,2.22-.25,0"/><path class="cls-6" d="M72.16,79.61l-1-2.22.26-.07,1,2.22-.26.07"/><path class="cls-7" d="M72.42,79.54l-1-2.22.11,0,1,2.22-.11,0"/></g></g></g><g class="cls-2"><g class="cls-24"><g class="cls-2"><path class="cls-22" d="M22,99.88,21,97.66l2.64-1.51.95,2.22L22,99.88"/></g></g></g><g class="cls-2"><g class="cls-25"><g class="cls-2"><path class="cls-13" d="M73.3,79.11l-1-2.22.28-.22,1,2.22-.28.22"/><path class="cls-14" d="M73.58,78.89l-1-2.22a8.13,8.13,0,0,0,2-2.68l.95,2.22a8.13,8.13,0,0,1-2,2.68"/></g></g></g><g class="cls-2"><g class="cls-26"><g class="cls-2"><path class="cls-14" d="M18,102.17,17,100c0-.51-.06-1-.1-1.53l.95,2.22c0,.51.08,1,.11,1.53"/></g></g></g><g class="cls-2"><g class="cls-27"><g class="cls-2"><path class="cls-14" d="M66.69,82.13l-1-2.22a15,15,0,0,1-.82-2.67l1,2.22a15.26,15.26,0,0,0,.82,2.67"/></g></g></g><g class="cls-2"><g class="cls-28"><g class="cls-2"><path class="cls-4" d="M69.27,77.61l-1-2.22c.1.22.2.42.3.61l1,2.22c-.11-.19-.21-.39-.31-.61"/><path class="cls-11" d="M69.58,78.22l-1-2.22.1.15,1,2.22-.09-.15"/></g></g></g><g class="cls-2"><g class="cls-29"><g class="cls-2"><path class="cls-14" d="M69.67,78.37l-1-2.22c.17-.42.33-.83.49-1.24l1,2.22c-.16.41-.32.82-.49,1.24"/></g></g></g><g class="cls-2"><g class="cls-30"><g class="cls-2"><path class="cls-14" d="M72.53,79.5l-1-2.22c0-1.27-.08-2.45-.12-3.59l1,2.22c0,1.14.08,2.32.12,3.59"/></g></g></g><g class="cls-2"><g class="cls-31"><g class="cls-2"><path class="cls-14" d="M24.62,98.37l-.95-2.22a8,8,0,0,0-.58-2.4l1,2.21a8.45,8.45,0,0,1,.57,2.41"/></g></g></g><g class="cls-2"><g class="cls-32"><g class="cls-2"><path class="cls-10" d="M74.5,73.17l-1-2.22,1.64,1.79,1,2.21L74.5,73.17"/></g></g></g><g class="cls-2"><g class="cls-33"><g class="cls-2"><path class="cls-10" d="M16.72,97.79l-.95-2.21,1,.87.95,2.22-1-.88"/></g></g></g><g class="cls-2"><g class="cls-34"><g class="cls-2"><path class="cls-14" d="M22,96.32,21,94.1c.29-.64.57-1.29.87-2l.95,2.22-.86,2"/></g></g></g><g class="cls-2"><g class="cls-35"><g class="cls-2"><path class="cls-14" d="M17.74,98.67l-.95-2.22c-.06-.74-.11-1.48-.15-2.23l.95,2.22c0,.74.09,1.49.15,2.23"/></g></g></g><g class="cls-2"><g class="cls-36"><g class="cls-2"><path class="cls-14" d="M76.14,75l-1-2.21a14.7,14.7,0,0,0,.92-4.6l1,2.22A14.58,14.58,0,0,1,76.14,75"/></g></g></g><g class="cls-2"><g class="cls-37"><g class="cls-2"><path class="cls-14" d="M29,97.09l-1-2.22a1.49,1.49,0,0,1-.1-.51A18.16,18.16,0,0,0,26.7,88l.95,2.22a18.16,18.16,0,0,1,1.28,6.41,1.49,1.49,0,0,0,.1.51"/></g></g></g><g class="cls-2"><g class="cls-38"><g class="cls-2"><path class="cls-22" d="M74.77,70.21l-1-2.22,2.24-1.21L77,69l-2.25,1.21"/></g></g></g><g class="cls-2"><g class="cls-39"><g class="cls-2"><polyline class="cls-11" points="74.37 68.96 73.42 66.74 73.42 66.75 74.38 68.97 74.37 68.96"/><path class="cls-4" d="M74.37,69l-1-2.22a1.71,1.71,0,0,1,.14.27l1,2.21a2.15,2.15,0,0,0-.14-.26"/></g></g></g><g class="cls-2"><g class="cls-40"><g class="cls-2"><path class="cls-41" d="M36.16,88.75l-.95-2.22q13.56-7.74,27.21-15.29l.95,2.22Q49.72,81,36.16,88.75"/></g></g></g><g class="cls-2"><g class="cls-42"><g class="cls-2"><path class="cls-22" d="M64.76,72.68l-1-2.22.8-.44,1,2.21-.8.45"/></g></g></g><g class="cls-2"><g class="cls-43"><g class="cls-2"><path class="cls-22" d="M69,70.33l-1-2.22c.33-.16.64-.34,1-.52l1,2.22c-.32.17-.63.36-1,.52"/></g></g></g><g class="cls-2"><g class="cls-44"><g class="cls-2"><path class="cls-22" d="M71,69.22,70,67l1.18-.65,1,2.22L71,69.22"/></g></g></g><g class="cls-2"><g class="cls-45"><g class="cls-2"><path class="cls-6" d="M72.94,68.21,72,66h0L73,68.2h0"/><path class="cls-5" d="M73,68.2,72,66l.14,0,.95,2.22-.14,0"/><path class="cls-4" d="M73.1,68.18,72.15,66h.14l.95,2.22H73.1"/><path class="cls-11" d="M73.24,68.18,72.29,66h.16l1,2.22h-.16"/><path class="cls-10" d="M73.4,68.19l-1-2.22.24.07,1,2.22-.24-.07"/><path class="cls-9" d="M73.64,68.26l-1-2.22.14.07,1,2.22-.14-.07"/></g></g></g><g class="cls-2"><g class="cls-46"><g class="cls-2"><path class="cls-14" d="M77,69l-1-2.22a7.87,7.87,0,0,0-.57-2.48l1,2.22A7.86,7.86,0,0,1,77,69"/></g></g></g><g class="cls-2"><g class="cls-47"><g class="cls-2"><path class="cls-10" d="M69.82,67.88l-.95-2.22c.4.48.79.92,1.16,1.34l1,2.22c-.37-.42-.76-.86-1.16-1.34"/></g></g></g><g class="cls-2"><g class="cls-48"><g class="cls-2"><path class="cls-14" d="M11.6,111.94l-.95-2.22a13.25,13.25,0,0,1-1-4.9,25,25,0,0,1,6.52-16.75l.95,2.22A25,25,0,0,0,10.64,107a13.27,13.27,0,0,0,1,4.91"/></g></g></g><g class="cls-2"><g class="cls-49"><g class="cls-2"><path class="cls-14" d="M73.78,68.33l-1-2.22c.46-1.08,1-2.22,1.48-3.44l1,2.22c-.53,1.22-1,2.36-1.48,3.44"/></g></g></g><g class="cls-2"><g class="cls-50"><g class="cls-2"><path class="cls-4" d="M22,87.59l-1-2.22h.26l.95,2.22H22"/><path class="cls-11" d="M22.29,87.59l-.95-2.22c.23,0,.45,0,.67.06L23,87.65c-.22,0-.44-.05-.67-.06"/><path class="cls-10" d="M23,87.65,22,85.43a4.6,4.6,0,0,1,1,.28l1,2.22a4.6,4.6,0,0,0-1-.28"/><path class="cls-9" d="M23.94,87.93l-1-2.22a4.9,4.9,0,0,1,1.1.65L25,88.58a4.55,4.55,0,0,0-1.1-.65"/><path class="cls-10" d="M25,88.58l-.95-2.22a5.71,5.71,0,0,1,.94,1L26,89.54a5.71,5.71,0,0,0-.94-1"/><path class="cls-11" d="M26,89.54,25,87.32a6.29,6.29,0,0,1,.6.89l.95,2.22a5.77,5.77,0,0,0-.6-.89"/><path class="cls-4" d="M26.58,90.43l-.95-2.22a7.64,7.64,0,0,1,.47,1l1,2.22a9.35,9.35,0,0,0-.48-.95"/></g></g></g><g class="cls-2"><g class="cls-51"><g class="cls-2"><path class="cls-14" d="M17.16,90.29l-.95-2.22c0-.51-.08-1-.1-1.56l.95,2.22c0,.53.06,1,.1,1.56"/></g></g></g><g class="cls-2"><g class="cls-52"><g class="cls-2"><path class="cls-14" d="M72.16,68.57l-1-2.22c0-1.14-.07-2.32-.12-3.59L72,65c0,1.27.09,2.45.12,3.59"/></g></g></g><g class="cls-2"><g class="cls-53"><g class="cls-2"><path class="cls-14" d="M82,67.6l-1-2.22a1.29,1.29,0,0,1-.09-.51,16.44,16.44,0,0,0-1.19-6.17l1,2.22a16.44,16.44,0,0,1,1.19,6.17,1.5,1.5,0,0,0,.09.51"/></g></g></g><g class="cls-2"><g class="cls-54"><g class="cls-2"><path class="cls-41" d="M11,95.39,10,93.17a2.11,2.11,0,0,1,.18-1.67,27.08,27.08,0,0,1,5.74-7.66l1,2.22a26.93,26.93,0,0,0-5.74,7.66A2.11,2.11,0,0,0,11,95.39"/></g></g></g><g class="cls-2"><g class="cls-55"><g class="cls-2"><path class="cls-41" d="M22.05,83.31l-.95-2.22.36,0,.95,2.22-.36,0"/><path class="cls-41" d="M22.41,83.26,21.46,81l.41,0h.28l1,2.22h-.28l-.41,0"/><path class="cls-41" d="M23.1,83.24l-1-2.22a6.34,6.34,0,0,1,.75.07l1,2.22a4.76,4.76,0,0,0-.75-.07"/><path class="cls-41" d="M23.85,83.31l-1-2.22a5.62,5.62,0,0,1,1.15.33L25,83.64a5.62,5.62,0,0,0-1.15-.33"/><path class="cls-41" d="M25,83.64l-.95-2.22a5.88,5.88,0,0,1,1.33.8l.95,2.22a5.88,5.88,0,0,0-1.33-.8"/><path class="cls-41" d="M26.33,84.44l-.95-2.22a7.64,7.64,0,0,1,1.16,1.18l.95,2.22a7.64,7.64,0,0,0-1.16-1.18"/><path class="cls-41" d="M27.49,85.62l-.95-2.22a9,9,0,0,1,.78,1.16l.95,2.22a9,9,0,0,0-.78-1.16"/><path class="cls-41" d="M28.27,86.78l-.95-2.22c.22.4.43.82.63,1.27l.95,2.22a11.55,11.55,0,0,0-.63-1.27"/></g></g></g><g class="cls-2"><g class="cls-56"><g class="cls-2"><path class="cls-14" d="M65.56,72.23l-1-2.21c.52-5.3,2.6-10.28,5.59-12.72l1,2.22c-3,2.44-5.06,7.42-5.59,12.71"/><path class="cls-13" d="M71.15,59.52l-1-2.22a7.17,7.17,0,0,1,.93-.66l1,2.22a7.27,7.27,0,0,0-.94.66"/><path class="cls-22" d="M72.09,58.86l-1-2.22.15-.08a4.75,4.75,0,0,1,.55-.28l1,2.22a4.87,4.87,0,0,0-.56.28l-.14.08"/><path class="cls-7" d="M72.79,58.5l-1-2.22a5.24,5.24,0,0,1,.58-.22l1,2.21c-.19.07-.38.14-.57.23"/><path class="cls-6" d="M73.36,58.27l-1-2.21a3.46,3.46,0,0,1,.53-.14l1,2.22a5.11,5.11,0,0,0-.53.13"/><path class="cls-5" d="M73.89,58.14l-1-2.22a4.33,4.33,0,0,1,.5-.08l1,2.22a4.71,4.71,0,0,0-.5.08"/><path class="cls-4" d="M74.39,58.06l-1-2.22.32,0H74l1,2.22h-.22l-.32,0"/><path class="cls-11" d="M74.93,58l-1-2.22q.3,0,.6.06l1,2.22q-.3,0-.6-.06"/><path class="cls-10" d="M75.53,58.1l-1-2.22a4.06,4.06,0,0,1,1,.28l.95,2.22a4.06,4.06,0,0,0-1-.28"/><path class="cls-9" d="M76.49,58.38l-.95-2.22a4.52,4.52,0,0,1,1.15.68l1,2.22a4.52,4.52,0,0,0-1.15-.68"/><path class="cls-10" d="M77.64,59.06l-1-2.22a6.34,6.34,0,0,1,1,1l1,2.22a6,6,0,0,0-1-1"/><path class="cls-11" d="M78.67,60.1l-1-2.22a6.68,6.68,0,0,1,.64,1l1,2.22a7.67,7.67,0,0,0-.65-1"/><path class="cls-4" d="M79.32,61.06l-1-2.22a9.16,9.16,0,0,1,.5,1l1,2.22c-.15-.35-.32-.68-.49-1"/></g></g></g><g class="cls-2"><g class="cls-57"><g class="cls-2"><path class="cls-41" d="M75.49,53.6l-1-2.22a1.5,1.5,0,0,1,.3,0l1,2.22h-.29"/><path class="cls-41" d="M75.78,53.6l-1-2.22a4.67,4.67,0,0,1,.83.08l1,2.21a5.69,5.69,0,0,0-.83-.07"/><path class="cls-41" d="M76.61,53.67l-1-2.21a5.63,5.63,0,0,1,1.3.37l1,2.22a6,6,0,0,0-1.3-.38"/><path class="cls-41" d="M77.91,54.05l-1-2.22a6.83,6.83,0,0,1,1.57.93l1,2.22a6.31,6.31,0,0,0-1.57-.93"/><path class="cls-41" d="M79.48,55l-1-2.22a8.14,8.14,0,0,1,1.37,1.38l.95,2.22A7.79,7.79,0,0,0,79.48,55"/><path class="cls-41" d="M80.85,56.36l-.95-2.22a11.55,11.55,0,0,1,.85,1.26l1,2.22a9,9,0,0,0-.85-1.26"/><path class="cls-41" d="M81.7,57.62l-1-2.22a12.08,12.08,0,0,1,.64,1.3l1,2.22a11.23,11.23,0,0,0-.64-1.3"/></g></g></g><g class="cls-2"><g class="cls-58"><g class="cls-2"><path class="cls-41" d="M63.37,73.46l-.95-2.22c.43-7.38,3.16-14.48,7.33-17.89l1,2.22C66.53,59,63.8,66.08,63.37,73.46"/><path class="cls-41" d="M70.71,55.57l-1-2.22A10,10,0,0,1,71,52.48l1,2.22a9.26,9.26,0,0,0-1.24.87"/><path class="cls-41" d="M72,54.7l-1-2.22.14-.09c.26-.15.53-.28.79-.4l.95,2.22c-.26.12-.53.25-.79.4L72,54.7"/><path class="cls-41" d="M72.88,54.21,71.93,52l.77-.3,1,2.22a8.32,8.32,0,0,0-.78.3"/><path class="cls-41" d="M73.66,53.91l-1-2.22.71-.18,1,2.22a5.68,5.68,0,0,0-.71.18"/><path class="cls-41" d="M74.37,53.73l-1-2.22c.24,0,.47-.08.69-.11l1,2.22a5.65,5.65,0,0,0-.68.11"/><path class="cls-41" d="M75.05,53.62l-1-2.22.43,0,1,2.22-.44,0"/></g></g></g><g class="cls-2"><g class="cls-59"><g class="cls-2"><path class="cls-14" d="M34.18,97.25l-1-2.22q-5.77-15.37-12-30.55l.95,2.22q6.26,15.18,12.05,30.55"/></g></g></g><g class="cls-2"><g class="cls-60"><g class="cls-2"><path class="cls-14" d="M16.87,86.06l-1-2.22q-.6-8.72-1.21-17.43l1,2.22q.58,8.72,1.2,17.43"/></g></g></g><g class="cls-2"><g class="cls-61"><g class="cls-2"><path class="cls-14" d="M15.67,68.63l-1-2.22q-.29-10.92-.58-21.86l.95,2.22q.3,10.93.59,21.86"/></g></g></g><g class="cls-2"><g class="cls-62"><g class="cls-2"><path class="cls-14" d="M14.64,46.53l-1-2.22a.67.67,0,0,1-.06-.3,1.23,1.23,0,0,1,.38-.94l1,2.22a1.22,1.22,0,0,0-.38.94.67.67,0,0,0,.06.3"/><path class="cls-13" d="M15,45.29l-1-2.22.06,0L15,45.24l-.06,0"/><path class="cls-22" d="M15,45.24,14.07,43h0L15,45.23h0"/></g></g></g><g class="cls-2"><g class="cls-63"><g class="cls-2"><path class="cls-14" d="M15,45.23,14.09,43c-.06-2.26-.11-4.51-.18-6.78l.95,2.22c.07,2.26.12,4.52.18,6.78"/></g></g></g><g class="cls-2"><g class="cls-64"><g class="cls-2"><path class="cls-14" d="M14.42,38.2,13.47,36a.7.7,0,0,1-.06-.3,1.28,1.28,0,0,1,.39-1l.95,2.22a1.27,1.27,0,0,0-.39,1,.71.71,0,0,0,.06.31"/><path class="cls-13" d="M14.75,36.93l-.95-2.22.07-.05,1,2.22-.07,0"/><path class="cls-22" d="M14.82,36.88l-1-2.22h0l.95,2.21,0,0"/></g></g></g><g class="cls-2"><g class="cls-65"><g class="cls-2"><path class="cls-22" d="M14.85,36.86l-.95-2.21,1.22-.57,1,2.22c-.37.17-.76.36-1.22.56"/></g></g></g><g class="cls-2"><g class="cls-66"><g class="cls-2"><path class="cls-41" d="M16.07,36.3l-1-2.22C14.89,25.32,14,18,13.8,9.27l1.56.77q.36,13.13.71,26.26"/></g></g></g><g class="cls-2"><g class="cls-67"><g class="cls-2"><path class="cls-41" d="M14.2,9.58l-.95-2.22a1.66,1.66,0,0,1-.11-.58A2.4,2.4,0,0,1,13.85,5l1,2.22A2.4,2.4,0,0,0,14.09,9a1.71,1.71,0,0,0,.11.58"/><path class="cls-7" d="M15,7h0"/><path class="cls-7" d="M14.07,4.83h0"/></g></g></g></g><path class="cls-68" d="M63.91,76.32l.15,4c.07,1.7-.58,3.45-1.42,3.89-7.92,4.15-11.09,5.89-18.5,10-1.43-2-2.15-3.07-3.61-5.12C50.07,83.77,53.71,81.75,63.91,76.32Z"/><path class="cls-69" d="M0,125.43c.13.23,31.4-15.9,46.08-24.16C58.77,94.13,84.8,79.15,84.8,79.15c-.13-.27-26.86,10.9-38.92,17.71C30.58,105.51,0,125.43,0,125.43Z"/><path class="cls-70" d="M63.59,77.86a2,2,0,0,0,.63-1.71C63.9,68,67,59.46,71.82,56.77s9.59,1.72,9.72,10.31c0,.78.43,1.21.94,1a2.3,2.3,0,0,0,.91-1.9C83.26,55.91,77.47,50.81,71.74,54s-9.26,13.21-8.88,22.85C62.89,77.62,63.22,78.06,63.59,77.86Z"/><path class="cls-70" d="M29,96.91a2.15,2.15,0,0,0,.7-1.77c-.34-9.71-4.76-15.4-11-12.06-2.95,1.56-5.94,4.94-8.33,9.52a1.79,1.79,0,0,0,0,2c.39.35,1,0,1.4-.71,2-3.85,4.49-6.71,7-8C24.1,83,28,87.73,28.23,96,28.26,96.73,28.62,97.14,29,96.91Z"/><path class="cls-41" d="M15.79,44.33l3.81-1.78-1-37.19-3.68,1.5Q15.35,25.6,15.79,44.33Z"/><path class="cls-71" d="M66.41,75.68c4.48-2.37,6.88-3.62,12.37-6.46a1.12,1.12,0,0,0,.43-.93c0-.38-.21-.6-.45-.47-5.51,2.87-7.91,4.13-12.4,6.51a1,1,0,0,0-.32.86C66.05,75.56,66.22,75.78,66.41,75.68Z"/><path class="cls-71" d="M72.59,83.46a1,1,0,0,0,.37-.88c-.25-8.7-.37-13-.62-21.75,0-.38-.2-.59-.41-.47a1.08,1.08,0,0,0-.38.9c.26,8.68.39,13,.64,21.71C72.2,83.35,72.38,83.57,72.59,83.46Z"/><path class="cls-71" d="M68.33,82.4a.56.56,0,0,0,.25-.33c3-7.74,4.66-11.69,8.35-20a1,1,0,0,0,0-1c-.17-.18-.44,0-.6.32C72.66,69.7,71.05,73.64,68,81.37a1.16,1.16,0,0,0,0,1A.21.21,0,0,0,68.33,82.4Z"/><path class="cls-71" d="M77,78a.7.7,0,0,0,.29-.35,1,1,0,0,0,0-1c-3.87-4.36-5.7-6.5-9.21-10.79-.15-.19-.38-.06-.52.28a1.12,1.12,0,0,0,0,1C71,71.45,72.84,73.6,76.68,78A.22.22,0,0,0,77,78Z"/><path class="cls-68" d="M65,75.74c-.28-7.36,2.54-15,6.88-17.43s8.53,1.6,8.66,9.3-3.7,15.85-7.88,17.91S65.27,83.11,65,75.74Zm2.83-1.49C68,78.67,70,81.31,72.49,80S77.16,74,77.06,69.41s-2.47-7-5-5.62S67.66,69.82,67.82,74.25Z"/><path class="cls-71" d="M66.71,74.83c-.2-5.56,2-11.39,5.25-13.16s6.3,1.3,6.42,7-2.66,11.85-5.82,13.44S66.91,80.4,66.71,74.83Zm1.44-.76c.14,4.09,2,6.52,4.33,5.34s4.29-5.61,4.2-9.81S74.41,63.13,72,64.41,68,70,68.15,74.07Z"/><path class="cls-71" d="M11.86,105.82,25.93,98a1,1,0,0,0,.37-.9c0-.38-.19-.58-.41-.46l-14.06,7.82a1.21,1.21,0,0,0-.49,1C11.35,105.78,11.58,106,11.86,105.82Z"/><path class="cls-71" d="M19.58,112.57a1.12,1.12,0,0,0,.43-.94c-.23-8.71-.35-13.07-.58-21.8,0-.38-.21-.58-.45-.45a1.1,1.1,0,0,0-.42.93c.22,8.74.33,13.1.56,21.83C19.13,112.52,19.34,112.72,19.58,112.57Z"/><path class="cls-71" d="M14.3,112.34a.92.92,0,0,0,.34-.4c4.17-8.67,6-12.84,9.47-20.94a1,1,0,0,0,0-1c-.16-.18-.42,0-.57.31-3.47,8.12-5.36,12.3-9.58,21a.91.91,0,0,0,0,1A.3.3,0,0,0,14.3,112.34Z"/><path class="cls-71" d="M24.29,106.65a.76.76,0,0,0,.29-.37,1,1,0,0,0,0-1c-3.85-4-5.88-6-10.28-9.93-.19-.17-.49,0-.68.37s-.17.82,0,1c4.44,3.89,6.49,5.87,10.38,9.87A.22.22,0,0,0,24.29,106.65Z"/><path class="cls-68" d="M9.82,106.24c-.14-7.67,4.32-16.35,9.1-18.92S27.23,89,27.47,96.4s-2.94,15.41-7.83,18.24S10,113.91,9.82,106.24Zm4-2.21c.09,4.54,2.78,6.76,5.68,5.1s5-6.5,4.81-10.95-2.36-6.92-5.23-5.35S13.71,99.49,13.81,104Z"/><path class="cls-71" d="M12.29,104.87C12.17,99.12,15.4,92.65,19,90.69s6.36,1.18,6.54,6.79-2.33,11.68-6,13.78S12.41,110.62,12.29,104.87Zm2-1.08c.09,4.19,2.55,6.25,5.24,4.72s4.58-6,4.45-10.13S21.74,92,19.08,93.45,14.15,99.59,14.24,103.79Z"/><path class="cls-41" d="M19.37,104.53h0a4.83,4.83,0,0,0,1.86-4q.16-18.43.29-36.87L15,67q1.12,17.9,2.29,35.79C17.4,104.35,18.33,105.12,19.37,104.53Z"/><path class="cls-41" d="M21.52,63.7q-.43-15.3-.86-30.59L14.32,36,15,67Z"/><path class="cls-70" d="M14.32,34.37l6.27-2.84c.25-.11.47.15.48.59h0a1.13,1.13,0,0,1-.44,1L14.35,36c-.28.13-.52-.12-.53-.57h0A1.15,1.15,0,0,1,14.32,34.37Z"/><path class="cls-70" d="M14.51,42.92,20.82,40c.26-.12.48.14.49.58h0a1.13,1.13,0,0,1-.44,1l-6.33,3c-.28.13-.53-.12-.54-.57h0A1.2,1.2,0,0,1,14.51,42.92Z"/><path class="cls-41" d="M14.6,3.78l6.57-2.64c0,1.26,0,1.89.09,3.14L14.68,7c-.54.22-1-.31-1-1.19h0A2.17,2.17,0,0,1,14.6,3.78Z"/><path class="cls-68" d="M21.87,4.91,17.32,6.78c-.8.32-1.49-.51-1.52-1.87h0c0-1.35.6-2.72,1.39-3L21.72.06c.73-.3,1.34.55,1.38,1.89h0C23.14,3.29,22.6,4.61,21.87,4.91Z"/><path class="cls-72" d="M20.85,2.87c0,1,.49,1.59,1,1.37a2.35,2.35,0,0,0,.9-2.15c0-1-.47-1.59-1-1.38A2.37,2.37,0,0,0,20.85,2.87Z"/><path class="cls-41" d="M33.5,96.8c12.87-7.23,25.79-14.28,38.87-21.12,1.18-.6,2.12-2.81,2.07-4.91s-1.1-3.26-2.29-2.63Q53.76,78,35.53,88.14,28.2,67.47,20.41,47c-.62-1.59-2-1.68-3.13-.17a6.38,6.38,0,0,0-.9,5.61Q25.43,74.42,33.5,96.8Z"/><path class="cls-68" d="M18.19,101.59c0,.92.54,1.4,1.13,1.07a2.71,2.71,0,0,0,1-2.27c0-.93-.52-1.41-1.11-1.08A2.72,2.72,0,0,0,18.19,101.59Z"/><path class="cls-68" d="M71.32,72.4c0,.92.47,1.45,1,1.18a2.56,2.56,0,0,0,.91-2.17c0-.92-.48-1.44-1-1.17A2.53,2.53,0,0,0,71.32,72.4Z"/></g></g></g></svg>