<svg xmlns="http://www.w3.org/2000/svg" viewBox="0 0 37.68 24.48"><defs><style>.cls-1{fill:#999;}.cls-2{fill:#ccc;}.cls-3{fill:#004355;}.cls-4{fill:#f2f2f2;}.cls-5{fill:#b3b3b3;}.cls-6{fill:#ba2b27;}.cls-7{fill:#fff;}.cls-8{fill:none;stroke:#fff;stroke-width:0.33px;}.cls-9{fill:#333;}.cls-10{fill:gray;}</style></defs><title>sneakers</title><g id="Layer_2" data-name="Layer 2"><g id="sneakers"><g id="sneakers-2" data-name="sneakers"><path d="M19,11.63H16.55c-1.41,0-5.54-.09-7-.17S5,11.15,4.45,11.07a3.71,3.71,0,0,1-.57-.13,10.86,10.86,0,0,0-1.21-.29c-.59-.12-2-.4-2.12-.79a.2.2,0,0,1,.17-.21c.07,0,.06,0,.07.08.3.32.73.39,1.94.63.68.14,1,.23,1.23.3a3.57,3.57,0,0,0,.54.13c.5.07,3.56.29,5,.36s5.61.17,7,.17h.86c1.76,0,5.4.07,6.09-.45.2-.09.29.2.22.25-.57.43-2.59.5-4.73.5Z"/><path class="cls-1" d="M23.72,11.13a9.7,9.7,0,0,1-.38,2.28c-2,.86-8.17,0-9.44,0s-6.05.49-9.28.06A14.57,14.57,0,0,1,.09,12.11C0,12,.07,11.83,0,11.37s0-.83.12-1,.31-.39.41-.55a4.9,4.9,0,0,0,2.15.8c1.21.24,1.26.35,1.77.42s3.62.3,5.07.37,5.58.17,7,.17,6.3.16,7.15-.49"/><path class="cls-2" d="M23.34,11.58a.94.94,0,0,0-.06.46s-.68.12-.86.17,0,.09,0,.09.87-.14.88-.11a5.81,5.81,0,0,1,0,.85.61.61,0,0,0,.19,0,11,11,0,0,0,.24-1.66C23.51,11.45,23.39,11.49,23.34,11.58Z"/><path class="cls-1" d="M23.39,11.67c-.06.28-.05.94-.12,1.37a.61.61,0,0,0,.19,0,9.49,9.49,0,0,0,.23-1.53C23.5,11.58,23.45,11.58,23.39,11.67Z"/><path class="cls-2" d="M7.07,12.12s2.85,0,2.86,0S7.1,12,7.11,11.93a2.41,2.41,0,0,1,.19-.5,13.83,13.83,0,0,1-7-1.33c-.07.08-.06.08-.06.16a1.37,1.37,0,0,0-.11,1A3,3,0,0,0,.18,12a14.35,14.35,0,0,0,4.53,1.32,19.2,19.2,0,0,0,2.48.17A4.27,4.27,0,0,1,7.07,12.12Z"/><path class="cls-1" d="M7.21,11.58a13.8,13.8,0,0,1-7-1.33c-.08.08-.06.08-.06.16s-.17.49-.12,1,0,.66.07.74a14.57,14.57,0,0,0,4.53,1.32,20.86,20.86,0,0,0,2.59.17C7.17,12.89,6.86,12.29,7.21,11.58Z"/><path class="cls-3" d="M3.27,10.54A3.28,3.28,0,0,1,4,9.06a10.53,10.53,0,0,1,1.18,0,2.59,2.59,0,0,1,1-.26,21.44,21.44,0,0,0,2.58-.6C8.94,8.12,11.1,7,11.34,6.86s1.13-.91,1.26-1,1.89-2.17,2.13-2.54S16,1.49,16.25,1.45a4.61,4.61,0,0,1,.93.07s.32-.32.48-.28.19.17.39.17a28.42,28.42,0,0,0,4.72-.18c.24,0,.07-.19.07-.19S23,1,23,1.07A1.53,1.53,0,0,1,23,2a4,4,0,0,0-.12,1.36,12.38,12.38,0,0,0-.13,1.91,5.36,5.36,0,0,0,.42,1.36c.13.23-.12.7.15.82s.29,1,.3,1.47,0,1.85-.06,1.94c-.19.46-3.73.79-6.83.61s-8.9-.19-10.56-.36A19.52,19.52,0,0,1,3.27,10.54Z"/><path class="cls-4" d="M3.5,10.6a0,0,0,0,1,0,0h0a0,0,0,0,1,0,0h.11s0,0,0,0,0,0,0,0Zm.35,0s0,0,0,0h0s0,0,0,0H4s0,0,0,0a0,0,0,0,1,0,0Zm.34-.05a0,0,0,0,1,0,0h0a0,0,0,0,1,0,0l.11,0a0,0,0,0,1,0,0s0,0,0,0Zm.35-.06,0,0s0,0,0,0h.11s0,0,0,0h0a0,0,0,0,1,0,0Zm.34-.06s0,0,0,0h0s0,0,0,0l.12,0,0,0H5a.05.05,0,0,1,0,0Zm.34-.05a0,0,0,0,1,0-.06l.11,0s0,0,0,0,0,0,0,0Zm.35-.06s0,0,0,0,0,0,0,0h.11s0,0,0,0a0,0,0,0,1,0,0Zm.34,0a0,0,0,0,1,0,0h0a0,0,0,0,1,0,0H6l0,0s0,0,0,0H5.91Zm.35,0a0,0,0,0,1,0,0s0,0,0,0h.12l0,0s0,0,0,0Zm.34,0a0,0,0,0,1,0-.06l.11,0a0,0,0,0,1,0,0h0s0,0,0,0ZM7,10.1l0,0s0,0,0,0l.11,0s0,0,0,0h0a0,0,0,0,1,0,0ZM7.29,10s0,0,0,0a0,0,0,0,1,0,0l.11,0s0,0,0,0h0s0,0,0,0Zm.34-.08,0,0a.05.05,0,0,1,0,0l.11,0,0,0a.05.05,0,0,1,0,0ZM8,9.85l0,0s0,0,0,0l.11,0s0,0,0,0,0,0,0,0Zm.34-.1s0,0,0,0a.05.05,0,0,1,0,0l.11,0,0,0a.05.05,0,0,1,0,0Zm.33-.1s0,0,0,0h0s0,0,0,0l.12,0s0,0,0,0,0,0,0,0ZM9,9.55l0,0s0,0,0,0l.11,0a0,0,0,0,1,0,0h0s0,0,0,0Zm.34-.11s0,0,0,0,0,0,0,0l.11,0s0,0,0,0a0,0,0,0,1,0,0Zm.33-.11s0,0,0,0,0,0,0,0l.11,0a0,0,0,0,1,0,0l0,0ZM10,9.22s0,0,0,0h0s0,0,0,0l.11,0a0,0,0,0,1,0,0l0,0Zm.33-.11s0,0,0,0,0,0,0,0l.11,0s0,0,0,0h0s0,0,0,0ZM10.62,9s0,0,0,0,0,0,0,0l.11,0s0,0,0,0a0,0,0,0,1,0,0ZM11,8.89s0,0,0,0h0s0,0,0,0l.11,0,0,0s0,0,0,0Zm.32-.12s0,0,0,0a0,0,0,0,1,0,0l.11,0s0,0,0,0h0s0,0,0,0Zm.33-.12s0,0,0,0,0,0,0,0l.11,0,0,0h0s0,0,0,0Zm.32-.13a0,0,0,0,1,0,0s0,0,0,0L12,8.42a0,0,0,0,1,0,0h0a0,0,0,0,1,0,0Zm.32-.14a0,0,0,0,1,0,0s0,0,0,0l.11-.05s0,0,0,0h0a0,0,0,0,1,0,0Zm.32-.14a0,0,0,0,1,0,0h0s0,0,0,0l.07,0,0,0s0,0,0,0h0s0,0,0,0l-.05,0Zm.31-.16s0,0,0,0a0,0,0,0,1,0,0L13,8s0,0,0,0h0s0,0,0,0Zm.32-.15s0,0,0,0,0,0,0,0l.11,0a0,0,0,0,1,0,0s0,0,0,0Zm.31-.15s0,0,0,0h0s0,0,0,0l.1,0s0,0,0,0,0,0,0,0Zm.3-.18a0,0,0,0,1,0,0s0,0,0,0l.1-.06a0,0,0,0,1,0,0h0s0,0,0,0Zm.29-.21a0,0,0,0,1-.05,0h0s0,0,0,0l.08-.08s0,0,0,0h0a0,0,0,0,1,0,0Zm.25-.24h0a0,0,0,0,1,0,0L14.36,7s0,0,0,0a0,0,0,0,1,0,0Zm.21-.28h0s0,0,0,0l.07-.09s0,0,0,0h0a0,0,0,0,1,0,0Zm.2-.29s0,0,0,0a0,0,0,0,1,0,0l.06-.1s0,0,0,0a0,0,0,0,1,0,0Zm.19-.29h0a0,0,0,0,1,0,0l.06-.1a0,0,0,1,1,.05,0Zm.19-.3a0,0,0,0,1,0,0h0s0,0,0,0l.06-.1a0,0,0,0,1,0,0h0s0,0,0,0Zm.18-.29s0,0,0,0h0a.06.06,0,0,1,0,0l.07-.1s0,0,0,0h0a0,0,0,0,1,0,0Zm.19-.3a0,0,0,0,1,0,0s0,0,0,0l.06-.1h0s0,0,0,0Zm.18-.3a0,0,0,0,1,0,0h0s0,0,0,0L15.69,5a0,0,0,0,1,0,0h0s0,0,0,0Zm.18-.29h0s0,0,0,0l.06-.1s0,0,0,0,0,0,0,0Zm.18-.3h0a0,0,0,0,1,0,0l.06-.1s0,0,0,0,0,0,0,0Zm.17-.31s0,0,0,0h0v0l.06-.1s0,0,0,0,0,0,0,0Zm.17-.3s0,0,0,0,0,0,0,0l.06-.1s0,0,0,0h0s0,0,0,0Zm.18-.3s0,0,0,0a0,0,0,0,1,0,0l0-.1a0,0,0,0,1,0,0s0,0,0,0Zm.17-.3h0s0,0,0,0l.06-.1a0,0,0,0,1,0,0h0a0,0,0,0,1,0,0ZM16.91,3a0,0,0,0,1,0,0s0,0,0,0l.05-.1h0a0,0,0,0,1,0,0Zm.17-.3a0,0,0,0,1,0,0s0,0,0,0l.06-.1s0,0,0,0h0s0,0,0,0Zm.18-.3s0,0,0,0h0a0,0,0,0,1,0,0l.05-.1s0,0,0,0h0a0,0,0,0,1,0,0Zm.17-.3s0,0,0,0h0s0,0,0,0l.06-.1s0,0,0,0h0s0,0,0,0Zm.18-.3s0,0,0,0h0a0,0,0,0,1,0,0l.05-.1a0,0,0,0,1,0,0s0,0,0,0Z"/><path class="cls-4" d="M3.39,10.43l0,0s0,0,0,0h.11l0,0h0s0,0,0,0Zm.34,0,0,0h0a.05.05,0,0,1,0,0h.12l0,0a.05.05,0,0,1,0,0Zm.35-.05,0,0s0,0,0,0h.11s0,0,0,0,0,0,0,0Zm.34-.05a0,0,0,0,1,0,0h0s0,0,0,0l.11,0s0,0,0,0h0a0,0,0,0,1,0,0Zm.34-.06s0,0,0,0h0s0,0,0,0l.12,0s0,0,0,0,0,0,0,0Zm.35-.05s0,0,0,0a0,0,0,0,1,0,0l.11,0a0,0,0,0,1,0,0h0s0,0,0,0Zm.34-.06s0,0,0,0h0s0,0,0,0l.12,0a0,0,0,0,1,0,0h0a0,0,0,0,1,0,0Zm.34,0a0,0,0,0,1,0-.06H5.9s0,0,0,0,0,0,0,0Zm.35,0a0,0,0,0,1,0,0h0s0,0,0,0h.12s0,0,0,0a0,0,0,0,1,0,0Zm.34,0,0,0s0,0,0,0l.11,0a0,0,0,0,1,0,0h0s0,0,0,0Zm.35-.06,0,0h0s0,0,0,0l.11,0s0,0,0,0,0,0,0,0Zm.34-.08s0,0,0,0h0a0,0,0,0,1,0,0l.11,0,0,0h0s0,0,0,0Zm.34-.09s0,0,0,0,0,0,0,0l.11,0s0,0,0,0,0,0,0,0Zm.33-.09s0,0,0,0,0,0,0,0l.11,0,0,0s0,0,0,0Zm.34-.09,0,0s0,0,0,0l.11,0s0,0,0,0h0s0,0,0,0Zm.33-.1s0,0,0,0h0s0,0,0,0l.11,0,0,0s0,0,0,0Zm.34-.09,0,0h0s0,0,0,0l.11,0s0,0,0,0,0,0,0,0Zm.33-.1,0,0h0a.05.05,0,0,1,0,0l.12,0s0,0,0,0h0s0,0,0,0Zm.33-.1,0,0s0,0,0,0l.11,0s0,0,0,0h0s0,0,0,0Zm.34-.11s0,0,0,0h0s0,0,0,0l.11,0,0,0a.05.05,0,0,1,0,0ZM10.18,9s0,0,0,0h0s0,0,0,0l.11,0,0,0a.05.05,0,0,1,0,0Zm.33-.11s0,0,0,0,0,0,0,0l.11,0s0,0,0,0,0,0,0,0Zm.33-.12s0,0,0,0,0,0,0,0l.1,0s0,0,0,0h0s0,0,0,0Zm.32-.12,0,0h0a0,0,0,0,1,0,0l.11,0a0,0,0,0,1,0,0s0,0,0,0Zm.32-.14s0,0,0,0h0a.05.05,0,0,1,0,0l.11,0s0,0,0,0a.05.05,0,0,1,0,0Zm.32-.13s0,0,0,0h0a0,0,0,0,1,0,0l.11,0s0,0,0,0,0,0,0,0Zm.32-.14a0,0,0,0,1,0,0h0s0,0,0,0l.11-.05a0,0,0,0,1,0,0h0a0,0,0,0,1,0,0Zm.32-.14a0,0,0,0,1,0,0s0,0,0,0l.11,0a0,0,0,0,1,0,0h0s0,0,0,0Zm.32-.15s0,0,0,0h0s0,0,0,0l.11-.05s0,0,0,0h0s0,0,0,0Zm.31-.15s0,0,0,0h0s0,0,0,0l.1-.06s0,0,0,0h0s0,0,0,0Zm.31-.17s0,0,0,0h0s0,0,0,0l.1-.06s0,0,0,0,0,0,0,0Zm.29-.19h0a.07.07,0,0,1,0-.05l.09-.06h0s0,0,0,0ZM14,7.19a0,0,0,0,1,0,0h0a0,0,0,0,1,0,0L14,7.06h0a0,0,0,0,1,0,0Zm.23-.27s0,0,0,0a0,0,0,0,1,0,0l.07-.1s0,0,0,0a0,0,0,0,1,0,0Zm.21-.29a0,0,0,0,1,0,0h0a0,0,0,0,1,0,0l.06-.1h0s0,0,0,0Zm.19-.29s0,0,0,0h0s0,0,0,0l.06-.1h0a0,0,0,0,1,0,0Zm.19-.29s0,0,0,0,0,0,0,0l.06-.1s0,0,0,0h0a0,0,0,0,1,0,0ZM15,5.76h0s0,0,0,0L15,5.63a0,0,0,0,1,0,0s0,0,0,0Zm.19-.3a0,0,0,1,1-.05,0l.06-.1s0,0,0,0,0,0,0,0Zm.18-.29h0a.06.06,0,0,1,0,0l.07-.1s0,0,0,0h0a0,0,0,0,1,0,0Zm.19-.3a0,0,0,0,1,0,0s0,0,0,0l.06-.1h0s0,0,0,0Zm.18-.29h0a.06.06,0,0,1,0,0l.07-.1s0,0,0,0h0s0,0,0,0Zm.19-.3s0,0,0,0a0,0,0,0,1,0,0l.06-.1s0,0,0,0,0,0,0,0Zm.18-.3s0,0,0,0,0,0,0,0l.06-.09a0,0,0,0,1,0,0s0,0,0,0Zm.19-.29s0,0,0,0h0a0,0,0,0,1,0,0l.06-.1s0,0,0,0h0s0,0,0,0Zm.18-.3a0,0,0,0,1,0,0s0,0,0,0l.06-.1s0,0,0,0h0s0,0,0,0Zm.18-.29h0s0,0,0,0L16.63,3a0,0,0,0,1,0,0h0s0,0,0,0Zm.18-.3s0,0,0,0a0,0,0,0,1,0,0l.06-.1s0,0,0,0h0a.06.06,0,0,1,0,0ZM17,2.5s0,0,0,0a0,0,0,0,1,0,0l.06-.1s0,0,0,0,0,0,0,0Zm.18-.3a0,0,0,0,1,0,0s0,0,0,0l.06-.1h0s0,0,0,0Zm.18-.29h0s0,0,0,0l.06-.1a0,0,0,0,1,0,0h0s0,0,0,0Zm.18-.3s0,0,0,0h0a.06.06,0,0,1,0,0l0-.05a0,0,0,0,1,0,0s0,0,0,0Z"/><path class="cls-4" d="M3.57,10.49l0,0h0s0,0,0,0l0-.11s0,0,0,0h0s0,0,0,0Zm.17-.3a0,0,0,0,1-.05,0,0,0,0,0,1,0,0l.07-.1h0s0,0,0,0ZM4,9.92a0,0,0,0,1,0,0h0s0,0,0,0L4,9.8a0,0,0,0,1,0,0H4s0,0,0,0Zm.26-.22a0,0,0,0,1,0,0,0,0,0,0,1,0,0l.1-.07s0,0,0,0a0,0,0,0,1,0,0Zm.29-.19s0,0,0,0h0a0,0,0,0,1,0,0l.1-.06s0,0,0,0h0a0,0,0,0,1,0,0Zm.3-.16a0,0,0,0,1,0,0s0,0,0,0l.11,0s0,0,0,0a.05.05,0,0,1,0,0Zm.33-.12,0,0s0,0,0,0l.11,0a0,0,0,0,1,0,0s0,0,0,0Zm.33-.1,0,0s0,0,0,0l.11,0s0,0,0,0h0a.05.05,0,0,1,0,0Zm.33-.08a0,0,0,0,1,0,0s0,0,0,0,.06,0,.06,0h0Z"/><path class="cls-4" d="M3.36,10.49l0,0h0s0,0,0,0l0-.11a0,0,0,0,1,0,0h0s0,0,0,0Zm.16-.3s0,0,0,0,0,0,0,0l.07-.1h0s0,0,0,0Zm.22-.27a0,0,0,0,1,0,0h0s0,0,0,0l.08-.08a0,0,0,0,1,0,0h0a0,0,0,0,1,0,0ZM4,9.7s0,0,0,0a0,0,0,0,1,0,0l.1-.07s0,0,0,0,0,0,0,0Zm.28-.19s0,0,0,0h0a.06.06,0,0,1,0,0l.11-.06a0,0,0,0,1,0,0h0s0,0,0,0Zm.31-.16s0,0,0,0,0,0,0,0l.11,0a0,0,0,0,1,0,0s0,0,0,0Zm.32-.12,0,0s0,0,0,0l.11,0s0,0,0,0,0,0,0,0Zm.33-.1,0,0s0,0,0,0l.11,0a.05.05,0,0,1,0,0h0s0,0,0,0Zm.34-.08s0,0,0,0a0,0,0,0,1,0,0s0,0,.06,0h0Z"/><path class="cls-4" d="M7,8.74a0,0,0,0,1,0,0s0,0,0,0l.11,0s0,0,0,0a0,0,0,0,1,0,0Zm.34-.08,0,0h0s0,0,0,0l.11,0,0,0s0,0,0,0Zm.34-.09,0,0h0a.05.05,0,0,1,0,0l.11,0s0,0,0,0,0,0,0,0ZM8,8.47s0,0,0,0H8s0,0,0,0l.11,0s0,0,0,0,0,0,0,0Zm.34-.11s0,0,0,0h0s0,0,0,0l.11,0,0,0h0s0,0,0,0Zm.33-.1s0,0,0,0h0s0,0,0,0l.11,0s0,0,0,0h0s0,0,0,0ZM9,8.15s0,0,0,0,0,0,0,0l.11,0s0,0,0,0h0s0,0,0,0ZM9.35,8s0,0,0,0,0,0,0,0l.11,0s0,0,0,0a0,0,0,0,1,0,0Zm.33-.11s0,0,0,0h0s0,0,0,0l.11,0s0,0,0,0h0a0,0,0,0,1,0,0ZM10,7.82a0,0,0,0,1,0,0s0,0,0,0l.11,0s0,0,0,0,0,0,0,0Zm.33-.13s0,0,0,0h0a0,0,0,0,1,0,0l.11,0s0,0,0,0h0a0,0,0,0,1,0,0Zm.31-.16s0,0,0,0,0,0,0,0l.1-.06s0,0,0,0h0a0,0,0,0,1,0,0Zm.3-.17s0,0,0,0h0a.06.06,0,0,1,0,0l.1-.06s0,0,0,0a0,0,0,0,1,0,0Zm.3-.18s0,0,0,0h0s0,0,0,0l.1-.06a0,0,0,0,1,0,0s0,0,0,0ZM11.54,7h0s0,0,0,0l.1-.07s0,0,0,0,0,0,0,0Zm.29-.2s0,0,0,0h0a0,0,0,0,1,0,0l.09-.07a0,0,0,0,1,0,0,0,0,0,0,1,0,0Zm.28-.21a0,0,0,0,1,0,0h0a0,0,0,0,1,0,0l.1-.07a0,0,0,0,1,0,0h0s0,0,0,0Zm.27-.22h0a0,0,0,0,1,0,0l.09-.08a0,0,0,0,1,0,0h0a0,0,0,0,1,0,0Zm.27-.23h0a0,0,0,0,1,0,0l.05,0,0,0h0a0,0,0,0,1,0,0l0,0Zm.25-.24a0,0,0,0,1,0,0h0a0,0,0,0,1,0,0l.08-.08a0,0,0,0,1,0,0h0a0,0,0,0,1,0,0Zm.24-.26s0,0,0,0h0s0,0,0,0l.08-.08a0,0,0,0,1,0,0h0a0,0,0,0,1,0,0Zm.22-.27a0,0,0,0,1,0,0h0s0,0,0,0l.08-.09s0,0,0,0a0,0,0,0,1,0,0Zm.21-.27h0s0,0,0,0L13.6,5h0s0,0,0,0Zm.22-.28a0,0,0,0,1,0,0h0a0,0,0,0,1,0,0l.07-.09a0,0,0,0,1,0,0h0s0,0,0,0ZM14,4.54s0,0,0,0h0a0,0,0,0,1,0,0L14,4.42a0,0,0,1,1,.05,0Zm.23-.25h0a0,0,0,0,1,0,0l.08-.09h0a0,0,0,0,1,0,0ZM14.47,4a0,0,0,0,1,0,0h0a0,0,0,0,1,0,0l.08-.09s0,0,0,0h0a0,0,0,0,1,0,0Zm.22-.26a0,0,0,0,1,0,0s0,0,0,0l.08-.09s0,0,0,0h0a0,0,0,0,1,0,0Zm.22-.28a0,0,0,0,1-.05,0l.07-.09a0,0,0,0,1,0,0h0a0,0,0,0,1,0,0Zm.21-.27s0,0,0,0a0,0,0,0,1,0,0l.07-.09a0,0,0,0,1,0,0h0a0,0,0,0,1,0,0ZM15.35,3h0s0,0,0,0l.06-.07,0,0h0a0,0,0,0,1,0,0l0,0Zm.23-.26s0,0,0,0a0,0,0,0,1,0,0l.06-.06,0,0h0a0,0,0,0,1,0,0l0,0Zm.23-.26h0a0,0,0,0,1,0,0l.08-.09h0a0,0,0,0,1,0,0Zm.24-.26a0,0,0,0,1,0,0,0,0,0,0,1,0,0l.08-.08s0,0,0,0a0,0,0,0,1,0,0ZM16.31,2a0,0,0,0,1,0,0s0,0,0,0l.1-.07s0,0,0,0,0,0,0,0Zm4.55-.1h-.08a0,0,0,0,1,0,0h0a0,0,0,0,1,0,0h.11a0,0,0,0,1,0,0h0a0,0,0,0,1,0,0Zm-.29,0s0,0,0,0h-.11a0,0,0,0,1,0,0h0a0,0,0,0,1,0,0h.11a0,0,0,0,1,0,0Zm.56,0a0,0,0,0,1,0,0h0s0,0,0,0h.12a0,0,0,0,1,0,0h0a0,0,0,0,1,0,0Zm-.91,0s0,0,0,0h-.12s0,0,0,0h0a0,0,0,0,1,0,0h.12s0,0,0,0Zm-.34,0a0,0,0,0,1,0,0h-.12a0,0,0,0,1,0,0h0a0,0,0,0,1,0,0h.12a0,0,0,0,1,0,0Zm1.59,0s0,0,0,0h0a0,0,0,0,1,0,0h.11a.05.05,0,0,1,0,0h0s0,0,0,0Zm-1.94,0a0,0,0,0,1,0,0h-.12a0,0,0,0,1,0,0h0a0,0,0,0,1,0,0h.12a0,0,0,0,1,0,0Zm-.35,0a0,0,0,0,1,0,0H19s0,0,0,0h0a0,0,0,0,1,0,0h.11a0,0,0,0,1,0,0Zm-2.57,0,0,0h0a.05.05,0,0,1,0,0l.12,0a0,0,0,0,1,0,0h0s0,0,0,0Zm2.22,0a0,0,0,0,1,0,0h-.11a0,0,0,0,1,0,0h0a0,0,0,0,1,0,0h.11a0,0,0,0,1,0,0Zm3,0s0,0,0,0h0s0,0,0,0h.12s0,0,0,0,0,0,0,0Zm-3.34,0a0,0,0,0,1,0,0h-.11a0,0,0,0,1,0,0h0a0,0,0,0,1,0,0h.12s0,0,0,0Zm-.34,0s0,0,0,0H18a0,0,0,0,1,0,0h0a0,0,0,0,1,0,0h.12a0,0,0,0,1,0,0Zm-.35,0a0,0,0,0,1,0,0h-.12a0,0,0,0,1,0,0h0a0,0,0,0,1,0,0h.12a0,0,0,0,1,0,0Zm-.35,0a0,0,0,0,1,0,0h-.12a0,0,0,0,1,0,0h0a0,0,0,0,1,0,0h.12s0,0,0,0Zm-.35,0a0,0,0,0,1,0,0h-.12s0,0,0,0h0s0,0,0,0h.12a0,0,0,0,1,0,0Zm5.08,0s0,0,0,0h0a0,0,0,0,1,0,0l.11,0a0,0,0,0,1,0,0h0s0,0,0,0Zm.34-.09s0,0,0,0,0,0,0,0l.11,0s0,0,0,0h0s0,0,0,0Zm.32-.13a0,0,0,0,1,0,0h0s0,0,0,0l.09-.06s0,0,0,0h0a0,0,0,0,1,0,0Z"/><path class="cls-4" d="M7.07,8.7s0,0,0,0,0,0,0,0l.12,0a0,0,0,0,1,0,0s0,0,0,0Zm.35-.07,0,0h0s0,0,0,0l.11,0s0,0,0,0h0a.05.05,0,0,1,0,0Zm.33-.1s0,0,0,0h0a0,0,0,0,1,0,0l.12,0s0,0,0,0,0,0,0,0Zm.33-.1,0,0s0,0,0,0l.11,0a0,0,0,0,1,0,0s0,0,0,0Zm.34-.11s0,0,0,0h0s0,0,0,0l.11,0a0,0,0,0,1,0,0s0,0,0,0Zm.33-.11s0,0,0,0h0s0,0,0,0l.11,0s0,0,0,0h0s0,0,0,0Zm.32-.12s0,0,0,0H9s0,0,0,0l.11,0,0,0h0s0,0,0,0ZM9.4,8l0,0a.05.05,0,0,1,0,0l.11,0a0,0,0,0,1,0,.06Zm.33-.13s0,0,0,0,0,0,0,0l.1,0s0,0,0,0,0,0,0,0Zm.32-.14s0,0,0,0,0,0,0,0l.11-.05s0,0,0,0h0s0,0,0,0Zm.31-.15s0,0,0,0h0s0,0,0,0l.1-.06s0,0,0,0,0,0,0,0Zm.31-.17s0,0,0,0h0s0,0,0,0l.1-.06s0,0,0,0h0s0,0,0,0ZM11,7.2a0,0,0,0,1,0,0h0s0,0,0,0l.1-.06h0s0,0,0,0Zm.3-.18s0,0,0,0h0a0,0,0,0,1,0,0l.1-.06s0,0,0,0a0,0,0,0,1,0,0Zm.29-.19s0,0,0,0h0a0,0,0,0,1,0,0l.09-.07h0s0,0,0,0Zm.28-.2a0,0,0,0,1,0,0h0s0,0,0,0l.1-.07h0s0,0,0,0Zm.29-.21h0a0,0,0,0,1,0,0l.09-.07h0s0,0,0,0Zm.27-.21a0,0,0,0,1,0,0h0a0,0,0,0,1,0,0l.08-.07h.05s0,0,0,0ZM12.67,6h0a0,0,0,0,1,0,0l0-.05,0,0a0,0,0,0,1,0,0h0s0,0,0,0l0,0Zm.25-.24h0a0,0,0,0,1,0,0L13,5.61s0,0,0,0h0a0,0,0,0,1,0,0Zm.23-.26h0a0,0,0,0,1,0,0l.07-.09h.05a0,0,0,0,1,0,0Zm.23-.27s0,0,0,0h0s0,0,0,0l.07-.09h0a0,0,0,0,1,0,0Zm.21-.27h0a0,0,0,0,1,0,0l.07-.09h0a0,0,0,0,1,0,0Zm.22-.28s0,0,0,0a0,0,0,0,1,0,0l.07-.09a0,0,0,0,1,0,0h0a0,0,0,0,1,0,0ZM14,4.39s0,0,0,0h0a0,0,0,0,1,0-.05l.08-.08a0,0,0,0,1,0,0,0,0,0,0,1,0,0Zm.24-.25a0,0,0,0,1,0,0s0,0,0,0L14.29,4h0a0,0,0,0,1,0,0Zm.23-.27s0,0,0,0h0s0,0,0,0l.07-.09a0,0,0,0,1,0,0,0,0,0,0,1,0,0Zm.21-.27h0a0,0,0,0,1,0,0l.07-.09s0,0,0,0h0a0,0,0,0,1,0,0Zm.21-.28a0,0,0,0,1,0,0h0s0,0,0,0l.06-.09H15a0,0,0,0,1,0,0ZM15.12,3s0,0,0,0h0a.06.06,0,0,1,0,0l.08-.1s0,0,0,0a0,0,0,0,1,0,0Zm.22-.27h0s0,0,0,0l.08-.08,0,0,0,0h0v0l0,0Zm.23-.26a0,0,0,0,1,0,0h0a0,0,0,0,1,0,0l.07-.08,0,0h0s0,0,0,0l0,0Zm.23-.26h0a0,0,0,0,1,0,0l.07-.09a0,0,0,0,1,.05,0h0a0,0,0,0,1,0,0ZM16,2h0a0,0,0,0,1,0,0l.08-.08s0,0,0,0a0,0,0,0,1,0,0Zm.26-.23s0,0,0,0h0s0,0,0,0l.1-.07s0,0,0,0,0,0,0,0Zm4.56-.11h-.1a0,0,0,0,1,0,0h0a0,0,0,0,1,0,0h.12a0,0,0,0,1,0,0h0a0,0,0,0,1,0,0Zm-.3,0s0,0,0,0h-.12a0,0,0,0,1,0,0h0s0,0,0,0h.12a0,0,0,0,1,0,0Zm.55,0s0,0,0,0h0a0,0,0,0,1,0,0h.11a0,0,0,0,1,0,0s0,0,0,0Zm-.9,0a0,0,0,0,1,0,0h-.12l0,0h0a0,0,0,0,1,0,0h.12a0,0,0,0,1,0,0Zm-.35,0a0,0,0,0,1,0,0h-.12s0,0,0,0h0a0,0,0,0,1,0,0h.11a0,0,0,0,1,0,0Zm1.6,0a0,0,0,0,1,0,0h0s0,0,0,0h.12a0,0,0,0,1,0,0h0a0,0,0,0,1,0,0Zm-1.95,0a0,0,0,0,1,0,0h-.11a0,0,0,0,1,0,0h0a0,0,0,0,1,0,0h.11a0,0,0,0,1,0,0Zm-2.91,0s0,0,0,0,0,0,0,0l.11,0a.05.05,0,0,1,0,0s0,0,0,0Zm2.56,0a0,0,0,0,1,0,0H19a0,0,0,0,1,0,0h0a0,0,0,0,1,0,0h.12s0,0,0,0Zm-.34,0s0,0,0,0h-.12a0,0,0,0,1,0,0h0a0,0,0,0,1,0,0h.12a0,0,0,0,1,0,0Zm3,0a0,0,0,0,1,0,0,0,0,0,0,1,0,0l.11,0s0,0,0,0h0a0,0,0,0,1,0,0Zm-3.34,0a0,0,0,0,1,0,0h-.12a0,0,0,0,1,0,0h0a0,0,0,0,1,0,0h.12a0,0,0,0,1,0,0Zm-.35,0a0,0,0,0,1,0,0H18a0,0,0,0,1,0,0h0s0,0,0,0h.12a0,0,0,0,1,0,0Zm-.35,0a0,0,0,0,1,0,0h-.12s0,0,0,0h0a0,0,0,0,1,0,0h.11a0,0,0,0,1,0,0Zm-.35,0s0,0,0,0h-.11a0,0,0,0,1,0,0h0a0,0,0,0,1,0,0h.11a0,0,0,0,1,0,0Zm-.35,0a0,0,0,0,1,0,0h-.11a0,0,0,0,1,0,0h0a0,0,0,0,1,0,0H17a0,0,0,0,1,0,0Zm5.08,0s0,0,0,0h0s0,0,0,0l.11,0a.05.05,0,0,1,0,0,.05.05,0,0,1,0,0Zm.34-.08s0,0,0,0h0s0,0,0,0l.11,0s0,0,0,0h0s0,0,0,0Zm.33-.13s0,0,0,0h0s0,0,0,0l.1-.06s0,0,0,0a0,0,0,0,1,0,0Z"/><path class="cls-5" d="M12.07,9.89a.42.42,0,1,0,.42.42A.42.42,0,0,0,12.07,9.89Zm0,.63a.21.21,0,0,1-.2-.21.2.2,0,0,1,.4,0A.21.21,0,0,1,12.07,10.52Z"/><path class="cls-5" d="M14.1,10a.42.42,0,1,0,.43.42A.42.42,0,0,0,14.1,10Zm0,.62a.2.2,0,1,1,0-.4.2.2,0,1,1,0,.4Z"/><path class="cls-5" d="M3.2,10.51c.21-.69.54-1.52.94-1.5-.18-.12,0,0-1.41,0C1.48,8.91.86,9.32.79,9.68s2.38.83,2.38.83"/><path class="cls-5" d="M5.81,9.26a1.14,1.14,0,0,1,.72-.64,3.74,3.74,0,0,1,1.55-.21c.08.08-.24,0-.29.07s.12.24.17.38-.39.5-.53.25-.3-.44-.36-.44a1.63,1.63,0,0,0-.65.53A.36.36,0,0,1,6,9.41C5.85,9.4,5.77,9.38,5.81,9.26Z"/><path class="cls-5" d="M8.54,8.18c0-.08.49-.38.68-.31a1.11,1.11,0,0,1,.48.48c.05.12-.26.42-.47.27A1.45,1.45,0,0,0,8.54,8.18Z"/><path class="cls-5" d="M9.88,7.57c-.07-.06.45-.4.61-.37a1.8,1.8,0,0,1,.8.55c.06.16-.27.51-.5.32a5.32,5.32,0,0,0-.73-.54C10,7.49,9.88,7.57,9.88,7.57Z"/><path class="cls-5" d="M12.37,7.32a10.62,10.62,0,0,0-1-.48,2.73,2.73,0,0,0-.53.29,1.61,1.61,0,0,1,1-.75,2.42,2.42,0,0,1,.92.53C12.89,7,12.51,7.4,12.37,7.32Z"/><path class="cls-5" d="M12.52,5.78c0-.13.28-.49.51-.51a2.44,2.44,0,0,1,1,.57c.07.12-.15.15-.17.25s-.12.24-.34.15A5.11,5.11,0,0,0,12.52,5.78Z"/><path class="cls-5" d="M13.63,4.64a3.82,3.82,0,0,1,1.17,0c.16.05.11-.2.2-.23s.24-.18.06-.3a1.6,1.6,0,0,0-.94-.05Z"/><path class="cls-5" d="M14.74,3.18a9.35,9.35,0,0,1,1.2-.1,1.61,1.61,0,0,0-.28-.58,1.06,1.06,0,0,0-.46.12A5.84,5.84,0,0,0,14.74,3.18Z"/><path class="cls-5" d="M6.05,9c-.26,0-.48.13-.48.29s.22.29.48.29.48-.13.48-.29S6.31,9,6.05,9Zm0,.45c-.14,0-.25-.07-.25-.16s.11-.15.25-.15.25.07.25.15S6.19,9.49,6.05,9.49Z"/><path class="cls-5" d="M7.65,8.76c-.25.08-.42.26-.38.41s.29.22.54.15.42-.25.38-.41S7.91,8.69,7.65,8.76Z"/><path class="cls-5" d="M9.35,8.23c-.25.08-.42.26-.38.41s.29.22.54.15.43-.25.38-.41S9.61,8.16,9.35,8.23Z"/><path class="cls-5" d="M10.89,7.69c-.24.12-.37.33-.3.47s.32.17.56.05.37-.33.3-.47S11.13,7.57,10.89,7.69Z"/><path class="cls-5" d="M12.45,6.93c-.24.12-.38.33-.31.47s.32.17.56,0,.37-.32.3-.47S12.68,6.82,12.45,6.93Z"/><path class="cls-5" d="M13.59,5.86a.43.43,0,0,0,0,.59.43.43,0,0,0,.56-.21.45.45,0,0,0,0-.6A.45.45,0,0,0,13.59,5.86Z"/><path class="cls-5" d="M14.67,4.21a.42.42,0,0,0,.05.59c.16.11.41,0,.55-.21a.43.43,0,0,0,0-.59A.43.43,0,0,0,14.67,4.21Z"/><path class="cls-5" d="M15.7,2.65a.45.45,0,0,0,0,.6A.45.45,0,0,0,16.3,3a.42.42,0,0,0-.05-.59C16.09,2.33,15.84,2.43,15.7,2.65Zm.46.29c-.08.12-.21.17-.3.11a.23.23,0,0,1,0-.31c.08-.12.21-.17.29-.11S16.23,2.82,16.16,2.94Z"/><path d="M6.05,9.49c-.14,0-.25-.07-.25-.16s.11-.15.25-.15.25.07.25.15S6.19,9.49,6.05,9.49Z"/><path d="M7.77,9.19c-.13,0-.26,0-.28-.08s.07-.17.2-.21S8,8.89,8,9,7.91,9.15,7.77,9.19Z"/><path d="M9.47,8.66c-.13,0-.26,0-.28-.08s.07-.18.2-.21.26,0,.28.07S9.61,8.62,9.47,8.66Z"/><path d="M11.08,8.09c-.12.06-.25.05-.29,0s0-.19.16-.25.26,0,.29,0S11.21,8,11.08,8.09Z"/><path d="M12.64,7.33c-.12.06-.26,0-.29,0s0-.18.16-.24.25,0,.29,0S12.76,7.27,12.64,7.33Z"/><path d="M14.05,6.15c-.08.12-.21.17-.29.11s-.1-.19,0-.31.21-.17.29-.11S14.12,6,14.05,6.15Z"/><path d="M15.13,4.5c-.08.12-.21.17-.29.11s-.1-.19,0-.31.21-.17.3-.11A.23.23,0,0,1,15.13,4.5Z"/><path d="M16.16,2.94c-.08.12-.21.17-.3.11a.23.23,0,0,1,0-.31c.08-.12.21-.17.29-.11S16.23,2.82,16.16,2.94Z"/><path class="cls-5" d="M16.91,3.67c0-.62-.08-1.07-.11-1.46s-.59-.55-.75-.69-.42-.71-.62-1-.57-.61-.74-.53a1,1,0,0,0-.62.65c0,.26,1,1.15.94,1.23a3.19,3.19,0,0,1-.47.48c-.23.21-.27.61-.41.88a8.91,8.91,0,0,1-.58.92c-.32.35-2.05,1.69-2.38,2.45,0,0,.45-.34.76-.28l.59-.51s-.19-.07.11-.38.44-.24.44-.24l1-1.22.57-.75-.08-.06.89-1a3.48,3.48,0,0,1,.55,1.14c.11.1.17,0,.17,0s0,2.19,0,2.51.1.49.1.66,0,1.36,0,1.36.24.07.28,0c0-.21,0-1.4,0-1.4a1.91,1.91,0,0,0,.21-.75C16.85,5.33,16.91,3.67,16.91,3.67Z"/><path class="cls-5" d="M21.39,1.35a7,7,0,0,1,.95-.3c.28,0,.47-.09.52,0S22.13,1.32,21.39,1.35Z"/><path d="M20.39,13.08c-1.25,0-2.65-.1-3.95-.19l-1.57-.09c-1.11-.06-2.55,0-3.94.08a15.46,15.46,0,0,1-3.9,0l.06-.16a16.18,16.18,0,0,0,3.83,0c1.39-.07,2.84-.15,4-.09l1.57.1c2.52.17,5.41.36,6.82-.14v.17a9.22,9.22,0,0,1-2.88.33Z"/><path d="M14.1,10.65a.2.2,0,1,1,0-.4.2.2,0,1,1,0,.4Z"/><path d="M12.07,10.52a.21.21,0,0,1-.2-.21.2.2,0,0,1,.4,0A.21.21,0,0,1,12.07,10.52Z"/><path class="cls-6" d="M21.51,5.67a1.93,1.93,0,1,1-1.93-2A1.95,1.95,0,0,1,21.51,5.67Z"/><g id="rocket"><path class="cls-7" d="M20.22,6.39l0,0s0,0,0,.06L21.7,8h0V7.83L20.28,6.39Z"/><path class="cls-7" d="M20.58,6.43l0,0s0,0,0,.06l1.16,1.17V7.51L20.64,6.43Z"/><path class="cls-7" d="M20.27,6.78l0,0a.06.06,0,0,0,0,.06L21.37,8h.18L20.33,6.78A.06.06,0,0,0,20.27,6.78Z"/><path class="cls-7" d="M18.15,4.43l0,0a1.76,1.76,0,0,0,.68,1.38,1.09,1.09,0,0,0,.25.21l.11.4h0l.29.24.05,0h0s0,0,0,0l.12-.4a.43.43,0,0,0,.22-.06l.15.13a0,0,0,0,0,0,0l.12-.12v0L20,6.09a.12.12,0,0,0,0-.07.43.43,0,0,0,0-.19l.4-.14v0l-.3-.32h0l-.4-.07A3.25,3.25,0,0,0,19.47,5a1.92,1.92,0,0,0-1.21-.57Zm1.18.94a.24.24,0,0,1-.24.24.24.24,0,1,1,0-.48A.24.24,0,0,1,19.33,5.37Z"/></g><path class="cls-1" d="M14.06,18.14c-.39.34-1.11,1,.53,2.1,2.21,1.44,5.61.8,7.47.57a8.25,8.25,0,0,0,2.81-.72,22.2,22.2,0,0,0,5.95-3.19c1.9-1.58,2.14-1.8,3-2.54,1.33-1.08,3.7-1.79,3.79-2.85a3.65,3.65,0,0,1-.2,1.28,2.06,2.06,0,0,1-.21.6c0,.52-.17.73-.71,1.27s-2.23,1.42-2.67,1.8A8.88,8.88,0,0,0,32,18.75,12.13,12.13,0,0,1,27.85,22s-10.36,4-13.94.77C13.08,19.71,13.34,18.54,14.06,18.14Z"/><path class="cls-3" d="M37.59,11.06a6.18,6.18,0,0,0-.33-1.84,18.5,18.5,0,0,1-.38-2.49,20.48,20.48,0,0,1-.46-3.12c.07-.47.21-2,.24-2.45s-.11-.53-.11-.43a.84.84,0,0,1-.07.37,1.27,1.27,0,0,1-.68.47,20.06,20.06,0,0,1-2.38.3,5.31,5.31,0,0,1-1.08-.44,3.63,3.63,0,0,0-1.83-.31c-.31.06-.32,0-.57.38S28.1,5.72,28,6.05s-.63,1.71-.83,2-.83,1.22-1,1.4-1,.91-1.31,1.26S23.47,11.82,23.3,12s-1.42,1.07-1.69,1.25a18.53,18.53,0,0,1-1.92,1.19,30.67,30.67,0,0,0-2.93,1.46c.06.1.35-.1.71,0a6.79,6.79,0,0,1,2.61,1.41,8.12,8.12,0,0,1,1.65,1.81,4.24,4.24,0,0,1,.36,1.3c1.07,0,2.36-.44,4.9-1.57a17.74,17.74,0,0,0,5.09-3.4A18.64,18.64,0,0,1,35.42,13C36.27,12.62,37.7,12.07,37.59,11.06Z"/><path class="cls-8" d="M17.18,15.82a13.92,13.92,0,0,0,6.65-3.43,16,16,0,0,0,3.64-4.6A29,29,0,0,0,29.29,4c.45-1.43,1.35-2.29,1-2.7"/><path d="M24.74,16.84a.42.42,0,0,1-.52-.24.36.36,0,0,1,.23-.46.42.42,0,0,1,.5.22A.35.35,0,0,1,24.74,16.84Z"/><path d="M26.53,15.56a.36.36,0,0,1-.45-.2.31.31,0,0,1,.2-.4.34.34,0,0,1,.43.19A.29.29,0,0,1,26.53,15.56Z"/><path d="M28.08,14a.35.35,0,0,1-.45-.2.31.31,0,0,1,.21-.4.35.35,0,0,1,.42.19A.29.29,0,0,1,28.08,14Z"/><path d="M30.61,10.87a.36.36,0,0,1-.45-.2.31.31,0,0,1,.2-.4.34.34,0,0,1,.43.19A.3.3,0,0,1,30.61,10.87Z"/><path d="M29.44,12.61a.36.36,0,0,1-.45-.2.31.31,0,0,1,.2-.4.34.34,0,0,1,.43.19A.29.29,0,0,1,29.44,12.61Z"/><path d="M32.81,4.33a.36.36,0,0,1-.45-.2.31.31,0,0,1,.2-.4.35.35,0,0,1,.43.18A.3.3,0,0,1,32.81,4.33Z"/><path d="M32.61,6.62a.37.37,0,0,1-.45-.2A.33.33,0,0,1,32.37,6a.35.35,0,0,1,.42.19A.3.3,0,0,1,32.61,6.62Z"/><path d="M31.87,8.85a.35.35,0,0,1-.44-.2.31.31,0,0,1,.2-.4.35.35,0,0,1,.43.18A.31.31,0,0,1,31.87,8.85Z"/><path class="cls-5" d="M25.28,16.22a.79.79,0,0,0-.94-.41.72.72,0,0,0-.48.89.79.79,0,0,0,1,.46A.65.65,0,0,0,25.28,16.22Zm-.54.62a.42.42,0,0,1-.52-.24.36.36,0,0,1,.23-.46.42.42,0,0,1,.5.22A.35.35,0,0,1,24.74,16.84Z"/><path class="cls-5" d="M27,15a.68.68,0,0,0-.82-.35.62.62,0,0,0-.41.77.69.69,0,0,0,.89.4A.57.57,0,0,0,27,15Zm-.47.54a.36.36,0,0,1-.45-.2.31.31,0,0,1,.2-.4.34.34,0,0,1,.43.19A.29.29,0,0,1,26.53,15.56Z"/><path class="cls-5" d="M28.55,13.5a.69.69,0,0,0-.82-.36.62.62,0,0,0-.41.77.69.69,0,0,0,.89.41A.57.57,0,0,0,28.55,13.5Zm-.47.53a.35.35,0,0,1-.45-.2.31.31,0,0,1,.21-.4.35.35,0,0,1,.42.19A.29.29,0,0,1,28.08,14Z"/><path class="cls-5" d="M29.91,12.07a.68.68,0,0,0-.82-.35.62.62,0,0,0-.41.77.69.69,0,0,0,.89.4A.57.57,0,0,0,29.91,12.07Zm-.47.54a.36.36,0,0,1-.45-.2.31.31,0,0,1,.2-.4.34.34,0,0,1,.43.19A.29.29,0,0,1,29.44,12.61Z"/><path class="cls-5" d="M31.08,10.33a.68.68,0,0,0-.82-.35.63.63,0,0,0-.42.77.7.7,0,0,0,.9.4A.57.57,0,0,0,31.08,10.33Zm-.47.54a.36.36,0,0,1-.45-.2.31.31,0,0,1,.2-.4.34.34,0,0,1,.43.19A.3.3,0,0,1,30.61,10.87Z"/><path class="cls-5" d="M32.35,8.31A.7.7,0,0,0,31.53,8a.64.64,0,0,0-.42.78.71.71,0,0,0,.9.4A.57.57,0,0,0,32.35,8.31Zm-.48.54a.35.35,0,0,1-.44-.2.31.31,0,0,1,.2-.4.35.35,0,0,1,.43.18A.31.31,0,0,1,31.87,8.85Z"/><path class="cls-5" d="M33.08,6.08a.69.69,0,0,0-.82-.36.63.63,0,0,0-.41.78.7.7,0,0,0,.89.4A.57.57,0,0,0,33.08,6.08Zm-.47.54a.37.37,0,0,1-.45-.2A.33.33,0,0,1,32.37,6a.35.35,0,0,1,.42.19A.3.3,0,0,1,32.61,6.62Z"/><path class="cls-5" d="M33.28,3.79a.68.68,0,0,0-.82-.35.62.62,0,0,0-.41.77.69.69,0,0,0,.89.4A.57.57,0,0,0,33.28,3.79Zm-.47.54a.36.36,0,0,1-.45-.2.31.31,0,0,1,.2-.4.35.35,0,0,1,.43.18A.3.3,0,0,1,32.81,4.33Z"/><path class="cls-5" d="M31.43,1.16A18.06,18.06,0,0,0,33.61.39,2.57,2.57,0,0,1,34.74,0,2.32,2.32,0,0,1,36,.39c.41.21.88.38.39.83-.73.67-2.55.58-3,.58S32.09,1.18,31.43,1.16Z"/><path class="cls-5" d="M36,.52A2.41,2.41,0,0,0,34.74.17a2.57,2.57,0,0,0-1.13.35,13.29,13.29,0,0,1-1.9.68,1.83,1.83,0,0,1,.67.19c.66-.43,1.22.17,1.89.22V1.5c.23,0,.42.17.63.22a3,3,0,0,0,1.37-.54C36.67.83,36.37.73,36,.52Z"/><path class="cls-2" d="M34.27,1.61C33.6,1.56,33,1,32.38,1.39a3.57,3.57,0,0,0,1,.47,8,8,0,0,0,1.51-.14c-.21-.05-.4-.22-.63-.22Z"/><path class="cls-1" d="M22.06,20.39c-1.85.27-5,1.05-7.47-.61-2.16-1.46,1.44-3.19,2.17-3.87C17.76,15.62,22.09,17.9,22.06,20.39Z"/><path d="M18.36,21.16a7,7,0,0,1-3.87-.94,1.8,1.8,0,0,1-1-1.28c0-.52.64-1,.89-1.19l-.07.08a1.48,1.48,0,0,0-.47,1.09c0,.33.3.67.82,1,1.95,1.27,4.86.88,6.79.62l.57-.08A7,7,0,0,0,24.22,20c.16-.06.34-.14.59-.22a22.11,22.11,0,0,0,5.9-3.16l1.54-1.29c.62-.53.93-.79,1.51-1.26a10.92,10.92,0,0,1,1.8-1.1c1.24-.64,2-1.15,2-1.71,0-.08.06,0,.06.15-.06.76-.88,1.29-2,1.86A12.22,12.22,0,0,0,34,14.33l-1.51,1.25-1.53,1.29a22.55,22.55,0,0,1-6,3.27l-.63.22a8.44,8.44,0,0,1-2.27.46l-.56.07a24.06,24.06,0,0,1-3.16.27Z"/><path class="cls-2" d="M13.47,18.94a1.77,1.77,0,0,0-.43,1,1.64,1.64,0,0,0,0,.88c.1.3.27,1,.29,1a2.5,2.5,0,0,0,.23.8,1.33,1.33,0,0,0,.6.67,6.6,6.6,0,0,0,4.18,1.11,19.16,19.16,0,0,0,6.09-.95,26.21,26.21,0,0,0,3.32-1.32c0-.65-.09-2.28-.14-2.47s-.29,0-.29,0a14.24,14.24,0,0,1-4.16,1.56c-2.18.34-5.47.86-7.39.22-2.32-.77-2.58-1.75-2.26-2.4Z"/><path class="cls-1" d="M13.47,19.24a1.77,1.77,0,0,0-.43,1,1.64,1.64,0,0,0,0,.88c.1.3.27,1,.29,1a4.24,4.24,0,0,0,.35.81c.15.22,0,.12.48.45a6.55,6.55,0,0,0,4.18,1.1,19.16,19.16,0,0,0,6.09-.95,28.59,28.59,0,0,0,3.32-1.31A21.14,21.14,0,0,0,27.61,20c0-.13-.29,0-.29,0a14.44,14.44,0,0,1-4.16,1.57c-2.18.33-5.47.85-7.39.21-2.32-.77-2.58-1.75-2.26-2.4Z"/><path class="cls-4" d="M22.51,20.36a0,0,0,0,1-.05,0h0s0,0,0,0l.09-.08a0,0,0,0,1,0,0h0a0,0,0,0,1,0,0Zm.26-.22a0,0,0,0,1,0,0h0a0,0,0,0,1,0,0l.09-.07h0a0,0,0,0,1,0,0Zm.27-.23s0,0,0,0a0,0,0,0,1,0,0l.09-.08s0,0,0,0h0a0,0,0,0,1,0,0Zm.26-.22h0s0,0,0,0l.09-.08a0,0,0,0,1,0,0h0s0,0,0,.05Zm.27-.22a0,0,0,0,1,0,0,0,0,0,0,1,0,0l.09-.07s0,0,0,0,0,0,0,0Zm.27-.22s0,0,0,0h0a0,0,0,0,1,0,0l.09-.07h0a0,0,0,0,1,0,0Zm.27-.22s0,0,0,0h0a0,0,0,0,1,0,0l.09-.07s0,0,0,0a0,0,0,0,1,0,0Zm.27-.22s0,0,0,0h0a0,0,0,0,1,0,0l.09-.07s0,0,0,0a0,0,0,0,1,0,0Zm.27-.22a0,0,0,0,1,0,0h0a0,0,0,0,1,0,0l.09-.07h.05s0,0,0,0Zm.27-.22h0s0,0,0-.05l.09-.07a0,0,0,0,1,0,0h0a0,0,0,0,1,0,0Zm.27-.22a0,0,0,0,1,0,0h0s0,0,0,0l.09-.07h0a0,0,0,0,1,0,0Zm.28-.21a0,0,0,0,1,0,0h0a0,0,0,0,1,0,0l.09-.07s0,0,.05,0h0a.06.06,0,0,1,0,0Zm.26-.2,0,0a0,0,0,0,1,0,0l0,0,.07-.06h0s0,0,0,0l-.08.06Zm.29-.23h0s0,0,0,0l.09-.08s0,0,0,0h0a0,0,0,0,1,0,0Zm.27-.22s0,0,0,0a0,0,0,0,1,0,0l.09-.07h0s0,0,0,0Zm.27-.21s0,0,0,0a0,0,0,0,1,0,0l.08-.07a0,0,0,0,1,.05,0s0,0,0,0Zm.27-.23h0a0,0,0,0,1,0,0l.09-.08s0,0,0,0a0,0,0,0,1,0,0Zm.27-.22s0,0,0,0h0a0,0,0,0,1,0-.05l.09-.07a0,0,0,0,1,0,0,0,0,0,0,1,0,0Zm.26-.23a0,0,0,0,1,0,0h0a0,0,0,0,1,0,0l.09-.08a0,0,0,0,1,0,0h0s0,0,0,0Zm.26-.23h0a0,0,0,0,1,0,0l.09-.08a0,0,0,0,1,0,0,0,0,0,0,1,0,0Zm.26-.23h0s0,0,0,0l.09-.08h0a0,0,0,0,1,0,0Zm.26-.24a0,0,0,0,1,0,0h0a0,0,0,0,1,0,0l.08-.08h0s0,0,0,0Zm.25-.24a0,0,0,0,1,0,0,0,0,0,0,1,0,0l.09-.08h0a0,0,0,0,1,0,0Zm.25-.24h0a0,0,0,0,1,0,0l.08-.08h.05a0,0,0,0,1,0,0Zm.25-.24h0a0,0,0,0,1,0,0l.08-.09h0s0,0,0,0Zm.24-.25h0a0,0,0,0,1,0,0l.08-.09h0a0,0,0,0,1,0,0Zm.24-.25h0a0,0,0,0,1,0,0l.08-.09h0a0,0,0,0,1,0,0Zm.24-.26h0a0,0,0,0,1,0,0h0l0,0,0,0h0a0,0,0,0,1,0,0l0,0,0,0Zm.23-.27a0,0,0,0,1,0,0h0s0,0,0,0l.08-.09s0,0,0,0h0a0,0,0,0,1,0,0Zm.22-.26h0a0,0,0,0,1,0,0l.07-.09s0,0,0,0a0,0,0,0,1,0,0Zm.22-.28s0,0,0,0h0a0,0,0,0,1,0,0l.07-.1h0s0,0,0,0Zm.21-.28a0,0,0,0,1,0,0h0a0,0,0,0,1,0,0l.07-.1h0a0,0,0,0,1,0,0Zm.2-.28s0,0,0,0h0s0,0,0,0l.07-.1h0s0,0,0,0Zm.2-.28h0s0,0,0,0l.07-.09a0,0,0,0,1,0,0h0s0,0,0,0Zm.2-.29h0s0,0,0,0l.07-.1s0,0,0,0a0,0,0,0,1,0,0Zm.19-.29s0,0,0,0a.06.06,0,0,1,0,0l.07-.1s0,0,0,0,0,0,0,0Zm.19-.29s0,0,0,0,0,0,0,0l.07-.09s0,0,0,0h0s0,0,0,0Zm.19-.3a0,0,0,0,1,0,0h0s0,0,0,0l.06-.1s0,0,0,0a0,0,0,0,1,0,0Zm.18-.29h0s0,0,0,0l.06-.09a0,0,0,0,1,0,0h0s0,0,0,0Zm.18-.3h0s0,0,0,0l.06-.1a0,0,0,0,1,0,0s0,0,0,0Zm.18-.3h0a0,0,0,0,1,0,0l.06-.1s0,0,0,0a0,0,0,0,1,0,0Zm.17-.31s0,0,0,0,0,0,0,0l0-.1s0,0,0,0,0,0,0,0Zm.16-.31s0,0,0,0,0,0,0,0l.05-.11s0,0,0,0h0s0,0,0,0Zm.16-.31s0,0,0,0,0,0,0,0l0-.1a0,0,0,1,1,.06,0Zm.13-.32a0,0,0,0,1,0,0s0,0,0,0l0-.11a0,0,0,0,1,0,0s0,0,0,0ZM33,8.93s0,0,0,0,0,0,0,0l0-.11s0,0,0,0a0,0,0,0,1,0,0Zm.13-.32s0,0,0,0,0,0,0,0l0-.11s0,0,0,0h0a.05.05,0,0,1,0,0Zm.12-.33,0,0h0s0,0,0,0l0-.11,0,0h0s0,0,0,0ZM33.31,8s0,0,0,0h0s0,0,0,0l0-.11,0,0a.05.05,0,0,1,0,0Zm.11-.33,0,0h0a.05.05,0,0,1,0,0l0-.11,0,0h0s0,0,0,0Zm.1-.33a0,0,0,0,1,0,0h0s0,0,0,0l0-.11s0,0,0,0,0,0,0,0ZM33.61,7l0,0s0,0,0,0l0-.11s0,0,0,0h0s0,0,0,0Zm.07-.35a0,0,0,0,1,0,0s0,0,0,0V6.48s0,0,0,0h0a0,0,0,0,1,0,0V6.6Zm0-.34s0,0,0,0h0s0,0,0,0V6.13s0,0,0,0h0a0,0,0,0,1,0,0Zm0-.35s0,0,0,0h0a0,0,0,0,1,0,0l0-.11a0,0,0,0,1,0,0h0s0,0,0,0Zm0-.35a0,0,0,0,1,0,0h0a0,0,0,0,1,0,0l0-.12a0,0,0,0,1,0,0h0s0,0,0,0Zm0-.34s0,0,0,0h0a0,0,0,0,1,0,0V5.09l0,0h0s0,0,0,0Zm0-.35a0,0,0,0,1,0,0h0s0,0,0,0V4.75a0,0,0,0,1,0,0h0a0,0,0,0,1,0,0Zm0-.35a0,0,0,0,1,0,0h0s0,0,0,0V4.4s0,0,0,0h0a0,0,0,0,1,0,0Zm0-.34s0,0,0,0h0a0,0,0,0,1,0,0l0-.12s0,0,0,0,0,0,0,0Zm0-.35a0,0,0,0,1,0,0s0,0,0,0V3.71s0,0,0,0,0,0,0,0Zm0-.35a0,0,0,1,1-.06,0V3.36s0,0,0,0a0,0,0,0,1,0,0Zm0-.34s0,0,0,0,0,0,0,0V3s0,0,0,0a0,0,0,0,1,0,0Zm0-.35a0,0,0,0,1,0,0s0,0,0,0V2.67s0,0,0,0,0,0,0,0Zm0-.35s0,0,0,0,0,0,0,0V2.32a0,0,0,0,1,0,0h0s0,0,0,0Zm0-.35a0,0,0,0,1,0,0h0a0,0,0,0,1,0,0V2s0,0,0,0a0,0,0,0,1,0,0Z"/><path class="cls-4" d="M22.27,20.22a0,0,0,0,1,0,0h0a0,0,0,0,1,0,0l.09-.07a0,0,0,0,1,0,0h0a0,0,0,0,1,0,0Zm.26-.23a0,0,0,0,1,0,0h0a0,0,0,0,1,0,0l.08-.08s0,0,0,0a0,0,0,0,1,0,0Zm.27-.22a0,0,0,0,1,0,0,0,0,0,0,1,0,0l.09-.07h0a0,0,0,0,1,0,0Zm.27-.23s0,0-.05,0,0,0,0,0l.09-.07h0a0,0,0,0,1,0,0Zm.26-.22h0a0,0,0,0,1,0,0l.09-.08s0,0,0,0a0,0,0,0,1,0,0Zm.27-.22h0s0,0,0,0l.09-.08a0,0,0,0,1,0,0s0,0,0,0Zm.27-.22a0,0,0,0,1,0,0h0s0,0,0,0l.09-.08s0,0,0,0,0,0,0,0Zm.27-.22a0,0,0,0,1,0,0h0s0,0,0,0l.09-.08a0,0,0,0,1,0,0s0,0,0,0Zm.27-.22h0a0,0,0,0,1,0,0l.09-.08s0,0,0,0a0,0,0,0,1,0,0Zm.27-.22a0,0,0,0,1,0,0s0,0,0,0l.09-.07h0a0,0,0,0,1,0,0ZM25,18s0,0,0,0h0a0,0,0,0,1,0,0l.09-.07a0,0,0,0,1,0,0h0a0,0,0,0,1,0,0Zm.27-.22a0,0,0,0,1,0,0h0a0,0,0,0,1,0,0l.1-.07h0s0,0,0,0Zm.26-.2s0,0,0,0,0,0,0,0l0,0,.07-.06s0,0,0,0h0a0,0,0,0,1,0,0l-.08.06Zm.29-.22s0,0,0,0h0a0,0,0,0,1,0,0l.09-.07a0,0,0,0,1,0,0h0s0,0,0,0Zm.27-.22a0,0,0,0,1,0,0,0,0,0,0,1,0,0l.09-.07a0,0,0,0,1,0,0,0,0,0,0,1,0,0Zm.27-.22a0,0,0,0,1,0,0s0,0,0,0l.09-.08a0,0,0,1,1,0,.05Zm.27-.22a0,0,0,0,1,0-.05l.08-.07a0,0,0,0,1,.05,0s0,0,0,0Zm.27-.23h0a0,0,0,0,1,0,0l.09-.08a0,0,0,0,1,0,0,0,0,0,0,1,0,0Zm.26-.22a0,0,0,0,1,0,0h0a0,0,0,0,1,0,0l.09-.07a0,0,0,0,1,0,0h0a0,0,0,0,1,0,0Zm.26-.23a0,0,0,0,1,0,0h0a0,0,0,0,1,0,0l.08-.07s0,0,0,0a0,0,0,0,1,0,0Zm.26-.24a0,0,0,0,1,0,0,0,0,0,0,1,0,0l.09-.08h0s0,0,0,0Zm.26-.23h0a0,0,0,0,1,0-.05l.09-.07h0a0,0,0,0,1,0,0Zm.25-.24h0a0,0,0,0,1,0,0l.09-.08h0a0,0,0,0,1,0,0Zm.25-.24h0a0,0,0,0,1,0,0l.09-.08a0,0,0,0,1,0,0,0,0,0,0,1,0,0Zm.25-.25h0a0,0,0,0,1,0,0l.08-.08a0,0,0,0,1,0,0,0,0,0,0,1,0,0Zm.25-.25s0,0,0,0h0a0,0,0,0,1,0,0l.08-.08a0,0,0,0,1,0,0h0a0,0,0,0,1,0,0Zm.24-.25h0a0,0,0,0,1,0,0l.08-.08a0,0,0,0,1,0,0s0,0,0,.05Zm.23-.26s0,0,0,0a0,0,0,0,1,0-.05h0l0,0,0,0s0,0,0,0h0s0,0,0,0l0,0,0,.05Zm.23-.26h0a0,0,0,0,1,0,0l.07-.09h0s0,0,0,0Zm.22-.27a0,0,0,0,1,0,0h0s0,0,0,0l.07-.09h0s0,0,0,0Zm.22-.27h0a0,0,0,0,1,0,0l.07-.09s0,0,0,0a0,0,0,0,1,0,0Zm.21-.28h0s0,0,0,0l.07-.09s0,0,0,0,0,0,0,0Zm.2-.28h0a0,0,0,0,1,0,0l.06-.09a0,0,0,0,1,0,0h0a0,0,0,0,1,0,0Zm.2-.29s0,0,0,0h0a0,0,0,0,1,0,0l.06-.1h0s0,0,0,0Zm.2-.29a0,0,0,0,1,0,0h0s0,0,0,0l.07-.1h0s0,0,0,0Zm.2-.29a0,0,0,1,1-.05,0l.06-.1a0,0,0,0,1,0,0s0,0,0,0Zm.19-.29s0,0,0,0a0,0,0,0,1,0,0l.06-.1s0,0,0,0h0s0,0,0,0Zm.18-.29h0s0,0,0,0l.06-.1a0,0,0,0,1,0,0s0,0,0,0Zm.19-.3s0,0,0,0h0a0,0,0,0,1,0,0l.06-.1s0,0,0,0h0a.06.06,0,0,1,0,0Zm.17-.3s0,0,0,0,0,0,0,0l.05-.1s0,0,0,0a0,0,0,0,1,0,0Zm.18-.3s0,0,0,0h0s0,0,0,0l.06-.1s0,0,0,0,0,0,0,0Zm.17-.3h0s0,0,0,0l.06-.1s0,0,0,0a0,0,0,0,1,0,0Zm.17-.31s0,0,0,0,0,0,0,0l.06-.1s0,0,0,0h0a0,0,0,0,1,0,0Zm.15-.32s0,0,0,0,0,0,0,0l0-.11s0,0,0,0,0,0,0,0Zm.14-.32a0,0,0,0,1,0,0s0,0,0,0l0-.11a0,0,0,0,1,0,0s0,0,0,0Zm.12-.32a0,0,0,0,1,0,0s0,0,0,0l0-.11s0,0,0,0a.05.05,0,0,1,0,0Zm.13-.33s0,0,0,0a.05.05,0,0,1,0,0l0-.11s0,0,0,0h0s0,0,0,0ZM33,8.13s0,0,0,0h0s0,0,0,0l0-.11s0,0,0,0h0s0,0,0,0Zm.11-.32a0,0,0,0,1,0,0h0s0,0,0,0l0-.11s0,0,0,0,0,0,0,0Zm.11-.34s0,0,0,0h0s0,0,0,0l0-.11s0,0,0,0h0s0,0,0,0Zm.1-.33s0,0,0,0h0s0,0,0,0l0-.11,0,0s0,0,0,0Zm.09-.34s0,0,0,0,0,0,0,0l0-.11s0,0,0,0h0a.05.05,0,0,1,0,0Zm.07-.34s0,0,0,0,0,0,0,0V6.33l0,0h0a0,0,0,0,1,0,0v.12Zm0-.35a0,0,0,0,1,0,0,.05.05,0,0,1,0,0V6a0,0,0,0,1,.06,0Zm0-.35a0,0,0,0,1,0,0,0,0,0,0,1,0,0l0-.12s0,0,0,0,0,0,0,0Zm0-.34,0,0a0,0,0,0,1,0,0V5.29l0,0a0,0,0,0,1,0,0Zm0-.35a0,0,0,0,1,0,0s0,0,0,0V5a0,0,0,0,1,0,0,0,0,0,0,1,0,0Zm0-.35a0,0,0,0,1-.06,0V4.6s0,0,0,0a0,0,0,0,1,0,0Zm0-.34s0,0,0,0,0,0,0,0V4.25s0,0,0,0a0,0,0,0,1,0,0Zm0-.35s0,0,0,0a0,0,0,0,1,0,0V3.91a0,0,0,0,1,.06,0Zm0-.35a0,0,0,0,1,0,0h0s0,0,0,0V3.56a0,0,0,0,1,0,0h0s0,0,0,0Zm0-.35a0,0,0,0,1,0,0h0a0,0,0,0,1,0,0V3.21l0,0h0a0,0,0,0,1,0,0Zm0-.34s0,0,0,0h0a0,0,0,0,1,0,0V2.87s0,0,0,0h0s0,0,0,0Zm0-.35a0,0,0,0,1,0,0h0s0,0,0,0V2.52a0,0,0,0,1,0,0h0s0,0,0,0Zm0-.35s0,0,0,0h0s0,0,0,0V2.17a0,0,0,0,1,0,0s0,0,0,0Zm0-.35a0,0,0,0,1,0,0h0s0,0,0,0v0s0,0,0,0h0s0,0,0,0Z"/><path class="cls-4" d="M22.4,20.29a0,0,0,0,1-.06,0v-.12a0,0,0,0,1,0,0h0s0,0,0,0Zm0-.35a0,0,0,0,1,0,0h0s0,0,0,0v-.12a0,0,0,0,1,0,0h0a0,0,0,0,1,0,0Zm0-.35a0,0,0,0,1,0,0h0a0,0,0,0,1,0,0v-.12l0,0h0a0,0,0,0,1,0,0Zm0-.35s0,0,0,0h0a0,0,0,0,1,0,0v-.11a0,0,0,0,1,0,0h0a0,0,0,0,1,0,0Zm0-.35a0,0,0,0,1,0,0h0a0,0,0,0,1,0,0v-.11a0,0,0,0,1,0,0h0a0,0,0,0,1,0,0Zm0-.34s0,0,0,0h0s0,0,0,0v-.12a0,0,0,0,1,0,0h0a0,0,0,0,1,0,0Zm0-.35a0,0,0,0,1,0,0,0,0,0,0,1,0,0v-.12a0,0,0,1,1,.06,0Zm0-.35a0,0,0,0,1,0,0h0a0,0,0,0,1,0,0v-.12a0,0,0,0,1,0,0h0s0,0,0,0Zm0-.35a0,0,0,0,1,0,0h0s0,0,0,0v-.12s0,0,0,0,0,0,0,0Zm0-.34s0,0,0,0,0,0,0,0V17s0,0,0,0a.05.05,0,0,1,0,0Zm.08-.34,0,0h0v0l0-.1s0,0,0,0,0,0,0,0Zm.12-.32s0,0,0,0,0,0,0,0l0-.11s0,0,0,0h0s0,0,0,0Zm.17-.3a0,0,0,0,1,0,0h0s0,0,0,0l.06-.1a0,0,0,0,1,0,0s0,0,0,0Zm.2-.28a0,0,0,0,1,0,0h0s0,0,0,0l.08-.09a0,0,0,0,1,0,0h0a0,0,0,0,1,0,0Zm.23-.25h0a0,0,0,0,1,0,0l.09-.08a0,0,0,0,1,0,0,0,0,0,0,1,0,0Zm.26-.23a0,0,0,0,1,0,0,0,0,0,0,1,0,0l.09-.07h0a0,0,0,0,1,0,0Zm.25-.21s0,0,0,0h0l0,0,0,0,.08-.07h0s0,0,0,0l-.09.07Zm.28-.24h0a0,0,0,0,1,0,0l.08-.08a0,0,0,0,1,0,0,0,0,0,0,1,0,0Zm.26-.23h0a0,0,0,0,1,0,0l.08-.08h0a0,0,0,0,1,0,0Zm.26-.23h0a0,0,0,0,1,0,0l.09-.07h0a0,0,0,0,1,0,0Zm.26-.24a0,0,0,0,1,0,0,0,0,0,0,1,0,0l.08-.08H25a0,0,0,0,1,0,0Zm.25-.24s0,0,0,0h0a0,0,0,0,1,0,0l.09-.08h0a0,0,0,0,1,0,.05Zm.26-.23h0s0,0,0,0l.09-.08h0a0,0,0,0,1,0,0Zm.26-.24h0s0,0,0,0l.08-.08a0,0,0,0,1,0,0s0,0,0,0Zm.25-.23h0a0,0,0,0,1,0,0l.08-.08h0a0,0,0,0,1,0,0Zm.26-.23a0,0,0,0,1,0,0h0s0,0,0,0l.08-.08h.05s0,0,0,0Zm.27-.23h0a0,0,0,0,1,0,0l.09-.08h0a0,0,0,0,1,0,.05Zm.26-.23h0a0,0,0,0,1,0,0l.09-.08h0a0,0,0,0,1,0,0Zm.26-.23a0,0,0,0,1,0,0h0a0,0,0,0,1,0,0L27,12.3a0,0,0,0,1,0,0,0,0,0,0,1,0,0Zm.25-.24h0a0,0,0,0,1,0,0l.09-.08h0a0,0,0,0,1,0,0Zm.25-.24a0,0,0,0,1,0,0s0,0,0,0l.09-.09h0a0,0,0,0,1,0,0Zm.25-.25a0,0,0,0,1,0,0h0a0,0,0,0,1,0,0l.08-.08h0a0,0,0,0,1,0,0Zm.25-.25s0,0,0,0h0a0,0,0,0,1,0,0l.08-.08H28a0,0,0,0,1,0,0Zm.24-.25a0,0,0,0,1,0,0h0a0,0,0,0,1,0,0l.08-.08a0,0,0,0,1,0,0h0s0,0,0,0Zm.23-.26h0a0,0,0,0,1,0,0l.07-.08a0,0,0,0,1,0,0s0,0,0,0Zm.22-.26h0a.06.06,0,0,1,0,0l0,0,.05-.06h0a0,0,0,0,1,0,0l0,.06Zm.21-.29s0,0,0,0a0,0,0,0,1,0,0l.07-.1h0a0,0,0,0,1,0,0Zm.21-.28s0,0,0,0h0a0,0,0,0,1,0,0l.07-.1h0s0,0,0,0Zm.2-.28h0s0,0,0,0l.07-.09a0,0,0,0,1,0,0h0a.06.06,0,0,1,0,0Zm.2-.29s0,0,0,0a0,0,0,0,1,0,0l.06-.1s0,0,0,0a0,0,0,0,1,0,0Zm.19-.29s0,0,0,0h0s0,0,0,0l.07-.1s0,0,0,0a0,0,0,0,1,0,0ZM29.85,9h0s0,0,0,0l.06-.09a0,0,0,0,1,0,0h0s0,0,0,0Zm.18-.3s0,0,0,0,0,0,0,0l.06-.1s0,0,0,0,0,0,0,0Zm.17-.31s0,0,0,0h0s0,0,0,0l0,0,0-.06a0,0,0,0,1,0,0h0s0,0,0,0l0,.06ZM30.35,8a0,0,0,0,1-.06,0l.05-.11s0,0,0,0h0s0,0,0,0Zm.14-.32s0,0,0,0h0s0,0,0,0l.05-.11a0,0,0,0,1,0,0s0,0,0,0Zm.13-.32,0,0a0,0,0,0,1,0,0l0-.11,0,0a0,0,0,0,1,0,0Zm.12-.33s0,0,0,0,0,0,0,0l0-.11s0,0,0,0,0,0,0,0Zm.11-.33s0,0,0,0,0,0,0,0l0-.11,0,0h0s0,0,0,0Zm.09-.33,0,0s0,0,0,0l0-.11s0,0,0,0h0s0,0,0,0ZM31,6.05a0,0,0,0,1,0,0h0s0,0,0,0l0-.11s0,0,0,0h0s0,0,0,0Zm.05-.34,0,0h0a0,0,0,0,1,0,0V5.59s0,0,0,0,0,0,0,0Zm0-.35a0,0,0,0,1,0,0s0,0,0,0V5.24a0,0,0,0,1,0,0h0s0,0,0,0Zm0-.35a0,0,0,0,1,0,0h0a0,0,0,0,1,0,0V4.89l0,0a0,0,0,0,1,0,0Zm0-.34,0,0a0,0,0,0,1,0,0V4.55a0,0,0,0,1,0,0h0a0,0,0,0,1,0,0Zm0-.35a0,0,0,0,1,0,0h0a0,0,0,0,1,0,0V4.2a0,0,0,1,1,.06,0Zm0-.35a0,0,0,0,1,0,0h0a0,0,0,0,1,0,0v-.1a0,0,0,0,1,0,0h0a0,0,0,0,1,0,0Z"/><path class="cls-4" d="M22.78,20.23a0,0,0,1,1-.06,0v-.12a0,0,0,0,1,0,0l0,0Zm0-.35a0,0,0,0,1,0,0h0a0,0,0,0,1,0,0v-.11h0a0,0,0,0,1,0,0h0a0,0,0,0,1,0,0h0v.11Zm0-.32a0,0,0,0,1,0,0v-.11a0,0,0,0,1,0,0h0a0,0,0,0,1,0,0v.11a0,0,0,0,1,0,0Zm0-.34a0,0,0,0,1,0,0v-.12a0,0,0,0,1,0,0h0a0,0,0,0,1,0,0v.12l0,0Zm0-.35a0,0,0,0,1,0,0v-.12a0,0,0,0,1,0,0h0s0,0,0,0v.12a0,0,0,0,1,0,0Zm0-.35s0,0,0,0v-.11h0s0,0,0,0h0s0,0,0,0h0v.11a0,0,0,0,1,0,0Zm0-.38s0,0,0,0h0a0,0,0,0,1,0,0V18a0,0,0,0,1,0,0h0a0,0,0,0,1,0,0Zm0-.34,0,0h0a0,0,0,0,1,0,0v-.11a0,0,0,0,1,0,0s0,0,0,0Zm0-.35a0,0,0,0,1,0,0h0s0,0,0,0v-.11a0,0,0,0,1,0,0h0s0,0,0,0Zm.06-.34s0,0,0,0h0s0,0,0,0l0-.11v0h0l0,0v0Zm.11-.32s0,0,0,0h0s0,0,0,0l0-.1a0,0,0,0,1,0,0h0a0,0,0,0,1,0,0Zm.15-.31s0,0,0,0,0,0,0,0l.06-.1s0,0,0,0a0,0,0,0,1,0,0Zm.19-.29h0s0,0,0,0l.07-.1h0a0,0,0,0,1,0,0Zm.22-.27s0,0,0,0h0s0,0,0,0l.08-.08a0,0,0,0,1,0,0,0,0,0,0,1,0,0Zm.24-.24h0s0,0,0,0l.09-.08h0a0,0,0,0,1,0,0Zm.26-.23a0,0,0,0,1,0,0s0,0,0,0l.08-.07,0,0,0,0v0l0,0Zm.28-.22h-.05s0,0,0,0l.09-.07h0a0,0,0,0,1,0,0Zm.27-.22h-.05s0,0,0,0l.09-.07h0a0,0,0,0,1,0,0Zm.26-.22a0,0,0,0,1,0,0,0,0,0,0,1,0,0l.09-.08a0,0,0,0,1,0,0h0a0,0,0,0,1,0,0Zm.27-.22a0,0,0,0,1,0,0h0a0,0,0,0,1,0,0l.09-.07h0a0,0,0,0,1,0,0Zm.27-.23h-.05s0,0,0,0l.09-.08h0s0,0,0,0Zm.26-.23h0a0,0,0,0,1,0,0L25.7,14a0,0,0,0,1,0,0,0,0,0,0,1,0,0Zm.26-.23h0a0,0,0,0,1,0,0l.09-.08h0s0,0,0,0Zm.26-.23h0a0,0,0,0,1,0,0l.09-.08h0a0,0,0,0,1,0,0Zm.26-.24h-.05a0,0,0,0,1,0,0l.08-.08h0a0,0,0,0,1,0,0Zm.25-.24s0,0,0,0h0a0,0,0,0,1,0,0l.08-.08a0,0,0,0,1,0,0h0a0,0,0,0,1,0,0Zm.25-.24h0a0,0,0,0,1,0,0l.08-.08h0a0,0,0,0,1,0,0Zm.25-.24h0a0,0,0,0,1,0,0l.08-.08h0a0,0,0,0,1,0,0Zm.25-.24a0,0,0,0,1,0,0,0,0,0,0,1,0,0l.08-.08h0a0,0,0,0,1,0,0Zm.25-.25s0,0,0,0a0,0,0,0,1,0,0l.08-.08h0a0,0,0,0,1,0,0Zm.24-.25a0,0,0,0,1,0,0,0,0,0,0,1,0,0l.08-.08h0s0,0,0,0Zm.25-.24h0s0,0,0-.05l.08-.08h.05a0,0,0,0,1,0,0Zm.24-.26s0,0,0,0h0a0,0,0,0,1,0,0l.08-.08h0a0,0,0,0,1,0,0Zm.23-.25a0,0,0,0,1,0,0,0,0,0,0,1,0,0l.08-.09h0a0,0,0,0,1,0,0Zm.23-.27s0,0,0,0a0,0,0,0,1,0,0l.07-.08a0,0,0,0,1,0,0h0a0,0,0,0,1,0,0Zm.22-.27h0a0,0,0,0,1,0,0l.07-.09a0,0,0,0,1,0,0,0,0,0,0,1,0,0Zm.2-.29a0,0,0,0,1,0,0s0,0,0,0l.07-.1h0s0,0,0,0Zm.2-.28h0s0,0,0,0l.07-.09s0,0,0,0h0a.06.06,0,0,1,0,0Zm.2-.29a0,0,0,0,1-.05,0,0,0,0,0,1,0,0l.06-.1s0,0,0,0h0s0,0,0,0Zm.19-.29h0a0,0,0,0,1,0,0l.06-.1s0,0,0,0h0a0,0,0,0,1,0,0Zm.19-.3a0,0,0,0,1,0,0s0,0,0,0l.06-.09a0,0,0,0,1,0,0s0,0,0,0Zm.18-.29s0,0,0,0,0,0,0,0l.06-.1s0,0,0,0h0a0,0,0,0,1,0,0Zm.18-.3s0,0,0,0,0,0,0,0l.06-.1s0,0,0,0h0a0,0,0,0,1,0,0Zm.18-.3s0,0,0,0a0,0,0,0,1,0,0l.06-.1s0,0,0,0,0,0,0,0ZM30.77,8s0,0,0,0,0,0,0,0l.05-.1s0,0,0,0,0,0,0,0Zm.15-.32a0,0,0,0,1,0,0h0a0,0,0,0,1,0,0l.05-.11s0,0,0,0,0,0,0,0Zm.13-.32,0,0h0a.08.08,0,0,1,0,0l0-.11,0,0a0,0,0,0,1,0,0ZM31.16,7l0,0h0s0,0,0,0l0-.11,0,0h0s0,0,0,0Zm.09-.34s0,0,0,0,0,0,0,0l0-.11a0,0,0,0,1,0,0s0,0,0,0Zm.07-.34,0,0a0,0,0,0,1,0,0l0-.12s0,0,0,0a0,0,0,0,1,0,0ZM31.37,6s0,0,0,0,0,0,0,0V5.89a0,0,0,0,1,0,0h0s0,0,0,0V6Zm0-.34s0,0,0,0,0,0,0,0V5.54s0,0,0,0a0,0,0,0,1,0,0Zm0-.35a0,0,0,0,1,0,0h0s0,0,0,0V5.2a0,0,0,0,1,0,0h0a0,0,0,0,1,0,0Zm0-.35a0,0,0,0,1,0,0,0,0,0,0,1,0,0V4.85s0,0,0,0a0,0,0,0,1,0,0Zm0-.35a0,0,0,0,1,0,0h0a0,0,0,0,1,0,0V4.51a0,0,0,0,1,0,0h0a0,0,0,0,1,0,0Zm0-.34,0,0a0,0,0,0,1,0,0V4.16a0,0,0,0,1,0,0h0s0,0,0,0Z"/><path class="cls-4" d="M32.17,2.29s0,0,0,0h0a0,0,0,0,1,0,0l.12-.05s0,0,0,0,0,0,0,0Zm.32-.1a.05.05,0,0,1,0,0h0s0,0,0,0h.11s0,0,0,0a0,0,0,0,1,0,0Zm.34,0s0,0,0,0h0s0,0,0,0h.12s0,0,0,0h0s0,0,0,0Zm.35,0s0,0,0,0h0s0,0,0,0h.12l0,0a0,0,0,0,1,0,0Zm.34,0a0,0,0,0,1,0,0h0a0,0,0,0,1,0,0h.12a0,0,0,0,1,0,0h0a0,0,0,0,1,0,0Zm.35,0s0,0,0,0h0a0,0,0,0,1,0,0H34a0,0,0,0,1,0,0s0,0,0,0Zm.35,0a0,0,0,0,1,0,0h0s0,0,0,0h.12a0,0,0,0,1,0,0s0,0,0,0Zm.35,0a0,0,0,0,1,0,0s0,0,0,0h.12s0,0,0,0h0s0,0,0,0Zm.34,0a0,0,0,0,1,0,0h0a0,0,0,0,1,0,0l.11,0a0,0,0,0,1,0,0s0,0,0,0Zm.35-.06s0,0,0,0h0a.08.08,0,0,1,0,0h0l.11,0s0,0,0,0a0,0,0,0,1,0,0Zm.34-.08s0,0,0,0,0,0,0,0l.11,0s0,0,0,0,0,0,0,0Zm.34-.1s0,0,0,0,0,0,0,0l.1,0s0,0,0,0,0,0,0,0Zm.32-.13s0,0,0,0h0s0,0,0,0l.09-.06s0,0,0,0,0,0,0,0Zm.29-.2a0,0,0,0,1,0,0,0,0,0,0,1,0,0l.06-.08s0,0,0,0,0,0,0,0Z"/><path class="cls-4" d="M32.59,2.46s0,0,0,0h0a0,0,0,0,1,0,0l.12,0s0,0,0,0h0a.05.05,0,0,1,0,0Zm.32-.07a0,0,0,1,1,0-.06H33s0,0,0,0,0,0,0,0Zm.35,0s0,0,0,0h0s0,0,0,0h.12s0,0,0,0,0,0,0,0Zm.35,0s0,0,0,0h0l0,0h.12a0,0,0,0,1,0,0h0a0,0,0,0,1,0,0Zm.34,0a0,0,0,0,1,0,0h0a0,0,0,0,1,0,0h.12a0,0,0,0,1,0,0h0a0,0,0,0,1,0,0Zm.35,0s0,0,0,0a0,0,0,0,1,0,0h.11s0,0,0,0,0,0,0,0Zm.35,0s0,0,0,0,0,0,0,0l.12,0a0,0,0,0,1,0,0h0a0,0,0,0,1,0,0Zm.35,0s0,0,0,0h0a0,0,0,0,1,0,0l.11,0,0,0s0,0,0,0Zm.34-.06a0,0,0,0,1,0,0v0h0l.11,0a.05.05,0,0,1,0,0s0,0,0,0Zm.34-.07,0,0h0s0,0,0,0l.11,0,0,0a.05.05,0,0,1,0,0ZM36,2s0,0,0,0,0,0,0,0l.11,0a.05.05,0,0,1,0,0s0,0,0,0Zm.34-.11s0,0,0,0h0a0,0,0,0,1,0,0l.09-.05s0,0,0,0a0,0,0,0,1,0,0Zm.26-.23a0,0,0,0,1,0,0h0a0,0,0,0,1,0,0l0,0s0,0,0,0h0a.05.05,0,0,1,0,0Z"/><path class="cls-4" d="M24.55,19.85a0,0,0,0,1,0,0h0a0,0,0,0,1,0,0v-.11a0,0,0,0,1,.06,0Zm0-.34a0,0,0,0,1,0,0,.05.05,0,0,1,0,0v-.11a0,0,0,0,1,0,0h0a0,0,0,0,1,0,0Zm0-.32a0,0,0,0,1,0,0v-.11s0,0,0,0h0a0,0,0,0,1,0,0v.12a0,0,0,0,1,0,0Zm0-.35s0,0,0,0l0-.1a.05.05,0,0,1,0,0s0,0,0,0l0,.12S24.54,18.84,24.53,18.84Zm-.17-.29h0l-.1,0s0,0,0,0,0,0,0,0l.12.05s0,0,0,0ZM24,18.47a0,0,0,0,1,0,0h-.12a0,0,0,0,1,0,0h0a0,0,0,0,1,0,0H24a0,0,0,0,1,0,0Zm-.35,0a0,0,0,0,1,0,0h-.12s0,0,0,0a0,0,0,0,1,0,0h.11a0,0,0,0,1,0,0Zm-.35,0a0,0,0,0,1,0,0h-.11a0,0,0,0,1,0,0,0,0,0,0,1,0,0h.12S23.33,18.43,23.33,18.45Zm-.35,0s0,0,0,0h-.11a0,0,0,0,1,0,0s0,0,0,0H23s0,0,0,0Zm-.34,0a0,0,0,0,1,0,0h-.12s0,0,0,0h0l0,0h.11A0,0,0,0,1,22.64,18.4Z"/><path class="cls-4" d="M24.09,20.08s0,0,0,0V20s0,0,0,0h0a0,0,0,0,1,0,0v0s0,0,0,0Zm.05-.3a0,0,0,0,1,0,0s0,0,0,0v-.12s0,0,0,0h0a0,0,0,0,1,0,0Zm0-.34s0,0,0,0a0,0,0,0,1,0,0v-.11a0,0,0,0,1,0,0h0a0,0,0,0,1,0,0Zm0-.32a0,0,0,0,1,0,0V19s0,0,0,0h0s0,0,0,0v.12s0,0,0,0Zm-.24-.25a0,0,0,0,1,0,0h0a0,0,0,0,1,0,0H24a0,0,0,0,1,0,0h0a0,0,0,0,1,0,0Zm-.21,0a0,0,0,0,1,0,0h-.11a0,0,0,0,1,0,0h0a0,0,0,0,1,0,0h.11a0,0,0,0,1,0,0Zm-.35,0s0,0,0,0h-.12a0,0,0,0,1,0,0h0a0,0,0,0,1,0,0h.12s0,0,0,0Zm-.34,0a0,0,0,0,1,0,0h-.12a0,0,0,0,1,0,0h0a0,0,0,0,1,0,0H23a0,0,0,0,1,0,0Zm-.35,0a0,0,0,0,1,0,0h-.12a0,0,0,0,1,0,0h0a0,0,0,0,1,0,0h.12a0,0,0,0,1,0,0Z"/><path class="cls-4" d="M18.46,15.11s0,0,0,0,0,0,0,0l.11,0s0,0,0,0,0,0,0,0ZM18.8,15l0,0s0,0,0,0l.11,0a.05.05,0,0,1,0,0s0,0,0,0Zm.34-.09s0,0,0,0,0,0,0,0l.12,0s0,0,0,0h0s0,0,0,0Zm.33-.1s0,0,0,0h0s0,0,0,0l.11,0s0,0,0,0,0,0,0,0Zm.33-.11s0,0,0,0h0s0,0,0,0l.1,0s0,0,0,0h0s0,0,0,0Zm.33-.13s0,0,0,0h0s0,0,0,0l.1-.05,0,0s0,0,0,0Zm.32-.14s0,0,0,0,0,0,0,0l.1-.05s0,0,0,0h0s0,0,0,0Zm.31-.15s0,0,0,0h0s0,0,0,0l.1,0a0,0,0,0,1,0,0h0s0,0,0,0Zm.31-.16a0,0,0,0,1,0,0,0,0,0,0,1,0,0l.1-.06s0,0,0,0h0a0,0,0,0,1,0,0Zm.3-.18a0,0,0,0,1,0,0h0s0,0,0,0l.1-.06s0,0,0,0h0s0,0,0,0Zm.3-.18s0,0,0,0,0,0,0,0l.1-.06a0,0,0,0,1,0,0h0s0,0,0,0Zm.29-.19a0,0,0,0,1,0,0h0s0,0,0,0l.1-.06a0,0,0,0,1,0,0h0s0,0,0,0Zm.29-.2h0s0,0,0,0l.09-.07a0,0,0,0,1,0,0,0,0,0,0,1,0,0Zm.28-.2h0a0,0,0,0,1,0-.05l.09-.06h0s0,0,0,0Zm.28-.21h0s0,0,0,0l.09-.07h0s0,0,0,0Zm.28-.21a0,0,0,0,1,0,0s0,0,0,0l.09-.08s0,0,0,0a0,0,0,0,1,0,0Zm.27-.22h0s0,0,0,0l.09-.08h0a0,0,0,0,1,0,.05Zm.26-.23h0a0,0,0,0,1,0,0l.09-.08h0s0,0,0,0Zm.26-.23h0s0,0,0,0l.08-.08s0,0,0,0a0,0,0,0,1,0,0Zm.25-.24a0,0,0,0,1,0,0h0a0,0,0,0,1,0,0l.08-.08h0a0,0,0,0,1,0,0Zm.25-.25s0,0,0,0h0a0,0,0,0,1,0,0l.08-.09h.05a0,0,0,0,1,0,0Zm.24-.26s0,0-.05,0a0,0,0,0,1,0,0l.08-.08h0a0,0,0,0,1,0,0Zm.23-.25h0a0,0,0,0,1,0,0l.07-.09h0a0,0,0,0,1,0,0Zm.23-.26h0a0,0,0,0,1,0,0l.07-.09h.05a0,0,0,0,1,0,0Zm.23-.26h0a0,0,0,0,1,0,0l.08-.09a0,0,0,0,1,0,0h0a0,0,0,0,1,0,0Zm.24-.26h0a0,0,0,0,1,0,0l.08-.08a0,0,0,0,1,0,0h0s0,0,0,.05Zm.23-.25h0a0,0,0,0,1,0,0l0,0,0,0,0,0h0a0,0,0,0,1,0,0l0,0,0,0ZM26,9.81s0,0,0,0a0,0,0,0,1,0,0L26,9.69a0,0,0,0,1,0,0h0s0,0,0,0Zm.21-.28s0,0,0,0a.06.06,0,0,1,0,0l.07-.1h0s0,0,0,0Zm.19-.28h0s0,0,0,0h0S26.42,9.24,26.41,9.25Z"/><path class="cls-4" d="M18.85,14.86s0,0,0,0h0a.05.05,0,0,1,0,0l.11,0,0,0h0s0,0,0,0Zm.33-.09,0,0s0,0,0,0l.11,0,0,0s0,0,0,0Zm.34-.1s0,0,0,0h0s0,0,0,0l.11,0s0,0,0,0h0a0,0,0,0,1,0,0Zm.33-.12s0,0,0,0h0s0,0,0,0l.11,0s0,0,0,0h0s0,0,0,0Zm.32-.13s0,0,0,0h0s0,0,0,0l.11,0s0,0,0,0h0s0,0,0,0Zm.31-.15s0,0,0,0h0s0,0,0,0l.1-.05s0,0,0,0h0s0,0,0,0Zm.31-.16s0,0,0,0,0,0,0,0l.1-.06s0,0,0,0h0s0,0,0,0Zm.3-.17h0s0,0,0,0l.1-.06s0,0,0,0a0,0,0,0,1,0,0Zm.3-.19a0,0,0,0,1,0,0s0,0,0,0l.1-.06s0,0,0,0h0s0,0,0,0Zm.29-.19h0s0,0,0,0l.1-.07s0,0,0,0h0s0,0,0,0Zm.29-.19s0,0,0,0,0,0,0,0l.09-.07s0,0,0,0h0a0,0,0,0,1,0,0Zm.29-.2s0,0,0,0h0a0,0,0,0,1,0,0l.1-.07s0,0,0,0,0,0,0,0Zm.28-.21h0s0,0,0,0l.1-.07h0s0,0,0,0Zm.28-.21h0a0,0,0,0,1,0,0l.09-.07h0a0,0,0,0,1,0,0Zm.27-.21a0,0,0,0,1,0,0h0s0,0,0,0l.09-.07a0,0,0,1,1,0,.05Zm.27-.22h0s0,0,0,0l.08-.08s0,0,.05,0,0,0,0,0Zm.27-.22s0,0,0,0h0a0,0,0,0,1,0,0l.09-.07h0a0,0,0,0,1,0,0Zm.26-.24s0,0,0,0h0a0,0,0,0,1,0,0l.09-.08a0,0,0,0,1,0,0h0a0,0,0,0,1,0,0Zm.26-.23h0a0,0,0,0,1,0,0l.08-.08h0a0,0,0,0,1,0,0Zm.25-.24h0a0,0,0,0,1,0,0l.08-.09h0a0,0,0,0,1,0,.05Zm.24-.25h0a0,0,0,0,1,0,0l.08-.08h0a0,0,0,0,1,0,0Zm.25-.25h-.05a0,0,0,0,1,0,0l.08-.08s0,0,0,0h0a0,0,0,0,1,0,0Zm.24-.25h-.05a0,0,0,0,1,0,0l.08-.09h0a0,0,0,0,1,0,0Zm.23-.25h0a0,0,0,0,1,0,0l.08-.09h0a0,0,0,0,1,0,0Zm.24-.26s0,0,0,0h0a0,0,0,0,1,0,0l.08-.08h0a0,0,0,0,1,0,0Zm.24-.25s0,0,0,0a0,0,0,0,1,0,0l.08-.08s0,0,0,0h0a0,0,0,0,1,0,0Zm.23-.27s0,0,0,0h0a0,0,0,0,1,0,0l.07-.1h0s0,0,0,0Zm.2-.28h0s0,0,0,0l.07-.09s0,0,0,0,0,0,0,0Z"/><path class="cls-4" d="M29.89,2.53s0,0-.05,0,0,0,0,0l.06-.09a0,0,0,0,1,0,0h0s0,0,0,0Zm.18-.29s0,0,0,0,0,0,0,0l.05-.1a0,0,0,0,1,0,0s0,0,0,0Zm.16-.32s0,0,0,0,0,0,0,0l0-.11s0,0,0,0h0s0,0,0,0Zm.1-.33s0,0,0,0h0s0,0,0,0l0-.11s0,0,0,0h0s0,0,0,0Z"/><path class="cls-4" d="M29.54,2.61s0,0,0,0,0,0,0,0l.06-.1s0,0,0,0,0,0,0,0Zm.18-.3s0,0,0,0a0,0,0,0,1,0,0l.06-.1s0,0,0,0h0s0,0,0,0ZM29.9,2s0,0,0,0h0s0,0,0,0l0-.1s0,0,0,0h0s0,0,0,0Zm.15-.31a0,0,0,0,1,0,0h0s0,0,0,0l0-.1s0,0,0,0,0,0,0,0Zm.09-.33h0A0,0,0,0,1,30.14,1.37Z"/><path class="cls-9" d="M27.72,21.22V21a13.77,13.77,0,0,0,3.6-2.45c.54-.58,1-1.22,1.44-1.73a10.21,10.21,0,0,1,.68-.81,11.51,11.51,0,0,1,1.81-1.27,5.6,5.6,0,0,0,2-1.53c.06,0,.07.06,0,.17a5,5,0,0,1-1.9,1.56,10.57,10.57,0,0,0-1.77,1.24,7.67,7.67,0,0,0-.69.76c-.41.52-.87,1.18-1.42,1.77a14.81,14.81,0,0,1-3.76,2.54Z"/><path class="cls-10" d="M27.67,20.26v-.2A17.71,17.71,0,0,0,32,16.89a19.56,19.56,0,0,1,3.13-2.71l.31-.17c.6-.32,1.85-1,2-1.55l.16.06c-.21.63-1.45,1.29-2.12,1.64l-.3.17A19,19,0,0,0,32.12,17a18.14,18.14,0,0,1-4.33,3.22Z"/><path class="cls-1" d="M20.67,14.73a7.84,7.84,0,0,1,2.17,1.18,4.59,4.59,0,0,1,.62-.59,5.46,5.46,0,0,0-1.84-1A9.37,9.37,0,0,0,20.67,14.73Z"/><path class="cls-1" d="M23.36,11.71c-.08.09-.1.24.06.39s1.28,1.9,1.39,2c.2-.14.69-.55.69-.55l-1.44-2a.28.28,0,0,0-.4,0A1.31,1.31,0,0,0,23.36,11.71Z"/><path class="cls-1" d="M23.12,13.34a24.61,24.61,0,0,1,2.91.07,14.82,14.82,0,0,1,1.74.49c.09,0,0-.25.09-.33s.34-.18.15-.34-1.42-.84-4.28-.58C23.56,12.8,23,13.29,23.12,13.34Z"/><path class="cls-1" d="M24.88,16a26.55,26.55,0,0,0-2.29-3.2.81.81,0,0,0-.65,0c-.15.07-.66.34-.57.57s.16-.13.31-.13a14.31,14.31,0,0,1,2.53,3.15c.08.14.15.21.38.07S25.12,16.48,24.88,16Z"/><path class="cls-1" d="M26.34,14.64c-2.05-.81-5-1.22-5.73-1a2.83,2.83,0,0,0-1.21.81c0,.12.5-.26.81-.32A19.09,19.09,0,0,1,26,15.29c.16.06.17-.07.25-.15S26.78,14.82,26.34,14.64Z"/><path class="cls-1" d="M27,12.09A5.69,5.69,0,0,1,25.44,10c0-.12-.31.11-.42.21-.6.51.21,1.32,1.35,2.47Z"/><path class="cls-1" d="M25.84,10.64A5.79,5.79,0,0,1,29.58,12c.13.13-.17.12-.32.15s-.06.39-.19.3a5.92,5.92,0,0,0-4.2-.89Z"/><path class="cls-1" d="M26.19,9.47a9.28,9.28,0,0,1,1.56,1.73,2.11,2.11,0,0,0,.59-.63,9.68,9.68,0,0,0-1.65-1.82C26.55,8.68,25.93,9.28,26.19,9.47Z"/><path class="cls-1" d="M30.67,10.09c-2-1.64-3.42-1-3.68-.91a4.37,4.37,0,0,0-.8,1c.37-.21,1.1-1.23,4,.51.18.11.21-.07.26-.19S30.82,10.22,30.67,10.09Z"/><path class="cls-1" d="M29.66,2.68c-.15.07-.28,0-.54.07s-.06.08-.47.34a3.56,3.56,0,0,0-1.09,1.49c-.14.53-.4,3-.43,3.51a7.21,7.21,0,0,0,.61-1.21,3.78,3.78,0,0,1,.35-2.61,3.12,3.12,0,0,1,.52-.84l.82-.31S29.94,2.85,29.66,2.68Z"/><path class="cls-1" d="M28,5.86c.37.32,2,1.7,2.24,1.83A3,3,0,0,0,30.57,7s-1.1-1-2.1-1.76C28.1,5.7,28,5.86,28,5.86Z"/><path class="cls-1" d="M27.66,6.73c-.14,0-.49.46-.53.86s.84,1,1.13,1.32a3.84,3.84,0,0,1,1,.29c.07.1.25-.29.25-.29S27.6,7.24,27.65,7,27.78,6.73,27.66,6.73Z"/><path class="cls-1" d="M28.88,8.28c.47,0,2.15.54,2.72.59.09,0,0-.32.06-.37s.31-.22.19-.28a3.71,3.71,0,0,0-3.47-.34Z"/><path class="cls-1" d="M28,7.3c.35-.42,1.79-.77,4.3-.68V5.73s-3.14-.14-3.88.55A5,5,0,0,0,28,7.3Z"/><path class="cls-1" d="M29.13,4.22a9.92,9.92,0,0,0,1.68,1.5,9,9,0,0,0,.09-1,14.51,14.51,0,0,1-1.16-1A2.71,2.71,0,0,0,29.13,4.22Z"/><path class="cls-1" d="M29,4.89a4.72,4.72,0,0,1,.58-.16,2.55,2.55,0,0,0-.42-.4Z"/><path class="cls-1" d="M30,3.91a6.62,6.62,0,0,1,1.47-.35,1.17,1.17,0,0,1,.4.72,6.58,6.58,0,0,0-1.24.16C30.45,4.3,30,3.91,30,3.91Z"/><path class="cls-1" d="M35.83,5.25c-1-.85-2.15-1.74-2.35-1.93a2.42,2.42,0,0,0-1.1-.92,2.18,2.18,0,0,0-1.48.16c-.18,0-.45-.15-.55-.16s-.18.17-.33.17a.54.54,0,0,0-.34.1c.33.11,0,.41-.29.53A23.76,23.76,0,0,0,25.71,5c-1.51.82-1.9,1.59-2,1.82s-.2.56.36,1a.93.93,0,0,0,1.32.11A10.31,10.31,0,0,0,29,4.23s.71-.64.93-.63.12.17.23.2a4.24,4.24,0,0,0,.88-.31s-.15-.17,0-.16.81,0,1,1.4.3,2.56.34,3.13.11,2.83.27,3.68.18.89.38,1.05c0,.3.17,1.63.17,1.63s.24.1.38,0c0-.32-.21-1.59-.21-1.59a2.54,2.54,0,0,0,.11-1.14c-.06-.75-.22-3-.27-3.72a11.32,11.32,0,0,0-.69-3.33,2.73,2.73,0,0,0-1-1.25,1.46,1.46,0,0,1,1.09.28c.81.57,1.22,1.71,1.79,3A2.53,2.53,0,0,0,36,8c.3.13.92-.41,1-.58A2.92,2.92,0,0,0,35.83,5.25ZM26.47,6.51c-.45.25-1.84,1.09-2.08.91s.95-1.76,1.73-2.15a16.78,16.78,0,0,0,2.71-1.54A9.64,9.64,0,0,1,26.47,6.51Zm7.61-1.78c.18.57,2.16,1.49,2.2,2.6C34.9,7,34.24,5.26,34.08,4.73Z"/><path class="cls-1" d="M32,3.5c.14,0,.44,0,.55.16s-.08.25,0,.34,0,.27,0,.27Z"/></g></g></g></svg>