<svg xmlns="http://www.w3.org/2000/svg" xmlns:xlink="http://www.w3.org/1999/xlink" viewBox="0 0 48.11 32.01"><defs><style>.cls-1{isolation:isolate;}.cls-2{fill:url(#radial-gradient);}.cls-3{fill:url(#radial-gradient-2);}.cls-32,.cls-4{opacity:0.3;mix-blend-mode:screen;}.cls-4{fill:url(#linear-gradient);}.cls-5{fill:url(#radial-gradient-3);}.cls-6{fill:url(#linear-gradient-2);}.cls-7{fill:url(#radial-gradient-4);}.cls-8{fill:url(#radial-gradient-5);}.cls-9{fill:url(#radial-gradient-6);}.cls-10{fill:url(#radial-gradient-7);}.cls-11{fill:url(#radial-gradient-8);}.cls-12{fill:url(#radial-gradient-9);}.cls-13{fill:url(#radial-gradient-10);}.cls-14{fill:url(#radial-gradient-11);}.cls-15{fill:url(#linear-gradient-3);}.cls-16{fill:url(#radial-gradient-12);}.cls-17{fill:url(#radial-gradient-13);}.cls-18{fill:url(#radial-gradient-14);}.cls-19{fill:url(#radial-gradient-15);}.cls-20{fill:url(#radial-gradient-16);}.cls-21{fill:url(#radial-gradient-17);}.cls-22{fill:url(#radial-gradient-18);}.cls-23{fill:url(#linear-gradient-4);}.cls-24{fill:url(#radial-gradient-19);}.cls-25{fill:url(#radial-gradient-20);}.cls-26{fill:url(#radial-gradient-21);}.cls-27{fill:url(#radial-gradient-22);}.cls-28{fill:url(#radial-gradient-23);}.cls-29{fill:url(#radial-gradient-24);}.cls-30{fill:url(#radial-gradient-25);}.cls-31{fill:url(#radial-gradient-26);}.cls-32{fill:url(#linear-gradient-5);}.cls-33{fill:url(#radial-gradient-27);}.cls-34{fill:url(#linear-gradient-6);}.cls-35{fill:url(#radial-gradient-28);}.cls-36{fill:url(#radial-gradient-29);}.cls-37{fill:url(#radial-gradient-30);}.cls-38{fill:url(#radial-gradient-31);}.cls-39{fill:url(#radial-gradient-32);}.cls-40{fill:url(#radial-gradient-33);}.cls-41{fill:url(#radial-gradient-34);}.cls-42{fill:url(#radial-gradient-35);}.cls-43{fill:url(#linear-gradient-7);}.cls-44{fill:url(#radial-gradient-36);}.cls-45{fill:url(#radial-gradient-37);}.cls-46{fill:url(#radial-gradient-38);}.cls-47{fill:url(#radial-gradient-39);}.cls-48{fill:url(#radial-gradient-40);}.cls-49{fill:url(#radial-gradient-41);}.cls-50{fill:url(#radial-gradient-42);}.cls-51{fill:url(#linear-gradient-8);}.cls-52{fill:url(#radial-gradient-43);}.cls-53{fill:url(#radial-gradient-44);}.cls-54{fill:url(#radial-gradient-45);}.cls-55{fill:url(#radial-gradient-46);}.cls-56{fill:url(#radial-gradient-47);}.cls-57{fill:url(#radial-gradient-48);}</style><radialGradient id="radial-gradient" cx="1908.6" cy="10.28" r="7.24" gradientTransform="matrix(-2.7, 0, 0, 2.98, 5139.06, -18.47)" gradientUnits="userSpaceOnUse"><stop offset="0" stop-color="#515254"/><stop offset="0.26" stop-color="#333436"/><stop offset="0.53" stop-color="#1c1d1f"/><stop offset="0.78" stop-color="#0f1012"/><stop offset="1" stop-color="#0a0b0d"/></radialGradient><radialGradient id="radial-gradient-2" cx="1966.9" cy="7.05" r="11.43" gradientTransform="matrix(-2.5, 0, 0, 2.98, 4939.5, -18.47)" xlink:href="#radial-gradient"/><linearGradient id="linear-gradient" x1="1997.42" y1="14.76" x2="2007.2" y2="17.25" gradientTransform="matrix(-1, 0, 0, 1, 2013.74, 0)" gradientUnits="userSpaceOnUse"><stop offset="0"/><stop offset="1" stop-color="#c5e7eb"/></linearGradient><radialGradient id="radial-gradient-3" cx="1969.37" cy="13.77" r="1.81" gradientTransform="matrix(-2.5, 0, 0, 2.98, 4939.5, -18.47)" gradientUnits="userSpaceOnUse"><stop offset="0.41" stop-color="#515254"/><stop offset="0.81" stop-color="#515254"/><stop offset="0.9" stop-color="#323335"/><stop offset="1" stop-color="#0a0b0d"/></radialGradient><linearGradient id="linear-gradient-2" x1="2001.06" y1="17.54" x2="2006.17" y2="26.63" gradientTransform="matrix(-1, 0, 0, 1, 2013.74, 0)" gradientUnits="userSpaceOnUse"><stop offset="0" stop-color="#0d0f11"/><stop offset="0.41" stop-color="#6c6d70"/><stop offset="0.61" stop-color="#6c6d70"/><stop offset="0.75" stop-color="#4d4e51"/><stop offset="1" stop-color="#0d0f11"/></linearGradient><radialGradient id="radial-gradient-4" cx="1969.76" cy="14.59" r="1.85" gradientTransform="matrix(-2.5, 0, 0, 2.98, 4939.5, -18.47)" gradientUnits="userSpaceOnUse"><stop offset="0" stop-color="#515254"/><stop offset="0.17" stop-color="#515254"/><stop offset="0.56" stop-color="#323335"/><stop offset="1" stop-color="#0a0b0d"/></radialGradient><radialGradient id="radial-gradient-5" cx="1969.19" cy="13.39" r="0.93" xlink:href="#radial-gradient-4"/><radialGradient id="radial-gradient-6" cx="1969.28" cy="12.08" r="0.1" xlink:href="#radial-gradient-4"/><radialGradient id="radial-gradient-7" cx="1969.28" cy="15.28" r="0.11" xlink:href="#radial-gradient-4"/><radialGradient id="radial-gradient-8" cx="1971.01" cy="13.89" r="0.12" xlink:href="#radial-gradient-4"/><radialGradient id="radial-gradient-9" cx="1967.72" cy="13.51" r="0.1" xlink:href="#radial-gradient-4"/><radialGradient id="radial-gradient-10" cx="-36.88" cy="7.99" r="14.7" gradientTransform="translate(32.98 9.49) scale(0.73 0.81)" xlink:href="#radial-gradient"/><radialGradient id="radial-gradient-11" cx="1969.32" cy="10.17" r="1.08" xlink:href="#radial-gradient-3"/><linearGradient id="linear-gradient-3" x1="2002.2" y1="9.16" x2="2004.98" y2="14.11" xlink:href="#linear-gradient-2"/><radialGradient id="radial-gradient-12" cx="1969.56" cy="10.68" r="1.1" xlink:href="#radial-gradient-4"/><radialGradient id="radial-gradient-13" cx="1969.23" cy="9.97" r="0.55" xlink:href="#radial-gradient-4"/><radialGradient id="radial-gradient-14" cx="1969.28" cy="9.19" r="0.06" xlink:href="#radial-gradient-4"/><radialGradient id="radial-gradient-15" cx="1969.28" cy="11.11" r="0.06" xlink:href="#radial-gradient-4"/><radialGradient id="radial-gradient-16" cx="1970.3" cy="10.03" r="0.07" xlink:href="#radial-gradient-4"/><radialGradient id="radial-gradient-17" cx="1968.34" cy="10.26" r="0.06" xlink:href="#radial-gradient-4"/><radialGradient id="radial-gradient-18" cx="1970.84" cy="11.46" r="0.52" xlink:href="#radial-gradient-3"/><linearGradient id="linear-gradient-4" x1="2006.76" y1="14.33" x2="2008.16" y2="16.82" xlink:href="#linear-gradient-2"/><radialGradient id="radial-gradient-19" cx="1970.95" cy="11.71" r="0.53" xlink:href="#radial-gradient-4"/><radialGradient id="radial-gradient-20" cx="1970.8" cy="11.35" r="0.27" xlink:href="#radial-gradient-4"/><radialGradient id="radial-gradient-21" cx="1970.82" cy="10.97" r="0.03" xlink:href="#radial-gradient-4"/><radialGradient id="radial-gradient-22" cx="1970.82" cy="11.92" r="0.03" xlink:href="#radial-gradient-4"/><radialGradient id="radial-gradient-23" cx="1971.3" cy="11.41" r="0.03" xlink:href="#radial-gradient-4"/><radialGradient id="radial-gradient-24" cx="1970.38" cy="11.47" r="0.03" xlink:href="#radial-gradient-4"/><radialGradient id="radial-gradient-25" cx="1894.71" cy="8.4" r="5.68" xlink:href="#radial-gradient"/><radialGradient id="radial-gradient-26" cx="1953.92" cy="5.87" r="8.97" gradientTransform="matrix(-2.5, 0, 0, 2.98, 4939.5, -18.47)" xlink:href="#radial-gradient"/><linearGradient id="linear-gradient-5" x1="1964.98" y1="8.6" x2="1972.65" y2="10.55" xlink:href="#linear-gradient"/><radialGradient id="radial-gradient-27" cx="1955.85" cy="11.13" r="1.42" xlink:href="#radial-gradient-3"/><linearGradient id="linear-gradient-6" x1="1967.83" y1="10.78" x2="1971.84" y2="17.91" xlink:href="#linear-gradient-2"/><radialGradient id="radial-gradient-28" cx="1956.16" cy="11.78" r="1.45" xlink:href="#radial-gradient-4"/><radialGradient id="radial-gradient-29" cx="1955.71" cy="10.84" r="0.73" xlink:href="#radial-gradient-4"/><radialGradient id="radial-gradient-30" cx="1955.78" cy="9.81" r="0.08" xlink:href="#radial-gradient-4"/><radialGradient id="radial-gradient-31" cx="1955.78" cy="12.32" r="0.08" xlink:href="#radial-gradient-4"/><radialGradient id="radial-gradient-32" cx="1957.14" cy="11.23" r="0.09" xlink:href="#radial-gradient-4"/><radialGradient id="radial-gradient-33" cx="1954.55" cy="10.94" r="0.08" xlink:href="#radial-gradient-4"/><radialGradient id="radial-gradient-34" cx="10.71" cy="0.02" r="11.54" gradientTransform="translate(32.98 9.49) scale(0.73 0.81)" xlink:href="#radial-gradient"/><radialGradient id="radial-gradient-35" cx="1955.81" cy="8.32" r="0.84" xlink:href="#radial-gradient-3"/><linearGradient id="linear-gradient-7" x1="1968.72" y1="4.2" x2="1970.91" y2="8.08" xlink:href="#linear-gradient-2"/><radialGradient id="radial-gradient-36" cx="1956" cy="8.71" r="0.87" xlink:href="#radial-gradient-4"/><radialGradient id="radial-gradient-37" cx="1955.74" cy="8.15" r="0.44" xlink:href="#radial-gradient-4"/><radialGradient id="radial-gradient-38" cx="1955.79" cy="7.55" r="0.05" xlink:href="#radial-gradient-4"/><radialGradient id="radial-gradient-39" cx="1955.79" cy="9.05" r="0.05" xlink:href="#radial-gradient-4"/><radialGradient id="radial-gradient-40" cx="1956.58" cy="8.21" r="0.05" xlink:href="#radial-gradient-4"/><radialGradient id="radial-gradient-41" cx="1955.04" cy="8.38" r="0.05" xlink:href="#radial-gradient-4"/><radialGradient id="radial-gradient-42" cx="1957.01" cy="9.32" r="0.41" xlink:href="#radial-gradient-3"/><linearGradient id="linear-gradient-8" x1="1972.3" y1="8.26" x2="1973.4" y2="10.21" xlink:href="#linear-gradient-2"/><radialGradient id="radial-gradient-43" cx="1957.09" cy="9.52" r="0.41" xlink:href="#radial-gradient-4"/><radialGradient id="radial-gradient-44" cx="1956.97" cy="9.24" r="0.21" xlink:href="#radial-gradient-4"/><radialGradient id="radial-gradient-45" cx="1956.99" cy="8.94" r="0.02" xlink:href="#radial-gradient-4"/><radialGradient id="radial-gradient-46" cx="1956.99" cy="9.69" r="0.02" xlink:href="#radial-gradient-4"/><radialGradient id="radial-gradient-47" cx="1957.37" cy="9.29" r="0.03" xlink:href="#radial-gradient-4"/><radialGradient id="radial-gradient-48" cx="1956.64" cy="9.33" r="0.02" xlink:href="#radial-gradient-4"/></defs><title>speaakers</title><g class="cls-1"><g id="Layer_2" data-name="Layer 2"><g id="speakers"><g id="speaakers"><path class="cls-2" d="M3.89,4.28C2.59,4.67,1.3,5.09,0,5.55V31.4c1.3.23,2.59.43,3.89.61Z"/><path class="cls-3" d="M3.89,32Q7.06,30.9,10,29.94t5.45-1.74c0-6.88,0-24.4,0-24.4-3.86,0-7.73.14-11.59.48Z"/><path class="cls-4" d="M15.41,3.9s0,17.4,0,24.23l-1.56.48a38.5,38.5,0,0,0-1.68-8.35C10.92,17,4.39,4.91,4.39,4.59,8.06,4.19,11.74,4,15.41,3.9Z"/><path class="cls-5" d="M5.32,23.2c0,3.31,2.18,5.33,4.75,4.58a6.35,6.35,0,0,0,4.36-5.85,4.52,4.52,0,0,0-4.36-4.67C7.5,17.22,5.32,19.88,5.32,23.2Z"/><path class="cls-6" d="M6.18,23.07c0,2.68,1.78,4.35,3.89,3.8A5.18,5.18,0,0,0,13.7,22a3.68,3.68,0,0,0-3.63-3.85C8,18.21,6.18,20.4,6.18,23.07Z"/><path class="cls-7" d="M6.34,23.05c0,2.56,1.7,4.17,3.73,3.65a5,5,0,0,0,3.49-4.65,3.53,3.53,0,0,0-3.49-3.7C8,18.38,6.34,20.49,6.34,23.05Z"/><path class="cls-8" d="M8.67,22.72c0,.92.63,1.55,1.4,1.41a1.85,1.85,0,0,0,1.37-1.8,1.31,1.31,0,0,0-1.37-1.42A1.75,1.75,0,0,0,8.67,22.72Z"/><path class="cls-9" d="M9.92,17.7a.17.17,0,0,0,.15.18.19.19,0,0,0,.16-.19.17.17,0,0,0-.16-.18A.17.17,0,0,0,9.92,17.7Z"/><path class="cls-10" d="M9.92,27.29c0,.1.07.16.15.14a.23.23,0,0,0,.16-.22c0-.1-.07-.17-.16-.15A.26.26,0,0,0,9.92,27.29Z"/><path class="cls-11" d="M5.57,23.12a.16.16,0,0,0,.17.18.24.24,0,0,0,.17-.23.17.17,0,0,0-.17-.18A.22.22,0,0,0,5.57,23.12Z"/><path class="cls-12" d="M13.84,22a.14.14,0,0,0,.15.15.18.18,0,0,0,.15-.18.14.14,0,0,0-.15-.15A.18.18,0,0,0,13.84,22Z"/><path class="cls-13" d="M13.21,21.63V21.3l.28,0a.3.3,0,0,1,0-.1l-.26,0v-.32l.18,0,0-.09h-.15v-.32h0l-.12-.25v.16l-.31,0v-.33H13a.93.93,0,0,1,0-.1h-.17v-.24l-.14-.18-.25,0v-.29l-.15-.14-.26,0v-.21l-.09-.06v.27l-.31,0v-.34h.23l-.17-.09h-.06v0l-.09-.05v.08h-.31v-.22l-.1,0v.26H10.8v-.34h0a2.87,2.87,0,0,0-.78-.07,3,3,0,0,0-.78.12h.16v.35H9.13v-.3l-.1,0v.28H8.7v-.14l-.1.05v.1H8.43L8.17,19v.32l-.33,0v-.05l-.18.17h.08v.37l-.34,0v-.08L7.25,20h0v.37l-.3,0a2.59,2.59,0,0,0-.14.29v.22H6.75s0,.08,0,.12h.15v.38l-.29,0a.56.56,0,0,1,0,.12l.33,0v.37l-.35,0v-.31c0,.15-.07.31-.1.47v.36h0s0,.08,0,.12h.06V23l-.07,0v.12l.07,0v.39h0a.49.49,0,0,0,0,.12h0V24c0,.15.06.3.1.45v-.3L6.86,24v.38l-.32.06s0,.07,0,.11l.28-.05v.37l-.15,0a1.17,1.17,0,0,0,0,.11l.1,0v.21L7,25.5l.29-.06v.38h0L7.4,26v-.07l.34-.07v.37l-.06,0,.16.11v0l.33-.08v.3l.29.11.14,0v.08l.1,0v-.13L9,26.51v.26h.1v-.29l.32-.08v.35l-.1,0a3,3,0,0,0,.72-.09,4,4,0,0,0,.73-.27v-.34l.31-.07v.25l.1-.06V26l.31-.08V26l.09-.07v0h0l.18-.15-.21.05v-.34l.31-.07v.27a.76.76,0,0,0,.09-.09v-.2l.24-.05.17-.19v-.28l.24-.05c.05-.07.11-.15.15-.22v-.24l.16,0a1.17,1.17,0,0,0,0-.11l-.21,0v-.33l.31-.05V24c0-.09.08-.18.11-.27h0v-.32l.14,0,0-.11-.17,0V23l.25,0,0-.11-.28,0v-.33l.3,0v.17a4.74,4.74,0,0,0,.05-.65,4.51,4.51,0,0,0-.05-.65v.19Zm0,.52.3,0v.32l-.3,0Zm0-.42.3,0V22l-.3,0Zm-6.35.69-.35,0v-.39l.35,0Zm0,.5-.35,0v-.38l.35-.05Zm0,.5-.35,0v-.38L6.86,23Zm0,.5L6.51,24v-.39l.35-.05Zm.44-3-.34,0v-.38l.34,0Zm0,.49-.34,0V21l.34,0Zm0,.49-.34,0v-.37l.34,0Zm0,.49L7,22.41V22l.34,0Zm0,.5L7,22.91v-.38l.34-.05Zm0,.49L7,23.41V23L7.3,23Zm0,.5L7,23.9v-.38l.34-.05Zm0,.49L7,24.4V24L7.3,24Zm0,.49L7,24.9v-.38l.34-.06Zm0,.49L7,25.39V25L7.3,25Zm.44-5-.34,0V20l.34,0Zm0,.49-.34,0V20.5l.34,0Zm0,.49-.34,0V21l.34,0Zm0,.48-.34,0v-.37l.34,0Zm0,.49-.34,0V22l.34,0Zm0,.49-.34,0v-.37l.34,0Zm0,.49-.34.05V23l.34-.05Zm0,.48-.34.06v-.38l.34-.05Zm0,.49-.34.06V24l.34-.06Zm0,.49-.34.06v-.37l.34-.06Zm0,.49-.34.06v-.37l.34-.07Zm0,.48-.34.08v-.38l.34-.07Zm.43-5.88-.33,0v-.37l.33,0Zm0,.48-.33,0V20l.33,0Zm0,.49-.33,0v-.37l.33,0Zm0,.48-.33,0V21l.33,0Zm0,.48-.33,0v-.37l.33,0Zm0,.48-.33.05v-.37l.33,0Zm0,.49-.33,0v-.37l.33,0Zm0,.48-.33.05V22.9l.33,0Zm0,.48-.33.06v-.37l.33-.06Zm0,.49-.33,0v-.37l.33-.05Zm0,.48-.33.06v-.37l.33-.06Zm0,.48-.33.07v-.38l.33-.06Zm0,.48-.33.07v-.37l.33-.07Zm0,.48-.33.08v-.37l.33-.07Zm.43-6.78-.33,0V19l.33,0Zm0,.48-.33,0v-.36l.33,0Zm0,.48-.33,0V20l.33,0Zm0,.48-.33,0v-.37l.33,0Zm0,.48-.33,0v-.37l.33,0Zm0,.47-.33,0v-.37l.33,0Zm0,.48-.33,0v-.37l.33,0Zm0,.48-.33,0v-.36l.33-.05Zm0,.47-.33.05v-.36l.33-.05Zm0,.48-.33.06v-.37l.33-.05Zm0,.48-.33.06V23.8l.33-.05Zm0,.47-.33.07v-.37l.33-.06Zm0,.48-.33.07v-.37l.33-.06Zm0,.48-.33.07v-.37l.33-.06Zm0,.48-.33.07v-.36l.33-.08Zm0,.48-.33.07v-.36l.33-.08ZM9,19.31l-.33,0V19L9,19Zm0,.47-.33,0v-.37l.33,0Zm0,.48-.33,0v-.36l.33,0Zm0,.47-.33,0V20.4l.33,0Zm0,.47-.33,0v-.37l.33,0Zm0,.47-.33,0v-.36l.33,0Zm0,.47-.33.05v-.37l.33,0Zm0,.48-.33,0V22.3l.33,0Zm0,.47-.33.05v-.36L9,22.73Zm0,.47-.33.06v-.37L9,23.2ZM9,24l-.33.06v-.36L9,23.67Zm0,.47-.33.07v-.36L9,24.15ZM9,25,8.7,25v-.36L9,24.62Zm0,.47-.33.07v-.36L9,25.09Zm0,.47L8.7,26v-.37L9,25.56Zm0,.48-.33.07v-.36L9,26Zm.42-7.11-.32,0V19l.32,0Zm0,.47-.32,0v-.36l.32,0Zm0,.46-.32,0v-.36l.32,0Zm0,.47-.32,0v-.36l.32,0Zm0,.47-.32,0v-.36l.32,0Zm0,.46-.32,0V21.3l.32,0Zm0,.47-.32,0v-.36l.32,0Zm0,.47-.32,0v-.36l.32,0Zm0,.47-.32,0v-.35l.32,0Zm0,.46-.32.06v-.36l.32-.05Zm0,.47L9.13,24v-.36l.32-.06Zm0,.47-.32.06v-.36l.32-.06Zm0,.46L9.13,25V24.6l.32-.06Zm0,.47-.32.07v-.36L9.45,25Zm0,.47-.32.07v-.36l.32-.07Zm0,.47-.32.07V26l.32-.07Zm.42-7.5-.32,0v-.36h.32Zm0,.46-.32,0v-.35l.32,0Zm0,.47-.32,0v-.36l.32,0Zm0,.46-.32,0v-.36l.32,0Zm0,.46-.32,0v-.35l.32,0Zm0,.47-.32,0v-.36l.32,0Zm0,.46-.32,0v-.35l.32,0Zm0,.46-.32,0v-.36l.32,0Zm0,.46-.32.05v-.36l.32,0Zm0,.46L9.55,23v-.35l.32-.05Zm0,.47-.32.05v-.36l.32-.05Zm0,.46-.32.05v-.35l.32-.05Zm0,.46-.32.06v-.35L9.87,24Zm0,.46-.32.06v-.35l.32-.06Zm0,.46-.32.07V25l.32-.07Zm0,.47-.32.07v-.36l.32-.07Zm0,.46-.32.07v-.35l.32-.07Zm0,.46-.32.08v-.35l.32-.08Zm.42-7.88-.32,0v-.35h.32Zm0,.46-.32,0v-.35l.32,0Zm0,.46-.32,0v-.35l.32,0Zm0,.46-.32,0v-.35l.32,0Zm0,.45-.32,0v-.35l.32,0Zm0,.46-.32,0v-.36l.32,0Zm0,.46-.32,0v-.34l.32,0Zm0,.46L10,22v-.36l.32,0Zm0,.45-.32,0v-.35l.32-.05Zm0,.46L10,23V22.6l.32-.05Zm0,.46-.32.05v-.35l.32,0Zm0,.46-.32.05v-.35l.32-.05Zm0,.45-.32.06V24l.32-.05Zm0,.46-.32.06v-.35l.32-.06Zm0,.46-.32.06V24.9l.32-.06Zm0,.45-.32.08v-.36l.32-.06Zm0,.46-.32.08v-.35l.32-.08Zm0,.46-.32.08v-.35l.32-.08Zm.41-7.79h-.32v-.35h.32Zm0,.45-.32,0v-.35l.32,0Zm0,.45-.32,0v-.34l.32,0Zm0,.46-.32,0V19.8l.32,0Zm0,.45-.32,0v-.35l.32,0Zm0,.45-.32,0v-.34l.32,0Zm0,.45-.32,0v-.35l.32,0Zm0,.45-.32,0v-.34l.32,0Zm0,.46-.32,0v-.35l.32,0Zm0,.45-.32.05v-.35l.32-.05Zm0,.45-.32.05V23L10.7,23Zm0,.45-.32.06v-.35l.32-.05Zm0,.46-.32.05v-.34l.32-.06Zm0,.45-.32.06v-.35l.32-.06Zm0,.45-.32.07v-.35l.32-.06Zm0,.45-.32.07v-.34l.32-.07Zm0,.46-.32.07v-.35l.32-.07Zm0,.45-.32.08v-.35l.32-.08Zm.41-7.26H10.8v-.34h.31Zm0,.44-.31,0v-.35l.31,0Zm0,.45-.31,0v-.35l.31,0Zm0,.45-.31,0v-.34l.31,0Zm0,.45-.31,0v-.34l.31,0Zm0,.44-.31,0v-.34l.31,0Zm0,.45-.31,0v-.34l.31,0Zm0,.45-.31,0V22l.31,0Zm0,.45-.31,0v-.35l.31,0Zm0,.45-.31.05v-.35l.31,0Zm0,.44-.31.06v-.34l.31-.06Zm0,.45-.31.06v-.34l.31-.06Zm0,.45-.31.06v-.34l.31-.06Zm0,.45-.31.06v-.34l.31-.07Zm0,.44-.31.07v-.34l.31-.07Zm0,.45L10.8,26v-.35l.31-.07Zm.41-6.74-.31,0v-.34h.31Zm0,.45-.31,0V19.3l.31,0Zm0,.44-.31,0v-.34l.31,0Zm0,.44-.31,0v-.34l.31,0Zm0,.45-.31,0v-.34l.31,0Zm0,.44-.31,0v-.33l.31,0Zm0,.44-.31,0v-.34l.31,0Zm0,.45-.31,0V22l.31,0Zm0,.44-.31.05v-.35l.31,0Zm0,.44-.31.05v-.34l.31-.05Zm0,.45-.31.05v-.34l.31-.05Zm0,.44-.31.05v-.33l.31-.06Zm0,.44-.31.06v-.34l.31-.06Zm0,.44-.31.07v-.34l.31-.07Zm0,.45-.31.06V25.1l.31-.06Zm0,.44-.31.07v-.34l.31-.07Zm.4-6.23-.31,0v-.33l.31,0Zm0,.44-.31,0v-.33l.31,0Zm0,.44-.31,0v-.34l.31,0Zm0,.44-.31,0V20.6l.31,0Zm0,.43-.31,0V21l.31,0Zm0,.44-.31,0v-.34l.31,0Zm0,.44-.31,0v-.33l.31,0Zm0,.44-.31.05v-.34l.31,0Zm0,.44-.31,0v-.34l.31,0Zm0,.44-.31.05v-.34l.31-.05Zm0,.43-.31.06V23.7l.31-.06Zm0,.44-.31.06v-.34l.31-.05Zm0,.44-.31.06v-.33l.31-.06Zm0,.44-.31.07V25l.31-.07Zm.41-5.72-.32,0v-.34l.32,0Zm0,.43L12,20v-.33l.32,0Zm0,.43-.32,0v-.33l.32,0Zm0,.44-.32,0v-.33l.32,0Zm0,.43-.32,0V21l.32,0Zm0,.43-.32,0v-.33l.32,0Zm0,.44-.32,0v-.34l.32,0Zm0,.43-.32,0v-.34l.32,0Zm0,.43-.32,0v-.33l.32-.05Zm0,.44-.32.05v-.33l.32-.05Zm0,.43L12,24v-.33l.32-.06Zm0,.43-.32.06v-.33l.32-.06Zm0,.44-.32.06V24.5l.32-.06Zm0,.43-.32.07v-.33l.32-.07ZM12.72,20l-.3,0v-.33l.3,0Zm0,.43-.3,0V20.1l.3,0Zm0,.43-.3,0v-.33l.3,0Zm0,.42-.3,0V21l.3,0Zm0,.43-.3,0v-.33l.3,0Zm0,.43-.3,0v-.33l.3,0Zm0,.43-.3.05v-.33l.3,0Zm0,.43-.3.05v-.33l.3,0Zm0,.43-.3.05v-.33l.3-.05Zm0,.43-.3.05v-.32l.3-.06Zm0,.43-.3.06V24l.3-.06Zm0,.43-.3.06v-.33l.3-.06Zm.4-3.9-.31,0v-.33l.31,0Zm0,.42-.31,0v-.32l.31,0Zm0,.43-.31,0v-.32l.31,0Zm0,.42-.31,0v-.33l.31,0Zm0,.43-.31,0V22.2l.31,0Zm0,.42-.31.05v-.33l.31,0Zm0,.43-.31.05v-.33l.31,0Zm0,.42-.31,0v-.32l.31,0Z"/><path class="cls-14" d="M7.28,11.53c0,1.88,1.27,3.46,2.79,3.53a2.64,2.64,0,0,0,2.65-2.8,3.65,3.65,0,0,0-2.65-3.5C8.55,8.42,7.28,9.65,7.28,11.53Z"/><path class="cls-15" d="M7.78,11.6a2.77,2.77,0,0,0,2.29,2.91,2.17,2.17,0,0,0,2.2-2.31,3,3,0,0,0-2.2-2.89C8.82,9.05,7.78,10.07,7.78,11.6Z"/><path class="cls-16" d="M7.87,11.61a2.66,2.66,0,0,0,2.2,2.79,2.07,2.07,0,0,0,2.12-2.21,2.88,2.88,0,0,0-2.12-2.78C8.87,9.17,7.87,10.14,7.87,11.61Z"/><path class="cls-17" d="M9.24,11.8a1,1,0,0,0,.83,1.07A.78.78,0,0,0,10.9,12,1.07,1.07,0,0,0,10.07,11C9.61,10.88,9.24,11.25,9.24,11.8Z"/><path class="cls-18" d="M10,9a.13.13,0,0,0,.09.13.08.08,0,0,0,.1-.09.14.14,0,0,0-.1-.13C10,8.9,10,8.94,10,9Z"/><path class="cls-19" d="M10,14.73a.1.1,0,0,0,.09.11c.06,0,.1,0,.1-.1a.12.12,0,0,0-.1-.12A.1.1,0,0,0,10,14.73Z"/><path class="cls-20" d="M7.42,11.52c0,.07,0,.13.1.13s.1,0,.1-.1a.13.13,0,0,0-.1-.13A.09.09,0,0,0,7.42,11.52Z"/><path class="cls-21" d="M12.36,12.19a.1.1,0,0,0,.09.11c.05,0,.09,0,.09-.09a.12.12,0,0,0-.09-.11S12.36,12.13,12.36,12.19Z"/><path class="cls-22" d="M4.92,15.62a1.55,1.55,0,0,0,1.31,1.67,1.36,1.36,0,0,0,1.25-1.48,1.62,1.62,0,0,0-1.25-1.66C5.52,14.05,4.92,14.71,4.92,15.62Z"/><path class="cls-23" d="M5.16,15.64A1.27,1.27,0,0,0,6.23,17a1.11,1.11,0,0,0,1-1.22,1.34,1.34,0,0,0-1-1.37C5.64,14.35,5.16,14.89,5.16,15.64Z"/><path class="cls-24" d="M5.2,15.64a1.23,1.23,0,0,0,1,1.32,1.07,1.07,0,0,0,1-1.17,1.29,1.29,0,0,0-1-1.32C5.67,14.4,5.2,14.92,5.2,15.64Z"/><path class="cls-25" d="M5.84,15.69a.49.49,0,0,0,.39.51.41.41,0,0,0,.39-.45.49.49,0,0,0-.39-.51C6,15.22,5.84,15.42,5.84,15.69Z"/><path class="cls-26" d="M6.19,14.27s0,.06,0,.06,0,0,0-.05a.06.06,0,0,0,0-.06A0,0,0,0,0,6.19,14.27Z"/><path class="cls-27" d="M6.19,17.13a0,0,0,0,0,0,.05,0,0,0,0,0,0-.05.06.06,0,0,0,0-.06S6.19,17.1,6.19,17.13Z"/><path class="cls-28" d="M5,15.61a.06.06,0,0,0,0,.06,0,0,0,0,0,0-.05s0-.06,0-.06A0,0,0,0,0,5,15.61Z"/><path class="cls-29" d="M7.31,15.79a0,0,0,1,0,.08,0,0,0,0,0,0-.08,0A0,0,0,0,0,7.31,15.79Z"/><path class="cls-30" d="M39,.37C38,.68,37,1,36,1.37V21.65q1.53.27,3.06.48Z"/><path class="cls-31" d="M39,22.13q2.48-.87,4.78-1.62c1.48-.49,2.9-.94,4.28-1.37,0-5.4,0-19.14,0-19.14Q43.57,0,39,.37Z"/><path class="cls-32" d="M48.05.08s0,13.65,0,19l-1.22.38a30.56,30.56,0,0,0-1.32-6.54c-.95-2.56-6.07-12-6.07-12.3Q43.73.16,48.05.08Z"/><path class="cls-33" d="M40.13,15.22c0,2.6,1.72,4.18,3.74,3.6a5,5,0,0,0,3.42-4.6,3.55,3.55,0,0,0-3.42-3.66C41.85,10.53,40.13,12.61,40.13,15.22Z"/><path class="cls-34" d="M40.81,15.12c0,2.1,1.4,3.41,3.06,3a4.06,4.06,0,0,0,2.84-3.79,2.89,2.89,0,0,0-2.84-3C42.21,11.3,40.81,13,40.81,15.12Z"/><path class="cls-35" d="M40.93,15.1c0,2,1.34,3.27,2.94,2.86a3.89,3.89,0,0,0,2.73-3.65,2.77,2.77,0,0,0-2.73-2.9C42.27,11.44,40.93,13.09,40.93,15.1Z"/><path class="cls-36" d="M42.76,14.84c0,.72.5,1.22,1.11,1.11a1.45,1.45,0,0,0,1.07-1.41,1,1,0,0,0-1.07-1.11A1.37,1.37,0,0,0,42.76,14.84Z"/><path class="cls-37" d="M43.74,10.9a.13.13,0,1,0,.25,0c0-.08-.06-.15-.12-.14A.13.13,0,0,0,43.74,10.9Z"/><path class="cls-38" d="M43.74,18.43a.1.1,0,0,0,.13.11.2.2,0,0,0,.12-.18c0-.08-.06-.13-.12-.11A.2.2,0,0,0,43.74,18.43Z"/><path class="cls-39" d="M40.33,15.15c0,.09.06.16.13.15a.19.19,0,0,0,.14-.18.13.13,0,0,0-.14-.14A.17.17,0,0,0,40.33,15.15Z"/><path class="cls-40" d="M46.82,14.26a.11.11,0,0,0,.12.11.14.14,0,0,0,.11-.14.11.11,0,0,0-.11-.12A.16.16,0,0,0,46.82,14.26Z"/><path class="cls-41" d="M46.32,14v-.25l.23,0a.31.31,0,0,1,0-.08l-.21,0V13.4l.15,0,0-.07h-.12v-.25h0a1.74,1.74,0,0,0-.1-.19V13L46,13v-.25h.17a.56.56,0,0,0,0-.08H46v-.19l-.11-.14H45.7v-.22L45.59,12h-.2v-.17l-.07,0V12l-.25,0v-.27h.18l-.13-.07h0v0l-.07,0v.06h-.25v-.17l-.07,0v.21h-.25v-.27h0a2.35,2.35,0,0,0-.6-.06,2.59,2.59,0,0,0-.62.1h.13v.28h-.26v-.24l-.07,0v.22h-.26v-.12l-.08,0v.08h-.13l-.21.14v.24l-.26,0v0a1.85,1.85,0,0,1-.14.14H42v.3h-.26v-.06l-.12.17h0V13l-.23,0-.12.22v.18h-.08a.3.3,0,0,1,0,.1h.12v.3l-.22,0,0,.1.25,0v.3l-.27,0V14c0,.12,0,.25-.08.37v.28h0a.28.28,0,0,0,0,.09h0v.3h-.05v0s0,0,0,.05H41v.31h0s0,.06,0,.1h0v.27c0,.12,0,.23.08.35v-.24l.27,0v.3l-.25,0,0,.09.22,0v.29l-.11,0,0,.08h.07v.16l.12.2.23,0v.29h0l.11.12v0l.26-.06v.29h0l.12.09v0l.26-.06v.23a1.09,1.09,0,0,0,.23.09l.11,0V18l.08,0v-.1l.26-.07V18h.07V17.8l.26-.06V18H43.3a2.34,2.34,0,0,0,.57-.07,3.73,3.73,0,0,0,.56-.2v-.27l.25-.06v.19l.07,0v-.17l.25-.05v.05l.07-.06h0l.14-.11-.17,0V17l.25,0v.21l.07-.07v-.16l.19,0,.12-.15v-.21l.2,0L46,16.3v-.18l.12,0,0-.09L46,16v-.26l.23,0v.11a1,1,0,0,0,.09-.21h0v-.25l.12,0s0,0,0-.08l-.14,0v-.25l.21,0s0-.06,0-.08l-.22,0v-.25l.24,0v.14a3,3,0,0,0,0-.52,2.74,2.74,0,0,0,0-.5V14Zm0,.42.24,0v.25l-.24,0Zm0-.34.24,0v.25l-.24,0Zm-5,.55-.27,0v-.3l.27,0Zm0,.39-.27,0v-.3l.27,0Zm0,.39-.27,0v-.3l.27,0Zm0,.39-.27.05v-.3l.27,0Zm.35-2.38-.27,0v-.3l.27,0Zm0,.39-.27,0v-.3l.27,0Zm0,.39-.27,0v-.3l.27,0Zm0,.38-.27,0v-.3l.27,0Zm0,.39-.27,0v-.3l.27,0Zm0,.39-.27,0v-.3l.27,0Zm0,.39-.27,0v-.3l.27,0Zm0,.38-.27.05v-.3l.27,0Zm0,.39-.27.05v-.3l.27,0Zm0,.39-.27.05v-.3l.27-.05ZM42,13l-.26,0v-.29l.26,0Zm0,.38-.26,0v-.3l.26,0Zm0,.39-.26,0v-.29l.26,0Zm0,.38-.26,0v-.29l.26,0Zm0,.38-.26,0v-.29l.26,0Zm0,.38-.26,0v-.29l.26,0Zm0,.39-.26,0V15L42,15Zm0,.38-.26,0v-.29l.26,0Zm0,.38-.26.05v-.3l.26,0Zm0,.38-.26.05v-.29l.26-.05Zm0,.39-.26.05v-.3l.26-.05Zm0,.38-.26.06V17l.26-.05Zm.34-4.62-.26,0v-.29l.26,0Zm0,.38-.26,0v-.29l.26,0Zm0,.38-.26,0v-.3l.26,0Zm0,.38-.26,0v-.29l.26,0Zm0,.38-.26,0v-.29l.26,0Zm0,.38-.26,0v-.29l.26,0Zm0,.38-.26,0V14.6l.26,0Zm0,.37-.26,0V15l.26,0Zm0,.38-.26.05v-.29l.26,0Zm0,.38-.26,0v-.29l.26-.05Zm0,.38-.26.05v-.29l.26-.05Zm0,.38-.26.05v-.29l.26-.05Zm0,.38-.26.05v-.29l.26-.05Zm0,.38-.26,0v-.29l.26-.05Zm.34-5.32h-.26v-.29h.26Zm0,.37-.26,0v-.29h.26Zm0,.38-.26,0v-.29l.26,0Zm0,.37-.26,0v-.28l.26,0Zm0,.38-.26,0v-.29l.26,0Zm0,.37-.26,0V13.8l.26,0Zm0,.37-.26,0v-.29l.26,0Zm0,.38-.26,0v-.28l.26,0Zm0,.37-.26,0v-.29l.26,0Zm0,.38-.26,0v-.29l.26,0Zm0,.37-.26.05v-.29l.26,0Zm0,.38-.26,0v-.28l.26-.05Zm0,.37-.26.05v-.29l.26-.05Zm0,.38-.26.05v-.29l.26-.05Zm0,.37-.26.06V17.2l.26-.06Zm0,.38-.26.06v-.29l.26-.06Zm.34-5.64h-.26V11.9l.26,0Zm0,.37-.26,0v-.29h.26Zm0,.37-.26,0v-.29h.26Zm0,.37-.26,0V13l.26,0Zm0,.37-.26,0v-.29l.26,0Zm0,.37-.26,0v-.28l.26,0Zm0,.37-.26,0v-.28l.26,0Zm0,.37-.26,0v-.29l.26,0Zm0,.37-.26,0v-.28l.26,0Zm0,.37-.26.05v-.29l.26,0Zm0,.37-.26.05v-.29l.26,0Zm0,.37-.26.05V16l.26-.05Zm0,.37-.26.05v-.28l.26-.05Zm0,.37-.26.06v-.29l.26-.05Zm0,.38-.26.05v-.28l.26-.06Zm0,.37-.26.06V17.5l.26-.06Zm.33-5.58h-.26v-.28h.26Zm0,.37h-.26v-.28h.26Zm0,.36-.26,0v-.28l.26,0Zm0,.37-.26,0V13l.26,0Zm0,.37-.26,0v-.28l.26,0Zm0,.36-.26,0v-.28l.26,0Zm0,.37-.26,0V14.1l.26,0Zm0,.37-.26,0v-.28l.26,0Zm0,.36-.26,0v-.28l.26,0Zm0,.37-.26,0v-.28l.26,0Zm0,.37-.26,0v-.28l.26,0Zm0,.36-.26.05V16l.26,0Zm0,.37-.26.05v-.28l.26-.05Zm0,.36-.26.06v-.28l.26-.05Zm0,.37-.26.06v-.28l.26-.06Zm0,.37-.26.06v-.28l.26-.06Zm.33-5.88h-.26V11.5h.26Zm0,.36-.26,0v-.28l.26,0Zm0,.36-.26,0v-.28h.26Zm0,.37-.26,0V12.6l.26,0Zm0,.36-.26,0V13l.26,0Zm0,.36-.26,0v-.28l.26,0Zm0,.36-.26,0V13.7l.26,0Zm0,.37-.26,0v-.28l.26,0Zm0,.36-.26,0v-.28l.26,0Zm0,.36-.26,0v-.28l.26,0Zm0,.37-.26,0v-.28l.26,0Zm0,.36-.26,0v-.28l.26,0Zm0,.36-.26.05v-.28l.26,0Zm0,.36-.26.05v-.28l.26,0Zm0,.37-.26,0v-.28l.26-.05Zm0,.36-.26.05V17l.26-.06Zm0,.36-.26.06v-.28l.26-.05Zm0,.36-.26.07v-.28l.26-.06ZM44,11.75l-.26,0v-.28H44Zm0,.36-.26,0v-.28H44Zm0,.36-.26,0v-.28H44Zm0,.36-.26,0v-.27l.26,0Zm0,.36-.26,0v-.27l.26,0Zm0,.36-.26,0V13.3l.26,0Zm0,.36-.26,0v-.28l.26,0Zm0,.36-.26,0V14L44,14Zm0,.36-.26,0v-.28l.26,0ZM44,15l-.26,0v-.27l.26,0Zm0,.36-.26,0v-.27l.26,0Zm0,.36-.26.05v-.28l.26,0Zm0,.36-.26.05v-.28l.26,0Zm0,.36-.26,0v-.28l.26-.05Zm0,.36-.26,0v-.28L44,16.5Zm0,.36-.26.05v-.27l.26-.06Zm0,.36-.26.05v-.27l.26-.06Zm0,.36-.26.06v-.28l.26-.06Zm.32-6.12h-.25v-.27h.25Zm0,.36h-.25v-.27l.25,0Zm0,.35-.25,0v-.28h.25Zm0,.36-.25,0v-.28h.25Zm0,.35-.25,0v-.27l.25,0Zm0,.36-.25,0v-.27l.25,0Zm0,.35-.25,0v-.27l.25,0Zm0,.36-.25,0V14l.25,0Zm0,.35-.25,0v-.28l.25,0Zm0,.36-.25,0V14.7l.25,0Zm0,.35-.25,0v-.27l.25,0Zm0,.36-.25,0v-.27l.25,0Zm0,.35-.25.05v-.27l.25,0Zm0,.36-.25,0v-.27l.25-.05Zm0,.35-.25.05v-.27l.25,0Zm0,.36-.25.05v-.27l.25-.05Zm0,.35-.25.06v-.27l.25-.06Zm0,.36-.25.06v-.28l.25,0Zm.32-5.7h-.25v-.27h.25Zm0,.35-.25,0v-.27l.25,0Zm0,.35-.25,0v-.27l.25,0Zm0,.35-.25,0v-.28l.25,0Zm0,.35-.25,0v-.27l.25,0Zm0,.35-.25,0v-.27l.25,0Zm0,.36-.25,0V14l.25,0Zm0,.35-.25,0V14.3l.25,0Zm0,.35-.25,0v-.27l.25,0Zm0,.35-.25,0V15l.25,0Zm0,.35-.25,0v-.27l.25,0Zm0,.35-.25.05v-.27l.25,0Zm0,.35-.25.05v-.27l.25-.05Zm0,.35-.25.06v-.27l.25-.05Zm0,.36-.25.05v-.27l.25-.05Zm0,.35-.25,0v-.27l.25-.05ZM45,12.06h-.25v-.26H45Zm0,.35h-.25v-.26l.25,0Zm0,.35-.25,0v-.27l.25,0Zm0,.34-.25,0v-.27l.25,0Zm0,.35-.25,0v-.27l.25,0Zm0,.35-.25,0v-.27l.25,0Zm0,.35-.25,0v-.27l.25,0Zm0,.34-.25,0v-.27l.25,0Zm0,.35-.25,0v-.27l.25,0Zm0,.35-.25,0V15l.25,0Zm0,.35-.25,0v-.27l.25,0Zm0,.34-.25,0v-.27l.25,0Zm0,.35-.25.05V16L45,16Zm0,.35-.25.05v-.27l.25-.05Zm0,.35-.25.05v-.27l.25-.05Zm0,.34-.25.06v-.27L45,17Zm.32-4.88h-.25v-.26h.25Zm0,.34-.25,0v-.26l.25,0Zm0,.35-.25,0v-.27l.25,0Zm0,.34-.25,0v-.27l.25,0Zm0,.34-.25,0v-.26l.25,0Zm0,.35-.25,0v-.27l.25,0Zm0,.34-.25,0v-.26l.25,0Zm0,.35-.25,0v-.26l.25,0Zm0,.34-.25,0v-.27l.25,0Zm0,.34-.25,0v-.26l.25,0Zm0,.35-.25,0v-.26l.25,0Zm0,.34-.25,0V16l.25,0Zm0,.34-.25,0V16.3l.25-.05Zm0,.35-.25.05v-.26l.25,0Zm.31-4.49h-.24v-.26h.24Zm0,.34-.24,0v-.26l.24,0Zm0,.34-.24,0v-.26l.24,0Zm0,.34-.24,0v-.26l.24,0Zm0,.34-.24,0v-.26l.24,0Zm0,.34-.24,0v-.26l.24,0Zm0,.34-.24,0v-.26l.24,0Zm0,.34-.24,0v-.26l.24,0Zm0,.34-.24,0v-.26l.24,0Zm0,.34-.24,0v-.26l.24,0Zm0,.34-.24,0v-.26l.24,0Zm0,.34-.24.05v-.27l.24,0Zm0,.34-.24.05v-.26l.24,0Zm0,.34-.24.05v-.26l.24,0ZM46,12.68l-.25,0v-.26H46ZM46,13l-.25,0v-.26l.25,0Zm0,.34-.25,0v-.26l.25,0Zm0,.33-.25,0v-.26l.25,0ZM46,14l-.25,0V13.8l.25,0Zm0,.34-.25,0v-.26l.25,0Zm0,.33-.25,0v-.26l.25,0ZM46,15l-.25,0v-.26l.25,0Zm0,.34-.25,0v-.26l.25,0Zm0,.33-.25,0V15.5l.25,0Zm0,.34-.25.05v-.26l.25-.05Zm0,.34-.25,0v-.25l.25-.05Zm.3-3.06-.23,0v-.26l.23,0Zm0,.33-.23,0v-.26l.23,0Zm0,.33L46,14v-.26l.23,0Zm0,.34-.23,0V14.1l.23,0Zm0,.33-.23,0v-.25l.23,0Zm0,.33L46,15v-.26l.23,0Zm0,.34-.23,0v-.26l.23,0Zm0,.33-.23,0v-.25l.23,0Z"/><path class="cls-42" d="M41.67,6.06a2.62,2.62,0,0,0,2.2,2.77A2.07,2.07,0,0,0,46,6.63a2.87,2.87,0,0,0-2.08-2.74C42.67,3.62,41.68,4.59,41.67,6.06Z"/><path class="cls-43" d="M42.07,6.11a2.17,2.17,0,0,0,1.8,2.29,1.7,1.7,0,0,0,1.72-1.81,2.34,2.34,0,0,0-1.72-2.27C42.88,4.12,42.07,4.91,42.07,6.11Z"/><path class="cls-44" d="M42.14,6.12a2.09,2.09,0,0,0,1.73,2.2,1.62,1.62,0,0,0,1.65-1.74A2.25,2.25,0,0,0,43.87,4.4C42.92,4.21,42.14,5,42.14,6.12Z"/><path class="cls-45" d="M43.21,6.27a.82.82,0,0,0,.66.84.61.61,0,0,0,.64-.66.84.84,0,0,0-.64-.84A.6.6,0,0,0,43.21,6.27Z"/><path class="cls-46" d="M43.79,4.08a.11.11,0,0,0,.08.1s.07,0,.07-.07a.1.1,0,0,0-.07-.1A.07.07,0,0,0,43.79,4.08Z"/><path class="cls-47" d="M43.79,8.57a.09.09,0,0,0,.08.09.07.07,0,0,0,.07-.08.08.08,0,0,0-.07-.09A.08.08,0,0,0,43.79,8.57Z"/><path class="cls-48" d="M41.79,6.06a.1.1,0,0,0,.08.1s.07,0,.07-.08,0-.1-.07-.1S41.79,6,41.79,6.06Z"/><path class="cls-49" d="M45.66,6.58a.1.1,0,0,0,.07.09s.07,0,.07-.07a.08.08,0,0,0-.07-.09S45.66,6.54,45.66,6.58Z"/><path class="cls-50" d="M39.82,9.27a1.22,1.22,0,0,0,1,1.31,1.06,1.06,0,0,0,1-1.16,1.27,1.27,0,0,0-1-1.3C40.29,8,39.82,8.55,39.82,9.27Z"/><path class="cls-51" d="M40,9.28a1,1,0,0,0,.84,1.08.86.86,0,0,0,.81-.95,1,1,0,0,0-.81-1.08C40.39,8.27,40,8.7,40,9.28Z"/><path class="cls-52" d="M40,9.29a1,1,0,0,0,.81,1,.84.84,0,0,0,.78-.92,1,1,0,0,0-.78-1C40.41,8.32,40,8.73,40,9.29Z"/><path class="cls-53" d="M40.55,9.33a.36.36,0,0,0,.3.39.32.32,0,0,0,.31-.35.39.39,0,0,0-.31-.4C40.68,9,40.55,9.11,40.55,9.33Z"/><path class="cls-54" d="M40.82,8.21s0,0,0,0a0,0,0,0,0,0,0,0,0,0,0,0,0,0S40.82,8.19,40.82,8.21Z"/><path class="cls-55" d="M40.82,10.45s0,.05,0,.05a0,0,0,0,0,0,0,0,0,0,0,0,0-.05S40.82,10.43,40.82,10.45Z"/><path class="cls-56" d="M39.88,9.26s0,.05,0,.05a0,0,0,0,0,0,0s0,0,0,0S39.88,9.24,39.88,9.26Z"/><path class="cls-57" d="M41.7,9.4s0,0,0,0,0,0,0,0a.05.05,0,0,0,0-.05S41.7,9.38,41.7,9.4Z"/></g></g></g></g></svg>