<svg xmlns="http://www.w3.org/2000/svg" xmlns:xlink="http://www.w3.org/1999/xlink" viewBox="0 0 196.58 73"><defs><style>.cls-1{isolation:isolate;}.cls-2,.cls-26,.cls-27,.cls-28,.cls-29,.cls-30,.cls-31,.cls-34,.cls-37,.cls-38,.cls-39,.cls-40,.cls-41,.cls-42,.cls-43,.cls-46,.cls-57,.cls-58,.cls-59,.cls-60,.cls-61,.cls-62,.cls-64,.cls-67,.cls-68,.cls-69,.cls-70,.cls-71,.cls-72,.cls-73,.cls-74{mix-blend-mode:multiply;}.cls-3{fill:#fff;opacity:0;}.cls-4{fill:#f8f7f7;opacity:0.05;}.cls-5{fill:#f2f0f0;opacity:0.1;}.cls-6{fill:#ebe8e8;opacity:0.14;}.cls-7{fill:#e4e1e1;opacity:0.19;}.cls-8{fill:#ded9d9;opacity:0.24;}.cls-9{fill:#d7d2d2;opacity:0.29;}.cls-10{fill:#d0caca;opacity:0.33;}.cls-11{fill:#cac3c3;opacity:0.38;}.cls-12{fill:#c3bbbb;opacity:0.43;}.cls-13{fill:#bcb4b4;opacity:0.48;}.cls-14{fill:#b6acac;opacity:0.52;}.cls-15{fill:#afa5a5;opacity:0.57;}.cls-16{fill:#a89d9d;opacity:0.62;}.cls-17{fill:#a29696;opacity:0.67;}.cls-18{fill:#9b8e8e;opacity:0.71;}.cls-19{fill:#948787;opacity:0.76;}.cls-20{fill:#8e7f7f;opacity:0.81;}.cls-21{fill:#877878;opacity:0.86;}.cls-22{fill:#807070;opacity:0.9;}.cls-23{fill:#7a6969;opacity:0.95;}.cls-24{fill:#736161;}.cls-25{fill:url(#radial-gradient);}.cls-26,.cls-27,.cls-29,.cls-37,.cls-38,.cls-40,.cls-46,.cls-57,.cls-58,.cls-60,.cls-67,.cls-68,.cls-70{opacity:0.39;}.cls-26{fill:url(#radial-gradient-2);}.cls-27{fill:url(#radial-gradient-3);}.cls-28,.cls-30,.cls-31,.cls-34,.cls-39,.cls-41,.cls-42,.cls-43,.cls-59,.cls-61,.cls-62,.cls-64,.cls-69,.cls-71,.cls-72,.cls-73{opacity:0.18;}.cls-28{fill:url(#radial-gradient-4);}.cls-29{fill:url(#radial-gradient-5);}.cls-30{fill:url(#radial-gradient-6);}.cls-31{fill:url(#radial-gradient-7);}.cls-32{fill:#834a18;}.cls-32,.cls-63{fill-opacity:0.4;}.cls-33{fill:#733c12;}.cls-34{fill:url(#radial-gradient-8);}.cls-35{fill:#874911;}.cls-36{fill:url(#radial-gradient-9);}.cls-37{fill:url(#radial-gradient-10);}.cls-38{fill:url(#radial-gradient-11);}.cls-39{fill:url(#radial-gradient-12);}.cls-40{fill:url(#radial-gradient-13);}.cls-41{fill:url(#radial-gradient-14);}.cls-42{fill:url(#radial-gradient-15);}.cls-43{fill:url(#radial-gradient-16);}.cls-44{fill:#9d5825;}.cls-45{fill:url(#radial-gradient-17);}.cls-46{fill:url(#radial-gradient-18);}.cls-47{fill:#ba6e29;}.cls-47,.cls-49,.cls-52,.cls-54{opacity:0.5;}.cls-48{fill:#bd712b;}.cls-49,.cls-50{fill:#b66f30;}.cls-51{fill:url(#radial-gradient-19);}.cls-52{fill:#d58842;}.cls-53{fill:#d88b44;}.cls-54,.cls-55{fill:#d18949;}.cls-56{fill:url(#radial-gradient-20);}.cls-57{fill:url(#radial-gradient-21);}.cls-58{fill:url(#radial-gradient-22);}.cls-59{fill:url(#radial-gradient-23);}.cls-60{fill:url(#radial-gradient-24);}.cls-61{fill:url(#radial-gradient-25);}.cls-62{fill:url(#radial-gradient-26);}.cls-63{fill:#b16b2c;}.cls-64{fill:url(#radial-gradient-27);}.cls-65{fill:#b66924;}.cls-66{fill:url(#radial-gradient-28);}.cls-67{fill:url(#radial-gradient-29);}.cls-68{fill:url(#radial-gradient-30);}.cls-69{fill:url(#radial-gradient-31);}.cls-70{fill:url(#radial-gradient-32);}.cls-71{fill:url(#radial-gradient-33);}.cls-72{fill:url(#radial-gradient-34);}.cls-73{fill:url(#radial-gradient-35);}.cls-74{fill:#4c4040;opacity:0.3;}</style><radialGradient id="radial-gradient" cx="407.18" cy="-804.46" r="48.81" gradientTransform="translate(-484.24 -91.16) rotate(90) scale(0.32 0.64)" gradientUnits="userSpaceOnUse"><stop offset="0" stop-color="#905521"/><stop offset="1" stop-color="#8f5018"/></radialGradient><radialGradient id="radial-gradient-2" cx="407.18" cy="-1462.29" r="49.77" gradientTransform="translate(-436.62 -91.16) rotate(90) scale(0.32 0.32)" xlink:href="#radial-gradient"/><radialGradient id="radial-gradient-3" cx="407.18" cy="-803.73" r="48.64" xlink:href="#radial-gradient"/><radialGradient id="radial-gradient-4" cx="407.18" cy="-802.82" r="48.65" xlink:href="#radial-gradient"/><radialGradient id="radial-gradient-5" cx="437.97" cy="-801.5" r="21.16" xlink:href="#radial-gradient"/><radialGradient id="radial-gradient-6" cx="443.32" cy="-799.73" r="12.79" xlink:href="#radial-gradient"/><radialGradient id="radial-gradient-7" cx="455.77" cy="-798.7" r="3.98" xlink:href="#radial-gradient"/><radialGradient id="radial-gradient-8" cx="408.43" cy="-809.02" r="34.04" xlink:href="#radial-gradient"/><radialGradient id="radial-gradient-9" cx="407.18" cy="-1000.12" r="48.81" xlink:href="#radial-gradient"/><radialGradient id="radial-gradient-10" cx="407.18" cy="-1853.67" r="49.77" gradientTransform="translate(-436.62 -91.16) rotate(90) scale(0.32 0.32)" xlink:href="#radial-gradient"/><radialGradient id="radial-gradient-11" cx="407.18" cy="-999.39" r="48.64" xlink:href="#radial-gradient"/><radialGradient id="radial-gradient-12" cx="407.18" cy="-998.48" r="48.65" xlink:href="#radial-gradient"/><radialGradient id="radial-gradient-13" cx="437.97" cy="-997.16" r="21.16" xlink:href="#radial-gradient"/><radialGradient id="radial-gradient-14" cx="443.32" cy="-995.39" r="12.79" xlink:href="#radial-gradient"/><radialGradient id="radial-gradient-15" cx="455.77" cy="-994.36" r="3.98" xlink:href="#radial-gradient"/><radialGradient id="radial-gradient-16" cx="408.43" cy="-1004.68" r="34.04" xlink:href="#radial-gradient"/><radialGradient id="radial-gradient-17" cx="77.12" cy="707.12" r="72.81" gradientTransform="translate(12.82 -196.69) scale(1.11 0.31)" gradientUnits="userSpaceOnUse"><stop offset="0" stop-color="#c57c3b"/><stop offset="1" stop-color="#c37631"/></radialGradient><radialGradient id="radial-gradient-18" cx="77.12" cy="1574.5" r="72.81" gradientTransform="translate(12.82 -219.39) scale(1.11 0.15)" xlink:href="#radial-gradient-17"/><radialGradient id="radial-gradient-19" cx="-211.71" cy="-90.91" r="72.92" gradientTransform="translate(-136.33 -50.22) rotate(180) scale(1.11 0.64)" gradientUnits="userSpaceOnUse"><stop offset="0" stop-color="#e09653"/><stop offset="1" stop-color="#de904a"/></radialGradient><radialGradient id="radial-gradient-20" cx="441.48" cy="-782.83" r="58.75" gradientTransform="translate(-484.24 -93.38) rotate(90) scale(0.31 0.64)" gradientUnits="userSpaceOnUse"><stop offset="0" stop-color="#c17736"/><stop offset="1" stop-color="#bf722c"/></radialGradient><radialGradient id="radial-gradient-21" cx="441.48" cy="-1419.26" r="59.96" gradientTransform="translate(-436.62 -93.38) rotate(90) scale(0.31 0.32)" xlink:href="#radial-gradient-20"/><radialGradient id="radial-gradient-22" cx="441.48" cy="-781.93" r="58.53" xlink:href="#radial-gradient-20"/><radialGradient id="radial-gradient-23" cx="441.48" cy="-780.81" r="58.54" xlink:href="#radial-gradient-20"/><radialGradient id="radial-gradient-24" cx="479.4" cy="-779.19" r="24.71" xlink:href="#radial-gradient-20"/><radialGradient id="radial-gradient-25" cx="494.41" cy="-777.01" r="8.81" xlink:href="#radial-gradient-20"/><radialGradient id="radial-gradient-26" cx="499.78" cy="-775.74" r="4.9" xlink:href="#radial-gradient-20"/><radialGradient id="radial-gradient-27" cx="443.02" cy="-788.44" r="40.84" xlink:href="#radial-gradient-20"/><radialGradient id="radial-gradient-28" cx="-720.41" cy="-311.04" r="58.75" gradientTransform="translate(375.15 -180.07) rotate(-90) scale(0.31 0.64)" xlink:href="#radial-gradient-20"/><radialGradient id="radial-gradient-29" cx="-720.41" cy="-475.53" r="59.96" gradientTransform="translate(327.53 -180.07) rotate(-90) scale(0.31 0.32)" xlink:href="#radial-gradient-20"/><radialGradient id="radial-gradient-30" cx="-720.41" cy="-310.13" r="58.53" gradientTransform="translate(375.15 -180.07) rotate(-90) scale(0.31 0.64)" xlink:href="#radial-gradient-20"/><radialGradient id="radial-gradient-31" cx="-720.41" cy="-309.02" r="58.54" gradientTransform="translate(375.15 -180.07) rotate(-90) scale(0.31 0.64)" xlink:href="#radial-gradient-20"/><radialGradient id="radial-gradient-32" cx="-674.08" cy="-307.4" r="17.34" gradientTransform="translate(375.15 -180.07) rotate(-90) scale(0.31 0.64)" xlink:href="#radial-gradient-20"/><radialGradient id="radial-gradient-33" cx="-667.49" cy="-305.22" r="8.81" gradientTransform="translate(375.15 -180.07) rotate(-90) scale(0.31 0.64)" xlink:href="#radial-gradient-20"/><radialGradient id="radial-gradient-34" cx="-662.11" cy="-303.94" r="4.9" gradientTransform="translate(375.15 -180.07) rotate(-90) scale(0.31 0.64)" xlink:href="#radial-gradient-20"/><radialGradient id="radial-gradient-35" cx="-718.87" cy="-316.65" r="40.84" gradientTransform="translate(375.15 -180.07) rotate(-90) scale(0.31 0.64)" xlink:href="#radial-gradient-20"/></defs><title>table</title><g class="cls-1"><g id="Layer_2" data-name="Layer 2"><g id="table"><g id="table-2" data-name="table"><g class="cls-2"><path class="cls-3" d="M196.58,60.9c0,6.68-44,12.1-98.29,12.1S0,67.58,0,60.9,44,48.8,98.29,48.8,196.58,54.22,196.58,60.9Z"/><path class="cls-4" d="M192,60.9c0,6.37-41.95,11.53-93.71,11.53S4.57,67.27,4.57,60.9s42-11.52,93.72-11.52S192,54.54,192,60.9Z"/><path class="cls-5" d="M187.43,60.9c0,6.05-39.91,10.95-89.14,10.95S9.15,67,9.15,60.9,49.06,50,98.29,50,187.43,54.86,187.43,60.9Z"/><path class="cls-6" d="M182.86,60.9c0,5.73-37.87,10.38-84.57,10.38S13.72,66.63,13.72,60.9,51.58,50.53,98.29,50.53,182.86,55.17,182.86,60.9Z"/><path class="cls-7" d="M178.28,60.9c0,5.41-35.81,9.8-80,9.8s-80-4.39-80-9.8,35.82-9.8,80-9.8S178.28,55.49,178.28,60.9Z"/><path class="cls-8" d="M173.71,60.9c0,5.1-33.77,9.23-75.42,9.23S22.87,66,22.87,60.9s33.76-9.22,75.42-9.22S173.71,55.81,173.71,60.9Z"/><path class="cls-9" d="M169.14,60.9c0,4.78-31.72,8.65-70.85,8.65S27.44,65.68,27.44,60.9s31.72-8.65,70.85-8.65S169.14,56.13,169.14,60.9Z"/><path class="cls-10" d="M164.56,60.9c0,4.46-29.67,8.08-66.27,8.08S32,65.36,32,60.9s29.68-8.07,66.28-8.07S164.56,56.44,164.56,60.9Z"/><path class="cls-11" d="M160,60.9c0,4.15-27.62,7.5-61.7,7.5s-61.7-3.35-61.7-7.5,27.62-7.5,61.7-7.5S160,56.76,160,60.9Z"/><path class="cls-12" d="M155.42,60.9c0,3.83-25.58,6.93-57.13,6.93s-57.13-3.1-57.13-6.93S66.74,54,98.29,54,155.42,57.08,155.42,60.9Z"/><path class="cls-13" d="M150.84,60.9c0,3.51-23.53,6.35-52.55,6.35S45.73,64.41,45.73,60.9s23.53-6.35,52.56-6.35S150.84,57.39,150.84,60.9Z"/><path class="cls-14" d="M146.27,60.9c0,3.19-21.48,5.78-48,5.78s-48-2.59-48-5.78,21.48-5.78,48-5.78S146.27,57.71,146.27,60.9Z"/><path class="cls-15" d="M141.7,60.9c0,2.88-19.44,5.2-43.41,5.2s-43.41-2.32-43.41-5.2,19.43-5.2,43.41-5.2S141.7,58,141.7,60.9Z"/><path class="cls-16" d="M137.12,60.9c0,2.56-17.38,4.63-38.83,4.63S59.46,63.46,59.46,60.9s17.38-4.63,38.83-4.63S137.12,58.35,137.12,60.9Z"/><path class="cls-17" d="M132.55,60.9c0,2.24-15.34,4.05-34.26,4.05S64,63.14,64,60.9s15.34-4,34.26-4S132.55,58.66,132.55,60.9Z"/><path class="cls-18" d="M128,60.9c0,1.92-13.3,3.48-29.69,3.48S68.6,62.82,68.6,60.9s13.29-3.48,29.69-3.48S128,59,128,60.9Z"/><path class="cls-19" d="M123.4,60.9c0,1.61-11.24,2.91-25.11,2.91s-25.11-1.3-25.11-2.91S84.42,58,98.29,58,123.4,59.3,123.4,60.9Z"/><path class="cls-20" d="M118.83,60.9c0,1.29-9.2,2.33-20.54,2.33s-20.54-1-20.54-2.33,9.19-2.33,20.54-2.33S118.83,59.62,118.83,60.9Z"/><path class="cls-21" d="M114.25,60.9c0,1-7.14,1.76-16,1.76s-16-.79-16-1.76,7.15-1.75,16-1.75S114.25,59.93,114.25,60.9Z"/><path class="cls-22" d="M109.68,60.9c0,.65-5.1,1.18-11.39,1.18S86.9,61.55,86.9,60.9s5.1-1.18,11.39-1.18S109.68,60.25,109.68,60.9Z"/><path class="cls-23" d="M105.11,60.9c0,.34-3,.61-6.82.61s-6.82-.27-6.82-.61,3-.6,6.82-.6S105.11,60.57,105.11,60.9Z"/><path class="cls-24" d="M100.53,60.9s-1,0-2.24,0-2.25,0-2.25,0,1,0,2.25,0S100.53,60.89,100.53,60.9Z"/></g><rect class="cls-25" x="29.44" y="23.14" width="8.96" height="35.02"/><path class="cls-26" d="M36.56,58.16h1.07c-5.62-12.41-4.19-24.07.76-35H30.08C30.08,40.61,36.56,58.16,36.56,58.16Z"/><path class="cls-27" d="M30.46,23.14h-.38c0,17.47,6.48,35,6.48,35h.24S30.46,40.61,30.46,23.14Z"/><path class="cls-28" d="M36.28,58.16c-.84-1.64-6.69-18.85-6.71-35h-.13v7.31c1.27,12.38,5.33,26.33,6,27.71Z"/><path class="cls-29" d="M29.44,43.07V58.16h5.15C32.43,55.75,30.68,46.94,29.44,43.07Z"/><path class="cls-30" d="M32.3,58.16c-.16-.48-.67-1.88-1.12-2.85s-1.26-7.82-1.74-8.77v.37c.38.74,1,7.23,1.48,8.24.56,1.23,1,2.55,1.17,3Z"/><path class="cls-31" d="M30.77,58.16H31c-.23-.64-.59-1.58-.92-2.28-.15-.33-.37-.79-.61-1.28V55l.35.75C30.2,56.6,30.55,57.53,30.77,58.16Z"/><path class="cls-32" d="M29.44,57.23v.49c.06.15.11.3.16.44h.2C29.69,57.86,29.56,57.54,29.44,57.23Z"/><path class="cls-33" d="M36.53,23.14A27.22,27.22,0,0,0,35,25.74c-.57,1.12-1,2.64-1.28,2.64s-.49-1.46-.06-3.11a12.08,12.08,0,0,1,.69-2.13Z"/><path class="cls-34" d="M38.39,26.2s-3,9.35-2.63,16.37C36,47,38.39,56,38.39,56v.61s-3.08-9.93-3.08-14.17c0-7.53,3.08-17,3.08-17Z"/><path class="cls-35" d="M38.39,34.57s-.77,5.45-.77,7.22a3.63,3.63,0,0,0,.77,2.53Z"/><rect class="cls-36" x="155.46" y="23.14" width="8.96" height="35.02"/><path class="cls-37" d="M162.59,58.16h1.07c-5.62-12.41-4.19-24.07.76-35h-8.31C156.11,40.61,162.59,58.16,162.59,58.16Z"/><path class="cls-38" d="M156.48,23.14h-.37c0,17.47,6.48,35,6.48,35h.24S156.48,40.61,156.48,23.14Z"/><path class="cls-39" d="M162.31,58.16c-.84-1.64-6.69-18.85-6.71-35h-.14v7.31c1.28,12.38,5.33,26.33,6,27.71Z"/><path class="cls-40" d="M155.46,43.07V58.16h5.15C158.46,55.75,156.71,46.94,155.46,43.07Z"/><path class="cls-41" d="M158.33,58.16c-.17-.48-.67-1.88-1.12-2.85s-1.27-7.82-1.75-8.77v.37c.39.74,1,7.23,1.48,8.24a30.41,30.41,0,0,1,1.18,3Z"/><path class="cls-42" d="M156.8,58.16h.2c-.24-.64-.59-1.58-.92-2.28-.15-.33-.37-.79-.62-1.28V55q.19.39.36.75C156.22,56.6,156.57,57.53,156.8,58.16Z"/><path class="cls-32" d="M155.46,57.23v.49c.06.15.12.3.17.44h.19C155.71,57.86,155.59,57.54,155.46,57.23Z"/><path class="cls-33" d="M162.55,23.14a28.54,28.54,0,0,0-1.51,2.6c-.58,1.12-1,2.64-1.29,2.64s-.49-1.46-.05-3.11a12.08,12.08,0,0,1,.69-2.13Z"/><path class="cls-43" d="M164.42,26.2s-3,9.35-2.63,16.37C162,47,164.42,56,164.42,56v.61s-3.09-9.93-3.09-14.17c0-7.53,3.09-17,3.09-17Z"/><path class="cls-35" d="M164.42,34.57s-.77,5.45-.77,7.22a3.63,3.63,0,0,0,.77,2.53Z"/><rect class="cls-44" x="25.03" y="24.13" width="145.21" height="6.05" transform="translate(195.26 54.32) rotate(180)"/><rect class="cls-45" x="9.15" y="16.67" width="178.28" height="7.46"/><path class="cls-46" d="M187.43,24.13v-3C121.84,22.74,80,22.27,9.15,20.4v3.73Z"/><path class="cls-47" d="M134.93,19S118,17.82,73.57,17.35c-24.51-.27-64.42,0-64.42,0V17s41.39-.33,75.29-.11c36.35.23,76.78,1.78,76.88,2.18s-26.26,1.21-45.45,1.24C72.69,20.4,9.15,18.42,9.15,18.42v-.34s56.52,1.58,98.22,1.64c14.24,0,27.56-.73,27.56-.73Z"/><path class="cls-48" d="M9.15,17.63s45.51-.2,65.09.06C100,18,114.9,18.8,114.9,18.8s-16.93.6-33.26.48S9.15,18,9.15,18v-.14S68.13,19,80.86,19s17-.15,17.51-.23-14.58-.71-35.24-.88-54-.11-54-.11Z"/><path class="cls-48" d="M119.31,16.67c3.08.07,6.07.13,8.93.16,34.8.48,59.19,2.56,59.19,2.56V18.12s-14.58-.94-34.49-1.45Z"/><path class="cls-47" d="M9.15,20s64,1.66,100,1.87c36.81.21,78.25-.72,78.25-.72v.66s-41,.44-80.82.44S9.15,20.56,9.15,20.56Z"/><path class="cls-49" d="M9.15,21.27S39.43,22.41,67,22.85c32.69.51,120.44-.65,120.44-.65v.65s-85.91.73-121.23.2c-24.24-.36-57-1.43-57-1.43Z"/><path class="cls-50" d="M9.15,21.79S39.43,23.05,67,23.48c32.69.52,120.44-.18,120.44-.18v.18s-88.93.81-124.25.28c-24.25-.36-54-1.15-54-1.15Z"/><polygon class="cls-51" points="23.38 0 9.15 16.68 187.43 16.68 173.19 0 23.38 0"/><path class="cls-52" d="M186.76,15.89s-40.75.74-74.7.25c-36-.52-74-4-73.54-4.87S64.37,8.57,82.08,8.5c39.77-.16,102,4.26,102,4.26l.65.75S128.82,10,89.8,9.87a229.76,229.76,0,0,0-26.33,1.62S79,14.1,122.65,15.16C147.08,15.75,186,15,186,15Z"/><path class="cls-53" d="M185.59,14.53s-44.38.45-63.78-.13c-25.19-.76-39.37-2.48-39.37-2.48S98.59,10.58,114,10.85s70.93,2.91,70.93,2.91l.26.31S127,11.54,114.85,11.48s-16.13.33-16.64.51,14.14,1.59,34.32,2c20.33.38,52.78.23,52.78.23Z"/><path class="cls-53" d="M77.26,16.67c-3-.15-6-.27-8.82-.36-34-1.06-54.1-5.72-54.1-5.72l-2.43,2.85s12.64,2.09,31.73,3.23Z"/><path class="cls-52" d="M181.18,9.36s-60.4-3.73-92.59-4.19c-32.54-.47-71,1.6-71,1.6l1.25-1.46s37-1,72.1-1S180,8,180,8Z"/><path class="cls-54" d="M178.65,6.39s-28.74-2.55-53.2-3.52C97.1,1.72,19.69,4.32,19.69,4.32l1.24-1.45S95.53,1.22,126,2.41c21.38.81,52,3.2,52,3.2Z"/><path class="cls-55" d="M177.67,5.24S149.11,2.42,125,1.45C97.12.3,21.8,1.86,21.8,1.86l.34-.41s76-1.81,105.93-.62c21,.81,48,2.57,48,2.57Z"/><rect class="cls-56" x="14.47" y="23.59" width="11.03" height="40.45"/><path class="cls-57" d="M23.24,64h1.33c-6.93-14.67-5.17-27.5.93-40.45H15.27C15.27,44.25,23.24,64,23.24,64Z"/><path class="cls-58" d="M15.73,23.59h-.46c0,20.66,8,40.45,8,40.45h.3S15.73,44.25,15.73,23.59Z"/><path class="cls-59" d="M22.9,64c-1-1.94-8.24-21.33-8.26-40.45h-.17v8.65C16,46.87,21,62.41,21.87,64Z"/><path class="cls-60" d="M14.47,47.16V64h6.34C18.16,61.2,16,51.73,14.47,47.16Z"/><path class="cls-61" d="M18,64c-.21-.56-.83-2.22-1.38-3.36s-1.56-3.06-2.15-4.19v.44c.47.88,1.26,2.36,1.82,3.55A37.71,37.71,0,0,1,17.74,64Z"/><path class="cls-62" d="M16.11,64h.25c-.29-.76-.73-1.86-1.13-2.7l-.76-1.51v.43c.15.3.3.61.43.89C15.41,62.2,15.84,63.3,16.11,64Z"/><path class="cls-63" d="M14.47,62.94v.59l.2.51h.25C14.78,63.69,14.63,63.31,14.47,62.94Z"/><path class="cls-44" d="M23.2,23.59a34.72,34.72,0,0,0-1.87,3.07c-.7,1.33-1.26,3.13-1.58,3.13s-.6-1.72-.06-3.68a13.86,13.86,0,0,1,.85-2.52Z"/><path class="cls-64" d="M25.5,27.21s-3.64,11.06-3.24,19.36c.26,5.28,3.24,14.93,3.24,14.93v.72s-3.8-10.79-3.8-15.8c0-8.9,3.8-20,3.8-20Z"/><path class="cls-65" d="M25.5,37.11s-.95,6.44-.95,8.54a4.15,4.15,0,0,0,.95,3Z"/><rect class="cls-66" x="169.29" y="23.59" width="11.03" height="40.45"/><path class="cls-67" d="M171.55,23.59h-1.32c6.92,14.68,5.16,27.5-.94,40.45h10.23C179.52,43.38,171.55,23.59,171.55,23.59Z"/><path class="cls-68" d="M179.06,64h.46c0-20.66-8-40.45-8-40.45h-.3S179.06,43.38,179.06,64Z"/><path class="cls-69" d="M171.89,23.59c1,1.94,8.24,21.33,8.27,40.45h.16V55.39c-1.57-14.63-6.56-30.16-7.4-31.8Z"/><path class="cls-70" d="M180.32,35.24V23.59H174C176.63,26.43,178.79,30.67,180.32,35.24Z"/><path class="cls-71" d="M176.79,23.59c.21.56.83,2.22,1.38,3.37.48,1,1.56,3.06,2.15,4.18V30.7c-.47-.88-1.26-2.36-1.82-3.55a37.71,37.71,0,0,1-1.45-3.56Z"/><path class="cls-72" d="M178.68,23.59h-.25c.29.76.73,1.87,1.13,2.7.18.38.46.93.76,1.51v-.43c-.15-.3-.3-.6-.43-.89C179.39,25.43,179,24.33,178.68,23.59Z"/><path class="cls-63" d="M180.32,24.69v-.58l-.2-.52h-.25C180,23.94,180.16,24.32,180.32,24.69Z"/><path class="cls-44" d="M171.59,64A34.72,34.72,0,0,0,173.46,61c.7-1.33,1.26-3.13,1.58-3.13s.61,1.73.06,3.68a14.73,14.73,0,0,1-.84,2.52Z"/><path class="cls-73" d="M169.29,60.42s3.64-16.29,3.24-24.59a21.32,21.32,0,0,0-3.24-9.69v-.73s3.8,5.56,3.8,10.57c0,8.9-3.8,25.28-3.8,25.28Z"/><path class="cls-65" d="M169.29,45.29s1-6.44,1-8.54a4.19,4.19,0,0,0-1-3Z"/><rect class="cls-74" x="14.94" y="24.13" width="165.38" height="3"/><rect class="cls-74" x="167.4" y="24.13" width="1.89" height="5.9"/><rect class="cls-74" x="25.5" y="24.13" width="1.89" height="5.9"/></g></g></g></g></svg>