<svg xmlns="http://www.w3.org/2000/svg" xmlns:xlink="http://www.w3.org/1999/xlink" viewBox="0 0 228 112.27"><defs><style>.cls-1{isolation:isolate;}.cls-2{mix-blend-mode:multiply;}.cls-3{fill:#fff;opacity:0;}.cls-4{fill:#f8f7f7;opacity:0.05;}.cls-5{fill:#f2f0f0;opacity:0.1;}.cls-6{fill:#ebe8e8;opacity:0.14;}.cls-7{fill:#e4e1e1;opacity:0.19;}.cls-8{fill:#ded9d9;opacity:0.24;}.cls-9{fill:#d7d2d2;opacity:0.29;}.cls-10{fill:#d0caca;opacity:0.33;}.cls-11{fill:#cac3c3;opacity:0.38;}.cls-12{fill:#c3bbbb;opacity:0.43;}.cls-13{fill:#bcb4b4;opacity:0.48;}.cls-14{fill:#b6acac;opacity:0.52;}.cls-15{fill:#afa5a5;opacity:0.57;}.cls-16{fill:#a89d9d;opacity:0.62;}.cls-17{fill:#a29696;opacity:0.67;}.cls-18{fill:#9b8e8e;opacity:0.71;}.cls-19{fill:#948787;opacity:0.76;}.cls-20{fill:#8e7f7f;opacity:0.81;}.cls-21{fill:#877878;opacity:0.86;}.cls-22{fill:#807070;opacity:0.9;}.cls-23{fill:#7a6969;opacity:0.95;}.cls-24{fill:#736161;}.cls-25{fill:url(#linear-gradient);}.cls-26{fill:url(#linear-gradient-2);}.cls-27{fill:url(#linear-gradient-3);}.cls-28{fill:#c78525;}.cls-29{fill:url(#linear-gradient-4);}.cls-30{fill:url(#linear-gradient-5);}.cls-31{fill:url(#linear-gradient-6);}.cls-32{fill:#59717d;}.cls-33{fill:url(#linear-gradient-7);}</style><linearGradient id="linear-gradient" x1="121.61" y1="86.39" x2="168.41" y2="-32.18" gradientUnits="userSpaceOnUse"><stop offset="0" stop-color="#3e464a"/><stop offset="0.61" stop-color="#bdccd4"/><stop offset="1" stop-color="#5b666b"/></linearGradient><linearGradient id="linear-gradient-2" x1="141.49" y1="15.01" x2="141.5" y2="1.89" gradientUnits="userSpaceOnUse"><stop offset="0" stop-color="#5b666b"/><stop offset="0.61" stop-color="#919191"/><stop offset="1" stop-color="#5b666b"/></linearGradient><linearGradient id="linear-gradient-3" x1="209.76" y1="35.79" x2="274.12" y2="28.68" gradientUnits="userSpaceOnUse"><stop offset="0" stop-color="#5b666b"/><stop offset="0.61" stop-color="#fff"/><stop offset="1" stop-color="#5b666b"/></linearGradient><linearGradient id="linear-gradient-4" x1="92.5" y1="56.03" x2="112.5" y2="5.37" gradientUnits="userSpaceOnUse"><stop offset="0" stop-color="#c78525"/><stop offset="0.61" stop-color="#c7b395"/><stop offset="1" stop-color="#c78525"/></linearGradient><linearGradient id="linear-gradient-5" x1="137.5" y1="56.03" x2="157.5" y2="5.37" xlink:href="#linear-gradient-4"/><linearGradient id="linear-gradient-6" x1="182.5" y1="56.03" x2="202.5" y2="5.37" xlink:href="#linear-gradient-4"/><linearGradient id="linear-gradient-7" x1="35.99" y1="111.02" x2="68.74" y2="-18.91" xlink:href="#linear-gradient-3"/></defs><title>table_PC</title><g class="cls-1"><g id="Layer_2" data-name="Layer 2"><g id="table_PC"><g id="table_PC-2" data-name="table_PC"><g class="cls-2"><path class="cls-3" d="M103,50.46c8.63,13-2.14,35.31-24.07,49.92s-46.7,15.94-55.34,3S25.73,68,47.66,53.43,94.36,37.49,103,50.46Z"/><path class="cls-4" d="M101.15,51.69c8.23,12.35-2.05,33.64-23,47.57s-44.53,15.21-52.75,2.86,2-33.65,23-47.58S92.93,39.34,101.15,51.69Z"/><path class="cls-5" d="M99.3,52.92c7.82,11.73-2,32-21.85,45.23s-42.35,14.47-50.16,2.74,2-32,21.85-45.23S91.49,41.18,99.3,52.92Z"/><path class="cls-6" d="M97.46,54.15C104.86,65.26,95.57,84.46,76.7,97s-40.16,13.75-47.57,2.63S31,69.34,49.88,56.77,90.05,43,97.46,54.15Z"/><path class="cls-7" d="M95.61,55.38c7,10.5-1.8,28.65-19.65,40.54s-38,13-45,2.51,1.8-28.65,19.65-40.54S88.61,44.88,95.61,55.38Z"/><path class="cls-8" d="M93.76,56.61c6.59,9.88-1.72,27-18.54,38.19s-35.81,12.28-42.39,2.4,1.71-27,18.54-38.2S87.18,46.72,93.76,56.61Z"/><path class="cls-9" d="M91.91,57.84c6.18,9.27-1.63,25.32-17.44,35.85S40.85,105.24,34.68,96s1.63-25.32,17.43-35.85S85.74,48.57,91.91,57.84Z"/><path class="cls-10" d="M90.07,59.07c5.76,8.65-1.55,23.65-16.34,33.5s-31.44,10.82-37.21,2.17,1.55-23.66,16.34-33.51S84.3,50.42,90.07,59.07Z"/><path class="cls-11" d="M88.22,60.3c5.35,8-1.47,22-15.23,31.16s-29.26,10.08-34.62,2.05,1.46-22,15.23-31.16S82.86,52.26,88.22,60.3Z"/><path class="cls-12" d="M86.37,61.53C91.32,69,85,81.85,72.25,90.34s-27.09,9.36-32,1.94S41.6,72,54.34,63.46,81.43,54.11,86.37,61.53Z"/><path class="cls-13" d="M84.52,62.76c4.54,6.81-1.29,18.66-13,26.47s-24.9,8.62-29.43,1.82,1.29-18.66,13-26.47S80,56,84.52,62.76Z"/><path class="cls-14" d="M82.68,64c4.12,6.19-1.22,17-11.92,24.12S48,96,43.91,89.81s1.21-17,11.92-24.12S78.55,57.8,82.68,64Z"/><path class="cls-15" d="M80.83,65.22C84.54,70.8,79.7,80.55,70,87s-20.55,7.16-24.26,1.58,1.13-15.32,10.81-21.77S77.12,59.65,80.83,65.22Z"/><path class="cls-16" d="M79,66.45c3.3,5-1,13.66-9.71,19.43s-18.36,6.43-21.66,1.47,1-13.66,9.7-19.43S75.68,61.5,79,66.45Z"/><path class="cls-17" d="M77.13,67.69c2.9,4.34-.95,12-8.6,17.08s-16.18,5.7-19.07,1.35.95-12,8.6-17.08S74.24,63.34,77.13,67.69Z"/><path class="cls-18" d="M75.29,68.92c2.48,3.72-.88,10.32-7.5,14.73s-14,5-16.49,1.24.87-10.32,7.5-14.74S72.8,65.19,75.29,68.92Z"/><path class="cls-19" d="M73.44,70.15c2.07,3.11-.79,8.65-6.39,12.39s-11.83,4.23-13.9,1.12.79-8.66,6.39-12.39S71.37,67,73.44,70.15Z"/><path class="cls-20" d="M71.59,71.38c1.66,2.49-.7,7-5.29,10s-9.64,3.51-11.3,1,.7-7,5.28-10.05S69.93,68.88,71.59,71.38Z"/><path class="cls-21" d="M69.74,72.61c1.26,1.88-.62,5.32-4.18,7.7s-7.46,2.77-8.71.89.61-5.33,4.18-7.7S68.49,70.73,69.74,72.61Z"/><path class="cls-22" d="M67.9,73.84c.84,1.26-.54,3.66-3.08,5.35s-5.29,2-6.13.78.54-3.66,3.08-5.36S67.05,72.57,67.9,73.84Z"/><path class="cls-23" d="M66.05,75.07c.43.65-.45,2-2,3s-3.11,1.31-3.54.66.45-2,2-3S65.62,74.42,66.05,75.07Z"/><path class="cls-24" d="M64.2,76.3a4.42,4.42,0,0,1-.87.66,4.83,4.83,0,0,1-.94.55,4.4,4.4,0,0,1,.86-.67A4.67,4.67,0,0,1,64.2,76.3Z"/></g><rect class="cls-25" x="59" y="8" width="165" height="56"/><polygon class="cls-26" points="59 4 228 4 224 8 55 8 59 4"/><polygon class="cls-27" points="228 4 224 8 224 64 228 60 228 4"/><path class="cls-28" d="M81.9,16.66l1.21-1.05a4.73,4.73,0,0,1,3.11-1.15L85,15.5A4.74,4.74,0,0,0,81.9,16.66Z"/><path class="cls-28" d="M120.11,52.34l-1.21,1a4.79,4.79,0,0,0,1.66-3.7l1.21-1A4.77,4.77,0,0,1,120.11,52.34Z"/><polygon class="cls-28" points="85.01 15.5 86.22 14.46 116.49 14.46 115.28 15.5 85.01 15.5"/><polygon class="cls-28" points="120.18 20.35 121.39 19.31 121.77 48.65 120.56 49.69 120.18 20.35"/><path class="cls-28" d="M115.28,15.5l1.21-1a4.93,4.93,0,0,1,4.91,4.85l-1.22,1A4.92,4.92,0,0,0,115.28,15.5Z"/><rect class="cls-29" x="81" y="15" width="40" height="39" rx="4.75" ry="4.75"/><path class="cls-28" d="M126.9,16.66l1.21-1.05a4.73,4.73,0,0,1,3.11-1.15l-1.21,1A4.74,4.74,0,0,0,126.9,16.66Z"/><path class="cls-28" d="M165.11,52.34l-1.21,1a4.79,4.79,0,0,0,1.66-3.7l1.21-1A4.77,4.77,0,0,1,165.11,52.34Z"/><polygon class="cls-28" points="130.01 15.5 131.22 14.46 161.49 14.46 160.28 15.5 130.01 15.5"/><polygon class="cls-28" points="165.18 20.35 166.4 19.31 166.77 48.65 165.56 49.69 165.18 20.35"/><path class="cls-28" d="M160.28,15.5l1.21-1a4.93,4.93,0,0,1,4.91,4.85l-1.22,1A4.92,4.92,0,0,0,160.28,15.5Z"/><rect class="cls-30" x="126" y="15" width="40" height="39" rx="4.75" ry="4.75"/><path class="cls-28" d="M171.9,16.66l1.21-1.05a4.73,4.73,0,0,1,3.11-1.15l-1.21,1A4.74,4.74,0,0,0,171.9,16.66Z"/><path class="cls-28" d="M210.11,52.34l-1.21,1a4.79,4.79,0,0,0,1.66-3.7l1.21-1A4.77,4.77,0,0,1,210.11,52.34Z"/><polygon class="cls-28" points="175.01 15.5 176.22 14.46 206.49 14.46 205.28 15.5 175.01 15.5"/><polygon class="cls-28" points="210.18 20.35 211.4 19.31 211.77 48.65 210.56 49.69 210.18 20.35"/><path class="cls-28" d="M205.28,15.5l1.21-1a4.93,4.93,0,0,1,4.91,4.85l-1.22,1A4.92,4.92,0,0,0,205.28,15.5Z"/><rect class="cls-31" x="171" y="15" width="40" height="39" rx="4.75" ry="4.75"/><path class="cls-32" d="M57,41c0-10.17,2.25-18.12,12-21L120,1V4L74.49,21.4a21.52,21.52,0,0,0-14,20.11V98l-3,2.5Z"/><path class="cls-33" d="M0,97l58,3V41A24.45,24.45,0,0,1,74,18.08L120,1,61,0,14.41,13.75A20.1,20.1,0,0,0,0,33Z"/></g></g></g></g></svg>