<svg xmlns="http://www.w3.org/2000/svg" xmlns:xlink="http://www.w3.org/1999/xlink" viewBox="0 0 87 280.52"><defs><style>.cls-1{fill:url(#radial-gradient);}.cls-2{fill:url(#radial-gradient-2);}.cls-3{fill:url(#radial-gradient-3);}.cls-4{fill:#83807f;}.cls-5{fill:#c5c2bc;}.cls-6{fill:url(#linear-gradient);}.cls-7{fill:url(#linear-gradient-2);}.cls-8{fill:#dad5cd;}.cls-9{fill:#9a9794;}.cls-10{fill:#7d7d7d;}.cls-11{fill:#e9e3da;}.cls-12{fill:#a6a29e;}.cls-13{fill:url(#linear-gradient-3);}.cls-14{fill:url(#linear-gradient-4);}.cls-15{fill:url(#linear-gradient-5);}.cls-16{fill:url(#linear-gradient-6);}.cls-17{fill:#b1b0ad;}.cls-18{fill:#8b8987;}.cls-19{fill:#b0aba6;}.cls-20{fill:#bdb8b2;}.cls-21{fill:url(#linear-gradient-7);}.cls-22{fill:#b6b4b1;}.cls-23{fill:#9d9b99;}.cls-24{fill:#cdc9c5;}.cls-25{fill:#828383;}.cls-26{fill:#524c49;}.cls-27{fill:#020202;}.cls-28{fill:#605a54;}.cls-29{fill:#706864;}.cls-30{fill:#7c736e;}.cls-31{fill:#948c88;}.cls-32{fill:#6b6964;}.cls-33{fill:#bab6af;}.cls-34{fill:#a19e99;}.cls-35{fill:#d6d1c8;}</style><radialGradient id="radial-gradient" cx="59.49" cy="2141.28" r="134.45" gradientTransform="matrix(1, 0.03, -0.01, 0.26, -3.04, -313.17)" gradientUnits="userSpaceOnUse"><stop offset="0" stop-opacity="0.35"/><stop offset="1" stop-opacity="0"/></radialGradient><radialGradient id="radial-gradient-2" cx="-14.22" cy="2411.13" r="18.93" gradientTransform="matrix(1, -0.05, 0.01, 0.26, 4.72, -380.44)" gradientUnits="userSpaceOnUse"><stop offset="0.09" stop-opacity="0.45"/><stop offset="1" stop-opacity="0"/></radialGradient><radialGradient id="radial-gradient-3" cx="-2379.52" cy="-786.28" r="18.33" gradientTransform="matrix(-1, 0.02, -0.01, -0.31, -2323.23, 74.01)" xlink:href="#radial-gradient-2"/><linearGradient id="linear-gradient" x1="-498.02" y1="1814.74" x2="-469.07" y2="1814.74" gradientTransform="matrix(0, 1, 1, 0, -1797.87, 717.29)" gradientUnits="userSpaceOnUse"><stop offset="0" stop-color="#221f1f"/><stop offset="0.05" stop-color="#1e1b1b" stop-opacity="0.88"/><stop offset="0.33" stop-color="#0d0c0c" stop-opacity="0.39"/><stop offset="0.62" stop-color="#030303" stop-opacity="0.09"/><stop offset="1" stop-opacity="0"/></linearGradient><linearGradient id="linear-gradient-2" x1="-466.68" y1="1860.04" x2="-438.23" y2="1860.04" xlink:href="#linear-gradient"/><linearGradient id="linear-gradient-3" x1="-2410.85" y1="1087.79" x2="-2409.43" y2="1087.79" gradientTransform="matrix(-1, -0.02, -0.02, 1, -2323.22, -1099.66)" gradientUnits="userSpaceOnUse"><stop offset="0.01" stop-color="#a5a4a4"/><stop offset="0.28" stop-color="#c7c7c7"/><stop offset="1" stop-color="#676767"/></linearGradient><linearGradient id="linear-gradient-4" x1="4.78" y1="112.32" x2="6.05" y2="112.32" gradientTransform="matrix(1, -0.02, -0.02, -1, 10.55, 162.07)" xlink:href="#linear-gradient-3"/><linearGradient id="linear-gradient-5" x1="-13.7" y1="-37.33" x2="-11.99" y2="-37.33" gradientTransform="matrix(1, -0.04, -0.04, -1, 24.68, 133.97)" xlink:href="#linear-gradient-3"/><linearGradient id="linear-gradient-6" x1="87.77" y1="29.49" x2="90.09" y2="29.49" gradientTransform="matrix(1, 0.03, 0.03, -1, -21.71, 220.33)" xlink:href="#linear-gradient-3"/><linearGradient id="linear-gradient-7" x1="-2113.8" y1="-577.32" x2="-1670.29" y2="-577.32" gradientTransform="matrix(0, -1, -1, 0, -536.07, -1616.71)" xlink:href="#linear-gradient"/></defs><title>wardrobe</title><g id="Layer_2" data-name="Layer 2"><g id="wardrobe"><g id="wardrobe-2" data-name="wardrobe"><g id="wardrobe-3" data-name="wardrobe"><path class="cls-1" d="M86.45,278.33c0,3.36-5.36,2.77-15-1.2a187.87,187.87,0,0,1-32.14-17.79A191.46,191.46,0,0,1,11.1,236.67C3.64,229.28,0,224.11,0,221.18s3.66-2.79,11.18.22c10,4,19.28,9.79,28.3,15.41a255.38,255.38,0,0,1,32,23.53C81.08,268.69,86.45,275,86.45,278.33Z"/><path class="cls-2" d="M24.08,242.27c1.24,1.57,1.86,2.86,1.86,3.83s-.65,1.38-1.9,1.22a10.85,10.85,0,0,1-4.5-2.08,20.28,20.28,0,0,1-4.43-4.16c-1.21-1.56-1.81-2.82-1.8-3.79s.62-1.39,1.84-1.24a10.77,10.77,0,0,1,4.44,2A21.07,21.07,0,0,1,24.08,242.27Z"/><path class="cls-3" d="M59.87,265a22.92,22.92,0,0,1,5.43,4.82c1.53,1.9,2.3,3.45,2.3,4.62s-.78,1.75-2.32,1.63a13.31,13.31,0,0,1-5.45-2.32,23,23,0,0,1-5.27-4.63c-1.43-1.8-2.14-3.29-2.13-4.49s.72-1.73,2.16-1.71A11.09,11.09,0,0,1,59.87,265Z"/><polygon class="cls-4" points="19.95 234.42 38 234.93 38 243.93 20.15 245.67 19.95 234.42"/><path class="cls-5" d="M13.47,229.57c2.72,2.3,4.08,3.46,6.84,5.77-.06,4.2-.1,6.27-.16,10.33l-6.75-4.75C13.43,236.43,13.45,234.16,13.47,229.57Z"/><path class="cls-6" d="M13.47,229.93c2.71,2.32,4.08,3.49,6.84,5.82-.07,4.18-.1,6.23-.16,10.27-2.73-1.91-4.08-2.86-6.75-4.75C13.43,236.79,13.44,234.52,13.47,229.93Z"/><path class="cls-5" d="M20.15,245.67c0-.55,0-1.57,0-3.08,0-.87,0-1.78.1-2.73,0-.53,0-.79.06-1.33,0,1.51,0,2.25,0,3.74,0,1-.06,2.14-.18,3.4Z"/><polygon class="cls-4" points="66.25 262.8 66.04 275.45 82 273.93 82 259.93 66.25 262.8"/><path class="cls-5" d="M58,259.61c3.28,1.65,5,2.49,8.36,4.18,0,5,0,7.45,0,12-3.38-2.16-5-3.22-8.27-5.32C58,266.31,58,264.13,58,259.61Z"/><path class="cls-7" d="M58,260.05c3.27,1.63,5,2.46,8.36,4.13,0,5,0,7.43,0,11.95-3.38-2.17-5-3.23-8.27-5.33C58,266.69,58,264.54,58,260.05Z"/><path class="cls-8" d="M71.15,260.67C50.82,248.52,30.7,236.08,11,222.88q.52-95.53,1-191.08C32,24.32,51.58,16,71.47,8.42Q71.26,134.54,71.15,260.67Z"/><path class="cls-9" d="M67.58,209.29c-18.07-7.87-36-15.91-53.74-24.62q.44-73.41.87-146.81C32.51,31.18,50.12,24,67.9,17.31Q67.7,113.29,67.58,209.29Z"/><path class="cls-10" d="M67.58,209.58c-18-8.24-36-16.65-53.73-25.62.46-.88.69-1.32,1.15-2.22q25.55,12.31,51.46,23.76Z"/><path class="cls-10" d="M14.71,37.86c17.68-6.63,35.16-13.74,52.83-20.42,0,1.28,0,1.93,0,3.24-17.67,6.56-35.16,13.56-52.84,20.1C14.7,39.6,14.7,39,14.71,37.86Z"/><path class="cls-8" d="M66.46,205.57c-17.36-7.35-34.58-14.95-51.66-22.94q.43-71.53.87-143.08C32.77,33.17,49.7,26.37,66.8,20Q66.59,112.78,66.46,205.57Z"/><path class="cls-11" d="M15.67,39.25c17.1-6.4,34-13.21,51.13-19.62,0,1,0,1.5,0,2.52-17.09,6.32-34,13-51.14,19.36C15.66,40.6,15.66,40.15,15.67,39.25Z"/><path class="cls-9" d="M41.82,29.52q-.55,82.7-.94,165.4l-1.2-.93q.48-82,1-164Z"/><path class="cls-10" d="M41.48,29.44q-.55,82.41-.95,164.81c-.17-.22-.25-.34-.41-.57q.47-82,1-164.08Z"/><path class="cls-8" d="M73.23,266.33C51.68,252.91,30.47,239.1,9.6,224.66c0-2.83,0-4.25,0-7.11,20.8,14.18,42.09,27.55,63.61,40.6C73.23,261.51,73.23,263.15,73.23,266.33Z"/><path class="cls-5" d="M73.23,268.62c-21.55-13.51-42.77-27.4-63.64-41.93,0-1.89,0-2.84,0-4.74,20.87,14.34,42.08,28,63.62,41.35Z"/><path class="cls-12" d="M9.59,224.91c20.88,14.48,42.09,28.32,63.64,41.77,0,1.47,0,2.2,0,3.63-21.54-13.59-42.77-27.55-63.64-42.15C9.58,226.86,9.59,226.21,9.59,224.91Z"/><path class="cls-11" d="M9.63,217c20.81,14.14,42.09,27.48,63.61,40.5v3.15C51.71,247.51,30.42,234,9.62,219.7,9.63,218.64,9.63,218.1,9.63,217Z"/><path class="cls-13" d="M68.7,32.19l-.41.14a1.32,1.32,0,0,1-.51.1c0-2.83,0-4.23,0-6.95a1.2,1.2,0,0,1,.56-.31c.44-.16.67-.14.67.06,0,2.6,0,3.93-.06,6.63,0,.08-.09.19-.26.33Z"/><path class="cls-14" d="M14.62,52.4c-.06.12-.25.24-.58.35l-.36.11c-.14,0-.22-.07-.22-.14V47c0-.17.19-.32.58-.46s.61-.12.61,0C14.64,48.92,14.63,50.07,14.62,52.4Z"/><path class="cls-15" d="M14,181c0,.18-.2.18-.6,0h-.21a.58.58,0,0,1-.34-.55c0-7.06,0-10.61-.06-17.73,0-.15.19-.21.56-.18s.6.31.6.49c0,7.23,0,10.83.05,18Z"/><path class="cls-16" d="M68.43,181.43c.45.3.68.55.68.75C69,192,69,196.76,68.84,206.11c0,.24-.24.26-.71,0l-.35-.15-.1-.12c0-.76,0-3.41-.08-8-.07-5.2-.09-10.21-.07-15a10.33,10.33,0,0,0,.29-1.4c.12-.11.33-.12.61,0Z"/><path class="cls-17" d="M13.46,52.72l1.16-.32c-.07,3.93-.1,5.92-.16,9.9-.51-3.1-.82-5.19-.92-6.31-.06-.71-.09-1.47-.08-2.27Z"/><path class="cls-17" d="M67.78,32.43l.92-.24c-.34,4.19-.51,6.34-.85,10.72C67.82,38.61,67.81,36.52,67.78,32.43Z"/><path class="cls-18" d="M12.81,180.4,14,181c-.05,1.2-.07,1.8-.11,3C13.43,182.53,13.22,181.82,12.81,180.4Z"/><path class="cls-18" d="M67.68,205.89l1.16.22c-.5,1.4-.76,2.1-1.26,3.47Z"/><polygon class="cls-19" points="73 269.93 87 268.93 87 256.93 73 257.93 73 269.93 73 269.93"/><polygon class="cls-8" points="71 8.93 87 7.93 87 254.93 71.16 256.28 71 8.93"/><polygon class="cls-20" points="87 256.93 87 254.93 71 255.93 73 257.93 87 256.93"/><path class="cls-21" d="M71.13,254.07C50.81,242.25,30.71,230.14,11,217.26q.5-92.8,1-185.61C32,24.18,51.56,15.87,71.44,8.27Q71.25,131.17,71.13,254.07Z"/><path class="cls-22" d="M48.27,37l5-1.81q-.33,75.89-.58,151.76c-2.08-.8-3.1-1.21-5.13-2Q47.91,111,48.27,37Zm4.67,1.13-4.39,1.55Q48.16,111,47.87,182.2l4.51,1.7Q52.65,111,52.94,38.16Z"/><path class="cls-23" d="M47.87,181.66l4.51,1.68c.06,1.44.1,2.15.16,3.58L47.71,185C47.77,183.69,47.81,183,47.87,181.66Z"/><path class="cls-11" d="M48,34.83,53.14,33c-.08,2-.12,3-.2,5.09L48.55,39.6C48.34,37.67,48.24,36.71,48,34.83Z"/><path class="cls-9" d="M47.68,35.14c2.47-.92,3.72-1.39,6.26-2.31q-.33,78.24-.58,156.48l-6.42-2.57Q47.3,110.93,47.68,35.14Zm5.6,0-5,1.82q-.39,73.26-.7,146.51l5.13,2Q53,110.25,53.28,35.1Z"/><path class="cls-24" d="M47.56,184.11l5.14,2c.21,1,.32,1.57.53,2.62l-6.17-2.45Z"/><path class="cls-25" d="M47.8,35.2c2.37-.87,3.56-1.32,6-2.2-.19.76-.29,1.15-.49,1.92l-5,1.77C48.08,36.09,48,35.79,47.8,35.2Z"/><path class="cls-22" d="M56.6,34l5.51-1.93q-.22,79.19-.39,158.37l-5.63-2.17Q56.35,111.17,56.6,34Zm5.16,1.08-4.85,1.66q-.27,74.32-.48,148.64l5,1.83Q61.57,111.18,61.76,35.11Z"/><path class="cls-23" d="M56.43,184.85l5,1.82c.07,1.5.1,2.24.17,3.74l-5.31-2C56.32,187,56.36,186.26,56.43,184.85Z"/><path class="cls-11" d="M56.35,31.78l5.61-2c-.08,2.06-.12,3.11-.2,5.22l-4.85,1.66C56.69,34.68,56.57,33.7,56.35,31.78Z"/><path class="cls-9" d="M56,32.09c2.7-1,4.07-1.46,6.87-2.44q-.22,81.63-.39,163.26l-7-2.78Q55.67,111.11,56,32.09ZM62.11,32c-2.23.77-3.33,1.16-5.49,1.93q-.3,76.38-.52,152.78c2.22.84,3.34,1.27,5.62,2.12Q61.92,110.4,62.11,32Z"/><path class="cls-24" d="M56.09,187.39l5.63,2.14c.24,1.1.35,1.65.59,2.75l-6.78-2.66C55.76,188.73,55.87,188.29,56.09,187.39Z"/><path class="cls-25" d="M56.09,32.16c2.6-.93,3.91-1.41,6.6-2.35-.23.8-.35,1.19-.58,2l-5.49,1.87C56.41,33.06,56.3,32.76,56.09,32.16Z"/><path class="cls-22" d="M21.22,46.89c1.87-.66,2.81-1,4.69-1.67q-.5,65.34-.91,130.68L20.34,174Q20.78,110.43,21.22,46.89Zm4.39,1-4.13,1.44q-.45,61.13-.86,122.25l4.12,1.64Q25.18,110.59,25.61,47.92Z"/><path class="cls-23" d="M20.63,171.15l4.11,1.63c.06,1.23.08,1.85.14,3.07L20.47,174C20.53,172.88,20.56,172.3,20.63,171.15Z"/><path class="cls-11" d="M21,44.86l4.81-1.74c-.08,1.86-.12,2.8-.2,4.69l-4.13,1.44C21.28,47.48,21.19,46.6,21,44.86Z"/><path class="cls-9" d="M20.66,45.13C23,44.3,24.18,43.87,26.53,43q-.5,67.46-.94,134.92l-5.83-2.48Q20.21,110.29,20.66,45.13Zm5.27,0-4.71,1.68q-.46,62.93-.88,125.86l4.69,1.9Q25.47,109.84,25.93,45.11Z"/><path class="cls-24" d="M20.34,173.22,25,175.14c.19.9.29,1.36.48,2.27L19.88,175C20.06,174.32,20.16,174,20.34,173.22Z"/><path class="cls-25" d="M20.78,45.2c2.25-.81,3.38-1.21,5.63-2-.19.72-.29,1.07-.48,1.79-1.88.66-2.83,1-4.71,1.62C21,46,21,45.75,20.78,45.2Z"/><path class="cls-22" d="M29,44.11l4.95-1.81q-.49,68.45-.9,136.89l-5-2Q28.5,110.64,29,44.11Zm4.63,1-4.38,1.57q-.46,64-.88,128.05l4.4,1.72Q33.18,110.74,33.62,45.07Z"/><path class="cls-23" d="M28.36,174.2l4.4,1.71c.06,1.29.08,1.94.14,3.22l-4.72-1.92C28.26,176,28.29,175.41,28.36,174.2Z"/><path class="cls-11" d="M29.24,46.53c-.2-1.82-.3-2.71-.49-4.49l5.07-1.89c-.08,1.91-.12,2.87-.2,4.81Z"/><path class="cls-9" d="M28.39,42.33l6.2-2.3q-.51,70.64-.92,141.28l-6.25-2.61Q27.9,110.51,28.39,42.33Zm5.55-.14L29,44q-.51,65.9-.93,131.77l5,2Q33.49,110,33.94,42.19Z"/><path class="cls-24" d="M33.55,180.76c-2.42-1-3.61-1.49-6-2.48.2-.76.3-1.14.49-1.91,2,.81,3,1.21,5,2C33.25,179.34,33.35,179.81,33.55,180.76Z"/><path class="cls-25" d="M29,43.79l-.48-1.39,6-2.22c-.2.73-.3,1.1-.51,1.84Z"/><path class="cls-26" d="M39.88,111.67a14.22,14.22,0,0,1-.61,4.26c-.4,1.17-.86,1.73-1.39,1.67s-1-.68-1.3-1.89a15.19,15.19,0,0,1-.48-4.29,14.13,14.13,0,0,1,.61-4.18c.4-1.12.85-1.68,1.36-1.67s1,.62,1.33,1.81A13.86,13.86,0,0,1,39.88,111.67Z"/><path class="cls-27" d="M39.86,112.39a13,13,0,0,1,.07,1.58q-.09,4.65-1.92,4.94c-.44.12-.88-.33-1.3-1.33a8.75,8.75,0,0,1-.68-3.86c0-.51,0-1,.07-1.53a12.67,12.67,0,0,0,.56,3.78c.33,1,.73,1.58,1.22,1.63s.91-.41,1.29-1.41A12.72,12.72,0,0,0,39.86,112.39Z"/><path class="cls-28" d="M39.46,111a11.94,11.94,0,0,1-.55,3.73c-.36,1-.77,1.54-1.22,1.49s-.85-.59-1.17-1.62a13.4,13.4,0,0,1-.42-3.78,12.81,12.81,0,0,1,.55-3.72c.34-1,.75-1.49,1.22-1.48s.84.56,1.15,1.63a12.49,12.49,0,0,1,.44,3.75Z"/><path class="cls-29" d="M39.08,110.45a11.4,11.4,0,0,1-.47,3.26c-.3.87-.65,1.28-1,1.23s-.74-.51-1-1.41a11.58,11.58,0,0,1-.36-3.26,10.48,10.48,0,0,1,.46-3.15c.3-.87.65-1.29,1-1.27s.72.47,1,1.37a10.67,10.67,0,0,1,.37,3.23Z"/><path class="cls-30" d="M38.45,109.62a8.15,8.15,0,0,1-.33,2.34c-.22.65-.48,1-.78.92s-.52-.32-.72-1a7.74,7.74,0,0,1-.27-2.36,7.38,7.38,0,0,1,.36-2.32c.21-.64.46-1,.75-1s.53.36.72,1A7.87,7.87,0,0,1,38.45,109.62Z"/><path class="cls-31" d="M38.07,109.12a4.27,4.27,0,0,1-.21,1.43c-.12.39-.27.58-.45.59s-.32-.25-.44-.64a4.74,4.74,0,0,1-.17-1.4,5.54,5.54,0,0,1,.21-1.42c.14-.39.29-.59.47-.6s.32.24.44.62a4.33,4.33,0,0,1,.15,1.42Z"/><path class="cls-26" d="M45.82,111.77a15,15,0,0,1-.63,4.41c-.39,1.21-.86,1.79-1.4,1.73s-1-.71-1.35-2a15.93,15.93,0,0,1-.49-4.45,14,14,0,0,1,.62-4.26q.6-1.81,1.41-1.8c.52,0,1,.64,1.34,1.88a15.08,15.08,0,0,1,.5,4.44Z"/><path class="cls-27" d="M45.79,112.52c.05.54.08,1.11.08,1.69-.06,3.17-.71,4.86-1.94,5.05-.46.13-.91-.34-1.36-1.37a9.38,9.38,0,0,1-.69-4c0-.64,0-1,.07-1.59a13.54,13.54,0,0,0,.57,3.92c.35,1.07.78,1.64,1.27,1.69s.94-.43,1.32-1.46A13.64,13.64,0,0,0,45.79,112.52Z"/><path class="cls-28" d="M45.38,111a12.64,12.64,0,0,1-.56,3.85c-.35,1.08-.76,1.59-1.23,1.54s-.86-.61-1.18-1.68a13.12,13.12,0,0,1-.46-3.91,13.77,13.77,0,0,1,.58-3.86c.33-1,.74-1.53,1.22-1.51s.87.57,1.19,1.68a12.15,12.15,0,0,1,.44,3.89Z"/><path class="cls-29" d="M44.61,107.16a11.49,11.49,0,0,1,.38,3.35,12.17,12.17,0,0,1-.47,3.37c-.31.9-.67,1.32-1.07,1.28s-.73-.54-1-1.47a10.94,10.94,0,0,1-.39-3.31,11.19,11.19,0,0,1,.47-3.26c.3-.94.66-1.4,1.06-1.38S44.34,106.23,44.61,107.16Z"/><path class="cls-30" d="M44.35,109.65a8.37,8.37,0,0,1-.34,2.42c-.23.67-.48,1-.77,1s-.55-.39-.74-1a8.67,8.67,0,0,1-.29-2.45,7.89,7.89,0,0,1,.36-2.4c.21-.67.46-1,.77-1s.54.32.73,1a7.46,7.46,0,0,1,.28,2.4Z"/><path class="cls-31" d="M44,109.19a4,4,0,0,1-.21,1.41c-.13.41-.28.61-.46.61s-.33-.26-.45-.65a5.75,5.75,0,0,1,.06-2.93c.12-.4.27-.61.45-.62s.33.26.45.65a4.86,4.86,0,0,1,.16,1.53Z"/><path class="cls-9" d="M14.55,191.8c9.52,5.22,14.31,7.77,24.51,13.07C39,216.36,39,222,38.89,232.53q-12.34-7.72-24.5-15.79c.07-9.79.1-14.8.16-24.93Zm23.12,37.58c.06-8.91.09-13.56.15-23.07-9.24-4.9-13.61-7.28-22.28-12.11-.06,8.52-.09,12.73-.14,21C24,220.82,28.41,223.61,37.67,229.38Z"/><path class="cls-10" d="M14.4,216.32c.4-.51.6-.77,1-1.3v.16c8.64,5.64,13,8.43,22.27,14.2v-.23l1.22,2.93Q26.55,224.37,14.4,216.32Z"/><path class="cls-11" d="M15.54,194.2c8.67,4.83,13,7.21,22.28,12.11,0,.65,0,1,0,1.64-9.24-5-13.61-7.39-22.28-12.28C15.53,195.08,15.53,194.79,15.54,194.2Z"/><path class="cls-10" d="M39.06,204.87c-.5.58-.74.87-1.24,1.44-9.24-4.9-13.61-7.28-22.28-12.11-.4-1-.6-1.44-1-2.4C24.07,197,28.86,199.57,39.06,204.87Z"/><path class="cls-26" d="M27.63,208a14.55,14.55,0,0,1,.41,3.84A8.12,8.12,0,0,1,27.5,215c-.32.79-.7,1-1.13.66a3.79,3.79,0,0,1-1.11-2.19,14.67,14.67,0,0,1-.4-3.83,9,9,0,0,1,.53-3.19c.32-.77.7-1,1.15-.71A3.75,3.75,0,0,1,27.63,208Z"/><path class="cls-27" d="M28,212.46a11.92,11.92,0,0,1,0,1.34c0,2.5-.58,3.52-1.58,3.09-.38-.16-.75-.75-1.11-1.75a10.18,10.18,0,0,1-.57-3.58c0-.5,0-.75.07-1.25a13.86,13.86,0,0,0,.45,3.41,3.6,3.6,0,0,0,1.05,2c.4.29.76.12,1.07-.52A7,7,0,0,0,28,212.46Z"/><path class="cls-28" d="M27.32,207.6a12.59,12.59,0,0,1,.35,3.4,7.83,7.83,0,0,1-.46,2.85c-.29.69-.63.9-1,.63a3.46,3.46,0,0,1-1-2,13,13,0,0,1-.35-3.36,7.78,7.78,0,0,1,.45-2.79c.3-.7.63-.93,1-.67A3.21,3.21,0,0,1,27.32,207.6Z"/><path class="cls-29" d="M27.36,210.42a7,7,0,0,1-.4,2.43c-.24.58-.53.74-.87.49a3,3,0,0,1-.84-1.68,11.44,11.44,0,0,1-.29-2.88,6.9,6.9,0,0,1,.39-2.43c.26-.57.55-.75.87-.52a2.92,2.92,0,0,1,.84,1.68A11.22,11.22,0,0,1,27.36,210.42Z"/><path class="cls-30" d="M26.85,209.44a5.26,5.26,0,0,1-.29,1.76c-.19.42-.4.53-.64.36a2,2,0,0,1-.6-1.21,8.53,8.53,0,0,1-.24-2.12,5.24,5.24,0,0,1,.29-1.75c.19-.43.4-.57.63-.44a2.21,2.21,0,0,1,.61,1.26A9.17,9.17,0,0,1,26.85,209.44Z"/><path class="cls-31" d="M26.52,208.79a3.3,3.3,0,0,1-.17,1.1c-.11.24-.23.31-.38.23a1.24,1.24,0,0,1-.36-.73,4.41,4.41,0,0,1-.15-1.28,3.07,3.07,0,0,1,.18-1.08c.11-.28.23-.36.38-.24a1.24,1.24,0,0,1,.37.73A4.76,4.76,0,0,1,26.52,208.79Z"/><path class="cls-9" d="M67.76,218.5l-.06,30.87c-9.18-5.48-18.36-11-27.42-16.65.06-10.66.1-16.29.17-27.88Q54,211.83,67.76,218.5Zm-1.47,27.43c0-9.78,0-15,0-25.77-10.56-5.26-15.44-7.74-24.81-12.64-.05,9.7-.08,14.43-.14,23.47Q53.75,238.61,66.29,245.93Z"/><path class="cls-10" d="M66.29,245.93v-.25l1.41,3.2c-9.18-5.47-18.35-11-27.42-16.62.44-.57.67-.86,1.11-1.45V231Q53.75,238.61,66.29,245.93Z"/><path class="cls-11" d="M41.53,207.52c9.37,4.9,14.25,7.38,24.81,12.64V222c-10.57-5.34-15.44-7.86-24.82-12.83C41.53,208.52,41.53,208.19,41.53,207.52Z"/><path class="cls-10" d="M67.76,218.5l-1.42,1.66c-10.56-5.26-15.44-7.74-24.81-12.64l-1.08-2.68Q54,211.83,67.76,218.5Z"/><path class="cls-26" d="M56,227.06a9,9,0,0,1-.59,3.46c-.39.83-.84,1-1.35.67a4.09,4.09,0,0,1-1.27-2.35,14.61,14.61,0,0,1-.49-4.09,9.33,9.33,0,0,1,.61-3.48c.37-.86.81-1.15,1.32-.83a4.46,4.46,0,0,1,1.3,2.44,14.62,14.62,0,0,1,.47,4.18Z"/><path class="cls-27" d="M56,227.68q.07,1.06.06,1.5c0,2.77-.64,3.84-1.83,3.27-.43-.12-.86-.74-1.3-1.86a10.38,10.38,0,0,1-.66-3.86l.05-1.36a14.38,14.38,0,0,0,.55,3.7A3.89,3.89,0,0,0,54,231.19c.47.35.89.18,1.26-.53A7.07,7.07,0,0,0,56,227.68Z"/><path class="cls-28" d="M55.56,226.19a8,8,0,0,1-.52,3.07q-.51,1-1.2.57a3.63,3.63,0,0,1-1.13-2.08,13.29,13.29,0,0,1-.43-3.63,8.48,8.48,0,0,1,.54-3.08q.49-1.14,1.17-.72a3.67,3.67,0,0,1,1.14,2.17A13,13,0,0,1,55.56,226.19Z"/><path class="cls-29" d="M55.19,225.53a6.46,6.46,0,0,1-.46,2.61c-.28.64-.62.82-1,.55a3.14,3.14,0,0,1-1-1.79,12,12,0,0,1-.35-3.16,6.66,6.66,0,0,1,.44-2.62c.28-.66.62-.86,1-.61a3.14,3.14,0,0,1,1,1.81A12.29,12.29,0,0,1,55.19,225.53Z"/><path class="cls-30" d="M54.57,224.43a4.53,4.53,0,0,1-.32,1.92c-.2.48-.45.61-.75.4a2.41,2.41,0,0,1-.7-1.33,9.21,9.21,0,0,1-.27-2.31,5.19,5.19,0,0,1,.34-1.91q.3-.73.72-.45a2.36,2.36,0,0,1,.72,1.36A8.09,8.09,0,0,1,54.57,224.43Z"/><path class="cls-31" d="M54.22,223.72a3.39,3.39,0,0,1-.2,1.17c-.14.31-.28.39-.45.26a1.23,1.23,0,0,1-.43-.75A5.44,5.44,0,0,1,53,223a3.19,3.19,0,0,1,.2-1.16c.13-.31.28-.4.44-.27s.32.36.44.81a5.25,5.25,0,0,1,.17,1.37Z"/><polygon class="cls-32" points="87 7.93 87 5.93 75 6.93 70.42 9.01 87 7.93"/><path class="cls-8" d="M8.81,27.15C31.27,19.26,53.05,9.49,75.29,1V7.23C53,15.57,31.22,25.25,8.78,33.15,8.79,30.74,8.8,29.54,8.81,27.15Z"/><path class="cls-5" d="M8.79,30.64C31.24,22.73,53,13,75.29,4.6V7.34C53,15.68,31.22,25.35,8.78,33.25,8.79,32.2,8.79,31.68,8.79,30.64Z"/><path class="cls-11" d="M8.81,27C31.27,19.11,53.05,9.34,75.29.89V3.16C53,11.59,31.25,21.33,8.8,29.24,8.8,28.34,8.81,27.9,8.81,27Z"/><polygon class="cls-33" points="86.81 0.15 75.29 1.04 75.29 7.23 86.78 6.15 86.81 0.15"/><polygon class="cls-34" points="86.8 3.64 75.29 4.6 75.29 7.34 86.78 6.25 86.8 3.64"/><polygon class="cls-35" points="86.81 0 75.29 0.9 75.29 3.16 86.8 2.24 86.81 0"/></g></g></g></g></svg>