<svg xmlns="http://www.w3.org/2000/svg" xmlns:xlink="http://www.w3.org/1999/xlink" viewBox="0 0 205 259"><defs><style>.cls-1{fill:#ffc993;}.cls-2{fill:#f0bd8a;}.cls-3{fill:#e8b886;}.cls-4{fill:#b5866d;}.cls-5{fill:#ca947b;}.cls-6{fill:#ca9479;}.cls-7{fill:url(#linear-gradient);}.cls-8{fill:url(#linear-gradient-2);}.cls-9{fill:url(#radial-gradient);}.cls-10{fill:url(#radial-gradient-2);}.cls-11{fill:#f49336;}.cls-12{fill:#ffa852;}</style><linearGradient id="linear-gradient" x1="149.49" y1="124.33" x2="166.85" y2="116.09" gradientUnits="userSpaceOnUse"><stop offset="0" stop-color="#e8b886"/><stop offset="0.49" stop-color="#f6c28e"/><stop offset="1" stop-color="#ffc993"/></linearGradient><linearGradient id="linear-gradient-2" x1="-52.51" y1="124.33" x2="-35.15" y2="116.09" gradientTransform="matrix(-1, 0, 0, 1, 2.84, 0)" xlink:href="#linear-gradient"/><radialGradient id="radial-gradient" cx="103.5" cy="129" r="2.85" gradientUnits="userSpaceOnUse"><stop offset="0" stop-color="#fff" stop-opacity="0.5"/><stop offset="0.11" stop-color="#fff" stop-opacity="0.42"/><stop offset="0.4" stop-color="#fff" stop-opacity="0.24"/><stop offset="0.65" stop-color="#fff" stop-opacity="0.11"/><stop offset="0.86" stop-color="#fff" stop-opacity="0.03"/><stop offset="1" stop-color="#fff" stop-opacity="0"/></radialGradient><radialGradient id="radial-gradient-2" cx="17.63" cy="164" r="2.85" gradientTransform="translate(65.71) scale(2.14 1)" xlink:href="#radial-gradient"/></defs><title>ava_colo1_m</title><g id="Layer_2" data-name="Layer 2"><g id="face_2" data-name="face 2"><path class="cls-1" d="M180,181c-4-1-49-9-49-9l-.5-10.43L102,161l-27.5.57L74,172s-45,8-49,9S0,189,0,219v40H205V219C205,189,184,182,180,181Z"/><path class="cls-2" d="M103,192c13.06,0,25-7.14,34.11-18.91L131,172l-.5-10.43L102,161l-27.5.57L74,172l-5.23.93C77.91,184.8,89.89,192,103,192Z"/><path class="cls-3" d="M103,173a47.9,47.9,0,0,0,27.62-9l-.12-2.42L102,161l-27.5.57-.08,1.71A48,48,0,0,0,103,173Z"/><path class="cls-4" d="M180,181c-2.12-.53-15.71-3-28-5.24-4.7,20.69-24.83,36.24-49,36.24s-44.38-15.64-49-36.42c-12.58,2.27-26.83,4.88-29,5.42-4,1-25,8-25,38v40H205V219C205,189,184,182,180,181Z"/><path class="cls-5" d="M47.13,176.83c5.26,23.7,28.28,41.54,55.87,41.54s50.49-17.76,55.83-41.37L152,175.76c-4.7,20.69-24.83,36.24-49,36.24s-44.38-15.64-49-36.42Z"/><path class="cls-5" d="M0,219v40H35c0-10-.23-9,0-16,.91-28.28-7.32-57.37-8.78-62.27L25,181C21,182,0,189,0,219Z"/><path class="cls-6" d="M205,219v40H170c0-10,.23-9,0-16-.91-28.28,7.32-57.37,8.78-62.27L180,181C184,182,205,189,205,219Z"/><path class="cls-7" d="M155,131s-1,5,2,5,4-3,5-5,1-5,3-9,5-12,5-16,0-6-2-6-7,8-7,10C161,121,155,131,155,131Z"/><path class="cls-8" d="M49.84,131s1,5-2,5-4-3-5-5-1-5-3-9-5-12-5-16,0-6,2-6,7,8,7,10C43.84,121,49.84,131,49.84,131Z"/><path class="cls-1" d="M162.5,108.5a60,60,0,0,1-120,0c0-33.14-.5-89.5,60-89.5S162.5,75.36,162.5,108.5Z"/><path class="cls-3" d="M112,131c-3,0-6,3.89-9,4-3-.11-5.79-4-8.75-4s-3,3,0,3,5.75,3,8.75,3,6.12-3,9-3S115,131,112,131Z"/><ellipse class="cls-9" cx="103.5" cy="129" rx="3.5" ry="2"/><ellipse class="cls-10" cx="103.5" cy="164" rx="7.5" ry="2"/><path class="cls-11" d="M166,45c-3.45-9.48-8-32-10-45-12,4-38.94,7-54,7C72.71,7,52,24,41,41s-5,59-5,59,3,0,7,7c0-11,0-20,5-29S58,66,67,67c11.11,1.23,14.71,6,37,6,23,0,30.07-4.51,39-6,6-1,10,3,15,12s4,17,4,28c5-8,7-7,7-7S174,67,166,45Z"/><path class="cls-12" d="M160,35c0-11.18-2-22-4-35-18,4-41,9-56,11C71,14.87,56.61,23,53,41c-3,15,5,19,5,19s9-13,16-16c-2,5-1,8-1,10A52.47,52.47,0,0,1,94,44a59.56,59.56,0,0,0-3,11c18-13,16-14,24-17-6,9-6,8-7,19,2.07-1.5,7-4,11-8-1,5,0,5-3,11,3.31-.53,17.53-16.63,21-17-3,10-6.84,20.84-5,19,6-6,15.94-14.26,19-18a58.49,58.49,0,0,1-2,14S160,47,160,35Z"/></g></g></svg>