<svg xmlns="http://www.w3.org/2000/svg" xmlns:xlink="http://www.w3.org/1999/xlink" viewBox="0 0 205 271.02"><defs><style>.cls-1{fill:#ffc993;}.cls-2,.cls-3{fill:#e8b886;}.cls-2{opacity:0.43;}.cls-4{fill:#4cd1fa;}.cls-5{fill:#4ba1b9;}.cls-6{fill:#70503c;}.cls-7{fill:url(#linear-gradient);}.cls-8{fill:url(#linear-gradient-2);}.cls-9{fill:url(#radial-gradient);}.cls-10{fill:url(#radial-gradient-2);}.cls-11{fill:url(#radial-gradient-3);}.cls-12{fill:url(#radial-gradient-4);}.cls-13{fill:#8b644b;}</style><linearGradient id="linear-gradient" x1="149.49" y1="136.35" x2="166.85" y2="128.11" gradientUnits="userSpaceOnUse"><stop offset="0" stop-color="#e8b886"/><stop offset="0.49" stop-color="#f6c28e"/><stop offset="1" stop-color="#ffc993"/></linearGradient><linearGradient id="linear-gradient-2" x1="391.49" y1="136.35" x2="408.85" y2="128.11" gradientTransform="matrix(-1, 0, 0, 1, 446.84, 0)" xlink:href="#linear-gradient"/><radialGradient id="radial-gradient" cx="103.5" cy="141.02" r="2.85" gradientUnits="userSpaceOnUse"><stop offset="0" stop-color="#fff" stop-opacity="0.5"/><stop offset="0.11" stop-color="#fff" stop-opacity="0.42"/><stop offset="0.4" stop-color="#fff" stop-opacity="0.24"/><stop offset="0.65" stop-color="#fff" stop-opacity="0.11"/><stop offset="0.86" stop-color="#fff" stop-opacity="0.03"/><stop offset="1" stop-color="#fff" stop-opacity="0"/></radialGradient><radialGradient id="radial-gradient-2" cx="136.03" cy="176.02" r="2.85" gradientTransform="translate(-188) scale(2.14 1)" xlink:href="#radial-gradient"/><radialGradient id="radial-gradient-3" cx="228.62" cy="138.26" r="9.98" gradientTransform="matrix(0.78, 0.62, -0.62, 0.78, 51.99, -109.76)" gradientUnits="userSpaceOnUse"><stop offset="0" stop-color="#ffb484"/><stop offset="0.09" stop-color="#ffb484" stop-opacity="0.97"/><stop offset="0.22" stop-color="#ffb484" stop-opacity="0.9"/><stop offset="0.36" stop-color="#ffb484" stop-opacity="0.79"/><stop offset="0.53" stop-color="#ffb484" stop-opacity="0.63"/><stop offset="0.7" stop-color="#ffb484" stop-opacity="0.42"/><stop offset="0.89" stop-color="#ffb484" stop-opacity="0.17"/><stop offset="1" stop-color="#ffb484" stop-opacity="0"/></radialGradient><radialGradient id="radial-gradient-4" cx="437.21" cy="162.59" r="9.98" gradientTransform="matrix(-0.62, -0.78, -0.78, 0.62, 456.27, 382.53)" xlink:href="#radial-gradient-3"/></defs><title>ava_colo1_f</title><g id="Layer_2" data-name="Layer 2"><g id="face_1" data-name="face 1"><path class="cls-1" d="M180,193c-4-1-49-9-49-9l-.5-10.42L102,173l-27.5.58L74,184s-45,8-49,9S0,201,0,231v40H205V231C205,201,184,194,180,193Z"/><path class="cls-2" d="M103,204c13.06,0,25-7.14,34.11-18.91L131,184l-.5-10.42L102,173l-27.5.58L74,184l-5.23.94C77.91,196.82,89.89,204,103,204Z"/><path class="cls-3" d="M103,185a47.83,47.83,0,0,0,27.62-9l-.12-2.41L102,173l-27.5.58-.08,1.71A48.07,48.07,0,0,0,103,185Z"/><path class="cls-4" d="M180,193c-2.93-.73-27.88-5.22-41-7.57V196a37.11,37.11,0,0,1-37,37h0a37.11,37.11,0,0,1-37-37V185.63C51.65,188,27.86,192.31,25,193c-4,1-25,8-25,38v40H205V231C205,201,184,194,180,193Z"/><path class="cls-5" d="M56.22,187.21v8.27a45.8,45.8,0,0,0,45.66,45.66h0a45.8,45.8,0,0,0,45.67-45.66V187L139,185.45V196a37.11,37.11,0,0,1-37,37h0a37.11,37.11,0,0,1-37-37V185.63Z"/><path class="cls-5" d="M0,231v40H35c0-10-.23-9,0-16,.91-28.27-7.32-57.37-8.78-62.27L25,193C21,194,0,201,0,231Z"/><path class="cls-5" d="M205,231v40H170c0-10,.23-9,0-16-.91-28.27,7.32-57.37,8.78-62.27L180,193C184,194,205,201,205,231Z"/><path class="cls-6" d="M71.89,34.4S73,1,107,0s52,31,66,69,16,94,16,94v19c0,8-15,16-25,19s-33,10-32,0,3-31,3-31Z"/><path class="cls-7" d="M155,143s-1,5,2,5,4-3,5-5,1-5,3-9,5-12,5-16,0-6-2-6-7,8-7,10C161,133,155,143,155,143Z"/><path class="cls-8" d="M49.84,143s1,5-2,5-4-3-5-5-1-5-3-9-5-12-5-16,0-6,2-6,7,8,7,10C43.84,133,49.84,143,49.84,143Z"/><path class="cls-1" d="M162.5,120.52a60,60,0,0,1-120,0c0-33.13-.5-89.5,60-89.5S162.5,87.39,162.5,120.52Z"/><path class="cls-3" d="M112,143c-3,0-6,3.89-9,4-3-.11-5.79-4-8.75-4s-3,3,0,3,5.75,3,8.75,3,6.12-3,9-3S115,143,112,143Z"/><ellipse class="cls-9" cx="103.5" cy="141.02" rx="3.5" ry="2"/><ellipse class="cls-10" cx="103.5" cy="176.02" rx="7.5" ry="2"/><ellipse class="cls-11" cx="145.5" cy="140.52" rx="12.21" ry="7.07" transform="translate(-56.75 144.04) rotate(-45)"/><ellipse class="cls-12" cx="57.5" cy="140.52" rx="7.07" ry="12.21" transform="translate(-82.52 81.82) rotate(-45)"/><path class="cls-13" d="M162,61c-11-17-30-31-60-31C72.71,30,53.71,44,42.71,61s-7,51-7,51S42,110,44,131c0-11,2.71-29,7.71-38s12.07-14.55,20-16c11-2,8,1,30.29,1,23,0,20-3,31-1,7.93,1.45,15,7,20,16s7,27,7,38c4-21,9-19,9-19S173,78,162,61Z"/><path class="cls-4" d="M99,30a84.56,84.56,0,0,1,27.11,4.38c0-1.68-.11-3.49-.11-5.38,0-8.83-9.85-16-22-16S82,20.19,82,29c0,.91,0,1.8,0,2.67A86.74,86.74,0,0,1,99,30Z"/></g></g></svg>