<svg xmlns="http://www.w3.org/2000/svg" xmlns:xlink="http://www.w3.org/1999/xlink" viewBox="0 0 34.37 17.4"><defs><style>.cls-1{fill:none;}.cls-2{fill:#e8b886;opacity:0.42;}.cls-3{clip-path:url(#clip-path);}.cls-4{fill:#bd966d;}.cls-5{fill:#99775e;}.cls-6{fill:#fff;}</style><clipPath id="clip-path" transform="translate(0 -0.05)"><path class="cls-1" d="M.39,8.26a.8.8,0,0,0-.08.68c.07.23.21.74.56.62C3.14,8.74,5.12,7.3,7.4,6.5a.29.29,0,0,1,.16,0c3.29.78,6.26,2,9.7,2A23.38,23.38,0,0,0,27,6.05a.28.28,0,0,1,.18,0c2.26.48,4.18,1.83,6.37,2.51.34.11.53-.31.59-.57A.56.56,0,0,0,34,7.37c-.16-.2,0,0-.3-.23C26.88,2.68,25.8-.34,17,0S7.29,3.36.68,8c-.33.23-.16.09-.29.26S.37,8.28.39,8.26Z"/></clipPath></defs><title>mouth_sad_color1</title><g id="Layer_2" data-name="Layer 2"><g id="face_Sick" data-name="face Sick"><path class="cls-2" d="M7.36,17.45c3,0,6.05-1.59,9-1.66s5.8,1.66,8.75,1.66,3-1,0-1-5.75-2-8.75-2-6.11,2-9,2S4.36,17.45,7.36,17.45Z" transform="translate(0 -0.05)"/><g id="smile"><g class="cls-3"><path class="cls-4" d="M.75,9.21A.39.39,0,0,1,.41,9a.4.4,0,0,1,.1-.46c1.13-.91,2.08-1.73,3-2.48C7.61,2.49,9.69.7,17.05.45l1.35,0c6.21,0,8.34,1.67,12.23,4.72.93.72,2,1.55,3.21,2.45A.36.36,0,0,1,34,8a.38.38,0,0,1-.35.23h0a9.06,9.06,0,0,1-2.84-1.16A7.18,7.18,0,0,0,27.67,6a3,3,0,0,0-.52,0c-1.07.25-2.09.55-3.07.85a22.15,22.15,0,0,1-6.46,1.23h-.37A27.83,27.83,0,0,1,12,7.33a30,30,0,0,0-4.63-.77H7.17A7.72,7.72,0,0,0,3.75,7.88,11.31,11.31,0,0,1,.83,9.2Z" transform="translate(0 -0.05)"/><path class="cls-5" d="M18.4.8C26,.8,27.31,3.31,33.62,7.9c-1.95-.3-4-2.28-5.95-2.28a2.6,2.6,0,0,0-.61.07c-3.35.77-6.1,2.07-9.44,2.07h-.36c-3.51-.1-6.35-1.33-9.88-1.57H7.17c-2.12,0-4.3,2.19-6.42,2.65,6.43-5.2,7.55-7.7,16.31-8L18.4.8m0-.75L17,.08C9.54.33,7.3,2.27,3.22,5.78,2.36,6.51,1.39,7.35.28,8.25a.75.75,0,0,0-.21.91.77.77,0,0,0,.68.42H.91a11.47,11.47,0,0,0,3-1.36A7.39,7.39,0,0,1,7.17,6.93h.16a30.68,30.68,0,0,1,4.57.76,27.52,27.52,0,0,0,5.34.81h.38a22.31,22.31,0,0,0,6.56-1.25c1-.29,2-.6,3.05-.84a2.12,2.12,0,0,1,.44,0,6.73,6.73,0,0,1,2.88,1.08,9.49,9.49,0,0,0,3,1.19h.11a.75.75,0,0,0,.44-1.36c-1.22-.89-2.28-1.71-3.2-2.44C26.91,1.76,24.74.05,18.4.05Z" transform="translate(0 -0.05)"/><path class="cls-6" d="M30.7,5.38C26.15.93,23.14.83,17.06,1S8,1.67,3.67,6.11C8.3,3.9,12.08,3.8,17.12,3.74S26,3.39,30.7,5.38Z" transform="translate(0 -0.05)"/><path class="cls-5" d="M18.4.8C26,.8,27.31,3.31,33.62,7.9c-1.95-.3-4-2.28-5.95-2.28a2.6,2.6,0,0,0-.61.07c-3.35.77-6.1,2.07-9.44,2.07h-.36c-3.51-.1-6.35-1.33-9.88-1.57H7.17c-2.12,0-4.3,2.19-6.42,2.65,6.43-5.2,7.55-7.7,16.31-8L18.4.8m0-.75L17,.08C9.54.33,7.3,2.27,3.22,5.78,2.36,6.51,1.39,7.35.28,8.25a.75.75,0,0,0-.21.91.77.77,0,0,0,.68.42H.91a11.47,11.47,0,0,0,3-1.36A7.39,7.39,0,0,1,7.17,6.93h.16a30.68,30.68,0,0,1,4.57.76,27.52,27.52,0,0,0,5.34.81h.38a22.31,22.31,0,0,0,6.56-1.25c1-.29,2-.6,3.05-.84a2.12,2.12,0,0,1,.44,0,6.73,6.73,0,0,1,2.88,1.08,9.49,9.49,0,0,0,3,1.19h.11a.75.75,0,0,0,.44-1.36c-1.22-.89-2.28-1.71-3.2-2.44C26.91,1.76,24.74.05,18.4.05Z" transform="translate(0 -0.05)"/></g></g></g></g></svg>