<svg xmlns="http://www.w3.org/2000/svg" xmlns:xlink="http://www.w3.org/1999/xlink" viewBox="0 0 47.83 22.18"><defs><style>.cls-1{fill:#e8b886;opacity:0.42;}.cls-2{fill:#bd966d;}.cls-3{fill:#99775e;}.cls-4{fill:url(#radial-gradient);}.cls-5{fill:#fff;}</style><radialGradient id="radial-gradient" cx="23.83" cy="14.73" r="4.5" gradientTransform="matrix(-0.01, -1, 3.54, -0.05, -28.03, 39.29)" gradientUnits="userSpaceOnUse"><stop offset="0" stop-color="#ffaebd"/><stop offset="1" stop-color="#a96675"/></radialGradient></defs><title>mouth_smile_color1</title><g id="Layer_2" data-name="Layer 2"><g id="face_1" data-name="face 1"><path class="cls-1" d="M31.92,19.18c-3,0-6,1.6-9,1.67s-5.79-1.67-8.75-1.67-3,1,0,1,5.75,2,8.75,2,6.11-2,9-2S34.92,19.18,31.92,19.18Z"/><g id="mouth"><path class="cls-2" d="M23.92,17.56c-9,0-12.1-3.89-16-8.82l-.26-.32A62.71,62.71,0,0,0,.5,1a.37.37,0,0,1,0-.51A.42.42,0,0,1,.75.37.31.31,0,0,1,1,.44c2.53,1.63,8.87,4.37,23,4.37s20.43-2.74,23-4.37a.31.31,0,0,1,.2-.07.38.38,0,0,1,.3.15.37.37,0,0,1-.05.51,62.71,62.71,0,0,0-7.12,7.39L40,8.74C36,13.67,32.9,17.56,23.92,17.56Z"/><path class="cls-3" d="M.75.75C3.5,2.53,9.94,5.18,23.92,5.18S44.33,2.53,47.08.75a63.64,63.64,0,0,0-7.16,7.43c-4,5-7,9-16,9s-12-4-16-9A64.44,64.44,0,0,0,.75.75M.75,0a.74.74,0,0,0-.6.3.76.76,0,0,0,.1,1A62.63,62.63,0,0,1,7.33,8.65L7.59,9c3.84,4.81,7.16,9,16.33,9S36.4,13.78,40.25,9l.25-.32a62.63,62.63,0,0,1,7.08-7.34.74.74,0,0,0,.1-1,.74.74,0,0,0-.6-.3.72.72,0,0,0-.4.12c-2.49,1.61-8.76,4.31-22.76,4.31S3.65,1.73,1.16.12A.78.78,0,0,0,.75,0Z"/><path class="cls-4" d="M23.92,10.18a34.77,34.77,0,0,0-12.47,2.17c2.82,2.88,6.18,4.83,12.47,4.83s9.64-1.95,12.46-4.83A34.76,34.76,0,0,0,23.92,10.18Z"/><path class="cls-5" d="M43.14,2.62C39.39,4,33.39,5.18,23.92,5.18S8.44,4,4.7,2.62c4.52,4.31,8.71,6.56,19.22,6.56S38.62,6.93,43.14,2.62Z"/></g></g></g></svg>