<svg xmlns="http://www.w3.org/2000/svg" xmlns:xlink="http://www.w3.org/1999/xlink" viewBox="0 0 39 96.25"><defs><style>.cls-1{isolation:isolate;}.cls-2{mix-blend-mode:multiply;}.cls-3{fill:#fff;opacity:0;}.cls-4{fill:#f9f9f9;opacity:0.05;}.cls-5{fill:#f3f3f3;opacity:0.1;}.cls-6{fill:#ededee;opacity:0.14;}.cls-7{fill:#e7e7e8;opacity:0.19;}.cls-8{fill:#e1e1e2;opacity:0.24;}.cls-9{fill:#dbdbdc;opacity:0.29;}.cls-10{fill:#d5d5d6;opacity:0.33;}.cls-11{fill:#cfcfd1;opacity:0.38;}.cls-12{fill:#c9c9cb;opacity:0.43;}.cls-13{fill:#c3c3c5;opacity:0.48;}.cls-14{fill:#bcbebf;opacity:0.52;}.cls-15{fill:#b6b8b9;opacity:0.57;}.cls-16{fill:#b0b2b3;opacity:0.62;}.cls-17{fill:#aaacae;opacity:0.67;}.cls-18{fill:#a4a6a8;opacity:0.71;}.cls-19{fill:#9ea0a2;opacity:0.76;}.cls-20{fill:#989a9c;opacity:0.81;}.cls-21{fill:#929496;opacity:0.86;}.cls-22{fill:#8c8e91;opacity:0.9;}.cls-23{fill:#86888b;opacity:0.95;}.Graphic-Style{fill:#808285;}.cls-24{fill:url(#linear-gradient);}.cls-25{fill:url(#linear-gradient-2);}.cls-26{fill:url(#linear-gradient-3);}.cls-27{fill:url(#linear-gradient-4);}</style><linearGradient id="linear-gradient" y1="46.02" x2="34.8" y2="46.02" gradientUnits="userSpaceOnUse"><stop offset="0" stop-color="#fff"/><stop offset="1" stop-color="#d1d3d4"/></linearGradient><linearGradient id="linear-gradient-2" x1="0.56" y1="46.02" x2="34.24" y2="46.02" gradientUnits="userSpaceOnUse"><stop offset="0" stop-color="#d1d3d4"/><stop offset="1" stop-color="#fff"/></linearGradient><linearGradient id="linear-gradient-3" x1="4.77" y1="46.02" x2="30.03" y2="46.02" gradientUnits="userSpaceOnUse"><stop offset="0" stop-color="#e24263"/><stop offset="1" stop-color="#dd1e47"/></linearGradient><linearGradient id="linear-gradient-4" x1="5.33" y1="46.02" x2="29.47" y2="46.02" gradientUnits="userSpaceOnUse"><stop offset="0" stop-color="#dd1e47"/><stop offset="1" stop-color="#e24263"/></linearGradient></defs><title>temp_h</title><g class="cls-1"><g id="Layer_2" data-name="Layer 2"><g id="face_Sick" data-name="face Sick"><g class="cls-2"><path class="cls-3" d="M21.6,96.25A17.41,17.41,0,0,1,11.49,64.68V14.3a10.11,10.11,0,0,1,20.21,0V64.68A17.4,17.4,0,0,1,21.6,96.25Z"/><path class="cls-4" d="M11.3,14.1a10.1,10.1,0,0,1,20.2,0V64.48l0,0a17.39,17.39,0,1,1-20.24,0Z"/><path class="cls-5" d="M11.11,13.9a10.09,10.09,0,1,1,20.18,0V64.29l.05,0a17.39,17.39,0,1,1-20.23,0Z"/><path class="cls-6" d="M10.91,13.7a10.09,10.09,0,1,1,20.17,0V64.09l.05,0a17.39,17.39,0,1,1-20.22,0Z"/><path class="cls-7" d="M10.72,13.5a10.08,10.08,0,0,1,20.16,0V63.89l.05,0a17.38,17.38,0,1,1-20.21,0Z"/><path class="cls-8" d="M10.52,13.3a10.08,10.08,0,0,1,20.15,0V63.7l0,0a17.36,17.36,0,1,1-20.2,0Z"/><path class="cls-9" d="M10.33,13.1a10.07,10.07,0,0,1,20.14,0V63.5l.05,0a17.37,17.37,0,1,1-20.19,0Z"/><path class="cls-10" d="M10.13,12.9a10.07,10.07,0,0,1,20.13,0V63.3l0,0a17.36,17.36,0,1,1-20.18,0Z"/><path class="cls-11" d="M9.94,12.7a10.06,10.06,0,0,1,20.12,0V63.1l.05,0a17.36,17.36,0,1,1-20.17,0Z"/><path class="cls-12" d="M9.74,12.5a10.06,10.06,0,0,1,20.11,0V62.91l0,0a17.35,17.35,0,1,1-20.16,0Z"/><path class="cls-13" d="M9.55,12.3a10,10,0,1,1,20.1,0V62.71l.05,0a17.35,17.35,0,1,1-20.15,0Z"/><path class="cls-14" d="M9.35,12.1a10,10,0,0,1,20.09,0V62.51l0,0a17.33,17.33,0,1,1-20.14,0Z"/><path class="cls-15" d="M9.16,11.9a10,10,0,0,1,20.08,0V62.31l0,0a17.33,17.33,0,1,1-20.12,0Z"/><path class="cls-16" d="M9,11.7A10,10,0,0,1,29,11.7V62.12l0,0A17.33,17.33,0,1,1,9,62.12Z"/><path class="cls-17" d="M8.77,11.5a10,10,0,1,1,20.06,0V61.92l0,0a17.33,17.33,0,1,1-20.1,0Z"/><path class="cls-18" d="M8.58,11.3a10,10,0,0,1,20,0V61.72l.05,0a17.32,17.32,0,1,1-20.09,0Z"/><path class="cls-19" d="M8.38,11.1a10,10,0,0,1,20,0V61.53l0,0a17.31,17.31,0,1,1-20.08,0Z"/><path class="cls-20" d="M8.19,10.9a10,10,0,0,1,20,0V61.33l.05,0a17.31,17.31,0,1,1-20.07,0Z"/><path class="cls-21" d="M8,10.7a10,10,0,0,1,20,0V61.13l0,0A17.29,17.29,0,1,1,8,61.13Z"/><path class="cls-22" d="M7.8,10.5a10,10,0,0,1,20,0V60.93l.05,0a17.3,17.3,0,1,1-20,0Z"/><path class="cls-23" d="M7.6,10.3a10,10,0,0,1,20,0V60.74l0,0a17.29,17.29,0,1,1-20,0Z"/><path class="Graphic-Style" d="M17.4,91.94a17.29,17.29,0,0,1-10-31.37l0,0V10.1a10,10,0,0,1,20,0V60.54l.05,0a17.29,17.29,0,0,1-10,31.37Z"/></g><path class="cls-24" d="M17.4,92.05A17.4,17.4,0,0,1,7.3,60.48V10.1a10.1,10.1,0,0,1,20.2,0V60.48A17.4,17.4,0,0,1,17.4,92.05Z"/><path class="cls-25" d="M17.4,91.49A16.84,16.84,0,0,1,7.86,60.77V10.1a9.54,9.54,0,0,1,19.08,0V60.78A16.84,16.84,0,0,1,17.4,91.49Z"/><g class="cls-2"><path class="cls-3" d="M20.19,90.07A12.63,12.63,0,0,1,13,67l1.82-1.26V12.9a5.34,5.34,0,0,1,10.67,0V65.78L27.35,67a12.63,12.63,0,0,1-7.16,23Z"/><path class="cls-4" d="M20.06,89.93a12.62,12.62,0,0,1-7.15-23l1.82-1.26V12.76a5.33,5.33,0,0,1,10.66,0V65.65l1.82,1.26a12.62,12.62,0,0,1-7.15,23Z"/><path class="cls-5" d="M19.93,89.8a12.62,12.62,0,0,1-7.15-23l1.83-1.26V12.63a5.32,5.32,0,1,1,10.64,0V65.52l1.83,1.26a12.62,12.62,0,0,1-7.15,23Z"/><path class="cls-6" d="M19.79,89.66a12.61,12.61,0,0,1-7.14-23l1.83-1.26V12.5a5.32,5.32,0,1,1,10.63,0V65.39l1.83,1.26a12.61,12.61,0,0,1-7.15,23Z"/><path class="cls-7" d="M19.66,89.52a12.61,12.61,0,0,1-7.14-23l1.83-1.26V12.37a5.31,5.31,0,1,1,10.62,0V65.26l1.84,1.26a12.61,12.61,0,0,1-7.15,23Z"/><path class="cls-8" d="M19.53,89.38a12.61,12.61,0,0,1-7.14-23l1.83-1.26V12.23a5.31,5.31,0,0,1,10.61,0v52.9l1.84,1.26a12.61,12.61,0,0,1-7.14,23Z"/><path class="cls-9" d="M19.4,89.24a12.59,12.59,0,0,1-7.14-23L14.1,65V12.1a5.3,5.3,0,0,1,10.6,0V65l1.83,1.27a12.59,12.59,0,0,1-7.13,23Z"/><path class="cls-10" d="M19.26,89.1a12.59,12.59,0,0,1-7.13-23L14,64.87V12a5.3,5.3,0,1,1,10.59,0v52.9l1.84,1.27a12.59,12.59,0,0,1-7.14,23Z"/><path class="cls-11" d="M19.13,89A12.59,12.59,0,0,1,12,66l1.84-1.27V11.83a5.29,5.29,0,0,1,10.58,0V64.74L26.26,66a12.59,12.59,0,0,1-7.13,23Z"/><path class="cls-12" d="M19,88.83a12.58,12.58,0,0,1-7.13-23l1.84-1.27V11.7a5.29,5.29,0,0,1,10.57,0V64.61l1.84,1.27a12.58,12.58,0,0,1-7.12,23Z"/><path class="cls-13" d="M18.86,88.69a12.58,12.58,0,0,1-7.12-22.94l1.84-1.27V11.57a5.28,5.28,0,0,1,10.56,0V64.48L26,65.75a12.58,12.58,0,0,1-7.13,22.94Z"/><path class="cls-14" d="M18.73,88.55a12.57,12.57,0,0,1-7.12-22.93l1.85-1.27V11.43a5.27,5.27,0,0,1,10.54,0V64.35l1.85,1.27a12.57,12.57,0,0,1-7.12,22.93Z"/><path class="cls-15" d="M18.6,88.41a12.56,12.56,0,0,1-7.12-22.92l1.85-1.27V11.3a5.27,5.27,0,1,1,10.54,0V64.22l1.85,1.27A12.57,12.57,0,0,1,18.6,88.41Z"/><path class="cls-16" d="M18.46,88.27a12.56,12.56,0,0,1-7.11-22.91l1.85-1.27V11.17a5.27,5.27,0,0,1,10.53,0V64.09l1.85,1.27a12.56,12.56,0,0,1-7.12,22.91Z"/><path class="cls-17" d="M18.33,88.13a12.55,12.55,0,0,1-7.11-22.89L13.07,64V11a5.26,5.26,0,0,1,10.52,0V64l1.85,1.28a12.55,12.55,0,0,1-7.11,22.89Z"/><path class="cls-18" d="M18.2,88a12.55,12.55,0,0,1-7.11-22.89L13,63.83V10.9a5.25,5.25,0,0,1,10.5,0V63.83l1.86,1.28A12.55,12.55,0,0,1,18.2,88Z"/><path class="cls-19" d="M18.06,87.86A12.54,12.54,0,0,1,11,65l1.86-1.28V10.77a5.25,5.25,0,1,1,10.49,0V63.7L25.17,65a12.54,12.54,0,0,1-7.11,22.88Z"/><path class="cls-20" d="M17.93,87.72a12.54,12.54,0,0,1-7.1-22.87l1.86-1.28V10.64a5.24,5.24,0,1,1,10.48,0V63.57L25,64.85a12.54,12.54,0,0,1-7.11,22.87Z"/><path class="cls-21" d="M17.8,87.58a12.53,12.53,0,0,1-7.1-22.86l1.86-1.28V10.5A5.24,5.24,0,0,1,23,10.5V63.44l1.87,1.28a12.53,12.53,0,0,1-7.1,22.86Z"/><path class="cls-22" d="M17.67,87.44a12.53,12.53,0,0,1-7.1-22.85l1.87-1.28V10.37a5.23,5.23,0,1,1,10.46,0V63.31l1.86,1.28a12.53,12.53,0,0,1-7.09,22.85Z"/><path class="cls-23" d="M17.53,87.3a12.52,12.52,0,0,1-7.09-22.84l1.87-1.28V10.24a5.23,5.23,0,1,1,10.45,0V63.18l1.87,1.28a12.53,12.53,0,0,1-7.1,22.84Z"/><path class="Graphic-Style" d="M17.4,87.17a12.51,12.51,0,0,1-7.09-22.83l1.87-1.29V10.1a5.22,5.22,0,0,1,10.44,0v53l1.87,1.29A12.51,12.51,0,0,1,17.4,87.17Z"/></g><path class="cls-26" d="M17.4,87.28a12.63,12.63,0,0,1-7.16-23L12.07,63V10.1a5.33,5.33,0,0,1,10.66,0V63l1.82,1.25a12.63,12.63,0,0,1-7.15,23Z"/><path class="cls-27" d="M17.4,86.72a12.07,12.07,0,0,1-6.84-22l2.07-1.43V10.1a4.77,4.77,0,0,1,9.54,0V63.28l2.07,1.43a12.07,12.07,0,0,1-6.84,22Z"/><path class="Graphic-Style" d="M26.61,55.57H24.93a.29.29,0,0,1,0-.57h1.68a.29.29,0,0,1,0,.57Z"/><path class="Graphic-Style" d="M26.61,50H24.93a.27.27,0,0,1-.28-.28.28.28,0,0,1,.28-.28h1.68a.28.28,0,0,1,.28.28A.27.27,0,0,1,26.61,50Z"/><path class="Graphic-Style" d="M26.61,44.34H24.93a.28.28,0,0,1,0-.56h1.68a.28.28,0,0,1,0,.56Z"/><path class="Graphic-Style" d="M26.61,38.73H24.93a.28.28,0,0,1-.28-.28.27.27,0,0,1,.28-.28h1.68a.27.27,0,0,1,.28.28A.28.28,0,0,1,26.61,38.73Z"/><path class="Graphic-Style" d="M26.61,33.12H24.93a.29.29,0,0,1,0-.57h1.68a.29.29,0,0,1,0,.57Z"/><path class="Graphic-Style" d="M26.61,27.5H24.93a.27.27,0,0,1-.28-.28.28.28,0,0,1,.28-.28h1.68a.28.28,0,0,1,.28.28A.27.27,0,0,1,26.61,27.5Z"/><path class="Graphic-Style" d="M26.61,21.89H24.93a.28.28,0,0,1-.28-.28.27.27,0,0,1,.28-.28h1.68a.27.27,0,0,1,.28.28A.28.28,0,0,1,26.61,21.89Z"/><path class="Graphic-Style" d="M26.61,16.28H24.93a.28.28,0,0,1-.28-.28.27.27,0,0,1,.28-.28h1.68a.27.27,0,0,1,.28.28A.28.28,0,0,1,26.61,16.28Z"/><path class="Graphic-Style" d="M26.61,10.66H24.93a.27.27,0,0,1-.28-.28.28.28,0,0,1,.28-.28h1.68a.28.28,0,0,1,.28.28A.27.27,0,0,1,26.61,10.66Z"/></g></g></g></svg>